<svg id="_3hoek_GIG" data-name="3hoek_GIG" xmlns="http://www.w3.org/2000/svg" viewBox="0 0 638.52 662.32"><defs><style>.cls-1,.cls-2{fill:none;stroke-miterlimit:10;}.cls-1{stroke:aqua;}.cls-2{stroke:#fff;}</style></defs><polygon class="cls-1" points="0.8 656.61 637.72 656.61 319.26 1.14 0.8 656.61"/><polygon class="cls-1" points="16.72 640.23 621.8 640.23 319.26 17.53 16.72 640.23"/><polygon class="cls-1" points="31.85 624.66 606.67 624.66 319.26 33.1 31.85 624.66"/><polygon class="cls-1" points="46.22 609.87 592.3 609.87 319.26 47.89 46.22 609.87"/><polygon class="cls-1" points="59.87 595.82 578.65 595.82 319.26 61.94 59.87 595.82"/><polygon class="cls-1" points="72.84 582.47 565.68 582.47 319.26 75.28 72.84 582.47"/><polygon class="cls-1" points="85.16 569.79 553.36 569.79 319.26 87.96 85.16 569.79"/><polygon class="cls-1" points="96.87 557.75 541.65 557.75 319.26 100.01 96.87 557.75"/><polygon class="cls-1" points="107.99 546.3 530.54 546.3 319.26 111.45 107.99 546.3"/><polygon class="cls-1" points="118.55 535.43 519.97 535.43 319.26 122.32 118.55 535.43"/><polygon class="cls-1" points="128.59 525.11 509.94 525.11 319.26 132.65 128.59 525.11"/><polygon class="cls-1" points="138.12 515.29 500.4 515.29 319.26 142.46 138.12 515.29"/><polygon class="cls-1" points="147.18 505.97 491.35 505.97 319.26 151.78 147.18 505.97"/><polygon class="cls-1" points="155.78 497.12 482.74 497.12 319.26 160.64 155.78 497.12"/><polygon class="cls-1" points="163.96 488.71 474.57 488.71 319.26 169.05 163.96 488.71"/><polygon class="cls-1" points="171.72 480.71 466.8 480.71 319.26 177.04 171.72 480.71"/><polygon class="cls-1" points="179.1 473.12 459.43 473.12 319.26 184.63 179.1 473.12"/><polygon class="cls-1" points="186.11 465.91 452.42 465.91 319.26 191.85 186.11 465.91"/><polygon class="cls-1" points="192.76 459.06 445.76 459.06 319.26 198.7 192.76 459.06"/><polygon class="cls-1" points="199.09 452.55 439.43 452.55 319.26 205.21 199.09 452.55"/><polygon class="cls-1" points="205.1 446.37 433.43 446.37 319.26 211.39 205.1 446.37"/><polygon class="cls-1" points="210.81 440.49 427.72 440.49 319.26 217.26 210.81 440.49"/><polygon class="cls-1" points="216.23 434.91 422.29 434.91 319.26 222.84 216.23 434.91"/><polygon class="cls-1" points="221.38 429.61 417.14 429.61 319.26 228.15 221.38 429.61"/><polygon class="cls-1" points="226.27 424.57 412.25 424.57 319.26 233.18 226.27 424.57"/><polygon class="cls-1" points="230.92 419.79 407.6 419.79 319.26 237.97 230.92 419.79"/><polygon class="cls-1" points="235.34 415.24 403.18 415.24 319.26 242.51 235.34 415.24"/><polygon class="cls-1" points="239.54 410.93 398.99 410.93 319.26 246.83 239.54 410.93"/><polygon class="cls-1" points="243.52 406.82 395 406.82 319.26 250.93 243.52 406.82"/><polygon class="cls-1" points="247.31 402.93 391.21 402.93 319.26 254.83 247.31 402.93"/><polygon class="cls-1" points="250.91 399.22 387.62 399.22 319.26 258.53 250.91 399.22"/><polygon class="cls-1" points="254.32 395.71 384.2 395.71 319.26 262.05 254.32 395.71"/><polygon class="cls-1" points="257.57 392.36 380.95 392.36 319.26 265.39 257.57 392.36"/><polygon class="cls-1" points="260.66 389.19 377.87 389.19 319.26 268.57 260.66 389.19"/><polygon class="cls-1" points="263.59 386.18 374.94 386.18 319.26 271.58 263.59 386.18"/><polygon class="cls-1" points="266.37 383.31 372.15 383.31 319.26 274.45 266.37 383.31"/><polygon class="cls-1" points="269.01 380.59 369.51 380.59 319.26 277.17 269.01 380.59"/><polygon class="cls-1" points="271.53 378 367 378 319.26 279.75 271.53 378"/><polygon class="cls-1" points="273.91 375.55 364.61 375.55 319.26 282.21 273.91 375.55"/><polygon class="cls-1" points="276.18 373.21 362.34 373.21 319.26 284.54 276.18 373.21"/><polygon class="cls-1" points="278.33 371 360.19 371 319.26 286.76 278.33 371"/><polygon class="cls-1" points="280.38 368.89 358.14 368.89 319.26 288.87 280.38 368.89"/><polygon class="cls-1" points="282.32 366.89 356.2 366.89 319.26 290.87 282.32 366.89"/><polygon class="cls-1" points="284.17 364.99 354.35 364.99 319.26 292.77 284.17 364.99"/><polygon class="cls-1" points="285.93 363.18 352.6 363.18 319.26 294.57 285.93 363.18"/><polygon class="cls-1" points="287.59 361.47 350.93 361.47 319.26 296.29 287.59 361.47"/><polygon class="cls-1" points="289.18 359.84 349.35 359.84 319.26 297.92 289.18 359.84"/><polygon class="cls-1" points="290.68 358.29 347.84 358.29 319.26 299.47 290.68 358.29"/><polygon class="cls-1" points="292.11 356.82 346.41 356.82 319.26 300.94 292.11 356.82"/><polygon class="cls-1" points="293.47 355.42 345.06 355.42 319.26 302.33 293.47 355.42"/><polygon class="cls-1" points="294.76 354.1 343.76 354.1 319.26 303.66 294.76 354.1"/><polygon class="cls-1" points="295.98 352.83 342.54 352.83 319.26 304.92 295.98 352.83"/><polygon class="cls-1" points="297.15 351.64 341.38 351.64 319.26 306.12 297.15 351.64"/><polygon class="cls-1" points="298.25 350.5 340.27 350.5 319.26 307.26 298.25 350.5"/><polygon class="cls-1" points="299.3 349.42 339.22 349.42 319.26 308.34 299.3 349.42"/><polygon class="cls-1" points="300.3 348.39 338.22 348.39 319.26 309.37 300.3 348.39"/><polygon class="cls-1" points="301.25 347.42 337.27 347.42 319.26 310.34 301.25 347.42"/><polygon class="cls-1" points="302.15 346.49 336.37 346.49 319.26 311.27 302.15 346.49"/><polygon class="cls-1" points="303 345.61 335.52 345.61 319.26 312.15 303 345.61"/><polygon class="cls-1" points="303.82 344.77 334.7 344.77 319.26 312.99 303.82 344.77"/><polygon class="cls-1" points="304.59 343.98 333.93 343.98 319.26 313.78 304.59 343.98"/><polygon class="cls-1" points="305.32 343.22 333.2 343.22 319.26 314.54 305.32 343.22"/><polygon class="cls-1" points="306.02 342.5 332.5 342.5 319.26 315.25 306.02 342.5"/><polygon class="cls-1" points="306.68 341.82 331.84 341.82 319.26 315.93 306.68 341.82"/><polygon class="cls-1" points="307.31 341.18 331.21 341.18 319.26 316.58 307.31 341.18"/><polygon class="cls-1" points="307.91 340.56 330.61 340.56 319.26 317.19 307.91 340.56"/><polygon class="cls-1" points="308.48 339.98 330.05 339.98 319.26 317.78 308.48 339.98"/><polygon class="cls-1" points="309.02 339.42 329.51 339.42 319.26 318.33 309.02 339.42"/><polygon class="cls-1" points="309.53 338.89 329 338.89 319.26 318.86 309.53 338.89"/><polygon class="cls-1" points="310.01 338.39 328.51 338.39 319.26 319.36 310.01 338.39"/><polygon class="cls-1" points="310.48 337.92 328.05 337.92 319.26 319.84 310.48 337.92"/><polygon class="cls-1" points="310.92 337.47 327.61 337.47 319.26 320.29 310.92 337.47"/><polygon class="cls-1" points="311.33 337.04 327.19 337.04 319.26 320.72 311.33 337.04"/><polygon class="cls-1" points="311.73 336.63 326.79 336.63 319.26 321.13 311.73 336.63"/><polygon class="cls-1" points="312.11 336.24 326.42 336.24 319.26 321.51 312.11 336.24"/><polygon class="cls-1" points="312.46 335.87 326.06 335.87 319.26 321.88 312.46 335.87"/><polygon class="cls-1" points="312.8 335.52 325.72 335.52 319.26 322.23 312.8 335.52"/><polygon class="cls-1" points="313.13 335.19 325.4 335.19 319.26 322.56 313.13 335.19"/><polygon class="cls-1" points="313.43 334.88 325.09 334.88 319.26 322.88 313.43 334.88"/><polygon class="cls-1" points="313.73 334.58 324.8 334.58 319.26 323.18 313.73 334.58"/><polygon class="cls-1" points="314 334.29 324.52 334.29 319.26 323.47 314 334.29"/><polygon class="cls-1" points="314.26 334.02 324.26 334.02 319.26 323.74 314.26 334.02"/><polygon class="cls-1" points="314.51 333.76 324.01 333.76 319.26 323.99 314.51 333.76"/><polygon class="cls-1" points="314.75 333.52 323.77 333.52 319.26 324.24 314.75 333.52"/><polygon class="cls-1" points="314.98 333.29 323.55 333.29 319.26 324.47 314.98 333.29"/><polygon class="cls-1" points="315.19 333.07 323.33 333.07 319.26 324.69 315.19 333.07"/><polygon class="cls-1" points="315.39 332.86 323.13 332.86 319.26 324.9 315.39 332.86"/><polygon class="cls-1" points="315.59 332.66 322.93 332.66 319.26 325.1 315.59 332.66"/><polygon class="cls-1" points="315.77 332.47 322.75 332.47 319.26 325.29 315.77 332.47"/><polygon class="cls-1" points="315.95 332.29 322.58 332.29 319.26 325.47 315.95 332.29"/><polygon class="cls-1" points="316.11 332.12 322.41 332.12 319.26 325.64 316.11 332.12"/><polygon class="cls-1" points="316.27 331.96 322.25 331.96 319.26 325.8 316.27 331.96"/><polygon class="cls-1" points="316.42 331.8 322.1 331.8 319.26 325.95 316.42 331.8"/><polygon class="cls-1" points="316.56 331.66 321.96 331.66 319.26 326.1 316.56 331.66"/><polygon class="cls-1" points="316.7 331.52 321.83 331.52 319.26 326.24 316.7 331.52"/><polygon class="cls-1" points="316.82 331.39 321.7 331.39 319.26 326.37 316.82 331.39"/><polygon class="cls-1" points="316.95 331.26 321.58 331.26 319.26 326.5 316.95 331.26"/><polygon class="cls-1" points="317.06 331.14 321.46 331.14 319.26 326.62 317.06 331.14"/><polygon class="cls-1" points="317.17 331.03 321.35 331.03 319.26 326.73 317.17 331.03"/><polygon class="cls-1" points="317.28 330.92 321.25 330.92 319.26 326.84 317.28 330.92"/><polygon class="cls-1" points="317.38 330.82 321.15 330.82 319.26 326.94 317.38 330.82"/><polygon class="cls-1" points="317.47 330.72 321.05 330.72 319.26 327.04 317.47 330.72"/><polygon class="cls-1" points="317.56 330.63 320.96 330.63 319.26 327.13 317.56 330.63"/><polygon class="cls-1" points="317.64 330.54 320.88 330.54 319.26 327.21 317.64 330.54"/><polygon class="cls-1" points="317.73 330.46 320.8 330.46 319.26 327.3 317.73 330.46"/><polygon class="cls-1" points="317.8 330.38 320.72 330.38 319.26 327.38 317.8 330.38"/><polygon class="cls-2" points="637.72 5.71 0.8 5.71 319.26 661.17 637.72 5.71"/><polygon class="cls-2" points="621.8 22.09 16.72 22.09 319.26 644.79 621.8 22.09"/><polygon class="cls-2" points="606.67 37.66 31.85 37.66 319.26 629.22 606.67 37.66"/><polygon class="cls-2" points="592.3 52.45 46.22 52.45 319.26 614.43 592.3 52.45"/><polygon class="cls-2" points="578.65 66.5 59.87 66.5 319.26 600.38 578.65 66.5"/><polygon class="cls-2" points="565.68 79.85 72.84 79.85 319.26 587.03 565.68 79.85"/><polygon class="cls-2" points="553.36 92.53 85.16 92.53 319.26 574.36 553.36 92.53"/><polygon class="cls-2" points="541.65 104.57 96.87 104.57 319.26 562.31 541.65 104.57"/><polygon class="cls-2" points="530.54 116.02 107.99 116.02 319.26 550.87 530.54 116.02"/><polygon class="cls-2" points="519.97 126.89 118.55 126.89 319.26 540 519.97 126.89"/><polygon class="cls-2" points="509.94 137.21 128.59 137.21 319.26 529.67 509.94 137.21"/><polygon class="cls-2" points="500.4 147.03 138.12 147.03 319.26 519.86 500.4 147.03"/><polygon class="cls-2" points="491.35 156.35 147.18 156.35 319.26 510.54 491.35 156.35"/><polygon class="cls-2" points="482.74 165.2 155.78 165.2 319.26 501.68 482.74 165.2"/><polygon class="cls-2" points="474.57 173.61 163.96 173.61 319.26 493.27 474.57 173.61"/><polygon class="cls-2" points="466.8 181.6 171.72 181.6 319.26 485.28 466.8 181.6"/><polygon class="cls-2" points="459.43 189.2 179.1 189.2 319.26 477.69 459.43 189.2"/><polygon class="cls-2" points="452.42 196.41 186.11 196.41 319.26 470.47 452.42 196.41"/><polygon class="cls-2" points="445.76 203.26 192.76 203.26 319.26 463.62 445.76 203.26"/><polygon class="cls-2" points="439.43 209.77 199.09 209.77 319.26 457.11 439.43 209.77"/><polygon class="cls-2" points="433.43 215.95 205.1 215.95 319.26 450.93 433.43 215.95"/><polygon class="cls-2" points="427.72 221.83 210.81 221.83 319.26 445.06 427.72 221.83"/><polygon class="cls-2" points="422.29 227.41 216.23 227.41 319.26 439.47 422.29 227.41"/><polygon class="cls-2" points="417.14 232.71 221.38 232.71 319.26 434.17 417.14 232.71"/><polygon class="cls-2" points="412.25 237.75 226.27 237.75 319.26 429.14 412.25 237.75"/><polygon class="cls-2" points="407.6 242.53 230.92 242.53 319.26 424.35 407.6 242.53"/><polygon class="cls-2" points="403.18 247.08 235.34 247.08 319.26 419.81 403.18 247.08"/><polygon class="cls-2" points="398.99 251.4 239.54 251.4 319.26 415.49 398.99 251.4"/><polygon class="cls-2" points="395 255.5 243.52 255.5 319.26 411.38 395 255.5"/><polygon class="cls-2" points="391.21 259.39 247.31 259.39 319.26 407.49 391.21 259.39"/><polygon class="cls-2" points="387.62 263.1 250.91 263.1 319.26 403.79 387.62 263.1"/><polygon class="cls-2" points="384.2 266.61 254.32 266.61 319.26 400.27 384.2 266.61"/><polygon class="cls-2" points="380.95 269.95 257.57 269.95 319.26 396.93 380.95 269.95"/><polygon class="cls-2" points="377.87 273.13 260.66 273.13 319.26 393.75 377.87 273.13"/><polygon class="cls-2" points="374.94 276.14 263.59 276.14 319.26 390.74 374.94 276.14"/><polygon class="cls-2" points="372.15 279.01 266.37 279.01 319.26 387.87 372.15 279.01"/><polygon class="cls-2" points="369.51 281.73 269.01 281.73 319.26 385.15 369.51 281.73"/><polygon class="cls-2" points="367 284.32 271.53 284.32 319.26 382.56 367 284.32"/><polygon class="cls-2" points="364.61 286.77 273.91 286.77 319.26 380.11 364.61 286.77"/><polygon class="cls-2" points="362.34 289.11 276.18 289.11 319.26 377.77 362.34 289.11"/><polygon class="cls-2" points="360.19 291.32 278.33 291.32 319.26 375.56 360.19 291.32"/><polygon class="cls-2" points="358.14 293.43 280.38 293.43 319.26 373.45 358.14 293.43"/><polygon class="cls-2" points="356.2 295.43 282.32 295.43 319.26 371.45 356.2 295.43"/><polygon class="cls-2" points="354.35 297.33 284.17 297.33 319.26 369.55 354.35 297.33"/><polygon class="cls-2" points="352.6 299.14 285.93 299.14 319.26 367.75 352.6 299.14"/><polygon class="cls-2" points="350.93 300.85 287.59 300.85 319.26 366.03 350.93 300.85"/><polygon class="cls-2" points="349.35 302.48 289.18 302.48 319.26 364.4 349.35 302.48"/><polygon class="cls-2" points="347.84 304.03 290.68 304.03 319.26 362.85 347.84 304.03"/><polygon class="cls-2" points="346.41 305.5 292.11 305.5 319.26 361.38 346.41 305.5"/><polygon class="cls-2" points="345.06 306.9 293.47 306.9 319.26 359.99 345.06 306.9"/><polygon class="cls-2" points="343.76 308.22 294.76 308.22 319.26 358.66 343.76 308.22"/><polygon class="cls-2" points="342.54 309.48 295.98 309.48 319.26 357.4 342.54 309.48"/><polygon class="cls-2" points="341.38 310.68 297.15 310.68 319.26 356.2 341.38 310.68"/><polygon class="cls-2" points="340.27 311.82 298.25 311.82 319.26 355.06 340.27 311.82"/><polygon class="cls-2" points="339.22 312.9 299.3 312.9 319.26 353.98 339.22 312.9"/><polygon class="cls-2" points="338.22 313.93 300.3 313.93 319.26 352.95 338.22 313.93"/><polygon class="cls-2" points="337.27 314.9 301.25 314.9 319.26 351.98 337.27 314.9"/><polygon class="cls-2" points="336.37 315.83 302.15 315.83 319.26 351.05 336.37 315.83"/><polygon class="cls-2" points="335.52 316.71 303 316.71 319.26 350.17 335.52 316.71"/><polygon class="cls-2" points="334.7 317.55 303.82 317.55 319.26 349.33 334.7 317.55"/><polygon class="cls-2" points="333.93 318.34 304.59 318.34 319.26 348.54 333.93 318.34"/><polygon class="cls-2" points="333.2 319.1 305.32 319.1 319.26 347.79 333.2 319.1"/><polygon class="cls-2" points="332.5 319.81 306.02 319.81 319.26 347.07 332.5 319.81"/><polygon class="cls-2" points="331.84 320.5 306.68 320.5 319.26 346.39 331.84 320.5"/><polygon class="cls-2" points="331.21 321.14 307.31 321.14 319.26 345.74 331.21 321.14"/><polygon class="cls-2" points="330.61 321.76 307.91 321.76 319.26 345.12 330.61 321.76"/><polygon class="cls-2" points="330.05 322.34 308.48 322.34 319.26 344.54 330.05 322.34"/><polygon class="cls-2" points="329.51 322.9 309.02 322.9 319.26 343.99 329.51 322.9"/><polygon class="cls-2" points="329 323.42 309.53 323.42 319.26 343.46 329 323.42"/><polygon class="cls-2" points="328.51 323.93 310.01 323.93 319.26 342.96 328.51 323.93"/><polygon class="cls-2" points="328.05 324.4 310.48 324.4 319.26 342.48 328.05 324.4"/><polygon class="cls-2" points="327.61 324.85 310.92 324.85 319.26 342.03 327.61 324.85"/><polygon class="cls-2" points="327.19 325.28 311.33 325.28 319.26 341.6 327.19 325.28"/><polygon class="cls-2" points="326.79 325.69 311.73 325.69 319.26 341.19 326.79 325.69"/><polygon class="cls-2" points="326.42 326.08 312.11 326.08 319.26 340.8 326.42 326.08"/><polygon class="cls-2" points="326.06 326.45 312.46 326.45 319.26 340.44 326.06 326.45"/><polygon class="cls-2" points="325.72 326.8 312.8 326.8 319.26 340.09 325.72 326.8"/><polygon class="cls-2" points="325.4 327.13 313.13 327.13 319.26 339.75 325.4 327.13"/><polygon class="cls-2" points="325.09 327.44 313.43 327.44 319.26 339.44 325.09 327.44"/><polygon class="cls-2" points="324.8 327.74 313.73 327.74 319.26 339.14 324.8 327.74"/><polygon class="cls-2" points="324.52 328.03 314 328.03 319.26 338.85 324.52 328.03"/><polygon class="cls-2" points="324.26 328.3 314.26 328.3 319.26 338.58 324.26 328.3"/><polygon class="cls-2" points="324.01 328.56 314.51 328.56 319.26 338.33 324.01 328.56"/><polygon class="cls-2" points="323.77 328.8 314.75 328.8 319.26 338.08 323.77 328.8"/><polygon class="cls-2" points="323.55 329.03 314.98 329.03 319.26 337.85 323.55 329.03"/><polygon class="cls-2" points="323.33 329.25 315.19 329.25 319.26 337.63 323.33 329.25"/><polygon class="cls-2" points="323.13 329.46 315.39 329.46 319.26 337.42 323.13 329.46"/><polygon class="cls-2" points="322.93 329.66 315.59 329.66 319.26 337.22 322.93 329.66"/><polygon class="cls-2" points="322.75 329.85 315.77 329.85 319.26 337.03 322.75 329.85"/><polygon class="cls-2" points="322.58 330.03 315.95 330.03 319.26 336.85 322.58 330.03"/><polygon class="cls-2" points="322.41 330.2 316.11 330.2 319.26 336.68 322.41 330.2"/><polygon class="cls-2" points="322.25 330.36 316.27 330.36 319.26 336.52 322.25 330.36"/><polygon class="cls-2" points="322.1 330.52 316.42 330.52 319.26 336.37 322.1 330.52"/><polygon class="cls-2" points="321.96 330.66 316.56 330.66 319.26 336.22 321.96 330.66"/><polygon class="cls-2" points="321.83 330.8 316.7 330.8 319.26 336.08 321.83 330.8"/><polygon class="cls-2" points="321.7 330.93 316.82 330.93 319.26 335.95 321.7 330.93"/><polygon class="cls-2" points="321.58 331.06 316.95 331.06 319.26 335.82 321.58 331.06"/><polygon class="cls-2" points="321.46 331.18 317.06 331.18 319.26 335.7 321.46 331.18"/><polygon class="cls-2" points="321.35 331.29 317.17 331.29 319.26 335.59 321.35 331.29"/><polygon class="cls-2" points="321.25 331.4 317.28 331.4 319.26 335.48 321.25 331.4"/><polygon class="cls-2" points="321.15 331.5 317.38 331.5 319.26 335.38 321.15 331.5"/><polygon class="cls-2" points="321.05 331.6 317.47 331.6 319.26 335.28 321.05 331.6"/><polygon class="cls-2" points="320.96 331.69 317.56 331.69 319.26 335.19 320.96 331.69"/><polygon class="cls-2" points="320.88 331.78 317.64 331.78 319.26 335.1 320.88 331.78"/><polygon class="cls-2" points="320.8 331.86 317.73 331.86 319.26 335.02 320.8 331.86"/><polygon class="cls-2" points="320.72 331.94 317.8 331.94 319.26 334.94 320.72 331.94"/></svg>