<svg id="_4kant_FIG" data-name="4kant_FIG" xmlns="http://www.w3.org/2000/svg" viewBox="0 0 915.02 666.71"><defs><style>.cls-1,.cls-2{fill:none;stroke-miterlimit:10;stroke-width:0.5px;}.cls-1{stroke:#fff;}.cls-2{stroke:aqua;}</style></defs><rect class="cls-1" x="97.85" y="97.85" width="471" height="471"/><rect class="cls-1" x="440.34" y="214.5" width="471" height="471" transform="translate(-357.78 -92.79) rotate(-2)"/><rect class="cls-1" x="440.34" y="214.5" width="471" height="471" transform="translate(-372.23 -68.41) rotate(-4)"/><rect class="cls-1" x="440.34" y="214.5" width="471" height="471" transform="translate(-385.83 -43.54) rotate(-6)"/><rect class="cls-1" x="440.34" y="214.5" width="471" height="471" transform="translate(-398.54 -18.21) rotate(-8)"/><rect class="cls-1" x="440.34" y="214.5" width="471" height="471" transform="translate(-410.36 7.55) rotate(-10)"/><rect class="cls-1" x="440.34" y="214.5" width="471" height="471" transform="translate(-421.28 33.7) rotate(-12)"/><rect class="cls-1" x="440.34" y="214.5" width="471" height="471" transform="translate(-431.28 60.22) rotate(-14)"/><rect class="cls-1" x="440.34" y="214.5" width="471" height="471" transform="translate(-440.35 87.07) rotate(-16)"/><rect class="cls-1" x="440.34" y="214.5" width="471" height="471" transform="translate(-448.47 114.23) rotate(-18)"/><rect class="cls-1" x="440.34" y="214.5" width="471" height="471" transform="translate(-455.64 141.64) rotate(-20)"/><rect class="cls-1" x="440.34" y="214.5" width="471" height="471" transform="translate(-461.85 169.3) rotate(-22)"/><rect class="cls-1" x="440.34" y="214.5" width="471" height="471" transform="translate(-467.09 197.15) rotate(-24)"/><rect class="cls-1" x="440.34" y="214.5" width="471" height="471" transform="translate(-471.36 225.17) rotate(-26)"/><rect class="cls-1" x="440.34" y="214.5" width="471" height="471" transform="translate(-474.64 253.32) rotate(-28)"/><rect class="cls-1" x="440.34" y="214.5" width="471" height="471" transform="translate(-476.94 281.56) rotate(-30)"/><rect class="cls-1" x="440.34" y="214.5" width="471" height="471" transform="translate(-478.26 309.87) rotate(-32)"/><rect class="cls-1" x="440.34" y="214.5" width="471" height="471" transform="translate(-478.58 338.21) rotate(-34)"/><rect class="cls-1" x="440.34" y="214.5" width="471" height="471" transform="translate(-477.92 366.55) rotate(-36)"/><rect class="cls-1" x="440.34" y="214.5" width="471" height="471" transform="translate(-476.27 394.84) rotate(-38)"/><rect class="cls-1" x="440.34" y="214.5" width="471" height="471" transform="translate(-473.63 423.06) rotate(-40)"/><rect class="cls-1" x="440.34" y="214.5" width="471" height="471" transform="translate(-470.01 451.17) rotate(-42)"/><rect class="cls-1" x="440.34" y="214.5" width="471" height="471" transform="translate(-465.4 479.13) rotate(-44)"/><rect class="cls-1" x="440.34" y="214.5" width="471" height="471" transform="translate(-459.83 506.92) rotate(-46)"/><rect class="cls-1" x="440.34" y="214.5" width="471" height="471" transform="translate(-453.29 534.49) rotate(-48)"/><rect class="cls-1" x="440.34" y="214.5" width="471" height="471" transform="translate(-445.79 561.83) rotate(-50)"/><rect class="cls-1" x="440.34" y="214.5" width="471" height="471" transform="translate(-437.34 588.88) rotate(-52)"/><rect class="cls-1" x="440.34" y="214.5" width="471" height="471" transform="translate(-427.96 615.62) rotate(-54)"/><rect class="cls-1" x="440.34" y="214.5" width="471" height="471" transform="translate(-417.64 642.02) rotate(-56)"/><rect class="cls-1" x="440.34" y="214.5" width="471" height="471" transform="translate(-406.41 668.04) rotate(-58)"/><rect class="cls-1" x="440.34" y="214.5" width="471" height="471" transform="matrix(0.5, -0.87, 0.87, 0.5, -394.28, 693.65)"/><rect class="cls-1" x="440.34" y="214.5" width="471" height="471" transform="translate(-381.26 718.83) rotate(-62)"/><rect class="cls-1" x="440.34" y="214.5" width="471" height="471" transform="translate(-367.37 743.53) rotate(-64)"/><rect class="cls-1" x="440.34" y="214.5" width="471" height="471" transform="translate(-352.63 767.74) rotate(-66)"/><rect class="cls-1" x="440.34" y="214.5" width="471" height="471" transform="translate(-337.05 791.41) rotate(-68)"/><rect class="cls-1" x="440.34" y="214.5" width="471" height="471" transform="translate(-320.66 814.53) rotate(-70)"/><rect class="cls-1" x="440.34" y="214.5" width="471" height="471" transform="translate(-303.47 837.06) rotate(-72)"/><rect class="cls-1" x="440.34" y="214.5" width="471" height="471" transform="translate(-285.5 858.98) rotate(-74)"/><rect class="cls-1" x="440.34" y="214.5" width="471" height="471" transform="translate(-266.78 880.26) rotate(-76)"/><rect class="cls-1" x="440.34" y="214.5" width="471" height="471" transform="translate(-247.33 900.87) rotate(-78)"/><rect class="cls-1" x="440.34" y="214.5" width="471" height="471" transform="translate(-227.17 920.79) rotate(-80)"/><rect class="cls-1" x="440.34" y="214.5" width="471" height="471" transform="matrix(0.14, -0.99, 0.99, 0.14, -206.33, 939.99)"/><rect class="cls-1" x="440.34" y="214.5" width="471" height="471" transform="translate(-184.83 958.46) rotate(-84)"/><rect class="cls-1" x="440.34" y="214.5" width="471" height="471" transform="translate(-162.69 976.16) rotate(-86)"/><rect class="cls-1" x="440.34" y="214.5" width="471" height="471" transform="translate(-139.96 993.08) rotate(-88)"/><rect class="cls-1" x="440.34" y="214.5" width="471" height="471" transform="translate(-116.65 1009.2) rotate(-90)"/><rect class="cls-2" x="346.16" y="97.85" width="471" height="471"/><rect class="cls-2" x="688.65" y="214.5" width="471" height="471" transform="translate(-357.63 -84.12) rotate(-2)"/><rect class="cls-2" x="688.65" y="214.5" width="471" height="471" transform="translate(-371.63 -51.08) rotate(-4)"/><rect class="cls-2" x="688.65" y="214.5" width="471" height="471" transform="translate(-384.47 -17.58) rotate(-6)"/><rect class="cls-2" x="688.65" y="214.5" width="471" height="471" transform="translate(-396.12 16.35) rotate(-8)"/><rect class="cls-2" x="688.65" y="214.5" width="471" height="471" transform="translate(-406.59 50.67) rotate(-10)"/><rect class="cls-2" x="688.65" y="214.5" width="471" height="471" transform="translate(-415.86 85.33) rotate(-12)"/><rect class="cls-2" x="688.65" y="214.5" width="471" height="471" transform="translate(-423.9 120.29) rotate(-14)"/><rect class="cls-2" x="688.65" y="214.5" width="471" height="471" transform="translate(-430.73 155.52) rotate(-16)"/><rect class="cls-2" x="688.65" y="214.5" width="471" height="471" transform="translate(-436.32 190.96) rotate(-18)"/><rect class="cls-2" x="688.65" y="214.5" width="471" height="471" transform="translate(-440.67 226.57) rotate(-20)"/><rect class="cls-2" x="688.65" y="214.5" width="471" height="471" transform="translate(-443.77 262.32) rotate(-22)"/><rect class="cls-2" x="688.65" y="214.5" width="471" height="471" transform="translate(-445.62 298.15) rotate(-24)"/><rect class="cls-2" x="688.65" y="214.5" width="471" height="471" transform="translate(-446.23 334.02) rotate(-26)"/><rect class="cls-2" x="688.65" y="214.5" width="471" height="471" transform="translate(-445.58 369.89) rotate(-28)"/><rect class="cls-2" x="688.65" y="214.5" width="471" height="471" transform="translate(-443.68 405.72) rotate(-30)"/><rect class="cls-2" x="688.65" y="214.5" width="471" height="471" transform="matrix(0.85, -0.53, 0.53, 0.85, -440.53, 441.46)"/><rect class="cls-2" x="688.65" y="214.5" width="471" height="471" transform="translate(-436.13 477.07) rotate(-34)"/><rect class="cls-2" x="688.65" y="214.5" width="471" height="471" transform="translate(-430.5 512.5) rotate(-36)"/><rect class="cls-2" x="688.65" y="214.5" width="471" height="471" transform="translate(-423.63 547.72) rotate(-38)"/><rect class="cls-2" x="688.65" y="214.5" width="471" height="471" transform="translate(-415.53 582.67) rotate(-40)"/><rect class="cls-2" x="688.65" y="214.5" width="471" height="471" transform="translate(-406.23 617.32) rotate(-42)"/><rect class="cls-2" x="688.65" y="214.5" width="471" height="471" transform="translate(-395.71 651.62) rotate(-44)"/><rect class="cls-2" x="688.65" y="214.5" width="471" height="471" transform="translate(-384.01 685.54) rotate(-46)"/><rect class="cls-2" x="688.65" y="214.5" width="471" height="471" transform="translate(-371.13 719.03) rotate(-48)"/><rect class="cls-2" x="688.65" y="214.5" width="471" height="471" transform="translate(-357.09 752.04) rotate(-50)"/><rect class="cls-2" x="688.65" y="214.5" width="471" height="471" transform="translate(-341.91 784.55) rotate(-52)"/><rect class="cls-2" x="688.65" y="214.5" width="471" height="471" transform="translate(-325.6 816.51) rotate(-54)"/><rect class="cls-2" x="688.65" y="214.5" width="471" height="471" transform="matrix(0.56, -0.83, 0.83, 0.56, -308.18, 847.88)"/><rect class="cls-2" x="688.65" y="214.5" width="471" height="471" transform="translate(-289.68 878.62) rotate(-58)"/><rect class="cls-2" x="688.65" y="214.5" width="471" height="471" transform="matrix(0.5, -0.87, 0.87, 0.5, -270.12, 908.7)"/><rect class="cls-2" x="688.65" y="214.5" width="471" height="471" transform="translate(-249.53 938.07) rotate(-62)"/><rect class="cls-2" x="688.65" y="214.5" width="471" height="471" transform="translate(-227.92 966.71) rotate(-64)"/><rect class="cls-2" x="688.65" y="214.5" width="471" height="471" transform="translate(-205.32 994.58) rotate(-66)"/><rect class="cls-2" x="688.65" y="214.5" width="471" height="471" transform="translate(-181.76 1021.64) rotate(-68)"/><rect class="cls-2" x="688.65" y="214.5" width="471" height="471" transform="translate(-157.28 1047.87) rotate(-70)"/><rect class="cls-2" x="688.65" y="214.5" width="471" height="471" transform="translate(-131.89 1073.22) rotate(-72)"/><rect class="cls-2" x="688.65" y="214.5" width="471" height="471" transform="translate(-105.63 1097.67) rotate(-74)"/><rect class="cls-2" x="688.65" y="214.5" width="471" height="471" transform="translate(-78.54 1121.19) rotate(-76)"/><rect class="cls-2" x="688.65" y="214.5" width="471" height="471" transform="translate(-50.64 1143.75) rotate(-78)"/><rect class="cls-2" x="688.65" y="214.5" width="471" height="471" transform="translate(-21.98 1165.33) rotate(-80)"/><rect class="cls-2" x="688.65" y="214.5" width="471" height="471" transform="translate(7.43 1185.89) rotate(-82)"/><rect class="cls-2" x="688.65" y="214.5" width="471" height="471" transform="translate(37.53 1205.41) rotate(-84)"/><rect class="cls-2" x="688.65" y="214.5" width="471" height="471" transform="translate(68.3 1223.87) rotate(-86)"/><rect class="cls-2" x="688.65" y="214.5" width="471" height="471" transform="translate(99.69 1241.24) rotate(-88)"/><rect class="cls-2" x="688.65" y="214.5" width="471" height="471" transform="translate(131.67 1257.51) rotate(-90)"/></svg>