<svg id="_6hoek_FIG" data-name="6hoek_FIG" xmlns="http://www.w3.org/2000/svg" viewBox="0 0 639.14 639.14"><defs><style>.cls-1,.cls-2{fill:none;stroke-miterlimit:10;}.cls-1{stroke:#fff;}.cls-2{stroke:aqua;}</style></defs><polygon class="cls-1" points="479.06 42.66 160.07 42.66 0.58 318.92 160.07 595.17 479.06 595.17 638.56 318.92 479.06 42.66"/><polygon class="cls-1" points="463.12 70.29 176.02 70.29 32.48 318.92 176.02 567.55 463.12 567.55 606.66 318.92 463.12 70.29"/><polygon class="cls-1" points="448.76 95.15 190.38 95.15 61.19 318.92 190.38 542.68 448.76 542.68 577.95 318.92 448.76 95.15"/><polygon class="cls-1" points="435.84 117.53 203.3 117.53 87.02 318.92 203.3 520.31 435.84 520.31 552.11 318.92 435.84 117.53"/><polygon class="cls-1" points="424.21 137.67 214.92 137.67 110.28 318.92 214.92 500.17 424.21 500.17 528.86 318.92 424.21 137.67"/><polygon class="cls-1" points="413.75 155.79 225.39 155.79 131.21 318.92 225.39 482.04 413.75 482.04 507.93 318.92 413.75 155.79"/><polygon class="cls-1" points="404.33 172.11 234.81 172.11 150.04 318.92 234.81 465.73 404.33 465.73 489.09 318.92 404.33 172.11"/><polygon class="cls-1" points="395.86 186.79 243.28 186.79 167 318.92 243.28 451.05 395.86 451.05 472.14 318.92 395.86 186.79"/><polygon class="cls-1" points="388.23 200 250.91 200 182.25 318.92 250.91 437.84 388.23 437.84 456.88 318.92 388.23 200"/><polygon class="cls-1" points="381.36 211.89 257.78 211.89 195.99 318.92 257.78 425.95 381.36 425.95 443.15 318.92 381.36 211.89"/><polygon class="cls-1" points="375.18 222.59 263.96 222.59 208.34 318.92 263.96 415.24 375.18 415.24 430.79 318.92 375.18 222.59"/><polygon class="cls-1" points="369.62 232.23 269.52 232.23 219.47 318.92 269.52 405.61 369.62 405.61 419.67 318.92 369.62 232.23"/><polygon class="cls-1" points="364.62 240.9 274.52 240.9 229.48 318.92 274.52 396.94 364.62 396.94 409.66 318.92 364.62 240.9"/><polygon class="cls-1" points="360.11 248.7 279.03 248.7 238.49 318.92 279.03 389.14 360.11 389.14 400.65 318.92 360.11 248.7"/><polygon class="cls-1" points="356.06 255.72 283.08 255.72 246.59 318.92 283.08 382.12 356.06 382.12 392.54 318.92 356.06 255.72"/><polygon class="cls-1" points="352.41 262.04 286.73 262.04 253.89 318.92 286.73 375.8 352.41 375.8 385.25 318.92 352.41 262.04"/><polygon class="cls-1" points="349.12 267.73 290.01 267.73 260.46 318.92 290.01 370.11 349.12 370.11 378.68 318.92 349.12 267.73"/><polygon class="cls-1" points="346.17 272.85 292.97 272.85 266.37 318.92 292.97 364.99 346.17 364.99 372.77 318.92 346.17 272.85"/><polygon class="cls-1" points="343.51 277.45 295.63 277.45 271.69 318.92 295.63 360.38 343.51 360.38 367.45 318.92 343.51 277.45"/><polygon class="cls-1" points="341.11 281.6 298.02 281.6 276.48 318.92 298.02 356.24 341.11 356.24 362.66 318.92 341.11 281.6"/><polygon class="cls-1" points="338.96 285.33 300.18 285.33 280.79 318.92 300.18 352.5 338.96 352.5 358.35 318.92 338.96 285.33"/><polygon class="cls-2" points="596.06 479.06 596.06 160.07 319.81 0.58 43.55 160.07 43.55 479.06 319.81 638.56 596.06 479.06"/><polygon class="cls-2" points="568.44 463.12 568.44 176.02 319.81 32.48 71.18 176.02 71.18 463.12 319.81 606.66 568.44 463.12"/><polygon class="cls-2" points="543.58 448.76 543.58 190.38 319.81 61.19 96.04 190.38 96.04 448.76 319.81 577.95 543.58 448.76"/><polygon class="cls-2" points="521.2 435.84 521.2 203.3 319.81 87.02 118.42 203.3 118.42 435.84 319.81 552.11 521.2 435.84"/><polygon class="cls-2" points="501.06 424.21 501.06 214.92 319.81 110.28 138.56 214.92 138.56 424.21 319.81 528.86 501.06 424.21"/><polygon class="cls-2" points="482.94 413.75 482.94 225.39 319.81 131.21 156.68 225.39 156.68 413.75 319.81 507.93 482.94 413.75"/><polygon class="cls-2" points="466.62 404.33 466.62 234.81 319.81 150.04 173 234.81 173 404.33 319.81 489.09 466.62 404.33"/><polygon class="cls-2" points="451.94 395.86 451.94 243.28 319.81 167 187.68 243.28 187.68 395.86 319.81 472.14 451.94 395.86"/><polygon class="cls-2" points="438.73 388.23 438.73 250.91 319.81 182.25 200.89 250.91 200.89 388.23 319.81 456.88 438.73 388.23"/><polygon class="cls-2" points="426.84 381.36 426.84 257.78 319.81 195.99 212.78 257.78 212.78 381.36 319.81 443.15 426.84 381.36"/><polygon class="cls-2" points="416.13 375.18 416.13 263.96 319.81 208.34 223.49 263.96 223.49 375.18 319.81 430.79 416.13 375.18"/><polygon class="cls-2" points="406.5 369.62 406.5 269.52 319.81 219.47 233.12 269.52 233.12 369.62 319.81 419.67 406.5 369.62"/><polygon class="cls-2" points="397.83 364.62 397.83 274.52 319.81 229.48 241.79 274.52 241.79 364.62 319.81 409.66 397.83 364.62"/><polygon class="cls-2" points="390.03 360.11 390.03 279.03 319.81 238.49 249.59 279.03 249.59 360.11 319.81 400.65 390.03 360.11"/><polygon class="cls-2" points="383.01 356.06 383.01 283.08 319.81 246.59 256.61 283.08 256.61 356.06 319.81 392.54 383.01 356.06"/><polygon class="cls-2" points="376.69 352.41 376.69 286.73 319.81 253.89 262.93 286.73 262.93 352.41 319.81 385.25 376.69 352.41"/><polygon class="cls-2" points="371 349.12 371 290.01 319.81 260.46 268.62 290.01 268.62 349.12 319.81 378.68 371 349.12"/><polygon class="cls-2" points="365.88 346.17 365.88 292.97 319.81 266.37 273.74 292.97 273.74 346.17 319.81 372.77 365.88 346.17"/><polygon class="cls-2" points="361.27 343.51 361.27 295.63 319.81 271.69 278.35 295.63 278.35 343.51 319.81 367.45 361.27 343.51"/><polygon class="cls-2" points="357.13 341.11 357.13 298.02 319.81 276.48 282.49 298.02 282.49 341.11 319.81 362.66 357.13 341.11"/><polygon class="cls-2" points="353.39 338.96 353.39 300.18 319.81 280.79 286.22 300.18 286.22 338.96 319.81 358.35 353.39 338.96"/></svg>