<svg id="Layer_1" data-name="Layer 1" xmlns="http://www.w3.org/2000/svg" viewBox="0 0 1193 1193"><defs><style>.cls-1{fill:none;stroke:#000;stroke-miterlimit:10;stroke-width:2px;}</style></defs><line class="cls-1" x1="302.67" y1="586.17" x2="853.28" y2="586.17"/><line class="cls-1" x1="302.84" y1="595.78" x2="853.11" y2="576.57"/><line class="cls-1" x1="303.34" y1="605.38" x2="852.61" y2="566.97"/><line class="cls-1" x1="304.18" y1="614.95" x2="851.77" y2="557.4"/><line class="cls-1" x1="305.35" y1="624.49" x2="850.6" y2="547.86"/><line class="cls-1" x1="306.85" y1="633.98" x2="849.1" y2="538.37"/><line class="cls-1" x1="308.69" y1="643.41" x2="847.26" y2="528.94"/><line class="cls-1" x1="310.85" y1="652.78" x2="845.1" y2="519.57"/><line class="cls-1" x1="313.34" y1="662.06" x2="842.62" y2="510.29"/><line class="cls-1" x1="316.14" y1="671.25" x2="839.81" y2="501.1"/><line class="cls-1" x1="319.27" y1="680.33" x2="836.68" y2="492.01"/><line class="cls-1" x1="322.72" y1="689.31" x2="833.23" y2="483.04"/><line class="cls-1" x1="326.47" y1="698.15" x2="829.48" y2="474.2"/><line class="cls-1" x1="330.53" y1="706.86" x2="825.42" y2="465.49"/><line class="cls-1" x1="334.9" y1="715.42" x2="821.06" y2="456.93"/><line class="cls-1" x1="339.55" y1="723.83" x2="816.4" y2="448.52"/><line class="cls-1" x1="344.5" y1="732.06" x2="811.45" y2="440.28"/><line class="cls-1" x1="349.74" y1="740.12" x2="806.21" y2="432.23"/><line class="cls-1" x1="355.25" y1="747.99" x2="800.7" y2="424.35"/><line class="cls-1" x1="361.03" y1="755.67" x2="794.92" y2="416.68"/><line class="cls-1" x1="367.08" y1="763.14" x2="788.87" y2="409.21"/><line class="cls-1" x1="373.38" y1="770.39" x2="782.57" y2="401.96"/><line class="cls-1" x1="379.94" y1="777.42" x2="776.01" y2="394.93"/><line class="cls-1" x1="386.73" y1="784.21" x2="769.22" y2="388.14"/><line class="cls-1" x1="393.76" y1="790.77" x2="762.19" y2="381.58"/><line class="cls-1" x1="401.01" y1="797.07" x2="754.94" y2="375.28"/><line class="cls-1" x1="408.48" y1="803.12" x2="747.47" y2="369.23"/><line class="cls-1" x1="416.16" y1="808.9" x2="739.8" y2="363.45"/><line class="cls-1" x1="424.03" y1="814.41" x2="731.92" y2="357.94"/><line class="cls-1" x1="432.09" y1="819.65" x2="723.86" y2="352.7"/><line class="cls-1" x1="440.32" y1="824.6" x2="715.63" y2="347.75"/><line class="cls-1" x1="448.73" y1="829.25" x2="707.22" y2="343.09"/><line class="cls-1" x1="457.29" y1="833.62" x2="698.66" y2="338.73"/><line class="cls-1" x1="466" y1="837.68" x2="689.95" y2="334.67"/><line class="cls-1" x1="474.84" y1="841.43" x2="681.11" y2="330.92"/><line class="cls-1" x1="483.82" y1="844.88" x2="672.14" y2="327.47"/><line class="cls-1" x1="492.9" y1="848" x2="663.05" y2="324.34"/><line class="cls-1" x1="502.09" y1="850.81" x2="653.86" y2="321.53"/><line class="cls-1" x1="511.37" y1="853.3" x2="644.58" y2="319.05"/><line class="cls-1" x1="520.74" y1="855.46" x2="635.21" y2="316.89"/><line class="cls-1" x1="530.17" y1="857.3" x2="625.78" y2="315.05"/><line class="cls-1" x1="539.66" y1="858.8" x2="616.29" y2="313.55"/><line class="cls-1" x1="549.2" y1="859.97" x2="606.75" y2="312.38"/><line class="cls-1" x1="558.77" y1="860.81" x2="597.18" y2="311.54"/><line class="cls-1" x1="568.37" y1="861.31" x2="587.58" y2="311.04"/><line class="cls-1" x1="577.98" y1="861.48" x2="577.98" y2="310.87"/><line class="cls-1" x1="587.58" y1="861.31" x2="568.37" y2="311.04"/><line class="cls-1" x1="597.18" y1="860.81" x2="558.77" y2="311.54"/><line class="cls-1" x1="606.75" y1="859.97" x2="549.2" y2="312.38"/><line class="cls-1" x1="616.29" y1="858.8" x2="539.66" y2="313.55"/><line class="cls-1" x1="625.78" y1="857.3" x2="530.17" y2="315.05"/><line class="cls-1" x1="635.21" y1="855.46" x2="520.74" y2="316.89"/><line class="cls-1" x1="644.58" y1="853.3" x2="511.37" y2="319.05"/><line class="cls-1" x1="653.86" y1="850.81" x2="502.09" y2="321.53"/><line class="cls-1" x1="663.05" y1="848" x2="492.9" y2="324.34"/><line class="cls-1" x1="672.14" y1="844.88" x2="483.82" y2="327.47"/><line class="cls-1" x1="681.11" y1="841.43" x2="474.84" y2="330.92"/><line class="cls-1" x1="689.95" y1="837.68" x2="466" y2="334.67"/><line class="cls-1" x1="698.66" y1="833.62" x2="457.29" y2="338.73"/><line class="cls-1" x1="707.22" y1="829.25" x2="448.73" y2="343.09"/><line class="cls-1" x1="715.63" y1="824.6" x2="440.32" y2="347.75"/><line class="cls-1" x1="723.86" y1="819.65" x2="432.09" y2="352.7"/><line class="cls-1" x1="731.92" y1="814.41" x2="424.03" y2="357.94"/><line class="cls-1" x1="739.8" y1="808.9" x2="416.16" y2="363.45"/><line class="cls-1" x1="747.47" y1="803.12" x2="408.48" y2="369.23"/><line class="cls-1" x1="754.94" y1="797.07" x2="401.01" y2="375.28"/><line class="cls-1" x1="762.19" y1="790.77" x2="393.76" y2="381.58"/><line class="cls-1" x1="769.22" y1="784.21" x2="386.73" y2="388.14"/><line class="cls-1" x1="776.01" y1="777.42" x2="379.94" y2="394.93"/><line class="cls-1" x1="782.57" y1="770.39" x2="373.38" y2="401.96"/><line class="cls-1" x1="788.87" y1="763.14" x2="367.08" y2="409.21"/><line class="cls-1" x1="794.92" y1="755.67" x2="361.03" y2="416.68"/><line class="cls-1" x1="800.7" y1="747.99" x2="355.25" y2="424.35"/><line class="cls-1" x1="806.21" y1="740.12" x2="349.74" y2="432.23"/><line class="cls-1" x1="811.45" y1="732.06" x2="344.5" y2="440.28"/><line class="cls-1" x1="816.4" y1="723.83" x2="339.55" y2="448.52"/><line class="cls-1" x1="821.06" y1="715.42" x2="334.9" y2="456.93"/><line class="cls-1" x1="825.42" y1="706.86" x2="330.53" y2="465.49"/><line class="cls-1" x1="829.48" y1="698.15" x2="326.47" y2="474.2"/><line class="cls-1" x1="833.23" y1="689.31" x2="322.72" y2="483.04"/><line class="cls-1" x1="836.68" y1="680.33" x2="319.27" y2="492.01"/><line class="cls-1" x1="839.81" y1="671.25" x2="316.14" y2="501.1"/><line class="cls-1" x1="842.62" y1="662.06" x2="313.34" y2="510.29"/><line class="cls-1" x1="845.1" y1="652.78" x2="310.85" y2="519.57"/><line class="cls-1" x1="847.26" y1="643.41" x2="308.69" y2="528.94"/><line class="cls-1" x1="849.1" y1="633.98" x2="306.85" y2="538.37"/><line class="cls-1" x1="850.6" y1="624.49" x2="305.35" y2="547.86"/><line class="cls-1" x1="851.77" y1="614.95" x2="304.18" y2="557.4"/><line class="cls-1" x1="852.61" y1="605.38" x2="303.34" y2="566.97"/><line class="cls-1" x1="853.11" y1="595.78" x2="302.84" y2="576.57"/><line class="cls-1" x1="101.78" y1="263.24" x2="1091.22" y2="929.76"/><line class="cls-1" x1="90.45" y1="280.71" x2="1102.55" y2="912.29"/><line class="cls-1" x1="79.74" y1="298.56" x2="1113.27" y2="894.44"/><line class="cls-1" x1="69.65" y1="316.78" x2="1123.35" y2="876.22"/><line class="cls-1" x1="60.21" y1="335.34" x2="1132.79" y2="857.66"/><line class="cls-1" x1="51.42" y1="354.21" x2="1141.58" y2="838.79"/><line class="cls-1" x1="43.3" y1="373.38" x2="1149.7" y2="819.62"/><line class="cls-1" x1="35.85" y1="392.83" x2="1157.15" y2="800.17"/><line class="cls-1" x1="29.08" y1="412.52" x2="1163.92" y2="780.48"/><line class="cls-1" x1="23.01" y1="432.43" x2="1169.99" y2="760.57"/><line class="cls-1" x1="17.63" y1="452.55" x2="1175.37" y2="740.46"/><line class="cls-1" x1="12.96" y1="472.84" x2="1180.04" y2="720.17"/><line class="cls-1" x1="9" y1="493.28" x2="1184" y2="699.72"/><line class="cls-1" x1="5.76" y1="513.84" x2="1187.25" y2="679.16"/><line class="cls-1" x1="3.23" y1="534.51" x2="1189.77" y2="658.49"/><line class="cls-1" x1="1.43" y1="555.25" x2="1191.57" y2="637.75"/><line class="cls-1" x1="0.35" y1="576.05" x2="1192.65" y2="616.96"/><line class="cls-1" y1="596.86" x2="1193" y2="596.14"/><line class="cls-1" x1="0.38" y1="617.68" x2="1192.62" y2="575.32"/><line class="cls-1" x1="1.48" y1="638.47" x2="1191.52" y2="554.53"/><line class="cls-1" x1="3.31" y1="659.21" x2="1189.7" y2="533.79"/><line class="cls-1" x1="5.86" y1="679.88" x2="1187.15" y2="513.12"/><line class="cls-1" x1="9.13" y1="700.44" x2="1183.88" y2="492.56"/><line class="cls-1" x1="13.11" y1="720.87" x2="1179.89" y2="472.13"/><line class="cls-1" x1="17.81" y1="741.16" x2="1175.19" y2="451.84"/><line class="cls-1" x1="23.21" y1="761.27" x2="1169.79" y2="431.73"/><line class="cls-1" x1="29.31" y1="781.17" x2="1163.69" y2="411.83"/><line class="cls-1" x1="36.1" y1="800.86" x2="1156.9" y2="392.14"/><line class="cls-1" x1="43.57" y1="820.29" x2="1149.43" y2="372.71"/><line class="cls-1" x1="51.72" y1="839.45" x2="1141.28" y2="353.55"/><line class="cls-1" x1="60.53" y1="858.31" x2="1132.47" y2="334.69"/><line class="cls-1" x1="69.99" y1="876.86" x2="1123.01" y2="316.14"/><line class="cls-1" x1="80.1" y1="895.06" x2="1112.9" y2="297.94"/><line class="cls-1" x1="90.83" y1="912.91" x2="1102.17" y2="280.1"/><line class="cls-1" x1="102.18" y1="930.36" x2="1090.82" y2="262.64"/><line class="cls-1" x1="114.14" y1="947.41" x2="1078.87" y2="245.59"/><line class="cls-1" x1="126.68" y1="964.03" x2="1066.33" y2="228.97"/><line class="cls-1" x1="139.79" y1="980.2" x2="1053.21" y2="212.8"/><line class="cls-1" x1="153.46" y1="995.91" x2="1039.54" y2="197.09"/><line class="cls-1" x1="167.67" y1="1011.13" x2="1025.33" y2="181.88"/><line class="cls-1" x1="182.4" y1="1025.84" x2="1010.6" y2="167.16"/><line class="cls-1" x1="197.63" y1="1040.03" x2="995.37" y2="152.97"/><line class="cls-1" x1="213.36" y1="1053.68" x2="979.65" y2="139.32"/><line class="cls-1" x1="229.54" y1="1066.77" x2="963.46" y2="126.23"/><line class="cls-1" x1="246.18" y1="1079.29" x2="946.82" y2="113.71"/><line class="cls-1" x1="263.24" y1="1091.22" x2="929.76" y2="101.78"/><line class="cls-1" x1="280.71" y1="1102.55" x2="912.29" y2="90.45"/><line class="cls-1" x1="298.56" y1="1113.27" x2="894.44" y2="79.74"/><line class="cls-1" x1="316.78" y1="1123.35" x2="876.22" y2="69.65"/><line class="cls-1" x1="335.34" y1="1132.79" x2="857.66" y2="60.21"/><line class="cls-1" x1="354.21" y1="1141.58" x2="838.79" y2="51.42"/><line class="cls-1" x1="373.38" y1="1149.7" x2="819.62" y2="43.3"/><line class="cls-1" x1="392.83" y1="1157.15" x2="800.17" y2="35.85"/><line class="cls-1" x1="412.52" y1="1163.92" x2="780.48" y2="29.08"/><line class="cls-1" x1="432.43" y1="1169.99" x2="760.57" y2="23.01"/><line class="cls-1" x1="452.55" y1="1175.37" x2="740.46" y2="17.63"/><line class="cls-1" x1="472.84" y1="1180.04" x2="720.17" y2="12.96"/><line class="cls-1" x1="493.28" y1="1184" x2="699.72" y2="9"/><line class="cls-1" x1="513.84" y1="1187.25" x2="679.16" y2="5.76"/><line class="cls-1" x1="534.51" y1="1189.77" x2="658.49" y2="3.23"/><line class="cls-1" x1="555.25" y1="1191.57" x2="637.75" y2="1.43"/><line class="cls-1" x1="576.05" y1="1192.65" x2="616.96" y2="0.35"/><line class="cls-1" x1="596.86" y1="1193" x2="596.14"/><line class="cls-1" x1="617.68" y1="1192.62" x2="575.32" y2="0.38"/><line class="cls-1" x1="638.47" y1="1191.52" x2="554.53" y2="1.48"/><line class="cls-1" x1="659.21" y1="1189.7" x2="533.79" y2="3.31"/><line class="cls-1" x1="679.88" y1="1187.15" x2="513.12" y2="5.86"/><line class="cls-1" x1="700.44" y1="1183.88" x2="492.56" y2="9.13"/><line class="cls-1" x1="720.87" y1="1179.89" x2="472.13" y2="13.11"/><line class="cls-1" x1="741.16" y1="1175.19" x2="451.84" y2="17.81"/><line class="cls-1" x1="761.27" y1="1169.79" x2="431.73" y2="23.21"/><line class="cls-1" x1="781.17" y1="1163.69" x2="411.83" y2="29.31"/><line class="cls-1" x1="800.86" y1="1156.9" x2="392.14" y2="36.1"/><line class="cls-1" x1="820.29" y1="1149.43" x2="372.71" y2="43.57"/><line class="cls-1" x1="839.45" y1="1141.28" x2="353.55" y2="51.72"/><line class="cls-1" x1="858.31" y1="1132.47" x2="334.69" y2="60.53"/><line class="cls-1" x1="876.86" y1="1123.01" x2="316.14" y2="69.99"/><line class="cls-1" x1="895.06" y1="1112.9" x2="297.94" y2="80.1"/><line class="cls-1" x1="912.91" y1="1102.17" x2="280.1" y2="90.83"/><line class="cls-1" x1="930.36" y1="1090.82" x2="262.64" y2="102.18"/><line class="cls-1" x1="947.41" y1="1078.87" x2="245.59" y2="114.14"/><line class="cls-1" x1="964.03" y1="1066.33" x2="228.97" y2="126.68"/><line class="cls-1" x1="980.2" y1="1053.21" x2="212.8" y2="139.79"/><line class="cls-1" x1="995.91" y1="1039.54" x2="197.09" y2="153.46"/><line class="cls-1" x1="1011.13" y1="1025.33" x2="181.88" y2="167.67"/><line class="cls-1" x1="1025.84" y1="1010.6" x2="167.16" y2="182.4"/><line class="cls-1" x1="1040.03" y1="995.37" x2="152.97" y2="197.63"/><line class="cls-1" x1="1053.68" y1="979.65" x2="139.32" y2="213.36"/><line class="cls-1" x1="1066.77" y1="963.46" x2="126.23" y2="229.54"/><line class="cls-1" x1="1079.29" y1="946.82" x2="113.71" y2="246.18"/></svg>