<svg id="Layer_1" data-name="Layer 1" xmlns="http://www.w3.org/2000/svg" viewBox="0 0 1908.81 1028.71"><defs><style>.cls-1,.cls-2,.cls-3{fill:none;stroke:#000;stroke-miterlimit:10;}.cls-2{stroke-width:0.5px;}.cls-3{stroke-width:0.75px;}</style></defs><rect class="cls-1" x="729.25" y="486.28" width="506.36" height="506.36"/><rect class="cls-1" x="741.91" y="498.94" width="481.05" height="481.05"/><rect class="cls-1" x="753.94" y="510.96" width="456.99" height="456.99"/><rect class="cls-1" x="765.36" y="522.39" width="434.14" height="434.14"/><rect class="cls-1" x="776.22" y="533.24" width="412.44" height="412.44"/><rect class="cls-1" x="786.53" y="543.55" width="391.82" height="391.82"/><rect class="cls-1" x="796.32" y="553.35" width="372.22" height="372.22"/><rect class="cls-1" x="805.63" y="562.65" width="353.61" height="353.61"/><rect class="cls-1" x="814.47" y="571.49" width="335.93" height="335.93"/><rect class="cls-1" x="822.87" y="579.89" width="319.14" height="319.14"/><rect class="cls-1" x="830.85" y="587.87" width="303.18" height="303.18"/><rect class="cls-1" x="838.43" y="595.45" width="288.02" height="288.02"/><rect class="cls-1" x="845.63" y="602.65" width="273.62" height="273.62"/><rect class="cls-1" x="852.47" y="609.49" width="259.94" height="259.94"/><rect class="cls-1" x="858.97" y="615.99" width="246.94" height="246.94"/><rect class="cls-1" x="865.14" y="622.16" width="234.59" height="234.59"/><rect class="cls-1" x="871" y="628.03" width="222.86" height="222.86"/><rect class="cls-1" x="876.58" y="633.6" width="211.72" height="211.72"/><rect class="cls-1" x="881.87" y="638.89" width="201.14" height="201.14"/><rect class="cls-1" x="886.9" y="643.92" width="191.08" height="191.08"/><rect class="cls-1" x="891.67" y="648.7" width="181.52" height="181.52"/><rect class="cls-1" x="896.21" y="653.23" width="172.45" height="172.45"/><rect class="cls-1" x="900.52" y="657.55" width="163.83" height="163.83"/><rect class="cls-1" x="904.62" y="661.64" width="155.63" height="155.63"/><rect class="cls-1" x="908.51" y="665.53" width="147.85" height="147.85"/><rect class="cls-1" x="912.21" y="669.23" width="140.46" height="140.46"/><rect class="cls-1" x="915.72" y="672.74" width="133.44" height="133.44"/><rect class="cls-1" x="919.05" y="676.08" width="126.77" height="126.77"/><rect class="cls-1" x="922.22" y="679.24" width="120.43" height="120.43"/><rect class="cls-1" x="925.23" y="682.26" width="114.41" height="114.41"/><rect class="cls-1" x="928.09" y="685.12" width="108.69" height="108.69"/><rect class="cls-1" x="930.81" y="687.83" width="103.25" height="103.25"/><rect class="cls-1" x="933.39" y="690.41" width="98.09" height="98.09"/><rect class="cls-1" x="935.84" y="692.87" width="93.18" height="93.18"/><rect class="cls-1" x="938.17" y="695.2" width="88.53" height="88.53"/><rect class="cls-1" x="940.39" y="697.41" width="84.1" height="84.1"/><rect class="cls-1" x="942.49" y="699.51" width="79.89" height="79.89"/><rect class="cls-1" x="944.49" y="701.51" width="75.9" height="75.9"/><rect class="cls-1" x="946.38" y="703.41" width="72.1" height="72.1"/><rect class="cls-1" x="948.19" y="705.21" width="68.5" height="68.5"/><rect class="cls-1" x="949.9" y="706.92" width="65.07" height="65.07"/><rect class="cls-1" x="951.53" y="708.55" width="61.82" height="61.82"/><rect class="cls-1" x="953.07" y="710.09" width="58.73" height="58.73"/><rect class="cls-1" x="954.54" y="711.56" width="55.79" height="55.79"/><rect class="cls-1" x="955.94" y="712.96" width="53" height="53"/><rect class="cls-1" x="957.26" y="714.28" width="50.35" height="50.35"/><rect class="cls-1" x="958.52" y="715.54" width="47.84" height="47.84"/><rect class="cls-1" x="959.72" y="716.74" width="45.44" height="45.44"/><rect class="cls-1" x="960.85" y="717.87" width="43.17" height="43.17"/><rect class="cls-1" x="961.93" y="718.95" width="41.01" height="41.01"/><rect class="cls-1" x="962.96" y="719.98" width="38.96" height="38.96"/><rect class="cls-1" x="963.93" y="720.95" width="37.01" height="37.01"/><rect class="cls-1" x="964.86" y="721.88" width="35.16" height="35.16"/><rect class="cls-1" x="965.73" y="722.76" width="33.41" height="33.41"/><rect class="cls-1" x="966.57" y="723.59" width="31.73" height="31.73"/><rect class="cls-1" x="967.36" y="724.38" width="30.15" height="30.15"/><rect class="cls-1" x="968.12" y="725.14" width="28.64" height="28.64"/><rect class="cls-1" x="968.83" y="725.85" width="27.21" height="27.21"/><rect class="cls-1" x="969.51" y="726.53" width="25.85" height="25.85"/><rect class="cls-1" x="970.16" y="727.18" width="24.56" height="24.56"/><rect class="cls-1" x="970.77" y="727.79" width="23.33" height="23.33"/><rect class="cls-1" x="971.36" y="728.38" width="22.16" height="22.16"/><rect class="cls-1" x="971.91" y="728.93" width="21.05" height="21.05"/><rect class="cls-1" x="972.44" y="729.46" width="20" height="20"/><rect class="cls-1" x="972.94" y="729.96" width="19" height="19"/><rect class="cls-1" x="973.41" y="730.43" width="18.05" height="18.05"/><rect class="cls-1" x="973.86" y="730.88" width="17.15" height="17.15"/><rect class="cls-1" x="974.29" y="731.31" width="16.29" height="16.29"/><rect class="cls-1" x="974.7" y="731.72" width="15.48" height="15.48"/><rect class="cls-1" x="975.09" y="732.11" width="14.7" height="14.7"/><rect class="cls-1" x="975.45" y="732.47" width="13.97" height="13.97"/><rect class="cls-1" x="975.8" y="732.82" width="13.27" height="13.27"/><rect class="cls-1" x="976.13" y="733.16" width="12.61" height="12.61"/><rect class="cls-1" x="976.45" y="733.47" width="11.98" height="11.98"/><rect class="cls-1" x="976.75" y="733.77" width="11.38" height="11.38"/><rect class="cls-1" x="977.03" y="734.05" width="10.81" height="10.81"/><rect class="cls-1" x="977.3" y="734.32" width="10.27" height="10.27"/><rect class="cls-1" x="977.56" y="734.58" width="9.75" height="9.75"/><rect class="cls-1" x="977.8" y="734.83" width="9.27" height="9.27"/><rect class="cls-1" x="978.04" y="735.06" width="8.8" height="8.8"/><rect class="cls-1" x="978.26" y="735.28" width="8.36" height="8.36"/><rect class="cls-1" x="978.46" y="735.49" width="7.94" height="7.94"/><rect class="cls-2" x="34.12" y="685.89" width="304.84" height="304.84"/><rect class="cls-2" x="49.36" y="701.13" width="274.36" height="274.36"/><rect class="cls-2" x="63.08" y="714.85" width="246.92" height="246.92"/><rect class="cls-2" x="75.42" y="727.19" width="222.23" height="222.23"/><rect class="cls-2" x="86.54" y="738.31" width="200.01" height="200.01"/><rect class="cls-2" x="96.54" y="748.31" width="180" height="180"/><rect class="cls-2" x="105.54" y="757.31" width="162" height="162"/><rect class="cls-2" x="113.64" y="765.41" width="145.8" height="145.8"/><rect class="cls-2" x="120.93" y="772.7" width="131.22" height="131.22"/><rect class="cls-2" x="127.49" y="779.26" width="118.1" height="118.1"/><rect class="cls-2" x="133.39" y="785.16" width="106.29" height="106.29"/><rect class="cls-2" x="138.71" y="790.48" width="95.66" height="95.66"/><rect class="cls-2" x="143.49" y="795.26" width="86.1" height="86.1"/><rect class="cls-2" x="147.8" y="799.56" width="77.49" height="77.49"/><rect class="cls-2" x="151.67" y="803.44" width="69.74" height="69.74"/><rect class="cls-2" x="155.16" y="806.93" width="62.76" height="62.76"/><rect class="cls-2" x="158.29" y="810.06" width="56.49" height="56.49"/><rect class="cls-2" x="161.12" y="812.89" width="50.84" height="50.84"/><rect class="cls-2" x="163.66" y="815.43" width="45.75" height="45.75"/><rect class="cls-2" x="208.79" y="685.37" width="304.84" height="304.84"/><rect class="cls-2" x="224.03" y="700.61" width="274.36" height="274.36"/><rect class="cls-2" x="237.75" y="714.33" width="246.92" height="246.92"/><rect class="cls-2" x="250.1" y="726.68" width="222.23" height="222.23"/><rect class="cls-2" x="261.21" y="737.79" width="200.01" height="200.01"/><rect class="cls-2" x="271.21" y="747.79" width="180" height="180"/><rect class="cls-2" x="280.21" y="756.79" width="162" height="162"/><rect class="cls-2" x="288.31" y="764.89" width="145.8" height="145.8"/><rect class="cls-2" x="295.6" y="772.18" width="131.22" height="131.22"/><rect class="cls-2" x="302.16" y="778.74" width="118.1" height="118.1"/><rect class="cls-2" x="308.07" y="784.65" width="106.29" height="106.29"/><rect class="cls-2" x="313.38" y="789.96" width="95.66" height="95.66"/><rect class="cls-2" x="318.16" y="794.74" width="86.1" height="86.1"/><rect class="cls-2" x="322.47" y="799.05" width="77.49" height="77.49"/><rect class="cls-2" x="326.34" y="802.92" width="69.74" height="69.74"/><rect class="cls-2" x="329.83" y="806.41" width="62.76" height="62.76"/><rect class="cls-2" x="332.97" y="809.55" width="56.49" height="56.49"/><rect class="cls-2" x="335.79" y="812.37" width="50.84" height="50.84"/><rect class="cls-2" x="338.33" y="814.91" width="45.75" height="45.75"/><rect class="cls-2" x="1499.21" y="686.06" width="304.84" height="304.84" transform="translate(-124.55 1357) rotate(-44)"/><rect class="cls-2" x="1514.46" y="701.3" width="274.36" height="274.36" transform="translate(-124.55 1357) rotate(-44)"/><rect class="cls-2" x="1528.17" y="715.02" width="246.92" height="246.92" transform="translate(-124.55 1357) rotate(-44)"/><rect class="cls-2" x="1540.52" y="727.37" width="222.23" height="222.23" transform="translate(-124.55 1357) rotate(-44)"/><rect class="cls-2" x="1551.63" y="738.48" width="200.01" height="200.01" transform="translate(-124.55 1357) rotate(-44)"/><rect class="cls-2" x="1561.63" y="748.48" width="180" height="180" transform="translate(-124.55 1357) rotate(-44)"/><rect class="cls-2" x="1570.63" y="757.48" width="162" height="162" transform="translate(-124.55 1357) rotate(-44)"/><rect class="cls-2" x="1578.73" y="765.58" width="145.8" height="145.8" transform="translate(-124.55 1357) rotate(-44)"/><rect class="cls-2" x="1586.02" y="772.87" width="131.22" height="131.22" transform="translate(-124.55 1357) rotate(-44)"/><rect class="cls-2" x="1592.58" y="779.43" width="118.1" height="118.1" transform="translate(-124.55 1357) rotate(-44)"/><rect class="cls-2" x="1598.49" y="785.33" width="106.29" height="106.29" transform="translate(-124.55 1357) rotate(-44)"/><rect class="cls-2" x="1603.8" y="790.65" width="95.66" height="95.66" transform="translate(-124.55 1357) rotate(-44)"/><rect class="cls-2" x="1608.59" y="795.43" width="86.1" height="86.1" transform="translate(-124.55 1357) rotate(-44)"/><rect class="cls-2" x="1612.89" y="799.74" width="77.49" height="77.49" transform="translate(-124.55 1357) rotate(-44)"/><rect class="cls-2" x="1616.76" y="803.61" width="69.74" height="69.74" transform="translate(-124.55 1357) rotate(-44)"/><rect class="cls-2" x="1620.25" y="807.1" width="62.76" height="62.76" transform="translate(-124.55 1357) rotate(-44)"/><rect class="cls-2" x="1623.39" y="810.24" width="56.49" height="56.49" transform="translate(-124.55 1357) rotate(-44)"/><rect class="cls-2" x="1626.21" y="813.06" width="50.84" height="50.84" transform="translate(-124.55 1357) rotate(-44)"/><rect class="cls-2" x="1628.76" y="815.6" width="45.75" height="45.75" transform="translate(-124.55 1357) rotate(-44)"/><rect class="cls-2" x="1499.21" y="686.06" width="304.84" height="304.84" transform="translate(807.51 2464.47) rotate(-90)"/><rect class="cls-2" x="1514.46" y="701.3" width="274.36" height="274.36" transform="translate(807.51 2464.47) rotate(-90)"/><rect class="cls-2" x="1528.17" y="715.02" width="246.92" height="246.92" transform="translate(807.51 2464.47) rotate(-90)"/><rect class="cls-2" x="1540.52" y="727.37" width="222.23" height="222.23" transform="translate(807.51 2464.47) rotate(-90)"/><rect class="cls-2" x="1551.63" y="738.48" width="200.01" height="200.01" transform="translate(807.51 2464.47) rotate(-90)"/><rect class="cls-2" x="1561.63" y="748.48" width="180" height="180" transform="translate(807.51 2464.47) rotate(-90)"/><rect class="cls-2" x="1570.63" y="757.48" width="162" height="162" transform="translate(807.51 2464.47) rotate(-90)"/><rect class="cls-2" x="1578.73" y="765.58" width="145.8" height="145.8" transform="translate(807.51 2464.47) rotate(-90)"/><rect class="cls-2" x="1586.02" y="772.87" width="131.22" height="131.22" transform="translate(807.51 2464.47) rotate(-90)"/><rect class="cls-2" x="1592.58" y="779.43" width="118.1" height="118.1" transform="translate(807.51 2464.47) rotate(-90)"/><rect class="cls-2" x="1598.49" y="785.33" width="106.29" height="106.29" transform="translate(807.51 2464.47) rotate(-90)"/><rect class="cls-2" x="1603.8" y="790.65" width="95.66" height="95.66" transform="translate(807.51 2464.47) rotate(-90)"/><rect class="cls-2" x="1608.59" y="795.43" width="86.1" height="86.1" transform="translate(807.51 2464.47) rotate(-90)"/><rect class="cls-2" x="1612.89" y="799.74" width="77.49" height="77.49" transform="translate(807.51 2464.47) rotate(-90)"/><rect class="cls-2" x="1616.76" y="803.61" width="69.74" height="69.74" transform="translate(807.51 2464.47) rotate(-90)"/><rect class="cls-2" x="1620.25" y="807.1" width="62.76" height="62.76" transform="translate(807.51 2464.47) rotate(-90)"/><rect class="cls-2" x="1623.39" y="810.24" width="56.49" height="56.49" transform="translate(807.51 2464.47) rotate(-90)"/><rect class="cls-2" x="1626.21" y="813.06" width="50.84" height="50.84" transform="translate(807.51 2464.47) rotate(-90)"/><rect class="cls-2" x="1628.76" y="815.6" width="45.75" height="45.75" transform="translate(807.51 2464.47) rotate(-90)"/><rect class="cls-2" x="63.45" y="63.45" width="304.84" height="304.84"/><rect class="cls-2" x="69.1" y="89.1" width="304.84" height="304.84" transform="translate(-13.94 -17.77) rotate(-2)"/><rect class="cls-2" x="69.1" y="89.1" width="304.84" height="304.84" transform="translate(-21.95 -9.61) rotate(-4)"/><rect class="cls-2" x="69.1" y="89.1" width="304.84" height="304.84" transform="translate(-29.68 -1.17) rotate(-6)"/><rect class="cls-2" x="69.1" y="89.1" width="304.84" height="304.84" transform="translate(-37.1 7.53) rotate(-8)"/><rect class="cls-2" x="69.1" y="89.1" width="304.84" height="304.84" transform="translate(-44.22 16.49) rotate(-10)"/><rect class="cls-2" x="69.1" y="89.1" width="304.84" height="304.84" transform="translate(-51.02 25.69) rotate(-12)"/><rect class="cls-2" x="69.1" y="89.1" width="304.84" height="304.84" transform="translate(-57.49 35.12) rotate(-14)"/><rect class="cls-2" x="69.1" y="89.1" width="304.84" height="304.84" transform="translate(-63.64 44.77) rotate(-16)"/><rect class="cls-2" x="69.1" y="89.1" width="304.84" height="304.84" transform="matrix(0.95, -0.31, 0.31, 0.95, -69.44, 54.63)"/><rect class="cls-2" x="69.1" y="89.1" width="304.84" height="304.84" transform="translate(-74.89 64.68) rotate(-20)"/><rect class="cls-2" x="69.1" y="89.1" width="304.84" height="304.84" transform="translate(-79.99 74.92) rotate(-22)"/><rect class="cls-2" x="69.1" y="89.1" width="304.84" height="304.84" transform="translate(-84.73 85.33) rotate(-24)"/><rect class="cls-2" x="69.1" y="89.1" width="304.84" height="304.84" transform="translate(-89.1 95.9) rotate(-26)"/><rect class="cls-2" x="69.1" y="89.1" width="304.84" height="304.84" transform="translate(-93.1 106.62) rotate(-28)"/><rect class="cls-2" x="69.1" y="89.1" width="304.84" height="304.84" transform="translate(-96.73 117.47) rotate(-30)"/><rect class="cls-2" x="69.1" y="89.1" width="304.84" height="304.84" transform="translate(-99.97 128.44) rotate(-32)"/><rect class="cls-2" x="69.1" y="89.1" width="304.84" height="304.84" transform="translate(-102.83 139.52) rotate(-34)"/><rect class="cls-2" x="69.1" y="89.1" width="304.84" height="304.84" transform="translate(-105.3 150.69) rotate(-36)"/><rect class="cls-2" x="69.1" y="89.1" width="304.84" height="304.84" transform="translate(-107.38 161.93) rotate(-38)"/><rect class="cls-2" x="69.1" y="89.1" width="304.84" height="304.84" transform="translate(-109.07 173.25) rotate(-40)"/><rect class="cls-2" x="69.1" y="89.1" width="304.84" height="304.84" transform="translate(-110.36 184.61) rotate(-42)"/><rect class="cls-2" x="69.1" y="89.1" width="304.84" height="304.84" transform="translate(-111.25 196.02) rotate(-44)"/><rect class="cls-2" x="69.1" y="89.1" width="304.84" height="304.84" transform="translate(-111.74 207.45) rotate(-46)"/><rect class="cls-2" x="69.1" y="89.1" width="304.84" height="304.84" transform="translate(-111.84 218.89) rotate(-48)"/><rect class="cls-2" x="69.1" y="89.1" width="304.84" height="304.84" transform="translate(-111.53 230.32) rotate(-50)"/><rect class="cls-2" x="69.1" y="89.1" width="304.84" height="304.84" transform="translate(-110.83 241.74) rotate(-52)"/><rect class="cls-2" x="69.1" y="89.1" width="304.84" height="304.84" transform="translate(-109.73 253.13) rotate(-54)"/><rect class="cls-2" x="69.1" y="89.1" width="304.84" height="304.84" transform="translate(-108.23 264.47) rotate(-56)"/><rect class="cls-2" x="69.1" y="89.1" width="304.84" height="304.84" transform="translate(-106.33 275.75) rotate(-58)"/><rect class="cls-2" x="69.1" y="89.1" width="304.84" height="304.84" transform="translate(-104.05 286.96) rotate(-60)"/><rect class="cls-2" x="69.1" y="89.1" width="304.84" height="304.84" transform="translate(-101.37 298.08) rotate(-62)"/><rect class="cls-2" x="69.1" y="89.1" width="304.84" height="304.84" transform="translate(-98.31 309.1) rotate(-64)"/><rect class="cls-2" x="69.1" y="89.1" width="304.84" height="304.84" transform="translate(-94.87 320.01) rotate(-66)"/><rect class="cls-2" x="69.1" y="89.1" width="304.84" height="304.84" transform="translate(-91.04 330.79) rotate(-68)"/><rect class="cls-2" x="69.1" y="89.1" width="304.84" height="304.84" transform="translate(-86.85 341.43) rotate(-70)"/><rect class="cls-2" x="69.1" y="89.1" width="304.84" height="304.84" transform="translate(-82.28 351.92) rotate(-72)"/><rect class="cls-2" x="69.1" y="89.1" width="304.84" height="304.84" transform="translate(-77.35 362.24) rotate(-74)"/><rect class="cls-2" x="69.1" y="89.1" width="304.84" height="304.84" transform="translate(-72.06 372.38) rotate(-76)"/><rect class="cls-2" x="69.1" y="89.1" width="304.84" height="304.84" transform="matrix(0.21, -0.98, 0.98, 0.21, -66.43, 382.34)"/><rect class="cls-2" x="69.1" y="89.1" width="304.84" height="304.84" transform="translate(-60.44 392.09) rotate(-80)"/><rect class="cls-2" x="69.1" y="89.1" width="304.84" height="304.84" transform="translate(-54.13 401.63) rotate(-82)"/><rect class="cls-2" x="69.1" y="89.1" width="304.84" height="304.84" transform="translate(-47.48 410.93) rotate(-84)"/><rect class="cls-2" x="69.1" y="89.1" width="304.84" height="304.84" transform="translate(-40.51 420.01) rotate(-86)"/><rect class="cls-2" x="69.1" y="89.1" width="304.84" height="304.84" transform="translate(-33.23 428.83) rotate(-88)"/><rect class="cls-2" x="69.1" y="89.1" width="304.84" height="304.84" transform="translate(-25.65 437.39) rotate(-90)"/><rect class="cls-2" x="224.17" y="63.45" width="304.84" height="304.84"/><rect class="cls-2" x="229.81" y="89.1" width="304.84" height="304.84" transform="matrix(1, -0.03, 0.03, 1, -13.84, -12.16)"/><rect class="cls-2" x="229.81" y="89.1" width="304.84" height="304.84" transform="translate(-21.56 1.6) rotate(-4)"/><rect class="cls-2" x="229.81" y="89.1" width="304.84" height="304.84" transform="translate(-28.8 15.63) rotate(-6)"/><rect class="cls-2" x="229.81" y="89.1" width="304.84" height="304.84" transform="translate(-35.54 29.9) rotate(-8)"/><rect class="cls-2" x="229.81" y="89.1" width="304.84" height="304.84" transform="translate(-41.78 44.4) rotate(-10)"/><rect class="cls-2" x="229.81" y="89.1" width="304.84" height="304.84" transform="translate(-47.51 59.1) rotate(-12)"/><rect class="cls-2" x="229.81" y="89.1" width="304.84" height="304.84" transform="translate(-52.72 74) rotate(-14)"/><rect class="cls-2" x="229.81" y="89.1" width="304.84" height="304.84" transform="translate(-57.41 89.07) rotate(-16)"/><rect class="cls-2" x="229.81" y="89.1" width="304.84" height="304.84" transform="translate(-61.57 104.29) rotate(-18)"/><rect class="cls-2" x="229.81" y="89.1" width="304.84" height="304.84" transform="translate(-65.2 119.65) rotate(-20)"/><rect class="cls-2" x="229.81" y="89.1" width="304.84" height="304.84" transform="translate(-68.29 135.13) rotate(-22)"/><rect class="cls-2" x="229.81" y="89.1" width="304.84" height="304.84" transform="translate(-70.83 150.7) rotate(-24)"/><rect class="cls-2" x="229.81" y="89.1" width="304.84" height="304.84" transform="translate(-72.84 166.36) rotate(-26)"/><rect class="cls-2" x="229.81" y="89.1" width="304.84" height="304.84" transform="translate(-74.29 182.07) rotate(-28)"/><rect class="cls-2" x="229.81" y="89.1" width="304.84" height="304.84" transform="translate(-75.2 197.83) rotate(-30)"/><rect class="cls-2" x="229.81" y="89.1" width="304.84" height="304.84" transform="translate(-75.55 213.6) rotate(-32)"/><rect class="cls-2" x="229.81" y="89.1" width="304.84" height="304.84" transform="translate(-75.35 229.38) rotate(-34)"/><rect class="cls-2" x="229.81" y="89.1" width="304.84" height="304.84" transform="matrix(0.81, -0.59, 0.59, 0.81, -74.61, 245.15)"/><rect class="cls-2" x="229.81" y="89.1" width="304.84" height="304.84" transform="translate(-73.31 260.88) rotate(-38)"/><rect class="cls-2" x="229.81" y="89.1" width="304.84" height="304.84" transform="translate(-71.47 276.55) rotate(-40)"/><rect class="cls-2" x="229.81" y="89.1" width="304.84" height="304.84" transform="translate(-69.08 292.15) rotate(-42)"/><rect class="cls-2" x="229.81" y="89.1" width="304.84" height="304.84" transform="translate(-66.14 307.66) rotate(-44)"/><rect class="cls-2" x="229.81" y="89.1" width="304.84" height="304.84" transform="translate(-62.67 323.05) rotate(-46)"/><rect class="cls-2" x="229.81" y="89.1" width="304.84" height="304.84" transform="translate(-58.66 338.32) rotate(-48)"/><rect class="cls-2" x="229.81" y="89.1" width="304.84" height="304.84" transform="translate(-54.12 353.43) rotate(-50)"/><rect class="cls-2" x="229.81" y="89.1" width="304.84" height="304.84" transform="translate(-49.06 368.38) rotate(-52)"/><rect class="cls-2" x="229.81" y="89.1" width="304.84" height="304.84" transform="translate(-43.48 383.14) rotate(-54)"/><rect class="cls-2" x="229.81" y="89.1" width="304.84" height="304.84" transform="translate(-37.39 397.7) rotate(-56)"/><rect class="cls-2" x="229.81" y="89.1" width="304.84" height="304.84" transform="translate(-30.79 412.04) rotate(-58)"/><rect class="cls-2" x="229.81" y="89.1" width="304.84" height="304.84" transform="translate(-23.69 426.13) rotate(-60)"/><rect class="cls-2" x="229.81" y="89.1" width="304.84" height="304.84" transform="translate(-16.11 439.98) rotate(-62)"/><rect class="cls-2" x="229.81" y="89.1" width="304.84" height="304.84" transform="translate(-8.05 453.54) rotate(-64)"/><rect class="cls-2" x="229.81" y="89.1" width="304.84" height="304.84" transform="translate(0.48 466.82) rotate(-66)"/><rect class="cls-2" x="229.81" y="89.1" width="304.84" height="304.84" transform="translate(9.46 479.8) rotate(-68)"/><rect class="cls-2" x="229.81" y="89.1" width="304.84" height="304.84" transform="translate(18.9 492.45) rotate(-70)"/><rect class="cls-2" x="229.81" y="89.1" width="304.84" height="304.84" transform="translate(28.77 504.76) rotate(-72)"/><rect class="cls-2" x="229.81" y="89.1" width="304.84" height="304.84" transform="translate(39.06 516.73) rotate(-74)"/><rect class="cls-2" x="229.81" y="89.1" width="304.84" height="304.84" transform="translate(49.77 528.32) rotate(-76)"/><rect class="cls-2" x="229.81" y="89.1" width="304.84" height="304.84" transform="translate(60.87 539.54) rotate(-78)"/><rect class="cls-2" x="229.81" y="89.1" width="304.84" height="304.84" transform="translate(72.36 550.36) rotate(-80)"/><rect class="cls-2" x="229.81" y="89.1" width="304.84" height="304.84" transform="translate(84.22 560.77) rotate(-82)"/><rect class="cls-2" x="229.81" y="89.1" width="304.84" height="304.84" transform="translate(96.43 570.76) rotate(-84)"/><rect class="cls-2" x="229.81" y="89.1" width="304.84" height="304.84" transform="translate(108.99 580.33) rotate(-86)"/><rect class="cls-2" x="229.81" y="89.1" width="304.84" height="304.84" transform="translate(121.87 589.44) rotate(-88)"/><rect class="cls-2" x="229.81" y="89.1" width="304.84" height="304.84" transform="translate(135.06 598.1) rotate(-90)"/><rect class="cls-3" x="1385.49" y="64.09" width="304.84" height="304.84"/><rect class="cls-3" x="1386.76" y="64.09" width="304.84" height="304.84"/><rect class="cls-3" x="1388.04" y="64.09" width="304.84" height="304.84"/><rect class="cls-3" x="1389.31" y="64.09" width="304.84" height="304.84"/><rect class="cls-3" x="1390.59" y="64.09" width="304.84" height="304.84"/><rect class="cls-3" x="1391.87" y="64.09" width="304.84" height="304.84"/><rect class="cls-3" x="1393.14" y="64.09" width="304.84" height="304.84"/><rect class="cls-3" x="1394.42" y="64.09" width="304.84" height="304.84"/><rect class="cls-3" x="1395.69" y="64.09" width="304.84" height="304.84"/><rect class="cls-3" x="1396.97" y="64.09" width="304.84" height="304.84"/><rect class="cls-3" x="1398.24" y="64.09" width="304.84" height="304.84"/><rect class="cls-3" x="1399.52" y="64.09" width="304.84" height="304.84"/><rect class="cls-3" x="1400.79" y="64.09" width="304.84" height="304.84"/><rect class="cls-3" x="1402.07" y="64.09" width="304.84" height="304.84"/><rect class="cls-3" x="1403.34" y="64.09" width="304.84" height="304.84"/><rect class="cls-3" x="1404.62" y="64.09" width="304.84" height="304.84"/><rect class="cls-3" x="1405.9" y="64.09" width="304.84" height="304.84"/><rect class="cls-3" x="1407.17" y="64.09" width="304.84" height="304.84"/><rect class="cls-3" x="1408.45" y="64.09" width="304.84" height="304.84"/><rect class="cls-3" x="1409.72" y="64.09" width="304.84" height="304.84"/><rect class="cls-3" x="1411" y="64.09" width="304.84" height="304.84"/><rect class="cls-3" x="1412.27" y="64.09" width="304.84" height="304.84"/><rect class="cls-3" x="1413.55" y="64.09" width="304.84" height="304.84"/><rect class="cls-3" x="1414.82" y="64.09" width="304.84" height="304.84"/><rect class="cls-3" x="1416.1" y="64.09" width="304.84" height="304.84"/><rect class="cls-3" x="1417.37" y="64.09" width="304.84" height="304.84"/><rect class="cls-3" x="1418.65" y="64.09" width="304.84" height="304.84"/><rect class="cls-3" x="1419.93" y="64.09" width="304.84" height="304.84"/><rect class="cls-3" x="1421.2" y="64.09" width="304.84" height="304.84"/><rect class="cls-3" x="1422.48" y="64.09" width="304.84" height="304.84"/><rect class="cls-3" x="1423.75" y="64.09" width="304.84" height="304.84"/><rect class="cls-3" x="1425.03" y="64.09" width="304.84" height="304.84"/><rect class="cls-3" x="1426.3" y="64.09" width="304.84" height="304.84"/><rect class="cls-3" x="1427.58" y="64.09" width="304.84" height="304.84"/><rect class="cls-3" x="1428.85" y="64.09" width="304.84" height="304.84"/><rect class="cls-3" x="1430.13" y="64.09" width="304.84" height="304.84"/><rect class="cls-3" x="1431.41" y="64.09" width="304.84" height="304.84"/><rect class="cls-3" x="1432.68" y="64.09" width="304.84" height="304.84"/><rect class="cls-3" x="1433.96" y="64.09" width="304.84" height="304.84"/><rect class="cls-3" x="1435.23" y="64.09" width="304.84" height="304.84"/><rect class="cls-3" x="1436.51" y="64.09" width="304.84" height="304.84"/><rect class="cls-3" x="1437.78" y="64.09" width="304.84" height="304.84"/><rect class="cls-3" x="1439.06" y="64.09" width="304.84" height="304.84"/><rect class="cls-3" x="1440.33" y="64.09" width="304.84" height="304.84"/><rect class="cls-3" x="1441.61" y="64.09" width="304.84" height="304.84"/><rect class="cls-3" x="1442.88" y="64.09" width="304.84" height="304.84"/><rect class="cls-3" x="1444.16" y="64.09" width="304.84" height="304.84"/><rect class="cls-3" x="1445.44" y="64.09" width="304.84" height="304.84"/><rect class="cls-3" x="1446.71" y="64.09" width="304.84" height="304.84"/><rect class="cls-3" x="1447.99" y="64.09" width="304.84" height="304.84"/><rect class="cls-3" x="1449.26" y="64.09" width="304.84" height="304.84"/><rect class="cls-3" x="1450.54" y="64.09" width="304.84" height="304.84"/><rect class="cls-3" x="1451.81" y="64.09" width="304.84" height="304.84"/><rect class="cls-3" x="1453.09" y="64.09" width="304.84" height="304.84"/><rect class="cls-3" x="1454.36" y="64.09" width="304.84" height="304.84"/><rect class="cls-3" x="1455.64" y="64.09" width="304.84" height="304.84"/><rect class="cls-3" x="1456.91" y="64.09" width="304.84" height="304.84"/><rect class="cls-3" x="1458.19" y="64.09" width="304.84" height="304.84"/><rect class="cls-3" x="1459.47" y="64.09" width="304.84" height="304.84"/><rect class="cls-3" x="1460.74" y="64.09" width="304.84" height="304.84"/><rect class="cls-3" x="1462.02" y="64.09" width="304.84" height="304.84"/><rect class="cls-3" x="1463.29" y="64.09" width="304.84" height="304.84"/><rect class="cls-3" x="1464.57" y="64.09" width="304.84" height="304.84"/><rect class="cls-3" x="1465.84" y="64.09" width="304.84" height="304.84"/><rect class="cls-3" x="1467.12" y="64.09" width="304.84" height="304.84"/><rect class="cls-3" x="1468.39" y="64.09" width="304.84" height="304.84"/><rect class="cls-3" x="1469.67" y="64.09" width="304.84" height="304.84"/><rect class="cls-3" x="1470.94" y="64.09" width="304.84" height="304.84"/><rect class="cls-3" x="1472.22" y="64.09" width="304.84" height="304.84"/><rect class="cls-3" x="1473.5" y="64.09" width="304.84" height="304.84"/><rect class="cls-3" x="1474.77" y="64.09" width="304.84" height="304.84"/><rect class="cls-3" x="1476.05" y="64.09" width="304.84" height="304.84"/><rect class="cls-3" x="1477.32" y="64.09" width="304.84" height="304.84"/><rect class="cls-3" x="1478.6" y="64.09" width="304.84" height="304.84"/><rect class="cls-3" x="1479.87" y="64.09" width="304.84" height="304.84"/><rect class="cls-3" x="1481.15" y="64.09" width="304.84" height="304.84"/><rect class="cls-3" x="1482.42" y="64.09" width="304.84" height="304.84"/><rect class="cls-3" x="1483.7" y="64.09" width="304.84" height="304.84"/><rect class="cls-3" x="1484.98" y="64.09" width="304.84" height="304.84"/><rect class="cls-3" x="1486.25" y="64.09" width="304.84" height="304.84"/><rect class="cls-3" x="1487.53" y="64.09" width="304.84" height="304.84"/><rect class="cls-3" x="1488.8" y="64.09" width="304.84" height="304.84"/><rect class="cls-3" x="1490.08" y="64.09" width="304.84" height="304.84"/><rect class="cls-3" x="1491.35" y="64.09" width="304.84" height="304.84"/><rect class="cls-3" x="1492.63" y="64.09" width="304.84" height="304.84"/><rect class="cls-3" x="1493.9" y="64.09" width="304.84" height="304.84"/><rect class="cls-3" x="1495.18" y="64.09" width="304.84" height="304.84"/><rect class="cls-3" x="1496.45" y="64.09" width="304.84" height="304.84"/><rect class="cls-3" x="1497.73" y="64.09" width="304.84" height="304.84"/><rect class="cls-3" x="1499.01" y="64.09" width="304.84" height="304.84"/><rect class="cls-3" x="1500.28" y="64.09" width="304.84" height="304.84"/><rect class="cls-3" x="1501.56" y="64.09" width="304.84" height="304.84"/><rect class="cls-3" x="1502.83" y="64.09" width="304.84" height="304.84"/><rect class="cls-3" x="1504.11" y="64.09" width="304.84" height="304.84"/><rect class="cls-3" x="1505.38" y="64.09" width="304.84" height="304.84"/><rect class="cls-3" x="1506.66" y="64.09" width="304.84" height="304.84"/><rect class="cls-3" x="1507.93" y="64.09" width="304.84" height="304.84"/><rect class="cls-3" x="1509.21" y="64.09" width="304.84" height="304.84"/><rect class="cls-3" x="1510.48" y="64.09" width="304.84" height="304.84"/><rect class="cls-3" x="1511.76" y="64.09" width="304.84" height="304.84"/><rect class="cls-3" x="1513.04" y="64.09" width="304.84" height="304.84"/><rect class="cls-3" x="1514.31" y="64.09" width="304.84" height="304.84"/><rect class="cls-3" x="1515.59" y="64.09" width="304.84" height="304.84"/><rect class="cls-3" x="1516.86" y="64.09" width="304.84" height="304.84"/><rect class="cls-3" x="1518.14" y="64.09" width="304.84" height="304.84"/><rect class="cls-3" x="1519.41" y="64.09" width="304.84" height="304.84"/><rect class="cls-3" x="1520.69" y="64.09" width="304.84" height="304.84"/><rect class="cls-3" x="1521.96" y="64.09" width="304.84" height="304.84"/><rect class="cls-3" x="1523.24" y="64.09" width="304.84" height="304.84"/><rect class="cls-3" x="1524.52" y="64.09" width="304.84" height="304.84"/><rect class="cls-3" x="1525.79" y="64.09" width="304.84" height="304.84"/><rect class="cls-3" x="1527.07" y="64.09" width="304.84" height="304.84"/><rect class="cls-3" x="1528.34" y="64.09" width="304.84" height="304.84"/><rect class="cls-3" x="1529.62" y="64.09" width="304.84" height="304.84"/><rect class="cls-3" x="1530.89" y="64.09" width="304.84" height="304.84"/><rect class="cls-3" x="1532.17" y="64.09" width="304.84" height="304.84"/><rect class="cls-3" x="1533.44" y="64.09" width="304.84" height="304.84"/><rect class="cls-3" x="1534.72" y="64.09" width="304.84" height="304.84"/><rect class="cls-3" x="1535.99" y="64.09" width="304.84" height="304.84"/><rect class="cls-3" x="1537.27" y="64.09" width="304.84" height="304.84"/><rect class="cls-3" x="1538.55" y="64.09" width="304.84" height="304.84"/><rect class="cls-3" x="1539.82" y="64.09" width="304.84" height="304.84"/><rect class="cls-3" x="1541.1" y="64.09" width="304.84" height="304.84"/><rect class="cls-3" x="1542.37" y="64.09" width="304.84" height="304.84"/><rect class="cls-3" x="1543.65" y="64.09" width="304.84" height="304.84"/><rect class="cls-3" x="1544.92" y="64.09" width="304.84" height="304.84"/><rect class="cls-3" x="1546.2" y="64.09" width="304.84" height="304.84"/><rect class="cls-3" x="1547.47" y="64.09" width="304.84" height="304.84"/><rect class="cls-3" x="1548.75" y="64.09" width="304.84" height="304.84"/><rect class="cls-3" x="1550.02" y="64.09" width="304.84" height="304.84"/><rect class="cls-3" x="1551.3" y="64.09" width="304.84" height="304.84"/><rect class="cls-3" x="1552.58" y="64.09" width="304.84" height="304.84"/><rect class="cls-3" x="1553.85" y="64.09" width="304.84" height="304.84"/><rect class="cls-3" x="1555.13" y="64.09" width="304.84" height="304.84"/><rect class="cls-3" x="1556.4" y="64.09" width="304.84" height="304.84"/><rect class="cls-3" x="1557.68" y="64.09" width="304.84" height="304.84"/><rect class="cls-3" x="1558.95" y="64.09" width="304.84" height="304.84"/><rect class="cls-3" x="1560.23" y="64.09" width="304.84" height="304.84"/><rect class="cls-3" x="1561.5" y="64.09" width="304.84" height="304.84"/><rect class="cls-3" x="1562.78" y="64.09" width="304.84" height="304.84"/><rect class="cls-3" x="1564.05" y="64.09" width="304.84" height="304.84"/><rect class="cls-3" x="1565.33" y="64.09" width="304.84" height="304.84"/><rect class="cls-3" x="1566.61" y="64.09" width="304.84" height="304.84"/><rect class="cls-3" x="1567.88" y="64.09" width="304.84" height="304.84"/><rect class="cls-3" x="1569.16" y="64.09" width="304.84" height="304.84"/><rect class="cls-3" x="1570.43" y="64.09" width="304.84" height="304.84"/><rect class="cls-3" x="1571.71" y="64.09" width="304.84" height="304.84"/><rect class="cls-3" x="1572.98" y="64.09" width="304.84" height="304.84"/><rect class="cls-3" x="1574.26" y="64.09" width="304.84" height="304.84"/><rect class="cls-3" x="1575.53" y="64.09" width="304.84" height="304.84"/><rect class="cls-3" x="1576.81" y="64.09" width="304.84" height="304.84"/><rect class="cls-3" x="1578.09" y="64.09" width="304.84" height="304.84"/><rect class="cls-3" x="1579.36" y="64.09" width="304.84" height="304.84"/><rect class="cls-3" x="1580.64" y="64.09" width="304.84" height="304.84"/><rect class="cls-3" x="1581.91" y="64.09" width="304.84" height="304.84"/><rect class="cls-3" x="1583.19" y="64.09" width="304.84" height="304.84"/><rect class="cls-3" x="1584.46" y="64.09" width="304.84" height="304.84"/><rect class="cls-3" x="1585.74" y="64.09" width="304.84" height="304.84"/><rect class="cls-3" x="1587.01" y="64.09" width="304.84" height="304.84"/><rect class="cls-3" x="1588.29" y="64.09" width="304.84" height="304.84"/><rect class="cls-3" x="1589.56" y="64.09" width="304.84" height="304.84"/><rect class="cls-3" x="1590.84" y="64.09" width="304.84" height="304.84"/><rect class="cls-3" x="1592.12" y="64.09" width="304.84" height="304.84"/><rect class="cls-3" x="1593.39" y="64.09" width="304.84" height="304.84"/><rect class="cls-3" x="1594.67" y="64.09" width="304.84" height="304.84"/><rect class="cls-3" x="1595.94" y="64.09" width="304.84" height="304.84"/><rect class="cls-3" x="1597.22" y="64.09" width="304.84" height="304.84"/><rect class="cls-3" x="1598.49" y="64.09" width="304.84" height="304.84"/><rect class="cls-3" x="1599.77" y="64.09" width="304.84" height="304.84"/><rect class="cls-3" x="1601.04" y="64.09" width="304.84" height="304.84"/><rect class="cls-3" x="1602.32" y="64.09" width="304.84" height="304.84"/><rect class="cls-3" x="1603.59" y="64.09" width="304.84" height="304.84"/><rect class="cls-2" x="804.51" y="64.73" width="304.84" height="304.84"/><polygon class="cls-2" points="1106.69 64.73 801.85 64.73 807.17 369.57 1112.01 369.57 1106.69 64.73"/><polygon class="cls-2" points="1104.03 64.73 799.19 64.73 809.83 369.57 1114.67 369.57 1104.03 64.73"/><polygon class="cls-2" points="1101.37 64.73 796.53 64.73 812.49 369.57 1117.33 369.57 1101.37 64.73"/><polygon class="cls-2" points="1098.7 64.73 793.87 64.73 815.15 369.57 1119.99 369.57 1098.7 64.73"/><polygon class="cls-2" points="1096.04 64.73 791.21 64.73 817.81 369.57 1122.65 369.57 1096.04 64.73"/><polygon class="cls-2" points="1093.38 64.73 788.54 64.73 820.47 369.57 1125.31 369.57 1093.38 64.73"/><polygon class="cls-2" points="1090.72 64.73 785.88 64.73 823.13 369.57 1127.97 369.57 1090.72 64.73"/><polygon class="cls-2" points="1088.06 64.73 783.22 64.73 825.79 369.57 1130.63 369.57 1088.06 64.73"/><polygon class="cls-2" points="1085.4 64.73 780.56 64.73 828.45 369.57 1133.29 369.57 1085.4 64.73"/><polygon class="cls-2" points="1082.74 64.73 777.9 64.73 831.11 369.57 1135.95 369.57 1082.74 64.73"/><polygon class="cls-2" points="1080.08 64.73 775.24 64.73 833.77 369.57 1138.61 369.57 1080.08 64.73"/><polygon class="cls-2" points="1077.42 64.73 772.58 64.73 836.43 369.57 1141.27 369.57 1077.42 64.73"/><polygon class="cls-2" points="1074.76 64.73 769.92 64.73 839.09 369.57 1143.93 369.57 1074.76 64.73"/><polygon class="cls-2" points="1072.1 64.73 767.26 64.73 841.75 369.57 1146.59 369.57 1072.1 64.73"/><polygon class="cls-2" points="1069.44 64.73 764.6 64.73 844.41 369.57 1149.25 369.57 1069.44 64.73"/><polygon class="cls-2" points="1066.78 64.73 761.94 64.73 847.08 369.57 1151.91 369.57 1066.78 64.73"/><polygon class="cls-2" points="1064.12 64.73 759.28 64.73 849.74 369.57 1154.58 369.57 1064.12 64.73"/><polygon class="cls-2" points="1061.46 64.73 756.62 64.73 852.4 369.57 1157.24 369.57 1061.46 64.73"/><polygon class="cls-2" points="1058.8 64.73 753.96 64.73 855.06 369.57 1159.9 369.57 1058.8 64.73"/><polygon class="cls-2" points="1056.14 64.73 751.3 64.73 857.72 369.57 1162.56 369.57 1056.14 64.73"/><polygon class="cls-2" points="1053.48 64.73 748.64 64.73 860.38 369.57 1165.22 369.57 1053.48 64.73"/><polygon class="cls-2" points="1050.82 64.73 745.98 64.73 863.04 369.57 1167.88 369.57 1050.82 64.73"/><polygon class="cls-2" points="1048.16 64.73 743.32 64.73 865.7 369.57 1170.54 369.57 1048.16 64.73"/><polygon class="cls-2" points="1045.49 64.73 740.66 64.73 868.36 369.57 1173.2 369.57 1045.49 64.73"/><polygon class="cls-2" points="1042.84 64.73 738 64.73 871.02 369.57 1175.86 369.57 1042.84 64.73"/><polygon class="cls-2" points="1040.17 64.73 735.34 64.73 873.68 369.57 1178.52 369.57 1040.17 64.73"/><polygon class="cls-2" points="1037.51 64.73 732.67 64.73 876.34 369.57 1181.18 369.57 1037.51 64.73"/><polygon class="cls-2" points="1034.85 64.73 730.01 64.73 879 369.57 1183.84 369.57 1034.85 64.73"/><polygon class="cls-2" points="1032.19 64.73 727.35 64.73 881.66 369.57 1186.5 369.57 1032.19 64.73"/><polygon class="cls-2" points="1029.53 64.73 724.69 64.73 884.32 369.57 1189.16 369.57 1029.53 64.73"/><polygon class="cls-2" points="1026.87 64.73 722.03 64.73 886.98 369.57 1191.82 369.57 1026.87 64.73"/><polygon class="cls-2" points="1024.21 64.73 719.37 64.73 889.64 369.57 1194.48 369.57 1024.21 64.73"/><polygon class="cls-2" points="1021.55 64.73 716.71 64.73 892.3 369.57 1197.14 369.57 1021.55 64.73"/><polygon class="cls-2" points="1018.89 64.73 714.05 64.73 894.97 369.57 1199.8 369.57 1018.89 64.73"/><polygon class="cls-2" points="1016.23 64.73 711.39 64.73 897.63 369.57 1202.46 369.57 1016.23 64.73"/><polygon class="cls-2" points="1013.57 64.73 708.73 64.73 900.28 369.57 1205.13 369.57 1013.57 64.73"/><polygon class="cls-2" points="1010.91 64.73 706.07 64.73 902.95 369.57 1207.79 369.57 1010.91 64.73"/><polygon class="cls-2" points="1008.25 64.73 703.41 64.73 905.61 369.57 1210.45 369.57 1008.25 64.73"/><polygon class="cls-2" points="1005.59 64.73 700.75 64.73 908.27 369.57 1213.11 369.57 1005.59 64.73"/><polygon class="cls-2" points="1002.93 64.73 698.09 64.73 910.93 369.57 1215.77 369.57 1002.93 64.73"/><polygon class="cls-2" points="1000.27 64.73 695.43 64.73 913.59 369.57 1218.43 369.57 1000.27 64.73"/><polygon class="cls-2" points="997.61 64.73 692.77 64.73 916.25 369.57 1221.09 369.57 997.61 64.73"/><polygon class="cls-2" points="994.95 64.73 690.11 64.73 918.91 369.57 1223.75 369.57 994.95 64.73"/><polygon class="cls-2" points="992.28 64.73 687.45 64.73 921.57 369.57 1226.41 369.57 992.28 64.73"/><polygon class="cls-2" points="989.63 64.73 684.78 64.73 924.23 369.57 1229.07 369.57 989.63 64.73"/><polygon class="cls-2" points="986.96 64.73 682.13 64.73 926.89 369.57 1231.73 369.57 986.96 64.73"/><polygon class="cls-2" points="984.3 64.73 679.46 64.73 929.55 369.57 1234.39 369.57 984.3 64.73"/><polygon class="cls-2" points="981.64 64.73 676.8 64.73 932.21 369.57 1237.05 369.57 981.64 64.73"/><polygon class="cls-2" points="978.98 64.73 674.14 64.73 934.87 369.57 1239.71 369.57 978.98 64.73"/><polygon class="cls-2" points="976.32 64.73 671.48 64.73 937.53 369.57 1242.37 369.57 976.32 64.73"/><polygon class="cls-2" points="973.66 64.73 668.82 64.73 940.19 369.57 1245.03 369.57 973.66 64.73"/><polygon class="cls-2" points="971 64.73 666.16 64.73 942.85 369.57 1247.69 369.57 971 64.73"/><polygon class="cls-2" points="968.34 64.73 663.5 64.73 945.51 369.57 1250.35 369.57 968.34 64.73"/><polygon class="cls-2" points="965.68 64.73 660.84 64.73 948.17 369.57 1253.01 369.57 965.68 64.73"/><polygon class="cls-2" points="963.02 64.73 658.18 64.73 950.84 369.57 1255.67 369.57 963.02 64.73"/><polygon class="cls-2" points="960.36 64.73 655.52 64.73 953.5 369.57 1258.34 369.57 960.36 64.73"/><polygon class="cls-2" points="957.7 64.73 652.86 64.73 956.16 369.57 1260.99 369.57 957.7 64.73"/><polygon class="cls-2" points="955.04 64.73 650.2 64.73 958.82 369.57 1263.66 369.57 955.04 64.73"/><polygon class="cls-2" points="952.38 64.73 647.54 64.73 961.48 369.57 1266.32 369.57 952.38 64.73"/><polygon class="cls-2" points="949.72 64.73 644.88 64.73 964.14 369.57 1268.98 369.57 949.72 64.73"/><polygon class="cls-2" points="947.06 64.73 642.22 64.73 966.8 369.57 1271.64 369.57 947.06 64.73"/><polygon class="cls-2" points="944.4 64.73 639.56 64.73 969.46 369.57 1274.3 369.57 944.4 64.73"/><polygon class="cls-2" points="941.74 64.73 636.9 64.73 972.12 369.57 1276.96 369.57 941.74 64.73"/><polygon class="cls-2" points="939.08 64.73 634.24 64.73 974.78 369.57 1279.62 369.57 939.08 64.73"/><polygon class="cls-2" points="936.41 64.73 631.58 64.73 977.44 369.57 1282.28 369.57 936.41 64.73"/><polygon class="cls-2" points="933.75 64.73 628.91 64.73 980.1 369.57 1284.94 369.57 933.75 64.73"/><polygon class="cls-2" points="931.09 64.73 626.25 64.73 982.76 369.57 1287.6 369.57 931.09 64.73"/><polygon class="cls-2" points="928.43 64.73 623.59 64.73 985.42 369.57 1290.26 369.57 928.43 64.73"/><polygon class="cls-2" points="925.77 64.73 620.93 64.73 988.08 369.57 1292.92 369.57 925.77 64.73"/><polygon class="cls-2" points="923.11 64.73 618.27 64.73 990.74 369.57 1295.58 369.57 923.11 64.73"/><polygon class="cls-2" points="920.45 64.73 615.61 64.73 993.4 369.57 1298.24 369.57 920.45 64.73"/><polygon class="cls-2" points="917.79 64.73 612.95 64.73 996.06 369.57 1300.9 369.57 917.79 64.73"/><polygon class="cls-2" points="915.13 64.73 610.29 64.73 998.72 369.57 1303.56 369.57 915.13 64.73"/><polygon class="cls-2" points="912.47 64.73 607.63 64.73 1001.38 369.57 1306.22 369.57 912.47 64.73"/><polygon class="cls-2" points="909.81 64.73 604.97 64.73 1004.04 369.57 1308.88 369.57 909.81 64.73"/><polygon class="cls-2" points="907.15 64.73 602.31 64.73 1006.71 369.57 1311.55 369.57 907.15 64.73"/><polygon class="cls-2" points="904.49 64.73 599.65 64.73 1009.37 369.57 1314.2 369.57 904.49 64.73"/><polygon class="cls-2" points="901.83 64.73 596.99 64.73 1012.03 369.57 1316.87 369.57 901.83 64.73"/><polygon class="cls-2" points="899.17 64.73 594.33 64.73 1014.69 369.57 1319.53 369.57 899.17 64.73"/><polygon class="cls-2" points="896.51 64.73 591.67 64.73 1017.35 369.57 1322.19 369.57 896.51 64.73"/><polygon class="cls-2" points="893.85 64.73 589.01 64.73 1020.01 369.57 1324.85 369.57 893.85 64.73"/><polygon class="cls-2" points="891.19 64.73 586.35 64.73 1022.67 369.57 1327.51 369.57 891.19 64.73"/><polygon class="cls-2" points="888.53 64.73 583.69 64.73 1025.33 369.57 1330.17 369.57 888.53 64.73"/><polygon class="cls-2" points="885.87 64.73 581.03 64.73 1027.99 369.57 1332.83 369.57 885.87 64.73"/><polygon class="cls-2" points="883.21 64.73 578.37 64.73 1030.65 369.57 1335.49 369.57 883.21 64.73"/><polygon class="cls-2" points="880.54 64.73 575.71 64.73 1033.31 369.57 1338.15 369.57 880.54 64.73"/><polygon class="cls-2" points="877.88 64.73 573.04 64.73 1035.97 369.57 1340.81 369.57 877.88 64.73"/><polygon class="cls-2" points="875.22 64.73 570.38 64.73 1038.63 369.57 1343.47 369.57 875.22 64.73"/><polygon class="cls-2" points="872.56 64.73 567.72 64.73 1041.29 369.57 1346.13 369.57 872.56 64.73"/><polygon class="cls-2" points="869.9 64.73 565.06 64.73 1043.95 369.57 1348.79 369.57 869.9 64.73"/><polygon class="cls-2" points="867.24 64.73 562.4 64.73 1046.61 369.57 1351.45 369.57 867.24 64.73"/><polygon class="cls-2" points="864.58 64.73 559.74 64.73 1049.27 369.57 1354.11 369.57 864.58 64.73"/><polygon class="cls-2" points="861.92 64.73 557.08 64.73 1051.93 369.57 1356.77 369.57 861.92 64.73"/><polygon class="cls-2" points="859.26 64.73 554.42 64.73 1054.59 369.57 1359.43 369.57 859.26 64.73"/><polygon class="cls-2" points="856.6 64.73 551.76 64.73 1057.26 369.57 1362.09 369.57 856.6 64.73"/><polygon class="cls-2" points="853.94 64.73 549.1 64.73 1059.91 369.57 1364.75 369.57 853.94 64.73"/><polygon class="cls-2" points="851.28 64.73 546.44 64.73 1062.58 369.57 1367.41 369.57 851.28 64.73"/><polygon class="cls-2" points="848.62 64.73 543.78 64.73 1065.24 369.57 1370.08 369.57 848.62 64.73"/><polygon class="cls-2" points="845.96 64.73 541.12 64.73 1067.9 369.57 1372.74 369.57 845.96 64.73"/><polygon class="cls-2" points="843.3 64.73 538.46 64.73 1070.56 369.57 1375.4 369.57 843.3 64.73"/><polygon class="cls-2" points="840.64 64.73 535.8 64.73 1073.22 369.57 1378.06 369.57 840.64 64.73"/><polygon class="cls-2" points="837.98 64.73 533.14 64.73 1075.88 369.57 1380.72 369.57 837.98 64.73"/><polygon class="cls-2" points="835.32 64.73 530.48 64.73 1078.54 369.57 1383.38 369.57 835.32 64.73"/><polygon class="cls-2" points="832.66 64.73 527.82 64.73 1081.2 369.57 1386.04 369.57 832.66 64.73"/><polygon class="cls-2" points="830 64.73 525.16 64.73 1083.86 369.57 1388.7 369.57 830 64.73"/></svg>