<svg id="cirlce" xmlns="http://www.w3.org/2000/svg" viewBox="0 0 1517.42 800.94"><defs><style>.cls-1,.cls-2,.cls-3,.cls-4,.cls-5{fill:none;stroke-miterlimit:10;}.cls-1,.cls-2,.cls-4{stroke:aqua;}.cls-1,.cls-3{stroke-width:0.75px;}.cls-2,.cls-5{stroke-width:0.25px;}.cls-3,.cls-5{stroke:#fff;}.cls-4{stroke-width:0.5px;}</style></defs><circle class="cls-1" cx="173.49" cy="173.67" r="173.11"/><circle class="cls-1" cx="173.49" cy="173.67" r="164.46"/><circle class="cls-1" cx="173.49" cy="173.67" r="156.23"/><circle class="cls-1" cx="173.49" cy="173.67" r="148.42"/><circle class="cls-1" cx="173.49" cy="173.67" r="141"/><circle class="cls-1" cx="173.49" cy="173.67" r="133.95"/><circle class="cls-1" cx="173.49" cy="173.67" r="127.25"/><circle class="cls-1" cx="173.49" cy="173.67" r="120.89"/><circle class="cls-1" cx="173.49" cy="173.67" r="114.85"/><circle class="cls-1" cx="173.49" cy="173.67" r="109.1"/><circle class="cls-1" cx="173.49" cy="173.67" r="103.65"/><circle class="cls-1" cx="173.49" cy="173.67" r="98.47"/><circle class="cls-1" cx="173.49" cy="173.67" r="93.54"/><circle class="cls-1" cx="173.49" cy="173.67" r="88.87"/><circle class="cls-1" cx="173.49" cy="173.67" r="84.42"/><circle class="cls-1" cx="173.49" cy="173.67" r="80.2"/><circle class="cls-1" cx="173.49" cy="173.67" r="76.19"/><circle class="cls-1" cx="173.49" cy="173.67" r="72.38"/><circle class="cls-1" cx="173.49" cy="173.67" r="68.76"/><circle class="cls-1" cx="173.49" cy="173.67" r="65.32"/><circle class="cls-1" cx="173.49" cy="173.67" r="62.06"/><circle class="cls-1" cx="173.49" cy="173.67" r="58.96"/><circle class="cls-1" cx="173.49" cy="173.67" r="56.01"/><circle class="cls-1" cx="173.49" cy="173.67" r="53.21"/><circle class="cls-1" cx="173.49" cy="173.67" r="50.55"/><circle class="cls-1" cx="173.49" cy="173.67" r="48.02"/><circle class="cls-1" cx="173.49" cy="173.67" r="45.62"/><circle class="cls-1" cx="173.49" cy="173.67" r="43.34"/><circle class="cls-1" cx="173.49" cy="173.67" r="41.17"/><circle class="cls-1" cx="173.49" cy="173.67" r="39.11"/><circle class="cls-1" cx="173.49" cy="173.67" r="37.16"/><circle class="cls-1" cx="173.49" cy="173.67" r="35.3"/><circle class="cls-1" cx="173.49" cy="173.67" r="33.53"/><circle class="cls-1" cx="173.49" cy="173.67" r="31.86"/><circle class="cls-1" cx="173.49" cy="173.67" r="30.26"/><circle class="cls-1" cx="173.49" cy="173.67" r="28.75"/><circle class="cls-1" cx="173.49" cy="173.67" r="27.31"/><circle class="cls-1" cx="173.49" cy="173.67" r="25.95"/><circle class="cls-1" cx="173.49" cy="173.67" r="24.65"/><circle class="cls-1" cx="173.49" cy="173.67" r="23.42"/><circle class="cls-1" cx="173.49" cy="173.67" r="22.25"/><circle class="cls-1" cx="173.49" cy="173.67" r="21.13"/><circle class="cls-1" cx="173.49" cy="173.67" r="20.08"/><circle class="cls-1" cx="173.49" cy="173.67" r="19.07"/><circle class="cls-1" cx="173.49" cy="173.67" r="18.12"/><circle class="cls-1" cx="173.49" cy="173.67" r="17.21"/><circle class="cls-1" cx="173.49" cy="173.67" r="16.35"/><circle class="cls-1" cx="173.49" cy="173.67" r="15.54"/><circle class="cls-1" cx="173.49" cy="173.67" r="14.76"/><circle class="cls-1" cx="173.49" cy="173.67" r="14.02"/><circle class="cls-1" cx="173.49" cy="173.67" r="13.32"/><circle class="cls-1" cx="173.49" cy="173.67" r="12.65"/><circle class="cls-1" cx="173.49" cy="173.67" r="12.02"/><circle class="cls-2" cx="1222.67" cy="613.97" r="173.11"/><circle class="cls-2" cx="1224.16" cy="613.97" r="173.11"/><circle class="cls-2" cx="1225.64" cy="613.97" r="173.11"/><circle class="cls-2" cx="1227.13" cy="613.97" r="173.11"/><circle class="cls-2" cx="1228.62" cy="613.97" r="173.11"/><circle class="cls-2" cx="1230.1" cy="613.97" r="173.11"/><circle class="cls-2" cx="1231.59" cy="613.97" r="173.11"/><circle class="cls-2" cx="1233.07" cy="613.97" r="173.11"/><circle class="cls-2" cx="1234.56" cy="613.97" r="173.11"/><circle class="cls-2" cx="1236.05" cy="613.97" r="173.11"/><circle class="cls-2" cx="1237.53" cy="613.97" r="173.11"/><circle class="cls-2" cx="1239.02" cy="613.97" r="173.11"/><circle class="cls-2" cx="1240.5" cy="613.97" r="173.11"/><circle class="cls-2" cx="1241.99" cy="613.97" r="173.11"/><circle class="cls-2" cx="1243.48" cy="613.97" r="173.11"/><circle class="cls-2" cx="1244.96" cy="613.97" r="173.11"/><circle class="cls-2" cx="1246.45" cy="613.97" r="173.11"/><circle class="cls-2" cx="1247.93" cy="613.97" r="173.11"/><circle class="cls-2" cx="1249.42" cy="613.97" r="173.11"/><circle class="cls-2" cx="1250.91" cy="613.97" r="173.11"/><circle class="cls-2" cx="1252.39" cy="613.97" r="173.11"/><circle class="cls-2" cx="1253.88" cy="613.97" r="173.11"/><circle class="cls-2" cx="1255.36" cy="613.97" r="173.11"/><circle class="cls-2" cx="1256.85" cy="613.97" r="173.11"/><circle class="cls-2" cx="1258.33" cy="613.97" r="173.11"/><circle class="cls-2" cx="1259.82" cy="613.97" r="173.11"/><circle class="cls-2" cx="1261.31" cy="613.97" r="173.11"/><circle class="cls-2" cx="1262.79" cy="613.97" r="173.11"/><circle class="cls-2" cx="1264.28" cy="613.97" r="173.11"/><circle class="cls-2" cx="1265.76" cy="613.97" r="173.11"/><circle class="cls-2" cx="1267.25" cy="613.97" r="173.11"/><circle class="cls-2" cx="1268.74" cy="613.97" r="173.11"/><circle class="cls-2" cx="1270.22" cy="613.97" r="173.11"/><circle class="cls-2" cx="1271.71" cy="613.97" r="173.11"/><circle class="cls-2" cx="1273.19" cy="613.97" r="173.11"/><circle class="cls-2" cx="1274.68" cy="613.97" r="173.11"/><circle class="cls-2" cx="1276.17" cy="613.97" r="173.11"/><circle class="cls-2" cx="1277.65" cy="613.97" r="173.11"/><circle class="cls-2" cx="1279.14" cy="613.97" r="173.11"/><circle class="cls-2" cx="1280.62" cy="613.97" r="173.11"/><circle class="cls-2" cx="1282.11" cy="613.97" r="173.11"/><circle class="cls-2" cx="1283.6" cy="613.97" r="173.11"/><circle class="cls-2" cx="1285.08" cy="613.97" r="173.11"/><circle class="cls-2" cx="1286.57" cy="613.97" r="173.11"/><circle class="cls-2" cx="1288.05" cy="613.97" r="173.11"/><circle class="cls-2" cx="1289.54" cy="613.97" r="173.11"/><circle class="cls-2" cx="1291.03" cy="613.97" r="173.11"/><circle class="cls-2" cx="1292.51" cy="613.97" r="173.11"/><circle class="cls-2" cx="1294" cy="613.97" r="173.11"/><circle class="cls-2" cx="1295.48" cy="613.97" r="173.11"/><circle class="cls-2" cx="1296.97" cy="613.97" r="173.11"/><circle class="cls-2" cx="1298.46" cy="613.97" r="173.11"/><circle class="cls-2" cx="1299.94" cy="613.97" r="173.11"/><circle class="cls-2" cx="1301.43" cy="613.97" r="173.11"/><circle class="cls-2" cx="1302.91" cy="613.97" r="173.11"/><circle class="cls-2" cx="1304.4" cy="613.97" r="173.11"/><circle class="cls-2" cx="1305.89" cy="613.97" r="173.11"/><circle class="cls-2" cx="1307.37" cy="613.97" r="173.11"/><circle class="cls-2" cx="1308.86" cy="613.97" r="173.11"/><circle class="cls-2" cx="1310.34" cy="613.97" r="173.11"/><circle class="cls-2" cx="1311.83" cy="613.97" r="173.11"/><circle class="cls-2" cx="1313.31" cy="613.97" r="173.11"/><circle class="cls-2" cx="1314.8" cy="613.97" r="173.11"/><circle class="cls-2" cx="1316.29" cy="613.97" r="173.11"/><circle class="cls-2" cx="1317.77" cy="613.97" r="173.11"/><circle class="cls-2" cx="1319.26" cy="613.97" r="173.11"/><circle class="cls-2" cx="1320.74" cy="613.97" r="173.11"/><circle class="cls-2" cx="1322.23" cy="613.97" r="173.11"/><circle class="cls-2" cx="1323.72" cy="613.97" r="173.11"/><circle class="cls-2" cx="1325.2" cy="613.97" r="173.11"/><circle class="cls-2" cx="1326.69" cy="613.97" r="173.11"/><circle class="cls-2" cx="1328.17" cy="613.97" r="173.11"/><circle class="cls-2" cx="1329.66" cy="613.97" r="173.11"/><circle class="cls-1" cx="207.37" cy="627.45" r="173.11"/><circle class="cls-1" cx="207.37" cy="627.45" r="164.46"/><circle class="cls-1" cx="207.37" cy="627.45" r="156.23"/><circle class="cls-1" cx="207.37" cy="627.45" r="148.42"/><circle class="cls-1" cx="207.37" cy="627.45" r="141"/><circle class="cls-1" cx="207.37" cy="627.45" r="133.95"/><circle class="cls-1" cx="207.37" cy="627.45" r="127.25"/><circle class="cls-1" cx="207.37" cy="627.45" r="120.89"/><circle class="cls-1" cx="207.37" cy="627.45" r="114.85"/><circle class="cls-1" cx="207.37" cy="627.45" r="109.1"/><circle class="cls-1" cx="207.37" cy="627.45" r="103.65"/><circle class="cls-1" cx="207.37" cy="627.45" r="98.47"/><circle class="cls-1" cx="207.37" cy="627.45" r="93.54"/><circle class="cls-1" cx="207.37" cy="627.45" r="88.87"/><circle class="cls-1" cx="207.37" cy="627.45" r="84.42"/><circle class="cls-1" cx="207.37" cy="627.45" r="80.2"/><circle class="cls-1" cx="207.37" cy="627.45" r="76.19"/><circle class="cls-1" cx="207.37" cy="627.45" r="72.38"/><circle class="cls-1" cx="207.37" cy="627.45" r="68.76"/><circle class="cls-1" cx="207.37" cy="627.45" r="65.32"/><circle class="cls-1" cx="207.37" cy="627.45" r="62.06"/><circle class="cls-1" cx="207.37" cy="627.45" r="58.96"/><circle class="cls-1" cx="207.37" cy="627.45" r="56.01"/><circle class="cls-1" cx="207.37" cy="627.45" r="53.21"/><circle class="cls-1" cx="207.37" cy="627.45" r="50.55"/><circle class="cls-1" cx="207.37" cy="627.45" r="48.02"/><circle class="cls-1" cx="207.37" cy="627.45" r="45.62"/><circle class="cls-1" cx="207.37" cy="627.45" r="43.34"/><circle class="cls-1" cx="207.37" cy="627.45" r="41.17"/><circle class="cls-1" cx="207.37" cy="627.45" r="39.11"/><circle class="cls-1" cx="207.37" cy="627.45" r="37.16"/><circle class="cls-1" cx="207.37" cy="627.45" r="35.3"/><circle class="cls-1" cx="207.37" cy="627.45" r="33.53"/><circle class="cls-1" cx="207.37" cy="627.45" r="31.86"/><circle class="cls-1" cx="207.37" cy="627.45" r="30.26"/><circle class="cls-1" cx="207.37" cy="627.45" r="28.75"/><circle class="cls-1" cx="207.37" cy="627.45" r="27.31"/><circle class="cls-1" cx="207.37" cy="627.45" r="25.95"/><circle class="cls-1" cx="207.37" cy="627.45" r="24.65"/><circle class="cls-1" cx="207.37" cy="627.45" r="23.42"/><circle class="cls-1" cx="207.37" cy="627.45" r="22.25"/><circle class="cls-1" cx="207.37" cy="627.45" r="21.13"/><circle class="cls-1" cx="207.37" cy="627.45" r="20.08"/><circle class="cls-1" cx="207.37" cy="627.45" r="19.07"/><circle class="cls-1" cx="207.37" cy="627.45" r="18.12"/><circle class="cls-1" cx="207.37" cy="627.45" r="17.21"/><circle class="cls-1" cx="207.37" cy="627.45" r="16.35"/><circle class="cls-1" cx="207.37" cy="627.45" r="15.54"/><circle class="cls-1" cx="207.37" cy="627.45" r="14.76"/><circle class="cls-1" cx="207.37" cy="627.45" r="14.02"/><circle class="cls-1" cx="207.37" cy="627.45" r="13.32"/><circle class="cls-1" cx="207.37" cy="627.45" r="12.65"/><circle class="cls-1" cx="207.37" cy="627.45" r="12.02"/><circle class="cls-3" cx="381.23" cy="627.45" r="173.11"/><circle class="cls-3" cx="381.23" cy="627.45" r="164.46"/><circle class="cls-3" cx="381.23" cy="627.45" r="156.23"/><circle class="cls-3" cx="381.23" cy="627.45" r="148.42"/><circle class="cls-3" cx="381.23" cy="627.45" r="141"/><circle class="cls-3" cx="381.23" cy="627.45" r="133.95"/><circle class="cls-3" cx="381.23" cy="627.45" r="127.25"/><circle class="cls-3" cx="381.23" cy="627.45" r="120.89"/><circle class="cls-3" cx="381.23" cy="627.45" r="114.85"/><circle class="cls-3" cx="381.23" cy="627.45" r="109.1"/><circle class="cls-3" cx="381.23" cy="627.45" r="103.65"/><circle class="cls-3" cx="381.23" cy="627.45" r="98.47"/><circle class="cls-3" cx="381.23" cy="627.45" r="93.54"/><circle class="cls-3" cx="381.23" cy="627.45" r="88.87"/><circle class="cls-3" cx="381.23" cy="627.45" r="84.42"/><circle class="cls-3" cx="381.23" cy="627.45" r="80.2"/><circle class="cls-3" cx="381.23" cy="627.45" r="76.19"/><circle class="cls-3" cx="381.23" cy="627.45" r="72.38"/><circle class="cls-3" cx="381.23" cy="627.45" r="68.76"/><circle class="cls-3" cx="381.23" cy="627.45" r="65.32"/><circle class="cls-3" cx="381.23" cy="627.45" r="62.06"/><circle class="cls-3" cx="381.23" cy="627.45" r="58.96"/><circle class="cls-3" cx="381.23" cy="627.45" r="56.01"/><circle class="cls-3" cx="381.23" cy="627.45" r="53.21"/><circle class="cls-3" cx="381.23" cy="627.45" r="50.55"/><circle class="cls-3" cx="381.23" cy="627.45" r="48.02"/><circle class="cls-3" cx="381.23" cy="627.45" r="45.62"/><circle class="cls-3" cx="381.23" cy="627.45" r="43.34"/><circle class="cls-3" cx="381.23" cy="627.45" r="41.17"/><circle class="cls-3" cx="381.23" cy="627.45" r="39.11"/><circle class="cls-3" cx="381.23" cy="627.45" r="37.16"/><circle class="cls-3" cx="381.23" cy="627.45" r="35.3"/><circle class="cls-3" cx="381.23" cy="627.45" r="33.53"/><circle class="cls-3" cx="381.23" cy="627.45" r="31.86"/><circle class="cls-3" cx="381.23" cy="627.45" r="30.26"/><circle class="cls-3" cx="381.23" cy="627.45" r="28.75"/><circle class="cls-3" cx="381.23" cy="627.45" r="27.31"/><circle class="cls-3" cx="381.23" cy="627.45" r="25.95"/><circle class="cls-3" cx="381.23" cy="627.45" r="24.65"/><circle class="cls-3" cx="381.23" cy="627.45" r="23.42"/><circle class="cls-3" cx="381.23" cy="627.45" r="22.25"/><circle class="cls-3" cx="381.23" cy="627.45" r="21.13"/><circle class="cls-3" cx="381.23" cy="627.45" r="20.08"/><circle class="cls-3" cx="381.23" cy="627.45" r="19.07"/><circle class="cls-3" cx="381.23" cy="627.45" r="18.12"/><circle class="cls-3" cx="381.23" cy="627.45" r="17.21"/><circle class="cls-3" cx="381.23" cy="627.45" r="16.35"/><circle class="cls-3" cx="381.23" cy="627.45" r="15.54"/><circle class="cls-3" cx="381.23" cy="627.45" r="14.76"/><circle class="cls-3" cx="381.23" cy="627.45" r="14.02"/><circle class="cls-3" cx="381.23" cy="627.45" r="13.32"/><circle class="cls-3" cx="381.23" cy="627.45" r="12.65"/><circle class="cls-3" cx="381.23" cy="627.45" r="12.02"/><circle class="cls-4" cx="962.31" cy="173.76" r="173.2"/><circle class="cls-4" cx="962.31" cy="173.76" r="164.54"/><circle class="cls-4" cx="962.31" cy="173.76" r="156.31"/><circle class="cls-4" cx="962.31" cy="173.76" r="148.5"/><circle class="cls-4" cx="962.31" cy="173.76" r="141.07"/><circle class="cls-4" cx="962.31" cy="173.76" r="134.02"/><circle class="cls-4" cx="962.31" cy="173.76" r="127.32"/><circle class="cls-4" cx="962.31" cy="173.76" r="120.95"/><circle class="cls-4" cx="962.31" cy="173.76" r="114.9"/><circle class="cls-4" cx="962.31" cy="173.76" r="109.16"/><circle class="cls-4" cx="962.31" cy="173.76" r="103.7"/><circle class="cls-4" cx="962.31" cy="173.76" r="98.52"/><circle class="cls-4" cx="962.31" cy="173.76" r="93.59"/><circle class="cls-4" cx="962.31" cy="173.76" r="88.91"/><circle class="cls-4" cx="962.31" cy="173.76" r="84.46"/><circle class="cls-4" cx="962.31" cy="173.76" r="80.24"/><circle class="cls-4" cx="962.31" cy="173.76" r="76.23"/><circle class="cls-4" cx="962.31" cy="173.76" r="72.42"/><circle class="cls-4" cx="962.31" cy="173.76" r="68.8"/><circle class="cls-4" cx="962.31" cy="173.76" r="65.36"/><circle class="cls-4" cx="962.31" cy="173.76" r="62.09"/><circle class="cls-4" cx="962.31" cy="173.76" r="58.99"/><circle class="cls-4" cx="962.31" cy="173.76" r="56.04"/><circle class="cls-4" cx="962.31" cy="173.76" r="53.23"/><circle class="cls-4" cx="962.31" cy="173.76" r="50.57"/><circle class="cls-4" cx="962.31" cy="173.76" r="48.04"/><circle class="cls-4" cx="962.31" cy="173.76" r="45.64"/><circle class="cls-4" cx="962.31" cy="173.76" r="43.36"/><circle class="cls-4" cx="962.31" cy="173.76" r="41.19"/><circle class="cls-4" cx="962.31" cy="173.76" r="39.13"/><circle class="cls-4" cx="962.31" cy="173.76" r="37.18"/><circle class="cls-4" cx="962.31" cy="173.76" r="35.32"/><circle class="cls-4" cx="962.31" cy="173.76" r="33.55"/><circle class="cls-4" cx="962.31" cy="173.76" r="31.87"/><circle class="cls-4" cx="962.31" cy="173.76" r="30.28"/><circle class="cls-4" cx="962.31" cy="173.76" r="28.77"/><circle class="cls-4" cx="962.31" cy="173.76" r="27.33"/><circle class="cls-4" cx="962.31" cy="173.76" r="25.96"/><circle class="cls-4" cx="962.31" cy="173.76" r="24.66"/><circle class="cls-4" cx="962.31" cy="173.76" r="23.43"/><circle class="cls-4" cx="962.31" cy="173.76" r="22.26"/><circle class="cls-4" cx="962.31" cy="173.76" r="21.15"/><circle class="cls-4" cx="962.31" cy="173.76" r="20.09"/><circle class="cls-4" cx="962.31" cy="173.76" r="19.08"/><circle class="cls-4" cx="962.31" cy="173.76" r="18.13"/><circle class="cls-4" cx="962.31" cy="173.76" r="17.22"/><circle class="cls-4" cx="962.31" cy="173.76" r="16.36"/><circle class="cls-4" cx="962.31" cy="173.76" r="15.54"/><circle class="cls-4" cx="962.31" cy="173.76" r="14.77"/><circle class="cls-4" cx="962.31" cy="173.76" r="14.03"/><circle class="cls-4" cx="962.31" cy="173.76" r="13.33"/><circle class="cls-4" cx="962.31" cy="173.76" r="12.66"/><circle class="cls-4" cx="962.31" cy="173.76" r="12.03"/><circle class="cls-4" cx="962.31" cy="173.76" r="11.43"/><circle class="cls-4" cx="962.31" cy="173.76" r="10.85"/><circle class="cls-4" cx="962.31" cy="173.76" r="10.31"/><circle class="cls-4" cx="962.31" cy="173.76" r="9.8"/><circle class="cls-4" cx="962.31" cy="173.76" r="9.31"/><circle class="cls-4" cx="962.31" cy="173.76" r="8.84"/><circle class="cls-4" cx="962.31" cy="173.76" r="8.4"/><circle class="cls-4" cx="962.31" cy="173.76" r="7.98"/><circle class="cls-4" cx="962.31" cy="173.76" r="7.58"/><circle class="cls-4" cx="962.31" cy="173.76" r="7.2"/><circle class="cls-4" cx="962.31" cy="173.76" r="6.84"/><circle class="cls-4" cx="962.31" cy="173.76" r="6.5"/><circle class="cls-5" cx="1344.18" cy="173.99" r="173.11"/><circle class="cls-5" cx="1344.18" cy="173.99" r="167.92"/><circle class="cls-5" cx="1344.18" cy="173.99" r="162.88"/><circle class="cls-5" cx="1344.18" cy="173.99" r="158"/><circle class="cls-5" cx="1344.18" cy="173.99" r="153.26"/><circle class="cls-5" cx="1344.18" cy="173.99" r="148.66"/><circle class="cls-5" cx="1344.18" cy="173.99" r="144.2"/><circle class="cls-5" cx="1344.18" cy="173.99" r="139.87"/><circle class="cls-5" cx="1344.18" cy="173.99" r="135.68"/><circle class="cls-5" cx="1344.18" cy="173.99" r="131.61"/><circle class="cls-5" cx="1344.18" cy="173.99" r="127.66"/><circle class="cls-5" cx="1344.18" cy="173.99" r="123.83"/><circle class="cls-5" cx="1344.18" cy="173.99" r="120.11"/><circle class="cls-5" cx="1344.18" cy="173.99" r="116.51"/><circle class="cls-5" cx="1344.18" cy="173.99" r="113.01"/><circle class="cls-5" cx="1344.18" cy="173.99" r="109.62"/><circle class="cls-5" cx="1344.18" cy="173.99" r="106.34"/><circle class="cls-5" cx="1344.18" cy="173.99" r="103.15"/><circle class="cls-5" cx="1344.18" cy="173.99" r="100.05"/><circle class="cls-5" cx="1344.18" cy="173.99" r="97.05"/><circle class="cls-5" cx="1344.18" cy="173.99" r="94.14"/><circle class="cls-5" cx="1344.18" cy="173.99" r="91.31"/><circle class="cls-5" cx="1344.18" cy="173.99" r="88.57"/><circle class="cls-5" cx="1344.18" cy="173.99" r="85.92"/><circle class="cls-5" cx="1344.18" cy="173.99" r="83.34"/><circle class="cls-5" cx="1344.18" cy="173.99" r="80.84"/><circle class="cls-5" cx="1344.18" cy="173.99" r="78.41"/><circle class="cls-5" cx="1344.18" cy="173.99" r="76.06"/><circle class="cls-5" cx="1344.18" cy="173.99" r="73.78"/><circle class="cls-5" cx="1344.18" cy="173.99" r="71.57"/><circle class="cls-5" cx="1344.18" cy="173.99" r="69.42"/><circle class="cls-5" cx="1344.18" cy="173.99" r="67.34"/><circle class="cls-5" cx="1344.18" cy="173.99" r="65.32"/><circle class="cls-5" cx="1344.18" cy="173.99" r="63.36"/><circle class="cls-5" cx="1344.18" cy="173.99" r="61.46"/><circle class="cls-5" cx="1344.18" cy="173.99" r="59.61"/><circle class="cls-5" cx="1344.18" cy="173.99" r="57.82"/><circle class="cls-5" cx="1344.18" cy="173.99" r="56.09"/><circle class="cls-5" cx="1344.18" cy="173.99" r="54.41"/><circle class="cls-5" cx="1344.18" cy="173.99" r="52.77"/><circle class="cls-5" cx="1344.18" cy="173.99" r="51.19"/><circle class="cls-5" cx="1344.18" cy="173.99" r="49.66"/><circle class="cls-5" cx="1344.18" cy="173.99" r="48.17"/><circle class="cls-5" cx="1344.18" cy="173.99" r="46.72"/><circle class="cls-5" cx="1344.18" cy="173.99" r="45.32"/><circle class="cls-5" cx="1344.18" cy="173.99" r="43.96"/><circle class="cls-5" cx="1344.18" cy="173.99" r="42.64"/><circle class="cls-5" cx="1344.18" cy="173.99" r="41.36"/><circle class="cls-5" cx="1344.18" cy="173.99" r="40.12"/><circle class="cls-5" cx="1344.18" cy="173.99" r="38.92"/><circle class="cls-5" cx="1344.18" cy="173.99" r="37.75"/><circle class="cls-5" cx="1344.18" cy="173.99" r="36.62"/><circle class="cls-5" cx="1344.18" cy="173.99" r="35.52"/><circle class="cls-5" cx="1344.18" cy="173.99" r="34.45"/><circle class="cls-5" cx="1344.18" cy="173.99" r="33.42"/><circle class="cls-5" cx="1344.18" cy="173.99" r="32.42"/><circle class="cls-5" cx="1344.18" cy="173.99" r="31.44"/><circle class="cls-5" cx="1344.18" cy="173.99" r="30.5"/><circle class="cls-5" cx="1344.18" cy="173.99" r="29.59"/><circle class="cls-5" cx="1344.18" cy="173.99" r="28.7"/><circle class="cls-5" cx="1344.18" cy="173.99" r="27.84"/><circle class="cls-5" cx="1344.18" cy="173.99" r="27"/><circle class="cls-5" cx="1344.18" cy="173.99" r="26.19"/><circle class="cls-5" cx="1344.18" cy="173.99" r="25.41"/><circle class="cls-5" cx="1344.18" cy="173.99" r="24.64"/><circle class="cls-5" cx="1344.18" cy="173.99" r="23.91"/><circle class="cls-5" cx="1344.18" cy="173.99" r="23.19"/><circle class="cls-5" cx="1344.18" cy="173.99" r="22.49"/><circle class="cls-5" cx="1344.18" cy="173.99" r="21.82"/><circle class="cls-5" cx="1344.18" cy="173.99" r="21.16"/><circle class="cls-5" cx="1344.18" cy="173.99" r="20.53"/><circle class="cls-5" cx="1344.18" cy="173.99" r="19.91"/><circle class="cls-5" cx="1344.18" cy="173.99" r="19.31"/><circle class="cls-5" cx="1344.18" cy="173.99" r="18.74"/><circle class="cls-5" cx="1344.18" cy="173.99" r="18.17"/><circle class="cls-5" cx="1344.18" cy="173.99" r="17.63"/><circle class="cls-5" cx="1344.18" cy="173.99" r="17.1"/><circle class="cls-5" cx="1344.18" cy="173.99" r="16.59"/><circle class="cls-5" cx="1344.18" cy="173.99" r="16.09"/><circle class="cls-5" cx="1344.18" cy="173.99" r="15.61"/><circle class="cls-5" cx="1344.18" cy="173.99" r="15.14"/><circle class="cls-5" cx="1344.18" cy="173.99" r="14.68"/><circle class="cls-5" cx="1344.18" cy="173.99" r="14.24"/><circle class="cls-5" cx="1344.18" cy="173.99" r="13.82"/><circle class="cls-5" cx="1344.18" cy="173.99" r="13.4"/><circle class="cls-5" cx="1344.18" cy="173.99" r="13"/><circle class="cls-5" cx="1344.18" cy="173.99" r="12.61"/><circle class="cls-5" cx="1344.18" cy="173.99" r="12.23"/><circle class="cls-5" cx="1344.18" cy="173.99" r="11.86"/><circle class="cls-5" cx="1344.18" cy="173.99" r="11.51"/><circle class="cls-5" cx="1344.18" cy="173.99" r="11.16"/><circle class="cls-5" cx="1344.18" cy="173.99" r="10.83"/><circle class="cls-5" cx="1344.18" cy="173.99" r="10.5"/><circle class="cls-5" cx="1344.18" cy="173.99" r="10.19"/><circle class="cls-5" cx="1344.18" cy="173.99" r="9.88"/><circle class="cls-5" cx="1344.18" cy="173.99" r="9.59"/><circle class="cls-5" cx="1344.18" cy="173.99" r="9.3"/><circle class="cls-5" cx="1344.18" cy="173.99" r="9.02"/><circle class="cls-5" cx="1344.18" cy="173.99" r="8.75"/><circle class="cls-5" cx="1344.18" cy="173.99" r="8.49"/><circle class="cls-5" cx="1344.18" cy="173.99" r="8.23"/><circle class="cls-5" cx="1344.18" cy="173.99" r="7.98"/><circle class="cls-5" cx="1344.18" cy="173.99" r="7.75"/><circle class="cls-5" cx="1344.18" cy="173.99" r="7.51"/><circle class="cls-5" cx="1344.18" cy="173.99" r="7.29"/><circle class="cls-5" cx="1344.18" cy="173.99" r="7.07"/><circle class="cls-5" cx="1344.18" cy="173.99" r="6.86"/><circle class="cls-5" cx="1344.18" cy="173.99" r="6.65"/><circle class="cls-5" cx="1344.18" cy="173.99" r="6.45"/><circle class="cls-5" cx="1344.18" cy="173.99" r="6.26"/><circle class="cls-5" cx="1344.18" cy="173.99" r="6.07"/><circle class="cls-5" cx="1344.18" cy="173.99" r="5.89"/><circle class="cls-5" cx="1344.18" cy="173.99" r="5.71"/><circle class="cls-5" cx="1344.18" cy="173.99" r="5.54"/><circle class="cls-5" cx="1344.18" cy="173.99" r="5.37"/><circle class="cls-5" cx="1344.18" cy="173.99" r="5.21"/><circle class="cls-5" cx="1344.18" cy="173.99" r="5.06"/><circle class="cls-5" cx="1344.18" cy="173.99" r="4.9"/><circle class="cls-5" cx="1344.18" cy="173.99" r="4.76"/><circle class="cls-5" cx="1344.18" cy="173.99" r="4.61"/><circle class="cls-5" cx="1344.18" cy="173.99" r="4.48"/><circle class="cls-5" cx="1344.18" cy="173.99" r="4.34"/><circle class="cls-3" cx="571.49" cy="173.49" r="173.11"/><circle class="cls-3" cx="571.49" cy="173.49" r="167.92"/><circle class="cls-3" cx="571.49" cy="173.49" r="162.88"/><circle class="cls-3" cx="571.49" cy="173.49" r="158"/><circle class="cls-3" cx="571.49" cy="173.49" r="153.26"/><circle class="cls-3" cx="571.49" cy="173.49" r="148.66"/><circle class="cls-3" cx="571.49" cy="173.49" r="144.2"/><circle class="cls-3" cx="571.49" cy="173.49" r="139.87"/><circle class="cls-3" cx="571.49" cy="173.49" r="135.68"/><circle class="cls-3" cx="571.49" cy="173.49" r="131.61"/><circle class="cls-3" cx="571.49" cy="173.49" r="127.66"/><circle class="cls-3" cx="571.49" cy="173.49" r="123.83"/><circle class="cls-3" cx="571.49" cy="173.49" r="120.11"/><circle class="cls-3" cx="571.49" cy="173.49" r="116.51"/><circle class="cls-3" cx="571.49" cy="173.49" r="113.01"/><circle class="cls-3" cx="571.49" cy="173.49" r="109.62"/><circle class="cls-3" cx="571.49" cy="173.49" r="106.34"/><circle class="cls-3" cx="571.49" cy="173.49" r="103.15"/><circle class="cls-3" cx="571.49" cy="173.49" r="100.05"/><circle class="cls-3" cx="571.49" cy="173.49" r="97.05"/><circle class="cls-3" cx="571.49" cy="173.49" r="94.14"/><circle class="cls-3" cx="571.49" cy="173.49" r="91.31"/><circle class="cls-3" cx="571.49" cy="173.49" r="88.57"/><circle class="cls-3" cx="571.49" cy="173.49" r="85.92"/><circle class="cls-3" cx="571.49" cy="173.49" r="83.34"/><circle class="cls-3" cx="571.49" cy="173.49" r="80.84"/><circle class="cls-3" cx="571.49" cy="173.49" r="78.41"/><circle class="cls-3" cx="571.49" cy="173.49" r="76.06"/><circle class="cls-3" cx="571.49" cy="173.49" r="73.78"/><circle class="cls-3" cx="571.49" cy="173.49" r="71.57"/><circle class="cls-3" cx="571.49" cy="173.49" r="69.42"/><circle class="cls-3" cx="571.49" cy="173.49" r="67.34"/><circle class="cls-3" cx="571.49" cy="173.49" r="65.32"/><circle class="cls-3" cx="571.49" cy="173.49" r="63.36"/><circle class="cls-3" cx="571.49" cy="173.49" r="61.46"/><circle class="cls-3" cx="571.49" cy="173.49" r="59.61"/><circle class="cls-3" cx="571.49" cy="173.49" r="57.82"/><circle class="cls-3" cx="571.49" cy="173.49" r="56.09"/><circle class="cls-3" cx="571.49" cy="173.49" r="54.41"/><circle class="cls-3" cx="571.49" cy="173.49" r="52.77"/><circle class="cls-3" cx="571.49" cy="173.49" r="51.19"/><circle class="cls-3" cx="571.49" cy="173.49" r="49.66"/><circle class="cls-3" cx="571.49" cy="173.49" r="48.17"/><circle class="cls-3" cx="571.49" cy="173.49" r="46.72"/><circle class="cls-3" cx="571.49" cy="173.49" r="45.32"/><circle class="cls-3" cx="571.49" cy="173.49" r="43.96"/><circle class="cls-3" cx="571.49" cy="173.49" r="42.64"/><circle class="cls-3" cx="571.49" cy="173.49" r="41.36"/><circle class="cls-3" cx="571.49" cy="173.49" r="40.12"/><circle class="cls-3" cx="571.49" cy="173.49" r="38.92"/><circle class="cls-3" cx="571.49" cy="173.49" r="37.75"/><circle class="cls-3" cx="571.49" cy="173.49" r="36.62"/><circle class="cls-3" cx="571.49" cy="173.49" r="35.52"/><circle class="cls-3" cx="571.49" cy="173.49" r="34.45"/><circle class="cls-3" cx="571.49" cy="173.49" r="33.42"/><circle class="cls-3" cx="571.49" cy="173.49" r="32.42"/><circle class="cls-3" cx="571.49" cy="173.49" r="31.44"/><circle class="cls-3" cx="571.49" cy="173.49" r="30.5"/><circle class="cls-3" cx="571.49" cy="173.49" r="29.59"/><circle class="cls-3" cx="571.49" cy="173.49" r="28.7"/><circle class="cls-3" cx="571.49" cy="173.49" r="27.84"/><circle class="cls-3" cx="571.49" cy="173.49" r="27"/><circle class="cls-3" cx="571.49" cy="173.49" r="26.19"/><circle class="cls-3" cx="571.49" cy="173.49" r="25.41"/><circle class="cls-3" cx="571.49" cy="173.49" r="24.64"/><circle class="cls-3" cx="571.49" cy="173.49" r="23.91"/><circle class="cls-3" cx="571.49" cy="173.49" r="23.19"/><circle class="cls-3" cx="571.49" cy="173.49" r="22.49"/><circle class="cls-3" cx="571.49" cy="173.49" r="21.82"/><circle class="cls-3" cx="571.49" cy="173.49" r="21.16"/><circle class="cls-3" cx="571.49" cy="173.49" r="20.53"/><circle class="cls-3" cx="571.49" cy="173.49" r="19.91"/><circle class="cls-3" cx="571.49" cy="173.49" r="19.31"/><circle class="cls-3" cx="571.49" cy="173.49" r="18.74"/><circle class="cls-3" cx="571.49" cy="173.49" r="18.17"/><circle class="cls-3" cx="571.49" cy="173.49" r="17.63"/><circle class="cls-3" cx="571.49" cy="173.49" r="17.1"/><circle class="cls-3" cx="571.49" cy="173.49" r="16.59"/><circle class="cls-3" cx="571.49" cy="173.49" r="16.09"/><circle class="cls-3" cx="571.49" cy="173.49" r="15.61"/><circle class="cls-3" cx="571.49" cy="173.49" r="15.14"/><circle class="cls-3" cx="571.49" cy="173.49" r="14.68"/><circle class="cls-3" cx="571.49" cy="173.49" r="14.24"/><circle class="cls-3" cx="571.49" cy="173.49" r="13.82"/><circle class="cls-3" cx="571.49" cy="173.49" r="13.4"/><circle class="cls-3" cx="571.49" cy="173.49" r="13"/><circle class="cls-3" cx="571.49" cy="173.49" r="12.61"/><circle class="cls-3" cx="571.49" cy="173.49" r="12.23"/><circle class="cls-3" cx="571.49" cy="173.49" r="11.86"/><circle class="cls-3" cx="571.49" cy="173.49" r="11.51"/><circle class="cls-3" cx="571.49" cy="173.49" r="11.16"/><circle class="cls-3" cx="571.49" cy="173.49" r="10.83"/><circle class="cls-3" cx="571.49" cy="173.49" r="10.5"/><circle class="cls-3" cx="571.49" cy="173.49" r="10.19"/><circle class="cls-3" cx="571.49" cy="173.49" r="9.88"/><circle class="cls-3" cx="571.49" cy="173.49" r="9.59"/><circle class="cls-1" cx="867.67" cy="628.59" r="98.47"/><circle class="cls-1" cx="867.67" cy="628.59" r="95.51"/><circle class="cls-1" cx="867.67" cy="628.59" r="92.65"/><circle class="cls-1" cx="867.67" cy="628.59" r="89.87"/><circle class="cls-1" cx="867.67" cy="628.59" r="87.17"/><circle class="cls-1" cx="867.67" cy="628.59" r="84.56"/><circle class="cls-1" cx="867.67" cy="628.59" r="82.02"/><circle class="cls-1" cx="867.67" cy="628.59" r="79.56"/><circle class="cls-1" cx="867.67" cy="628.59" r="77.17"/><circle class="cls-1" cx="867.67" cy="628.59" r="74.86"/><circle class="cls-1" cx="867.67" cy="628.59" r="72.61"/><circle class="cls-1" cx="867.67" cy="628.59" r="70.43"/><circle class="cls-1" cx="867.67" cy="628.59" r="68.32"/><circle class="cls-1" cx="867.67" cy="628.59" r="66.27"/><circle class="cls-1" cx="867.67" cy="628.59" r="64.28"/><circle class="cls-1" cx="867.67" cy="628.59" r="62.35"/><circle class="cls-1" cx="867.67" cy="628.59" r="60.48"/><circle class="cls-1" cx="867.67" cy="628.59" r="58.67"/><circle class="cls-1" cx="867.67" cy="628.59" r="56.91"/><circle class="cls-1" cx="867.67" cy="628.59" r="55.2"/><circle class="cls-1" cx="867.67" cy="628.59" r="53.55"/><circle class="cls-1" cx="867.67" cy="628.59" r="51.94"/><circle class="cls-1" cx="867.67" cy="628.59" r="50.38"/><circle class="cls-1" cx="867.67" cy="628.59" r="48.87"/><circle class="cls-1" cx="867.67" cy="628.59" r="47.4"/><circle class="cls-1" cx="867.67" cy="628.59" r="45.98"/><circle class="cls-1" cx="867.67" cy="628.59" r="44.6"/><circle class="cls-1" cx="867.67" cy="628.59" r="43.26"/><circle class="cls-1" cx="867.67" cy="628.59" r="41.97"/><circle class="cls-1" cx="867.67" cy="628.59" r="40.71"/><circle class="cls-1" cx="867.67" cy="628.59" r="39.49"/><circle class="cls-1" cx="867.67" cy="628.59" r="38.3"/><circle class="cls-1" cx="867.67" cy="628.59" r="37.15"/><circle class="cls-1" cx="867.67" cy="628.59" r="36.04"/><circle class="cls-1" cx="867.67" cy="628.59" r="34.96"/><circle class="cls-1" cx="867.67" cy="628.59" r="33.91"/><circle class="cls-1" cx="867.67" cy="628.59" r="32.89"/><circle class="cls-1" cx="867.67" cy="628.59" r="31.9"/><circle class="cls-1" cx="867.67" cy="628.59" r="30.95"/><circle class="cls-1" cx="867.67" cy="628.59" r="30.02"/><circle class="cls-1" cx="867.67" cy="628.59" r="29.12"/><circle class="cls-1" cx="867.67" cy="628.59" r="28.24"/><circle class="cls-1" cx="867.67" cy="628.59" r="27.4"/><circle class="cls-1" cx="867.67" cy="628.59" r="26.58"/><circle class="cls-1" cx="867.67" cy="628.59" r="25.78"/><circle class="cls-1" cx="867.67" cy="628.59" r="25"/><circle class="cls-1" cx="867.67" cy="628.59" r="24.25"/><circle class="cls-1" cx="867.67" cy="628.59" r="23.53"/><circle class="cls-1" cx="867.67" cy="628.59" r="22.82"/><circle class="cls-1" cx="867.67" cy="628.59" r="22.14"/><circle class="cls-1" cx="867.67" cy="628.59" r="21.47"/><circle class="cls-1" cx="867.67" cy="628.59" r="20.83"/><circle class="cls-1" cx="867.67" cy="628.59" r="20.2"/><circle class="cls-1" cx="867.67" cy="628.59" r="19.6"/><circle class="cls-1" cx="867.67" cy="628.59" r="19.01"/><circle class="cls-1" cx="867.67" cy="628.59" r="18.44"/><circle class="cls-1" cx="867.67" cy="628.59" r="17.89"/><circle class="cls-1" cx="867.67" cy="628.59" r="17.35"/><circle class="cls-1" cx="867.67" cy="628.59" r="16.83"/><circle class="cls-1" cx="867.67" cy="628.59" r="16.32"/><circle class="cls-1" cx="867.67" cy="628.59" r="15.83"/><circle class="cls-1" cx="867.67" cy="628.59" r="15.36"/><circle class="cls-1" cx="867.67" cy="628.59" r="14.9"/><circle class="cls-1" cx="867.67" cy="628.59" r="14.45"/><circle class="cls-1" cx="867.67" cy="628.59" r="14.02"/><circle class="cls-1" cx="867.67" cy="628.59" r="13.6"/><circle class="cls-1" cx="867.67" cy="628.59" r="13.19"/><circle class="cls-1" cx="867.67" cy="628.59" r="12.79"/><circle class="cls-1" cx="867.67" cy="628.59" r="12.41"/><circle class="cls-1" cx="867.67" cy="628.59" r="12.04"/><circle class="cls-1" cx="867.67" cy="628.59" r="11.68"/><circle class="cls-1" cx="867.67" cy="628.59" r="11.33"/><circle class="cls-1" cx="867.67" cy="628.59" r="10.99"/><circle class="cls-1" cx="867.67" cy="628.59" r="10.66"/><circle class="cls-1" cx="867.67" cy="628.59" r="10.34"/><circle class="cls-1" cx="867.67" cy="628.59" r="10.03"/><circle class="cls-1" cx="867.67" cy="628.59" r="9.73"/><circle class="cls-1" cx="867.67" cy="628.59" r="9.43"/><circle class="cls-1" cx="867.67" cy="628.59" r="9.15"/><circle class="cls-1" cx="867.67" cy="628.59" r="8.88"/><circle class="cls-5" cx="681.93" cy="628.95" r="43.96"/><circle class="cls-5" cx="681.93" cy="628.95" r="42.64"/><circle class="cls-5" cx="681.93" cy="628.95" r="41.36"/><circle class="cls-5" cx="681.93" cy="628.95" r="40.12"/><circle class="cls-5" cx="681.93" cy="628.95" r="38.92"/><circle class="cls-5" cx="681.93" cy="628.95" r="37.75"/><circle class="cls-5" cx="681.93" cy="628.95" r="36.62"/><circle class="cls-5" cx="681.93" cy="628.95" r="35.52"/><circle class="cls-5" cx="681.93" cy="628.95" r="34.45"/><circle class="cls-5" cx="681.93" cy="628.95" r="33.42"/><circle class="cls-5" cx="681.93" cy="628.95" r="32.42"/><circle class="cls-5" cx="681.93" cy="628.95" r="31.44"/><circle class="cls-5" cx="681.93" cy="628.95" r="30.5"/><circle class="cls-5" cx="681.93" cy="628.95" r="29.59"/><circle class="cls-5" cx="681.93" cy="628.95" r="28.7"/><circle class="cls-5" cx="681.93" cy="628.95" r="27.84"/><circle class="cls-5" cx="681.93" cy="628.95" r="27"/><circle class="cls-5" cx="681.93" cy="628.95" r="26.19"/><circle class="cls-5" cx="681.93" cy="628.95" r="25.41"/><circle class="cls-5" cx="681.93" cy="628.95" r="24.64"/><circle class="cls-5" cx="681.93" cy="628.95" r="23.91"/><circle class="cls-5" cx="681.93" cy="628.95" r="23.19"/><circle class="cls-5" cx="681.93" cy="628.95" r="22.49"/><circle class="cls-5" cx="681.93" cy="628.95" r="21.82"/><circle class="cls-5" cx="681.93" cy="628.95" r="21.16"/><circle class="cls-5" cx="681.93" cy="628.95" r="20.53"/><circle class="cls-5" cx="681.93" cy="628.95" r="19.91"/><circle class="cls-5" cx="681.93" cy="628.95" r="19.31"/><circle class="cls-5" cx="681.93" cy="628.95" r="18.74"/><circle class="cls-5" cx="681.93" cy="628.95" r="18.17"/><circle class="cls-5" cx="681.93" cy="628.95" r="17.63"/><circle class="cls-5" cx="681.93" cy="628.95" r="17.1"/><circle class="cls-5" cx="681.93" cy="628.95" r="16.59"/><circle class="cls-5" cx="681.93" cy="628.95" r="16.09"/><circle class="cls-5" cx="681.93" cy="628.95" r="15.61"/><circle class="cls-5" cx="681.93" cy="628.95" r="15.14"/><circle class="cls-5" cx="681.93" cy="628.95" r="14.68"/><circle class="cls-5" cx="681.93" cy="628.95" r="14.24"/><circle class="cls-5" cx="681.93" cy="628.95" r="13.82"/><circle class="cls-5" cx="681.93" cy="628.95" r="13.4"/><circle class="cls-5" cx="681.93" cy="628.95" r="13"/><circle class="cls-5" cx="681.93" cy="628.95" r="12.61"/><circle class="cls-5" cx="681.93" cy="628.95" r="12.23"/><circle class="cls-5" cx="681.93" cy="628.95" r="11.86"/><circle class="cls-5" cx="681.93" cy="628.95" r="11.51"/><circle class="cls-5" cx="681.93" cy="628.95" r="11.16"/><circle class="cls-5" cx="681.93" cy="628.95" r="10.83"/><circle class="cls-5" cx="681.93" cy="628.95" r="10.5"/><circle class="cls-5" cx="681.93" cy="628.95" r="10.19"/><circle class="cls-5" cx="681.93" cy="628.95" r="9.88"/><circle class="cls-5" cx="681.93" cy="628.95" r="9.59"/><circle class="cls-5" cx="681.93" cy="628.95" r="9.3"/><circle class="cls-5" cx="681.93" cy="628.95" r="9.02"/><circle class="cls-5" cx="681.93" cy="628.95" r="8.75"/><circle class="cls-5" cx="681.93" cy="628.95" r="8.49"/><circle class="cls-5" cx="681.93" cy="628.95" r="8.23"/><circle class="cls-5" cx="681.93" cy="628.95" r="7.98"/><circle class="cls-5" cx="681.93" cy="628.95" r="7.75"/><circle class="cls-5" cx="681.93" cy="628.95" r="7.51"/><circle class="cls-5" cx="681.93" cy="628.95" r="7.29"/><circle class="cls-5" cx="681.93" cy="628.95" r="7.07"/><circle class="cls-5" cx="681.93" cy="628.95" r="6.86"/><circle class="cls-5" cx="681.93" cy="628.95" r="6.65"/><circle class="cls-5" cx="681.93" cy="628.95" r="6.45"/><circle class="cls-5" cx="681.93" cy="628.95" r="6.26"/><circle class="cls-5" cx="681.93" cy="628.95" r="6.07"/><circle class="cls-5" cx="681.93" cy="628.95" r="5.89"/><circle class="cls-5" cx="681.93" cy="628.95" r="5.71"/><circle class="cls-5" cx="681.93" cy="628.95" r="5.54"/><circle class="cls-5" cx="681.93" cy="628.95" r="5.37"/><circle class="cls-5" cx="681.93" cy="628.95" r="5.21"/><circle class="cls-5" cx="681.93" cy="628.95" r="5.06"/></svg>