<svg id="Layer_7" data-name="Layer 7" xmlns="http://www.w3.org/2000/svg" viewBox="0 0 708.21 708.21"><defs><style>.cls-1{fill:none;stroke:aqua;stroke-miterlimit:10;stroke-width:0.75px;}</style></defs><polygon class="cls-1" points="0.61 707.84 707.61 707.84 354.11 0.84 0.61 707.84"/><polygon class="cls-1" points="18.28 690.16 689.93 690.16 354.11 18.51 18.28 690.16"/><polygon class="cls-1" points="35.07 673.37 673.14 673.37 354.11 35.3 35.07 673.37"/><polygon class="cls-1" points="51.02 657.42 657.19 657.42 354.11 51.26 51.02 657.42"/><polygon class="cls-1" points="66.18 642.27 642.03 642.27 354.11 66.41 66.18 642.27"/><polygon class="cls-1" points="80.58 627.87 627.64 627.87 354.11 80.81 80.58 627.87"/><polygon class="cls-1" points="94.25 614.19 613.96 614.19 354.11 94.48 94.25 614.19"/><polygon class="cls-1" points="107.25 601.2 600.97 601.2 354.11 107.48 107.25 601.2"/><polygon class="cls-1" points="119.59 588.86 588.63 588.86 354.11 119.82 119.59 588.86"/><polygon class="cls-1" points="131.31 577.13 576.9 577.13 354.11 131.54 131.31 577.13"/><polygon class="cls-1" points="142.45 565.99 565.76 565.99 354.11 142.69 142.45 565.99"/><polygon class="cls-1" points="153.04 555.41 555.18 555.41 354.11 153.27 153.04 555.41"/><polygon class="cls-1" points="163.09 545.36 545.12 545.36 354.11 163.32 163.09 545.36"/><polygon class="cls-1" points="172.64 535.8 535.57 535.8 354.11 172.87 172.64 535.8"/><polygon class="cls-1" points="181.71 526.73 526.5 526.73 354.11 181.94 181.71 526.73"/><polygon class="cls-1" points="190.33 518.11 517.88 518.11 354.11 190.56 190.33 518.11"/><polygon class="cls-1" points="198.52 509.92 509.69 509.92 354.11 198.75 198.52 509.92"/><polygon class="cls-1" points="206.3 502.14 501.91 502.14 354.11 206.53 206.3 502.14"/><polygon class="cls-1" points="213.69 494.75 494.52 494.75 354.11 213.92 213.69 494.75"/><polygon class="cls-1" points="220.71 487.73 487.5 487.73 354.11 220.94 220.71 487.73"/><polygon class="cls-1" points="223.38 485.06 484.83 485.06 354.11 223.61 223.38 485.06"/><polygon class="cls-1" points="226 482.45 482.22 482.45 354.11 226.23 226 482.45"/><polygon class="cls-1" points="228.56 479.89 479.66 479.89 354.11 228.79 228.56 479.89"/><polygon class="cls-1" points="231.07 477.38 477.15 477.38 354.11 231.3 231.07 477.38"/><polygon class="cls-1" points="233.53 474.92 474.69 474.92 354.11 233.76 233.53 474.92"/><polygon class="cls-1" points="235.94 472.5 472.27 472.5 354.11 236.17 235.94 472.5"/><polygon class="cls-1" points="238.3 470.14 469.91 470.14 354.11 238.53 238.3 470.14"/><polygon class="cls-1" points="240.62 467.83 467.59 467.83 354.11 240.85 240.62 467.83"/><polygon class="cls-1" points="242.89 465.56 465.32 465.56 354.11 243.12 242.89 465.56"/><polygon class="cls-1" points="245.11 463.33 463.1 463.33 354.11 245.35 245.11 463.33"/><polygon class="cls-1" points="247.29 461.15 460.92 461.15 354.11 247.53 247.29 461.15"/><polygon class="cls-1" points="249.43 459.01 458.78 459.01 354.11 249.66 249.43 459.01"/><polygon class="cls-1" points="251.52 456.92 456.69 456.92 354.11 251.75 251.52 456.92"/><polygon class="cls-1" points="253.57 454.87 454.64 454.87 354.11 253.81 253.57 454.87"/><polygon class="cls-1" points="255.59 452.86 452.63 452.86 354.11 255.82 255.59 452.86"/><polygon class="cls-1" points="257.56 450.89 450.66 450.89 354.11 257.79 257.56 450.89"/><polygon class="cls-1" points="259.49 448.96 448.73 448.96 354.11 259.72 259.49 448.96"/><polygon class="cls-1" points="261.38 447.07 446.83 447.07 354.11 261.61 261.38 447.07"/><polygon class="cls-1" points="263.23 445.21 444.98 445.21 354.11 263.47 263.23 445.21"/><polygon class="cls-1" points="265.05 443.39 443.16 443.39 354.11 265.28 265.05 443.39"/><polygon class="cls-1" points="266.83 441.61 441.38 441.61 354.11 267.06 266.83 441.61"/><polygon class="cls-1" points="268.58 439.87 439.63 439.87 354.11 268.81 268.58 439.87"/><polygon class="cls-1" points="270.29 438.16 437.93 438.16 354.11 270.52 270.29 438.16"/><polygon class="cls-1" points="271.96 436.48 436.25 436.48 354.11 272.2 271.96 436.48"/><polygon class="cls-1" points="273.61 434.84 434.61 434.84 354.11 273.84 273.61 434.84"/><polygon class="cls-1" points="275.22 433.23 433 433.23 354.11 275.45 275.22 433.23"/><polygon class="cls-1" points="276.8 431.65 431.42 431.65 354.11 277.03 276.8 431.65"/><polygon class="cls-1" points="278.34 430.1 429.87 430.1 354.11 278.57 278.34 430.1"/><polygon class="cls-1" points="279.86 428.59 428.36 428.59 354.11 280.09 279.86 428.59"/><polygon class="cls-1" points="281.34 427.1 426.87 427.1 354.11 281.57 281.34 427.1"/><polygon class="cls-1" points="282.8 425.65 425.42 425.65 354.11 283.03 282.8 425.65"/><polygon class="cls-1" points="284.22 424.22 423.99 424.22 354.11 284.45 284.22 424.22"/><polygon class="cls-1" points="285.62 422.82 422.59 422.82 354.11 285.85 285.62 422.82"/><polygon class="cls-1" points="286.99 421.45 421.22 421.45 354.11 287.22 286.99 421.45"/><polygon class="cls-1" points="288.33 420.11 419.88 420.11 354.11 288.56 288.33 420.11"/><polygon class="cls-1" points="289.65 418.8 418.56 418.8 354.11 289.88 289.65 418.8"/><polygon class="cls-1" points="290.94 417.51 417.28 417.51 354.11 291.17 290.94 417.51"/><polygon class="cls-1" points="292.2 416.24 416.01 416.24 354.11 292.43 292.2 416.24"/><polygon class="cls-1" points="293.44 415.01 414.77 415.01 354.11 293.67 293.44 415.01"/><polygon class="cls-1" points="294.65 413.79 413.56 413.79 354.11 294.88 294.65 413.79"/><polygon class="cls-1" points="295.84 412.6 412.37 412.6 354.11 296.07 295.84 412.6"/><polygon class="cls-1" points="297.01 411.44 411.21 411.44 354.11 297.24 297.01 411.44"/><polygon class="cls-1" points="298.15 410.3 410.06 410.3 354.11 298.38 298.15 410.3"/><polygon class="cls-1" points="299.27 409.18 408.94 409.18 354.11 299.5 299.27 409.18"/><polygon class="cls-1" points="300.37 408.08 407.85 408.08 354.11 300.6 300.37 408.08"/><polygon class="cls-1" points="301.44 407 406.77 407 354.11 301.67 301.44 407"/><polygon class="cls-1" points="302.49 405.95 405.72 405.95 354.11 302.73 302.49 405.95"/><polygon class="cls-1" points="303.53 404.92 404.69 404.92 354.11 303.76 303.53 404.92"/><polygon class="cls-1" points="304.54 403.91 403.68 403.91 354.11 304.77 304.54 403.91"/><polygon class="cls-1" points="305.53 402.92 402.69 402.92 354.11 305.76 305.53 402.92"/><polygon class="cls-1" points="306.5 401.94 401.71 401.94 354.11 306.73 306.5 401.94"/><polygon class="cls-1" points="307.45 400.99 400.76 400.99 354.11 307.68 307.45 400.99"/><polygon class="cls-1" points="308.38 400.06 399.83 400.06 354.11 308.62 308.38 400.06"/><polygon class="cls-1" points="309.3 399.15 398.91 399.15 354.11 309.53 309.3 399.15"/><polygon class="cls-1" points="310.2 398.25 398.02 398.25 354.11 310.43 310.2 398.25"/><polygon class="cls-1" points="311.07 397.37 397.14 397.37 354.11 311.31 311.07 397.37"/><polygon class="cls-1" points="311.94 396.51 396.28 396.51 354.11 312.17 311.94 396.51"/><polygon class="cls-1" points="312.78 395.67 395.44 395.67 354.11 313.01 312.78 395.67"/><polygon class="cls-1" points="313.61 394.84 394.61 394.84 354.11 313.84 313.61 394.84"/><polygon class="cls-1" points="314.42 394.03 393.8 394.03 354.11 314.65 314.42 394.03"/><polygon class="cls-1" points="315.21 393.24 393 393.24 354.11 315.44 315.21 393.24"/><polygon class="cls-1" points="315.99 392.46 392.23 392.46 354.11 316.22 315.99 392.46"/><polygon class="cls-1" points="316.75 391.7 391.46 391.7 354.11 316.98 316.75 391.7"/><polygon class="cls-1" points="317.5 390.95 390.72 390.95 354.11 317.73 317.5 390.95"/><polygon class="cls-1" points="318.23 390.22 389.99 390.22 354.11 318.46 318.23 390.22"/><polygon class="cls-1" points="318.95 389.5 389.27 389.5 354.11 319.18 318.95 389.5"/><polygon class="cls-1" points="319.65 388.8 388.56 388.8 354.11 319.88 319.65 388.8"/><polygon class="cls-1" points="320.34 388.11 387.88 388.11 354.11 320.57 320.34 388.11"/><polygon class="cls-1" points="321.01 387.43 387.2 387.43 354.11 321.25 321.01 387.43"/><polygon class="cls-1" points="321.68 386.77 386.54 386.77 354.11 321.91 321.68 386.77"/><polygon class="cls-1" points="322.32 386.12 385.89 386.12 354.11 322.56 322.32 386.12"/><polygon class="cls-1" points="322.96 385.49 385.25 385.49 354.11 323.19 322.96 385.49"/><polygon class="cls-1" points="323.58 384.86 384.63 384.86 354.11 323.81 323.58 384.86"/><polygon class="cls-1" points="324.19 384.25 384.02 384.25 354.11 324.43 324.19 384.25"/><polygon class="cls-1" points="324.79 383.65 383.42 383.65 354.11 325.02 324.79 383.65"/><polygon class="cls-1" points="325.38 383.07 382.84 383.07 354.11 325.61 325.38 383.07"/><polygon class="cls-1" points="325.95 382.49 382.26 382.49 354.11 326.18 325.95 382.49"/><polygon class="cls-1" points="326.51 381.93 381.7 381.93 354.11 326.75 326.51 381.93"/><polygon class="cls-1" points="327.07 381.38 381.15 381.38 354.11 327.3 327.07 381.38"/><polygon class="cls-1" points="327.61 380.84 380.61 380.84 354.11 327.84 327.61 380.84"/><polygon class="cls-1" points="328.14 380.31 380.07 380.31 354.11 328.37 328.14 380.31"/><polygon class="cls-1" points="328.66 379.79 379.56 379.79 354.11 328.89 328.66 379.79"/><polygon class="cls-1" points="329.17 379.28 379.05 379.28 354.11 329.4 329.17 379.28"/><polygon class="cls-1" points="329.67 378.78 378.55 378.78 354.11 329.9 329.67 378.78"/><polygon class="cls-1" points="330.15 378.29 378.06 378.29 354.11 330.39 330.15 378.29"/><polygon class="cls-1" points="330.63 377.81 377.58 377.81 354.11 330.87 330.63 377.81"/><polygon class="cls-1" points="331.1 377.34 377.11 377.34 354.11 331.33 331.1 377.34"/><polygon class="cls-1" points="331.56 376.88 376.65 376.88 354.11 331.79 331.56 376.88"/><polygon class="cls-1" points="332.01 376.43 376.2 376.43 354.11 332.25 332.01 376.43"/><polygon class="cls-1" points="332.45 375.99 375.76 375.99 354.11 332.69 332.45 375.99"/><polygon class="cls-1" points="332.89 375.56 375.32 375.56 354.11 333.12 332.89 375.56"/><polygon class="cls-1" points="333.31 375.13 374.9 375.13 354.11 333.55 333.31 375.13"/><polygon class="cls-1" points="333.73 374.72 374.49 374.72 354.11 333.96 333.73 374.72"/><polygon class="cls-1" points="334.14 374.31 374.08 374.31 354.11 334.37 334.14 374.31"/><polygon class="cls-1" points="334.54 373.91 373.68 373.91 354.11 334.77 334.54 373.91"/><polygon class="cls-1" points="334.93 373.52 373.29 373.52 354.11 335.16 334.93 373.52"/><polygon class="cls-1" points="335.31 373.13 372.9 373.13 354.11 335.54 335.31 373.13"/><polygon class="cls-1" points="335.69 372.76 372.53 372.76 354.11 335.92 335.69 372.76"/><polygon class="cls-1" points="336.06 372.39 372.16 372.39 354.11 336.29 336.06 372.39"/><polygon class="cls-1" points="336.42 372.03 371.8 372.03 354.11 336.65 336.42 372.03"/><polygon class="cls-1" points="336.77 371.68 371.44 371.68 354.11 337 336.77 371.68"/><polygon class="cls-1" points="337.12 371.33 371.1 371.33 354.11 337.35 337.12 371.33"/><polygon class="cls-1" points="337.46 370.99 370.76 370.99 354.11 337.69 337.46 370.99"/><polygon class="cls-1" points="337.79 370.66 370.42 370.66 354.11 338.02 337.79 370.66"/><polygon class="cls-1" points="338.12 370.33 370.1 370.33 354.11 338.35 338.12 370.33"/><polygon class="cls-1" points="338.44 370.01 369.78 370.01 354.11 338.67 338.44 370.01"/><polygon class="cls-1" points="338.75 369.7 369.46 369.7 354.11 338.98 338.75 369.7"/><polygon class="cls-1" points="339.06 369.39 369.16 369.39 354.11 339.29 339.06 369.39"/><polygon class="cls-1" points="339.36 369.09 368.86 369.09 354.11 339.59 339.36 369.09"/><polygon class="cls-1" points="339.65 368.79 368.56 368.79 354.11 339.88 339.65 368.79"/><polygon class="cls-1" points="339.94 368.5 368.27 368.5 354.11 340.17 339.94 368.5"/><polygon class="cls-1" points="340.23 368.22 367.99 368.22 354.11 340.46 340.23 368.22"/><polygon class="cls-1" points="340.5 367.94 367.71 367.94 354.11 340.73 340.5 367.94"/><polygon class="cls-1" points="340.77 367.67 367.44 367.67 354.11 341.01 340.77 367.67"/><polygon class="cls-1" points="341.04 367.4 367.17 367.4 354.11 341.27 341.04 367.4"/><polygon class="cls-1" points="341.3 367.14 366.91 367.14 354.11 341.53 341.3 367.14"/><polygon class="cls-1" points="341.56 366.89 366.65 366.89 354.11 341.79 341.56 366.89"/><polygon class="cls-1" points="341.81 366.64 366.4 366.64 354.11 342.04 341.81 366.64"/><polygon class="cls-1" points="342.06 366.39 366.16 366.39 354.11 342.29 342.06 366.39"/><polygon class="cls-1" points="342.3 366.15 365.92 366.15 354.11 342.53 342.3 366.15"/><polygon class="cls-1" points="342.53 365.91 365.68 365.91 354.11 342.76 342.53 365.91"/><polygon class="cls-1" points="342.76 365.68 365.45 365.68 354.11 343 342.76 365.68"/><polygon class="cls-1" points="342.99 365.45 365.22 365.45 354.11 343.22 342.99 365.45"/><polygon class="cls-1" points="343.21 365.23 365 365.23 354.11 343.44 343.21 365.23"/><polygon class="cls-1" points="343.43 365.01 364.78 365.01 354.11 343.66 343.43 365.01"/><polygon class="cls-1" points="343.64 364.8 364.57 364.8 354.11 343.88 343.64 364.8"/><polygon class="cls-1" points="343.85 364.59 364.36 364.59 354.11 344.09 343.85 364.59"/><polygon class="cls-1" points="344.06 364.39 364.15 364.39 354.11 344.29 344.06 364.39"/><polygon class="cls-1" points="344.26 364.19 363.95 364.19 354.11 344.49 344.26 364.19"/><polygon class="cls-1" points="344.46 363.99 363.76 363.99 354.11 344.69 344.46 363.99"/><polygon class="cls-1" points="344.65 363.8 363.56 363.8 354.11 344.88 344.65 363.8"/><polygon class="cls-1" points="344.84 363.61 363.38 363.61 354.11 345.07 344.84 363.61"/><polygon class="cls-1" points="345.02 363.42 363.19 363.42 354.11 345.26 345.02 363.42"/><polygon class="cls-1" points="345.21 363.24 363.01 363.24 354.11 345.44 345.21 363.24"/><polygon class="cls-1" points="345.38 363.06 362.83 363.06 354.11 345.62 345.38 363.06"/><polygon class="cls-1" points="345.56 362.89 362.65 362.89 354.11 345.79 345.56 362.89"/><polygon class="cls-1" points="345.73 362.72 362.48 362.72 354.11 345.96 345.73 362.72"/><polygon class="cls-1" points="345.9 362.55 362.32 362.55 354.11 346.13 345.9 362.55"/><polygon class="cls-1" points="346.06 362.38 362.15 362.38 354.11 346.29 346.06 362.38"/><polygon class="cls-1" points="346.22 362.22 361.99 362.22 354.11 346.45 346.22 362.22"/><polygon class="cls-1" points="346.38 362.07 361.83 362.07 354.11 346.61 346.38 362.07"/><polygon class="cls-1" points="346.53 361.91 361.68 361.91 354.11 346.77 346.53 361.91"/><polygon class="cls-1" points="346.69 361.76 361.53 361.76 354.11 346.92 346.69 361.76"/><polygon class="cls-1" points="346.83 361.61 361.38 361.61 354.11 347.07 346.83 361.61"/><polygon class="cls-1" points="346.98 361.47 361.23 361.47 354.11 347.21 346.98 361.47"/><polygon class="cls-1" points="347.12 361.32 361.09 361.32 354.11 347.35 347.12 361.32"/><polygon class="cls-1" points="347.26 361.18 360.95 361.18 354.11 347.49 347.26 361.18"/><polygon class="cls-1" points="347.4 361.05 360.81 361.05 354.11 347.63 347.4 361.05"/><polygon class="cls-1" points="347.53 360.91 360.68 360.91 354.11 347.76 347.53 360.91"/><polygon class="cls-1" points="347.66 360.78 360.55 360.78 354.11 347.9 347.66 360.78"/><polygon class="cls-1" points="347.79 360.65 360.42 360.65 354.11 348.02 347.79 360.65"/><polygon class="cls-1" points="347.92 360.53 360.29 360.53 354.11 348.15 347.92 360.53"/><polygon class="cls-1" points="348.04 360.4 360.17 360.4 354.11 348.27 348.04 360.4"/><polygon class="cls-1" points="348.16 360.28 360.05 360.28 354.11 348.4 348.16 360.28"/><polygon class="cls-1" points="348.28 360.16 359.93 360.16 354.11 348.51 348.28 360.16"/><polygon class="cls-1" points="348.4 360.05 359.81 360.05 354.11 348.63 348.4 360.05"/><polygon class="cls-1" points="348.51 359.93 359.7 359.93 354.11 348.75 348.51 359.93"/><polygon class="cls-1" points="348.63 359.82 359.59 359.82 354.11 348.86 348.63 359.82"/><polygon class="cls-1" points="348.74 359.71 359.48 359.71 354.11 348.97 348.74 359.71"/><polygon class="cls-1" points="348.84 359.6 359.37 359.6 354.11 349.07 348.84 359.6"/><polygon class="cls-1" points="348.95 359.5 359.26 359.5 354.11 349.18 348.95 359.5"/><polygon class="cls-1" points="349.05 359.39 359.16 359.39 354.11 349.28 349.05 359.39"/><polygon class="cls-1" points="349.15 359.29 359.06 359.29 354.11 349.38 349.15 359.29"/><polygon class="cls-1" points="349.25 359.19 358.96 359.19 354.11 349.48 349.25 359.19"/><polygon class="cls-1" points="349.35 359.1 358.87 359.1 354.11 349.58 349.35 359.1"/><polygon class="cls-1" points="349.44 359 358.77 359 354.11 349.68 349.44 359"/><polygon class="cls-1" points="349.54 358.91 358.68 358.91 354.11 349.77 349.54 358.91"/><polygon class="cls-1" points="349.63 358.82 358.58 358.82 354.11 349.86 349.63 358.82"/><polygon class="cls-1" points="349.72 358.73 358.5 358.73 354.11 349.95 349.72 358.73"/><polygon class="cls-1" points="349.81 358.64 358.41 358.64 354.11 350.04 349.81 358.64"/><polygon class="cls-1" points="349.89 358.55 358.32 358.55 354.11 350.12 349.89 358.55"/><polygon class="cls-1" points="349.98 358.47 358.24 358.47 354.11 350.21 349.98 358.47"/><polygon class="cls-1" points="350.06 358.39 358.15 358.39 354.11 350.29 350.06 358.39"/><polygon class="cls-1" points="350.14 358.31 358.07 358.31 354.11 350.37 350.14 358.31"/><polygon class="cls-1" points="350.22 358.23 358 358.23 354.11 350.45 350.22 358.23"/><polygon class="cls-1" points="350.3 358.15 357.92 358.15 354.11 350.53 350.3 358.15"/><polygon class="cls-1" points="350.37 358.07 357.84 358.07 354.11 350.61 350.37 358.07"/><polygon class="cls-1" points="350.45 358 357.77 358 354.11 350.68 350.45 358"/><polygon class="cls-1" points="350.52 357.92 357.69 357.92 354.11 350.75 350.52 357.92"/><polygon class="cls-1" points="350.59 357.85 357.62 357.85 354.11 350.82 350.59 357.85"/><polygon class="cls-1" points="350.66 357.78 357.55 357.78 354.11 350.89 350.66 357.78"/><polygon class="cls-1" points="350.73 357.71 357.48 357.71 354.11 350.96 350.73 357.71"/><polygon class="cls-1" points="350.8 357.65 357.41 357.65 354.11 351.03 350.8 357.65"/><polygon class="cls-1" points="350.87 357.58 357.35 357.58 354.11 351.1 350.87 357.58"/><polygon class="cls-1" points="350.93 357.51 357.28 357.51 354.11 351.16 350.93 357.51"/><polygon class="cls-1" points="350.99 357.45 357.22 357.45 354.11 351.23 350.99 357.45"/><polygon class="cls-1" points="351.06 357.39 357.16 357.39 354.11 351.29 351.06 357.39"/><polygon class="cls-1" points="351.12 357.33 357.1 357.33 354.11 351.35 351.12 357.33"/><polygon class="cls-1" points="351.18 357.27 357.04 357.27 354.11 351.41 351.18 357.27"/><polygon class="cls-1" points="351.24 357.21 356.98 357.21 354.11 351.47 351.24 357.21"/><polygon class="cls-1" points="351.29 357.15 356.92 357.15 354.11 351.52 351.29 357.15"/><polygon class="cls-1" points="351.35 357.1 356.86 357.1 354.11 351.58 351.35 357.1"/><polygon class="cls-1" points="351.4 357.04 356.81 357.04 354.11 351.64 351.4 357.04"/><polygon class="cls-1" points="351.46 356.99 356.75 356.99 354.11 351.69 351.46 356.99"/><polygon class="cls-1" points="351.51 356.93 356.7 356.93 354.11 351.74 351.51 356.93"/><polygon class="cls-1" points="351.56 356.88 356.65 356.88 354.11 351.8 351.56 356.88"/><polygon class="cls-1" points="351.61 356.83 356.6 356.83 354.11 351.85 351.61 356.83"/><polygon class="cls-1" points="351.66 356.78 356.55 356.78 354.11 351.9 351.66 356.78"/><polygon class="cls-1" points="351.71 356.73 356.5 356.73 354.11 351.94 351.71 356.73"/><polygon class="cls-1" points="351.76 356.69 356.45 356.69 354.11 351.99 351.76 356.69"/><polygon class="cls-1" points="351.81 356.64 356.41 356.64 354.11 352.04 351.81 356.64"/><polygon class="cls-1" points="351.85 356.59 356.36 356.59 354.11 352.08 351.85 356.59"/><polygon class="cls-1" points="351.9 356.55 356.31 356.55 354.11 352.13 351.9 356.55"/><polygon class="cls-1" points="351.94 356.5 356.27 356.5 354.11 352.18 351.94 356.5"/><polygon class="cls-1" points="351.99 356.46 356.23 356.46 354.11 352.22 351.99 356.46"/><polygon class="cls-1" points="352.03 356.42 356.19 356.42 354.11 352.26 352.03 356.42"/><polygon class="cls-1" points="352.07 356.38 356.14 356.38 354.11 352.3 352.07 356.38"/><polygon class="cls-1" points="352.11 356.33 356.1 356.33 354.11 352.34 352.11 356.33"/><polygon class="cls-1" points="352.15 356.3 356.06 356.3 354.11 352.38 352.15 356.3"/><polygon class="cls-1" points="352.19 356.25 356.02 356.25 354.11 352.42 352.19 356.25"/><polygon class="cls-1" points="352.23 356.22 355.99 356.22 354.11 352.46 352.23 356.22"/></svg>