<svg xmlns="http://www.w3.org/2000/svg" viewBox="0 0 500 500"><defs><style>.cls-1{fill:none;stroke:aqua;stroke-miterlimit:10;stroke-width:0.25px;}</style></defs><g id="Layer_2" data-name="Layer 2"><rect x="0.5" y="0.5" width="499" height="499"/><path d="M499,1V499H1V1H499m1-1H0V500H500V0Z"/></g><g id="Layer_1" data-name="Layer 1"><circle class="cls-1" cx="250" cy="249.93" r="55.08"/><circle class="cls-1" cx="250" cy="249.93" r="54.25"/><circle class="cls-1" cx="250" cy="249.93" r="53.44"/><circle class="cls-1" cx="250" cy="249.93" r="52.63"/><circle class="cls-1" cx="250" cy="249.93" r="51.84"/><circle class="cls-1" cx="250" cy="249.93" r="51.07"/><circle class="cls-1" cx="250" cy="249.93" r="50.3"/><circle class="cls-1" cx="250" cy="249.93" r="49.55"/><circle class="cls-1" cx="250" cy="249.93" r="48.8"/><circle class="cls-1" cx="250" cy="249.93" r="48.07"/><circle class="cls-1" cx="250" cy="249.93" r="47.35"/><circle class="cls-1" cx="250" cy="249.93" r="46.64"/><circle class="cls-1" cx="250" cy="249.93" r="45.94"/><circle class="cls-1" cx="250" cy="249.93" r="45.25"/><circle class="cls-1" cx="250" cy="249.93" r="44.57"/><circle class="cls-1" cx="250" cy="249.93" r="43.9"/><circle class="cls-1" cx="250" cy="249.93" r="43.25"/><circle class="cls-1" cx="250" cy="249.93" r="42.6"/><circle class="cls-1" cx="250" cy="249.93" r="41.96"/><circle class="cls-1" cx="250" cy="249.93" r="41.33"/><circle class="cls-1" cx="250" cy="249.93" r="40.71"/><circle class="cls-1" cx="250" cy="249.93" r="40.1"/><circle class="cls-1" cx="250" cy="249.93" r="39.5"/><circle class="cls-1" cx="250" cy="249.93" r="38.9"/><circle class="cls-1" cx="250" cy="249.93" r="38.32"/><circle class="cls-1" cx="250" cy="249.93" r="37.75"/><circle class="cls-1" cx="250" cy="249.93" r="37.18"/><circle class="cls-1" cx="250" cy="249.93" r="36.62"/><circle class="cls-1" cx="250" cy="249.93" r="36.07"/><circle class="cls-1" cx="250" cy="249.93" r="35.53"/><circle class="cls-1" cx="250" cy="249.93" r="35"/><circle class="cls-1" cx="250" cy="249.93" r="34.47"/><circle class="cls-1" cx="250" cy="249.93" r="33.96"/><circle class="cls-1" cx="250" cy="249.93" r="33.45"/><circle class="cls-1" cx="250" cy="249.93" r="32.95"/><circle class="cls-1" cx="250" cy="249.93" r="32.45"/><circle class="cls-1" cx="250" cy="249.93" r="31.96"/><circle class="cls-1" cx="250" cy="249.93" r="31.48"/><circle class="cls-1" cx="250" cy="249.93" r="31.01"/><circle class="cls-1" cx="250" cy="249.93" r="30.55"/><circle class="cls-1" cx="250" cy="249.93" r="30.09"/><circle class="cls-1" cx="250" cy="249.93" r="29.64"/><circle class="cls-1" cx="250" cy="249.93" r="29.19"/><circle class="cls-1" cx="250" cy="249.93" r="28.76"/><circle class="cls-1" cx="250" cy="249.93" r="28.32"/><circle class="cls-1" cx="250" cy="249.93" r="27.9"/><circle class="cls-1" cx="250" cy="249.93" r="27.48"/><circle class="cls-1" cx="250" cy="249.93" r="27.07"/><circle class="cls-1" cx="250" cy="249.93" r="26.66"/><circle class="cls-1" cx="250" cy="249.93" r="26.26"/><circle class="cls-1" cx="250" cy="249.93" r="25.87"/><circle class="cls-1" cx="250" cy="249.93" r="25.48"/><circle class="cls-1" cx="250" cy="249.93" r="25.1"/><circle class="cls-1" cx="250" cy="249.93" r="24.72"/><circle class="cls-1" cx="250" cy="249.93" r="24.35"/><circle class="cls-1" cx="250" cy="249.93" r="23.99"/><circle class="cls-1" cx="250" cy="249.93" r="23.63"/><circle class="cls-1" cx="250" cy="249.93" r="23.27"/><circle class="cls-1" cx="250" cy="249.93" r="22.92"/><circle class="cls-1" cx="250" cy="249.93" r="22.58"/><circle class="cls-1" cx="250" cy="249.93" r="22.24"/><circle class="cls-1" cx="250" cy="249.93" r="21.91"/><circle class="cls-1" cx="250" cy="249.93" r="21.58"/><circle class="cls-1" cx="250" cy="249.93" r="21.25"/><circle class="cls-1" cx="250" cy="249.93" r="20.94"/><circle class="cls-1" cx="250" cy="249.93" r="20.62"/><circle class="cls-1" cx="250" cy="249.93" r="20.31"/><circle class="cls-1" cx="250" cy="249.93" r="20.01"/><circle class="cls-1" cx="250" cy="249.93" r="19.71"/><circle class="cls-1" cx="250" cy="249.93" r="19.41"/><circle class="cls-1" cx="250" cy="249.93" r="19.12"/><circle class="cls-1" cx="250" cy="249.93" r="18.83"/><circle class="cls-1" cx="250" cy="249.93" r="18.55"/><circle class="cls-1" cx="250" cy="249.93" r="18.27"/><circle class="cls-1" cx="250" cy="249.93" r="18"/><circle class="cls-1" cx="250" cy="249.93" r="17.73"/><circle class="cls-1" cx="250" cy="249.93" r="17.46"/><circle class="cls-1" cx="250" cy="249.93" r="17.2"/><circle class="cls-1" cx="250" cy="249.93" r="16.94"/><circle class="cls-1" cx="250" cy="249.93" r="16.69"/><circle class="cls-1" cx="250" cy="249.93" r="16.44"/><circle class="cls-1" cx="250" cy="249.93" r="16.19"/><circle class="cls-1" cx="250" cy="249.93" r="15.95"/><circle class="cls-1" cx="250" cy="249.93" r="15.71"/><circle class="cls-1" cx="250" cy="249.93" r="15.47"/><circle class="cls-1" cx="250" cy="249.93" r="15.24"/><circle class="cls-1" cx="250" cy="249.93" r="15.01"/><circle class="cls-1" cx="250" cy="249.93" r="14.79"/><circle class="cls-1" cx="250" cy="249.93" r="14.57"/><circle class="cls-1" cx="250" cy="249.93" r="14.35"/><circle class="cls-1" cx="250" cy="249.93" r="14.13"/><circle class="cls-1" cx="250" cy="249.93" r="13.92"/><circle class="cls-1" cx="250" cy="249.93" r="13.71"/><circle class="cls-1" cx="250" cy="249.93" r="13.51"/><circle class="cls-1" cx="250" cy="249.93" r="13.3"/><circle class="cls-1" cx="250" cy="249.93" r="13.1"/><circle class="cls-1" cx="250" cy="249.93" r="12.91"/><circle class="cls-1" cx="250" cy="249.93" r="12.71"/><circle class="cls-1" cx="250" cy="249.93" r="12.52"/><circle class="cls-1" cx="250" cy="249.93" r="12.34"/><circle class="cls-1" cx="250" cy="249.93" r="12.15"/><circle class="cls-1" cx="250" cy="249.93" r="11.97"/><circle class="cls-1" cx="250" cy="249.93" r="11.79"/><circle class="cls-1" cx="250" cy="249.93" r="11.61"/><circle class="cls-1" cx="250" cy="249.93" r="11.44"/><circle class="cls-1" cx="250" cy="249.93" r="11.27"/><circle class="cls-1" cx="250" cy="249.93" r="11.1"/><circle class="cls-1" cx="250" cy="249.93" r="10.93"/><circle class="cls-1" cx="250" cy="249.93" r="10.77"/><circle class="cls-1" cx="250" cy="249.93" r="10.6"/><circle class="cls-1" cx="250" cy="249.93" r="10.45"/><circle class="cls-1" cx="250" cy="249.93" r="10.29"/><circle class="cls-1" cx="250" cy="249.93" r="10.13"/><circle class="cls-1" cx="250" cy="249.93" r="9.98"/><circle class="cls-1" cx="250" cy="249.93" r="9.83"/><circle class="cls-1" cx="250" cy="249.93" r="9.69"/><circle class="cls-1" cx="250" cy="249.93" r="9.54"/><circle class="cls-1" cx="250" cy="249.93" r="9.4"/><circle class="cls-1" cx="250" cy="249.93" r="9.26"/><circle class="cls-1" cx="250" cy="249.93" r="9.12"/><circle class="cls-1" cx="250" cy="249.93" r="8.98"/><circle class="cls-1" cx="250" cy="249.93" r="8.85"/><circle class="cls-1" cx="250" cy="249.93" r="8.71"/><circle class="cls-1" cx="250" cy="249.93" r="8.58"/><circle class="cls-1" cx="250" cy="249.93" r="8.45"/><circle class="cls-1" cx="250" cy="249.93" r="8.33"/><circle class="cls-1" cx="250" cy="249.93" r="8.2"/><circle class="cls-1" cx="250" cy="249.93" r="8.08"/><circle class="cls-1" cx="250" cy="249.93" r="7.96"/><circle class="cls-1" cx="250" cy="249.93" r="7.84"/><circle class="cls-1" cx="250" cy="249.93" r="7.72"/><circle class="cls-1" cx="250" cy="249.93" r="7.61"/><circle class="cls-1" cx="250" cy="249.93" r="7.49"/><circle class="cls-1" cx="250" cy="249.93" r="7.38"/><circle class="cls-1" cx="250" cy="249.93" r="7.27"/><circle class="cls-1" cx="250" cy="249.93" r="7.16"/><circle class="cls-1" cx="250" cy="249.93" r="7.05"/><circle class="cls-1" cx="250" cy="249.93" r="6.95"/><circle class="cls-1" cx="250" cy="249.93" r="6.84"/><circle class="cls-1" cx="250" cy="249.93" r="6.74"/><circle class="cls-1" cx="250" cy="249.93" r="6.64"/><circle class="cls-1" cx="250" cy="249.93" r="6.54"/><circle class="cls-1" cx="250" cy="249.93" r="6.44"/><circle class="cls-1" cx="250" cy="249.93" r="6.34"/><circle class="cls-1" cx="250" cy="249.93" r="6.25"/><circle class="cls-1" cx="250" cy="249.93" r="6.15"/><circle class="cls-1" cx="250" cy="249.93" r="6.06"/><circle class="cls-1" cx="250" cy="249.93" r="5.97"/><circle class="cls-1" cx="250" cy="249.93" r="5.88"/><circle class="cls-1" cx="250" cy="249.93" r="5.79"/><circle class="cls-1" cx="250" cy="249.93" r="5.71"/><circle class="cls-1" cx="250" cy="249.93" r="5.62"/><circle class="cls-1" cx="250" cy="249.93" r="5.54"/><circle class="cls-1" cx="250" cy="249.93" r="5.45"/><circle class="cls-1" cx="250" cy="249.93" r="5.37"/><circle class="cls-1" cx="250" cy="249.93" r="5.29"/><circle class="cls-1" cx="250" cy="249.93" r="5.21"/><circle class="cls-1" cx="250" cy="249.93" r="5.13"/><circle class="cls-1" cx="250" cy="249.93" r="5.06"/><circle class="cls-1" cx="250" cy="249.93" r="4.98"/><circle class="cls-1" cx="250" cy="249.93" r="4.91"/><circle class="cls-1" cx="250" cy="249.93" r="4.83"/><circle class="cls-1" cx="250" cy="249.93" r="4.76"/><circle class="cls-1" cx="250" cy="249.93" r="4.69"/><circle class="cls-1" cx="250" cy="249.93" r="4.62"/><circle class="cls-1" cx="250" cy="249.93" r="4.55"/><circle class="cls-1" cx="250" cy="249.93" r="4.48"/><circle class="cls-1" cx="250" cy="249.93" r="4.41"/><circle class="cls-1" cx="250" cy="249.93" r="4.35"/><circle class="cls-1" cx="250" cy="249.93" r="4.28"/><circle class="cls-1" cx="250" cy="249.93" r="4.22"/><circle class="cls-1" cx="250" cy="249.93" r="4.15"/><circle class="cls-1" cx="250" cy="249.93" r="4.09"/><circle class="cls-1" cx="250" cy="249.93" r="4.03"/><circle class="cls-1" cx="250" cy="249.93" r="3.97"/><circle class="cls-1" cx="250" cy="249.93" r="3.91"/><circle class="cls-1" cx="250" cy="249.93" r="3.85"/><circle class="cls-1" cx="250" cy="249.93" r="3.79"/><circle class="cls-1" cx="250" cy="249.93" r="3.74"/><circle class="cls-1" cx="250" cy="249.93" r="3.68"/><circle class="cls-1" cx="250" cy="249.93" r="3.63"/><circle class="cls-1" cx="250" cy="249.93" r="3.57"/><circle class="cls-1" cx="250" cy="249.93" r="3.52"/><circle class="cls-1" cx="250" cy="249.93" r="3.47"/><circle class="cls-1" cx="250" cy="249.93" r="3.41"/><circle class="cls-1" cx="250" cy="249.93" r="3.36"/><circle class="cls-1" cx="250" cy="249.93" r="3.31"/><circle class="cls-1" cx="250" cy="249.93" r="3.26"/><circle class="cls-1" cx="250" cy="249.93" r="3.21"/><circle class="cls-1" cx="250" cy="249.93" r="3.17"/><circle class="cls-1" cx="250" cy="249.93" r="3.12"/><circle class="cls-1" cx="250" cy="249.93" r="3.07"/><circle class="cls-1" cx="250" cy="249.93" r="3.02"/><circle class="cls-1" cx="250" cy="249.93" r="2.98"/><circle class="cls-1" cx="250" cy="249.93" r="2.93"/><circle class="cls-1" cx="250" cy="249.93" r="2.89"/><circle class="cls-1" cx="250" cy="249.93" r="2.85"/><circle class="cls-1" cx="250" cy="249.93" r="2.8"/><circle class="cls-1" cx="250" cy="249.93" r="2.76"/><circle class="cls-1" cx="250" cy="249.93" r="2.72"/><circle class="cls-1" cx="250" cy="249.93" r="2.68"/><circle class="cls-1" cx="250" cy="249.93" r="2.64"/><circle class="cls-1" cx="250" cy="249.93" r="2.6"/><circle class="cls-1" cx="250" cy="249.93" r="2.56"/><circle class="cls-1" cx="250" cy="249.93" r="2.52"/><circle class="cls-1" cx="250" cy="249.93" r="2.49"/><circle class="cls-1" cx="250" cy="249.93" r="2.45"/><circle class="cls-1" cx="250" cy="249.93" r="2.41"/><circle class="cls-1" cx="250" cy="249.93" r="2.38"/><circle class="cls-1" cx="250" cy="249.93" r="2.34"/><circle class="cls-1" cx="250" cy="249.93" r="2.3"/><circle class="cls-1" cx="250" cy="249.93" r="2.27"/><circle class="cls-1" cx="250" cy="249.93" r="2.24"/><circle class="cls-1" cx="250" cy="249.93" r="2.2"/><circle class="cls-1" cx="250" cy="249.93" r="2.17"/><circle class="cls-1" cx="250" cy="249.93" r="2.14"/><circle class="cls-1" cx="250" cy="249.93" r="2.1"/><circle class="cls-1" cx="250" cy="249.93" r="2.07"/><circle class="cls-1" cx="250" cy="249.93" r="2.04"/><circle class="cls-1" cx="250" cy="249.93" r="2.01"/><circle class="cls-1" cx="250" cy="249.93" r="1.98"/><circle class="cls-1" cx="250" cy="249.93" r="1.95"/><circle class="cls-1" cx="250" cy="249.93" r="1.92"/><circle class="cls-1" cx="250" cy="249.93" r="1.89"/><circle class="cls-1" cx="250" cy="249.93" r="1.86"/><circle class="cls-1" cx="250" cy="249.93" r="1.84"/><circle class="cls-1" cx="250" cy="249.93" r="1.81"/><circle class="cls-1" cx="250" cy="249.93" r="1.78"/><circle class="cls-1" cx="250" cy="249.93" r="1.76"/><circle class="cls-1" cx="250" cy="249.93" r="1.73"/><circle class="cls-1" cx="250" cy="249.93" r="1.7"/><circle class="cls-1" cx="250" cy="249.93" r="1.68"/><circle class="cls-1" cx="250" cy="249.93" r="1.65"/><circle class="cls-1" cx="250" cy="249.93" r="1.63"/><circle class="cls-1" cx="250" cy="249.93" r="1.6"/><circle class="cls-1" cx="250" cy="249.93" r="1.58"/><circle class="cls-1" cx="250" cy="249.93" r="1.56"/><circle class="cls-1" cx="250" cy="249.93" r="1.53"/><circle class="cls-1" cx="250" cy="249.93" r="1.51"/><circle class="cls-1" cx="250" cy="249.93" r="1.49"/><circle class="cls-1" cx="250" cy="249.93" r="1.46"/><circle class="cls-1" cx="250" cy="249.93" r="1.44"/><circle class="cls-1" cx="250" cy="249.93" r="1.42"/><circle class="cls-1" cx="250" cy="249.93" r="1.4"/><circle class="cls-1" cx="250" cy="249.93" r="1.38"/><circle class="cls-1" cx="250" cy="249.93" r="1.36"/><circle class="cls-1" cx="250" cy="249.93" r="1.34"/><circle class="cls-1" cx="250" cy="249.93" r="1.32"/><circle class="cls-1" cx="250" cy="249.93" r="1.3"/><circle class="cls-1" cx="250" cy="249.93" r="1.28"/><circle class="cls-1" cx="250" cy="249.93" r="1.26"/><circle class="cls-1" cx="250" cy="249.93" r="1.24"/><circle class="cls-1" cx="250" cy="249.93" r="1.22"/><circle class="cls-1" cx="250" cy="249.93" r="1.2"/><circle class="cls-1" cx="250" cy="249.93" r="1.19"/><circle class="cls-1" cx="250" cy="249.93" r="1.17"/><circle class="cls-1" cx="250" cy="249.93" r="1.15"/><circle class="cls-1" cx="250" cy="249.93" r="1.13"/><circle class="cls-1" cx="250" cy="249.93" r="1.12"/><circle class="cls-1" cx="250" cy="249.93" r="1.1"/><circle class="cls-1" cx="250" cy="249.93" r="1.08"/><circle class="cls-1" cx="250" cy="249.93" r="1.07"/><circle class="cls-1" cx="250" cy="249.93" r="1.05"/><circle class="cls-1" cx="250" cy="249.93" r="1.03"/><circle class="cls-1" cx="250" cy="249.93" r="1.02"/><circle class="cls-1" cx="250" cy="249.93" r="1"/><circle class="cls-1" cx="250" cy="249.93" r="0.99"/><circle class="cls-1" cx="250" cy="249.93" r="0.97"/><circle class="cls-1" cx="250" cy="249.93" r="0.96"/><circle class="cls-1" cx="250" cy="249.93" r="0.94"/><circle class="cls-1" cx="250" cy="249.93" r="0.93"/><circle class="cls-1" cx="250" cy="249.93" r="0.92"/><circle class="cls-1" cx="250" cy="249.93" r="0.9"/><circle class="cls-1" cx="250" cy="249.93" r="0.89"/><circle class="cls-1" cx="250" cy="249.93" r="0.88"/><circle class="cls-1" cx="250" cy="249.93" r="0.86"/><circle class="cls-1" cx="250" cy="249.93" r="0.85"/><circle class="cls-1" cx="250" cy="249.93" r="0.84"/><circle class="cls-1" cx="250" cy="249.93" r="0.82"/><circle class="cls-1" cx="250" cy="249.93" r="0.81"/><circle class="cls-1" cx="250" cy="249.93" r="0.8"/><circle class="cls-1" cx="250" cy="249.93" r="0.79"/><circle class="cls-1" cx="250" cy="249.93" r="0.78"/><circle class="cls-1" cx="250" cy="249.93" r="0.76"/><circle class="cls-1" cx="250" cy="249.93" r="0.75"/><circle class="cls-1" cx="250" cy="249.93" r="0.74"/><circle class="cls-1" cx="250" cy="249.93" r="0.73"/><circle class="cls-1" cx="250" cy="249.93" r="0.72"/><circle class="cls-1" cx="250" cy="249.93" r="0.71"/><circle class="cls-1" cx="250" cy="249.93" r="0.7"/><circle class="cls-1" cx="250" cy="249.93" r="0.69"/><circle class="cls-1" cx="250" cy="249.93" r="0.68"/><circle class="cls-1" cx="250" cy="249.93" r="0.67"/><circle class="cls-1" cx="250" cy="249.93" r="0.66"/><circle class="cls-1" cx="250" cy="249.93" r="0.65"/><circle class="cls-1" cx="250" cy="249.93" r="0.64"/><circle class="cls-1" cx="250" cy="249.93" r="0.63"/><circle class="cls-1" cx="250" cy="249.93" r="0.62"/><circle class="cls-1" cx="250" cy="249.93" r="0.61"/><circle class="cls-1" cx="250" cy="249.93" r="0.6"/><circle class="cls-1" cx="250" cy="249.93" r="0.59"/><circle class="cls-1" cx="250" cy="249.93" r="0.58"/><circle class="cls-1" cx="250" cy="249.93" r="0.57"/><circle class="cls-1" cx="250" cy="249.93" r="0.57"/><circle class="cls-1" cx="250" cy="249.93" r="0.56"/><circle class="cls-1" cx="250" cy="249.93" r="0.55"/><circle class="cls-1" cx="250" cy="249.93" r="0.54"/><circle class="cls-1" cx="250" cy="249.93" r="0.53"/><circle class="cls-1" cx="250" cy="249.93" r="0.52"/><circle class="cls-1" cx="250" cy="249.93" r="0.52"/><circle class="cls-1" cx="250" cy="249.93" r="0.51"/><circle class="cls-1" cx="250" cy="249.93" r="0.5"/><circle class="cls-1" cx="250" cy="249.93" r="0.49"/><circle class="cls-1" cx="250" cy="249.93" r="0.49"/><circle class="cls-1" cx="250" cy="249.93" r="0.48"/><circle class="cls-1" cx="250" cy="249.93" r="0.47"/><circle class="cls-1" cx="250" cy="249.93" r="0.46"/><circle class="cls-1" cx="250" cy="249.93" r="0.46"/><circle class="cls-1" cx="250" cy="249.93" r="0.45"/><circle class="cls-1" cx="250" cy="249.93" r="0.44"/><circle class="cls-1" cx="250" cy="249.93" r="0.44"/><circle class="cls-1" cx="250" cy="249.93" r="0.43"/><circle class="cls-1" cx="250" cy="249.93" r="0.42"/><circle class="cls-1" cx="250" cy="249.93" r="0.42"/><circle class="cls-1" cx="250" cy="249.93" r="0.41"/><circle class="cls-1" cx="250" cy="249.93" r="0.41"/><circle class="cls-1" cx="250" cy="249.93" r="0.4"/><circle class="cls-1" cx="250" cy="249.93" r="0.39"/><circle class="cls-1" cx="250" cy="249.93" r="0.39"/><circle class="cls-1" cx="250" cy="249.93" r="0.38"/><circle class="cls-1" cx="250" cy="249.93" r="0.38"/><circle class="cls-1" cx="250" cy="249.93" r="0.37"/><circle class="cls-1" cx="250" cy="249.93" r="0.36"/><circle class="cls-1" cx="250" cy="249.93" r="0.36"/><circle class="cls-1" cx="250" cy="249.93" r="0.35"/><circle class="cls-1" cx="250" cy="249.93" r="0.35"/><circle class="cls-1" cx="250" cy="249.93" r="0.34"/><circle class="cls-1" cx="250" cy="249.93" r="55.63"/><circle class="cls-1" cx="250" cy="249.93" r="56.18"/><circle class="cls-1" cx="250" cy="249.93" r="56.74"/><circle class="cls-1" cx="250" cy="249.93" r="57.31"/><circle class="cls-1" cx="250" cy="249.93" r="57.89"/><circle class="cls-1" cx="250" cy="249.93" r="58.46"/><circle class="cls-1" cx="250" cy="249.93" r="59.05"/><circle class="cls-1" cx="250" cy="249.93" r="59.64"/><circle class="cls-1" cx="250" cy="249.93" r="60.24"/><circle class="cls-1" cx="250" cy="249.93" r="60.84"/><circle class="cls-1" cx="250" cy="249.93" r="61.45"/><circle class="cls-1" cx="250" cy="249.93" r="62.06"/><circle class="cls-1" cx="250" cy="249.93" r="62.68"/><circle class="cls-1" cx="250" cy="249.93" r="63.31"/><circle class="cls-1" cx="250" cy="249.93" r="63.94"/><circle class="cls-1" cx="250" cy="249.93" r="64.58"/><circle class="cls-1" cx="250" cy="249.93" r="65.23"/><circle class="cls-1" cx="250" cy="249.93" r="65.88"/><circle class="cls-1" cx="250" cy="249.93" r="66.54"/><circle class="cls-1" cx="250" cy="249.93" r="67.2"/><circle class="cls-1" cx="250" cy="249.93" r="67.87"/><circle class="cls-1" cx="250" cy="249.93" r="68.55"/><circle class="cls-1" cx="250" cy="249.93" r="69.24"/><circle class="cls-1" cx="250" cy="249.93" r="69.93"/><circle class="cls-1" cx="250" cy="249.93" r="70.63"/><circle class="cls-1" cx="250" cy="249.93" r="71.34"/><circle class="cls-1" cx="250" cy="249.93" r="72.05"/><circle class="cls-1" cx="250" cy="249.93" r="72.77"/><circle class="cls-1" cx="250" cy="249.93" r="73.5"/><circle class="cls-1" cx="250" cy="249.93" r="74.23"/><circle class="cls-1" cx="250" cy="249.93" r="74.98"/><circle class="cls-1" cx="250" cy="249.93" r="75.73"/><circle class="cls-1" cx="250" cy="249.93" r="76.48"/><circle class="cls-1" cx="250" cy="249.93" r="77.25"/><circle class="cls-1" cx="250" cy="249.93" r="78.02"/><circle class="cls-1" cx="250" cy="249.93" r="78.8"/><circle class="cls-1" cx="250" cy="249.93" r="79.59"/><circle class="cls-1" cx="250" cy="249.93" r="80.38"/><circle class="cls-1" cx="250" cy="249.93" r="81.19"/><circle class="cls-1" cx="250" cy="249.93" r="82"/><circle class="cls-1" cx="250" cy="249.93" r="82.82"/><circle class="cls-1" cx="250" cy="249.93" r="83.65"/><circle class="cls-1" cx="250" cy="249.93" r="84.48"/><circle class="cls-1" cx="250" cy="249.93" r="85.33"/><circle class="cls-1" cx="250" cy="249.93" r="86.18"/><circle class="cls-1" cx="250" cy="249.93" r="87.04"/><circle class="cls-1" cx="250" cy="249.93" r="87.92"/><circle class="cls-1" cx="250" cy="249.93" r="88.79"/><circle class="cls-1" cx="250" cy="249.93" r="89.68"/><circle class="cls-1" cx="250" cy="249.93" r="90.58"/><circle class="cls-1" cx="250" cy="249.93" r="91.49"/><circle class="cls-1" cx="250" cy="249.93" r="92.4"/><circle class="cls-1" cx="250" cy="249.93" r="93.32"/><circle class="cls-1" cx="250" cy="249.93" r="94.26"/><circle class="cls-1" cx="250" cy="249.93" r="95.2"/><circle class="cls-1" cx="250" cy="249.93" r="96.15"/><circle class="cls-1" cx="250" cy="249.93" r="97.11"/><circle class="cls-1" cx="250" cy="249.93" r="98.08"/><circle class="cls-1" cx="250" cy="249.93" r="99.07"/><circle class="cls-1" cx="250" cy="249.93" r="100.06"/><circle class="cls-1" cx="250" cy="249.93" r="101.06"/><circle class="cls-1" cx="250" cy="249.93" r="102.07"/><circle class="cls-1" cx="250" cy="249.93" r="103.09"/><circle class="cls-1" cx="250" cy="249.93" r="104.12"/><circle class="cls-1" cx="250" cy="249.93" r="105.16"/><circle class="cls-1" cx="250" cy="249.93" r="106.21"/><circle class="cls-1" cx="250" cy="249.93" r="107.27"/><circle class="cls-1" cx="250" cy="249.93" r="108.35"/><circle class="cls-1" cx="250" cy="249.93" r="109.43"/><circle class="cls-1" cx="250" cy="249.93" r="110.52"/><circle class="cls-1" cx="250" cy="249.93" r="111.63"/><circle class="cls-1" cx="250" cy="249.93" r="112.75"/><circle class="cls-1" cx="250" cy="249.93" r="113.87"/><circle class="cls-1" cx="250" cy="249.93" r="115.01"/><circle class="cls-1" cx="250" cy="249.93" r="116.16"/><circle class="cls-1" cx="250" cy="249.93" r="117.32"/><circle class="cls-1" cx="250" cy="249.93" r="118.5"/><circle class="cls-1" cx="250" cy="249.93" r="119.68"/><circle class="cls-1" cx="250" cy="249.93" r="120.88"/><circle class="cls-1" cx="250" cy="249.93" r="122.09"/><circle class="cls-1" cx="250" cy="249.93" r="123.31"/><circle class="cls-1" cx="250" cy="249.93" r="124.54"/><circle class="cls-1" cx="250" cy="249.93" r="125.79"/><circle class="cls-1" cx="250" cy="249.93" r="127.04"/><circle class="cls-1" cx="250" cy="249.93" r="128.31"/><circle class="cls-1" cx="250" cy="249.93" r="129.6"/><circle class="cls-1" cx="250" cy="249.93" r="130.89"/><circle class="cls-1" cx="250" cy="249.93" r="132.2"/><circle class="cls-1" cx="250" cy="249.93" r="133.52"/><circle class="cls-1" cx="250" cy="249.93" r="134.86"/><circle class="cls-1" cx="250" cy="249.93" r="136.21"/><circle class="cls-1" cx="250" cy="249.93" r="137.57"/><circle class="cls-1" cx="250" cy="249.93" r="138.95"/><circle class="cls-1" cx="250" cy="249.93" r="140.34"/><circle class="cls-1" cx="250" cy="249.93" r="141.74"/><circle class="cls-1" cx="250" cy="249.93" r="143.16"/><circle class="cls-1" cx="250" cy="249.93" r="144.59"/><circle class="cls-1" cx="250" cy="249.93" r="146.03"/><circle class="cls-1" cx="250" cy="249.93" r="147.49"/><circle class="cls-1" cx="250" cy="249.93" r="148.97"/><circle class="cls-1" cx="250" cy="249.93" r="150.46"/><circle class="cls-1" cx="250" cy="249.93" r="151.96"/><circle class="cls-1" cx="250" cy="249.93" r="153.48"/><circle class="cls-1" cx="250" cy="249.93" r="155.02"/><circle class="cls-1" cx="250" cy="249.93" r="156.57"/><circle class="cls-1" cx="250" cy="249.93" r="158.13"/><circle class="cls-1" cx="250" cy="249.93" r="159.72"/><circle class="cls-1" cx="250" cy="249.93" r="161.31"/><circle class="cls-1" cx="250" cy="249.93" r="162.93"/><circle class="cls-1" cx="250" cy="249.93" r="164.56"/><circle class="cls-1" cx="250" cy="249.93" r="166.2"/><circle class="cls-1" cx="250" cy="249.93" r="167.86"/><circle class="cls-1" cx="250" cy="249.93" r="169.54"/><circle class="cls-1" cx="250" cy="249.93" r="171.24"/><circle class="cls-1" cx="250" cy="249.93" r="172.95"/><circle class="cls-1" cx="250" cy="249.93" r="174.68"/><circle class="cls-1" cx="250" cy="249.93" r="176.43"/><circle class="cls-1" cx="250" cy="249.93" r="178.19"/><circle class="cls-1" cx="250" cy="249.93" r="179.97"/><circle class="cls-1" cx="250" cy="249.93" r="181.77"/><circle class="cls-1" cx="250" cy="249.93" r="183.59"/><circle class="cls-1" cx="250" cy="249.93" r="185.42"/><circle class="cls-1" cx="250" cy="249.93" r="187.28"/><circle class="cls-1" cx="250" cy="249.93" r="189.15"/><circle class="cls-1" cx="250" cy="249.93" r="191.04"/><circle class="cls-1" cx="250" cy="249.93" r="192.95"/><circle class="cls-1" cx="250" cy="249.93" r="194.88"/><circle class="cls-1" cx="250" cy="249.93" r="196.83"/><circle class="cls-1" cx="250" cy="249.93" r="198.8"/><circle class="cls-1" cx="250" cy="249.93" r="200.79"/><circle class="cls-1" cx="250" cy="249.93" r="202.8"/><circle class="cls-1" cx="250" cy="249.93" r="204.82"/><circle class="cls-1" cx="250" cy="249.93" r="206.87"/><circle class="cls-1" cx="250" cy="249.93" r="208.94"/><circle class="cls-1" cx="250" cy="249.93" r="211.03"/><circle class="cls-1" cx="250" cy="249.93" r="213.14"/><circle class="cls-1" cx="250" cy="249.93" r="215.27"/><circle class="cls-1" cx="250" cy="249.93" r="217.43"/><circle class="cls-1" cx="250" cy="249.93" r="219.6"/><circle class="cls-1" cx="250" cy="249.93" r="221.8"/><circle class="cls-1" cx="250" cy="249.93" r="224.01"/><circle class="cls-1" cx="250" cy="249.93" r="226.25"/><circle class="cls-1" cx="250" cy="249.93" r="228.52"/><circle class="cls-1" cx="250" cy="249.93" r="230.8"/><circle class="cls-1" cx="250" cy="249.93" r="233.11"/><circle class="cls-1" cx="250" cy="249.93" r="235.44"/><circle class="cls-1" cx="250" cy="249.93" r="237.79"/><circle class="cls-1" cx="250" cy="249.93" r="240.17"/><circle class="cls-1" cx="250" cy="249.93" r="242.57"/><circle class="cls-1" cx="250" cy="249.93" r="245"/></g></svg>