<svg xmlns="http://www.w3.org/2000/svg" viewBox="0 0 500 500"><defs><style>.cls-1{fill:none;stroke:#fff;stroke-miterlimit:10;stroke-width:0.25px;}</style></defs><g id="Layer_2" data-name="Layer 2"><rect x="0.5" y="0.5" width="499" height="499"/><path d="M499,1V499H1V1H499m1-1H0V500H500V0Z"/></g><g id="Layer_1" data-name="Layer 1"><circle class="cls-1" cx="250" cy="249.93" r="15.11"/><circle class="cls-1" cx="250" cy="249.93" r="15.26"/><circle class="cls-1" cx="250" cy="249.93" r="15.41"/><circle class="cls-1" cx="250" cy="249.93" r="15.56"/><circle class="cls-1" cx="250" cy="249.93" r="15.72"/><circle class="cls-1" cx="250" cy="249.93" r="15.88"/><circle class="cls-1" cx="250" cy="249.93" r="16.04"/><circle class="cls-1" cx="250" cy="249.93" r="16.2"/><circle class="cls-1" cx="250" cy="249.93" r="16.36"/><circle class="cls-1" cx="250" cy="249.93" r="16.52"/><circle class="cls-1" cx="250" cy="249.93" r="16.69"/><circle class="cls-1" cx="250" cy="249.93" r="16.85"/><circle class="cls-1" cx="250" cy="249.93" r="17.02"/><circle class="cls-1" cx="250" cy="249.93" r="17.19"/><circle class="cls-1" cx="250" cy="249.93" r="17.37"/><circle class="cls-1" cx="250" cy="249.93" r="17.54"/><circle class="cls-1" cx="250" cy="249.93" r="17.71"/><circle class="cls-1" cx="250" cy="249.93" r="17.89"/><circle class="cls-1" cx="250" cy="249.93" r="18.07"/><circle class="cls-1" cx="250" cy="249.93" r="18.25"/><circle class="cls-1" cx="250" cy="249.93" r="18.43"/><circle class="cls-1" cx="250" cy="249.93" r="18.62"/><circle class="cls-1" cx="250" cy="249.93" r="18.8"/><circle class="cls-1" cx="250" cy="249.93" r="18.99"/><circle class="cls-1" cx="250" cy="249.93" r="19.18"/><circle class="cls-1" cx="250" cy="249.93" r="19.37"/><circle class="cls-1" cx="250" cy="249.93" r="19.57"/><circle class="cls-1" cx="250" cy="249.93" r="19.76"/><circle class="cls-1" cx="250" cy="249.93" r="19.96"/><circle class="cls-1" cx="250" cy="249.93" r="20.16"/><circle class="cls-1" cx="250" cy="249.93" r="20.36"/><circle class="cls-1" cx="250" cy="249.93" r="20.57"/><circle class="cls-1" cx="250" cy="249.93" r="20.77"/><circle class="cls-1" cx="250" cy="249.93" r="20.98"/><circle class="cls-1" cx="250" cy="249.93" r="21.19"/><circle class="cls-1" cx="250" cy="249.93" r="21.4"/><circle class="cls-1" cx="250" cy="249.93" r="21.61"/><circle class="cls-1" cx="250" cy="249.93" r="21.83"/><circle class="cls-1" cx="250" cy="249.93" r="22.05"/><circle class="cls-1" cx="250" cy="249.93" r="22.27"/><circle class="cls-1" cx="250" cy="249.93" r="22.49"/><circle class="cls-1" cx="250" cy="249.93" r="22.72"/><circle class="cls-1" cx="250" cy="249.93" r="22.94"/><circle class="cls-1" cx="250" cy="249.93" r="23.17"/><circle class="cls-1" cx="250" cy="249.93" r="23.41"/><circle class="cls-1" cx="250" cy="249.93" r="23.64"/><circle class="cls-1" cx="250" cy="249.93" r="23.88"/><circle class="cls-1" cx="250" cy="249.93" r="24.11"/><circle class="cls-1" cx="250" cy="249.93" r="24.36"/><circle class="cls-1" cx="250" cy="249.93" r="24.6"/><circle class="cls-1" cx="250" cy="249.93" r="24.85"/><circle class="cls-1" cx="250" cy="249.93" r="25.09"/><circle class="cls-1" cx="250" cy="249.93" r="25.35"/><circle class="cls-1" cx="250" cy="249.93" r="25.6"/><circle class="cls-1" cx="250" cy="249.93" r="25.85"/><circle class="cls-1" cx="250" cy="249.93" r="26.11"/><circle class="cls-1" cx="250" cy="249.93" r="26.37"/><circle class="cls-1" cx="250" cy="249.93" r="26.64"/><circle class="cls-1" cx="250" cy="249.93" r="26.9"/><circle class="cls-1" cx="250" cy="249.93" r="27.17"/><circle class="cls-1" cx="250" cy="249.93" r="27.45"/><circle class="cls-1" cx="250" cy="249.93" r="27.72"/><circle class="cls-1" cx="250" cy="249.93" r="28"/><circle class="cls-1" cx="250" cy="249.93" r="28.28"/><circle class="cls-1" cx="250" cy="249.93" r="28.56"/><circle class="cls-1" cx="250" cy="249.93" r="28.85"/><circle class="cls-1" cx="250" cy="249.93" r="29.13"/><circle class="cls-1" cx="250" cy="249.93" r="29.42"/><circle class="cls-1" cx="250" cy="249.93" r="29.72"/><circle class="cls-1" cx="250" cy="249.93" r="30.02"/><circle class="cls-1" cx="250" cy="249.93" r="30.32"/><circle class="cls-1" cx="250" cy="249.93" r="30.62"/><circle class="cls-1" cx="250" cy="249.93" r="30.93"/><circle class="cls-1" cx="250" cy="249.93" r="31.24"/><circle class="cls-1" cx="250" cy="249.93" r="31.55"/><circle class="cls-1" cx="250" cy="249.93" r="31.86"/><circle class="cls-1" cx="250" cy="249.93" r="32.18"/><circle class="cls-1" cx="250" cy="249.93" r="32.5"/><circle class="cls-1" cx="250" cy="249.93" r="32.83"/><circle class="cls-1" cx="250" cy="249.93" r="33.16"/><circle class="cls-1" cx="250" cy="249.93" r="33.49"/><circle class="cls-1" cx="250" cy="249.93" r="33.82"/><circle class="cls-1" cx="250" cy="249.93" r="34.16"/><circle class="cls-1" cx="250" cy="249.93" r="34.5"/><circle class="cls-1" cx="250" cy="249.93" r="34.85"/><circle class="cls-1" cx="250" cy="249.93" r="35.2"/><circle class="cls-1" cx="250" cy="249.93" r="35.55"/><circle class="cls-1" cx="250" cy="249.93" r="35.9"/><circle class="cls-1" cx="250" cy="249.93" r="36.26"/><circle class="cls-1" cx="250" cy="249.93" r="36.63"/><circle class="cls-1" cx="250" cy="249.93" r="36.99"/><circle class="cls-1" cx="250" cy="249.93" r="37.36"/><circle class="cls-1" cx="250" cy="249.93" r="37.74"/><circle class="cls-1" cx="250" cy="249.93" r="38.11"/><circle class="cls-1" cx="250" cy="249.93" r="38.49"/><circle class="cls-1" cx="250" cy="249.93" r="38.88"/><circle class="cls-1" cx="250" cy="249.93" r="39.27"/><circle class="cls-1" cx="250" cy="249.93" r="39.66"/><circle class="cls-1" cx="250" cy="249.93" r="40.06"/><circle class="cls-1" cx="250" cy="249.93" r="40.46"/><circle class="cls-1" cx="250" cy="249.93" r="40.86"/><circle class="cls-1" cx="250" cy="249.93" r="41.27"/><circle class="cls-1" cx="250" cy="249.93" r="41.68"/><circle class="cls-1" cx="250" cy="249.93" r="42.1"/><circle class="cls-1" cx="250" cy="249.93" r="42.52"/><circle class="cls-1" cx="250" cy="249.93" r="42.95"/><circle class="cls-1" cx="250" cy="249.93" r="43.38"/><circle class="cls-1" cx="250" cy="249.93" r="43.81"/><circle class="cls-1" cx="250" cy="249.93" r="44.25"/><circle class="cls-1" cx="250" cy="249.93" r="44.69"/><circle class="cls-1" cx="250" cy="249.93" r="45.14"/><circle class="cls-1" cx="250" cy="249.93" r="45.59"/><circle class="cls-1" cx="250" cy="249.93" r="46.04"/><circle class="cls-1" cx="250" cy="249.93" r="46.5"/><circle class="cls-1" cx="250" cy="249.93" r="46.97"/><circle class="cls-1" cx="250" cy="249.93" r="47.44"/><circle class="cls-1" cx="250" cy="249.93" r="47.91"/><circle class="cls-1" cx="250" cy="249.93" r="48.39"/><circle class="cls-1" cx="250" cy="249.93" r="48.88"/><circle class="cls-1" cx="250" cy="249.93" r="49.37"/><circle class="cls-1" cx="250" cy="249.93" r="49.86"/><circle class="cls-1" cx="250" cy="249.93" r="50.36"/><circle class="cls-1" cx="250" cy="249.93" r="50.86"/><circle class="cls-1" cx="250" cy="249.93" r="51.37"/><circle class="cls-1" cx="250" cy="249.93" r="51.88"/><circle class="cls-1" cx="250" cy="249.93" r="52.4"/><circle class="cls-1" cx="250" cy="249.93" r="52.93"/><circle class="cls-1" cx="250" cy="249.93" r="53.46"/><circle class="cls-1" cx="250" cy="249.93" r="53.99"/><circle class="cls-1" cx="250" cy="249.93" r="54.53"/><circle class="cls-1" cx="250" cy="249.93" r="55.08"/><circle class="cls-1" cx="250" cy="249.93" r="55.63"/><circle class="cls-1" cx="250" cy="249.93" r="56.18"/><circle class="cls-1" cx="250" cy="249.93" r="56.74"/><circle class="cls-1" cx="250" cy="249.93" r="57.31"/><circle class="cls-1" cx="250" cy="249.93" r="57.89"/><circle class="cls-1" cx="250" cy="249.93" r="58.46"/><circle class="cls-1" cx="250" cy="249.93" r="59.05"/><circle class="cls-1" cx="250" cy="249.93" r="59.64"/><circle class="cls-1" cx="250" cy="249.93" r="60.24"/><circle class="cls-1" cx="250" cy="249.93" r="60.84"/><circle class="cls-1" cx="250" cy="249.93" r="61.45"/><circle class="cls-1" cx="250" cy="249.93" r="62.06"/><circle class="cls-1" cx="250" cy="249.93" r="62.68"/><circle class="cls-1" cx="250" cy="249.93" r="63.31"/><circle class="cls-1" cx="250" cy="249.93" r="63.94"/><circle class="cls-1" cx="250" cy="249.93" r="64.58"/><circle class="cls-1" cx="250" cy="249.93" r="65.23"/><circle class="cls-1" cx="250" cy="249.93" r="65.88"/><circle class="cls-1" cx="250" cy="249.93" r="66.54"/><circle class="cls-1" cx="250" cy="249.93" r="67.2"/><circle class="cls-1" cx="250" cy="249.93" r="67.87"/><circle class="cls-1" cx="250" cy="249.93" r="68.55"/><circle class="cls-1" cx="250" cy="249.93" r="69.24"/><circle class="cls-1" cx="250" cy="249.93" r="69.93"/><circle class="cls-1" cx="250" cy="249.93" r="70.63"/><circle class="cls-1" cx="250" cy="249.93" r="71.34"/><circle class="cls-1" cx="250" cy="249.93" r="72.05"/><circle class="cls-1" cx="250" cy="249.93" r="72.77"/><circle class="cls-1" cx="250" cy="249.93" r="73.5"/><circle class="cls-1" cx="250" cy="249.93" r="74.23"/><circle class="cls-1" cx="250" cy="249.93" r="74.98"/><circle class="cls-1" cx="250" cy="249.93" r="75.73"/><circle class="cls-1" cx="250" cy="249.93" r="76.48"/><circle class="cls-1" cx="250" cy="249.93" r="77.25"/><circle class="cls-1" cx="250" cy="249.93" r="78.02"/><circle class="cls-1" cx="250" cy="249.93" r="78.8"/><circle class="cls-1" cx="250" cy="249.93" r="79.59"/><circle class="cls-1" cx="250" cy="249.93" r="80.38"/><circle class="cls-1" cx="250" cy="249.93" r="81.19"/><circle class="cls-1" cx="250" cy="249.93" r="82"/><circle class="cls-1" cx="250" cy="249.93" r="82.82"/><circle class="cls-1" cx="250" cy="249.93" r="83.65"/><circle class="cls-1" cx="250" cy="249.93" r="84.48"/><circle class="cls-1" cx="250" cy="249.93" r="85.33"/><circle class="cls-1" cx="250" cy="249.93" r="86.18"/><circle class="cls-1" cx="250" cy="249.93" r="87.04"/><circle class="cls-1" cx="250" cy="249.93" r="87.92"/><circle class="cls-1" cx="250" cy="249.93" r="88.79"/><circle class="cls-1" cx="250" cy="249.93" r="89.68"/><circle class="cls-1" cx="250" cy="249.93" r="90.58"/><circle class="cls-1" cx="250" cy="249.93" r="91.49"/><circle class="cls-1" cx="250" cy="249.93" r="92.4"/><circle class="cls-1" cx="250" cy="249.93" r="93.32"/><circle class="cls-1" cx="250" cy="249.93" r="94.26"/><circle class="cls-1" cx="250" cy="249.93" r="95.2"/><circle class="cls-1" cx="250" cy="249.93" r="96.15"/><circle class="cls-1" cx="250" cy="249.93" r="97.11"/><circle class="cls-1" cx="250" cy="249.93" r="98.08"/><circle class="cls-1" cx="250" cy="249.93" r="99.07"/><circle class="cls-1" cx="250" cy="249.93" r="100.06"/><circle class="cls-1" cx="250" cy="249.93" r="101.06"/><circle class="cls-1" cx="250" cy="249.93" r="102.07"/><circle class="cls-1" cx="250" cy="249.93" r="103.09"/><circle class="cls-1" cx="250" cy="249.93" r="104.12"/><circle class="cls-1" cx="250" cy="249.93" r="105.16"/><circle class="cls-1" cx="250" cy="249.93" r="106.21"/><circle class="cls-1" cx="250" cy="249.93" r="107.27"/><circle class="cls-1" cx="250" cy="249.93" r="108.35"/><circle class="cls-1" cx="250" cy="249.93" r="109.43"/><circle class="cls-1" cx="250" cy="249.93" r="110.52"/><circle class="cls-1" cx="250" cy="249.93" r="111.63"/><circle class="cls-1" cx="250" cy="249.93" r="112.75"/><circle class="cls-1" cx="250" cy="249.93" r="113.87"/><circle class="cls-1" cx="250" cy="249.93" r="115.01"/><circle class="cls-1" cx="250" cy="249.93" r="116.16"/><circle class="cls-1" cx="250" cy="249.93" r="117.32"/><circle class="cls-1" cx="250" cy="249.93" r="118.5"/><circle class="cls-1" cx="250" cy="249.93" r="119.68"/><circle class="cls-1" cx="250" cy="249.93" r="120.88"/><circle class="cls-1" cx="250" cy="249.93" r="122.09"/><circle class="cls-1" cx="250" cy="249.93" r="123.31"/><circle class="cls-1" cx="250" cy="249.93" r="124.54"/><circle class="cls-1" cx="250" cy="249.93" r="125.79"/><circle class="cls-1" cx="250" cy="249.93" r="127.04"/><circle class="cls-1" cx="250" cy="249.93" r="128.31"/><circle class="cls-1" cx="250" cy="249.93" r="129.6"/><circle class="cls-1" cx="250" cy="249.93" r="130.89"/><circle class="cls-1" cx="250" cy="249.93" r="132.2"/><circle class="cls-1" cx="250" cy="249.93" r="133.52"/><circle class="cls-1" cx="250" cy="249.93" r="134.86"/><circle class="cls-1" cx="250" cy="249.93" r="136.21"/><circle class="cls-1" cx="250" cy="249.93" r="137.57"/><circle class="cls-1" cx="250" cy="249.93" r="138.95"/><circle class="cls-1" cx="250" cy="249.93" r="140.34"/><circle class="cls-1" cx="250" cy="249.93" r="141.74"/><circle class="cls-1" cx="250" cy="249.93" r="143.16"/><circle class="cls-1" cx="250" cy="249.93" r="144.59"/><circle class="cls-1" cx="250" cy="249.93" r="146.03"/><circle class="cls-1" cx="250" cy="249.93" r="147.49"/><circle class="cls-1" cx="250" cy="249.93" r="148.97"/><circle class="cls-1" cx="250" cy="249.93" r="150.46"/><circle class="cls-1" cx="250" cy="249.93" r="151.96"/><circle class="cls-1" cx="250" cy="249.93" r="153.48"/><circle class="cls-1" cx="250" cy="249.93" r="155.02"/><circle class="cls-1" cx="250" cy="249.93" r="156.57"/><circle class="cls-1" cx="250" cy="249.93" r="158.13"/><circle class="cls-1" cx="250" cy="249.93" r="159.72"/><circle class="cls-1" cx="250" cy="249.93" r="161.31"/><circle class="cls-1" cx="250" cy="249.93" r="162.93"/><circle class="cls-1" cx="250" cy="249.93" r="164.56"/><circle class="cls-1" cx="250" cy="249.93" r="166.2"/><circle class="cls-1" cx="250" cy="249.93" r="167.86"/><circle class="cls-1" cx="250" cy="249.93" r="169.54"/><circle class="cls-1" cx="250" cy="249.93" r="171.24"/><circle class="cls-1" cx="250" cy="249.93" r="172.95"/><circle class="cls-1" cx="250" cy="249.93" r="174.68"/><circle class="cls-1" cx="250" cy="249.93" r="176.43"/><circle class="cls-1" cx="250" cy="249.93" r="178.19"/><circle class="cls-1" cx="250" cy="249.93" r="179.97"/><circle class="cls-1" cx="250" cy="249.93" r="181.77"/><circle class="cls-1" cx="250" cy="249.93" r="183.59"/><circle class="cls-1" cx="250" cy="249.93" r="185.42"/><circle class="cls-1" cx="250" cy="249.93" r="187.28"/><circle class="cls-1" cx="250" cy="249.93" r="189.15"/><circle class="cls-1" cx="250" cy="249.93" r="191.04"/><circle class="cls-1" cx="250" cy="249.93" r="192.95"/><circle class="cls-1" cx="250" cy="249.93" r="194.88"/><circle class="cls-1" cx="250" cy="249.93" r="196.83"/><circle class="cls-1" cx="250" cy="249.93" r="198.8"/><circle class="cls-1" cx="250" cy="249.93" r="200.79"/><circle class="cls-1" cx="250" cy="249.93" r="202.8"/><circle class="cls-1" cx="250" cy="249.93" r="204.82"/><circle class="cls-1" cx="250" cy="249.93" r="206.87"/><circle class="cls-1" cx="250" cy="249.93" r="208.94"/><circle class="cls-1" cx="250" cy="249.93" r="211.03"/><circle class="cls-1" cx="250" cy="249.93" r="213.14"/><circle class="cls-1" cx="250" cy="249.93" r="215.27"/><circle class="cls-1" cx="250" cy="249.93" r="217.43"/><circle class="cls-1" cx="250" cy="249.93" r="219.6"/><circle class="cls-1" cx="250" cy="249.93" r="221.8"/><circle class="cls-1" cx="250" cy="249.93" r="224.01"/><circle class="cls-1" cx="250" cy="249.93" r="226.25"/><circle class="cls-1" cx="250" cy="249.93" r="228.52"/><circle class="cls-1" cx="250" cy="249.93" r="230.8"/><circle class="cls-1" cx="250" cy="249.93" r="233.11"/><circle class="cls-1" cx="250" cy="249.93" r="235.44"/><circle class="cls-1" cx="250" cy="249.93" r="237.79"/><circle class="cls-1" cx="250" cy="249.93" r="240.17"/><circle class="cls-1" cx="250" cy="249.93" r="242.57"/><circle class="cls-1" cx="250" cy="249.93" r="245"/></g></svg>