<svg id="Layer_5" data-name="Layer 5" xmlns="http://www.w3.org/2000/svg" viewBox="0 0 621.06 649.47"><defs><style>.cls-1,.cls-2{fill:none;stroke:aqua;stroke-miterlimit:10;}.cls-1{stroke-width:0.5px;}</style></defs><line class="cls-1" y1="649.22" x2="621.06" y2="649.22"/><line class="cls-1" y1="646.77" x2="621.06" y2="646.77"/><line class="cls-1" y1="644.31" x2="621.06" y2="644.31"/><line class="cls-1" y1="641.85" x2="621.06" y2="641.85"/><line class="cls-1" y1="639.39" x2="621.06" y2="639.39"/><line class="cls-1" y1="636.94" x2="621.06" y2="636.94"/><line class="cls-1" y1="634.48" x2="621.06" y2="634.48"/><line class="cls-1" y1="632.02" x2="621.06" y2="632.02"/><line class="cls-1" y1="629.57" x2="621.06" y2="629.57"/><line class="cls-1" y1="627.11" x2="621.06" y2="627.11"/><line class="cls-1" y1="624.65" x2="621.06" y2="624.65"/><line class="cls-1" y1="622.19" x2="621.06" y2="622.19"/><line class="cls-1" y1="619.74" x2="621.06" y2="619.74"/><line class="cls-1" y1="617.28" x2="621.06" y2="617.28"/><line class="cls-1" y1="614.82" x2="621.06" y2="614.82"/><line class="cls-1" y1="612.36" x2="621.06" y2="612.36"/><line class="cls-1" y1="609.91" x2="621.06" y2="609.91"/><line class="cls-1" y1="607.45" x2="621.06" y2="607.45"/><line class="cls-1" y1="604.99" x2="621.06" y2="604.99"/><line class="cls-1" y1="602.54" x2="621.06" y2="602.54"/><line class="cls-1" y1="600.08" x2="621.06" y2="600.08"/><line class="cls-1" y1="597.62" x2="621.06" y2="597.62"/><line class="cls-1" y1="595.16" x2="621.06" y2="595.16"/><line class="cls-1" y1="592.71" x2="621.06" y2="592.71"/><line class="cls-1" y1="590.25" x2="621.06" y2="590.25"/><line class="cls-1" y1="587.79" x2="621.06" y2="587.79"/><line class="cls-1" y1="585.33" x2="621.06" y2="585.33"/><line class="cls-1" y1="582.88" x2="621.06" y2="582.88"/><line class="cls-1" y1="580.42" x2="621.06" y2="580.42"/><line class="cls-1" y1="577.96" x2="621.06" y2="577.96"/><line class="cls-1" y1="575.51" x2="621.06" y2="575.51"/><line class="cls-1" y1="573.05" x2="621.06" y2="573.05"/><line class="cls-1" y1="570.59" x2="621.06" y2="570.59"/><line class="cls-1" y1="568.13" x2="621.06" y2="568.13"/><line class="cls-1" y1="565.68" x2="621.06" y2="565.68"/><line class="cls-1" y1="563.22" x2="621.06" y2="563.22"/><line class="cls-1" y1="560.76" x2="621.06" y2="560.76"/><line class="cls-1" y1="558.3" x2="621.06" y2="558.3"/><line class="cls-1" y1="555.85" x2="621.06" y2="555.85"/><line class="cls-1" y1="553.39" x2="621.06" y2="553.39"/><line class="cls-1" y1="550.93" x2="621.06" y2="550.93"/><line class="cls-1" y1="548.48" x2="621.06" y2="548.48"/><line class="cls-1" y1="546.02" x2="621.06" y2="546.02"/><line class="cls-1" y1="543.56" x2="621.06" y2="543.56"/><line class="cls-1" y1="541.1" x2="621.06" y2="541.1"/><line class="cls-1" y1="538.65" x2="621.06" y2="538.65"/><line class="cls-1" y1="536.19" x2="621.06" y2="536.19"/><line class="cls-1" y1="533.73" x2="621.06" y2="533.73"/><line class="cls-1" y1="531.27" x2="621.06" y2="531.27"/><line class="cls-1" y1="528.82" x2="621.06" y2="528.82"/><line class="cls-1" y1="526.36" x2="621.06" y2="526.36"/><line class="cls-1" y1="523.9" x2="621.06" y2="523.9"/><line class="cls-1" y1="521.45" x2="621.06" y2="521.45"/><line class="cls-1" y1="518.99" x2="621.06" y2="518.99"/><line class="cls-1" y1="516.53" x2="621.06" y2="516.53"/><line class="cls-1" y1="514.07" x2="621.06" y2="514.07"/><line class="cls-1" y1="511.62" x2="621.06" y2="511.62"/><line class="cls-1" y1="509.16" x2="621.06" y2="509.16"/><line class="cls-1" y1="506.7" x2="621.06" y2="506.7"/><line class="cls-1" y1="504.24" x2="621.06" y2="504.24"/><line class="cls-1" y1="501.79" x2="621.06" y2="501.79"/><line class="cls-1" y1="499.33" x2="621.06" y2="499.33"/><line class="cls-1" y1="496.87" x2="621.06" y2="496.87"/><line class="cls-1" y1="494.41" x2="621.06" y2="494.41"/><line class="cls-1" y1="491.96" x2="621.06" y2="491.96"/><line class="cls-1" y1="489.5" x2="621.06" y2="489.5"/><line class="cls-1" y1="487.04" x2="621.06" y2="487.04"/><line class="cls-1" y1="484.59" x2="621.06" y2="484.59"/><line class="cls-1" y1="482.13" x2="621.06" y2="482.13"/><line class="cls-1" y1="477.21" x2="621.06" y2="477.21"/><line class="cls-1" y1="472.3" x2="621.06" y2="472.3"/><line class="cls-1" y1="467.38" x2="621.06" y2="467.38"/><line class="cls-1" y1="462.47" x2="621.06" y2="462.47"/><line class="cls-1" y1="457.56" x2="621.06" y2="457.56"/><line class="cls-1" y1="452.64" x2="621.06" y2="452.64"/><line class="cls-1" y1="447.73" x2="621.06" y2="447.73"/><line class="cls-1" y1="442.81" x2="621.06" y2="442.81"/><line class="cls-1" y1="437.9" x2="621.06" y2="437.9"/><line class="cls-1" y1="432.98" x2="621.06" y2="432.98"/><line class="cls-1" y1="428.07" x2="621.06" y2="428.07"/><line class="cls-1" y1="423.15" x2="621.06" y2="423.15"/><line class="cls-1" y1="418.24" x2="621.06" y2="418.24"/><line class="cls-1" y1="413.32" x2="621.06" y2="413.32"/><line class="cls-1" y1="408.41" x2="621.06" y2="408.41"/><line class="cls-1" y1="403.5" x2="621.06" y2="403.5"/><line class="cls-1" y1="398.58" x2="621.06" y2="398.58"/><line class="cls-1" y1="393.67" x2="621.06" y2="393.67"/><line class="cls-1" y1="388.75" x2="621.06" y2="388.75"/><line class="cls-1" y1="383.84" x2="621.06" y2="383.84"/><line class="cls-1" y1="378.92" x2="621.06" y2="378.92"/><line class="cls-1" y1="374.01" x2="621.06" y2="374.01"/><line class="cls-1" y1="369.09" x2="621.06" y2="369.09"/><line class="cls-1" y1="364.18" x2="621.06" y2="364.18"/><line class="cls-1" y1="359.26" x2="621.06" y2="359.26"/><line class="cls-1" y1="354.35" x2="621.06" y2="354.35"/><line class="cls-1" y1="349.43" x2="621.06" y2="349.43"/><line class="cls-1" y1="344.52" x2="621.06" y2="344.52"/><line class="cls-1" y1="339.61" x2="621.06" y2="339.61"/><line class="cls-1" y1="334.69" x2="621.06" y2="334.69"/><line class="cls-1" y1="329.78" x2="621.06" y2="329.78"/><line class="cls-1" y1="324.86" x2="621.06" y2="324.86"/><line class="cls-1" y1="319.95" x2="621.06" y2="319.95"/><line class="cls-2" y1="315.03" x2="621.06" y2="315.03"/><line class="cls-2" y1="312.58" x2="621.06" y2="312.58"/><line class="cls-2" y1="310.12" x2="621.06" y2="310.12"/><line class="cls-2" y1="307.66" x2="621.06" y2="307.66"/><line class="cls-2" y1="305.2" x2="621.06" y2="305.2"/><line class="cls-2" y1="302.75" x2="621.06" y2="302.75"/><line class="cls-2" y1="300.29" x2="621.06" y2="300.29"/><line class="cls-2" y1="297.83" x2="621.06" y2="297.83"/><line class="cls-2" y1="295.37" x2="621.06" y2="295.37"/><line class="cls-2" y1="292.92" x2="621.06" y2="292.92"/><line class="cls-2" y1="290.46" x2="621.06" y2="290.46"/><line class="cls-2" y1="288" x2="621.06" y2="288"/><line class="cls-2" y1="285.55" x2="621.06" y2="285.55"/><line class="cls-2" y1="283.09" x2="621.06" y2="283.09"/><line class="cls-2" y1="280.63" x2="621.06" y2="280.63"/><line class="cls-2" y1="278.17" x2="621.06" y2="278.17"/><line class="cls-2" y1="275.72" x2="621.06" y2="275.72"/><line class="cls-2" y1="273.26" x2="621.06" y2="273.26"/><line class="cls-2" y1="270.8" x2="621.06" y2="270.8"/><line class="cls-2" y1="268.34" x2="621.06" y2="268.34"/><line class="cls-2" y1="265.89" x2="621.06" y2="265.89"/><line class="cls-2" y1="263.43" x2="621.06" y2="263.43"/><line class="cls-2" y1="260.97" x2="621.06" y2="260.97"/><line class="cls-2" y1="258.52" x2="621.06" y2="258.52"/><line class="cls-2" y1="256.06" x2="621.06" y2="256.06"/><line class="cls-2" y1="253.6" x2="621.06" y2="253.6"/><line class="cls-2" y1="251.14" x2="621.06" y2="251.14"/><line class="cls-2" y1="248.69" x2="621.06" y2="248.69"/><line class="cls-2" y1="246.23" x2="621.06" y2="246.23"/><line class="cls-2" y1="243.77" x2="621.06" y2="243.77"/><line class="cls-2" y1="241.31" x2="621.06" y2="241.31"/><line class="cls-2" y1="238.86" x2="621.06" y2="238.86"/><line class="cls-2" y1="236.4" x2="621.06" y2="236.4"/><line class="cls-2" y1="233.94" x2="621.06" y2="233.94"/><line class="cls-2" y1="231.49" x2="621.06" y2="231.49"/><line class="cls-2" y1="229.03" x2="621.06" y2="229.03"/><line class="cls-2" y1="226.57" x2="621.06" y2="226.57"/><line class="cls-2" y1="224.11" x2="621.06" y2="224.11"/><line class="cls-2" y1="221.66" x2="621.06" y2="221.66"/><line class="cls-2" y1="219.2" x2="621.06" y2="219.2"/><line class="cls-2" y1="216.74" x2="621.06" y2="216.74"/><line class="cls-2" y1="214.28" x2="621.06" y2="214.28"/><line class="cls-2" y1="211.83" x2="621.06" y2="211.83"/><line class="cls-2" y1="209.37" x2="621.06" y2="209.37"/><line class="cls-2" y1="206.91" x2="621.06" y2="206.91"/><line class="cls-2" y1="204.45" x2="621.06" y2="204.45"/><line class="cls-2" y1="202" x2="621.06" y2="202"/><line class="cls-2" y1="199.54" x2="621.06" y2="199.54"/><line class="cls-2" y1="197.08" x2="621.06" y2="197.08"/><line class="cls-2" y1="194.63" x2="621.06" y2="194.63"/><line class="cls-2" y1="192.17" x2="621.06" y2="192.17"/><line class="cls-2" y1="189.71" x2="621.06" y2="189.71"/><line class="cls-2" y1="187.25" x2="621.06" y2="187.25"/><line class="cls-2" y1="184.8" x2="621.06" y2="184.8"/><line class="cls-2" y1="182.34" x2="621.06" y2="182.34"/><line class="cls-2" y1="179.88" x2="621.06" y2="179.88"/><line class="cls-2" y1="177.42" x2="621.06" y2="177.42"/><line class="cls-2" y1="174.97" x2="621.06" y2="174.97"/><line class="cls-2" y1="172.51" x2="621.06" y2="172.51"/><line class="cls-2" y1="170.05" x2="621.06" y2="170.05"/><line class="cls-2" y1="167.6" x2="621.06" y2="167.6"/><line class="cls-2" y1="165.14" x2="621.06" y2="165.14"/><line class="cls-2" y1="162.68" x2="621.06" y2="162.68"/><line class="cls-2" y1="160.22" x2="621.06" y2="160.22"/><line class="cls-2" y1="157.77" x2="621.06" y2="157.77"/><line class="cls-2" y1="152.85" x2="621.06" y2="152.85"/><line class="cls-2" y1="147.94" x2="621.06" y2="147.94"/><line class="cls-2" y1="143.02" x2="621.06" y2="143.02"/><line class="cls-2" y1="138.11" x2="621.06" y2="138.11"/><line class="cls-2" y1="133.19" x2="621.06" y2="133.19"/><line class="cls-2" y1="128.28" x2="621.06" y2="128.28"/><line class="cls-2" y1="123.36" x2="621.06" y2="123.36"/><line class="cls-2" y1="118.45" x2="621.06" y2="118.45"/><line class="cls-2" y1="113.54" x2="621.06" y2="113.54"/><line class="cls-2" y1="108.62" x2="621.06" y2="108.62"/><line class="cls-2" y1="103.71" x2="621.06" y2="103.71"/><line class="cls-2" y1="98.79" x2="621.06" y2="98.79"/><line class="cls-2" y1="93.88" x2="621.06" y2="93.88"/><line class="cls-2" y1="88.96" x2="621.06" y2="88.96"/><line class="cls-2" y1="84.05" x2="621.06" y2="84.05"/><line class="cls-2" y1="79.13" x2="621.06" y2="79.13"/><line class="cls-2" y1="74.22" x2="621.06" y2="74.22"/><line class="cls-2" y1="69.3" x2="621.06" y2="69.3"/><line class="cls-2" y1="64.39" x2="621.06" y2="64.39"/><line class="cls-2" y1="59.47" x2="621.06" y2="59.47"/><line class="cls-2" y1="54.56" x2="621.06" y2="54.56"/><line class="cls-2" y1="49.65" x2="621.06" y2="49.65"/><line class="cls-2" y1="44.73" x2="621.06" y2="44.73"/><line class="cls-2" y1="39.82" x2="621.06" y2="39.82"/><line class="cls-2" y1="34.9" x2="621.06" y2="34.9"/><line class="cls-2" y1="29.99" x2="621.06" y2="29.99"/><line class="cls-2" y1="25.07" x2="621.06" y2="25.07"/><line class="cls-2" y1="20.16" x2="621.06" y2="20.16"/><line class="cls-2" y1="15.24" x2="621.06" y2="15.24"/><line class="cls-2" y1="10.33" x2="621.06" y2="10.33"/><line class="cls-2" y1="5.41" x2="621.06" y2="5.41"/><line class="cls-2" y1="0.5" x2="621.06" y2="0.5"/></svg>