<svg id="lines" xmlns="http://www.w3.org/2000/svg" viewBox="0 0 1518.11 833"><defs><style>.cls-1,.cls-2,.cls-3,.cls-4,.cls-5{fill:none;stroke-miterlimit:10;}.cls-1,.cls-2,.cls-3{stroke:aqua;}.cls-1{stroke-width:0.75px;}.cls-2,.cls-5{stroke-width:0.5px;}.cls-4,.cls-5{stroke:#fff;}</style></defs><line class="cls-1" x1="1151.67" y1="241.25" x2="1378.29" y2="241.25"/><line class="cls-1" x1="1151.74" y1="245.2" x2="1378.22" y2="237.3"/><line class="cls-1" x1="1151.95" y1="249.15" x2="1378.01" y2="233.35"/><line class="cls-1" x1="1152.3" y1="253.09" x2="1377.67" y2="229.41"/><line class="cls-1" x1="1152.78" y1="257.02" x2="1377.18" y2="225.48"/><line class="cls-1" x1="1153.4" y1="260.93" x2="1376.57" y2="221.57"/><line class="cls-1" x1="1154.15" y1="264.81" x2="1375.81" y2="217.69"/><line class="cls-1" x1="1155.04" y1="268.66" x2="1374.92" y2="213.84"/><line class="cls-1" x1="1156.06" y1="272.48" x2="1373.9" y2="210.02"/><line class="cls-1" x1="1157.22" y1="276.26" x2="1372.74" y2="206.24"/><line class="cls-1" x1="1158.51" y1="280" x2="1371.45" y2="202.5"/><line class="cls-1" x1="1159.93" y1="283.7" x2="1370.04" y2="198.8"/><line class="cls-1" x1="1161.47" y1="287.34" x2="1368.49" y2="195.16"/><line class="cls-1" x1="1163.14" y1="290.92" x2="1366.82" y2="191.58"/><line class="cls-1" x1="1164.94" y1="294.44" x2="1365.02" y2="188.06"/><line class="cls-1" x1="1166.85" y1="297.9" x2="1363.11" y2="184.6"/><line class="cls-1" x1="1168.89" y1="301.29" x2="1361.07" y2="181.21"/><line class="cls-1" x1="1171.05" y1="304.61" x2="1358.92" y2="177.89"/><line class="cls-1" x1="1173.31" y1="307.85" x2="1356.65" y2="174.65"/><line class="cls-1" x1="1175.69" y1="311.01" x2="1354.27" y2="171.49"/><line class="cls-1" x1="1178.18" y1="314.08" x2="1351.78" y2="168.42"/><line class="cls-1" x1="1180.78" y1="317.07" x2="1349.18" y2="165.43"/><line class="cls-1" x1="1183.48" y1="319.96" x2="1346.49" y2="162.54"/><line class="cls-1" x1="1186.27" y1="322.76" x2="1343.69" y2="159.74"/><line class="cls-1" x1="1189.16" y1="325.45" x2="1340.8" y2="157.05"/><line class="cls-1" x1="1192.15" y1="328.05" x2="1337.81" y2="154.45"/><line class="cls-1" x1="1195.22" y1="330.54" x2="1334.74" y2="151.96"/><line class="cls-1" x1="1198.38" y1="332.92" x2="1331.58" y2="149.58"/><line class="cls-1" x1="1201.62" y1="335.19" x2="1328.34" y2="147.31"/><line class="cls-1" x1="1204.94" y1="337.34" x2="1325.02" y2="145.16"/><line class="cls-1" x1="1208.33" y1="339.38" x2="1321.63" y2="143.12"/><line class="cls-1" x1="1211.79" y1="341.29" x2="1318.18" y2="141.21"/><line class="cls-1" x1="1215.31" y1="343.09" x2="1314.65" y2="139.41"/><line class="cls-1" x1="1218.9" y1="344.76" x2="1311.07" y2="137.74"/><line class="cls-1" x1="1222.54" y1="346.31" x2="1307.43" y2="136.19"/><line class="cls-1" x1="1226.23" y1="347.72" x2="1303.73" y2="134.78"/><line class="cls-1" x1="1229.97" y1="349.01" x2="1299.99" y2="133.49"/><line class="cls-1" x1="1233.75" y1="350.17" x2="1296.21" y2="132.33"/><line class="cls-1" x1="1237.57" y1="351.19" x2="1292.39" y2="131.31"/><line class="cls-1" x1="1241.42" y1="352.08" x2="1288.54" y2="130.42"/><line class="cls-1" x1="1245.31" y1="352.84" x2="1284.66" y2="129.67"/><line class="cls-1" x1="1249.21" y1="353.45" x2="1280.75" y2="129.05"/><line class="cls-1" x1="1253.14" y1="353.94" x2="1276.82" y2="128.56"/><line class="cls-1" x1="1257.08" y1="354.28" x2="1272.88" y2="128.22"/><line class="cls-1" x1="1261.03" y1="354.49" x2="1268.94" y2="128.01"/><line class="cls-1" x1="1264.98" y1="354.56" x2="1264.98" y2="127.94"/><line class="cls-1" x1="1268.94" y1="354.49" x2="1261.03" y2="128.01"/><line class="cls-1" x1="1272.88" y1="354.28" x2="1257.08" y2="128.22"/><line class="cls-1" x1="1276.82" y1="353.94" x2="1253.14" y2="128.56"/><line class="cls-1" x1="1280.75" y1="353.45" x2="1249.21" y2="129.05"/><line class="cls-1" x1="1284.66" y1="352.84" x2="1245.31" y2="129.67"/><line class="cls-1" x1="1288.54" y1="352.08" x2="1241.42" y2="130.42"/><line class="cls-1" x1="1292.39" y1="351.19" x2="1237.57" y2="131.31"/><line class="cls-1" x1="1296.21" y1="350.17" x2="1233.75" y2="132.33"/><line class="cls-1" x1="1299.99" y1="349.01" x2="1229.97" y2="133.49"/><line class="cls-1" x1="1303.73" y1="347.72" x2="1226.23" y2="134.78"/><line class="cls-1" x1="1307.43" y1="346.31" x2="1222.54" y2="136.19"/><line class="cls-1" x1="1311.07" y1="344.76" x2="1218.9" y2="137.74"/><line class="cls-1" x1="1314.65" y1="343.09" x2="1215.31" y2="139.41"/><line class="cls-1" x1="1318.18" y1="341.29" x2="1211.79" y2="141.21"/><line class="cls-1" x1="1321.63" y1="339.38" x2="1208.33" y2="143.12"/><line class="cls-1" x1="1325.02" y1="337.34" x2="1204.94" y2="145.16"/><line class="cls-1" x1="1328.34" y1="335.19" x2="1201.62" y2="147.31"/><line class="cls-1" x1="1331.58" y1="332.92" x2="1198.38" y2="149.58"/><line class="cls-1" x1="1334.74" y1="330.54" x2="1195.22" y2="151.96"/><line class="cls-1" x1="1337.81" y1="328.05" x2="1192.15" y2="154.45"/><line class="cls-1" x1="1340.8" y1="325.45" x2="1189.16" y2="157.05"/><line class="cls-1" x1="1343.69" y1="322.76" x2="1186.27" y2="159.74"/><line class="cls-1" x1="1346.49" y1="319.96" x2="1183.48" y2="162.54"/><line class="cls-1" x1="1349.18" y1="317.07" x2="1180.78" y2="165.43"/><line class="cls-1" x1="1351.78" y1="314.08" x2="1178.18" y2="168.42"/><line class="cls-1" x1="1354.27" y1="311.01" x2="1175.69" y2="171.49"/><line class="cls-1" x1="1356.65" y1="307.85" x2="1173.31" y2="174.65"/><line class="cls-1" x1="1358.92" y1="304.61" x2="1171.05" y2="177.89"/><line class="cls-1" x1="1361.07" y1="301.29" x2="1168.89" y2="181.21"/><line class="cls-1" x1="1363.11" y1="297.9" x2="1166.85" y2="184.6"/><line class="cls-1" x1="1365.02" y1="294.44" x2="1164.94" y2="188.06"/><line class="cls-1" x1="1366.82" y1="290.92" x2="1163.14" y2="191.58"/><line class="cls-1" x1="1368.49" y1="287.34" x2="1161.47" y2="195.16"/><line class="cls-1" x1="1370.04" y1="283.7" x2="1159.93" y2="198.8"/><line class="cls-1" x1="1371.45" y1="280" x2="1158.51" y2="202.5"/><line class="cls-1" x1="1372.74" y1="276.26" x2="1157.22" y2="206.24"/><line class="cls-1" x1="1373.9" y1="272.48" x2="1156.06" y2="210.02"/><line class="cls-1" x1="1374.92" y1="268.66" x2="1155.04" y2="213.84"/><line class="cls-1" x1="1375.81" y1="264.81" x2="1154.15" y2="217.69"/><line class="cls-1" x1="1376.57" y1="260.93" x2="1153.4" y2="221.57"/><line class="cls-1" x1="1377.18" y1="257.02" x2="1152.78" y2="225.48"/><line class="cls-1" x1="1377.67" y1="253.09" x2="1152.3" y2="229.41"/><line class="cls-1" x1="1378.01" y1="249.15" x2="1151.95" y2="233.35"/><line class="cls-1" x1="1378.22" y1="245.2" x2="1151.74" y2="237.3"/><line class="cls-1" x1="1068.99" y1="108.34" x2="1476.22" y2="382.66"/><line class="cls-1" x1="1064.33" y1="115.53" x2="1480.88" y2="375.47"/><line class="cls-1" x1="1059.92" y1="122.88" x2="1485.29" y2="368.12"/><line class="cls-1" x1="1055.77" y1="130.38" x2="1489.44" y2="360.62"/><line class="cls-1" x1="1051.89" y1="138.01" x2="1493.32" y2="352.99"/><line class="cls-1" x1="1048.27" y1="145.78" x2="1496.94" y2="345.22"/><line class="cls-1" x1="1044.93" y1="153.67" x2="1500.29" y2="337.33"/><line class="cls-1" x1="1041.86" y1="161.67" x2="1503.35" y2="329.33"/><line class="cls-1" x1="1039.07" y1="169.78" x2="1506.14" y2="321.22"/><line class="cls-1" x1="1036.57" y1="177.97" x2="1508.64" y2="313.03"/><line class="cls-1" x1="1034.36" y1="186.25" x2="1510.85" y2="304.75"/><line class="cls-1" x1="1032.44" y1="194.6" x2="1512.77" y2="296.4"/><line class="cls-1" x1="1030.81" y1="203.02" x2="1514.4" y2="287.98"/><line class="cls-1" x1="1029.47" y1="211.48" x2="1515.74" y2="279.52"/><line class="cls-1" x1="1028.43" y1="219.99" x2="1516.78" y2="271.01"/><line class="cls-1" x1="1027.69" y1="228.52" x2="1517.52" y2="262.48"/><line class="cls-1" x1="1027.25" y1="237.08" x2="1517.96" y2="253.92"/><line class="cls-1" x1="1027.11" y1="245.65" x2="1518.11" y2="245.35"/><line class="cls-1" x1="1027.26" y1="254.22" x2="1517.95" y2="236.78"/><line class="cls-1" x1="1027.71" y1="262.77" x2="1517.5" y2="228.23"/><line class="cls-1" x1="1028.47" y1="271.31" x2="1516.74" y2="219.69"/><line class="cls-1" x1="1029.52" y1="279.82" x2="1515.7" y2="211.19"/><line class="cls-1" x1="1030.86" y1="288.28" x2="1514.35" y2="202.72"/><line class="cls-1" x1="1032.5" y1="296.69" x2="1512.71" y2="194.31"/><line class="cls-1" x1="1034.43" y1="305.04" x2="1510.78" y2="185.96"/><line class="cls-1" x1="1036.66" y1="313.31" x2="1508.55" y2="177.69"/><line class="cls-1" x1="1039.17" y1="321.51" x2="1506.04" y2="169.49"/><line class="cls-1" x1="1041.96" y1="329.61" x2="1503.25" y2="161.39"/><line class="cls-1" x1="1045.04" y1="337.6" x2="1500.17" y2="153.4"/><line class="cls-1" x1="1048.39" y1="345.49" x2="1496.82" y2="145.51"/><line class="cls-1" x1="1052.02" y1="353.25" x2="1493.19" y2="137.75"/><line class="cls-1" x1="1055.91" y1="360.89" x2="1489.3" y2="130.11"/><line class="cls-1" x1="1060.07" y1="368.38" x2="1485.14" y2="122.62"/><line class="cls-1" x1="1064.49" y1="375.72" x2="1480.72" y2="115.28"/><line class="cls-1" x1="1069.16" y1="382.91" x2="1476.05" y2="108.09"/><line class="cls-1" x1="1074.08" y1="389.92" x2="1471.13" y2="101.08"/><line class="cls-1" x1="1079.24" y1="396.76" x2="1465.97" y2="94.24"/><line class="cls-1" x1="1084.64" y1="403.42" x2="1460.57" y2="87.58"/><line class="cls-1" x1="1090.26" y1="409.88" x2="1454.95" y2="81.12"/><line class="cls-1" x1="1096.11" y1="416.15" x2="1449.1" y2="74.85"/><line class="cls-1" x1="1102.17" y1="422.2" x2="1443.04" y2="68.8"/><line class="cls-1" x1="1108.44" y1="428.04" x2="1436.77" y2="62.96"/><line class="cls-1" x1="1114.92" y1="433.66" x2="1430.3" y2="57.34"/><line class="cls-1" x1="1121.58" y1="439.05" x2="1423.63" y2="51.95"/><line class="cls-1" x1="1128.42" y1="444.2" x2="1416.79" y2="46.8"/><line class="cls-1" x1="1135.45" y1="449.11" x2="1409.76" y2="41.89"/><line class="cls-1" x1="1142.64" y1="453.78" x2="1402.57" y2="37.23"/><line class="cls-1" x1="1149.98" y1="458.18" x2="1395.23" y2="32.82"/><line class="cls-1" x1="1157.48" y1="462.33" x2="1387.73" y2="28.67"/><line class="cls-1" x1="1165.12" y1="466.22" x2="1380.09" y2="24.78"/><line class="cls-1" x1="1172.89" y1="469.84" x2="1372.32" y2="21.16"/><line class="cls-1" x1="1180.78" y1="473.18" x2="1364.43" y2="17.82"/><line class="cls-1" x1="1188.78" y1="476.25" x2="1356.43" y2="14.75"/><line class="cls-1" x1="1196.88" y1="479.03" x2="1348.33" y2="11.97"/><line class="cls-1" x1="1205.08" y1="481.53" x2="1340.13" y2="9.47"/><line class="cls-1" x1="1213.36" y1="483.74" x2="1331.85" y2="7.26"/><line class="cls-1" x1="1221.71" y1="485.67" x2="1323.5" y2="5.33"/><line class="cls-1" x1="1230.12" y1="487.3" x2="1315.09" y2="3.7"/><line class="cls-1" x1="1238.59" y1="488.63" x2="1306.62" y2="2.37"/><line class="cls-1" x1="1247.09" y1="489.67" x2="1298.12" y2="1.33"/><line class="cls-1" x1="1255.63" y1="490.41" x2="1289.58" y2="0.59"/><line class="cls-1" x1="1264.19" y1="490.86" x2="1281.02" y2="0.14"/><line class="cls-1" x1="1272.75" y1="491" x2="1272.46"/><line class="cls-1" x1="1281.32" y1="490.85" x2="1263.89" y2="0.15"/><line class="cls-1" x1="1289.88" y1="490.39" x2="1255.33" y2="0.61"/><line class="cls-1" x1="1298.42" y1="489.64" x2="1246.8" y2="1.36"/><line class="cls-1" x1="1306.92" y1="488.59" x2="1238.29" y2="2.41"/><line class="cls-1" x1="1315.38" y1="487.24" x2="1229.83" y2="3.76"/><line class="cls-1" x1="1323.79" y1="485.6" x2="1221.42" y2="5.4"/><line class="cls-1" x1="1332.14" y1="483.67" x2="1213.07" y2="7.33"/><line class="cls-1" x1="1340.42" y1="481.45" x2="1204.79" y2="9.55"/><line class="cls-1" x1="1348.61" y1="478.94" x2="1196.6" y2="12.06"/><line class="cls-1" x1="1356.71" y1="476.14" x2="1188.5" y2="14.86"/><line class="cls-1" x1="1364.71" y1="473.07" x2="1180.5" y2="17.93"/><line class="cls-1" x1="1372.6" y1="469.71" x2="1172.62" y2="21.29"/><line class="cls-1" x1="1380.36" y1="466.09" x2="1164.85" y2="24.91"/><line class="cls-1" x1="1387.99" y1="462.19" x2="1157.22" y2="28.81"/><line class="cls-1" x1="1395.48" y1="458.03" x2="1149.73" y2="32.97"/><line class="cls-1" x1="1402.83" y1="453.62" x2="1142.38" y2="37.38"/><line class="cls-1" x1="1410.01" y1="448.95" x2="1135.2" y2="42.05"/><line class="cls-1" x1="1417.03" y1="444.03" x2="1128.18" y2="46.97"/><line class="cls-1" x1="1423.87" y1="438.86" x2="1121.34" y2="52.14"/><line class="cls-1" x1="1430.52" y1="433.47" x2="1114.69" y2="57.53"/><line class="cls-1" x1="1436.99" y1="427.84" x2="1108.22" y2="63.16"/><line class="cls-1" x1="1443.25" y1="421.99" x2="1101.96" y2="69.01"/><line class="cls-1" x1="1449.31" y1="415.93" x2="1095.9" y2="75.07"/><line class="cls-1" x1="1455.15" y1="409.66" x2="1090.06" y2="81.34"/><line class="cls-1" x1="1460.77" y1="403.19" x2="1084.45" y2="87.81"/><line class="cls-1" x1="1466.15" y1="396.53" x2="1079.06" y2="94.47"/><line class="cls-1" x1="1471.31" y1="389.68" x2="1073.9" y2="101.32"/><line class="cls-2" x1="862.25" y1="826.63" x2="776.4" y2="543.72"/><line class="cls-2" x1="864.71" y1="825.86" x2="773.94" y2="544.49"/><line class="cls-2" x1="867.16" y1="825.05" x2="771.49" y2="545.31"/><line class="cls-2" x1="869.59" y1="824.19" x2="769.06" y2="546.16"/><line class="cls-2" x1="872.01" y1="823.29" x2="766.64" y2="547.06"/><line class="cls-2" x1="874.41" y1="822.35" x2="764.24" y2="548"/><line class="cls-2" x1="876.8" y1="821.37" x2="761.85" y2="548.99"/><line class="cls-2" x1="879.16" y1="820.35" x2="759.48" y2="550.01"/><line class="cls-2" x1="881.51" y1="819.28" x2="757.13" y2="551.07"/><line class="cls-2" x1="883.85" y1="818.18" x2="754.8" y2="552.18"/><line class="cls-2" x1="886.16" y1="817.03" x2="752.49" y2="553.33"/><line class="cls-2" x1="888.45" y1="815.84" x2="750.2" y2="554.51"/><line class="cls-2" x1="890.72" y1="814.62" x2="747.93" y2="555.74"/><line class="cls-2" x1="892.97" y1="813.35" x2="745.68" y2="557"/><line class="cls-2" x1="895.19" y1="812.05" x2="743.45" y2="558.31"/><line class="cls-2" x1="897.39" y1="810.7" x2="741.25" y2="559.65"/><line class="cls-2" x1="899.57" y1="809.32" x2="739.07" y2="561.03"/><line class="cls-2" x1="901.73" y1="807.9" x2="736.92" y2="562.45"/><line class="cls-2" x1="903.86" y1="806.44" x2="734.79" y2="563.91"/><line class="cls-2" x1="905.96" y1="804.95" x2="732.69" y2="565.4"/><line class="cls-2" x1="908.04" y1="803.42" x2="730.61" y2="566.94"/><line class="cls-2" x1="910.09" y1="801.85" x2="728.56" y2="568.5"/><line class="cls-2" x1="912.11" y1="800.25" x2="726.54" y2="570.1"/><line class="cls-2" x1="914.1" y1="798.62" x2="724.54" y2="571.74"/><line class="cls-2" x1="916.07" y1="796.94" x2="722.58" y2="573.41"/><line class="cls-2" x1="918.01" y1="795.24" x2="720.64" y2="575.12"/><line class="cls-2" x1="919.91" y1="793.5" x2="718.74" y2="576.86"/><line class="cls-2" x1="921.79" y1="791.73" x2="716.86" y2="578.63"/><line class="cls-2" x1="923.63" y1="789.92" x2="715.02" y2="580.43"/><line class="cls-2" x1="925.44" y1="788.09" x2="713.2" y2="582.27"/><line class="cls-2" x1="927.22" y1="786.22" x2="711.42" y2="584.14"/><line class="cls-2" x1="928.97" y1="784.32" x2="709.68" y2="586.04"/><line class="cls-2" x1="930.68" y1="782.39" x2="707.96" y2="587.96"/><line class="cls-2" x1="932.36" y1="780.43" x2="706.28" y2="589.92"/><line class="cls-2" x1="934.01" y1="778.45" x2="704.64" y2="591.91"/><line class="cls-2" x1="935.62" y1="776.43" x2="703.03" y2="593.93"/><line class="cls-2" x1="937.19" y1="774.39" x2="701.45" y2="595.97"/><line class="cls-2" x1="938.73" y1="772.32" x2="699.91" y2="598.04"/><line class="cls-2" x1="940.23" y1="770.22" x2="698.41" y2="600.14"/><line class="cls-2" x1="941.7" y1="768.1" x2="696.95" y2="602.26"/><line class="cls-2" x1="943.13" y1="765.95" x2="695.52" y2="604.41"/><line class="cls-2" x1="944.52" y1="763.77" x2="694.13" y2="606.58"/><line class="cls-2" x1="945.87" y1="761.58" x2="692.77" y2="608.78"/><line class="cls-2" x1="947.19" y1="759.36" x2="691.46" y2="611"/><line class="cls-2" x1="948.46" y1="757.11" x2="690.19" y2="613.24"/><line class="cls-2" x1="949.7" y1="754.85" x2="688.95" y2="615.51"/><line class="cls-2" x1="950.89" y1="752.56" x2="687.75" y2="617.79"/><line class="cls-2" x1="952.05" y1="750.26" x2="686.6" y2="620.1"/><line class="cls-2" x1="953.16" y1="747.93" x2="685.48" y2="622.42"/><line class="cls-2" x1="954.24" y1="745.59" x2="684.41" y2="624.77"/><line class="cls-2" x1="955.27" y1="743.22" x2="683.37" y2="627.13"/><line class="cls-2" x1="956.27" y1="740.84" x2="682.38" y2="629.52"/><line class="cls-2" x1="957.22" y1="738.44" x2="681.43" y2="631.91"/><line class="cls-2" x1="958.12" y1="736.03" x2="680.52" y2="634.33"/><line class="cls-2" x1="958.99" y1="733.6" x2="679.66" y2="636.76"/><line class="cls-2" x1="959.82" y1="731.15" x2="678.83" y2="639.2"/><line class="cls-2" x1="960.6" y1="728.69" x2="678.05" y2="641.66"/><line class="cls-2" x1="961.33" y1="726.22" x2="677.31" y2="644.13"/><line class="cls-2" x1="962.03" y1="723.74" x2="676.62" y2="646.62"/><line class="cls-2" x1="962.68" y1="721.24" x2="675.97" y2="649.12"/><line class="cls-2" x1="963.29" y1="718.73" x2="675.36" y2="651.62"/><line class="cls-2" x1="963.85" y1="716.22" x2="674.8" y2="654.14"/><line class="cls-2" x1="964.37" y1="713.69" x2="674.28" y2="656.67"/><line class="cls-2" x1="964.85" y1="711.15" x2="673.8" y2="659.2"/><line class="cls-2" x1="965.28" y1="708.61" x2="673.37" y2="661.75"/><line class="cls-2" x1="965.66" y1="706.06" x2="672.98" y2="664.3"/><line class="cls-2" x1="966.01" y1="703.5" x2="672.64" y2="666.86"/><line class="cls-2" x1="966.3" y1="700.94" x2="672.34" y2="669.42"/><line class="cls-2" x1="966.56" y1="698.37" x2="672.09" y2="671.99"/><line class="cls-2" x1="966.76" y1="695.8" x2="671.88" y2="674.56"/><line class="cls-2" x1="966.93" y1="693.22" x2="671.72" y2="677.13"/><line class="cls-2" x1="967.04" y1="690.65" x2="671.6" y2="679.71"/><line class="cls-2" x1="967.12" y1="688.07" x2="671.53" y2="682.29"/><line class="cls-2" x1="967.15" y1="685.49" x2="671.5" y2="684.87"/><line class="cls-2" x1="967.13" y1="682.91" x2="671.52" y2="687.45"/><line class="cls-2" x1="967.07" y1="680.33" x2="671.58" y2="690.03"/><line class="cls-2" x1="966.96" y1="677.75" x2="671.69" y2="692.6"/><line class="cls-2" x1="966.81" y1="675.18" x2="671.84" y2="695.18"/><line class="cls-2" x1="966.61" y1="672.6" x2="672.04" y2="697.75"/><line class="cls-2" x1="966.37" y1="670.03" x2="672.28" y2="700.32"/><line class="cls-2" x1="966.08" y1="667.47" x2="672.57" y2="702.89"/><line class="cls-2" x1="965.75" y1="664.91" x2="672.9" y2="705.44"/><line class="cls-2" x1="965.37" y1="662.36" x2="673.27" y2="708"/><line class="cls-2" x1="964.95" y1="659.81" x2="673.69" y2="710.54"/><line class="cls-2" x1="964.49" y1="657.28" x2="674.16" y2="713.08"/><line class="cls-2" x1="963.98" y1="654.75" x2="674.67" y2="715.61"/><line class="cls-2" x1="963.43" y1="652.23" x2="675.22" y2="718.13"/><line class="cls-2" x1="962.83" y1="649.72" x2="675.82" y2="720.64"/><line class="cls-2" x1="962.19" y1="647.22" x2="676.46" y2="723.14"/><line class="cls-2" x1="961.5" y1="644.73" x2="677.14" y2="725.63"/><line class="cls-2" x1="960.78" y1="642.26" x2="677.87" y2="728.1"/><line class="cls-2" x1="960.01" y1="639.79" x2="678.64" y2="730.56"/><line class="cls-2" x1="959.19" y1="637.34" x2="679.45" y2="733.01"/><line class="cls-2" x1="958.34" y1="634.91" x2="680.31" y2="735.44"/><line class="cls-2" x1="957.44" y1="632.49" x2="681.21" y2="737.86"/><line class="cls-2" x1="956.5" y1="630.09" x2="682.15" y2="740.27"/><line class="cls-2" x1="955.52" y1="627.7" x2="683.13" y2="742.65"/><line class="cls-2" x1="954.49" y1="625.34" x2="684.15" y2="745.02"/><line class="cls-2" x1="953.43" y1="622.99" x2="685.22" y2="747.37"/><line class="cls-2" x1="952.32" y1="620.66" x2="686.33" y2="749.7"/><line class="cls-2" x1="951.17" y1="618.34" x2="687.47" y2="752.01"/><line class="cls-2" x1="949.99" y1="616.05" x2="688.66" y2="754.3"/><line class="cls-2" x1="948.76" y1="613.78" x2="689.88" y2="756.57"/><line class="cls-2" x1="947.5" y1="611.54" x2="691.15" y2="758.82"/><line class="cls-2" x1="946.19" y1="609.31" x2="692.46" y2="761.05"/><line class="cls-2" x1="944.85" y1="607.11" x2="693.8" y2="763.25"/><line class="cls-2" x1="943.47" y1="604.93" x2="695.18" y2="765.43"/><line class="cls-2" x1="942.05" y1="602.77" x2="696.6" y2="767.58"/><line class="cls-2" x1="940.59" y1="600.64" x2="698.06" y2="769.71"/><line class="cls-2" x1="939.1" y1="598.54" x2="699.55" y2="771.81"/><line class="cls-2" x1="937.57" y1="596.46" x2="701.08" y2="773.89"/><line class="cls-2" x1="936" y1="594.41" x2="702.65" y2="775.94"/><line class="cls-2" x1="934.4" y1="592.39" x2="704.25" y2="777.96"/><line class="cls-2" x1="932.76" y1="590.4" x2="705.89" y2="779.96"/><line class="cls-2" x1="931.09" y1="588.43" x2="707.56" y2="781.92"/><line class="cls-2" x1="929.38" y1="586.5" x2="709.26" y2="783.86"/><line class="cls-2" x1="927.65" y1="584.59" x2="711" y2="785.77"/><line class="cls-2" x1="925.87" y1="582.71" x2="712.77" y2="787.64"/><line class="cls-2" x1="924.07" y1="580.87" x2="714.58" y2="789.48"/><line class="cls-2" x1="922.23" y1="579.06" x2="716.41" y2="791.3"/><line class="cls-2" x1="920.36" y1="577.28" x2="718.28" y2="793.08"/><line class="cls-2" x1="918.47" y1="575.53" x2="720.18" y2="794.82"/><line class="cls-2" x1="916.54" y1="573.82" x2="722.11" y2="796.54"/><line class="cls-2" x1="914.58" y1="572.14" x2="724.07" y2="798.22"/><line class="cls-2" x1="912.59" y1="570.49" x2="726.05" y2="799.86"/><line class="cls-2" x1="910.58" y1="568.88" x2="728.07" y2="801.47"/><line class="cls-2" x1="908.53" y1="567.31" x2="730.11" y2="803.05"/><line class="cls-2" x1="906.46" y1="565.77" x2="732.18" y2="804.59"/><line class="cls-2" x1="904.36" y1="564.27" x2="734.28" y2="806.09"/><line class="cls-2" x1="902.24" y1="562.8" x2="736.41" y2="807.55"/><line class="cls-2" x1="900.09" y1="561.37" x2="738.55" y2="808.98"/><line class="cls-2" x1="897.92" y1="559.98" x2="740.73" y2="810.37"/><line class="cls-2" x1="895.72" y1="558.63" x2="742.92" y2="811.73"/><line class="cls-2" x1="893.5" y1="557.31" x2="745.14" y2="813.04"/><line class="cls-2" x1="891.26" y1="556.04" x2="747.39" y2="814.32"/><line class="cls-2" x1="889" y1="554.8" x2="749.65" y2="815.55"/><line class="cls-2" x1="886.71" y1="553.61" x2="751.94" y2="816.75"/><line class="cls-2" x1="884.4" y1="552.45" x2="754.24" y2="817.9"/><line class="cls-2" x1="882.08" y1="551.34" x2="756.57" y2="819.02"/><line class="cls-2" x1="879.73" y1="550.26" x2="758.92" y2="820.09"/><line class="cls-2" x1="877.37" y1="549.23" x2="761.28" y2="821.13"/><line class="cls-2" x1="874.99" y1="548.24" x2="763.66" y2="822.12"/><line class="cls-2" x1="872.59" y1="547.28" x2="766.06" y2="823.07"/><line class="cls-2" x1="870.17" y1="546.38" x2="768.47" y2="823.98"/><line class="cls-2" x1="867.74" y1="545.51" x2="770.9" y2="824.85"/><line class="cls-2" x1="865.3" y1="544.69" x2="773.35" y2="825.67"/><line class="cls-2" x1="862.84" y1="543.91" x2="775.81" y2="826.45"/><line class="cls-2" x1="860.37" y1="543.17" x2="778.28" y2="827.19"/><line class="cls-2" x1="857.88" y1="542.47" x2="780.76" y2="827.88"/><line class="cls-2" x1="855.39" y1="541.82" x2="783.26" y2="828.53"/><line class="cls-2" x1="852.88" y1="541.21" x2="785.77" y2="829.14"/><line class="cls-2" x1="850.36" y1="540.65" x2="788.29" y2="829.71"/><line class="cls-2" x1="847.83" y1="540.13" x2="790.81" y2="830.23"/><line class="cls-2" x1="845.3" y1="539.66" x2="793.35" y2="830.7"/><line class="cls-2" x1="842.75" y1="539.22" x2="795.89" y2="831.13"/><line class="cls-2" x1="840.2" y1="538.84" x2="798.44" y2="831.52"/><line class="cls-2" x1="837.65" y1="538.5" x2="801" y2="831.86"/><line class="cls-2" x1="835.08" y1="538.2" x2="803.56" y2="832.16"/><line class="cls-2" x1="832.52" y1="537.95" x2="806.13" y2="832.41"/><line class="cls-2" x1="829.94" y1="537.74" x2="808.7" y2="832.62"/><line class="cls-2" x1="827.37" y1="537.57" x2="811.28" y2="832.78"/><line class="cls-2" x1="824.79" y1="537.46" x2="813.85" y2="832.9"/><line class="cls-2" x1="822.21" y1="537.38" x2="816.43" y2="832.97"/><line class="cls-2" x1="819.63" y1="537.36" x2="819.01" y2="833"/><line class="cls-2" x1="817.05" y1="537.37" x2="821.59" y2="832.98"/><line class="cls-2" x1="814.47" y1="537.43" x2="824.17" y2="832.92"/><line class="cls-2" x1="811.9" y1="537.54" x2="826.75" y2="832.81"/><line class="cls-2" x1="809.32" y1="537.69" x2="829.33" y2="832.66"/><line class="cls-2" x1="806.75" y1="537.89" x2="831.9" y2="832.46"/><line class="cls-2" x1="804.18" y1="538.13" x2="834.47" y2="832.22"/><line class="cls-2" x1="801.62" y1="538.42" x2="837.03" y2="831.94"/><line class="cls-2" x1="799.06" y1="538.75" x2="839.59" y2="831.6"/><line class="cls-2" x1="796.51" y1="539.13" x2="842.14" y2="831.23"/><line class="cls-2" x1="793.96" y1="539.55" x2="844.69" y2="830.81"/><line class="cls-2" x1="791.42" y1="540.01" x2="847.22" y2="830.34"/><line class="cls-2" x1="788.89" y1="540.52" x2="849.75" y2="829.83"/><line class="cls-2" x1="786.37" y1="541.07" x2="852.27" y2="829.28"/><line class="cls-2" x1="783.86" y1="541.67" x2="854.78" y2="828.68"/><line class="cls-2" x1="781.36" y1="542.31" x2="857.28" y2="828.04"/><line class="cls-2" x1="778.88" y1="543" x2="859.77" y2="827.36"/><line class="cls-3" x1="1212.94" y1="688.27" x2="1501.87" y2="688.27"/><line class="cls-3" x1="1212.94" y1="688.27" x2="1501.87" y2="688.27"/><line class="cls-3" x1="1213.03" y1="693.31" x2="1501.79" y2="683.23"/><line class="cls-3" x1="1213.29" y1="698.35" x2="1501.52" y2="678.19"/><line class="cls-3" x1="1213.73" y1="703.37" x2="1501.08" y2="673.17"/><line class="cls-3" x1="1214.34" y1="708.37" x2="1500.47" y2="668.16"/><line class="cls-3" x1="1215.13" y1="713.36" x2="1499.68" y2="663.18"/><line class="cls-3" x1="1216.1" y1="718.31" x2="1498.72" y2="658.23"/><line class="cls-3" x1="1217.23" y1="723.22" x2="1497.58" y2="653.32"/><line class="cls-3" x1="1218.53" y1="728.09" x2="1496.28" y2="648.45"/><line class="cls-3" x1="1220.01" y1="732.91" x2="1494.8" y2="643.63"/><line class="cls-3" x1="1221.65" y1="737.68" x2="1493.16" y2="638.86"/><line class="cls-3" x1="1223.46" y1="742.39" x2="1491.35" y2="634.15"/><line class="cls-3" x1="1225.43" y1="747.03" x2="1489.38" y2="629.51"/><line class="cls-3" x1="1227.56" y1="751.6" x2="1487.25" y2="624.94"/><line class="cls-3" x1="1229.85" y1="756.09" x2="1484.96" y2="620.45"/><line class="cls-3" x1="1232.29" y1="760.5" x2="1482.52" y2="616.03"/><line class="cls-3" x1="1234.89" y1="764.83" x2="1479.92" y2="611.71"/><line class="cls-3" x1="1237.64" y1="769.05" x2="1477.18" y2="607.48"/><line class="cls-3" x1="1240.53" y1="773.18" x2="1474.28" y2="603.35"/><line class="cls-3" x1="1243.56" y1="777.21" x2="1471.25" y2="599.33"/><line class="cls-3" x1="1246.74" y1="781.13" x2="1468.07" y2="595.41"/><line class="cls-3" x1="1250.05" y1="784.94" x2="1464.77" y2="591.6"/><line class="cls-3" x1="1253.48" y1="788.62" x2="1461.33" y2="587.91"/><line class="cls-3" x1="1257.05" y1="792.19" x2="1457.76" y2="584.35"/><line class="cls-3" x1="1260.74" y1="795.63" x2="1454.07" y2="580.91"/><line class="cls-3" x1="1264.54" y1="798.94" x2="1450.27" y2="577.6"/><line class="cls-3" x1="1268.46" y1="802.11" x2="1446.35" y2="574.43"/><line class="cls-3" x1="1272.49" y1="805.15" x2="1442.32" y2="571.39"/><line class="cls-3" x1="1276.62" y1="808.04" x2="1438.19" y2="568.5"/><line class="cls-3" x1="1280.85" y1="810.78" x2="1433.96" y2="565.75"/><line class="cls-3" x1="1285.17" y1="813.38" x2="1429.64" y2="563.16"/><line class="cls-3" x1="1289.58" y1="815.83" x2="1425.23" y2="560.71"/><line class="cls-3" x1="1294.08" y1="818.12" x2="1420.74" y2="558.42"/><line class="cls-3" x1="1298.65" y1="820.25" x2="1416.17" y2="556.29"/><line class="cls-3" x1="1303.29" y1="822.22" x2="1411.52" y2="554.32"/><line class="cls-3" x1="1308" y1="824.02" x2="1406.82" y2="552.51"/><line class="cls-3" x1="1312.76" y1="825.67" x2="1402.05" y2="550.87"/><line class="cls-3" x1="1317.59" y1="827.14" x2="1397.23" y2="549.4"/><line class="cls-3" x1="1322.46" y1="828.45" x2="1392.36" y2="548.09"/><line class="cls-3" x1="1327.37" y1="829.58" x2="1387.44" y2="546.96"/><line class="cls-3" x1="1332.32" y1="830.54" x2="1382.49" y2="546"/><line class="cls-3" x1="1337.3" y1="831.33" x2="1377.51" y2="545.21"/><line class="cls-3" x1="1342.3" y1="831.95" x2="1372.51" y2="544.59"/><line class="cls-3" x1="1347.33" y1="832.38" x2="1367.48" y2="544.15"/><line class="cls-3" x1="1352.36" y1="832.65" x2="1362.45" y2="543.89"/><line class="cls-3" x1="1357.41" y1="832.74" x2="1357.41" y2="543.8"/><line class="cls-3" x1="1362.45" y1="832.65" x2="1352.36" y2="543.89"/><line class="cls-3" x1="1367.48" y1="832.38" x2="1347.33" y2="544.15"/><line class="cls-3" x1="1372.51" y1="831.95" x2="1342.3" y2="544.59"/><line class="cls-3" x1="1377.51" y1="831.33" x2="1337.3" y2="545.21"/><line class="cls-3" x1="1382.49" y1="830.54" x2="1332.32" y2="546"/><line class="cls-3" x1="1387.44" y1="829.58" x2="1327.37" y2="546.96"/><line class="cls-3" x1="1392.36" y1="828.45" x2="1322.46" y2="548.09"/><line class="cls-3" x1="1397.23" y1="827.14" x2="1317.59" y2="549.4"/><line class="cls-3" x1="1402.05" y1="825.67" x2="1312.76" y2="550.87"/><line class="cls-3" x1="1406.82" y1="824.02" x2="1308" y2="552.51"/><line class="cls-3" x1="1411.52" y1="822.22" x2="1303.29" y2="554.32"/><line class="cls-3" x1="1416.17" y1="820.25" x2="1298.65" y2="556.29"/><line class="cls-3" x1="1420.74" y1="818.12" x2="1294.08" y2="558.42"/><line class="cls-3" x1="1425.23" y1="815.83" x2="1289.58" y2="560.71"/><line class="cls-3" x1="1429.64" y1="813.38" x2="1285.17" y2="563.16"/><line class="cls-3" x1="1433.96" y1="810.78" x2="1280.85" y2="565.75"/><line class="cls-3" x1="1438.19" y1="808.04" x2="1276.62" y2="568.5"/><line class="cls-3" x1="1442.32" y1="805.15" x2="1272.49" y2="571.39"/><line class="cls-3" x1="1446.35" y1="802.11" x2="1268.46" y2="574.43"/><line class="cls-3" x1="1450.27" y1="798.94" x2="1264.54" y2="577.6"/><line class="cls-3" x1="1454.07" y1="795.63" x2="1260.74" y2="580.91"/><line class="cls-3" x1="1457.76" y1="792.19" x2="1257.05" y2="584.35"/><line class="cls-3" x1="1461.33" y1="788.62" x2="1253.48" y2="587.91"/><line class="cls-3" x1="1464.77" y1="784.94" x2="1250.05" y2="591.6"/><line class="cls-3" x1="1468.07" y1="781.13" x2="1246.74" y2="595.41"/><line class="cls-3" x1="1471.25" y1="777.21" x2="1243.56" y2="599.33"/><line class="cls-3" x1="1474.28" y1="773.18" x2="1240.53" y2="603.35"/><line class="cls-3" x1="1477.18" y1="769.05" x2="1237.64" y2="607.48"/><line class="cls-3" x1="1479.92" y1="764.83" x2="1234.89" y2="611.71"/><line class="cls-3" x1="1482.52" y1="760.5" x2="1232.29" y2="616.03"/><line class="cls-3" x1="1484.96" y1="756.09" x2="1229.85" y2="620.45"/><line class="cls-3" x1="1487.25" y1="751.6" x2="1227.56" y2="624.94"/><line class="cls-3" x1="1489.38" y1="747.03" x2="1225.43" y2="629.51"/><line class="cls-3" x1="1491.35" y1="742.39" x2="1223.46" y2="634.15"/><line class="cls-3" x1="1493.16" y1="737.68" x2="1221.65" y2="638.86"/><line class="cls-3" x1="1494.8" y1="732.91" x2="1220.01" y2="643.63"/><line class="cls-3" x1="1496.28" y1="728.09" x2="1218.53" y2="648.45"/><line class="cls-3" x1="1497.58" y1="723.22" x2="1217.23" y2="653.32"/><line class="cls-3" x1="1498.72" y1="718.31" x2="1216.1" y2="658.23"/><line class="cls-3" x1="1499.68" y1="713.36" x2="1215.13" y2="663.18"/><line class="cls-3" x1="1500.47" y1="708.37" x2="1214.34" y2="668.16"/><line class="cls-3" x1="1501.08" y1="703.37" x2="1213.73" y2="673.17"/><line class="cls-3" x1="1501.52" y1="698.35" x2="1213.29" y2="678.19"/><line class="cls-3" x1="1501.79" y1="693.31" x2="1213.03" y2="683.23"/><line class="cls-3" x1="1493.21" y1="688.27" x2="1501.87" y2="688.27"/><line class="cls-3" x1="1501.61" y1="688.27" x2="1501.87" y2="688.27"/><line class="cls-3" x1="1501.87" y1="688.27" x2="1501.87" y2="688.27"/><line class="cls-3" x1="1501.87" y1="688.27" x2="1501.87" y2="688.27"/><line class="cls-3" x1="1501.87" y1="688.27" x2="1501.87" y2="688.27"/><line class="cls-3" x1="1501.87" y1="688.27" x2="1501.87" y2="688.27"/><line class="cls-3" x1="1501.87" y1="688.27" x2="1501.87" y2="688.27"/><line class="cls-3" x1="1501.87" y1="688.27" x2="1501.87" y2="688.27"/><line class="cls-3" x1="1501.87" y1="688.27" x2="1501.87" y2="688.27"/><line class="cls-3" x1="1501.87" y1="688.27" x2="1501.87" y2="688.27"/><line class="cls-3" x1="1501.87" y1="688.27" x2="1501.87" y2="688.27"/><line class="cls-3" x1="1501.87" y1="688.27" x2="1501.87" y2="688.27"/><line class="cls-3" x1="1501.87" y1="688.27" x2="1501.87" y2="688.27"/><line class="cls-3" x1="1501.87" y1="688.27" x2="1501.87" y2="688.27"/><line class="cls-3" x1="1501.87" y1="688.27" x2="1501.87" y2="688.27"/><line class="cls-3" x1="1501.87" y1="688.27" x2="1501.87" y2="688.27"/><line class="cls-3" x1="1501.87" y1="688.27" x2="1501.87" y2="688.27"/><line class="cls-3" x1="1501.87" y1="688.27" x2="1501.87" y2="688.27"/><line class="cls-3" x1="1501.87" y1="688.27" x2="1501.87" y2="688.27"/><line class="cls-4" x1="1025.06" y1="684.2" x2="1313.99" y2="684.2"/><line class="cls-4" x1="1025.06" y1="684.2" x2="1313.99" y2="684.2"/><line class="cls-4" x1="1025.15" y1="689.24" x2="1313.91" y2="679.16"/><line class="cls-4" x1="1025.41" y1="694.28" x2="1313.64" y2="674.12"/><line class="cls-4" x1="1025.85" y1="699.3" x2="1313.2" y2="669.1"/><line class="cls-4" x1="1026.46" y1="704.31" x2="1312.59" y2="664.09"/><line class="cls-4" x1="1027.25" y1="709.29" x2="1311.8" y2="659.11"/><line class="cls-4" x1="1028.21" y1="714.24" x2="1310.84" y2="654.16"/><line class="cls-4" x1="1029.35" y1="719.15" x2="1309.7" y2="649.25"/><line class="cls-4" x1="1030.65" y1="724.02" x2="1308.4" y2="644.38"/><line class="cls-4" x1="1032.13" y1="728.84" x2="1306.92" y2="639.56"/><line class="cls-4" x1="1033.77" y1="733.61" x2="1305.28" y2="634.79"/><line class="cls-4" x1="1035.58" y1="738.32" x2="1303.47" y2="630.08"/><line class="cls-4" x1="1037.55" y1="742.96" x2="1301.5" y2="625.44"/><line class="cls-4" x1="1039.68" y1="747.53" x2="1299.37" y2="620.87"/><line class="cls-4" x1="1041.97" y1="752.02" x2="1297.08" y2="616.38"/><line class="cls-4" x1="1044.41" y1="756.44" x2="1294.64" y2="611.97"/><line class="cls-4" x1="1047.01" y1="760.76" x2="1292.04" y2="607.64"/><line class="cls-4" x1="1049.76" y1="764.99" x2="1289.3" y2="603.42"/><line class="cls-4" x1="1052.65" y1="769.12" x2="1286.4" y2="599.28"/><line class="cls-4" x1="1055.68" y1="773.14" x2="1283.37" y2="595.26"/><line class="cls-4" x1="1058.86" y1="777.06" x2="1280.19" y2="591.34"/><line class="cls-4" x1="1062.17" y1="780.87" x2="1276.89" y2="587.53"/><line class="cls-4" x1="1065.6" y1="784.56" x2="1273.45" y2="583.85"/><line class="cls-4" x1="1069.17" y1="788.12" x2="1269.88" y2="580.28"/><line class="cls-4" x1="1072.86" y1="791.56" x2="1266.19" y2="576.84"/><line class="cls-4" x1="1076.66" y1="794.87" x2="1262.39" y2="573.53"/><line class="cls-4" x1="1080.58" y1="798.04" x2="1258.47" y2="570.36"/><line class="cls-4" x1="1084.61" y1="801.08" x2="1254.44" y2="567.32"/><line class="cls-4" x1="1088.74" y1="803.97" x2="1250.31" y2="564.43"/><line class="cls-4" x1="1092.97" y1="806.72" x2="1246.08" y2="561.69"/><line class="cls-4" x1="1097.29" y1="809.31" x2="1241.76" y2="559.09"/><line class="cls-4" x1="1101.7" y1="811.76" x2="1237.35" y2="556.64"/><line class="cls-4" x1="1106.2" y1="814.05" x2="1232.86" y2="554.35"/><line class="cls-4" x1="1110.77" y1="816.18" x2="1228.29" y2="552.22"/><line class="cls-4" x1="1115.41" y1="818.15" x2="1223.64" y2="550.25"/><line class="cls-4" x1="1120.11" y1="819.96" x2="1218.94" y2="548.45"/><line class="cls-4" x1="1124.88" y1="821.6" x2="1214.17" y2="546.8"/><line class="cls-4" x1="1129.71" y1="823.07" x2="1209.35" y2="545.33"/><line class="cls-4" x1="1134.58" y1="824.38" x2="1204.48" y2="544.02"/><line class="cls-4" x1="1139.49" y1="825.51" x2="1199.56" y2="542.89"/><line class="cls-4" x1="1144.44" y1="826.47" x2="1194.61" y2="541.93"/><line class="cls-4" x1="1149.42" y1="827.26" x2="1189.63" y2="541.14"/><line class="cls-4" x1="1154.42" y1="827.88" x2="1184.63" y2="540.52"/><line class="cls-4" x1="1159.45" y1="828.32" x2="1179.6" y2="540.08"/><line class="cls-4" x1="1164.48" y1="828.58" x2="1174.57" y2="539.82"/><line class="cls-4" x1="1169.53" y1="828.67" x2="1169.53" y2="539.73"/><line class="cls-4" x1="1174.57" y1="828.58" x2="1164.48" y2="539.82"/><line class="cls-4" x1="1179.6" y1="828.32" x2="1159.45" y2="540.08"/><line class="cls-4" x1="1184.63" y1="827.88" x2="1154.42" y2="540.52"/><line class="cls-4" x1="1189.63" y1="827.26" x2="1149.42" y2="541.14"/><line class="cls-4" x1="1194.61" y1="826.47" x2="1144.44" y2="541.93"/><line class="cls-4" x1="1199.56" y1="825.51" x2="1139.49" y2="542.89"/><line class="cls-4" x1="1204.48" y1="824.38" x2="1134.58" y2="544.02"/><line class="cls-4" x1="1209.35" y1="823.07" x2="1129.71" y2="545.33"/><line class="cls-4" x1="1214.17" y1="821.6" x2="1124.88" y2="546.8"/><line class="cls-4" x1="1218.94" y1="819.96" x2="1120.11" y2="548.45"/><line class="cls-4" x1="1223.64" y1="818.15" x2="1115.41" y2="550.25"/><line class="cls-4" x1="1228.29" y1="816.18" x2="1110.77" y2="552.22"/><line class="cls-4" x1="1232.86" y1="814.05" x2="1106.2" y2="554.35"/><line class="cls-4" x1="1237.35" y1="811.76" x2="1101.7" y2="556.64"/><line class="cls-4" x1="1241.76" y1="809.31" x2="1097.29" y2="559.09"/><line class="cls-4" x1="1246.08" y1="806.72" x2="1092.97" y2="561.69"/><line class="cls-4" x1="1250.31" y1="803.97" x2="1088.74" y2="564.43"/><line class="cls-4" x1="1254.44" y1="801.08" x2="1084.61" y2="567.32"/><line class="cls-4" x1="1258.47" y1="798.04" x2="1080.58" y2="570.36"/><line class="cls-4" x1="1262.39" y1="794.87" x2="1076.66" y2="573.53"/><line class="cls-4" x1="1266.19" y1="791.56" x2="1072.86" y2="576.84"/><line class="cls-4" x1="1269.88" y1="788.12" x2="1069.17" y2="580.28"/><line class="cls-4" x1="1273.45" y1="784.56" x2="1065.6" y2="583.85"/><line class="cls-4" x1="1276.89" y1="780.87" x2="1062.17" y2="587.53"/><line class="cls-4" x1="1280.19" y1="777.06" x2="1058.86" y2="591.34"/><line class="cls-4" x1="1283.37" y1="773.14" x2="1055.68" y2="595.26"/><line class="cls-4" x1="1286.4" y1="769.12" x2="1052.65" y2="599.28"/><line class="cls-4" x1="1289.3" y1="764.99" x2="1049.76" y2="603.42"/><line class="cls-4" x1="1292.04" y1="760.76" x2="1047.01" y2="607.64"/><line class="cls-4" x1="1294.64" y1="756.44" x2="1044.41" y2="611.97"/><line class="cls-4" x1="1297.08" y1="752.02" x2="1041.97" y2="616.38"/><line class="cls-4" x1="1299.37" y1="747.53" x2="1039.68" y2="620.87"/><line class="cls-4" x1="1301.5" y1="742.96" x2="1037.55" y2="625.44"/><line class="cls-4" x1="1303.47" y1="738.32" x2="1035.58" y2="630.08"/><line class="cls-4" x1="1305.28" y1="733.61" x2="1033.77" y2="634.79"/><line class="cls-4" x1="1306.92" y1="728.84" x2="1032.13" y2="639.56"/><line class="cls-4" x1="1308.4" y1="724.02" x2="1030.65" y2="644.38"/><line class="cls-4" x1="1309.7" y1="719.15" x2="1029.35" y2="649.25"/><line class="cls-4" x1="1310.84" y1="714.24" x2="1028.21" y2="654.16"/><line class="cls-4" x1="1311.8" y1="709.29" x2="1027.25" y2="659.11"/><line class="cls-4" x1="1312.59" y1="704.31" x2="1026.46" y2="664.09"/><line class="cls-4" x1="1313.2" y1="699.3" x2="1025.85" y2="669.1"/><line class="cls-4" x1="1313.64" y1="694.28" x2="1025.41" y2="674.12"/><line class="cls-4" x1="1313.91" y1="689.24" x2="1025.15" y2="679.16"/><line class="cls-3" x1="1305.33" y1="684.2" x2="1313.99" y2="684.2"/><line class="cls-3" x1="1313.73" y1="684.2" x2="1313.99" y2="684.2"/><line class="cls-3" x1="1313.99" y1="684.2" x2="1313.99" y2="684.2"/><line class="cls-3" x1="1313.99" y1="684.2" x2="1313.99" y2="684.2"/><line class="cls-3" x1="1313.99" y1="684.2" x2="1313.99" y2="684.2"/><line class="cls-3" x1="1313.99" y1="684.2" x2="1313.99" y2="684.2"/><line class="cls-3" x1="1313.99" y1="684.2" x2="1313.99" y2="684.2"/><line class="cls-3" x1="1313.99" y1="684.2" x2="1313.99" y2="684.2"/><line class="cls-3" x1="1313.99" y1="684.2" x2="1313.99" y2="684.2"/><line class="cls-3" x1="1313.99" y1="684.2" x2="1313.99" y2="684.2"/><line class="cls-3" x1="1313.99" y1="684.2" x2="1313.99" y2="684.2"/><line class="cls-3" x1="1313.99" y1="684.2" x2="1313.99" y2="684.2"/><line class="cls-3" x1="1313.99" y1="684.2" x2="1313.99" y2="684.2"/><line class="cls-3" x1="1313.99" y1="684.2" x2="1313.99" y2="684.2"/><line class="cls-3" x1="1313.99" y1="684.2" x2="1313.99" y2="684.2"/><line class="cls-3" x1="1313.99" y1="684.2" x2="1313.99" y2="684.2"/><line class="cls-3" x1="1313.99" y1="684.2" x2="1313.99" y2="684.2"/><line class="cls-3" x1="1313.99" y1="684.2" x2="1313.99" y2="684.2"/><line class="cls-3" x1="1313.99" y1="684.2" x2="1313.99" y2="684.2"/><line class="cls-2" x1="336.17" y1="73.03" x2="160.74" y2="676.63"/><line class="cls-2" x1="336.17" y1="73.03" x2="160.74" y2="676.63"/><line class="cls-2" x1="325.61" y1="70.06" x2="160.74" y2="676.63"/><line class="cls-2" x1="315" y1="67.28" x2="160.74" y2="676.63"/><line class="cls-2" x1="304.34" y1="64.68" x2="160.74" y2="676.63"/><line class="cls-2" x1="293.64" y1="62.27" x2="160.74" y2="676.63"/><line class="cls-2" x1="282.9" y1="60.04" x2="160.74" y2="676.63"/><line class="cls-2" x1="272.12" y1="58" x2="160.74" y2="676.63"/><line class="cls-2" x1="261.3" y1="56.15" x2="160.74" y2="676.63"/><line class="cls-2" x1="250.46" y1="54.49" x2="160.74" y2="676.63"/><line class="cls-2" x1="239.59" y1="53.02" x2="160.74" y2="676.63"/><line class="cls-2" x1="228.69" y1="51.74" x2="160.74" y2="676.63"/><line class="cls-2" x1="217.78" y1="50.65" x2="160.74" y2="676.63"/><line class="cls-2" x1="206.84" y1="49.75" x2="160.74" y2="676.63"/><line class="cls-2" x1="195.9" y1="49.04" x2="160.74" y2="676.63"/><line class="cls-2" x1="184.94" y1="48.52" x2="160.74" y2="676.63"/><line class="cls-2" x1="173.97" y1="48.2" x2="160.74" y2="676.63"/><line class="cls-2" x1="163" y1="48.06" x2="160.74" y2="676.63"/><line class="cls-2" x1="152.03" y1="48.12" x2="160.74" y2="676.63"/><line class="cls-2" x1="141.06" y1="48.37" x2="160.74" y2="676.63"/><line class="cls-2" x1="130.1" y1="48.81" x2="160.74" y2="676.63"/><line class="cls-2" x1="119.15" y1="49.44" x2="160.74" y2="676.63"/><line class="cls-2" x1="108.21" y1="50.26" x2="160.74" y2="676.63"/><line class="cls-2" x1="97.29" y1="51.27" x2="160.74" y2="676.63"/><line class="cls-2" x1="86.38" y1="52.47" x2="160.74" y2="676.63"/><line class="cls-2" x1="75.5" y1="53.87" x2="160.74" y2="676.63"/><line class="cls-2" x1="64.65" y1="55.45" x2="160.74" y2="676.63"/><line class="cls-2" x1="53.82" y1="57.22" x2="160.74" y2="676.63"/><line class="cls-2" x1="43.03" y1="59.18" x2="160.74" y2="676.63"/><line class="cls-2" x1="32.27" y1="61.33" x2="160.74" y2="676.63"/><line class="cls-2" x1="21.55" y1="63.66" x2="160.74" y2="676.63"/><line class="cls-2" x1="10.87" y1="66.19" x2="160.74" y2="676.63"/><line class="cls-2" x1="0.24" y1="68.9" x2="160.74" y2="676.63"/><line class="cls-5" x1="418.42" y1="69.97" x2="243" y2="673.56"/><line class="cls-5" x1="418.42" y1="69.97" x2="243" y2="673.56"/><line class="cls-5" x1="407.86" y1="67" x2="243" y2="673.56"/><line class="cls-5" x1="397.25" y1="64.22" x2="243" y2="673.56"/><line class="cls-5" x1="386.59" y1="61.62" x2="243" y2="673.56"/><line class="cls-5" x1="375.89" y1="59.21" x2="243" y2="673.56"/><line class="cls-5" x1="365.15" y1="56.98" x2="243" y2="673.56"/><line class="cls-5" x1="354.37" y1="54.94" x2="243" y2="673.56"/><line class="cls-5" x1="343.56" y1="53.09" x2="243" y2="673.56"/><line class="cls-5" x1="332.71" y1="51.43" x2="243" y2="673.56"/><line class="cls-5" x1="321.84" y1="49.96" x2="243" y2="673.56"/><line class="cls-5" x1="310.95" y1="48.68" x2="243" y2="673.56"/><line class="cls-5" x1="300.03" y1="47.59" x2="243" y2="673.56"/><line class="cls-5" x1="289.1" y1="46.69" x2="243" y2="673.56"/><line class="cls-5" x1="278.15" y1="45.98" x2="243" y2="673.56"/><line class="cls-5" x1="267.19" y1="45.46" x2="243" y2="673.56"/><line class="cls-5" x1="256.23" y1="45.14" x2="243" y2="673.56"/><line class="cls-5" x1="245.26" y1="45" x2="243" y2="673.56"/><line class="cls-5" x1="234.29" y1="45.06" x2="243" y2="673.56"/><line class="cls-5" x1="223.32" y1="45.3" x2="243" y2="673.56"/><line class="cls-5" x1="212.36" y1="45.74" x2="243" y2="673.56"/><line class="cls-5" x1="201.4" y1="46.37" x2="243" y2="673.56"/><line class="cls-5" x1="190.47" y1="47.2" x2="243" y2="673.56"/><line class="cls-5" x1="179.54" y1="48.21" x2="243" y2="673.56"/><line class="cls-5" x1="168.64" y1="49.41" x2="243" y2="673.56"/><line class="cls-5" x1="157.76" y1="50.8" x2="243" y2="673.56"/><line class="cls-5" x1="146.9" y1="52.39" x2="243" y2="673.56"/><line class="cls-5" x1="136.07" y1="54.16" x2="243" y2="673.56"/><line class="cls-5" x1="125.28" y1="56.12" x2="243" y2="673.56"/><line class="cls-5" x1="114.52" y1="58.27" x2="243" y2="673.56"/><line class="cls-5" x1="103.8" y1="60.6" x2="243" y2="673.56"/><line class="cls-5" x1="93.13" y1="63.12" x2="243" y2="673.56"/><line class="cls-5" x1="82.5" y1="65.83" x2="243" y2="673.56"/><line class="cls-2" x1="572.56" y1="398.23" x2="761.7" y2="398.23"/><line class="cls-2" x1="572.56" y1="397.09" x2="761.7" y2="397.09"/><line class="cls-2" x1="572.56" y1="395.95" x2="761.7" y2="395.95"/><line class="cls-2" x1="572.56" y1="394.82" x2="761.7" y2="394.82"/><line class="cls-2" x1="572.56" y1="393.68" x2="761.7" y2="393.68"/><line class="cls-2" x1="572.56" y1="392.54" x2="761.7" y2="392.54"/><line class="cls-2" x1="572.56" y1="391.4" x2="761.7" y2="391.4"/><line class="cls-2" x1="572.56" y1="390.26" x2="761.7" y2="390.26"/><line class="cls-2" x1="572.56" y1="389.12" x2="761.7" y2="389.12"/><line class="cls-2" x1="572.56" y1="387.99" x2="761.7" y2="387.99"/><line class="cls-2" x1="572.56" y1="386.85" x2="761.7" y2="386.85"/><line class="cls-2" x1="572.56" y1="385.71" x2="761.7" y2="385.71"/><line class="cls-2" x1="572.56" y1="384.57" x2="761.7" y2="384.57"/><line class="cls-2" x1="572.56" y1="383.43" x2="761.7" y2="383.43"/><line class="cls-2" x1="572.56" y1="382.29" x2="761.7" y2="382.29"/><line class="cls-2" x1="572.56" y1="381.16" x2="761.7" y2="381.16"/><line class="cls-2" x1="572.56" y1="380.02" x2="761.7" y2="380.02"/><line class="cls-2" x1="572.56" y1="378.88" x2="761.7" y2="378.88"/><line class="cls-2" x1="572.56" y1="377.74" x2="761.7" y2="377.74"/><line class="cls-2" x1="572.56" y1="376.6" x2="761.7" y2="376.6"/><line class="cls-2" x1="572.56" y1="375.46" x2="761.7" y2="375.46"/><line class="cls-2" x1="572.56" y1="374.32" x2="761.7" y2="374.32"/><line class="cls-2" x1="572.56" y1="373.19" x2="761.7" y2="373.19"/><line class="cls-2" x1="572.56" y1="372.05" x2="761.7" y2="372.05"/><line class="cls-2" x1="572.56" y1="370.91" x2="761.7" y2="370.91"/><line class="cls-2" x1="572.56" y1="369.77" x2="761.7" y2="369.77"/><line class="cls-2" x1="572.56" y1="368.63" x2="761.7" y2="368.63"/><line class="cls-2" x1="572.56" y1="367.49" x2="761.7" y2="367.49"/><line class="cls-2" x1="572.56" y1="366.36" x2="761.7" y2="366.36"/><line class="cls-2" x1="572.56" y1="365.22" x2="761.7" y2="365.22"/><line class="cls-2" x1="572.56" y1="364.08" x2="761.7" y2="364.08"/><line class="cls-2" x1="572.56" y1="362.94" x2="761.7" y2="362.94"/><line class="cls-2" x1="572.56" y1="361.8" x2="761.7" y2="361.8"/><line class="cls-2" x1="572.56" y1="360.66" x2="761.7" y2="360.66"/><line class="cls-2" x1="572.56" y1="359.52" x2="761.7" y2="359.52"/><line class="cls-2" x1="572.56" y1="358.39" x2="761.7" y2="358.39"/><line class="cls-2" x1="572.56" y1="357.25" x2="761.7" y2="357.25"/><line class="cls-2" x1="572.56" y1="356.11" x2="761.7" y2="356.11"/><line class="cls-2" x1="572.56" y1="354.97" x2="761.7" y2="354.97"/><line class="cls-2" x1="572.56" y1="353.83" x2="761.7" y2="353.83"/><line class="cls-2" x1="572.56" y1="352.69" x2="761.7" y2="352.69"/><line class="cls-2" x1="572.56" y1="351.56" x2="761.7" y2="351.56"/><line class="cls-2" x1="572.56" y1="350.42" x2="761.7" y2="350.42"/><line class="cls-2" x1="572.56" y1="349.28" x2="761.7" y2="349.28"/><line class="cls-2" x1="572.56" y1="348.14" x2="761.7" y2="348.14"/><line class="cls-2" x1="572.56" y1="347" x2="761.7" y2="347"/><line class="cls-2" x1="572.56" y1="345.86" x2="761.7" y2="345.86"/><line class="cls-2" x1="572.56" y1="344.72" x2="761.7" y2="344.72"/><line class="cls-2" x1="572.56" y1="343.59" x2="761.7" y2="343.59"/><line class="cls-2" x1="572.56" y1="342.45" x2="761.7" y2="342.45"/><line class="cls-2" x1="572.56" y1="341.31" x2="761.7" y2="341.31"/><line class="cls-2" x1="572.56" y1="340.17" x2="761.7" y2="340.17"/><line class="cls-2" x1="572.56" y1="339.03" x2="761.7" y2="339.03"/><line class="cls-2" x1="572.56" y1="337.89" x2="761.7" y2="337.89"/><line class="cls-2" x1="572.56" y1="336.76" x2="761.7" y2="336.76"/><line class="cls-2" x1="572.56" y1="335.62" x2="761.7" y2="335.62"/><line class="cls-2" x1="572.56" y1="334.48" x2="761.7" y2="334.48"/><line class="cls-2" x1="572.56" y1="333.34" x2="761.7" y2="333.34"/><line class="cls-2" x1="572.56" y1="332.2" x2="761.7" y2="332.2"/><line class="cls-2" x1="572.56" y1="331.06" x2="761.7" y2="331.06"/><line class="cls-2" x1="572.56" y1="329.93" x2="761.7" y2="329.93"/><line class="cls-2" x1="572.56" y1="328.79" x2="761.7" y2="328.79"/><line class="cls-2" x1="572.56" y1="327.65" x2="761.7" y2="327.65"/><line class="cls-2" x1="572.56" y1="326.51" x2="761.7" y2="326.51"/><line class="cls-2" x1="572.56" y1="325.37" x2="761.7" y2="325.37"/><line class="cls-2" x1="572.56" y1="324.23" x2="761.7" y2="324.23"/><line class="cls-2" x1="572.56" y1="323.09" x2="761.7" y2="323.09"/><line class="cls-2" x1="572.56" y1="321.96" x2="761.7" y2="321.96"/><line class="cls-2" x1="572.56" y1="320.82" x2="761.7" y2="320.82"/><line class="cls-2" x1="572.56" y1="318.54" x2="761.7" y2="318.54"/><line class="cls-2" x1="572.56" y1="316.26" x2="761.7" y2="316.26"/><line class="cls-2" x1="572.56" y1="313.99" x2="761.7" y2="313.99"/><line class="cls-2" x1="572.56" y1="311.71" x2="761.7" y2="311.71"/><line class="cls-2" x1="572.56" y1="309.43" x2="761.7" y2="309.43"/><line class="cls-2" x1="572.56" y1="307.16" x2="761.7" y2="307.16"/><line class="cls-2" x1="572.56" y1="304.88" x2="761.7" y2="304.88"/><line class="cls-2" x1="572.56" y1="302.6" x2="761.7" y2="302.6"/><line class="cls-2" x1="572.56" y1="300.33" x2="761.7" y2="300.33"/><line class="cls-2" x1="572.56" y1="298.05" x2="761.7" y2="298.05"/><line class="cls-2" x1="572.56" y1="295.77" x2="761.7" y2="295.77"/><line class="cls-2" x1="572.56" y1="293.5" x2="761.7" y2="293.5"/><line class="cls-2" x1="572.56" y1="291.22" x2="761.7" y2="291.22"/><line class="cls-2" x1="572.56" y1="288.94" x2="761.7" y2="288.94"/><line class="cls-2" x1="572.56" y1="286.66" x2="761.7" y2="286.66"/><line class="cls-2" x1="572.56" y1="284.39" x2="761.7" y2="284.39"/><line class="cls-2" x1="572.56" y1="282.11" x2="761.7" y2="282.11"/><line class="cls-2" x1="572.56" y1="279.83" x2="761.7" y2="279.83"/><line class="cls-2" x1="572.56" y1="277.56" x2="761.7" y2="277.56"/><line class="cls-2" x1="572.56" y1="275.28" x2="761.7" y2="275.28"/><line class="cls-2" x1="572.56" y1="273" x2="761.7" y2="273"/><line class="cls-2" x1="572.56" y1="270.73" x2="761.7" y2="270.73"/><line class="cls-2" x1="572.56" y1="268.45" x2="761.7" y2="268.45"/><line class="cls-2" x1="572.56" y1="266.17" x2="761.7" y2="266.17"/><line class="cls-2" x1="572.56" y1="263.9" x2="761.7" y2="263.9"/><line class="cls-2" x1="572.56" y1="261.62" x2="761.7" y2="261.62"/><line class="cls-2" x1="572.56" y1="259.34" x2="761.7" y2="259.34"/><line class="cls-2" x1="572.56" y1="257.06" x2="761.7" y2="257.06"/><line class="cls-2" x1="572.56" y1="254.79" x2="761.7" y2="254.79"/><line class="cls-2" x1="572.56" y1="252.51" x2="761.7" y2="252.51"/><line class="cls-2" x1="572.56" y1="250.23" x2="761.7" y2="250.23"/><line class="cls-2" x1="572.56" y1="247.96" x2="761.7" y2="247.96"/><line class="cls-2" x1="572.56" y1="245.68" x2="761.7" y2="245.68"/><line class="cls-3" x1="572.56" y1="243.4" x2="761.7" y2="243.4"/><line class="cls-3" x1="572.56" y1="242.27" x2="761.7" y2="242.27"/><line class="cls-3" x1="572.56" y1="241.13" x2="761.7" y2="241.13"/><line class="cls-3" x1="572.56" y1="239.99" x2="761.7" y2="239.99"/><line class="cls-3" x1="572.56" y1="238.85" x2="761.7" y2="238.85"/><line class="cls-3" x1="572.56" y1="237.71" x2="761.7" y2="237.71"/><line class="cls-3" x1="572.56" y1="236.57" x2="761.7" y2="236.57"/><line class="cls-3" x1="572.56" y1="235.43" x2="761.7" y2="235.43"/><line class="cls-3" x1="572.56" y1="234.3" x2="761.7" y2="234.3"/><line class="cls-3" x1="572.56" y1="233.16" x2="761.7" y2="233.16"/><line class="cls-3" x1="572.56" y1="232.02" x2="761.7" y2="232.02"/><line class="cls-3" x1="572.56" y1="230.88" x2="761.7" y2="230.88"/><line class="cls-3" x1="572.56" y1="229.74" x2="761.7" y2="229.74"/><line class="cls-3" x1="572.56" y1="228.6" x2="761.7" y2="228.6"/><line class="cls-3" x1="572.56" y1="227.47" x2="761.7" y2="227.47"/><line class="cls-3" x1="572.56" y1="226.33" x2="761.7" y2="226.33"/><line class="cls-3" x1="572.56" y1="225.19" x2="761.7" y2="225.19"/><line class="cls-3" x1="572.56" y1="224.05" x2="761.7" y2="224.05"/><line class="cls-3" x1="572.56" y1="222.91" x2="761.7" y2="222.91"/><line class="cls-3" x1="572.56" y1="221.77" x2="761.7" y2="221.77"/><line class="cls-3" x1="572.56" y1="220.63" x2="761.7" y2="220.63"/><line class="cls-3" x1="572.56" y1="219.5" x2="761.7" y2="219.5"/><line class="cls-3" x1="572.56" y1="218.36" x2="761.7" y2="218.36"/><line class="cls-3" x1="572.56" y1="217.22" x2="761.7" y2="217.22"/><line class="cls-3" x1="572.56" y1="216.08" x2="761.7" y2="216.08"/><line class="cls-3" x1="572.56" y1="214.94" x2="761.7" y2="214.94"/><line class="cls-3" x1="572.56" y1="213.8" x2="761.7" y2="213.8"/><line class="cls-3" x1="572.56" y1="212.67" x2="761.7" y2="212.67"/><line class="cls-3" x1="572.56" y1="211.53" x2="761.7" y2="211.53"/><line class="cls-3" x1="572.56" y1="210.39" x2="761.7" y2="210.39"/><line class="cls-3" x1="572.56" y1="209.25" x2="761.7" y2="209.25"/><line class="cls-3" x1="572.56" y1="208.11" x2="761.7" y2="208.11"/><line class="cls-3" x1="572.56" y1="206.97" x2="761.7" y2="206.97"/><line class="cls-3" x1="572.56" y1="205.83" x2="761.7" y2="205.83"/><line class="cls-3" x1="572.56" y1="204.7" x2="761.7" y2="204.7"/><line class="cls-3" x1="572.56" y1="203.56" x2="761.7" y2="203.56"/><line class="cls-3" x1="572.56" y1="202.42" x2="761.7" y2="202.42"/><line class="cls-3" x1="572.56" y1="201.28" x2="761.7" y2="201.28"/><line class="cls-3" x1="572.56" y1="200.14" x2="761.7" y2="200.14"/><line class="cls-3" x1="572.56" y1="199" x2="761.7" y2="199"/><line class="cls-3" x1="572.56" y1="197.87" x2="761.7" y2="197.87"/><line class="cls-3" x1="572.56" y1="196.73" x2="761.7" y2="196.73"/><line class="cls-3" x1="572.56" y1="195.59" x2="761.7" y2="195.59"/><line class="cls-3" x1="572.56" y1="194.45" x2="761.7" y2="194.45"/><line class="cls-3" x1="572.56" y1="193.31" x2="761.7" y2="193.31"/><line class="cls-3" x1="572.56" y1="192.17" x2="761.7" y2="192.17"/><line class="cls-3" x1="572.56" y1="191.04" x2="761.7" y2="191.04"/><line class="cls-3" x1="572.56" y1="189.9" x2="761.7" y2="189.9"/><line class="cls-3" x1="572.56" y1="188.76" x2="761.7" y2="188.76"/><line class="cls-3" x1="572.56" y1="187.62" x2="761.7" y2="187.62"/><line class="cls-3" x1="572.56" y1="186.48" x2="761.7" y2="186.48"/><line class="cls-3" x1="572.56" y1="185.34" x2="761.7" y2="185.34"/><line class="cls-3" x1="572.56" y1="184.2" x2="761.7" y2="184.2"/><line class="cls-3" x1="572.56" y1="183.07" x2="761.7" y2="183.07"/><line class="cls-3" x1="572.56" y1="181.93" x2="761.7" y2="181.93"/><line class="cls-3" x1="572.56" y1="180.79" x2="761.7" y2="180.79"/><line class="cls-3" x1="572.56" y1="179.65" x2="761.7" y2="179.65"/><line class="cls-3" x1="572.56" y1="178.51" x2="761.7" y2="178.51"/><line class="cls-3" x1="572.56" y1="177.37" x2="761.7" y2="177.37"/><line class="cls-3" x1="572.56" y1="176.24" x2="761.7" y2="176.24"/><line class="cls-3" x1="572.56" y1="175.1" x2="761.7" y2="175.1"/><line class="cls-3" x1="572.56" y1="173.96" x2="761.7" y2="173.96"/><line class="cls-3" x1="572.56" y1="172.82" x2="761.7" y2="172.82"/><line class="cls-3" x1="572.56" y1="171.68" x2="761.7" y2="171.68"/><line class="cls-3" x1="572.56" y1="170.54" x2="761.7" y2="170.54"/><line class="cls-3" x1="572.56" y1="168.27" x2="761.7" y2="168.27"/><line class="cls-3" x1="572.56" y1="165.99" x2="761.7" y2="165.99"/><line class="cls-3" x1="572.56" y1="163.71" x2="761.7" y2="163.71"/><line class="cls-3" x1="572.56" y1="161.44" x2="761.7" y2="161.44"/><line class="cls-3" x1="572.56" y1="159.16" x2="761.7" y2="159.16"/><line class="cls-3" x1="572.56" y1="156.88" x2="761.7" y2="156.88"/><line class="cls-3" x1="572.56" y1="154.61" x2="761.7" y2="154.61"/><line class="cls-3" x1="572.56" y1="152.33" x2="761.7" y2="152.33"/><line class="cls-3" x1="572.56" y1="150.05" x2="761.7" y2="150.05"/><line class="cls-3" x1="572.56" y1="147.77" x2="761.7" y2="147.77"/><line class="cls-3" x1="572.56" y1="145.5" x2="761.7" y2="145.5"/><line class="cls-3" x1="572.56" y1="143.22" x2="761.7" y2="143.22"/><line class="cls-3" x1="572.56" y1="140.94" x2="761.7" y2="140.94"/><line class="cls-3" x1="572.56" y1="138.67" x2="761.7" y2="138.67"/><line class="cls-3" x1="572.56" y1="136.39" x2="761.7" y2="136.39"/><line class="cls-3" x1="572.56" y1="134.11" x2="761.7" y2="134.11"/><line class="cls-3" x1="572.56" y1="131.84" x2="761.7" y2="131.84"/><line class="cls-3" x1="572.56" y1="129.56" x2="761.7" y2="129.56"/><line class="cls-3" x1="572.56" y1="127.28" x2="761.7" y2="127.28"/><line class="cls-3" x1="572.56" y1="125.01" x2="761.7" y2="125.01"/><line class="cls-3" x1="572.56" y1="122.73" x2="761.7" y2="122.73"/><line class="cls-3" x1="572.56" y1="120.45" x2="761.7" y2="120.45"/><line class="cls-3" x1="572.56" y1="118.17" x2="761.7" y2="118.17"/><line class="cls-3" x1="572.56" y1="115.9" x2="761.7" y2="115.9"/><line class="cls-3" x1="572.56" y1="113.62" x2="761.7" y2="113.62"/><line class="cls-3" x1="572.56" y1="111.34" x2="761.7" y2="111.34"/><line class="cls-3" x1="572.56" y1="109.07" x2="761.7" y2="109.07"/><line class="cls-3" x1="572.56" y1="106.79" x2="761.7" y2="106.79"/><line class="cls-3" x1="572.56" y1="104.51" x2="761.7" y2="104.51"/><line class="cls-3" x1="572.56" y1="102.24" x2="761.7" y2="102.24"/><line class="cls-3" x1="572.56" y1="99.96" x2="761.7" y2="99.96"/><line class="cls-3" x1="572.56" y1="97.68" x2="761.7" y2="97.68"/><line class="cls-2" x1="623.87" y1="628.5" x2="390.87" y2="628.5"/><line class="cls-2" x1="623.87" y1="630.53" x2="390.87" y2="626.47"/><line class="cls-2" x1="623.87" y1="632.57" x2="390.87" y2="624.43"/><line class="cls-2" x1="623.87" y1="634.6" x2="390.87" y2="622.4"/><line class="cls-2" x1="623.87" y1="636.63" x2="390.87" y2="620.37"/><line class="cls-2" x1="623.87" y1="638.67" x2="390.87" y2="618.33"/><line class="cls-2" x1="623.87" y1="640.7" x2="390.87" y2="616.3"/><line class="cls-2" x1="623.87" y1="642.73" x2="390.87" y2="614.27"/><line class="cls-2" x1="623.87" y1="644.77" x2="390.87" y2="612.23"/><line class="cls-2" x1="623.87" y1="646.8" x2="390.87" y2="610.2"/><line class="cls-2" x1="623.87" y1="648.84" x2="390.87" y2="608.17"/><line class="cls-2" x1="623.87" y1="650.87" x2="390.87" y2="606.13"/><line class="cls-2" x1="623.87" y1="652.9" x2="390.87" y2="604.1"/><line class="cls-2" x1="623.87" y1="654.94" x2="390.87" y2="602.06"/><line class="cls-2" x1="623.87" y1="656.97" x2="390.87" y2="600.03"/><line class="cls-2" x1="623.87" y1="659" x2="390.87" y2="598"/><line class="cls-2" x1="623.87" y1="661.04" x2="390.87" y2="595.96"/><line class="cls-2" x1="623.87" y1="663.07" x2="390.87" y2="593.93"/><line class="cls-2" x1="623.87" y1="665.1" x2="390.87" y2="591.9"/><line class="cls-2" x1="623.87" y1="667.14" x2="390.87" y2="589.86"/><line class="cls-2" x1="623.87" y1="669.17" x2="390.87" y2="587.83"/><line class="cls-2" x1="623.87" y1="671.2" x2="390.87" y2="585.8"/><line class="cls-2" x1="623.87" y1="673.24" x2="390.87" y2="583.76"/><line class="cls-2" x1="623.87" y1="675.27" x2="390.87" y2="581.73"/><line class="cls-2" x1="623.87" y1="677.3" x2="390.87" y2="579.7"/><line class="cls-2" x1="623.87" y1="679.34" x2="390.87" y2="577.66"/><line class="cls-2" x1="623.87" y1="681.37" x2="390.87" y2="575.63"/><line class="cls-2" x1="623.87" y1="683.41" x2="390.87" y2="573.6"/><line class="cls-2" x1="623.87" y1="685.44" x2="390.87" y2="571.56"/><line class="cls-2" x1="623.87" y1="687.47" x2="390.87" y2="569.53"/><line class="cls-2" x1="623.87" y1="689.51" x2="390.87" y2="567.49"/><line class="cls-2" x1="623.87" y1="691.54" x2="390.87" y2="565.46"/><line class="cls-2" x1="623.87" y1="693.57" x2="390.87" y2="563.43"/><line class="cls-2" x1="623.87" y1="695.61" x2="390.87" y2="561.39"/><line class="cls-2" x1="623.87" y1="697.64" x2="390.87" y2="559.36"/><line class="cls-2" x1="623.87" y1="699.67" x2="390.87" y2="557.33"/><line class="cls-2" x1="623.87" y1="701.71" x2="390.87" y2="555.29"/><line class="cls-2" x1="623.87" y1="703.74" x2="390.87" y2="553.26"/><line class="cls-2" x1="623.87" y1="705.77" x2="390.87" y2="551.23"/><line class="cls-2" x1="623.87" y1="707.81" x2="390.87" y2="549.19"/><line class="cls-2" x1="623.87" y1="709.84" x2="390.87" y2="547.16"/><line class="cls-2" x1="623.87" y1="711.87" x2="390.87" y2="545.13"/><line class="cls-2" x1="623.87" y1="713.91" x2="390.87" y2="543.09"/><line class="cls-2" x1="623.87" y1="715.94" x2="390.87" y2="541.06"/><line class="cls-2" x1="623.87" y1="717.97" x2="390.87" y2="539.03"/><line class="cls-2" x1="623.87" y1="720.01" x2="390.87" y2="536.99"/><line class="cls-2" x1="623.87" y1="722.04" x2="390.87" y2="534.96"/><line class="cls-2" x1="623.87" y1="724.08" x2="390.87" y2="532.93"/><line class="cls-2" x1="623.87" y1="726.11" x2="390.87" y2="530.89"/><line class="cls-2" x1="623.87" y1="728.14" x2="390.87" y2="528.86"/><line class="cls-2" x1="623.87" y1="730.18" x2="390.87" y2="526.82"/><line class="cls-2" x1="623.87" y1="732.21" x2="390.87" y2="524.79"/><line class="cls-2" x1="623.87" y1="734.24" x2="390.87" y2="522.76"/><line class="cls-2" x1="623.87" y1="736.28" x2="390.87" y2="520.72"/><line class="cls-2" x1="623.87" y1="738.31" x2="390.87" y2="518.69"/><line class="cls-2" x1="623.87" y1="740.34" x2="390.87" y2="516.66"/><line class="cls-2" x1="623.87" y1="742.38" x2="390.87" y2="514.62"/><line class="cls-2" x1="623.87" y1="744.41" x2="390.87" y2="512.59"/><line class="cls-2" x1="623.87" y1="746.44" x2="390.87" y2="510.56"/><line class="cls-2" x1="623.87" y1="748.48" x2="390.87" y2="508.52"/><line class="cls-2" x1="623.87" y1="750.51" x2="390.87" y2="506.49"/><line class="cls-2" x1="623.87" y1="752.54" x2="390.87" y2="504.46"/><line class="cls-2" x1="623.87" y1="754.58" x2="390.87" y2="502.42"/><line class="cls-2" x1="623.87" y1="756.61" x2="390.87" y2="500.39"/><line class="cls-2" x1="623.87" y1="758.65" x2="390.87" y2="498.36"/><line class="cls-2" x1="623.87" y1="760.68" x2="390.87" y2="496.32"/><line class="cls-2" x1="623.87" y1="762.71" x2="390.87" y2="494.29"/><line class="cls-2" x1="623.87" y1="764.75" x2="390.87" y2="492.25"/><line class="cls-2" x1="623.87" y1="766.78" x2="390.87" y2="490.22"/><line class="cls-2" x1="623.87" y1="768.81" x2="390.87" y2="488.19"/><line class="cls-2" x1="623.87" y1="770.85" x2="390.87" y2="486.15"/><line class="cls-2" x1="623.87" y1="772.88" x2="390.87" y2="484.12"/><line class="cls-2" x1="623.87" y1="774.91" x2="390.87" y2="482.09"/><line class="cls-2" x1="623.87" y1="776.95" x2="390.87" y2="480.05"/><line class="cls-2" x1="623.87" y1="778.98" x2="390.87" y2="478.02"/><line class="cls-2" x1="623.87" y1="781.01" x2="390.87" y2="475.99"/><line class="cls-2" x1="623.87" y1="783.05" x2="390.87" y2="473.95"/><line class="cls-2" x1="623.87" y1="785.08" x2="390.87" y2="471.92"/><line class="cls-2" x1="623.87" y1="787.11" x2="390.87" y2="469.89"/><line class="cls-2" x1="623.87" y1="789.15" x2="390.87" y2="467.85"/><line class="cls-2" x1="623.87" y1="791.18" x2="390.87" y2="465.82"/><line class="cls-2" x1="623.87" y1="793.21" x2="390.87" y2="463.79"/><line class="cls-2" x1="623.87" y1="795.25" x2="390.87" y2="461.75"/><line class="cls-2" x1="623.87" y1="797.28" x2="390.87" y2="459.72"/><line class="cls-2" x1="623.87" y1="799.32" x2="390.87" y2="457.68"/><line class="cls-2" x1="623.87" y1="801.35" x2="390.87" y2="455.65"/><line class="cls-2" x1="623.87" y1="803.38" x2="390.87" y2="453.62"/><line class="cls-2" x1="623.87" y1="805.42" x2="390.87" y2="451.58"/><line class="cls-2" x1="623.87" y1="807.45" x2="390.87" y2="449.55"/><line class="cls-2" x1="623.87" y1="809.48" x2="390.87" y2="447.52"/><line class="cls-2" x1="623.87" y1="811.52" x2="390.87" y2="445.48"/><line class="cls-2" x1="623.87" y1="813.55" x2="390.87" y2="443.45"/><line class="cls-2" x1="623.87" y1="815.58" x2="390.87" y2="441.42"/><line class="cls-2" x1="623.87" y1="817.62" x2="390.87" y2="439.38"/><line class="cls-2" x1="623.87" y1="819.65" x2="390.87" y2="437.35"/><line class="cls-2" x1="623.87" y1="821.68" x2="390.87" y2="435.32"/><line class="cls-5" x1="902.11" y1="205.4" x2="619.2" y2="291.25"/><line class="cls-5" x1="901.34" y1="202.94" x2="619.97" y2="293.71"/><line class="cls-5" x1="900.52" y1="200.49" x2="620.78" y2="296.16"/><line class="cls-5" x1="899.67" y1="198.06" x2="621.64" y2="298.59"/><line class="cls-5" x1="898.77" y1="195.64" x2="622.54" y2="301.01"/><line class="cls-5" x1="897.83" y1="193.24" x2="623.48" y2="303.41"/><line class="cls-5" x1="896.85" y1="190.85" x2="624.46" y2="305.8"/><line class="cls-5" x1="895.82" y1="188.48" x2="625.49" y2="308.17"/><line class="cls-5" x1="894.76" y1="186.13" x2="626.55" y2="310.52"/><line class="cls-5" x1="893.65" y1="183.8" x2="627.66" y2="312.85"/><line class="cls-5" x1="892.51" y1="181.49" x2="628.8" y2="315.16"/><line class="cls-5" x1="891.32" y1="179.2" x2="629.99" y2="317.45"/><line class="cls-5" x1="890.09" y1="176.93" x2="631.22" y2="319.72"/><line class="cls-5" x1="888.83" y1="174.68" x2="632.48" y2="321.97"/><line class="cls-5" x1="887.52" y1="172.46" x2="633.79" y2="324.19"/><line class="cls-5" x1="886.18" y1="170.25" x2="635.13" y2="326.39"/><line class="cls-5" x1="884.8" y1="168.07" x2="636.51" y2="328.57"/><line class="cls-5" x1="883.38" y1="165.92" x2="637.93" y2="330.73"/><line class="cls-5" x1="881.92" y1="163.79" x2="639.39" y2="332.86"/><line class="cls-5" x1="880.43" y1="161.69" x2="640.88" y2="334.96"/><line class="cls-5" x1="878.9" y1="159.61" x2="642.41" y2="337.04"/><line class="cls-5" x1="877.33" y1="157.56" x2="643.98" y2="339.09"/><line class="cls-5" x1="875.73" y1="155.54" x2="645.58" y2="341.11"/><line class="cls-5" x1="874.09" y1="153.54" x2="647.22" y2="343.1"/><line class="cls-5" x1="872.42" y1="151.58" x2="648.89" y2="345.07"/><line class="cls-5" x1="870.71" y1="149.64" x2="650.59" y2="347.01"/><line class="cls-5" x1="868.98" y1="147.74" x2="652.33" y2="348.91"/><line class="cls-5" x1="867.2" y1="145.86" x2="654.1" y2="350.79"/><line class="cls-5" x1="865.4" y1="144.02" x2="655.91" y2="352.63"/><line class="cls-5" x1="863.56" y1="142.2" x2="657.74" y2="354.44"/><line class="cls-5" x1="861.7" y1="140.42" x2="659.61" y2="356.22"/><line class="cls-5" x1="859.8" y1="138.68" x2="661.51" y2="357.97"/><line class="cls-5" x1="857.87" y1="136.96" x2="663.44" y2="359.68"/><line class="cls-5" x1="855.91" y1="135.28" x2="665.4" y2="361.36"/><line class="cls-5" x1="853.92" y1="133.64" x2="667.39" y2="363.01"/><line class="cls-5" x1="851.91" y1="132.03" x2="669.4" y2="364.62"/><line class="cls-5" x1="849.86" y1="130.45" x2="671.44" y2="366.19"/><line class="cls-5" x1="847.79" y1="128.92" x2="673.52" y2="367.73"/><line class="cls-5" x1="845.7" y1="127.41" x2="675.61" y2="369.24"/><line class="cls-5" x1="843.57" y1="125.95" x2="677.74" y2="370.7"/><line class="cls-5" x1="841.42" y1="124.52" x2="679.88" y2="372.13"/><line class="cls-5" x1="839.25" y1="123.13" x2="682.06" y2="373.52"/><line class="cls-5" x1="837.05" y1="121.78" x2="684.25" y2="374.87"/><line class="cls-5" x1="834.83" y1="120.46" x2="686.47" y2="376.19"/><line class="cls-5" x1="832.59" y1="119.19" x2="688.72" y2="377.46"/><line class="cls-5" x1="830.33" y1="117.95" x2="690.98" y2="378.7"/><line class="cls-5" x1="828.04" y1="116.75" x2="693.27" y2="379.89"/><line class="cls-5" x1="825.73" y1="115.6" x2="695.57" y2="381.05"/><line class="cls-5" x1="823.41" y1="114.48" x2="697.9" y2="382.17"/><line class="cls-5" x1="821.06" y1="113.41" x2="700.25" y2="383.24"/><line class="cls-5" x1="818.7" y1="112.37" x2="702.61" y2="384.27"/><line class="cls-5" x1="816.32" y1="111.38" x2="704.99" y2="385.27"/><line class="cls-5" x1="813.92" y1="110.43" x2="707.39" y2="386.22"/><line class="cls-5" x1="811.5" y1="109.52" x2="709.8" y2="387.13"/><line class="cls-5" x1="809.07" y1="108.66" x2="712.23" y2="387.99"/><line class="cls-5" x1="806.63" y1="107.83" x2="714.68" y2="388.82"/><line class="cls-5" x1="804.17" y1="107.05" x2="717.14" y2="389.6"/><line class="cls-5" x1="801.7" y1="106.31" x2="719.61" y2="390.33"/><line class="cls-5" x1="799.21" y1="105.62" x2="722.1" y2="391.03"/><line class="cls-5" x1="796.72" y1="104.97" x2="724.59" y2="391.68"/><line class="cls-5" x1="794.21" y1="104.36" x2="727.1" y2="392.29"/><line class="cls-5" x1="791.69" y1="103.8" x2="729.62" y2="392.85"/><line class="cls-5" x1="789.16" y1="103.28" x2="732.14" y2="393.37"/><line class="cls-5" x1="786.63" y1="102.8" x2="734.68" y2="393.85"/><line class="cls-5" x1="784.08" y1="102.37" x2="737.22" y2="394.28"/><line class="cls-5" x1="781.53" y1="101.98" x2="739.77" y2="394.66"/><line class="cls-5" x1="778.98" y1="101.64" x2="742.33" y2="395.01"/><line class="cls-5" x1="776.41" y1="101.34" x2="744.89" y2="395.3"/><line class="cls-5" x1="773.85" y1="101.09" x2="747.46" y2="395.56"/><line class="cls-5" x1="771.27" y1="100.88" x2="750.03" y2="395.76"/><line class="cls-2" x1="768.7" y1="100.72" x2="752.61" y2="395.93"/><line class="cls-2" x1="766.12" y1="100.6" x2="755.19" y2="396.05"/><line class="cls-2" x1="763.54" y1="100.53" x2="757.76" y2="396.12"/><line class="cls-2" x1="760.96" y1="100.5" x2="760.34" y2="396.15"/><line class="cls-2" x1="758.38" y1="100.52" x2="762.92" y2="396.13"/><line class="cls-2" x1="755.8" y1="100.58" x2="765.5" y2="396.07"/><line class="cls-2" x1="753.23" y1="100.69" x2="768.08" y2="395.96"/><line class="cls-5" x1="750.65" y1="100.84" x2="770.66" y2="395.81"/><line class="cls-5" x1="748.08" y1="101.04" x2="773.23" y2="395.61"/><line class="cls-5" x1="745.51" y1="101.28" x2="775.8" y2="395.37"/><line class="cls-5" x1="742.95" y1="101.57" x2="778.36" y2="395.08"/><line class="cls-5" x1="740.39" y1="101.9" x2="780.92" y2="394.75"/><line class="cls-5" x1="737.84" y1="102.27" x2="783.47" y2="394.37"/><line class="cls-5" x1="735.29" y1="102.69" x2="786.02" y2="393.95"/><line class="cls-5" x1="732.75" y1="103.16" x2="788.56" y2="393.49"/><line class="cls-5" x1="730.22" y1="103.67" x2="791.08" y2="392.98"/><line class="cls-5" x1="727.7" y1="104.22" x2="793.6" y2="392.43"/><line class="cls-5" x1="725.19" y1="104.82" x2="796.11" y2="391.83"/><line class="cls-5" x1="722.69" y1="105.46" x2="798.61" y2="391.19"/><line class="cls-5" x1="720.21" y1="106.14" x2="801.1" y2="390.51"/><line class="cls-5" x1="717.73" y1="106.87" x2="803.58" y2="389.78"/><line class="cls-5" x1="715.27" y1="107.64" x2="806.04" y2="389.01"/><line class="cls-5" x1="712.82" y1="108.45" x2="808.49" y2="388.19"/><line class="cls-5" x1="710.39" y1="109.31" x2="810.92" y2="387.34"/><line class="cls-5" x1="707.97" y1="110.21" x2="813.34" y2="386.44"/><line class="cls-5" x1="705.57" y1="111.15" x2="815.74" y2="385.5"/><line class="cls-5" x1="703.18" y1="112.13" x2="818.13" y2="384.52"/><line class="cls-5" x1="700.81" y1="113.16" x2="820.5" y2="383.49"/><line class="cls-5" x1="698.46" y1="114.22" x2="822.85" y2="382.43"/><line class="cls-5" x1="696.13" y1="115.33" x2="825.18" y2="381.32"/><line class="cls-5" x1="693.82" y1="116.47" x2="827.49" y2="380.18"/><line class="cls-5" x1="691.53" y1="117.66" x2="829.78" y2="378.99"/><line class="cls-5" x1="689.26" y1="118.89" x2="832.05" y2="377.76"/><line class="cls-5" x1="687.01" y1="120.15" x2="834.3" y2="376.5"/><line class="cls-5" x1="684.79" y1="121.46" x2="836.52" y2="375.19"/><line class="cls-5" x1="682.58" y1="122.8" x2="838.72" y2="373.85"/><line class="cls-5" x1="680.4" y1="124.18" x2="840.9" y2="372.47"/><line class="cls-5" x1="678.25" y1="125.6" x2="843.06" y2="371.05"/><line class="cls-5" x1="676.12" y1="127.06" x2="845.19" y2="369.59"/><line class="cls-5" x1="674.02" y1="128.55" x2="847.29" y2="368.1"/><line class="cls-5" x1="671.94" y1="130.08" x2="849.37" y2="366.57"/><line class="cls-5" x1="669.89" y1="131.65" x2="851.42" y2="365"/><line class="cls-5" x1="667.87" y1="133.25" x2="853.44" y2="363.4"/><line class="cls-5" x1="665.87" y1="134.89" x2="855.43" y2="361.76"/><line class="cls-5" x1="663.91" y1="136.56" x2="857.4" y2="360.09"/><line class="cls-5" x1="661.97" y1="138.26" x2="859.34" y2="358.38"/><line class="cls-5" x1="660.07" y1="140" x2="861.24" y2="356.65"/><line class="cls-5" x1="658.19" y1="141.77" x2="863.12" y2="354.87"/><line class="cls-5" x1="656.35" y1="143.58" x2="864.96" y2="353.07"/><line class="cls-5" x1="654.53" y1="145.41" x2="866.77" y2="351.23"/><line class="cls-5" x1="652.75" y1="147.28" x2="868.55" y2="349.37"/><line class="cls-5" x1="651.01" y1="149.18" x2="870.3" y2="347.47"/><line class="cls-5" x1="649.29" y1="151.11" x2="872.01" y2="345.54"/><line class="cls-5" x1="647.61" y1="153.07" x2="873.69" y2="343.58"/><line class="cls-5" x1="645.97" y1="155.06" x2="875.34" y2="341.59"/><line class="cls-5" x1="644.36" y1="157.07" x2="876.95" y2="339.58"/><line class="cls-5" x1="642.78" y1="159.11" x2="878.52" y2="337.53"/><line class="cls-5" x1="641.25" y1="161.19" x2="880.06" y2="335.46"/><line class="cls-5" x1="639.74" y1="163.28" x2="881.57" y2="333.37"/><line class="cls-5" x1="638.28" y1="165.41" x2="883.03" y2="331.24"/><line class="cls-5" x1="636.85" y1="167.55" x2="884.46" y2="329.09"/><line class="cls-5" x1="635.46" y1="169.73" x2="885.85" y2="326.92"/><line class="cls-5" x1="634.11" y1="171.92" x2="887.2" y2="324.72"/><line class="cls-5" x1="632.79" y1="174.14" x2="888.52" y2="322.5"/><line class="cls-5" x1="631.52" y1="176.39" x2="889.79" y2="320.26"/><line class="cls-5" x1="630.28" y1="178.65" x2="891.03" y2="318"/><line class="cls-5" x1="629.08" y1="180.94" x2="892.22" y2="315.71"/><line class="cls-5" x1="627.93" y1="183.24" x2="893.38" y2="313.4"/><line class="cls-5" x1="626.81" y1="185.57" x2="894.5" y2="311.08"/><line class="cls-5" x1="625.74" y1="187.92" x2="895.57" y2="308.73"/><line class="cls-5" x1="624.7" y1="190.28" x2="896.6" y2="306.37"/><line class="cls-5" x1="623.71" y1="192.66" x2="897.6" y2="303.99"/><line class="cls-5" x1="622.76" y1="195.06" x2="898.55" y2="301.59"/><line class="cls-5" x1="621.85" y1="197.47" x2="899.46" y2="299.17"/><line class="cls-5" x1="620.99" y1="199.9" x2="900.32" y2="296.74"/><line class="cls-5" x1="620.16" y1="202.35" x2="901.15" y2="294.3"/><line class="cls-5" x1="619.38" y1="204.81" x2="901.93" y2="291.84"/><line class="cls-5" x1="618.64" y1="207.28" x2="902.66" y2="289.37"/><line class="cls-5" x1="617.95" y1="209.77" x2="903.36" y2="286.88"/><line class="cls-5" x1="617.3" y1="212.26" x2="904.01" y2="284.39"/><line class="cls-5" x1="616.69" y1="214.77" x2="904.62" y2="281.88"/><line class="cls-5" x1="616.13" y1="217.29" x2="905.18" y2="279.36"/><line class="cls-5" x1="615.61" y1="219.81" x2="905.7" y2="276.83"/><line class="cls-5" x1="615.13" y1="222.35" x2="906.18" y2="274.3"/><line class="cls-5" x1="614.7" y1="224.89" x2="906.61" y2="271.75"/><line class="cls-5" x1="614.31" y1="227.44" x2="906.99" y2="269.2"/><line class="cls-5" x1="613.97" y1="230" x2="907.34" y2="266.65"/><line class="cls-5" x1="613.67" y1="232.56" x2="907.63" y2="264.08"/><line class="cls-5" x1="613.42" y1="235.13" x2="907.89" y2="261.52"/><line class="cls-5" x1="613.21" y1="237.7" x2="908.09" y2="258.94"/><line class="cls-5" x1="613.05" y1="240.28" x2="908.26" y2="256.37"/><line class="cls-5" x1="612.93" y1="242.86" x2="908.38" y2="253.79"/><line class="cls-5" x1="612.86" y1="245.43" x2="908.45" y2="251.21"/><line class="cls-5" x1="612.83" y1="248.01" x2="908.48" y2="248.63"/><line class="cls-5" x1="612.85" y1="250.59" x2="908.46" y2="246.05"/><line class="cls-5" x1="612.91" y1="253.17" x2="908.4" y2="243.47"/><line class="cls-5" x1="613.02" y1="255.75" x2="908.29" y2="240.9"/><line class="cls-5" x1="613.17" y1="258.33" x2="908.14" y2="238.32"/><line class="cls-5" x1="613.37" y1="260.9" x2="907.94" y2="235.75"/><line class="cls-5" x1="613.61" y1="263.47" x2="907.7" y2="233.18"/><line class="cls-5" x1="613.9" y1="266.03" x2="907.41" y2="230.62"/><line class="cls-5" x1="614.23" y1="268.59" x2="907.08" y2="228.06"/><line class="cls-5" x1="614.6" y1="271.14" x2="906.7" y2="225.51"/><line class="cls-5" x1="615.02" y1="273.69" x2="906.28" y2="222.96"/><line class="cls-5" x1="615.49" y1="276.23" x2="905.82" y2="220.42"/><line class="cls-5" x1="616" y1="278.75" x2="905.31" y2="217.89"/><line class="cls-5" x1="616.55" y1="281.27" x2="904.76" y2="215.37"/><line class="cls-5" x1="617.15" y1="283.78" x2="904.16" y2="212.86"/><line class="cls-5" x1="617.79" y1="286.28" x2="903.52" y2="210.36"/><line class="cls-5" x1="618.47" y1="288.77" x2="902.84" y2="207.88"/></svg>