<svg id="lines_FIG" xmlns="http://www.w3.org/2000/svg" viewBox="0 0 418.66 631.7"><defs><style>.cls-1,.cls-2{fill:none;stroke-miterlimit:10;stroke-width:0.5px;}.cls-1{stroke:aqua;}.cls-2{stroke:#fff;}</style></defs><line class="cls-1" x1="336.17" y1="28.04" x2="160.74" y2="631.63"/><line class="cls-1" x1="336.17" y1="28.04" x2="160.74" y2="631.63"/><line class="cls-1" x1="325.61" y1="25.07" x2="160.74" y2="631.63"/><line class="cls-1" x1="315" y1="22.28" x2="160.74" y2="631.63"/><line class="cls-1" x1="304.34" y1="19.68" x2="160.74" y2="631.63"/><line class="cls-1" x1="293.64" y1="17.27" x2="160.74" y2="631.63"/><line class="cls-1" x1="282.9" y1="15.04" x2="160.74" y2="631.63"/><line class="cls-1" x1="272.12" y1="13" x2="160.74" y2="631.63"/><line class="cls-1" x1="261.3" y1="11.16" x2="160.74" y2="631.63"/><line class="cls-1" x1="250.46" y1="9.49" x2="160.74" y2="631.63"/><line class="cls-1" x1="239.59" y1="8.02" x2="160.74" y2="631.63"/><line class="cls-1" x1="228.69" y1="6.74" x2="160.74" y2="631.63"/><line class="cls-1" x1="217.78" y1="5.65" x2="160.74" y2="631.63"/><line class="cls-1" x1="206.84" y1="4.75" x2="160.74" y2="631.63"/><line class="cls-1" x1="195.9" y1="4.04" x2="160.74" y2="631.63"/><line class="cls-1" x1="184.94" y1="3.52" x2="160.74" y2="631.63"/><line class="cls-1" x1="173.97" y1="3.2" x2="160.74" y2="631.63"/><line class="cls-1" x1="163" y1="3.06" x2="160.74" y2="631.63"/><line class="cls-1" x1="152.03" y1="3.12" x2="160.74" y2="631.63"/><line class="cls-1" x1="141.06" y1="3.37" x2="160.74" y2="631.63"/><line class="cls-1" x1="130.1" y1="3.81" x2="160.74" y2="631.63"/><line class="cls-1" x1="119.15" y1="4.44" x2="160.74" y2="631.63"/><line class="cls-1" x1="108.21" y1="5.26" x2="160.74" y2="631.63"/><line class="cls-1" x1="97.29" y1="6.27" x2="160.74" y2="631.63"/><line class="cls-1" x1="86.38" y1="7.47" x2="160.74" y2="631.63"/><line class="cls-1" x1="75.5" y1="8.87" x2="160.74" y2="631.63"/><line class="cls-1" x1="64.65" y1="10.45" x2="160.74" y2="631.63"/><line class="cls-1" x1="53.82" y1="12.22" x2="160.74" y2="631.63"/><line class="cls-1" x1="43.03" y1="14.18" x2="160.74" y2="631.63"/><line class="cls-1" x1="32.27" y1="16.33" x2="160.74" y2="631.63"/><line class="cls-1" x1="21.55" y1="18.67" x2="160.74" y2="631.63"/><line class="cls-1" x1="10.87" y1="21.19" x2="160.74" y2="631.63"/><line class="cls-1" x1="0.24" y1="23.9" x2="160.74" y2="631.63"/><line class="cls-2" x1="418.42" y1="24.97" x2="243" y2="628.56"/><line class="cls-2" x1="418.42" y1="24.97" x2="243" y2="628.56"/><line class="cls-2" x1="407.86" y1="22" x2="243" y2="628.56"/><line class="cls-2" x1="397.25" y1="19.22" x2="243" y2="628.56"/><line class="cls-2" x1="386.59" y1="16.62" x2="243" y2="628.56"/><line class="cls-2" x1="375.89" y1="14.21" x2="243" y2="628.56"/><line class="cls-2" x1="365.15" y1="11.98" x2="243" y2="628.56"/><line class="cls-2" x1="354.37" y1="9.94" x2="243" y2="628.56"/><line class="cls-2" x1="343.56" y1="8.09" x2="243" y2="628.56"/><line class="cls-2" x1="332.71" y1="6.43" x2="243" y2="628.56"/><line class="cls-2" x1="321.84" y1="4.96" x2="243" y2="628.56"/><line class="cls-2" x1="310.95" y1="3.68" x2="243" y2="628.56"/><line class="cls-2" x1="300.03" y1="2.59" x2="243" y2="628.56"/><line class="cls-2" x1="289.1" y1="1.69" x2="243" y2="628.56"/><line class="cls-2" x1="278.15" y1="0.98" x2="243" y2="628.56"/><line class="cls-2" x1="267.19" y1="0.46" x2="243" y2="628.56"/><line class="cls-2" x1="256.23" y1="0.14" x2="243" y2="628.56"/><line class="cls-2" x1="245.26" x2="243" y2="628.56"/><line class="cls-2" x1="234.29" y1="0.06" x2="243" y2="628.56"/><line class="cls-2" x1="223.32" y1="0.3" x2="243" y2="628.56"/><line class="cls-2" x1="212.36" y1="0.74" x2="243" y2="628.56"/><line class="cls-2" x1="201.4" y1="1.37" x2="243" y2="628.56"/><line class="cls-2" x1="190.47" y1="2.2" x2="243" y2="628.56"/><line class="cls-2" x1="179.54" y1="3.21" x2="243" y2="628.56"/><line class="cls-2" x1="168.64" y1="4.41" x2="243" y2="628.56"/><line class="cls-2" x1="157.76" y1="5.8" x2="243" y2="628.56"/><line class="cls-2" x1="146.9" y1="7.39" x2="243" y2="628.56"/><line class="cls-2" x1="136.07" y1="9.16" x2="243" y2="628.56"/><line class="cls-2" x1="125.28" y1="11.12" x2="243" y2="628.56"/><line class="cls-2" x1="114.52" y1="13.27" x2="243" y2="628.56"/><line class="cls-2" x1="103.8" y1="15.6" x2="243" y2="628.56"/><line class="cls-2" x1="93.13" y1="18.13" x2="243" y2="628.56"/><line class="cls-2" x1="82.5" y1="20.83" x2="243" y2="628.56"/></svg>