<svg id="Layer_1" data-name="Layer 1" xmlns="http://www.w3.org/2000/svg" viewBox="0 0 1975.07 940.67"><defs><style>.cls-1,.cls-2{fill:none;stroke-miterlimit:10;}.cls-1{stroke:#fff;}.cls-2{stroke:aqua;}</style></defs><polygon class="cls-1" points="305.12 313.46 608.35 313.46 456.73 1.4 305.12 313.46"/><polygon class="cls-1" points="320.28 297.86 593.19 297.86 456.73 17 320.28 297.86"/><polygon class="cls-1" points="333.92 283.82 579.54 283.82 456.73 31.05 333.92 283.82"/><polygon class="cls-1" points="346.2 271.18 567.26 271.18 456.73 43.69 346.2 271.18"/><polygon class="cls-1" points="357.26 259.81 556.21 259.81 456.73 55.06 357.26 259.81"/><polygon class="cls-1" points="367.2 249.57 546.26 249.57 456.73 65.3 367.2 249.57"/><polygon class="cls-1" points="376.16 240.35 537.31 240.35 456.73 74.51 376.16 240.35"/><polygon class="cls-1" points="384.21 232.06 529.25 232.06 456.73 82.8 384.21 232.06"/><polygon class="cls-1" points="391.47 224.6 522 224.6 456.73 90.27 391.47 224.6"/><polygon class="cls-1" points="397.99 217.88 515.47 217.88 456.73 96.98 397.99 217.88"/><polygon class="cls-1" points="403.87 211.84 509.6 211.84 456.73 103.03 403.87 211.84"/><polygon class="cls-1" points="409.15 206.4 504.31 206.4 456.73 108.47 409.15 206.4"/><polygon class="cls-1" points="413.91 201.5 499.55 201.5 456.73 113.36 413.91 201.5"/><polygon class="cls-1" points="418.19 197.09 495.27 197.09 456.73 117.77 418.19 197.09"/><polygon class="cls-1" points="422.05 193.13 491.42 193.13 456.73 121.74 422.05 193.13"/><polygon class="cls-1" points="425.52 189.56 487.95 189.56 456.73 125.31 425.52 189.56"/><polygon class="cls-1" points="428.64 186.35 484.83 186.35 456.73 128.52 428.64 186.35"/><polygon class="cls-2" points="456.73 0.99 153.5 0.99 305.12 313.06 456.73 0.99"/><polygon class="cls-2" points="441.57 16.59 168.66 16.59 305.12 297.45 441.57 16.59"/><polygon class="cls-2" points="427.93 30.64 182.31 30.64 305.12 283.41 427.93 30.64"/><polygon class="cls-2" points="415.64 43.28 194.59 43.28 305.12 270.77 415.64 43.28"/><polygon class="cls-2" points="404.59 54.65 205.64 54.65 305.12 259.39 404.59 54.65"/><polygon class="cls-2" points="394.64 64.89 215.59 64.89 305.12 249.16 394.64 64.89"/><polygon class="cls-2" points="385.69 74.1 224.54 74.1 305.12 239.94 385.69 74.1"/><polygon class="cls-2" points="377.63 82.39 232.6 82.39 305.12 231.65 377.63 82.39"/><polygon class="cls-2" points="370.38 89.86 239.85 89.86 305.12 224.19 370.38 89.86"/><polygon class="cls-2" points="363.86 96.57 246.38 96.57 305.12 217.47 363.86 96.57"/><polygon class="cls-2" points="357.98 102.62 252.25 102.62 305.12 211.43 357.98 102.62"/><polygon class="cls-2" points="352.69 108.06 257.54 108.06 305.12 205.99 352.69 108.06"/><polygon class="cls-2" points="347.94 112.95 262.29 112.95 305.12 201.09 347.94 112.95"/><polygon class="cls-2" points="343.65 117.36 266.58 117.36 305.12 196.68 343.65 117.36"/><polygon class="cls-2" points="339.8 121.33 270.43 121.33 305.12 192.72 339.8 121.33"/><polygon class="cls-2" points="336.33 124.9 273.9 124.9 305.12 189.15 336.33 124.9"/><polygon class="cls-2" points="333.21 128.11 277.02 128.11 305.12 185.94 333.21 128.11"/><polygon class="cls-1" points="608.32 313.21 911.56 313.21 759.94 1.14 608.32 313.21"/><polygon class="cls-1" points="623.49 297.61 896.4 297.61 759.94 16.75 623.49 297.61"/><polygon class="cls-1" points="637.13 283.56 882.75 283.56 759.94 30.79 637.13 283.56"/><polygon class="cls-1" points="649.41 270.92 870.47 270.92 759.94 43.43 649.41 270.92"/><polygon class="cls-1" points="660.47 259.55 859.42 259.55 759.94 54.8 660.47 259.55"/><polygon class="cls-1" points="670.41 249.31 849.47 249.31 759.94 65.04 670.41 249.31"/><polygon class="cls-1" points="679.37 240.1 840.52 240.1 759.94 74.25 679.37 240.1"/><polygon class="cls-1" points="687.42 231.81 832.46 231.81 759.94 82.55 687.42 231.81"/><polygon class="cls-1" points="694.67 224.34 825.21 224.34 759.94 90.01 694.67 224.34"/><polygon class="cls-1" points="701.2 217.63 818.68 217.63 759.94 96.73 701.2 217.63"/><polygon class="cls-1" points="707.08 211.58 812.81 211.58 759.94 102.77 707.08 211.58"/><polygon class="cls-1" points="712.36 206.14 807.52 206.14 759.94 108.21 712.36 206.14"/><polygon class="cls-1" points="717.12 201.24 802.76 201.24 759.94 113.11 717.12 201.24"/><polygon class="cls-1" points="721.4 196.84 798.48 196.84 759.94 117.52 721.4 196.84"/><polygon class="cls-1" points="725.26 192.87 794.63 192.87 759.94 121.48 725.26 192.87"/><polygon class="cls-1" points="728.73 189.3 791.16 189.3 759.94 125.05 728.73 189.3"/><polygon class="cls-1" points="731.85 186.09 788.04 186.09 759.94 128.26 731.85 186.09"/><polygon class="cls-2" points="759.94 0.73 456.71 0.73 608.32 312.8 759.94 0.73"/><polygon class="cls-2" points="744.78 16.34 471.87 16.34 608.32 297.19 744.78 16.34"/><polygon class="cls-2" points="731.13 30.38 485.51 30.38 608.32 283.15 731.13 30.38"/><polygon class="cls-2" points="718.85 43.02 497.8 43.02 608.32 270.51 718.85 43.02"/><polygon class="cls-2" points="707.8 54.39 508.85 54.39 608.32 259.14 707.8 54.39"/><polygon class="cls-2" points="697.85 64.63 518.79 64.63 608.32 248.9 697.85 64.63"/><polygon class="cls-2" points="688.9 73.84 527.75 73.84 608.32 239.69 688.9 73.84"/><polygon class="cls-2" points="680.84 82.14 535.81 82.14 608.32 231.4 680.84 82.14"/><polygon class="cls-2" points="673.59 89.6 543.06 89.6 608.32 223.93 673.59 89.6"/><polygon class="cls-2" points="667.06 96.32 549.58 96.32 608.32 217.22 667.06 96.32"/><polygon class="cls-2" points="661.19 102.36 555.46 102.36 608.32 211.17 661.19 102.36"/><polygon class="cls-2" points="655.9 107.8 560.75 107.8 608.32 205.73 655.9 107.8"/><polygon class="cls-2" points="651.14 112.7 565.5 112.7 608.32 200.83 651.14 112.7"/><polygon class="cls-2" points="646.86 117.11 569.78 117.11 608.32 196.43 646.86 117.11"/><polygon class="cls-2" points="643.01 121.07 573.64 121.07 608.32 192.46 643.01 121.07"/><polygon class="cls-2" points="639.54 124.64 577.11 124.64 608.32 188.89 639.54 124.64"/><polygon class="cls-2" points="636.42 127.85 580.23 127.85 608.32 185.68 636.42 127.85"/><polygon class="cls-1" points="911.88 313.46 1215.11 313.46 1063.49 1.4 911.88 313.46"/><polygon class="cls-1" points="927.04 297.86 1199.95 297.86 1063.49 17 927.04 297.86"/><polygon class="cls-1" points="940.68 283.82 1186.3 283.82 1063.49 31.05 940.68 283.82"/><polygon class="cls-1" points="952.96 271.18 1174.02 271.18 1063.49 43.69 952.96 271.18"/><polygon class="cls-1" points="964.02 259.81 1162.97 259.81 1063.49 55.06 964.02 259.81"/><polygon class="cls-1" points="973.96 249.57 1153.02 249.57 1063.49 65.3 973.96 249.57"/><polygon class="cls-1" points="982.92 240.35 1144.07 240.35 1063.49 74.51 982.92 240.35"/><polygon class="cls-1" points="990.97 232.06 1136.01 232.06 1063.49 82.8 990.97 232.06"/><polygon class="cls-1" points="998.23 224.6 1128.76 224.6 1063.49 90.27 998.23 224.6"/><polygon class="cls-1" points="1004.75 217.88 1122.23 217.88 1063.49 96.98 1004.75 217.88"/><polygon class="cls-1" points="1010.63 211.84 1116.36 211.84 1063.49 103.03 1010.63 211.84"/><polygon class="cls-1" points="1015.91 206.4 1111.07 206.4 1063.49 108.47 1015.91 206.4"/><polygon class="cls-1" points="1020.67 201.5 1106.31 201.5 1063.49 113.36 1020.67 201.5"/><polygon class="cls-1" points="1024.95 197.09 1102.03 197.09 1063.49 117.77 1024.95 197.09"/><polygon class="cls-1" points="1028.81 193.13 1098.18 193.13 1063.49 121.74 1028.81 193.13"/><polygon class="cls-1" points="1032.28 189.56 1094.71 189.56 1063.49 125.31 1032.28 189.56"/><polygon class="cls-1" points="1035.4 186.35 1091.59 186.35 1063.49 128.52 1035.4 186.35"/><polygon class="cls-2" points="1063.49 0.99 760.26 0.99 911.88 313.06 1063.49 0.99"/><polygon class="cls-2" points="1048.33 16.59 775.42 16.59 911.88 297.45 1048.33 16.59"/><polygon class="cls-2" points="1034.68 30.64 789.07 30.64 911.88 283.41 1034.68 30.64"/><polygon class="cls-2" points="1022.4 43.28 801.35 43.28 911.88 270.77 1022.4 43.28"/><polygon class="cls-2" points="1011.35 54.65 812.4 54.65 911.88 259.39 1011.35 54.65"/><polygon class="cls-2" points="1001.4 64.89 822.35 64.89 911.88 249.16 1001.4 64.89"/><polygon class="cls-2" points="992.45 74.1 831.3 74.1 911.88 239.94 992.45 74.1"/><polygon class="cls-2" points="984.39 82.39 839.36 82.39 911.88 231.65 984.39 82.39"/><polygon class="cls-2" points="977.14 89.86 846.61 89.86 911.88 224.19 977.14 89.86"/><polygon class="cls-2" points="970.62 96.57 853.13 96.57 911.88 217.47 970.62 96.57"/><polygon class="cls-2" points="964.74 102.62 859.01 102.62 911.88 211.43 964.74 102.62"/><polygon class="cls-2" points="959.45 108.06 864.3 108.06 911.88 205.99 959.45 108.06"/><polygon class="cls-2" points="954.7 112.95 869.05 112.95 911.88 201.09 954.7 112.95"/><polygon class="cls-2" points="950.41 117.36 873.34 117.36 911.88 196.68 950.41 117.36"/><polygon class="cls-2" points="946.56 121.33 877.19 121.33 911.88 192.72 946.56 121.33"/><polygon class="cls-2" points="943.09 124.9 880.66 124.9 911.88 189.15 943.09 124.9"/><polygon class="cls-2" points="939.97 128.11 883.78 128.11 911.88 185.94 939.97 128.11"/><polygon class="cls-1" points="1215.08 313.21 1518.32 313.21 1366.7 1.14 1215.08 313.21"/><polygon class="cls-1" points="1230.24 297.61 1503.16 297.61 1366.7 16.75 1230.24 297.61"/><polygon class="cls-1" points="1243.89 283.56 1489.51 283.56 1366.7 30.79 1243.89 283.56"/><polygon class="cls-1" points="1256.17 270.92 1477.23 270.92 1366.7 43.43 1256.17 270.92"/><polygon class="cls-1" points="1267.22 259.55 1466.18 259.55 1366.7 54.8 1267.22 259.55"/><polygon class="cls-1" points="1277.17 249.31 1456.23 249.31 1366.7 65.04 1277.17 249.31"/><polygon class="cls-1" points="1286.13 240.1 1447.28 240.1 1366.7 74.25 1286.13 240.1"/><polygon class="cls-1" points="1294.18 231.81 1439.22 231.81 1366.7 82.55 1294.18 231.81"/><polygon class="cls-1" points="1301.43 224.34 1431.97 224.34 1366.7 90.01 1301.43 224.34"/><polygon class="cls-1" points="1307.96 217.63 1425.44 217.63 1366.7 96.73 1307.96 217.63"/><polygon class="cls-1" points="1313.84 211.58 1419.57 211.58 1366.7 102.77 1313.84 211.58"/><polygon class="cls-1" points="1319.12 206.14 1414.28 206.14 1366.7 108.21 1319.12 206.14"/><polygon class="cls-1" points="1323.88 201.24 1409.52 201.24 1366.7 113.11 1323.88 201.24"/><polygon class="cls-1" points="1328.16 196.84 1405.24 196.84 1366.7 117.52 1328.16 196.84"/><polygon class="cls-1" points="1332.02 192.87 1401.39 192.87 1366.7 121.48 1332.02 192.87"/><polygon class="cls-1" points="1335.48 189.3 1397.92 189.3 1366.7 125.05 1335.48 189.3"/><polygon class="cls-1" points="1338.61 186.09 1394.8 186.09 1366.7 128.26 1338.61 186.09"/><polygon class="cls-2" points="1366.7 0.73 1063.47 0.73 1215.08 312.8 1366.7 0.73"/><polygon class="cls-2" points="1351.54 16.34 1078.63 16.34 1215.08 297.19 1351.54 16.34"/><polygon class="cls-2" points="1337.89 30.38 1092.27 30.38 1215.08 283.15 1337.89 30.38"/><polygon class="cls-2" points="1325.61 43.02 1104.55 43.02 1215.08 270.51 1325.61 43.02"/><polygon class="cls-2" points="1314.56 54.39 1115.61 54.39 1215.08 259.14 1314.56 54.39"/><polygon class="cls-2" points="1304.61 64.63 1125.56 64.63 1215.08 248.9 1304.61 64.63"/><polygon class="cls-2" points="1295.66 73.84 1134.51 73.84 1215.08 239.69 1295.66 73.84"/><polygon class="cls-2" points="1287.6 82.14 1142.57 82.14 1215.08 231.4 1287.6 82.14"/><polygon class="cls-2" points="1280.35 89.6 1149.82 89.6 1215.08 223.93 1280.35 89.6"/><polygon class="cls-2" points="1273.82 96.32 1156.34 96.32 1215.08 217.22 1273.82 96.32"/><polygon class="cls-2" points="1267.95 102.36 1162.22 102.36 1215.08 211.17 1267.95 102.36"/><polygon class="cls-2" points="1262.66 107.8 1167.5 107.8 1215.08 205.73 1262.66 107.8"/><polygon class="cls-2" points="1257.9 112.7 1172.26 112.7 1215.08 200.83 1257.9 112.7"/><polygon class="cls-2" points="1253.62 117.11 1176.54 117.11 1215.08 196.43 1253.62 117.11"/><polygon class="cls-2" points="1249.77 121.07 1180.4 121.07 1215.08 192.46 1249.77 121.07"/><polygon class="cls-2" points="1246.3 124.64 1183.87 124.64 1215.08 188.89 1246.3 124.64"/><polygon class="cls-2" points="1243.18 127.85 1186.99 127.85 1215.08 185.68 1243.18 127.85"/><polygon class="cls-1" points="152.66 626.2 455.89 626.2 304.27 314.13 152.66 626.2"/><polygon class="cls-1" points="167.82 610.59 440.73 610.59 304.27 329.74 167.82 610.59"/><polygon class="cls-1" points="181.46 596.55 427.08 596.55 304.27 343.78 181.46 596.55"/><polygon class="cls-1" points="193.75 583.91 414.8 583.91 304.27 356.42 193.75 583.91"/><polygon class="cls-1" points="204.8 572.54 403.75 572.54 304.27 367.79 204.8 572.54"/><polygon class="cls-1" points="214.75 562.3 393.8 562.3 304.27 378.03 214.75 562.3"/><polygon class="cls-1" points="223.7 553.09 384.85 553.09 304.27 387.24 223.7 553.09"/><polygon class="cls-1" points="231.76 544.79 376.79 544.79 304.27 395.53 231.76 544.79"/><polygon class="cls-1" points="239.01 537.33 369.54 537.33 304.27 403 239.01 537.33"/><polygon class="cls-1" points="245.53 530.61 363.01 530.61 304.27 409.71 245.53 530.61"/><polygon class="cls-1" points="251.41 524.57 357.14 524.57 304.27 415.76 251.41 524.57"/><polygon class="cls-1" points="256.69 519.13 351.85 519.13 304.27 421.2 256.69 519.13"/><polygon class="cls-1" points="261.45 514.23 347.1 514.23 304.27 426.1 261.45 514.23"/><polygon class="cls-1" points="265.74 509.82 342.81 509.82 304.27 430.5 265.74 509.82"/><polygon class="cls-1" points="269.59 505.86 338.96 505.86 304.27 434.47 269.59 505.86"/><polygon class="cls-1" points="273.06 502.29 335.49 502.29 304.27 438.04 273.06 502.29"/><polygon class="cls-1" points="276.18 499.08 332.37 499.08 304.27 441.25 276.18 499.08"/><polygon class="cls-2" points="1518.66 313.72 1215.42 313.72 1367.04 625.78 1518.66 313.72"/><polygon class="cls-2" points="1503.49 329.32 1230.58 329.32 1367.04 610.18 1503.49 329.32"/><polygon class="cls-2" points="1489.85 343.37 1244.23 343.37 1367.04 596.14 1489.85 343.37"/><polygon class="cls-2" points="1477.57 356.01 1256.51 356.01 1367.04 583.5 1477.57 356.01"/><polygon class="cls-2" points="1466.52 367.38 1267.56 367.38 1367.04 572.13 1466.52 367.38"/><polygon class="cls-2" points="1456.57 377.62 1277.51 377.62 1367.04 561.89 1456.57 377.62"/><polygon class="cls-2" points="1447.62 386.83 1286.46 386.83 1367.04 552.67 1447.62 386.83"/><polygon class="cls-2" points="1439.56 395.12 1294.52 395.12 1367.04 544.38 1439.56 395.12"/><polygon class="cls-2" points="1432.31 402.59 1301.77 402.59 1367.04 536.92 1432.31 402.59"/><polygon class="cls-2" points="1425.78 409.3 1308.3 409.3 1367.04 530.2 1425.78 409.3"/><polygon class="cls-2" points="1419.9 415.35 1314.17 415.35 1367.04 524.16 1419.9 415.35"/><polygon class="cls-2" points="1414.62 420.79 1319.46 420.79 1367.04 518.72 1414.62 420.79"/><polygon class="cls-2" points="1409.86 425.69 1324.22 425.69 1367.04 513.82 1409.86 425.69"/><polygon class="cls-2" points="1405.58 430.09 1328.5 430.09 1367.04 509.41 1405.58 430.09"/><polygon class="cls-2" points="1401.72 434.06 1332.35 434.06 1367.04 505.45 1401.72 434.06"/><polygon class="cls-2" points="1398.26 437.63 1335.82 437.63 1367.04 501.88 1398.26 437.63"/><polygon class="cls-2" points="1395.13 440.84 1338.94 440.84 1367.04 498.67 1395.13 440.84"/><polygon class="cls-1" points="455.87 625.94 759.1 625.94 607.48 313.88 455.87 625.94"/><polygon class="cls-1" points="471.03 610.34 743.94 610.34 607.48 329.48 471.03 610.34"/><polygon class="cls-1" points="484.67 596.29 730.29 596.29 607.48 343.52 484.67 596.29"/><polygon class="cls-1" points="496.95 583.65 718.01 583.65 607.48 356.16 496.95 583.65"/><polygon class="cls-1" points="508.01 572.28 706.96 572.28 607.48 367.53 508.01 572.28"/><polygon class="cls-1" points="517.95 562.04 697.01 562.04 607.48 377.77 517.95 562.04"/><polygon class="cls-1" points="526.91 552.83 688.06 552.83 607.48 386.99 526.91 552.83"/><polygon class="cls-1" points="534.97 544.54 680 544.54 607.48 395.28 534.97 544.54"/><polygon class="cls-1" points="542.22 537.07 672.75 537.07 607.48 402.74 542.22 537.07"/><polygon class="cls-1" points="548.74 530.36 666.22 530.36 607.48 409.46 548.74 530.36"/><polygon class="cls-1" points="554.62 524.31 660.35 524.31 607.48 415.5 554.62 524.31"/><polygon class="cls-1" points="559.9 518.87 655.06 518.87 607.48 420.94 559.9 518.87"/><polygon class="cls-1" points="564.66 513.97 650.3 513.97 607.48 425.84 564.66 513.97"/><polygon class="cls-1" points="568.94 509.57 646.02 509.57 607.48 430.25 568.94 509.57"/><polygon class="cls-1" points="572.8 505.6 642.17 505.6 607.48 434.21 572.8 505.6"/><polygon class="cls-1" points="576.27 502.03 638.7 502.03 607.48 437.78 576.27 502.03"/><polygon class="cls-1" points="579.39 498.82 635.58 498.82 607.48 440.99 579.39 498.82"/><polygon class="cls-2" points="607.48 313.46 304.25 313.46 455.87 625.53 607.48 313.46"/><polygon class="cls-2" points="592.32 329.07 319.41 329.07 455.87 609.92 592.32 329.07"/><polygon class="cls-2" points="578.67 343.11 333.06 343.11 455.87 595.88 578.67 343.11"/><polygon class="cls-2" points="566.39 355.75 345.34 355.75 455.87 583.24 566.39 355.75"/><polygon class="cls-2" points="555.34 367.12 356.39 367.12 455.87 571.87 555.34 367.12"/><polygon class="cls-2" points="545.39 377.36 366.34 377.36 455.87 561.63 545.39 377.36"/><polygon class="cls-2" points="536.44 386.57 375.29 386.57 455.87 552.42 536.44 386.57"/><polygon class="cls-2" points="528.38 394.87 383.35 394.87 455.87 544.13 528.38 394.87"/><polygon class="cls-2" points="521.13 402.33 390.6 402.33 455.87 536.66 521.13 402.33"/><polygon class="cls-2" points="514.61 409.05 397.13 409.05 455.87 529.95 514.61 409.05"/><polygon class="cls-2" points="508.73 415.09 403 415.09 455.87 523.9 508.73 415.09"/><polygon class="cls-2" points="503.44 420.53 408.29 420.53 455.87 518.46 503.44 420.53"/><polygon class="cls-2" points="498.69 425.43 413.04 425.43 455.87 513.56 498.69 425.43"/><polygon class="cls-2" points="494.4 429.83 417.33 429.83 455.87 509.16 494.4 429.83"/><polygon class="cls-2" points="490.55 433.8 421.18 433.8 455.87 505.19 490.55 433.8"/><polygon class="cls-2" points="487.08 437.37 424.65 437.37 455.87 501.62 487.08 437.37"/><polygon class="cls-2" points="483.96 440.58 427.77 440.58 455.87 498.41 483.96 440.58"/><polygon class="cls-1" points="759.42 626.2 1062.65 626.2 911.03 314.13 759.42 626.2"/><polygon class="cls-1" points="774.58 610.59 1047.49 610.59 911.03 329.74 774.58 610.59"/><polygon class="cls-1" points="788.22 596.55 1033.84 596.55 911.03 343.78 788.22 596.55"/><polygon class="cls-1" points="800.5 583.91 1021.56 583.91 911.03 356.42 800.5 583.91"/><polygon class="cls-1" points="811.56 572.54 1010.51 572.54 911.03 367.79 811.56 572.54"/><polygon class="cls-1" points="821.5 562.3 1000.56 562.3 911.03 378.03 821.5 562.3"/><polygon class="cls-1" points="830.46 553.09 991.61 553.09 911.03 387.24 830.46 553.09"/><polygon class="cls-1" points="838.52 544.79 983.55 544.79 911.03 395.53 838.52 544.79"/><polygon class="cls-1" points="845.77 537.33 976.3 537.33 911.03 403 845.77 537.33"/><polygon class="cls-1" points="852.29 530.61 969.77 530.61 911.03 409.71 852.29 530.61"/><polygon class="cls-1" points="858.17 524.57 963.9 524.57 911.03 415.76 858.17 524.57"/><polygon class="cls-1" points="863.46 519.13 958.61 519.13 911.03 421.2 863.46 519.13"/><polygon class="cls-1" points="868.21 514.23 953.86 514.23 911.03 426.1 868.21 514.23"/><polygon class="cls-1" points="872.5 509.82 949.57 509.82 911.03 430.5 872.5 509.82"/><polygon class="cls-1" points="876.35 505.86 945.72 505.86 911.03 434.47 876.35 505.86"/><polygon class="cls-1" points="879.82 502.29 942.25 502.29 911.03 438.04 879.82 502.29"/><polygon class="cls-1" points="882.94 499.08 939.13 499.08 911.03 441.25 882.94 499.08"/><polygon class="cls-2" points="911.03 313.72 607.8 313.72 759.42 625.78 911.03 313.72"/><polygon class="cls-2" points="895.87 329.32 622.96 329.32 759.42 610.18 895.87 329.32"/><polygon class="cls-2" points="882.23 343.37 636.61 343.37 759.42 596.14 882.23 343.37"/><polygon class="cls-2" points="869.95 356.01 648.89 356.01 759.42 583.5 869.95 356.01"/><polygon class="cls-2" points="858.89 367.38 659.94 367.38 759.42 572.13 858.89 367.38"/><polygon class="cls-2" points="848.95 377.62 669.89 377.62 759.42 561.89 848.95 377.62"/><polygon class="cls-2" points="839.99 386.83 678.84 386.83 759.42 552.67 839.99 386.83"/><polygon class="cls-2" points="831.93 395.12 686.9 395.12 759.42 544.38 831.93 395.12"/><polygon class="cls-2" points="824.68 402.59 694.15 402.59 759.42 536.92 824.68 402.59"/><polygon class="cls-2" points="818.16 409.3 700.68 409.3 759.42 530.2 818.16 409.3"/><polygon class="cls-2" points="812.28 415.35 706.55 415.35 759.42 524.16 812.28 415.35"/><polygon class="cls-2" points="807 420.79 711.84 420.79 759.42 518.72 807 420.79"/><polygon class="cls-2" points="802.24 425.69 716.6 425.69 759.42 513.82 802.24 425.69"/><polygon class="cls-2" points="797.96 430.09 720.88 430.09 759.42 509.41 797.96 430.09"/><polygon class="cls-2" points="794.1 434.06 724.73 434.06 759.42 505.45 794.1 434.06"/><polygon class="cls-2" points="790.63 437.63 728.2 437.63 759.42 501.88 790.63 437.63"/><polygon class="cls-2" points="787.51 440.84 731.32 440.84 759.42 498.67 787.51 440.84"/><polygon class="cls-1" points="1062.63 625.94 1365.86 625.94 1214.24 313.88 1062.63 625.94"/><polygon class="cls-1" points="1077.79 610.34 1350.7 610.34 1214.24 329.48 1077.79 610.34"/><polygon class="cls-1" points="1091.43 596.29 1337.05 596.29 1214.24 343.52 1091.43 596.29"/><polygon class="cls-1" points="1103.71 583.65 1324.77 583.65 1214.24 356.16 1103.71 583.65"/><polygon class="cls-1" points="1114.77 572.28 1313.72 572.28 1214.24 367.53 1114.77 572.28"/><polygon class="cls-1" points="1124.71 562.04 1303.77 562.04 1214.24 377.77 1124.71 562.04"/><polygon class="cls-1" points="1133.67 552.83 1294.82 552.83 1214.24 386.99 1133.67 552.83"/><polygon class="cls-1" points="1141.72 544.54 1286.76 544.54 1214.24 395.28 1141.72 544.54"/><polygon class="cls-1" points="1148.98 537.07 1279.51 537.07 1214.24 402.74 1148.98 537.07"/><polygon class="cls-1" points="1155.5 530.36 1272.98 530.36 1214.24 409.46 1155.5 530.36"/><polygon class="cls-1" points="1161.38 524.31 1267.11 524.31 1214.24 415.5 1161.38 524.31"/><polygon class="cls-1" points="1166.66 518.87 1261.82 518.87 1214.24 420.94 1166.66 518.87"/><polygon class="cls-1" points="1171.42 513.97 1257.06 513.97 1214.24 425.84 1171.42 513.97"/><polygon class="cls-1" points="1175.7 509.57 1252.78 509.57 1214.24 430.25 1175.7 509.57"/><polygon class="cls-1" points="1179.56 505.6 1248.93 505.6 1214.24 434.21 1179.56 505.6"/><polygon class="cls-1" points="1183.03 502.03 1245.46 502.03 1214.24 437.78 1183.03 502.03"/><polygon class="cls-1" points="1186.15 498.82 1242.34 498.82 1214.24 440.99 1186.15 498.82"/><polygon class="cls-2" points="1214.24 313.46 911.01 313.46 1062.63 625.53 1214.24 313.46"/><polygon class="cls-2" points="1199.08 329.07 926.17 329.07 1062.63 609.92 1199.08 329.07"/><polygon class="cls-2" points="1185.43 343.11 939.82 343.11 1062.63 595.88 1185.43 343.11"/><polygon class="cls-2" points="1173.15 355.75 952.1 355.75 1062.63 583.24 1173.15 355.75"/><polygon class="cls-2" points="1162.1 367.12 963.15 367.12 1062.63 571.87 1162.1 367.12"/><polygon class="cls-2" points="1152.15 377.36 973.1 377.36 1062.63 561.63 1152.15 377.36"/><polygon class="cls-2" points="1143.2 386.57 982.05 386.57 1062.63 552.42 1143.2 386.57"/><polygon class="cls-2" points="1135.14 394.87 990.11 394.87 1062.63 544.13 1135.14 394.87"/><polygon class="cls-2" points="1127.89 402.33 997.36 402.33 1062.63 536.66 1127.89 402.33"/><polygon class="cls-2" points="1121.37 409.05 1003.88 409.05 1062.63 529.95 1121.37 409.05"/><polygon class="cls-2" points="1115.49 415.09 1009.76 415.09 1062.63 523.9 1115.49 415.09"/><polygon class="cls-2" points="1110.2 420.53 1015.05 420.53 1062.63 518.46 1110.2 420.53"/><polygon class="cls-2" points="1105.45 425.43 1019.8 425.43 1062.63 513.56 1105.45 425.43"/><polygon class="cls-2" points="1101.16 429.83 1024.09 429.83 1062.63 509.16 1101.16 429.83"/><polygon class="cls-2" points="1097.31 433.8 1027.94 433.8 1062.63 505.19 1097.31 433.8"/><polygon class="cls-2" points="1093.84 437.37 1031.41 437.37 1062.63 501.62 1093.84 437.37"/><polygon class="cls-2" points="1090.72 440.58 1034.53 440.58 1062.63 498.41 1090.72 440.58"/><polygon class="cls-1" points="304.12 939.47 607.35 939.47 455.73 627.4 304.12 939.47"/><polygon class="cls-1" points="319.28 923.86 592.19 923.86 455.73 643 319.28 923.86"/><polygon class="cls-1" points="332.92 909.82 578.54 909.82 455.73 657.05 332.92 909.82"/><polygon class="cls-1" points="345.2 897.18 566.26 897.18 455.73 669.69 345.2 897.18"/><polygon class="cls-1" points="356.26 885.8 555.21 885.8 455.73 681.06 356.26 885.8"/><polygon class="cls-1" points="366.2 875.57 545.26 875.57 455.73 691.3 366.2 875.57"/><polygon class="cls-1" points="375.16 866.36 536.31 866.36 455.73 700.51 375.16 866.36"/><polygon class="cls-1" points="383.21 858.06 528.25 858.06 455.73 708.8 383.21 858.06"/><polygon class="cls-1" points="390.47 850.6 521 850.6 455.73 716.27 390.47 850.6"/><polygon class="cls-1" points="396.99 843.88 514.47 843.88 455.73 722.98 396.99 843.88"/><polygon class="cls-1" points="402.87 837.84 508.6 837.84 455.73 729.03 402.87 837.84"/><polygon class="cls-1" points="408.15 832.4 503.31 832.4 455.73 734.47 408.15 832.4"/><polygon class="cls-1" points="412.91 827.5 498.55 827.5 455.73 739.37 412.91 827.5"/><polygon class="cls-1" points="417.19 823.09 494.27 823.09 455.73 743.77 417.19 823.09"/><polygon class="cls-1" points="421.05 819.13 490.42 819.13 455.73 747.74 421.05 819.13"/><polygon class="cls-1" points="424.52 815.56 486.95 815.56 455.73 751.31 424.52 815.56"/><polygon class="cls-1" points="427.64 812.35 483.83 812.35 455.73 754.52 427.64 812.35"/><polygon class="cls-2" points="455.73 626.99 152.5 626.99 304.12 939.05 455.73 626.99"/><polygon class="cls-2" points="440.57 642.59 167.66 642.59 304.12 923.45 440.57 642.59"/><polygon class="cls-2" points="426.93 656.64 181.31 656.64 304.12 909.41 426.93 656.64"/><polygon class="cls-2" points="414.64 669.28 193.59 669.28 304.12 896.77 414.64 669.28"/><polygon class="cls-2" points="403.59 680.65 204.64 680.65 304.12 885.39 403.59 680.65"/><polygon class="cls-2" points="393.64 690.89 214.59 690.89 304.12 875.16 393.64 690.89"/><polygon class="cls-2" points="384.69 700.1 223.54 700.1 304.12 865.95 384.69 700.1"/><polygon class="cls-2" points="376.63 708.39 231.6 708.39 304.12 857.65 376.63 708.39"/><polygon class="cls-2" points="369.38 715.86 238.85 715.86 304.12 850.19 369.38 715.86"/><polygon class="cls-2" points="362.86 722.57 245.38 722.57 304.12 843.47 362.86 722.57"/><polygon class="cls-2" points="356.98 728.62 251.25 728.62 304.12 837.43 356.98 728.62"/><polygon class="cls-2" points="351.69 734.06 256.54 734.06 304.12 831.99 351.69 734.06"/><polygon class="cls-2" points="346.94 738.96 261.29 738.96 304.12 827.09 346.94 738.96"/><polygon class="cls-2" points="342.65 743.36 265.58 743.36 304.12 822.68 342.65 743.36"/><polygon class="cls-2" points="338.8 747.33 269.43 747.33 304.12 818.72 338.8 747.33"/><polygon class="cls-2" points="335.33 750.9 272.9 750.9 304.12 815.15 335.33 750.9"/><polygon class="cls-2" points="332.21 754.11 276.02 754.11 304.12 811.94 332.21 754.11"/><polygon class="cls-1" points="607.32 939.21 910.56 939.21 758.94 627.14 607.32 939.21"/><polygon class="cls-1" points="622.49 923.61 895.4 923.61 758.94 642.75 622.49 923.61"/><polygon class="cls-1" points="636.13 909.56 881.75 909.56 758.94 656.79 636.13 909.56"/><polygon class="cls-1" points="648.41 896.92 869.47 896.92 758.94 669.43 648.41 896.92"/><polygon class="cls-1" points="659.47 885.55 858.42 885.55 758.94 680.8 659.47 885.55"/><polygon class="cls-1" points="669.41 875.31 848.47 875.31 758.94 691.04 669.41 875.31"/><polygon class="cls-1" points="678.37 866.1 839.52 866.1 758.94 700.25 678.37 866.1"/><polygon class="cls-1" points="686.42 857.81 831.46 857.81 758.94 708.55 686.42 857.81"/><polygon class="cls-1" points="693.67 850.34 824.21 850.34 758.94 716.01 693.67 850.34"/><polygon class="cls-1" points="700.2 843.63 817.68 843.63 758.94 722.73 700.2 843.63"/><polygon class="cls-1" points="706.08 837.58 811.81 837.58 758.94 728.77 706.08 837.58"/><polygon class="cls-1" points="711.36 832.14 806.52 832.14 758.94 734.21 711.36 832.14"/><polygon class="cls-1" points="716.12 827.24 801.76 827.24 758.94 739.11 716.12 827.24"/><polygon class="cls-1" points="720.4 822.84 797.48 822.84 758.94 743.51 720.4 822.84"/><polygon class="cls-1" points="724.26 818.87 793.63 818.87 758.94 747.48 724.26 818.87"/><polygon class="cls-1" points="727.73 815.3 790.16 815.3 758.94 751.05 727.73 815.3"/><polygon class="cls-1" points="730.85 812.09 787.04 812.09 758.94 754.26 730.85 812.09"/><polygon class="cls-2" points="758.94 626.73 455.71 626.73 607.32 938.8 758.94 626.73"/><polygon class="cls-2" points="743.78 642.34 470.87 642.34 607.32 923.2 743.78 642.34"/><polygon class="cls-2" points="730.13 656.38 484.51 656.38 607.32 909.15 730.13 656.38"/><polygon class="cls-2" points="717.85 669.02 496.8 669.02 607.32 896.51 717.85 669.02"/><polygon class="cls-2" points="706.8 680.39 507.85 680.39 607.32 885.14 706.8 680.39"/><polygon class="cls-2" points="696.85 690.63 517.79 690.63 607.32 874.9 696.85 690.63"/><polygon class="cls-2" points="687.9 699.84 526.75 699.84 607.32 865.69 687.9 699.84"/><polygon class="cls-2" points="679.84 708.14 534.81 708.14 607.32 857.4 679.84 708.14"/><polygon class="cls-2" points="672.59 715.6 542.06 715.6 607.32 849.93 672.59 715.6"/><polygon class="cls-2" points="666.06 722.32 548.58 722.32 607.32 843.22 666.06 722.32"/><polygon class="cls-2" points="660.19 728.36 554.46 728.36 607.32 837.17 660.19 728.36"/><polygon class="cls-2" points="654.9 733.8 559.75 733.8 607.32 831.73 654.9 733.8"/><polygon class="cls-2" points="650.14 738.7 564.5 738.7 607.32 826.83 650.14 738.7"/><polygon class="cls-2" points="645.86 743.11 568.78 743.11 607.32 822.43 645.86 743.11"/><polygon class="cls-2" points="642.01 747.07 572.64 747.07 607.32 818.46 642.01 747.07"/><polygon class="cls-2" points="638.54 750.64 576.11 750.64 607.32 814.89 638.54 750.64"/><polygon class="cls-2" points="635.42 753.85 579.23 753.85 607.32 811.68 635.42 753.85"/><polygon class="cls-1" points="910.88 939.47 1214.11 939.47 1062.49 627.4 910.88 939.47"/><polygon class="cls-1" points="926.04 923.86 1198.95 923.86 1062.49 643 926.04 923.86"/><polygon class="cls-1" points="939.68 909.82 1185.3 909.82 1062.49 657.05 939.68 909.82"/><polygon class="cls-1" points="951.96 897.18 1173.02 897.18 1062.49 669.69 951.96 897.18"/><polygon class="cls-1" points="963.02 885.8 1161.97 885.8 1062.49 681.06 963.02 885.8"/><polygon class="cls-1" points="972.96 875.57 1152.02 875.57 1062.49 691.3 972.96 875.57"/><polygon class="cls-1" points="981.92 866.36 1143.07 866.36 1062.49 700.51 981.92 866.36"/><polygon class="cls-1" points="989.97 858.06 1135.01 858.06 1062.49 708.8 989.97 858.06"/><polygon class="cls-1" points="997.23 850.6 1127.76 850.6 1062.49 716.27 997.23 850.6"/><polygon class="cls-1" points="1003.75 843.88 1121.23 843.88 1062.49 722.98 1003.75 843.88"/><polygon class="cls-1" points="1009.63 837.84 1115.36 837.84 1062.49 729.03 1009.63 837.84"/><polygon class="cls-1" points="1014.91 832.4 1110.07 832.4 1062.49 734.47 1014.91 832.4"/><polygon class="cls-1" points="1019.67 827.5 1105.31 827.5 1062.49 739.37 1019.67 827.5"/><polygon class="cls-1" points="1023.95 823.09 1101.03 823.09 1062.49 743.77 1023.95 823.09"/><polygon class="cls-1" points="1027.81 819.13 1097.18 819.13 1062.49 747.74 1027.81 819.13"/><polygon class="cls-1" points="1031.28 815.56 1093.71 815.56 1062.49 751.31 1031.28 815.56"/><polygon class="cls-1" points="1034.4 812.35 1090.59 812.35 1062.49 754.52 1034.4 812.35"/><polygon class="cls-2" points="1062.49 626.99 759.26 626.99 910.88 939.05 1062.49 626.99"/><polygon class="cls-2" points="1047.33 642.59 774.42 642.59 910.88 923.45 1047.33 642.59"/><polygon class="cls-2" points="1033.68 656.64 788.07 656.64 910.88 909.41 1033.68 656.64"/><polygon class="cls-2" points="1021.4 669.28 800.35 669.28 910.88 896.77 1021.4 669.28"/><polygon class="cls-2" points="1010.35 680.65 811.4 680.65 910.88 885.39 1010.35 680.65"/><polygon class="cls-2" points="1000.4 690.89 821.35 690.89 910.88 875.16 1000.4 690.89"/><polygon class="cls-2" points="991.45 700.1 830.3 700.1 910.88 865.95 991.45 700.1"/><polygon class="cls-2" points="983.39 708.39 838.36 708.39 910.88 857.65 983.39 708.39"/><polygon class="cls-2" points="976.14 715.86 845.61 715.86 910.88 850.19 976.14 715.86"/><polygon class="cls-2" points="969.62 722.57 852.13 722.57 910.88 843.47 969.62 722.57"/><polygon class="cls-2" points="963.74 728.62 858.01 728.62 910.88 837.43 963.74 728.62"/><polygon class="cls-2" points="958.45 734.06 863.3 734.06 910.88 831.99 958.45 734.06"/><polygon class="cls-2" points="953.7 738.96 868.05 738.96 910.88 827.09 953.7 738.96"/><polygon class="cls-2" points="949.41 743.36 872.34 743.36 910.88 822.68 949.41 743.36"/><polygon class="cls-2" points="945.56 747.33 876.19 747.33 910.88 818.72 945.56 747.33"/><polygon class="cls-2" points="942.09 750.9 879.66 750.9 910.88 815.15 942.09 750.9"/><polygon class="cls-2" points="938.97 754.11 882.78 754.11 910.88 811.94 938.97 754.11"/><polygon class="cls-1" points="1214.08 939.21 1517.32 939.21 1365.7 627.14 1214.08 939.21"/><polygon class="cls-1" points="1229.24 923.61 1502.16 923.61 1365.7 642.75 1229.24 923.61"/><polygon class="cls-1" points="1242.89 909.56 1488.51 909.56 1365.7 656.79 1242.89 909.56"/><polygon class="cls-1" points="1255.17 896.92 1476.23 896.92 1365.7 669.43 1255.17 896.92"/><polygon class="cls-1" points="1266.22 885.55 1465.18 885.55 1365.7 680.8 1266.22 885.55"/><polygon class="cls-1" points="1276.17 875.31 1455.23 875.31 1365.7 691.04 1276.17 875.31"/><polygon class="cls-1" points="1285.13 866.1 1446.28 866.1 1365.7 700.25 1285.13 866.1"/><polygon class="cls-1" points="1293.18 857.81 1438.22 857.81 1365.7 708.55 1293.18 857.81"/><polygon class="cls-1" points="1300.43 850.34 1430.97 850.34 1365.7 716.01 1300.43 850.34"/><polygon class="cls-1" points="1306.96 843.63 1424.44 843.63 1365.7 722.73 1306.96 843.63"/><polygon class="cls-1" points="1312.84 837.58 1418.57 837.58 1365.7 728.77 1312.84 837.58"/><polygon class="cls-1" points="1318.12 832.14 1413.28 832.14 1365.7 734.21 1318.12 832.14"/><polygon class="cls-1" points="1322.88 827.24 1408.52 827.24 1365.7 739.11 1322.88 827.24"/><polygon class="cls-1" points="1327.16 822.84 1404.24 822.84 1365.7 743.51 1327.16 822.84"/><polygon class="cls-1" points="1331.02 818.87 1400.39 818.87 1365.7 747.48 1331.02 818.87"/><polygon class="cls-1" points="1334.48 815.3 1396.92 815.3 1365.7 751.05 1334.48 815.3"/><polygon class="cls-1" points="1337.61 812.09 1393.8 812.09 1365.7 754.26 1337.61 812.09"/><polygon class="cls-2" points="1365.7 626.73 1062.47 626.73 1214.08 938.8 1365.7 626.73"/><polygon class="cls-2" points="1350.54 642.34 1077.63 642.34 1214.08 923.2 1350.54 642.34"/><polygon class="cls-2" points="1336.89 656.38 1091.27 656.38 1214.08 909.15 1336.89 656.38"/><polygon class="cls-2" points="1324.61 669.02 1103.55 669.02 1214.08 896.51 1324.61 669.02"/><polygon class="cls-2" points="1313.56 680.39 1114.61 680.39 1214.08 885.14 1313.56 680.39"/><polygon class="cls-2" points="1303.61 690.63 1124.56 690.63 1214.08 874.9 1303.61 690.63"/><polygon class="cls-2" points="1294.66 699.84 1133.51 699.84 1214.08 865.69 1294.66 699.84"/><polygon class="cls-2" points="1286.6 708.14 1141.57 708.14 1214.08 857.4 1286.6 708.14"/><polygon class="cls-2" points="1279.35 715.6 1148.82 715.6 1214.08 849.93 1279.35 715.6"/><polygon class="cls-2" points="1272.82 722.32 1155.34 722.32 1214.08 843.22 1272.82 722.32"/><polygon class="cls-2" points="1266.95 728.36 1161.22 728.36 1214.08 837.17 1266.95 728.36"/><polygon class="cls-2" points="1261.66 733.8 1166.5 733.8 1214.08 831.73 1261.66 733.8"/><polygon class="cls-2" points="1256.9 738.7 1171.26 738.7 1214.08 826.83 1256.9 738.7"/><polygon class="cls-2" points="1252.62 743.11 1175.54 743.11 1214.08 822.43 1252.62 743.11"/><polygon class="cls-2" points="1248.77 747.07 1179.4 747.07 1214.08 818.46 1248.77 747.07"/><polygon class="cls-2" points="1245.3 750.64 1182.87 750.64 1214.08 814.89 1245.3 750.64"/><polygon class="cls-2" points="1242.18 753.85 1185.99 753.85 1214.08 811.68 1242.18 753.85"/><polygon class="cls-1" points="1366.66 626.2 1669.89 626.2 1518.27 314.13 1366.66 626.2"/><polygon class="cls-1" points="1381.82 610.59 1654.73 610.59 1518.27 329.74 1381.82 610.59"/><polygon class="cls-1" points="1395.46 596.55 1641.08 596.55 1518.27 343.78 1395.46 596.55"/><polygon class="cls-1" points="1407.74 583.91 1628.8 583.91 1518.27 356.42 1407.74 583.91"/><polygon class="cls-1" points="1418.8 572.54 1617.75 572.54 1518.27 367.79 1418.8 572.54"/><polygon class="cls-1" points="1428.74 562.3 1607.8 562.3 1518.27 378.03 1428.74 562.3"/><polygon class="cls-1" points="1437.7 553.09 1598.85 553.09 1518.27 387.24 1437.7 553.09"/><polygon class="cls-1" points="1445.76 544.79 1590.79 544.79 1518.27 395.53 1445.76 544.79"/><polygon class="cls-1" points="1453.01 537.33 1583.54 537.33 1518.27 403 1453.01 537.33"/><polygon class="cls-1" points="1459.53 530.61 1577.01 530.61 1518.27 409.71 1459.53 530.61"/><polygon class="cls-1" points="1465.41 524.57 1571.14 524.57 1518.27 415.76 1465.41 524.57"/><polygon class="cls-1" points="1470.69 519.13 1565.85 519.13 1518.27 421.2 1470.69 519.13"/><polygon class="cls-1" points="1475.45 514.23 1561.1 514.23 1518.27 426.1 1475.45 514.23"/><polygon class="cls-1" points="1479.73 509.82 1556.81 509.82 1518.27 430.5 1479.73 509.82"/><polygon class="cls-1" points="1483.59 505.86 1552.96 505.86 1518.27 434.47 1483.59 505.86"/><polygon class="cls-1" points="1487.06 502.29 1549.49 502.29 1518.27 438.04 1487.06 502.29"/><polygon class="cls-1" points="1490.18 499.08 1546.37 499.08 1518.27 441.25 1490.18 499.08"/><polygon class="cls-2" points="1670.66 0.72 1367.42 0.72 1519.04 312.79 1670.66 0.72"/><polygon class="cls-2" points="1655.49 16.32 1382.58 16.32 1519.04 297.18 1655.49 16.32"/><polygon class="cls-2" points="1641.85 30.37 1396.23 30.37 1519.04 283.14 1641.85 30.37"/><polygon class="cls-2" points="1629.57 43.01 1408.51 43.01 1519.04 270.5 1629.57 43.01"/><polygon class="cls-2" points="1618.52 54.38 1419.56 54.38 1519.04 259.13 1618.52 54.38"/><polygon class="cls-2" points="1608.57 64.62 1429.51 64.62 1519.04 248.89 1608.57 64.62"/><polygon class="cls-2" points="1599.62 73.83 1438.46 73.83 1519.04 239.68 1599.62 73.83"/><polygon class="cls-2" points="1591.56 82.12 1446.52 82.12 1519.04 231.38 1591.56 82.12"/><polygon class="cls-2" points="1584.31 89.59 1453.77 89.59 1519.04 223.92 1584.31 89.59"/><polygon class="cls-2" points="1577.78 96.3 1460.3 96.3 1519.04 217.2 1577.78 96.3"/><polygon class="cls-2" points="1571.9 102.35 1466.17 102.35 1519.04 211.16 1571.9 102.35"/><polygon class="cls-2" points="1566.62 107.79 1471.46 107.79 1519.04 205.72 1566.62 107.79"/><polygon class="cls-2" points="1561.86 112.69 1476.22 112.69 1519.04 200.82 1561.86 112.69"/><polygon class="cls-2" points="1557.58 117.09 1480.5 117.09 1519.04 196.41 1557.58 117.09"/><polygon class="cls-2" points="1553.72 121.06 1484.35 121.06 1519.04 192.45 1553.72 121.06"/><polygon class="cls-2" points="1550.26 124.63 1487.82 124.63 1519.04 188.88 1550.26 124.63"/><polygon class="cls-2" points="1547.13 127.84 1490.94 127.84 1519.04 185.67 1547.13 127.84"/><polygon class="cls-1" points="0.86 939.94 304.1 939.94 152.48 627.88 0.86 939.94"/><polygon class="cls-1" points="16.03 924.34 288.94 924.34 152.48 643.48 16.03 924.34"/><polygon class="cls-1" points="29.67 910.29 275.29 910.29 152.48 657.52 29.67 910.29"/><polygon class="cls-1" points="41.95 897.65 263.01 897.65 152.48 670.16 41.95 897.65"/><polygon class="cls-1" points="53.01 886.28 251.96 886.28 152.48 681.53 53.01 886.28"/><polygon class="cls-1" points="62.95 876.04 242.01 876.04 152.48 691.77 62.95 876.04"/><polygon class="cls-1" points="71.91 866.83 233.06 866.83 152.48 700.99 71.91 866.83"/><polygon class="cls-1" points="79.97 858.54 225 858.54 152.48 709.28 79.97 858.54"/><polygon class="cls-1" points="87.22 851.07 217.75 851.07 152.48 716.74 87.22 851.07"/><polygon class="cls-1" points="93.74 844.36 211.22 844.36 152.48 723.46 93.74 844.36"/><polygon class="cls-1" points="99.62 838.31 205.35 838.31 152.48 729.5 99.62 838.31"/><polygon class="cls-1" points="104.9 832.87 200.06 832.87 152.48 734.94 104.9 832.87"/><polygon class="cls-1" points="109.66 827.97 195.3 827.97 152.48 739.84 109.66 827.97"/><polygon class="cls-1" points="113.94 823.57 191.02 823.57 152.48 744.25 113.94 823.57"/><polygon class="cls-1" points="117.8 819.6 187.17 819.6 152.48 748.21 117.8 819.6"/><polygon class="cls-1" points="121.27 816.03 183.7 816.03 152.48 751.78 121.27 816.03"/><polygon class="cls-1" points="124.39 812.82 180.58 812.82 152.48 754.99 124.39 812.82"/><polygon class="cls-2" points="1821.48 313.46 1518.25 313.46 1669.87 625.53 1821.48 313.46"/><polygon class="cls-2" points="1806.32 329.07 1533.41 329.07 1669.87 609.92 1806.32 329.07"/><polygon class="cls-2" points="1792.67 343.11 1547.06 343.11 1669.87 595.88 1792.67 343.11"/><polygon class="cls-2" points="1780.39 355.75 1559.34 355.75 1669.87 583.24 1780.39 355.75"/><polygon class="cls-2" points="1769.34 367.12 1570.39 367.12 1669.87 571.87 1769.34 367.12"/><polygon class="cls-2" points="1759.39 377.36 1580.34 377.36 1669.87 561.63 1759.39 377.36"/><polygon class="cls-2" points="1750.44 386.57 1589.29 386.57 1669.87 552.42 1750.44 386.57"/><polygon class="cls-2" points="1742.38 394.87 1597.35 394.87 1669.87 544.13 1742.38 394.87"/><polygon class="cls-2" points="1735.13 402.33 1604.6 402.33 1669.87 536.66 1735.13 402.33"/><polygon class="cls-2" points="1728.61 409.05 1611.13 409.05 1669.87 529.95 1728.61 409.05"/><polygon class="cls-2" points="1722.73 415.09 1617 415.09 1669.87 523.9 1722.73 415.09"/><polygon class="cls-2" points="1717.44 420.53 1622.29 420.53 1669.87 518.46 1717.44 420.53"/><polygon class="cls-2" points="1712.69 425.43 1627.04 425.43 1669.87 513.56 1712.69 425.43"/><polygon class="cls-2" points="1708.4 429.83 1631.33 429.83 1669.87 509.16 1708.4 429.83"/><polygon class="cls-2" points="1704.55 433.8 1635.18 433.8 1669.87 505.19 1704.55 433.8"/><polygon class="cls-2" points="1701.08 437.37 1638.65 437.37 1669.87 501.62 1701.08 437.37"/><polygon class="cls-2" points="1697.96 440.58 1641.77 440.58 1669.87 498.41 1697.96 440.58"/><polygon class="cls-1" points="1517.42 939.2 1820.65 939.2 1669.03 627.13 1517.42 939.2"/><polygon class="cls-1" points="1532.58 923.59 1805.49 923.59 1669.03 642.74 1532.58 923.59"/><polygon class="cls-1" points="1546.22 909.55 1791.84 909.55 1669.03 656.78 1546.22 909.55"/><polygon class="cls-1" points="1558.51 896.91 1779.56 896.91 1669.03 669.42 1558.51 896.91"/><polygon class="cls-1" points="1569.56 885.54 1768.51 885.54 1669.03 680.79 1569.56 885.54"/><polygon class="cls-1" points="1579.51 875.3 1758.56 875.3 1669.03 691.03 1579.51 875.3"/><polygon class="cls-1" points="1588.46 866.09 1749.61 866.09 1669.03 700.24 1588.46 866.09"/><polygon class="cls-1" points="1596.52 857.79 1741.55 857.79 1669.03 708.53 1596.52 857.79"/><polygon class="cls-1" points="1603.77 850.33 1734.3 850.33 1669.03 716 1603.77 850.33"/><polygon class="cls-1" points="1610.29 843.61 1727.77 843.61 1669.03 722.71 1610.29 843.61"/><polygon class="cls-1" points="1616.17 837.57 1721.9 837.57 1669.03 728.76 1616.17 837.57"/><polygon class="cls-1" points="1621.45 832.13 1716.61 832.13 1669.03 734.2 1621.45 832.13"/><polygon class="cls-1" points="1626.21 827.23 1711.86 827.23 1669.03 739.1 1626.21 827.23"/><polygon class="cls-1" points="1630.49 822.82 1707.57 822.82 1669.03 743.5 1630.49 822.82"/><polygon class="cls-1" points="1634.35 818.86 1703.72 818.86 1669.03 747.47 1634.35 818.86"/><polygon class="cls-1" points="1637.82 815.29 1700.25 815.29 1669.03 751.04 1637.82 815.29"/><polygon class="cls-1" points="1640.94 812.08 1697.13 812.08 1669.03 754.25 1640.94 812.08"/><polygon class="cls-2" points="304.03 313.72 0.8 313.72 152.42 625.78 304.03 313.72"/><polygon class="cls-2" points="288.87 329.32 15.96 329.32 152.42 610.18 288.87 329.32"/><polygon class="cls-2" points="275.23 343.37 29.61 343.37 152.42 596.14 275.23 343.37"/><polygon class="cls-2" points="262.94 356.01 41.89 356.01 152.42 583.5 262.94 356.01"/><polygon class="cls-2" points="251.89 367.38 52.94 367.38 152.42 572.13 251.89 367.38"/><polygon class="cls-2" points="241.94 377.62 62.89 377.62 152.42 561.89 241.94 377.62"/><polygon class="cls-2" points="232.99 386.83 71.84 386.83 152.42 552.67 232.99 386.83"/><polygon class="cls-2" points="224.93 395.12 79.9 395.12 152.42 544.38 224.93 395.12"/><polygon class="cls-2" points="217.68 402.59 87.15 402.59 152.42 536.92 217.68 402.59"/><polygon class="cls-2" points="211.16 409.3 93.68 409.3 152.42 530.2 211.16 409.3"/><polygon class="cls-2" points="205.28 415.35 99.55 415.35 152.42 524.16 205.28 415.35"/><polygon class="cls-2" points="200 420.79 104.84 420.79 152.42 518.72 200 420.79"/><polygon class="cls-2" points="195.24 425.69 109.59 425.69 152.42 513.82 195.24 425.69"/><polygon class="cls-2" points="190.96 430.09 113.88 430.09 152.42 509.41 190.96 430.09"/><polygon class="cls-2" points="187.1 434.06 117.73 434.06 152.42 505.45 187.1 434.06"/><polygon class="cls-2" points="183.63 437.63 121.2 437.63 152.42 501.88 183.63 437.63"/><polygon class="cls-2" points="180.51 440.84 124.32 440.84 152.42 498.67 180.51 440.84"/><polygon class="cls-1" points="1519.63 313.94 1822.86 313.94 1671.24 1.88 1519.63 313.94"/><polygon class="cls-1" points="1534.79 298.33 1807.7 298.33 1671.24 17.48 1534.79 298.33"/><polygon class="cls-1" points="1548.43 284.29 1794.05 284.29 1671.24 31.52 1548.43 284.29"/><polygon class="cls-1" points="1560.71 271.65 1781.77 271.65 1671.24 44.16 1560.71 271.65"/><polygon class="cls-1" points="1571.77 260.28 1770.72 260.28 1671.24 55.53 1571.77 260.28"/><polygon class="cls-1" points="1581.71 250.04 1760.77 250.04 1671.24 65.77 1581.71 250.04"/><polygon class="cls-1" points="1590.67 240.83 1751.82 240.83 1671.24 74.98 1590.67 240.83"/><polygon class="cls-1" points="1598.72 232.54 1743.76 232.54 1671.24 83.28 1598.72 232.54"/><polygon class="cls-1" points="1605.98 225.07 1736.51 225.07 1671.24 90.74 1605.98 225.07"/><polygon class="cls-1" points="1612.5 218.36 1729.98 218.36 1671.24 97.46 1612.5 218.36"/><polygon class="cls-1" points="1618.38 212.31 1724.11 212.31 1671.24 103.5 1618.38 212.31"/><polygon class="cls-1" points="1623.66 206.87 1718.82 206.87 1671.24 108.94 1623.66 206.87"/><polygon class="cls-1" points="1628.42 201.97 1714.06 201.97 1671.24 113.84 1628.42 201.97"/><polygon class="cls-1" points="1632.7 197.57 1709.78 197.57 1671.24 118.25 1632.7 197.57"/><polygon class="cls-1" points="1636.56 193.6 1705.93 193.6 1671.24 122.21 1636.56 193.6"/><polygon class="cls-1" points="1640.03 190.03 1702.46 190.03 1671.24 125.78 1640.03 190.03"/><polygon class="cls-1" points="1643.15 186.82 1699.34 186.82 1671.24 128.99 1643.15 186.82"/><polygon class="cls-2" points="1669.24 627.47 1366.01 627.47 1517.63 939.53 1669.24 627.47"/><polygon class="cls-2" points="1654.08 643.07 1381.17 643.07 1517.63 923.92 1654.08 643.07"/><polygon class="cls-2" points="1640.43 657.11 1394.82 657.11 1517.63 909.88 1640.43 657.11"/><polygon class="cls-2" points="1628.15 669.75 1407.1 669.75 1517.63 897.24 1628.15 669.75"/><polygon class="cls-2" points="1617.1 681.12 1418.15 681.12 1517.63 885.87 1617.1 681.12"/><polygon class="cls-2" points="1607.15 691.36 1428.1 691.36 1517.63 875.63 1607.15 691.36"/><polygon class="cls-2" points="1598.2 700.58 1437.05 700.58 1517.63 866.42 1598.2 700.58"/><polygon class="cls-2" points="1590.14 708.87 1445.11 708.87 1517.63 858.13 1590.14 708.87"/><polygon class="cls-2" points="1582.89 716.33 1452.36 716.33 1517.63 850.66 1582.89 716.33"/><polygon class="cls-2" points="1576.37 723.05 1458.88 723.05 1517.63 843.95 1576.37 723.05"/><polygon class="cls-2" points="1570.49 729.09 1464.76 729.09 1517.63 837.9 1570.49 729.09"/><polygon class="cls-2" points="1565.2 734.53 1470.05 734.53 1517.63 832.46 1565.2 734.53"/><polygon class="cls-2" points="1560.45 739.43 1474.8 739.43 1517.63 827.56 1560.45 739.43"/><polygon class="cls-2" points="1556.16 743.84 1479.09 743.84 1517.63 823.16 1556.16 743.84"/><polygon class="cls-2" points="1552.31 747.8 1482.94 747.8 1517.63 819.19 1552.31 747.8"/><polygon class="cls-2" points="1548.84 751.37 1486.41 751.37 1517.63 815.62 1548.84 751.37"/><polygon class="cls-2" points="1545.72 754.58 1489.53 754.58 1517.63 812.41 1545.72 754.58"/><polygon class="cls-1" points="2.04 313.82 305.27 313.82 153.66 1.75 2.04 313.82"/><polygon class="cls-1" points="17.2 298.21 290.11 298.21 153.66 17.36 17.2 298.21"/><polygon class="cls-1" points="30.85 284.17 276.47 284.17 153.66 31.4 30.85 284.17"/><polygon class="cls-1" points="43.13 271.53 264.19 271.53 153.66 44.04 43.13 271.53"/><polygon class="cls-1" points="54.18 260.16 253.13 260.16 153.66 55.41 54.18 260.16"/><polygon class="cls-1" points="64.13 249.92 243.19 249.92 153.66 65.65 64.13 249.92"/><polygon class="cls-1" points="73.08 240.71 234.23 240.71 153.66 74.86 73.08 240.71"/><polygon class="cls-1" points="81.14 232.42 226.18 232.42 153.66 83.16 81.14 232.42"/><polygon class="cls-1" points="88.39 224.95 218.92 224.95 153.66 90.62 88.39 224.95"/><polygon class="cls-1" points="94.92 218.24 212.4 218.24 153.66 97.34 94.92 218.24"/><polygon class="cls-1" points="100.79 212.19 206.52 212.19 153.66 103.38 100.79 212.19"/><polygon class="cls-1" points="106.08 206.75 201.24 206.75 153.66 108.82 106.08 206.75"/><polygon class="cls-1" points="110.83 201.85 196.48 201.85 153.66 113.72 110.83 201.85"/><polygon class="cls-1" points="115.12 197.45 192.2 197.45 153.66 118.13 115.12 197.45"/><polygon class="cls-1" points="118.97 193.48 188.34 193.48 153.66 122.09 118.97 193.48"/><polygon class="cls-1" points="122.44 189.91 184.87 189.91 153.66 125.66 122.44 189.91"/><polygon class="cls-1" points="125.56 186.7 181.75 186.7 153.66 128.87 125.56 186.7"/><polygon class="cls-1" points="1671.04 625.82 1974.27 625.82 1822.66 313.75 1671.04 625.82"/><polygon class="cls-1" points="1686.2 610.22 1959.11 610.22 1822.66 329.36 1686.2 610.22"/><polygon class="cls-1" points="1699.85 596.17 1945.47 596.17 1822.66 343.4 1699.85 596.17"/><polygon class="cls-1" points="1712.13 583.53 1933.19 583.53 1822.66 356.04 1712.13 583.53"/><polygon class="cls-1" points="1723.18 572.16 1922.13 572.16 1822.66 367.41 1723.18 572.16"/><polygon class="cls-1" points="1733.13 561.92 1912.18 561.92 1822.66 377.65 1733.13 561.92"/><polygon class="cls-1" points="1742.08 552.71 1903.23 552.71 1822.66 386.87 1742.08 552.71"/><polygon class="cls-1" points="1750.14 544.42 1895.17 544.42 1822.66 395.16 1750.14 544.42"/><polygon class="cls-1" points="1757.39 536.95 1887.92 536.95 1822.66 402.62 1757.39 536.95"/><polygon class="cls-1" points="1763.92 530.24 1881.4 530.24 1822.66 409.34 1763.92 530.24"/><polygon class="cls-1" points="1769.79 524.19 1875.52 524.19 1822.66 415.38 1769.79 524.19"/><polygon class="cls-1" points="1775.08 518.75 1870.24 518.75 1822.66 420.82 1775.08 518.75"/><polygon class="cls-1" points="1779.84 513.86 1865.48 513.86 1822.66 425.72 1779.84 513.86"/><polygon class="cls-1" points="1784.12 509.45 1861.2 509.45 1822.66 430.13 1784.12 509.45"/><polygon class="cls-1" points="1787.97 505.48 1857.34 505.48 1822.66 434.09 1787.97 505.48"/><polygon class="cls-1" points="1791.44 501.91 1853.87 501.91 1822.66 437.66 1791.44 501.91"/><polygon class="cls-1" points="1794.56 498.7 1850.75 498.7 1822.66 440.87 1794.56 498.7"/><polygon class="cls-2" points="1974.27 1.11 1671.04 1.11 1822.66 313.17 1974.27 1.11"/><polygon class="cls-2" points="1959.11 16.71 1686.2 16.71 1822.66 297.57 1959.11 16.71"/><polygon class="cls-2" points="1945.47 30.76 1699.85 30.76 1822.66 283.53 1945.47 30.76"/><polygon class="cls-2" points="1933.19 43.4 1712.13 43.4 1822.66 270.89 1933.19 43.4"/><polygon class="cls-2" points="1922.13 54.77 1723.18 54.77 1822.66 259.51 1922.13 54.77"/><polygon class="cls-2" points="1912.18 65.01 1733.13 65.01 1822.66 249.28 1912.18 65.01"/><polygon class="cls-2" points="1903.23 74.22 1742.08 74.22 1822.66 240.06 1903.23 74.22"/><polygon class="cls-2" points="1895.17 82.51 1750.14 82.51 1822.66 231.77 1895.17 82.51"/><polygon class="cls-2" points="1887.92 89.98 1757.39 89.98 1822.66 224.31 1887.92 89.98"/><polygon class="cls-2" points="1881.4 96.69 1763.92 96.69 1822.66 217.59 1881.4 96.69"/><polygon class="cls-2" points="1875.52 102.74 1769.79 102.74 1822.66 211.55 1875.52 102.74"/><polygon class="cls-2" points="1870.24 108.18 1775.08 108.18 1822.66 206.11 1870.24 108.18"/><polygon class="cls-2" points="1865.48 113.08 1779.84 113.08 1822.66 201.21 1865.48 113.08"/><polygon class="cls-2" points="1861.2 117.48 1784.12 117.48 1822.66 196.8 1861.2 117.48"/><polygon class="cls-2" points="1857.34 121.45 1787.97 121.45 1822.66 192.84 1857.34 121.45"/><polygon class="cls-2" points="1853.87 125.02 1791.44 125.02 1822.66 189.27 1853.87 125.02"/><polygon class="cls-2" points="1850.75 128.23 1794.56 128.23 1822.66 186.06 1850.75 128.23"/><polygon class="cls-2" points="1972.27 625.52 1669.04 625.52 1820.66 937.59 1972.27 625.52"/><polygon class="cls-2" points="1957.11 641.13 1684.2 641.13 1820.66 921.98 1957.11 641.13"/><polygon class="cls-2" points="1943.47 655.17 1697.85 655.17 1820.66 907.94 1943.47 655.17"/><polygon class="cls-2" points="1931.19 667.81 1710.13 667.81 1820.66 895.3 1931.19 667.81"/><polygon class="cls-2" points="1920.13 679.18 1721.18 679.18 1820.66 883.93 1920.13 679.18"/><polygon class="cls-2" points="1910.18 689.42 1731.13 689.42 1820.66 873.69 1910.18 689.42"/><polygon class="cls-2" points="1901.23 698.63 1740.08 698.63 1820.66 864.48 1901.23 698.63"/><polygon class="cls-2" points="1893.17 706.92 1748.14 706.92 1820.66 856.18 1893.17 706.92"/><polygon class="cls-2" points="1885.92 714.39 1755.39 714.39 1820.66 848.72 1885.92 714.39"/><polygon class="cls-2" points="1879.4 721.1 1761.92 721.1 1820.66 842 1879.4 721.1"/><polygon class="cls-2" points="1873.52 727.15 1767.79 727.15 1820.66 835.96 1873.52 727.15"/><polygon class="cls-2" points="1868.24 732.59 1773.08 732.59 1820.66 830.52 1868.24 732.59"/><polygon class="cls-2" points="1863.48 737.49 1777.84 737.49 1820.66 825.62 1863.48 737.49"/><polygon class="cls-2" points="1859.2 741.89 1782.12 741.89 1820.66 821.22 1859.2 741.89"/><polygon class="cls-2" points="1855.34 745.86 1785.97 745.86 1820.66 817.25 1855.34 745.86"/><polygon class="cls-2" points="1851.87 749.43 1789.44 749.43 1820.66 813.68 1851.87 749.43"/><polygon class="cls-2" points="1848.75 752.64 1792.56 752.64 1820.66 810.47 1848.75 752.64"/></svg>