<svg id="_4kant" data-name="4kant" xmlns="http://www.w3.org/2000/svg" viewBox="0 0 1459.89 806.68"><defs><style>.cls-1,.cls-2,.cls-3,.cls-4,.cls-5{fill:none;stroke-miterlimit:10;}.cls-1,.cls-3{stroke:aqua;}.cls-2,.cls-4,.cls-5{stroke:#fff;}.cls-3,.cls-4{stroke-width:0.5px;}.cls-5{stroke-width:0.75px;}</style></defs><rect class="cls-1" x="596.67" y="458.16" width="331.37" height="331.37"/><rect class="cls-1" x="604.96" y="466.45" width="314.8" height="314.8"/><rect class="cls-1" x="612.83" y="474.32" width="299.06" height="299.06"/><rect class="cls-1" x="620.31" y="481.8" width="284.11" height="284.11"/><rect class="cls-1" x="627.41" y="488.9" width="269.9" height="269.9"/><rect class="cls-1" x="634.16" y="495.65" width="256.41" height="256.41"/><rect class="cls-1" x="640.57" y="502.06" width="243.59" height="243.59"/><rect class="cls-1" x="646.66" y="508.15" width="231.41" height="231.41"/><rect class="cls-1" x="652.44" y="513.93" width="219.84" height="219.84"/><rect class="cls-1" x="657.94" y="519.43" width="208.84" height="208.84"/><rect class="cls-1" x="663.16" y="524.65" width="198.4" height="198.4"/><rect class="cls-1" x="668.12" y="529.61" width="188.48" height="188.48"/><rect class="cls-1" x="672.83" y="534.32" width="179.06" height="179.06"/><rect class="cls-1" x="677.31" y="538.8" width="170.1" height="170.1"/><rect class="cls-1" x="681.56" y="543.05" width="161.6" height="161.6"/><rect class="cls-1" x="685.6" y="547.09" width="153.52" height="153.52"/><rect class="cls-1" x="689.44" y="550.93" width="145.84" height="145.84"/><rect class="cls-1" x="693.08" y="554.57" width="138.55" height="138.55"/><rect class="cls-1" x="696.55" y="558.04" width="131.62" height="131.62"/><rect class="cls-1" x="699.84" y="561.33" width="125.04" height="125.04"/><rect class="cls-1" x="702.96" y="564.45" width="118.79" height="118.79"/><rect class="cls-1" x="705.93" y="567.42" width="112.85" height="112.85"/><rect class="cls-1" x="708.75" y="570.24" width="107.21" height="107.21"/><rect class="cls-1" x="711.43" y="572.92" width="101.85" height="101.85"/><rect class="cls-1" x="713.98" y="575.47" width="96.76" height="96.76"/><rect class="cls-1" x="716.4" y="577.89" width="91.92" height="91.92"/><rect class="cls-1" x="718.7" y="580.19" width="87.32" height="87.32"/><rect class="cls-2" x="720.88" y="582.37" width="82.96" height="82.96"/><rect class="cls-2" x="722.95" y="584.44" width="78.81" height="78.81"/><rect class="cls-2" x="724.92" y="586.41" width="74.87" height="74.87"/><rect class="cls-2" x="726.8" y="588.29" width="71.12" height="71.12"/><rect class="cls-2" x="728.57" y="590.06" width="67.57" height="67.57"/><rect class="cls-2" x="730.26" y="591.75" width="64.19" height="64.19"/><rect class="cls-2" x="731.87" y="593.36" width="60.98" height="60.98"/><rect class="cls-2" x="733.39" y="594.88" width="57.93" height="57.93"/><rect class="cls-2" x="734.84" y="596.33" width="55.03" height="55.03"/><rect class="cls-2" x="736.22" y="597.71" width="52.28" height="52.28"/><rect class="cls-2" x="737.52" y="599.01" width="49.67" height="49.67"/><rect class="cls-2" x="738.77" y="600.26" width="47.19" height="47.19"/><rect class="cls-2" x="739.95" y="601.44" width="44.83" height="44.83"/><rect class="cls-2" x="741.07" y="602.56" width="42.58" height="42.58"/><rect class="cls-2" x="742.13" y="603.62" width="40.46" height="40.46"/><rect class="cls-2" x="743.14" y="604.63" width="38.43" height="38.43"/><rect class="cls-2" x="744.1" y="605.59" width="36.51" height="36.51"/><rect class="cls-2" x="745.02" y="606.51" width="34.69" height="34.69"/><rect class="cls-2" x="745.88" y="607.37" width="32.95" height="32.95"/><rect class="cls-2" x="746.71" y="608.2" width="31.3" height="31.3"/><rect class="cls-2" x="747.49" y="608.98" width="29.74" height="29.74"/><rect class="cls-2" x="748.23" y="609.72" width="28.25" height="28.25"/><rect class="cls-2" x="748.94" y="610.43" width="26.84" height="26.84"/><rect class="cls-2" x="749.61" y="611.1" width="25.5" height="25.5"/><rect class="cls-2" x="750.25" y="611.74" width="24.22" height="24.22"/><rect class="cls-2" x="750.85" y="612.34" width="23.01" height="23.01"/><rect class="cls-2" x="751.43" y="612.92" width="21.86" height="21.86"/><rect class="cls-3" x="26.83" y="537.83" width="239" height="239"/><rect class="cls-3" x="38.78" y="549.78" width="215.1" height="215.1"/><rect class="cls-3" x="49.53" y="560.53" width="193.59" height="193.59"/><rect class="cls-3" x="59.21" y="570.21" width="174.23" height="174.23"/><rect class="cls-3" x="67.92" y="578.92" width="156.81" height="156.81"/><rect class="cls-3" x="75.76" y="586.76" width="141.13" height="141.13"/><rect class="cls-3" x="82.82" y="593.82" width="127.01" height="127.01"/><rect class="cls-3" x="89.17" y="600.17" width="114.31" height="114.31"/><rect class="cls-3" x="94.89" y="605.89" width="102.88" height="102.88"/><rect class="cls-3" x="100.03" y="611.03" width="92.59" height="92.59"/><rect class="cls-3" x="104.66" y="615.66" width="83.33" height="83.33"/><rect class="cls-3" x="108.83" y="619.83" width="75" height="75"/><rect class="cls-3" x="112.58" y="623.58" width="67.5" height="67.5"/><rect class="cls-3" x="115.95" y="626.95" width="60.75" height="60.75"/><rect class="cls-3" x="118.99" y="629.99" width="54.68" height="54.68"/><rect class="cls-3" x="121.72" y="632.72" width="49.21" height="49.21"/><rect class="cls-3" x="124.18" y="635.18" width="44.29" height="44.29"/><rect class="cls-3" x="126.4" y="637.4" width="39.86" height="39.86"/><rect class="cls-3" x="128.39" y="639.39" width="35.87" height="35.87"/><rect class="cls-4" x="163.77" y="537.42" width="239" height="239"/><rect class="cls-4" x="175.72" y="549.37" width="215.1" height="215.1"/><rect class="cls-4" x="186.48" y="560.13" width="193.59" height="193.59"/><rect class="cls-4" x="196.16" y="569.81" width="174.23" height="174.23"/><rect class="cls-4" x="204.87" y="578.52" width="156.81" height="156.81"/><rect class="cls-4" x="212.71" y="586.36" width="141.13" height="141.13"/><rect class="cls-4" x="219.77" y="593.41" width="127.01" height="127.01"/><rect class="cls-4" x="226.12" y="599.77" width="114.31" height="114.31"/><rect class="cls-4" x="231.83" y="605.48" width="102.88" height="102.88"/><rect class="cls-4" x="236.98" y="610.63" width="92.59" height="92.59"/><rect class="cls-4" x="241.61" y="615.25" width="83.33" height="83.33"/><rect class="cls-4" x="245.77" y="619.42" width="75" height="75"/><rect class="cls-4" x="249.52" y="623.17" width="67.5" height="67.5"/><rect class="cls-4" x="252.9" y="626.55" width="60.75" height="60.75"/><rect class="cls-4" x="255.94" y="629.58" width="54.68" height="54.68"/><rect class="cls-4" x="258.67" y="632.32" width="49.21" height="49.21"/><rect class="cls-4" x="261.13" y="634.78" width="44.29" height="44.29"/><rect class="cls-4" x="263.34" y="636.99" width="39.86" height="39.86"/><rect class="cls-4" x="265.34" y="638.99" width="35.87" height="35.87"/><rect class="cls-4" x="1232.74" y="582.53" width="239" height="239" transform="translate(-169.82 1071.7) rotate(-44)"/><rect class="cls-4" x="1244.69" y="594.48" width="215.1" height="215.1" transform="translate(-169.82 1071.7) rotate(-44)"/><rect class="cls-4" x="1255.44" y="605.23" width="193.59" height="193.59" transform="translate(-169.82 1071.7) rotate(-44)"/><rect class="cls-4" x="1265.12" y="614.91" width="174.23" height="174.23" transform="translate(-169.82 1071.7) rotate(-44)"/><rect class="cls-4" x="1273.83" y="623.62" width="156.81" height="156.81" transform="translate(-169.82 1071.7) rotate(-44)"/><rect class="cls-4" x="1281.67" y="631.46" width="141.13" height="141.13" transform="translate(-169.82 1071.7) rotate(-44)"/><rect class="cls-4" x="1288.73" y="638.52" width="127.01" height="127.01" transform="translate(-169.82 1071.7) rotate(-44)"/><rect class="cls-4" x="1295.08" y="644.87" width="114.31" height="114.31" transform="translate(-169.82 1071.7) rotate(-44)"/><rect class="cls-4" x="1300.8" y="650.59" width="102.88" height="102.88" transform="translate(-169.82 1071.7) rotate(-44)"/><rect class="cls-4" x="1305.94" y="655.73" width="92.59" height="92.59" transform="translate(-169.82 1071.7) rotate(-44)"/><rect class="cls-4" x="1310.57" y="660.36" width="83.33" height="83.33" transform="translate(-169.82 1071.7) rotate(-44)"/><rect class="cls-4" x="1314.74" y="664.53" width="75" height="75" transform="translate(-169.82 1071.7) rotate(-44)"/><rect class="cls-4" x="1318.49" y="668.28" width="67.5" height="67.5" transform="translate(-169.82 1071.7) rotate(-44)"/><rect class="cls-4" x="1321.86" y="671.65" width="60.75" height="60.75" transform="translate(-169.82 1071.7) rotate(-44)"/><rect class="cls-4" x="1324.9" y="674.69" width="54.68" height="54.68" transform="translate(-169.82 1071.7) rotate(-44)"/><rect class="cls-4" x="1327.63" y="677.42" width="49.21" height="49.21" transform="translate(-169.82 1071.7) rotate(-44)"/><rect class="cls-4" x="1330.09" y="679.88" width="44.29" height="44.29" transform="translate(-169.82 1071.7) rotate(-44)"/><rect class="cls-4" x="1332.31" y="682.1" width="39.86" height="39.86" transform="translate(-169.82 1071.7) rotate(-44)"/><rect class="cls-4" x="1334.3" y="684.09" width="35.87" height="35.87" transform="translate(-169.82 1071.7) rotate(-44)"/><rect class="cls-3" x="1232.74" y="582.53" width="239" height="239" transform="translate(588.54 1989.59) rotate(-90)"/><rect class="cls-3" x="1244.69" y="594.48" width="215.1" height="215.1" transform="translate(588.54 1989.59) rotate(-90)"/><rect class="cls-3" x="1255.44" y="605.23" width="193.59" height="193.59" transform="translate(588.54 1989.59) rotate(-90)"/><rect class="cls-3" x="1265.12" y="614.91" width="174.23" height="174.23" transform="translate(588.54 1989.59) rotate(-90)"/><rect class="cls-3" x="1273.83" y="623.62" width="156.81" height="156.81" transform="translate(588.54 1989.59) rotate(-90)"/><rect class="cls-3" x="1281.67" y="631.46" width="141.13" height="141.13" transform="translate(588.54 1989.59) rotate(-90)"/><rect class="cls-3" x="1288.73" y="638.52" width="127.01" height="127.01" transform="translate(588.54 1989.59) rotate(-90)"/><rect class="cls-3" x="1295.08" y="644.87" width="114.31" height="114.31" transform="translate(588.54 1989.59) rotate(-90)"/><rect class="cls-3" x="1300.8" y="650.59" width="102.88" height="102.88" transform="translate(588.54 1989.59) rotate(-90)"/><rect class="cls-3" x="1305.94" y="655.73" width="92.59" height="92.59" transform="translate(588.54 1989.59) rotate(-90)"/><rect class="cls-3" x="1310.57" y="660.36" width="83.33" height="83.33" transform="translate(588.54 1989.59) rotate(-90)"/><rect class="cls-3" x="1314.74" y="664.53" width="75" height="75" transform="translate(588.54 1989.59) rotate(-90)"/><rect class="cls-3" x="1318.49" y="668.28" width="67.5" height="67.5" transform="translate(588.54 1989.59) rotate(-90)"/><rect class="cls-3" x="1321.86" y="671.65" width="60.75" height="60.75" transform="translate(588.54 1989.59) rotate(-90)"/><rect class="cls-3" x="1324.9" y="674.69" width="54.68" height="54.68" transform="translate(588.54 1989.59) rotate(-90)"/><rect class="cls-3" x="1327.63" y="677.42" width="49.21" height="49.21" transform="translate(588.54 1989.59) rotate(-90)"/><rect class="cls-3" x="1330.09" y="679.88" width="44.29" height="44.29" transform="translate(588.54 1989.59) rotate(-90)"/><rect class="cls-3" x="1332.31" y="682.1" width="39.86" height="39.86" transform="translate(588.54 1989.59) rotate(-90)"/><rect class="cls-3" x="1334.3" y="684.09" width="35.87" height="35.87" transform="translate(588.54 1989.59) rotate(-90)"/><rect class="cls-4" x="49.83" y="49.83" width="239" height="239"/><rect class="cls-4" x="111.5" y="114.5" width="239" height="239" transform="translate(-69.7 -56.47) rotate(-2)"/><rect class="cls-4" x="111.5" y="114.5" width="239" height="239" transform="translate(-77.43 -47.99) rotate(-4)"/><rect class="cls-4" x="111.5" y="114.5" width="239" height="239" transform="translate(-84.87 -39.25) rotate(-6)"/><rect class="cls-4" x="111.5" y="114.5" width="239" height="239" transform="translate(-91.99 -30.25) rotate(-8)"/><rect class="cls-4" x="111.5" y="114.5" width="239" height="239" transform="translate(-98.8 -21.01) rotate(-10)"/><rect class="cls-4" x="111.5" y="114.5" width="239" height="239" transform="translate(-105.28 -11.53) rotate(-12)"/><rect class="cls-4" x="111.5" y="114.5" width="239" height="239" transform="translate(-111.42 -1.84) rotate(-14)"/><rect class="cls-4" x="111.5" y="114.5" width="239" height="239" transform="matrix(0.96, -0.28, 0.28, 0.96, -117.22, 8.06)"/><rect class="cls-4" x="111.5" y="114.5" width="239" height="239" transform="translate(-122.68 18.16) rotate(-18)"/><rect class="cls-4" x="111.5" y="114.5" width="239" height="239" transform="translate(-127.78 28.44) rotate(-20)"/><rect class="cls-4" x="111.5" y="114.5" width="239" height="239" transform="translate(-132.51 38.9) rotate(-22)"/><rect class="cls-4" x="111.5" y="114.5" width="239" height="239" transform="translate(-136.88 49.51) rotate(-24)"/><rect class="cls-4" x="111.5" y="114.5" width="239" height="239" transform="translate(-140.87 60.27) rotate(-26)"/><rect class="cls-4" x="111.5" y="114.5" width="239" height="239" transform="translate(-144.49 71.16) rotate(-28)"/><rect class="cls-4" x="111.5" y="114.5" width="239" height="239" transform="translate(-147.73 82.18) rotate(-30)"/><rect class="cls-4" x="111.5" y="114.5" width="239" height="239" transform="translate(-150.57 93.29) rotate(-32)"/><rect class="cls-4" x="111.5" y="114.5" width="239" height="239" transform="translate(-153.03 104.51) rotate(-34)"/><rect class="cls-4" x="111.5" y="114.5" width="239" height="239" transform="translate(-155.1 115.79) rotate(-36)"/><rect class="cls-4" x="111.5" y="114.5" width="239" height="239" transform="translate(-156.77 127.15) rotate(-38)"/><rect class="cls-4" x="111.5" y="114.5" width="239" height="239" transform="translate(-158.04 138.56) rotate(-40)"/><rect class="cls-4" x="111.5" y="114.5" width="239" height="239" transform="translate(-158.92 150) rotate(-42)"/><rect class="cls-4" x="111.5" y="114.5" width="239" height="239" transform="translate(-159.39 161.47) rotate(-44)"/><rect class="cls-4" x="111.5" y="114.5" width="239" height="239" transform="translate(-159.47 172.94) rotate(-46)"/><rect class="cls-4" x="111.5" y="114.5" width="239" height="239" transform="translate(-159.14 184.42) rotate(-48)"/><rect class="cls-4" x="111.5" y="114.5" width="239" height="239" transform="translate(-158.41 195.87) rotate(-50)"/><rect class="cls-4" x="111.5" y="114.5" width="239" height="239" transform="translate(-157.29 207.29) rotate(-52)"/><rect class="cls-4" x="111.5" y="114.5" width="239" height="239" transform="translate(-155.76 218.67) rotate(-54)"/><rect class="cls-4" x="111.5" y="114.5" width="239" height="239" transform="translate(-153.84 229.98) rotate(-56)"/><rect class="cls-4" x="111.5" y="114.5" width="239" height="239" transform="translate(-151.53 241.22) rotate(-58)"/><rect class="cls-4" x="111.5" y="114.5" width="239" height="239" transform="translate(-148.82 252.38) rotate(-60)"/><rect class="cls-4" x="111.5" y="114.5" width="239" height="239" transform="translate(-145.73 263.43) rotate(-62)"/><rect class="cls-4" x="111.5" y="114.5" width="239" height="239" transform="translate(-142.26 274.37) rotate(-64)"/><rect class="cls-4" x="111.5" y="114.5" width="239" height="239" transform="translate(-138.4 285.18) rotate(-66)"/><rect class="cls-4" x="111.5" y="114.5" width="239" height="239" transform="translate(-134.17 295.85) rotate(-68)"/><rect class="cls-4" x="111.5" y="114.5" width="239" height="239" transform="translate(-129.57 306.36) rotate(-70)"/><rect class="cls-4" x="111.5" y="114.5" width="239" height="239" transform="translate(-124.6 316.71) rotate(-72)"/><rect class="cls-4" x="111.5" y="114.5" width="239" height="239" transform="translate(-119.28 326.88) rotate(-74)"/><rect class="cls-4" x="111.5" y="114.5" width="239" height="239" transform="translate(-113.61 336.85) rotate(-76)"/><rect class="cls-4" x="111.5" y="114.5" width="239" height="239" transform="translate(-107.59 346.63) rotate(-78)"/><rect class="cls-4" x="111.5" y="114.5" width="239" height="239" transform="translate(-101.23 356.18) rotate(-80)"/><rect class="cls-4" x="111.5" y="114.5" width="239" height="239" transform="matrix(0.14, -0.99, 0.99, 0.14, -94.55, 365.51)"/><rect class="cls-4" x="111.5" y="114.5" width="239" height="239" transform="translate(-87.54 374.6) rotate(-84)"/><rect class="cls-4" x="111.5" y="114.5" width="239" height="239" transform="translate(-80.22 383.44) rotate(-86)"/><rect class="cls-4" x="111.5" y="114.5" width="239" height="239" transform="translate(-72.59 392.02) rotate(-88)"/><rect class="cls-4" x="111.5" y="114.5" width="239" height="239" transform="translate(-64.67 400.33) rotate(-90)"/><rect class="cls-3" x="175.83" y="49.83" width="239" height="239"/><rect class="cls-3" x="237.5" y="114.5" width="239" height="239" transform="translate(-69.62 -52.07) rotate(-2)"/><rect class="cls-3" x="237.5" y="114.5" width="239" height="239" transform="translate(-77.13 -39.2) rotate(-4)"/><rect class="cls-3" x="237.5" y="114.5" width="239" height="239" transform="translate(-84.18 -26.08) rotate(-6)"/><rect class="cls-3" x="237.5" y="114.5" width="239" height="239" transform="translate(-90.77 -12.71) rotate(-8)"/><rect class="cls-3" x="237.5" y="114.5" width="239" height="239" transform="translate(-96.88 0.87) rotate(-10)"/><rect class="cls-3" x="237.5" y="114.5" width="239" height="239" transform="translate(-102.52 14.66) rotate(-12)"/><rect class="cls-3" x="237.5" y="114.5" width="239" height="239" transform="translate(-107.68 28.64) rotate(-14)"/><rect class="cls-3" x="237.5" y="114.5" width="239" height="239" transform="translate(-112.34 42.79) rotate(-16)"/><rect class="cls-3" x="237.5" y="114.5" width="239" height="239" transform="translate(-116.51 57.1) rotate(-18)"/><rect class="cls-3" x="237.5" y="114.5" width="239" height="239" transform="translate(-120.18 71.54) rotate(-20)"/><rect class="cls-3" x="237.5" y="114.5" width="239" height="239" transform="translate(-123.34 86.1) rotate(-22)"/><rect class="cls-3" x="237.5" y="114.5" width="239" height="239" transform="translate(-125.99 100.76) rotate(-24)"/><rect class="cls-3" x="237.5" y="114.5" width="239" height="239" transform="translate(-128.12 115.51) rotate(-26)"/><rect class="cls-3" x="237.5" y="114.5" width="239" height="239" transform="translate(-129.74 130.32) rotate(-28)"/><rect class="cls-3" x="237.5" y="114.5" width="239" height="239" transform="translate(-130.84 145.18) rotate(-30)"/><rect class="cls-3" x="237.5" y="114.5" width="239" height="239" transform="matrix(0.85, -0.53, 0.53, 0.85, -131.43, 160.06)"/><rect class="cls-3" x="237.5" y="114.5" width="239" height="239" transform="translate(-131.49 174.96) rotate(-34)"/><rect class="cls-3" x="237.5" y="114.5" width="239" height="239" transform="translate(-131.03 189.86) rotate(-36)"/><rect class="cls-3" x="237.5" y="114.5" width="239" height="239" transform="translate(-130.06 204.72) rotate(-38)"/><rect class="cls-3" x="237.5" y="114.5" width="239" height="239" transform="translate(-128.56 219.55) rotate(-40)"/><rect class="cls-3" x="237.5" y="114.5" width="239" height="239" transform="translate(-126.55 234.31) rotate(-42)"/><rect class="cls-3" x="237.5" y="114.5" width="239" height="239" transform="translate(-124.03 248.99) rotate(-44)"/><rect class="cls-3" x="237.5" y="114.5" width="239" height="239" transform="translate(-120.99 263.58) rotate(-46)"/><rect class="cls-3" x="237.5" y="114.5" width="239" height="239" transform="translate(-117.45 278.05) rotate(-48)"/><rect class="cls-3" x="237.5" y="114.5" width="239" height="239" transform="translate(-113.4 292.39) rotate(-50)"/><rect class="cls-3" x="237.5" y="114.5" width="239" height="239" transform="translate(-108.86 306.58) rotate(-52)"/><rect class="cls-3" x="237.5" y="114.5" width="239" height="239" transform="translate(-103.82 320.6) rotate(-54)"/><rect class="cls-3" x="237.5" y="114.5" width="239" height="239" transform="translate(-98.3 334.44) rotate(-56)"/><rect class="cls-3" x="237.5" y="114.5" width="239" height="239" transform="translate(-92.3 348.08) rotate(-58)"/><rect class="cls-3" x="237.5" y="114.5" width="239" height="239" transform="translate(-85.82 361.5) rotate(-60)"/><rect class="cls-3" x="237.5" y="114.5" width="239" height="239" transform="translate(-78.88 374.68) rotate(-62)"/><rect class="cls-3" x="237.5" y="114.5" width="239" height="239" transform="translate(-71.49 387.62) rotate(-64)"/><rect class="cls-3" x="237.5" y="114.5" width="239" height="239" transform="translate(-63.65 400.29) rotate(-66)"/><rect class="cls-3" x="237.5" y="114.5" width="239" height="239" transform="matrix(0.37, -0.93, 0.93, 0.37, -55.37, 412.67)"/><rect class="cls-3" x="237.5" y="114.5" width="239" height="239" transform="translate(-46.66 424.76) rotate(-70)"/><rect class="cls-3" x="237.5" y="114.5" width="239" height="239" transform="translate(-37.54 436.54) rotate(-72)"/><rect class="cls-3" x="237.5" y="114.5" width="239" height="239" transform="translate(-28.01 448) rotate(-74)"/><rect class="cls-3" x="237.5" y="114.5" width="239" height="239" transform="translate(-18.09 459.11) rotate(-76)"/><rect class="cls-3" x="237.5" y="114.5" width="239" height="239" transform="translate(-7.78 469.87) rotate(-78)"/><rect class="cls-3" x="237.5" y="114.5" width="239" height="239" transform="translate(2.89 480.27) rotate(-80)"/><rect class="cls-3" x="237.5" y="114.5" width="239" height="239" transform="translate(13.92 490.29) rotate(-82)"/><rect class="cls-3" x="237.5" y="114.5" width="239" height="239" transform="translate(25.29 499.91) rotate(-84)"/><rect class="cls-3" x="237.5" y="114.5" width="239" height="239" transform="translate(36.99 509.13) rotate(-86)"/><rect class="cls-3" x="237.5" y="114.5" width="239" height="239" transform="translate(49.01 517.94) rotate(-88)"/><rect class="cls-3" x="237.5" y="114.5" width="239" height="239" transform="translate(61.33 526.33) rotate(-90)"/><rect class="cls-5" x="541.42" y="14.33" width="264.59" height="264.59"/><rect class="cls-5" x="542.53" y="14.33" width="264.59" height="264.59"/><rect class="cls-5" x="543.64" y="14.33" width="264.59" height="264.59"/><rect class="cls-5" x="544.74" y="14.33" width="264.59" height="264.59"/><rect class="cls-5" x="545.85" y="14.33" width="264.59" height="264.59"/><rect class="cls-5" x="546.96" y="14.33" width="264.59" height="264.59"/><rect class="cls-5" x="548.07" y="14.33" width="264.59" height="264.59"/><rect class="cls-5" x="549.17" y="14.33" width="264.59" height="264.59"/><rect class="cls-5" x="550.28" y="14.33" width="264.59" height="264.59"/><rect class="cls-5" x="551.39" y="14.33" width="264.59" height="264.59"/><rect class="cls-5" x="552.49" y="14.33" width="264.59" height="264.59"/><rect class="cls-5" x="553.6" y="14.33" width="264.59" height="264.59"/><rect class="cls-5" x="554.71" y="14.33" width="264.59" height="264.59"/><rect class="cls-5" x="555.81" y="14.33" width="264.59" height="264.59"/><rect class="cls-5" x="556.92" y="14.33" width="264.59" height="264.59"/><rect class="cls-5" x="558.03" y="14.33" width="264.59" height="264.59"/><rect class="cls-5" x="559.14" y="14.33" width="264.59" height="264.59"/><rect class="cls-5" x="560.24" y="14.33" width="264.59" height="264.59"/><rect class="cls-5" x="561.35" y="14.33" width="264.59" height="264.59"/><rect class="cls-5" x="562.46" y="14.33" width="264.59" height="264.59"/><rect class="cls-5" x="563.56" y="14.33" width="264.59" height="264.59"/><rect class="cls-5" x="564.67" y="14.33" width="264.59" height="264.59"/><rect class="cls-5" x="565.78" y="14.33" width="264.59" height="264.59"/><rect class="cls-5" x="566.89" y="14.33" width="264.59" height="264.59"/><rect class="cls-5" x="567.99" y="14.33" width="264.59" height="264.59"/><rect class="cls-5" x="569.1" y="14.33" width="264.59" height="264.59"/><rect class="cls-5" x="570.21" y="14.33" width="264.59" height="264.59"/><rect class="cls-5" x="571.31" y="14.33" width="264.59" height="264.59"/><rect class="cls-5" x="572.42" y="14.33" width="264.59" height="264.59"/><rect class="cls-5" x="573.53" y="14.33" width="264.59" height="264.59"/><rect class="cls-5" x="574.63" y="14.33" width="264.59" height="264.59"/><rect class="cls-5" x="575.74" y="14.33" width="264.59" height="264.59"/><rect class="cls-5" x="576.85" y="14.33" width="264.59" height="264.59"/><rect class="cls-5" x="577.96" y="14.33" width="264.59" height="264.59"/><rect class="cls-5" x="579.06" y="14.33" width="264.59" height="264.59"/><rect class="cls-5" x="580.17" y="14.33" width="264.59" height="264.59"/><rect class="cls-5" x="581.28" y="14.33" width="264.59" height="264.59"/><rect class="cls-5" x="582.38" y="14.33" width="264.59" height="264.59"/><rect class="cls-5" x="583.49" y="14.33" width="264.59" height="264.59"/><rect class="cls-5" x="584.6" y="14.33" width="264.59" height="264.59"/><rect class="cls-5" x="585.71" y="14.33" width="264.59" height="264.59"/><rect class="cls-5" x="586.81" y="14.33" width="264.59" height="264.59"/><rect class="cls-5" x="587.92" y="14.33" width="264.59" height="264.59"/><rect class="cls-5" x="589.03" y="14.33" width="264.59" height="264.59"/><rect class="cls-5" x="590.13" y="14.33" width="264.59" height="264.59"/><rect class="cls-5" x="591.24" y="14.33" width="264.59" height="264.59"/><rect class="cls-5" x="592.35" y="14.33" width="264.59" height="264.59"/><rect class="cls-5" x="593.46" y="14.33" width="264.59" height="264.59"/><rect class="cls-5" x="594.56" y="14.33" width="264.59" height="264.59"/><rect class="cls-5" x="595.67" y="14.33" width="264.59" height="264.59"/><rect class="cls-5" x="596.78" y="14.33" width="264.59" height="264.59"/><rect class="cls-5" x="597.88" y="14.33" width="264.59" height="264.59"/><rect class="cls-5" x="598.99" y="14.33" width="264.59" height="264.59"/><rect class="cls-5" x="600.1" y="14.33" width="264.59" height="264.59"/><rect class="cls-5" x="601.2" y="14.33" width="264.59" height="264.59"/><rect class="cls-5" x="602.31" y="14.33" width="264.59" height="264.59"/><rect class="cls-5" x="603.42" y="14.33" width="264.59" height="264.59"/><rect class="cls-5" x="604.53" y="14.33" width="264.59" height="264.59"/><rect class="cls-5" x="605.63" y="14.33" width="264.59" height="264.59"/><rect class="cls-5" x="606.74" y="14.33" width="264.59" height="264.59"/><rect class="cls-5" x="607.85" y="14.33" width="264.59" height="264.59"/><rect class="cls-5" x="608.95" y="14.33" width="264.59" height="264.59"/><rect class="cls-5" x="610.06" y="14.33" width="264.59" height="264.59"/><rect class="cls-5" x="611.17" y="14.33" width="264.59" height="264.59"/><rect class="cls-5" x="612.28" y="14.33" width="264.59" height="264.59"/><rect class="cls-5" x="613.38" y="14.33" width="264.59" height="264.59"/><rect class="cls-5" x="614.49" y="14.33" width="264.59" height="264.59"/><rect class="cls-5" x="615.6" y="14.33" width="264.59" height="264.59"/><rect class="cls-5" x="616.7" y="14.33" width="264.59" height="264.59"/><rect class="cls-5" x="617.81" y="14.33" width="264.59" height="264.59"/><rect class="cls-5" x="618.92" y="14.33" width="264.59" height="264.59"/><rect class="cls-5" x="620.03" y="14.33" width="264.59" height="264.59"/><rect class="cls-5" x="621.13" y="14.33" width="264.59" height="264.59"/><rect class="cls-5" x="622.24" y="14.33" width="264.59" height="264.59"/><rect class="cls-5" x="623.35" y="14.33" width="264.59" height="264.59"/><rect class="cls-5" x="624.45" y="14.33" width="264.59" height="264.59"/><rect class="cls-5" x="625.56" y="14.33" width="264.59" height="264.59"/><rect class="cls-5" x="626.67" y="14.33" width="264.59" height="264.59"/><rect class="cls-5" x="627.77" y="14.33" width="264.59" height="264.59"/><rect class="cls-5" x="628.88" y="14.33" width="264.59" height="264.59"/><rect class="cls-5" x="629.99" y="14.33" width="264.59" height="264.59"/><rect class="cls-5" x="631.1" y="14.33" width="264.59" height="264.59"/><rect class="cls-5" x="632.2" y="14.33" width="264.59" height="264.59"/><rect class="cls-5" x="633.31" y="14.33" width="264.59" height="264.59"/><rect class="cls-5" x="634.42" y="14.33" width="264.59" height="264.59"/><rect class="cls-5" x="635.52" y="14.33" width="264.59" height="264.59"/><rect class="cls-5" x="636.63" y="14.33" width="264.59" height="264.59"/><rect class="cls-5" x="637.74" y="14.33" width="264.59" height="264.59"/><rect class="cls-5" x="638.85" y="14.33" width="264.59" height="264.59"/><rect class="cls-5" x="639.95" y="14.33" width="264.59" height="264.59"/><rect class="cls-5" x="641.06" y="14.33" width="264.59" height="264.59"/><rect class="cls-5" x="642.17" y="14.33" width="264.59" height="264.59"/><rect class="cls-5" x="643.27" y="14.33" width="264.59" height="264.59"/><rect class="cls-5" x="644.38" y="14.33" width="264.59" height="264.59"/><rect class="cls-5" x="645.49" y="14.33" width="264.59" height="264.59"/><rect class="cls-5" x="646.6" y="14.33" width="264.59" height="264.59"/><rect class="cls-5" x="647.7" y="14.33" width="264.59" height="264.59"/><rect class="cls-5" x="648.81" y="14.33" width="264.59" height="264.59"/><rect class="cls-5" x="649.92" y="14.33" width="264.59" height="264.59"/><rect class="cls-5" x="651.02" y="14.33" width="264.59" height="264.59"/><rect class="cls-5" x="652.13" y="14.33" width="264.59" height="264.59"/><rect class="cls-5" x="653.24" y="14.33" width="264.59" height="264.59"/><rect class="cls-5" x="654.34" y="14.33" width="264.59" height="264.59"/><rect class="cls-5" x="655.45" y="14.33" width="264.59" height="264.59"/><rect class="cls-5" x="656.56" y="14.33" width="264.59" height="264.59"/><rect class="cls-5" x="657.67" y="14.33" width="264.59" height="264.59"/><rect class="cls-5" x="658.77" y="14.33" width="264.59" height="264.59"/><rect class="cls-5" x="659.88" y="14.33" width="264.59" height="264.59"/><rect class="cls-5" x="660.99" y="14.33" width="264.59" height="264.59"/><rect class="cls-5" x="662.09" y="14.33" width="264.59" height="264.59"/><rect class="cls-5" x="663.2" y="14.33" width="264.59" height="264.59"/><rect class="cls-5" x="664.31" y="14.33" width="264.59" height="264.59"/><rect class="cls-5" x="665.42" y="14.33" width="264.59" height="264.59"/><rect class="cls-5" x="666.52" y="14.33" width="264.59" height="264.59"/><rect class="cls-5" x="667.63" y="14.33" width="264.59" height="264.59"/><rect class="cls-5" x="668.74" y="14.33" width="264.59" height="264.59"/><rect class="cls-5" x="669.84" y="14.33" width="264.59" height="264.59"/><rect class="cls-5" x="670.95" y="14.33" width="264.59" height="264.59"/><rect class="cls-5" x="672.06" y="14.33" width="264.59" height="264.59"/><rect class="cls-5" x="673.17" y="14.33" width="264.59" height="264.59"/><rect class="cls-5" x="674.27" y="14.33" width="264.59" height="264.59"/><rect class="cls-5" x="675.38" y="14.33" width="264.59" height="264.59"/><rect class="cls-5" x="676.49" y="14.33" width="264.59" height="264.59"/><rect class="cls-5" x="677.59" y="14.33" width="264.59" height="264.59"/><rect class="cls-5" x="678.7" y="14.33" width="264.59" height="264.59"/><rect class="cls-5" x="679.81" y="14.33" width="264.59" height="264.59"/><rect class="cls-5" x="680.91" y="14.33" width="264.59" height="264.59"/><rect class="cls-5" x="682.02" y="14.33" width="264.59" height="264.59"/><rect class="cls-5" x="683.13" y="14.33" width="264.59" height="264.59"/><rect class="cls-5" x="684.24" y="14.33" width="264.59" height="264.59"/><rect class="cls-5" x="685.34" y="14.33" width="264.59" height="264.59"/><rect class="cls-5" x="686.45" y="14.33" width="264.59" height="264.59"/><rect class="cls-5" x="687.56" y="14.33" width="264.59" height="264.59"/><rect class="cls-5" x="688.66" y="14.33" width="264.59" height="264.59"/><rect class="cls-5" x="689.77" y="14.33" width="264.59" height="264.59"/><rect class="cls-5" x="690.88" y="14.33" width="264.59" height="264.59"/><rect class="cls-5" x="691.99" y="14.33" width="264.59" height="264.59"/><rect class="cls-5" x="693.09" y="14.33" width="264.59" height="264.59"/><rect class="cls-5" x="694.2" y="14.33" width="264.59" height="264.59"/><rect class="cls-5" x="695.31" y="14.33" width="264.59" height="264.59"/><rect class="cls-5" x="696.41" y="14.33" width="264.59" height="264.59"/><rect class="cls-5" x="697.52" y="14.33" width="264.59" height="264.59"/><rect class="cls-5" x="698.63" y="14.33" width="264.59" height="264.59"/><rect class="cls-5" x="699.74" y="14.33" width="264.59" height="264.59"/><rect class="cls-5" x="700.84" y="14.33" width="264.59" height="264.59"/><rect class="cls-5" x="701.95" y="14.33" width="264.59" height="264.59"/><rect class="cls-5" x="703.06" y="14.33" width="264.59" height="264.59"/><rect class="cls-5" x="704.16" y="14.33" width="264.59" height="264.59"/><rect class="cls-5" x="705.27" y="14.33" width="264.59" height="264.59"/><rect class="cls-5" x="706.38" y="14.33" width="264.59" height="264.59"/><rect class="cls-5" x="707.48" y="14.33" width="264.59" height="264.59"/><rect class="cls-5" x="708.59" y="14.33" width="264.59" height="264.59"/><rect class="cls-5" x="709.7" y="14.33" width="264.59" height="264.59"/><rect class="cls-5" x="710.81" y="14.33" width="264.59" height="264.59"/><rect class="cls-5" x="711.91" y="14.33" width="264.59" height="264.59"/><rect class="cls-5" x="713.02" y="14.33" width="264.59" height="264.59"/><rect class="cls-5" x="714.13" y="14.33" width="264.59" height="264.59"/><rect class="cls-5" x="715.23" y="14.33" width="264.59" height="264.59"/><rect class="cls-5" x="716.34" y="14.33" width="264.59" height="264.59"/><rect class="cls-5" x="717.45" y="14.33" width="264.59" height="264.59"/><rect class="cls-5" x="718.56" y="14.33" width="264.59" height="264.59"/><rect class="cls-5" x="719.66" y="14.33" width="264.59" height="264.59"/><rect class="cls-5" x="720.77" y="14.33" width="264.59" height="264.59"/><rect class="cls-5" x="721.88" y="14.33" width="264.59" height="264.59"/><rect class="cls-5" x="722.98" y="14.33" width="264.59" height="264.59"/><rect class="cls-5" x="724.09" y="14.33" width="264.59" height="264.59"/><rect class="cls-5" x="725.2" y="14.33" width="264.59" height="264.59"/><rect class="cls-5" x="726.31" y="14.33" width="264.59" height="264.59"/><rect class="cls-5" x="727.41" y="14.33" width="264.59" height="264.59"/><rect class="cls-5" x="728.52" y="14.33" width="264.59" height="264.59"/><rect class="cls-5" x="729.63" y="14.33" width="264.59" height="264.59"/><rect class="cls-5" x="730.73" y="14.33" width="264.59" height="264.59"/><rect class="cls-3" x="1205.83" y="86.83" width="143" height="143"/><rect class="cls-3" x="1207.97" y="88.97" width="138.71" height="138.71"/><rect class="cls-3" x="1210.05" y="91.05" width="134.55" height="134.55"/><rect class="cls-3" x="1212.07" y="93.07" width="130.51" height="130.51"/><rect class="cls-3" x="1214.03" y="95.03" width="126.6" height="126.6"/><rect class="cls-3" x="1215.93" y="96.93" width="122.8" height="122.8"/><rect class="cls-3" x="1217.77" y="98.77" width="119.11" height="119.11"/><rect class="cls-3" x="1219.56" y="100.56" width="115.54" height="115.54"/><rect class="cls-3" x="1221.29" y="102.29" width="112.08" height="112.08"/><rect class="cls-3" x="1222.97" y="103.97" width="108.71" height="108.71"/><rect class="cls-3" x="1224.6" y="105.6" width="105.45" height="105.45"/><rect class="cls-3" x="1226.18" y="107.18" width="102.29" height="102.29"/><rect class="cls-3" x="1227.72" y="108.72" width="99.22" height="99.22"/><rect class="cls-3" x="1229.2" y="110.2" width="96.24" height="96.24"/><rect class="cls-3" x="1230.65" y="111.65" width="93.36" height="93.36"/><rect class="cls-3" x="1232.05" y="113.05" width="90.55" height="90.55"/><rect class="cls-3" x="1233.41" y="114.41" width="87.84" height="87.84"/><rect class="cls-3" x="1234.72" y="115.72" width="85.2" height="85.2"/><rect class="cls-3" x="1236" y="117" width="82.65" height="82.65"/><rect class="cls-3" x="1237.24" y="118.24" width="80.17" height="80.17"/><rect class="cls-3" x="1238.44" y="119.44" width="77.76" height="77.76"/><rect class="cls-3" x="1239.61" y="120.61" width="75.43" height="75.43"/><rect class="cls-3" x="1240.74" y="121.74" width="73.17" height="73.17"/><rect class="cls-3" x="1241.84" y="122.84" width="70.97" height="70.97"/><rect class="cls-3" x="1242.9" y="123.9" width="68.84" height="68.84"/><rect class="cls-3" x="1243.94" y="124.94" width="66.78" height="66.78"/><rect class="cls-3" x="1244.94" y="125.94" width="64.77" height="64.77"/><rect class="cls-3" x="1245.91" y="126.91" width="62.83" height="62.83"/><rect class="cls-3" x="1246.85" y="127.85" width="60.95" height="60.95"/><rect class="cls-3" x="1247.77" y="128.77" width="59.12" height="59.12"/><rect class="cls-3" x="1248.65" y="129.65" width="57.34" height="57.34"/><rect class="cls-3" x="1249.51" y="130.51" width="55.62" height="55.62"/><rect class="cls-3" x="1250.35" y="131.35" width="53.95" height="53.95"/><rect class="cls-3" x="1251.16" y="132.16" width="52.34" height="52.34"/><rect class="cls-3" x="1251.94" y="132.94" width="50.77" height="50.77"/><rect class="cls-3" x="1252.7" y="133.7" width="49.24" height="49.24"/><rect class="cls-3" x="1253.44" y="134.44" width="47.77" height="47.77"/><rect class="cls-3" x="1254.16" y="135.16" width="46.33" height="46.33"/><rect class="cls-3" x="1254.85" y="135.85" width="44.94" height="44.94"/><rect class="cls-3" x="1255.53" y="136.53" width="43.59" height="43.59"/><rect class="cls-3" x="1256.18" y="137.18" width="42.29" height="42.29"/><rect class="cls-3" x="1256.82" y="137.82" width="41.02" height="41.02"/><rect class="cls-3" x="1257.43" y="138.43" width="39.79" height="39.79"/><rect class="cls-3" x="1258.03" y="139.03" width="38.59" height="38.59"/><rect class="cls-3" x="1258.61" y="139.61" width="37.44" height="37.44"/><rect class="cls-3" x="1259.17" y="140.17" width="36.31" height="36.31"/><rect class="cls-3" x="1259.71" y="140.71" width="35.22" height="35.22"/><rect class="cls-3" x="1260.24" y="141.24" width="34.17" height="34.17"/><rect class="cls-3" x="1260.76" y="141.76" width="33.14" height="33.14"/><rect class="cls-3" x="1261.25" y="142.25" width="32.15" height="32.15"/><rect class="cls-3" x="1261.73" y="142.73" width="31.18" height="31.18"/><rect class="cls-3" x="1262.2" y="143.2" width="30.25" height="30.25"/><rect class="cls-3" x="1262.66" y="143.66" width="29.34" height="29.34"/><rect class="cls-3" x="1263.1" y="144.1" width="28.46" height="28.46"/><rect class="cls-3" x="1263.52" y="144.52" width="27.61" height="27.61"/><rect class="cls-3" x="1263.94" y="144.94" width="26.78" height="26.78"/><rect class="cls-3" x="1264.34" y="145.34" width="25.97" height="25.97"/><rect class="cls-3" x="1264.73" y="145.73" width="25.2" height="25.2"/><rect class="cls-3" x="1265.11" y="146.11" width="24.44" height="24.44"/><rect class="cls-3" x="1265.47" y="146.47" width="23.71" height="23.71"/><rect class="cls-3" x="1265.83" y="146.83" width="23" height="23"/><rect class="cls-3" x="1266.17" y="147.17" width="22.31" height="22.31"/><rect class="cls-3" x="1266.51" y="147.51" width="21.64" height="21.64"/><rect class="cls-3" x="1266.83" y="147.83" width="20.99" height="20.99"/><rect class="cls-3" x="1267.15" y="148.15" width="20.36" height="20.36"/><rect class="cls-3" x="1267.45" y="148.45" width="19.75" height="19.75"/><rect class="cls-3" x="1267.75" y="148.75" width="19.15" height="19.15"/><rect class="cls-3" x="1268.04" y="149.04" width="18.58" height="18.58"/><rect class="cls-3" x="1268.32" y="149.32" width="18.02" height="18.02"/><rect class="cls-3" x="1268.59" y="149.59" width="17.48" height="17.48"/><rect class="cls-3" x="1268.85" y="149.85" width="16.96" height="16.96"/><rect class="cls-3" x="1269.1" y="150.1" width="16.45" height="16.45"/><rect class="cls-3" x="1269.35" y="150.35" width="15.96" height="15.96"/><rect class="cls-3" x="1269.59" y="150.59" width="15.48" height="15.48"/><rect class="cls-3" x="1269.82" y="150.82" width="15.01" height="15.01"/><rect class="cls-3" x="1270.05" y="151.05" width="14.56" height="14.56"/><rect class="cls-3" x="1270.26" y="151.26" width="14.12" height="14.12"/><rect class="cls-3" x="1270.48" y="151.48" width="13.7" height="13.7"/><rect class="cls-3" x="1270.68" y="151.68" width="13.29" height="13.29"/><rect class="cls-3" x="1270.88" y="151.88" width="12.89" height="12.89"/><rect class="cls-3" x="1271.07" y="152.07" width="12.5" height="12.5"/><rect class="cls-3" x="1271.26" y="152.26" width="12.13" height="12.13"/><rect class="cls-3" x="1271.44" y="152.44" width="11.77" height="11.77"/><rect class="cls-3" x="1271.62" y="152.62" width="11.41" height="11.41"/><rect class="cls-3" x="1271.79" y="152.79" width="11.07" height="11.07"/><rect class="cls-3" x="1271.96" y="152.96" width="10.74" height="10.74"/><rect class="cls-3" x="1272.12" y="153.12" width="10.42" height="10.42"/><rect class="cls-3" x="1272.27" y="153.27" width="10.1" height="10.1"/><rect class="cls-3" x="1272.43" y="153.43" width="9.8" height="9.8"/><rect class="cls-3" x="1272.57" y="153.57" width="9.51" height="9.51"/><rect class="cls-3" x="1272.72" y="153.72" width="9.22" height="9.22"/><rect class="cls-3" x="1272.85" y="153.85" width="8.94" height="8.94"/><rect class="cls-3" x="1272.99" y="153.99" width="8.68" height="8.68"/><rect class="cls-3" x="1273.12" y="154.12" width="8.42" height="8.42"/><rect class="cls-3" x="1273.24" y="154.24" width="8.16" height="8.16"/><rect class="cls-3" x="1273.37" y="154.37" width="7.92" height="7.92"/><rect class="cls-3" x="1273.49" y="154.49" width="7.68" height="7.68"/><rect class="cls-3" x="1273.6" y="154.6" width="7.45" height="7.45"/><rect class="cls-3" x="1273.71" y="154.71" width="7.23" height="7.23"/><rect class="cls-3" x="1273.82" y="154.82" width="7.01" height="7.01"/><rect class="cls-3" x="1273.93" y="154.93" width="6.8" height="6.8"/><rect class="cls-3" x="1274.03" y="155.03" width="6.6" height="6.6"/><rect class="cls-3" x="1274.13" y="155.13" width="6.4" height="6.4"/><rect class="cls-3" x="1274.22" y="155.22" width="6.21" height="6.21"/><rect class="cls-3" x="1274.32" y="155.32" width="6.02" height="6.02"/><rect class="cls-3" x="1274.41" y="155.41" width="5.84" height="5.84"/><rect class="cls-3" x="1274.49" y="155.49" width="5.66" height="5.66"/><rect class="cls-3" x="1274.58" y="155.58" width="5.49" height="5.49"/><rect class="cls-3" x="1274.66" y="155.66" width="5.33" height="5.33"/><rect class="cls-3" x="1274.74" y="155.74" width="5.17" height="5.17"/><rect class="cls-3" x="1274.82" y="155.82" width="5.01" height="5.01"/><rect class="cls-3" x="1274.89" y="155.89" width="4.86" height="4.86"/><rect class="cls-3" x="1274.97" y="155.97" width="4.72" height="4.72"/><rect class="cls-3" x="1275.04" y="156.04" width="4.58" height="4.58"/><rect class="cls-3" x="1275.11" y="156.11" width="4.44" height="4.44"/><rect class="cls-3" x="1275.17" y="156.17" width="4.31" height="4.31"/><rect class="cls-3" x="1275.24" y="156.24" width="4.18" height="4.18"/><rect class="cls-3" x="1275.3" y="156.3" width="4.05" height="4.05"/><rect class="cls-3" x="1275.36" y="156.36" width="3.93" height="3.93"/><rect class="cls-3" x="1275.42" y="156.42" width="3.81" height="3.81"/><rect class="cls-3" x="1275.48" y="156.48" width="3.7" height="3.7"/><rect class="cls-3" x="1275.53" y="156.53" width="3.59" height="3.59"/><rect class="cls-3" x="1275.59" y="156.59" width="3.48" height="3.48"/><rect class="cls-3" x="1275.64" y="156.64" width="3.37" height="3.37"/><rect class="cls-3" x="1275.69" y="156.69" width="3.27" height="3.27"/><rect class="cls-3" x="1275.74" y="156.74" width="3.18" height="3.18"/><rect class="cls-3" x="1275.79" y="156.79" width="3.08" height="3.08"/><rect class="cls-3" x="1275.83" y="156.83" width="2.99" height="2.99"/><rect class="cls-3" x="1275.88" y="156.88" width="2.9" height="2.9"/><rect class="cls-3" x="1275.92" y="156.92" width="2.81" height="2.81"/><rect class="cls-3" x="1275.96" y="156.96" width="2.73" height="2.73"/><rect class="cls-3" x="1276" y="157" width="2.65" height="2.65"/><rect class="cls-3" x="1276.04" y="157.04" width="2.57" height="2.57"/><rect class="cls-3" x="1276.08" y="157.08" width="2.49" height="2.49"/><rect class="cls-3" x="1276.12" y="157.12" width="2.41" height="2.41"/><rect class="cls-3" x="1276.16" y="157.16" width="2.34" height="2.34"/><rect class="cls-3" x="1276.19" y="157.19" width="2.27" height="2.27"/><rect class="cls-3" x="1276.22" y="157.22" width="2.2" height="2.2"/><rect class="cls-3" x="1276.26" y="157.26" width="2.14" height="2.14"/><rect class="cls-3" x="1276.29" y="157.29" width="2.07" height="2.07"/><rect class="cls-3" x="1276.32" y="157.32" width="2.01" height="2.01"/><rect class="cls-3" x="1276.35" y="157.35" width="1.95" height="1.95"/><rect class="cls-3" x="1276.38" y="157.38" width="1.89" height="1.89"/><rect class="cls-3" x="1276.41" y="157.41" width="1.84" height="1.84"/><rect class="cls-3" x="1276.44" y="157.44" width="1.78" height="1.78"/><rect class="cls-3" x="1276.46" y="157.46" width="1.73" height="1.73"/><rect class="cls-3" x="1276.49" y="157.49" width="1.67" height="1.67"/><rect class="cls-3" x="1276.51" y="157.51" width="1.62" height="1.62"/><rect class="cls-3" x="1276.54" y="157.54" width="1.58" height="1.58"/><rect class="cls-3" x="1276.56" y="157.56" width="1.53" height="1.53"/><rect class="cls-3" x="1276.58" y="157.58" width="1.48" height="1.48"/><rect class="cls-3" x="1276.61" y="157.61" width="1.44" height="1.44"/><rect class="cls-3" x="1276.63" y="157.63" width="1.4" height="1.4"/><rect class="cls-3" x="1276.65" y="157.65" width="1.35" height="1.35"/><rect class="cls-3" x="1276.67" y="157.67" width="1.31" height="1.31"/><rect class="cls-3" x="1276.69" y="157.69" width="1.27" height="1.27"/><rect class="cls-3" x="1276.71" y="157.71" width="1.24" height="1.24"/><rect class="cls-3" x="1276.73" y="157.73" width="1.2" height="1.2"/><rect class="cls-3" x="1276.75" y="157.75" width="1.16" height="1.16"/><rect class="cls-3" x="1276.76" y="157.76" width="1.13" height="1.13"/><rect class="cls-3" x="1276.78" y="157.78" width="1.09" height="1.09"/><rect class="cls-3" x="1276.8" y="157.8" width="1.06" height="1.06"/><rect class="cls-3" x="1276.81" y="157.81" width="1.03" height="1.03"/><rect class="cls-3" x="1276.83" y="157.83" width="1" height="1"/><rect class="cls-3" x="1276.84" y="157.84" width="0.97" height="0.97"/><rect class="cls-3" x="1276.86" y="157.86" width="0.94" height="0.94"/><rect class="cls-3" x="1276.87" y="157.87" width="0.91" height="0.91"/><rect class="cls-3" x="1276.88" y="157.88" width="0.88" height="0.88"/><rect class="cls-3" x="1276.9" y="157.9" width="0.86" height="0.86"/><rect class="cls-3" x="1276.91" y="157.91" width="0.83" height="0.83"/><rect class="cls-3" x="1276.92" y="157.92" width="0.81" height="0.81"/><rect class="cls-3" x="1276.94" y="157.94" width="0.78" height="0.78"/><rect class="cls-3" x="1276.95" y="157.95" width="0.76" height="0.76"/><rect class="cls-3" x="1276.96" y="157.96" width="0.74" height="0.74"/><rect class="cls-3" x="1276.97" y="157.97" width="0.71" height="0.71"/><rect class="cls-3" x="1276.98" y="157.98" width="0.69" height="0.69"/><rect class="cls-3" x="1276.99" y="157.99" width="0.67" height="0.67"/><rect class="cls-3" x="1277" y="158" width="0.65" height="0.65"/><rect class="cls-3" x="1277.01" y="158.01" width="0.63" height="0.63"/><rect class="cls-3" x="1277.02" y="158.02" width="0.61" height="0.61"/></svg>