<svg id="_4kant" data-name="4kant" xmlns="http://www.w3.org/2000/svg" viewBox="0 0 1496.7 806.68"><defs><style>.cls-1,.cls-2,.cls-3{fill:none;stroke:#000;stroke-miterlimit:10;}.cls-2{stroke-width:0.5px;}.cls-3{stroke-width:0.75px;}</style></defs><rect class="cls-1" x="571.83" y="381.33" width="397" height="397"/><rect class="cls-1" x="581.75" y="391.25" width="377.15" height="377.15"/><rect class="cls-1" x="591.18" y="400.68" width="358.29" height="358.29"/><rect class="cls-1" x="600.14" y="409.64" width="340.38" height="340.38"/><rect class="cls-1" x="608.65" y="418.15" width="323.36" height="323.36"/><rect class="cls-1" x="616.73" y="426.23" width="307.19" height="307.19"/><rect class="cls-1" x="624.41" y="433.91" width="291.83" height="291.83"/><rect class="cls-1" x="631.71" y="441.21" width="277.24" height="277.24"/><rect class="cls-1" x="638.64" y="448.14" width="263.38" height="263.38"/><rect class="cls-1" x="645.22" y="454.72" width="250.21" height="250.21"/><rect class="cls-1" x="651.48" y="460.98" width="237.7" height="237.7"/><rect class="cls-1" x="657.42" y="466.92" width="225.81" height="225.81"/><rect class="cls-1" x="663.06" y="472.56" width="214.52" height="214.52"/><rect class="cls-1" x="668.43" y="477.93" width="203.8" height="203.8"/><rect class="cls-1" x="673.52" y="483.02" width="193.61" height="193.61"/><rect class="cls-1" x="678.36" y="487.86" width="183.93" height="183.93"/><rect class="cls-1" x="682.96" y="492.46" width="174.73" height="174.73"/><rect class="cls-1" x="687.33" y="496.83" width="165.99" height="165.99"/><rect class="cls-1" x="691.48" y="500.98" width="157.69" height="157.69"/><rect class="cls-1" x="695.42" y="504.92" width="149.81" height="149.81"/><rect class="cls-1" x="699.17" y="508.67" width="142.32" height="142.32"/><rect class="cls-1" x="702.72" y="512.22" width="135.2" height="135.2"/><rect class="cls-1" x="706.1" y="515.6" width="128.44" height="128.44"/><rect class="cls-1" x="709.32" y="518.82" width="122.02" height="122.02"/><rect class="cls-1" x="712.37" y="521.87" width="115.92" height="115.92"/><rect class="cls-1" x="715.26" y="524.76" width="110.12" height="110.12"/><rect class="cls-1" x="718.02" y="527.52" width="104.62" height="104.62"/><rect class="cls-1" x="720.63" y="530.13" width="99.39" height="99.39"/><rect class="cls-1" x="723.12" y="532.62" width="94.42" height="94.42"/><rect class="cls-1" x="725.48" y="534.98" width="89.7" height="89.7"/><rect class="cls-1" x="727.72" y="537.22" width="85.21" height="85.21"/><rect class="cls-1" x="729.85" y="539.35" width="80.95" height="80.95"/><rect class="cls-1" x="731.87" y="541.37" width="76.9" height="76.9"/><rect class="cls-1" x="733.8" y="543.3" width="73.06" height="73.06"/><rect class="cls-1" x="735.62" y="545.12" width="69.41" height="69.41"/><rect class="cls-1" x="737.36" y="546.86" width="65.94" height="65.94"/><rect class="cls-1" x="739.01" y="548.51" width="62.64" height="62.64"/><rect class="cls-1" x="740.57" y="550.07" width="59.51" height="59.51"/><rect class="cls-1" x="742.06" y="551.56" width="56.53" height="56.53"/><rect class="cls-1" x="743.47" y="552.97" width="53.7" height="53.7"/><rect class="cls-1" x="744.82" y="554.32" width="51.02" height="51.02"/><rect class="cls-1" x="746.09" y="555.59" width="48.47" height="48.47"/><rect class="cls-1" x="747.3" y="556.8" width="46.04" height="46.04"/><rect class="cls-1" x="748.45" y="557.95" width="43.74" height="43.74"/><rect class="cls-1" x="749.55" y="559.05" width="41.56" height="41.56"/><rect class="cls-1" x="750.59" y="560.09" width="39.48" height="39.48"/><rect class="cls-1" x="751.57" y="561.07" width="37.5" height="37.5"/><rect class="cls-1" x="752.51" y="562.01" width="35.63" height="35.63"/><rect class="cls-1" x="753.4" y="562.9" width="33.85" height="33.85"/><rect class="cls-1" x="754.25" y="563.75" width="32.15" height="32.15"/><rect class="cls-1" x="755.05" y="564.55" width="30.55" height="30.55"/><rect class="cls-1" x="755.82" y="565.32" width="29.02" height="29.02"/><rect class="cls-1" x="756.54" y="566.04" width="27.57" height="27.57"/><rect class="cls-1" x="757.23" y="566.73" width="26.19" height="26.19"/><rect class="cls-1" x="757.89" y="567.39" width="24.88" height="24.88"/><rect class="cls-1" x="758.51" y="568.01" width="23.64" height="23.64"/><rect class="cls-1" x="759.1" y="568.6" width="22.45" height="22.45"/><rect class="cls-1" x="759.66" y="569.16" width="21.33" height="21.33"/><rect class="cls-1" x="760.19" y="569.69" width="20.27" height="20.27"/><rect class="cls-1" x="760.7" y="570.2" width="19.25" height="19.25"/><rect class="cls-1" x="761.18" y="570.68" width="18.29" height="18.29"/><rect class="cls-1" x="761.64" y="571.14" width="17.38" height="17.38"/><rect class="cls-1" x="762.07" y="571.57" width="16.51" height="16.51"/><rect class="cls-1" x="762.49" y="571.99" width="15.68" height="15.68"/><rect class="cls-1" x="762.88" y="572.38" width="14.9" height="14.9"/><rect class="cls-1" x="763.25" y="572.75" width="14.15" height="14.15"/><rect class="cls-1" x="763.6" y="573.1" width="13.44" height="13.44"/><rect class="cls-1" x="763.94" y="573.44" width="12.77" height="12.77"/><rect class="cls-1" x="764.26" y="573.76" width="12.13" height="12.13"/><rect class="cls-1" x="764.56" y="574.06" width="11.53" height="11.53"/><rect class="cls-1" x="764.85" y="574.35" width="10.95" height="10.95"/><rect class="cls-1" x="765.12" y="574.62" width="10.4" height="10.4"/><rect class="cls-1" x="765.38" y="574.88" width="9.88" height="9.88"/><rect class="cls-1" x="765.63" y="575.13" width="9.39" height="9.39"/><rect class="cls-1" x="765.87" y="575.37" width="8.92" height="8.92"/><rect class="cls-1" x="766.09" y="575.59" width="8.47" height="8.47"/><rect class="cls-1" x="766.3" y="575.8" width="8.05" height="8.05"/><rect class="cls-1" x="766.5" y="576" width="7.65" height="7.65"/><rect class="cls-1" x="766.69" y="576.19" width="7.26" height="7.26"/><rect class="cls-1" x="766.88" y="576.38" width="6.9" height="6.9"/><rect class="cls-1" x="767.05" y="576.55" width="6.56" height="6.56"/><rect class="cls-1" x="767.21" y="576.71" width="6.23" height="6.23"/><rect class="cls-2" x="26.83" y="537.83" width="239" height="239"/><rect class="cls-2" x="38.78" y="549.78" width="215.1" height="215.1"/><rect class="cls-2" x="49.53" y="560.53" width="193.59" height="193.59"/><rect class="cls-2" x="59.21" y="570.21" width="174.23" height="174.23"/><rect class="cls-2" x="67.92" y="578.92" width="156.81" height="156.81"/><rect class="cls-2" x="75.76" y="586.76" width="141.13" height="141.13"/><rect class="cls-2" x="82.82" y="593.82" width="127.01" height="127.01"/><rect class="cls-2" x="89.17" y="600.17" width="114.31" height="114.31"/><rect class="cls-2" x="94.89" y="605.89" width="102.88" height="102.88"/><rect class="cls-2" x="100.03" y="611.03" width="92.59" height="92.59"/><rect class="cls-2" x="104.66" y="615.66" width="83.33" height="83.33"/><rect class="cls-2" x="108.83" y="619.83" width="75" height="75"/><rect class="cls-2" x="112.58" y="623.58" width="67.5" height="67.5"/><rect class="cls-2" x="115.95" y="626.95" width="60.75" height="60.75"/><rect class="cls-2" x="118.99" y="629.99" width="54.68" height="54.68"/><rect class="cls-2" x="121.72" y="632.72" width="49.21" height="49.21"/><rect class="cls-2" x="124.18" y="635.18" width="44.29" height="44.29"/><rect class="cls-2" x="126.4" y="637.4" width="39.86" height="39.86"/><rect class="cls-2" x="128.39" y="639.39" width="35.87" height="35.87"/><rect class="cls-2" x="163.77" y="537.42" width="239" height="239"/><rect class="cls-2" x="175.72" y="549.37" width="215.1" height="215.1"/><rect class="cls-2" x="186.48" y="560.13" width="193.59" height="193.59"/><rect class="cls-2" x="196.16" y="569.81" width="174.23" height="174.23"/><rect class="cls-2" x="204.87" y="578.52" width="156.81" height="156.81"/><rect class="cls-2" x="212.71" y="586.36" width="141.13" height="141.13"/><rect class="cls-2" x="219.77" y="593.41" width="127.01" height="127.01"/><rect class="cls-2" x="226.12" y="599.77" width="114.31" height="114.31"/><rect class="cls-2" x="231.83" y="605.48" width="102.88" height="102.88"/><rect class="cls-2" x="236.98" y="610.63" width="92.59" height="92.59"/><rect class="cls-2" x="241.61" y="615.25" width="83.33" height="83.33"/><rect class="cls-2" x="245.77" y="619.42" width="75" height="75"/><rect class="cls-2" x="249.52" y="623.17" width="67.5" height="67.5"/><rect class="cls-2" x="252.9" y="626.55" width="60.75" height="60.75"/><rect class="cls-2" x="255.94" y="629.58" width="54.68" height="54.68"/><rect class="cls-2" x="258.67" y="632.32" width="49.21" height="49.21"/><rect class="cls-2" x="261.13" y="634.78" width="44.29" height="44.29"/><rect class="cls-2" x="263.34" y="636.99" width="39.86" height="39.86"/><rect class="cls-2" x="265.34" y="638.99" width="35.87" height="35.87"/><rect class="cls-2" x="1232.74" y="582.53" width="239" height="239" transform="translate(-169.82 1071.7) rotate(-44)"/><rect class="cls-2" x="1244.69" y="594.48" width="215.1" height="215.1" transform="translate(-169.82 1071.7) rotate(-44)"/><rect class="cls-2" x="1255.44" y="605.23" width="193.59" height="193.59" transform="translate(-169.82 1071.7) rotate(-44)"/><rect class="cls-2" x="1265.12" y="614.91" width="174.23" height="174.23" transform="translate(-169.82 1071.7) rotate(-44)"/><rect class="cls-2" x="1273.83" y="623.62" width="156.81" height="156.81" transform="translate(-169.82 1071.7) rotate(-44)"/><rect class="cls-2" x="1281.67" y="631.46" width="141.13" height="141.13" transform="translate(-169.82 1071.7) rotate(-44)"/><rect class="cls-2" x="1288.73" y="638.52" width="127.01" height="127.01" transform="translate(-169.82 1071.7) rotate(-44)"/><rect class="cls-2" x="1295.08" y="644.87" width="114.31" height="114.31" transform="translate(-169.82 1071.7) rotate(-44)"/><rect class="cls-2" x="1300.8" y="650.59" width="102.88" height="102.88" transform="translate(-169.82 1071.7) rotate(-44)"/><rect class="cls-2" x="1305.94" y="655.73" width="92.59" height="92.59" transform="translate(-169.82 1071.7) rotate(-44)"/><rect class="cls-2" x="1310.57" y="660.36" width="83.33" height="83.33" transform="translate(-169.82 1071.7) rotate(-44)"/><rect class="cls-2" x="1314.74" y="664.53" width="75" height="75" transform="translate(-169.82 1071.7) rotate(-44)"/><rect class="cls-2" x="1318.49" y="668.28" width="67.5" height="67.5" transform="translate(-169.82 1071.7) rotate(-44)"/><rect class="cls-2" x="1321.86" y="671.65" width="60.75" height="60.75" transform="translate(-169.82 1071.7) rotate(-44)"/><rect class="cls-2" x="1324.9" y="674.69" width="54.68" height="54.68" transform="translate(-169.82 1071.7) rotate(-44)"/><rect class="cls-2" x="1327.63" y="677.42" width="49.21" height="49.21" transform="translate(-169.82 1071.7) rotate(-44)"/><rect class="cls-2" x="1330.09" y="679.88" width="44.29" height="44.29" transform="translate(-169.82 1071.7) rotate(-44)"/><rect class="cls-2" x="1332.31" y="682.1" width="39.86" height="39.86" transform="translate(-169.82 1071.7) rotate(-44)"/><rect class="cls-2" x="1334.3" y="684.09" width="35.87" height="35.87" transform="translate(-169.82 1071.7) rotate(-44)"/><rect class="cls-2" x="1232.74" y="582.53" width="239" height="239" transform="translate(588.54 1989.59) rotate(-90)"/><rect class="cls-2" x="1244.69" y="594.48" width="215.1" height="215.1" transform="translate(588.54 1989.59) rotate(-90)"/><rect class="cls-2" x="1255.44" y="605.23" width="193.59" height="193.59" transform="translate(588.54 1989.59) rotate(-90)"/><rect class="cls-2" x="1265.12" y="614.91" width="174.23" height="174.23" transform="translate(588.54 1989.59) rotate(-90)"/><rect class="cls-2" x="1273.83" y="623.62" width="156.81" height="156.81" transform="translate(588.54 1989.59) rotate(-90)"/><rect class="cls-2" x="1281.67" y="631.46" width="141.13" height="141.13" transform="translate(588.54 1989.59) rotate(-90)"/><rect class="cls-2" x="1288.73" y="638.52" width="127.01" height="127.01" transform="translate(588.54 1989.59) rotate(-90)"/><rect class="cls-2" x="1295.08" y="644.87" width="114.31" height="114.31" transform="translate(588.54 1989.59) rotate(-90)"/><rect class="cls-2" x="1300.8" y="650.59" width="102.88" height="102.88" transform="translate(588.54 1989.59) rotate(-90)"/><rect class="cls-2" x="1305.94" y="655.73" width="92.59" height="92.59" transform="translate(588.54 1989.59) rotate(-90)"/><rect class="cls-2" x="1310.57" y="660.36" width="83.33" height="83.33" transform="translate(588.54 1989.59) rotate(-90)"/><rect class="cls-2" x="1314.74" y="664.53" width="75" height="75" transform="translate(588.54 1989.59) rotate(-90)"/><rect class="cls-2" x="1318.49" y="668.28" width="67.5" height="67.5" transform="translate(588.54 1989.59) rotate(-90)"/><rect class="cls-2" x="1321.86" y="671.65" width="60.75" height="60.75" transform="translate(588.54 1989.59) rotate(-90)"/><rect class="cls-2" x="1324.9" y="674.69" width="54.68" height="54.68" transform="translate(588.54 1989.59) rotate(-90)"/><rect class="cls-2" x="1327.63" y="677.42" width="49.21" height="49.21" transform="translate(588.54 1989.59) rotate(-90)"/><rect class="cls-2" x="1330.09" y="679.88" width="44.29" height="44.29" transform="translate(588.54 1989.59) rotate(-90)"/><rect class="cls-2" x="1332.31" y="682.1" width="39.86" height="39.86" transform="translate(588.54 1989.59) rotate(-90)"/><rect class="cls-2" x="1334.3" y="684.09" width="35.87" height="35.87" transform="translate(588.54 1989.59) rotate(-90)"/><rect class="cls-2" x="49.83" y="49.83" width="239" height="239"/><rect class="cls-2" x="111.5" y="114.5" width="239" height="239" transform="translate(-69.7 -56.47) rotate(-2)"/><rect class="cls-2" x="111.5" y="114.5" width="239" height="239" transform="translate(-77.43 -47.99) rotate(-4)"/><rect class="cls-2" x="111.5" y="114.5" width="239" height="239" transform="translate(-84.87 -39.25) rotate(-6)"/><rect class="cls-2" x="111.5" y="114.5" width="239" height="239" transform="translate(-91.99 -30.25) rotate(-8)"/><rect class="cls-2" x="111.5" y="114.5" width="239" height="239" transform="translate(-98.8 -21.01) rotate(-10)"/><rect class="cls-2" x="111.5" y="114.5" width="239" height="239" transform="translate(-105.28 -11.53) rotate(-12)"/><rect class="cls-2" x="111.5" y="114.5" width="239" height="239" transform="translate(-111.42 -1.84) rotate(-14)"/><rect class="cls-2" x="111.5" y="114.5" width="239" height="239" transform="matrix(0.96, -0.28, 0.28, 0.96, -117.22, 8.06)"/><rect class="cls-2" x="111.5" y="114.5" width="239" height="239" transform="translate(-122.68 18.16) rotate(-18)"/><rect class="cls-2" x="111.5" y="114.5" width="239" height="239" transform="translate(-127.78 28.44) rotate(-20)"/><rect class="cls-2" x="111.5" y="114.5" width="239" height="239" transform="translate(-132.51 38.9) rotate(-22)"/><rect class="cls-2" x="111.5" y="114.5" width="239" height="239" transform="translate(-136.88 49.51) rotate(-24)"/><rect class="cls-2" x="111.5" y="114.5" width="239" height="239" transform="translate(-140.87 60.27) rotate(-26)"/><rect class="cls-2" x="111.5" y="114.5" width="239" height="239" transform="translate(-144.49 71.16) rotate(-28)"/><rect class="cls-2" x="111.5" y="114.5" width="239" height="239" transform="translate(-147.73 82.18) rotate(-30)"/><rect class="cls-2" x="111.5" y="114.5" width="239" height="239" transform="translate(-150.57 93.29) rotate(-32)"/><rect class="cls-2" x="111.5" y="114.5" width="239" height="239" transform="translate(-153.03 104.51) rotate(-34)"/><rect class="cls-2" x="111.5" y="114.5" width="239" height="239" transform="translate(-155.1 115.79) rotate(-36)"/><rect class="cls-2" x="111.5" y="114.5" width="239" height="239" transform="translate(-156.77 127.15) rotate(-38)"/><rect class="cls-2" x="111.5" y="114.5" width="239" height="239" transform="translate(-158.04 138.56) rotate(-40)"/><rect class="cls-2" x="111.5" y="114.5" width="239" height="239" transform="translate(-158.92 150) rotate(-42)"/><rect class="cls-2" x="111.5" y="114.5" width="239" height="239" transform="translate(-159.39 161.47) rotate(-44)"/><rect class="cls-2" x="111.5" y="114.5" width="239" height="239" transform="translate(-159.47 172.94) rotate(-46)"/><rect class="cls-2" x="111.5" y="114.5" width="239" height="239" transform="translate(-159.14 184.42) rotate(-48)"/><rect class="cls-2" x="111.5" y="114.5" width="239" height="239" transform="translate(-158.41 195.87) rotate(-50)"/><rect class="cls-2" x="111.5" y="114.5" width="239" height="239" transform="translate(-157.29 207.29) rotate(-52)"/><rect class="cls-2" x="111.5" y="114.5" width="239" height="239" transform="translate(-155.76 218.67) rotate(-54)"/><rect class="cls-2" x="111.5" y="114.5" width="239" height="239" transform="translate(-153.84 229.98) rotate(-56)"/><rect class="cls-2" x="111.5" y="114.5" width="239" height="239" transform="translate(-151.53 241.22) rotate(-58)"/><rect class="cls-2" x="111.5" y="114.5" width="239" height="239" transform="translate(-148.82 252.38) rotate(-60)"/><rect class="cls-2" x="111.5" y="114.5" width="239" height="239" transform="translate(-145.73 263.43) rotate(-62)"/><rect class="cls-2" x="111.5" y="114.5" width="239" height="239" transform="translate(-142.26 274.37) rotate(-64)"/><rect class="cls-2" x="111.5" y="114.5" width="239" height="239" transform="translate(-138.4 285.18) rotate(-66)"/><rect class="cls-2" x="111.5" y="114.5" width="239" height="239" transform="translate(-134.17 295.85) rotate(-68)"/><rect class="cls-2" x="111.5" y="114.5" width="239" height="239" transform="translate(-129.57 306.36) rotate(-70)"/><rect class="cls-2" x="111.5" y="114.5" width="239" height="239" transform="translate(-124.6 316.71) rotate(-72)"/><rect class="cls-2" x="111.5" y="114.5" width="239" height="239" transform="translate(-119.28 326.88) rotate(-74)"/><rect class="cls-2" x="111.5" y="114.5" width="239" height="239" transform="translate(-113.61 336.85) rotate(-76)"/><rect class="cls-2" x="111.5" y="114.5" width="239" height="239" transform="translate(-107.59 346.63) rotate(-78)"/><rect class="cls-2" x="111.5" y="114.5" width="239" height="239" transform="translate(-101.23 356.18) rotate(-80)"/><rect class="cls-2" x="111.5" y="114.5" width="239" height="239" transform="matrix(0.14, -0.99, 0.99, 0.14, -94.55, 365.51)"/><rect class="cls-2" x="111.5" y="114.5" width="239" height="239" transform="translate(-87.54 374.6) rotate(-84)"/><rect class="cls-2" x="111.5" y="114.5" width="239" height="239" transform="translate(-80.22 383.44) rotate(-86)"/><rect class="cls-2" x="111.5" y="114.5" width="239" height="239" transform="translate(-72.59 392.02) rotate(-88)"/><rect class="cls-2" x="111.5" y="114.5" width="239" height="239" transform="translate(-64.67 400.33) rotate(-90)"/><rect class="cls-2" x="175.83" y="49.83" width="239" height="239"/><rect class="cls-2" x="237.5" y="114.5" width="239" height="239" transform="translate(-69.62 -52.07) rotate(-2)"/><rect class="cls-2" x="237.5" y="114.5" width="239" height="239" transform="translate(-77.13 -39.2) rotate(-4)"/><rect class="cls-2" x="237.5" y="114.5" width="239" height="239" transform="translate(-84.18 -26.08) rotate(-6)"/><rect class="cls-2" x="237.5" y="114.5" width="239" height="239" transform="translate(-90.77 -12.71) rotate(-8)"/><rect class="cls-2" x="237.5" y="114.5" width="239" height="239" transform="translate(-96.88 0.87) rotate(-10)"/><rect class="cls-2" x="237.5" y="114.5" width="239" height="239" transform="translate(-102.52 14.66) rotate(-12)"/><rect class="cls-2" x="237.5" y="114.5" width="239" height="239" transform="translate(-107.68 28.64) rotate(-14)"/><rect class="cls-2" x="237.5" y="114.5" width="239" height="239" transform="translate(-112.34 42.79) rotate(-16)"/><rect class="cls-2" x="237.5" y="114.5" width="239" height="239" transform="translate(-116.51 57.1) rotate(-18)"/><rect class="cls-2" x="237.5" y="114.5" width="239" height="239" transform="translate(-120.18 71.54) rotate(-20)"/><rect class="cls-2" x="237.5" y="114.5" width="239" height="239" transform="translate(-123.34 86.1) rotate(-22)"/><rect class="cls-2" x="237.5" y="114.5" width="239" height="239" transform="translate(-125.99 100.76) rotate(-24)"/><rect class="cls-2" x="237.5" y="114.5" width="239" height="239" transform="translate(-128.12 115.51) rotate(-26)"/><rect class="cls-2" x="237.5" y="114.5" width="239" height="239" transform="translate(-129.74 130.32) rotate(-28)"/><rect class="cls-2" x="237.5" y="114.5" width="239" height="239" transform="translate(-130.84 145.18) rotate(-30)"/><rect class="cls-2" x="237.5" y="114.5" width="239" height="239" transform="matrix(0.85, -0.53, 0.53, 0.85, -131.43, 160.06)"/><rect class="cls-2" x="237.5" y="114.5" width="239" height="239" transform="translate(-131.49 174.96) rotate(-34)"/><rect class="cls-2" x="237.5" y="114.5" width="239" height="239" transform="translate(-131.03 189.86) rotate(-36)"/><rect class="cls-2" x="237.5" y="114.5" width="239" height="239" transform="translate(-130.06 204.72) rotate(-38)"/><rect class="cls-2" x="237.5" y="114.5" width="239" height="239" transform="translate(-128.56 219.55) rotate(-40)"/><rect class="cls-2" x="237.5" y="114.5" width="239" height="239" transform="translate(-126.55 234.31) rotate(-42)"/><rect class="cls-2" x="237.5" y="114.5" width="239" height="239" transform="translate(-124.03 248.99) rotate(-44)"/><rect class="cls-2" x="237.5" y="114.5" width="239" height="239" transform="translate(-120.99 263.58) rotate(-46)"/><rect class="cls-2" x="237.5" y="114.5" width="239" height="239" transform="translate(-117.45 278.05) rotate(-48)"/><rect class="cls-2" x="237.5" y="114.5" width="239" height="239" transform="translate(-113.4 292.39) rotate(-50)"/><rect class="cls-2" x="237.5" y="114.5" width="239" height="239" transform="translate(-108.86 306.58) rotate(-52)"/><rect class="cls-2" x="237.5" y="114.5" width="239" height="239" transform="translate(-103.82 320.6) rotate(-54)"/><rect class="cls-2" x="237.5" y="114.5" width="239" height="239" transform="translate(-98.3 334.44) rotate(-56)"/><rect class="cls-2" x="237.5" y="114.5" width="239" height="239" transform="translate(-92.3 348.08) rotate(-58)"/><rect class="cls-2" x="237.5" y="114.5" width="239" height="239" transform="translate(-85.82 361.5) rotate(-60)"/><rect class="cls-2" x="237.5" y="114.5" width="239" height="239" transform="translate(-78.88 374.68) rotate(-62)"/><rect class="cls-2" x="237.5" y="114.5" width="239" height="239" transform="translate(-71.49 387.62) rotate(-64)"/><rect class="cls-2" x="237.5" y="114.5" width="239" height="239" transform="translate(-63.65 400.29) rotate(-66)"/><rect class="cls-2" x="237.5" y="114.5" width="239" height="239" transform="matrix(0.37, -0.93, 0.93, 0.37, -55.37, 412.67)"/><rect class="cls-2" x="237.5" y="114.5" width="239" height="239" transform="translate(-46.66 424.76) rotate(-70)"/><rect class="cls-2" x="237.5" y="114.5" width="239" height="239" transform="translate(-37.54 436.54) rotate(-72)"/><rect class="cls-2" x="237.5" y="114.5" width="239" height="239" transform="translate(-28.01 448) rotate(-74)"/><rect class="cls-2" x="237.5" y="114.5" width="239" height="239" transform="translate(-18.09 459.11) rotate(-76)"/><rect class="cls-2" x="237.5" y="114.5" width="239" height="239" transform="translate(-7.78 469.87) rotate(-78)"/><rect class="cls-2" x="237.5" y="114.5" width="239" height="239" transform="translate(2.89 480.27) rotate(-80)"/><rect class="cls-2" x="237.5" y="114.5" width="239" height="239" transform="translate(13.92 490.29) rotate(-82)"/><rect class="cls-2" x="237.5" y="114.5" width="239" height="239" transform="translate(25.29 499.91) rotate(-84)"/><rect class="cls-2" x="237.5" y="114.5" width="239" height="239" transform="translate(36.99 509.13) rotate(-86)"/><rect class="cls-2" x="237.5" y="114.5" width="239" height="239" transform="translate(49.01 517.94) rotate(-88)"/><rect class="cls-2" x="237.5" y="114.5" width="239" height="239" transform="translate(61.33 526.33) rotate(-90)"/><rect class="cls-3" x="1086.33" y="50.33" width="239" height="239"/><rect class="cls-3" x="1087.33" y="50.33" width="239" height="239"/><rect class="cls-3" x="1088.33" y="50.33" width="239" height="239"/><rect class="cls-3" x="1089.33" y="50.33" width="239" height="239"/><rect class="cls-3" x="1090.33" y="50.33" width="239" height="239"/><rect class="cls-3" x="1091.33" y="50.33" width="239" height="239"/><rect class="cls-3" x="1092.33" y="50.33" width="239" height="239"/><rect class="cls-3" x="1093.33" y="50.33" width="239" height="239"/><rect class="cls-3" x="1094.33" y="50.33" width="239" height="239"/><rect class="cls-3" x="1095.33" y="50.33" width="239" height="239"/><rect class="cls-3" x="1096.33" y="50.33" width="239" height="239"/><rect class="cls-3" x="1097.33" y="50.33" width="239" height="239"/><rect class="cls-3" x="1098.33" y="50.33" width="239" height="239"/><rect class="cls-3" x="1099.33" y="50.33" width="239" height="239"/><rect class="cls-3" x="1100.33" y="50.33" width="239" height="239"/><rect class="cls-3" x="1101.33" y="50.33" width="239" height="239"/><rect class="cls-3" x="1102.33" y="50.33" width="239" height="239"/><rect class="cls-3" x="1103.33" y="50.33" width="239" height="239"/><rect class="cls-3" x="1104.33" y="50.33" width="239" height="239"/><rect class="cls-3" x="1105.33" y="50.33" width="239" height="239"/><rect class="cls-3" x="1106.33" y="50.33" width="239" height="239"/><rect class="cls-3" x="1107.33" y="50.33" width="239" height="239"/><rect class="cls-3" x="1108.33" y="50.33" width="239" height="239"/><rect class="cls-3" x="1109.33" y="50.33" width="239" height="239"/><rect class="cls-3" x="1110.33" y="50.33" width="239" height="239"/><rect class="cls-3" x="1111.33" y="50.33" width="239" height="239"/><rect class="cls-3" x="1112.33" y="50.33" width="239" height="239"/><rect class="cls-3" x="1113.33" y="50.33" width="239" height="239"/><rect class="cls-3" x="1114.33" y="50.33" width="239" height="239"/><rect class="cls-3" x="1115.33" y="50.33" width="239" height="239"/><rect class="cls-3" x="1116.33" y="50.33" width="239" height="239"/><rect class="cls-3" x="1117.33" y="50.33" width="239" height="239"/><rect class="cls-3" x="1118.33" y="50.33" width="239" height="239"/><rect class="cls-3" x="1119.33" y="50.33" width="239" height="239"/><rect class="cls-3" x="1120.33" y="50.33" width="239" height="239"/><rect class="cls-3" x="1121.33" y="50.33" width="239" height="239"/><rect class="cls-3" x="1122.33" y="50.33" width="239" height="239"/><rect class="cls-3" x="1123.33" y="50.33" width="239" height="239"/><rect class="cls-3" x="1124.33" y="50.33" width="239" height="239"/><rect class="cls-3" x="1125.33" y="50.33" width="239" height="239"/><rect class="cls-3" x="1126.33" y="50.33" width="239" height="239"/><rect class="cls-3" x="1127.33" y="50.33" width="239" height="239"/><rect class="cls-3" x="1128.33" y="50.33" width="239" height="239"/><rect class="cls-3" x="1129.33" y="50.33" width="239" height="239"/><rect class="cls-3" x="1130.33" y="50.33" width="239" height="239"/><rect class="cls-3" x="1131.33" y="50.33" width="239" height="239"/><rect class="cls-3" x="1132.33" y="50.33" width="239" height="239"/><rect class="cls-3" x="1133.33" y="50.33" width="239" height="239"/><rect class="cls-3" x="1134.33" y="50.33" width="239" height="239"/><rect class="cls-3" x="1135.33" y="50.33" width="239" height="239"/><rect class="cls-3" x="1136.33" y="50.33" width="239" height="239"/><rect class="cls-3" x="1137.33" y="50.33" width="239" height="239"/><rect class="cls-3" x="1138.33" y="50.33" width="239" height="239"/><rect class="cls-3" x="1139.33" y="50.33" width="239" height="239"/><rect class="cls-3" x="1140.33" y="50.33" width="239" height="239"/><rect class="cls-3" x="1141.33" y="50.33" width="239" height="239"/><rect class="cls-3" x="1142.33" y="50.33" width="239" height="239"/><rect class="cls-3" x="1143.33" y="50.33" width="239" height="239"/><rect class="cls-3" x="1144.33" y="50.33" width="239" height="239"/><rect class="cls-3" x="1145.33" y="50.33" width="239" height="239"/><rect class="cls-3" x="1146.33" y="50.33" width="239" height="239"/><rect class="cls-3" x="1147.33" y="50.33" width="239" height="239"/><rect class="cls-3" x="1148.33" y="50.33" width="239" height="239"/><rect class="cls-3" x="1149.33" y="50.33" width="239" height="239"/><rect class="cls-3" x="1150.33" y="50.33" width="239" height="239"/><rect class="cls-3" x="1151.33" y="50.33" width="239" height="239"/><rect class="cls-3" x="1152.33" y="50.33" width="239" height="239"/><rect class="cls-3" x="1153.33" y="50.33" width="239" height="239"/><rect class="cls-3" x="1154.33" y="50.33" width="239" height="239"/><rect class="cls-3" x="1155.33" y="50.33" width="239" height="239"/><rect class="cls-3" x="1156.33" y="50.33" width="239" height="239"/><rect class="cls-3" x="1157.33" y="50.33" width="239" height="239"/><rect class="cls-3" x="1158.33" y="50.33" width="239" height="239"/><rect class="cls-3" x="1159.33" y="50.33" width="239" height="239"/><rect class="cls-3" x="1160.33" y="50.33" width="239" height="239"/><rect class="cls-3" x="1161.33" y="50.33" width="239" height="239"/><rect class="cls-3" x="1162.33" y="50.33" width="239" height="239"/><rect class="cls-3" x="1163.33" y="50.33" width="239" height="239"/><rect class="cls-3" x="1164.33" y="50.33" width="239" height="239"/><rect class="cls-3" x="1165.33" y="50.33" width="239" height="239"/><rect class="cls-3" x="1166.33" y="50.33" width="239" height="239"/><rect class="cls-3" x="1167.33" y="50.33" width="239" height="239"/><rect class="cls-3" x="1168.33" y="50.33" width="239" height="239"/><rect class="cls-3" x="1169.33" y="50.33" width="239" height="239"/><rect class="cls-3" x="1170.33" y="50.33" width="239" height="239"/><rect class="cls-3" x="1171.33" y="50.33" width="239" height="239"/><rect class="cls-3" x="1172.33" y="50.33" width="239" height="239"/><rect class="cls-3" x="1173.33" y="50.33" width="239" height="239"/><rect class="cls-3" x="1174.33" y="50.33" width="239" height="239"/><rect class="cls-3" x="1175.33" y="50.33" width="239" height="239"/><rect class="cls-3" x="1176.33" y="50.33" width="239" height="239"/><rect class="cls-3" x="1177.33" y="50.33" width="239" height="239"/><rect class="cls-3" x="1178.33" y="50.33" width="239" height="239"/><rect class="cls-3" x="1179.33" y="50.33" width="239" height="239"/><rect class="cls-3" x="1180.33" y="50.33" width="239" height="239"/><rect class="cls-3" x="1181.33" y="50.33" width="239" height="239"/><rect class="cls-3" x="1182.33" y="50.33" width="239" height="239"/><rect class="cls-3" x="1183.33" y="50.33" width="239" height="239"/><rect class="cls-3" x="1184.33" y="50.33" width="239" height="239"/><rect class="cls-3" x="1185.33" y="50.33" width="239" height="239"/><rect class="cls-3" x="1186.33" y="50.33" width="239" height="239"/><rect class="cls-3" x="1187.33" y="50.33" width="239" height="239"/><rect class="cls-3" x="1188.33" y="50.33" width="239" height="239"/><rect class="cls-3" x="1189.33" y="50.33" width="239" height="239"/><rect class="cls-3" x="1190.33" y="50.33" width="239" height="239"/><rect class="cls-3" x="1191.33" y="50.33" width="239" height="239"/><rect class="cls-3" x="1192.33" y="50.33" width="239" height="239"/><rect class="cls-3" x="1193.33" y="50.33" width="239" height="239"/><rect class="cls-3" x="1194.33" y="50.33" width="239" height="239"/><rect class="cls-3" x="1195.33" y="50.33" width="239" height="239"/><rect class="cls-3" x="1196.33" y="50.33" width="239" height="239"/><rect class="cls-3" x="1197.33" y="50.33" width="239" height="239"/><rect class="cls-3" x="1198.33" y="50.33" width="239" height="239"/><rect class="cls-3" x="1199.33" y="50.33" width="239" height="239"/><rect class="cls-3" x="1200.33" y="50.33" width="239" height="239"/><rect class="cls-3" x="1201.33" y="50.33" width="239" height="239"/><rect class="cls-3" x="1202.33" y="50.33" width="239" height="239"/><rect class="cls-3" x="1203.33" y="50.33" width="239" height="239"/><rect class="cls-3" x="1204.33" y="50.33" width="239" height="239"/><rect class="cls-3" x="1205.33" y="50.33" width="239" height="239"/><rect class="cls-3" x="1206.33" y="50.33" width="239" height="239"/><rect class="cls-3" x="1207.33" y="50.33" width="239" height="239"/><rect class="cls-3" x="1208.33" y="50.33" width="239" height="239"/><rect class="cls-3" x="1209.33" y="50.33" width="239" height="239"/><rect class="cls-3" x="1210.33" y="50.33" width="239" height="239"/><rect class="cls-3" x="1211.33" y="50.33" width="239" height="239"/><rect class="cls-3" x="1212.33" y="50.33" width="239" height="239"/><rect class="cls-3" x="1213.33" y="50.33" width="239" height="239"/><rect class="cls-3" x="1214.33" y="50.33" width="239" height="239"/><rect class="cls-3" x="1215.33" y="50.33" width="239" height="239"/><rect class="cls-3" x="1216.33" y="50.33" width="239" height="239"/><rect class="cls-3" x="1217.33" y="50.33" width="239" height="239"/><rect class="cls-3" x="1218.33" y="50.33" width="239" height="239"/><rect class="cls-3" x="1219.33" y="50.33" width="239" height="239"/><rect class="cls-3" x="1220.33" y="50.33" width="239" height="239"/><rect class="cls-3" x="1221.33" y="50.33" width="239" height="239"/><rect class="cls-3" x="1222.33" y="50.33" width="239" height="239"/><rect class="cls-3" x="1223.33" y="50.33" width="239" height="239"/><rect class="cls-3" x="1224.33" y="50.33" width="239" height="239"/><rect class="cls-3" x="1225.33" y="50.33" width="239" height="239"/><rect class="cls-3" x="1226.33" y="50.33" width="239" height="239"/><rect class="cls-3" x="1227.33" y="50.33" width="239" height="239"/><rect class="cls-3" x="1228.33" y="50.33" width="239" height="239"/><rect class="cls-3" x="1229.33" y="50.33" width="239" height="239"/><rect class="cls-3" x="1230.33" y="50.33" width="239" height="239"/><rect class="cls-3" x="1231.33" y="50.33" width="239" height="239"/><rect class="cls-3" x="1232.33" y="50.33" width="239" height="239"/><rect class="cls-3" x="1233.33" y="50.33" width="239" height="239"/><rect class="cls-3" x="1234.33" y="50.33" width="239" height="239"/><rect class="cls-3" x="1235.33" y="50.33" width="239" height="239"/><rect class="cls-3" x="1236.33" y="50.33" width="239" height="239"/><rect class="cls-3" x="1237.33" y="50.33" width="239" height="239"/><rect class="cls-3" x="1238.33" y="50.33" width="239" height="239"/><rect class="cls-3" x="1239.33" y="50.33" width="239" height="239"/><rect class="cls-3" x="1240.33" y="50.33" width="239" height="239"/><rect class="cls-3" x="1241.33" y="50.33" width="239" height="239"/><rect class="cls-3" x="1242.33" y="50.33" width="239" height="239"/><rect class="cls-3" x="1243.33" y="50.33" width="239" height="239"/><rect class="cls-3" x="1244.33" y="50.33" width="239" height="239"/><rect class="cls-3" x="1245.33" y="50.33" width="239" height="239"/><rect class="cls-3" x="1246.33" y="50.33" width="239" height="239"/><rect class="cls-3" x="1247.33" y="50.33" width="239" height="239"/><rect class="cls-3" x="1248.33" y="50.33" width="239" height="239"/><rect class="cls-3" x="1249.33" y="50.33" width="239" height="239"/><rect class="cls-3" x="1250.33" y="50.33" width="239" height="239"/><rect class="cls-3" x="1251.33" y="50.33" width="239" height="239"/><rect class="cls-3" x="1252.33" y="50.33" width="239" height="239"/><rect class="cls-3" x="1253.33" y="50.33" width="239" height="239"/><rect class="cls-3" x="1254.33" y="50.33" width="239" height="239"/><rect class="cls-3" x="1255.33" y="50.33" width="239" height="239"/><rect class="cls-3" x="1256.33" y="50.33" width="239" height="239"/><rect class="cls-3" x="1257.33" y="50.33" width="239" height="239"/><rect class="cls-2" x="630.83" y="50.83" width="239" height="239"/><polygon class="cls-2" points="867.74 50.83 628.74 50.83 632.91 289.83 871.91 289.83 867.74 50.83"/><polygon class="cls-2" points="865.65 50.83 626.65 50.83 635 289.83 874 289.83 865.65 50.83"/><polygon class="cls-2" points="863.57 50.83 624.57 50.83 637.08 289.83 876.08 289.83 863.57 50.83"/><polygon class="cls-2" points="861.48 50.83 622.48 50.83 639.17 289.83 878.17 289.83 861.48 50.83"/><polygon class="cls-2" points="859.4 50.83 620.4 50.83 641.26 289.83 880.26 289.83 859.4 50.83"/><polygon class="cls-2" points="857.31 50.83 618.31 50.83 643.34 289.83 882.34 289.83 857.31 50.83"/><polygon class="cls-2" points="855.23 50.83 616.23 50.83 645.43 289.83 884.43 289.83 855.23 50.83"/><polygon class="cls-2" points="853.14 50.83 614.14 50.83 647.51 289.83 886.51 289.83 853.14 50.83"/><polygon class="cls-2" points="851.05 50.83 612.05 50.83 649.6 289.83 888.6 289.83 851.05 50.83"/><polygon class="cls-2" points="848.97 50.83 609.97 50.83 651.68 289.83 890.68 289.83 848.97 50.83"/><polygon class="cls-2" points="846.88 50.83 607.88 50.83 653.77 289.83 892.77 289.83 846.88 50.83"/><polygon class="cls-2" points="844.8 50.83 605.8 50.83 655.86 289.83 894.86 289.83 844.8 50.83"/><polygon class="cls-2" points="842.71 50.83 603.71 50.83 657.94 289.83 896.94 289.83 842.71 50.83"/><polygon class="cls-2" points="840.62 50.83 601.62 50.83 660.03 289.83 899.03 289.83 840.62 50.83"/><polygon class="cls-2" points="838.54 50.83 599.54 50.83 662.11 289.83 901.11 289.83 838.54 50.83"/><polygon class="cls-2" points="836.45 50.83 597.45 50.83 664.2 289.83 903.2 289.83 836.45 50.83"/><polygon class="cls-2" points="834.37 50.83 595.37 50.83 666.29 289.83 905.29 289.83 834.37 50.83"/><polygon class="cls-2" points="832.28 50.83 593.28 50.83 668.37 289.83 907.37 289.83 832.28 50.83"/><polygon class="cls-2" points="830.2 50.83 591.2 50.83 670.46 289.83 909.46 289.83 830.2 50.83"/><polygon class="cls-2" points="828.11 50.83 589.11 50.83 672.54 289.83 911.54 289.83 828.11 50.83"/><polygon class="cls-2" points="826.02 50.83 587.02 50.83 674.63 289.83 913.63 289.83 826.02 50.83"/><polygon class="cls-2" points="823.94 50.83 584.94 50.83 676.72 289.83 915.72 289.83 823.94 50.83"/><polygon class="cls-2" points="821.85 50.83 582.85 50.83 678.8 289.83 917.8 289.83 821.85 50.83"/><polygon class="cls-2" points="819.76 50.83 580.76 50.83 680.89 289.83 919.89 289.83 819.76 50.83"/><polygon class="cls-2" points="817.68 50.83 578.68 50.83 682.97 289.83 921.97 289.83 817.68 50.83"/><polygon class="cls-2" points="815.59 50.83 576.59 50.83 685.06 289.83 924.06 289.83 815.59 50.83"/><polygon class="cls-2" points="813.51 50.83 574.51 50.83 687.14 289.83 926.14 289.83 813.51 50.83"/><polygon class="cls-2" points="811.42 50.83 572.42 50.83 689.23 289.83 928.23 289.83 811.42 50.83"/><polygon class="cls-2" points="809.34 50.83 570.34 50.83 691.32 289.83 930.32 289.83 809.34 50.83"/><polygon class="cls-2" points="807.25 50.83 568.25 50.83 693.4 289.83 932.4 289.83 807.25 50.83"/><polygon class="cls-2" points="805.16 50.83 566.16 50.83 695.49 289.83 934.49 289.83 805.16 50.83"/><polygon class="cls-2" points="803.08 50.83 564.08 50.83 697.57 289.83 936.57 289.83 803.08 50.83"/><polygon class="cls-2" points="800.99 50.83 561.99 50.83 699.66 289.83 938.66 289.83 800.99 50.83"/><polygon class="cls-2" points="798.91 50.83 559.91 50.83 701.75 289.83 940.75 289.83 798.91 50.83"/><polygon class="cls-2" points="796.82 50.83 557.82 50.83 703.83 289.83 942.83 289.83 796.82 50.83"/><polygon class="cls-2" points="794.74 50.83 555.74 50.83 705.92 289.83 944.92 289.83 794.74 50.83"/><polygon class="cls-2" points="792.65 50.83 553.65 50.83 708 289.83 947 289.83 792.65 50.83"/><polygon class="cls-2" points="790.56 50.83 551.56 50.83 710.09 289.83 949.09 289.83 790.56 50.83"/><polygon class="cls-2" points="788.48 50.83 549.48 50.83 712.18 289.83 951.18 289.83 788.48 50.83"/><polygon class="cls-2" points="786.39 50.83 547.39 50.83 714.26 289.83 953.26 289.83 786.39 50.83"/><polygon class="cls-2" points="784.3 50.83 545.3 50.83 716.35 289.83 955.35 289.83 784.3 50.83"/><polygon class="cls-2" points="782.22 50.83 543.22 50.83 718.43 289.83 957.43 289.83 782.22 50.83"/><polygon class="cls-2" points="780.13 50.83 541.13 50.83 720.52 289.83 959.52 289.83 780.13 50.83"/><polygon class="cls-2" points="778.05 50.83 539.05 50.83 722.61 289.83 961.61 289.83 778.05 50.83"/><polygon class="cls-2" points="775.96 50.83 536.96 50.83 724.69 289.83 963.69 289.83 775.96 50.83"/><polygon class="cls-2" points="773.88 50.83 534.88 50.83 726.78 289.83 965.78 289.83 773.88 50.83"/><polygon class="cls-2" points="771.79 50.83 532.79 50.83 728.86 289.83 967.86 289.83 771.79 50.83"/><polygon class="cls-2" points="769.7 50.83 530.7 50.83 730.95 289.83 969.95 289.83 769.7 50.83"/><polygon class="cls-2" points="767.62 50.83 528.62 50.83 733.03 289.83 972.03 289.83 767.62 50.83"/><polygon class="cls-2" points="765.53 50.83 526.53 50.83 735.12 289.83 974.12 289.83 765.53 50.83"/><polygon class="cls-2" points="763.45 50.83 524.45 50.83 737.21 289.83 976.21 289.83 763.45 50.83"/><polygon class="cls-2" points="761.36 50.83 522.36 50.83 739.29 289.83 978.29 289.83 761.36 50.83"/><polygon class="cls-2" points="759.27 50.83 520.27 50.83 741.38 289.83 980.38 289.83 759.27 50.83"/><polygon class="cls-2" points="757.19 50.83 518.19 50.83 743.46 289.83 982.46 289.83 757.19 50.83"/><polygon class="cls-2" points="755.1 50.83 516.1 50.83 745.55 289.83 984.55 289.83 755.1 50.83"/><polygon class="cls-2" points="753.02 50.83 514.02 50.83 747.64 289.83 986.64 289.83 753.02 50.83"/><polygon class="cls-2" points="750.93 50.83 511.93 50.83 749.72 289.83 988.72 289.83 750.93 50.83"/><polygon class="cls-2" points="748.85 50.83 509.85 50.83 751.81 289.83 990.81 289.83 748.85 50.83"/><polygon class="cls-2" points="746.76 50.83 507.76 50.83 753.89 289.83 992.89 289.83 746.76 50.83"/><polygon class="cls-2" points="744.67 50.83 505.67 50.83 755.98 289.83 994.98 289.83 744.67 50.83"/><polygon class="cls-2" points="742.59 50.83 503.59 50.83 758.07 289.83 997.07 289.83 742.59 50.83"/><polygon class="cls-2" points="740.5 50.83 501.5 50.83 760.15 289.83 999.15 289.83 740.5 50.83"/><polygon class="cls-2" points="738.42 50.83 499.42 50.83 762.24 289.83 1001.24 289.83 738.42 50.83"/><polygon class="cls-2" points="736.33 50.83 497.33 50.83 764.32 289.83 1003.32 289.83 736.33 50.83"/><polygon class="cls-2" points="734.24 50.83 495.24 50.83 766.41 289.83 1005.41 289.83 734.24 50.83"/><polygon class="cls-2" points="732.16 50.83 493.16 50.83 768.49 289.83 1007.49 289.83 732.16 50.83"/><polygon class="cls-2" points="730.07 50.83 491.07 50.83 770.58 289.83 1009.58 289.83 730.07 50.83"/><polygon class="cls-2" points="727.99 50.83 488.99 50.83 772.67 289.83 1011.67 289.83 727.99 50.83"/><polygon class="cls-2" points="725.9 50.83 486.9 50.83 774.75 289.83 1013.75 289.83 725.9 50.83"/><polygon class="cls-2" points="723.82 50.83 484.81 50.83 776.84 289.83 1015.84 289.83 723.82 50.83"/><polygon class="cls-2" points="721.73 50.83 482.73 50.83 778.92 289.83 1017.92 289.83 721.73 50.83"/><polygon class="cls-2" points="719.64 50.83 480.64 50.83 781.01 289.83 1020.01 289.83 719.64 50.83"/><polygon class="cls-2" points="717.56 50.83 478.56 50.83 783.1 289.83 1022.1 289.83 717.56 50.83"/><polygon class="cls-2" points="715.47 50.83 476.47 50.83 785.18 289.83 1024.18 289.83 715.47 50.83"/><polygon class="cls-2" points="713.38 50.83 474.38 50.83 787.27 289.83 1026.27 289.83 713.38 50.83"/><polygon class="cls-2" points="711.3 50.83 472.3 50.83 789.35 289.83 1028.35 289.83 711.3 50.83"/><polygon class="cls-2" points="709.21 50.83 470.21 50.83 791.44 289.83 1030.44 289.83 709.21 50.83"/><polygon class="cls-2" points="707.13 50.83 468.13 50.83 793.52 289.83 1032.53 289.83 707.13 50.83"/><polygon class="cls-2" points="705.04 50.83 466.04 50.83 795.61 289.83 1034.61 289.83 705.04 50.83"/><polygon class="cls-2" points="702.96 50.83 463.96 50.83 797.7 289.83 1036.7 289.83 702.96 50.83"/><polygon class="cls-2" points="700.87 50.83 461.87 50.83 799.78 289.83 1038.78 289.83 700.87 50.83"/><polygon class="cls-2" points="698.78 50.83 459.78 50.83 801.87 289.83 1040.87 289.83 698.78 50.83"/><polygon class="cls-2" points="696.7 50.83 457.7 50.83 803.95 289.83 1042.95 289.83 696.7 50.83"/><polygon class="cls-2" points="694.61 50.83 455.61 50.83 806.04 289.83 1045.04 289.83 694.61 50.83"/><polygon class="cls-2" points="692.53 50.83 453.53 50.83 808.13 289.83 1047.13 289.83 692.53 50.83"/><polygon class="cls-2" points="690.44 50.83 451.44 50.83 810.21 289.83 1049.21 289.83 690.44 50.83"/><polygon class="cls-2" points="688.36 50.83 449.36 50.83 812.3 289.83 1051.3 289.83 688.36 50.83"/><polygon class="cls-2" points="686.27 50.83 447.27 50.83 814.38 289.83 1053.38 289.83 686.27 50.83"/><polygon class="cls-2" points="684.18 50.83 445.18 50.83 816.47 289.83 1055.47 289.83 684.18 50.83"/><polygon class="cls-2" points="682.1 50.83 443.1 50.83 818.56 289.83 1057.56 289.83 682.1 50.83"/><polygon class="cls-2" points="680.01 50.83 441.01 50.83 820.64 289.83 1059.64 289.83 680.01 50.83"/><polygon class="cls-2" points="677.92 50.83 438.93 50.83 822.73 289.83 1061.73 289.83 677.92 50.83"/><polygon class="cls-2" points="675.84 50.83 436.84 50.83 824.81 289.83 1063.81 289.83 675.84 50.83"/><polygon class="cls-2" points="673.75 50.83 434.75 50.83 826.9 289.83 1065.9 289.83 673.75 50.83"/><polygon class="cls-2" points="671.67 50.83 432.67 50.83 828.99 289.83 1067.98 289.83 671.67 50.83"/><polygon class="cls-2" points="669.58 50.83 430.58 50.83 831.07 289.83 1070.07 289.83 669.58 50.83"/><polygon class="cls-2" points="667.5 50.83 428.5 50.83 833.16 289.83 1072.16 289.83 667.5 50.83"/><polygon class="cls-2" points="665.41 50.83 426.41 50.83 835.24 289.83 1074.24 289.83 665.41 50.83"/><polygon class="cls-2" points="663.32 50.83 424.32 50.83 837.33 289.83 1076.33 289.83 663.32 50.83"/><polygon class="cls-2" points="661.24 50.83 422.24 50.83 839.41 289.83 1078.41 289.83 661.24 50.83"/><polygon class="cls-2" points="659.15 50.83 420.15 50.83 841.5 289.83 1080.5 289.83 659.15 50.83"/><polygon class="cls-2" points="657.07 50.83 418.07 50.83 843.59 289.83 1082.59 289.83 657.07 50.83"/><polygon class="cls-2" points="654.98 50.83 415.98 50.83 845.67 289.83 1084.67 289.83 654.98 50.83"/><polygon class="cls-2" points="652.89 50.83 413.89 50.83 847.76 289.83 1086.76 289.83 652.89 50.83"/><polygon class="cls-2" points="650.81 50.83 411.81 50.83 849.84 289.83 1088.84 289.83 650.81 50.83"/></svg>