<svg id="star_FIG" xmlns="http://www.w3.org/2000/svg" viewBox="0 0 606.25 585.98"><defs><style>.cls-1{fill:none;stroke:#fff;stroke-miterlimit:10;stroke-width:0.5px;}</style></defs><polygon class="cls-1" points="288 0.56 374.67 176.17 568.47 204.34 428.24 341.03 461.34 534.04 288 442.91 114.67 534.04 147.77 341.03 7.54 204.34 201.34 176.17 288 0.56"/><polygon class="cls-1" points="283.35 0.61 373.07 174.68 567.33 199.45 429.5 338.57 465.97 530.98 291.07 442.89 119.35 537.03 149.08 343.46 6.48 209.24 199.76 177.7 283.35 0.61"/><polygon class="cls-1" points="278.69 0.73 371.44 173.21 566.1 194.59 430.72 336.09 470.55 527.83 294.13 442.81 124.08 539.93 150.43 345.88 5.51 214.16 198.21 179.25 278.69 0.73"/><polygon class="cls-1" points="274.04 0.93 369.79 171.76 564.79 189.74 431.9 333.59 475.06 524.6 297.19 442.67 128.87 542.75 151.82 348.27 4.63 219.1 196.69 180.84 274.04 0.93"/><polygon class="cls-1" points="269.4 1.22 368.11 170.35 563.39 184.92 433.04 331.07 479.53 521.3 300.25 442.49 133.7 545.48 153.26 350.63 3.83 224.05 195.19 182.44 269.4 1.22"/><polygon class="cls-1" points="264.76 1.58 366.4 168.97 561.91 180.13 434.13 328.52 483.93 517.92 303.31 442.24 138.57 548.13 154.73 352.97 3.12 229.02 193.72 184.07 264.76 1.58"/><polygon class="cls-1" points="260.12 2.03 364.67 167.61 560.35 175.36 435.18 325.97 488.27 514.46 306.36 441.95 143.5 550.7 156.25 355.28 2.49 234 192.28 185.73 260.12 2.03"/><polygon class="cls-1" points="255.5 2.55 362.92 166.29 558.71 170.62 436.18 323.39 492.56 510.93 309.41 441.6 148.47 553.18 157.8 357.57 1.96 238.98 190.88 187.42 255.5 2.55"/><polygon class="cls-1" points="250.88 3.16 361.15 165 556.98 165.91 437.13 320.79 496.78 507.32 312.44 441.2 153.48 555.57 159.4 359.83 1.5 243.98 189.5 189.12 250.88 3.16"/><polygon class="cls-1" points="246.28 3.85 359.35 163.74 555.17 161.24 438.04 318.18 500.93 503.64 315.48 440.75 158.53 557.87 161.03 362.06 1.14 248.98 188.15 190.85 246.28 3.85"/><polygon class="cls-1" points="241.69 4.62 357.53 162.51 553.27 156.59 438.91 315.56 505.03 499.89 318.5 440.25 163.62 560.09 162.7 364.26 0.87 253.99 186.83 192.61 241.69 4.62"/><polygon class="cls-1" points="237.11 5.47 355.69 161.31 551.3 151.98 439.73 312.92 509.05 496.07 321.51 439.69 168.75 562.22 164.42 366.43 0.68 259.01 185.54 194.39 237.11 5.47"/><polygon class="cls-1" points="232.55 6.39 353.83 160.15 549.25 147.4 440.5 310.26 513.01 492.17 324.52 439.07 173.91 564.25 166.16 368.57 0.58 264.02 184.28 196.19 232.55 6.39"/><polygon class="cls-1" points="228 7.4 351.95 159.01 547.12 142.86 441.23 307.59 516.9 488.21 327.51 438.41 179.11 566.2 167.95 370.68 0.56 269.04 183.06 198.01 228 7.4"/><polygon class="cls-1" points="223.47 8.49 350.05 157.91 544.9 138.35 441.91 304.91 520.72 484.18 330.49 437.7 184.35 568.05 169.77 372.76 0.64 274.06 181.86 199.85 223.47 8.49"/><polygon class="cls-1" points="218.97 9.65 348.13 156.85 542.62 133.89 442.54 302.22 524.47 480.09 333.45 436.93 189.61 569.82 171.63 374.81 0.8 279.07 180.7 201.71 218.97 9.65"/><polygon class="cls-1" points="214.48 10.9 346.2 155.82 540.25 129.47 443.13 299.52 528.15 475.93 336.41 436.11 194.91 571.49 173.53 376.82 1.05 284.08 179.57 203.59 214.48 10.9"/><polygon class="cls-1" points="210.02 12.22 344.24 154.82 537.8 125.09 443.66 296.81 531.75 471.71 339.35 435.24 200.23 573.07 175.45 378.81 1.38 289.09 178.48 205.5 210.02 12.22"/><polygon class="cls-1" points="205.58 13.62 342.27 153.85 535.28 120.75 444.16 294.08 535.28 467.42 342.27 434.32 205.58 574.55 177.42 380.75 1.81 294.08 177.42 207.42 205.58 13.62"/><polygon class="cls-1" points="201.16 15.1 340.28 152.92 532.69 116.45 444.6 291.36 538.74 463.08 345.18 433.35 210.95 575.94 179.41 382.67 2.32 299.08 176.39 209.36 201.16 15.1"/><polygon class="cls-1" points="196.78 16.65 338.28 152.03 530.02 112.21 445 288.62 542.12 458.67 348.07 432.32 216.35 577.24 181.44 384.54 2.92 304.06 175.4 211.31 196.78 16.65"/><polygon class="cls-1" points="192.41 18.28 336.26 151.17 527.27 108.01 445.34 285.88 545.42 454.21 350.94 431.25 221.77 578.44 183.51 386.39 3.6 309.03 174.44 213.29 192.41 18.28"/><polygon class="cls-1" points="188.08 19.99 334.23 150.34 524.46 103.86 445.64 283.13 548.64 449.69 353.79 430.13 227.21 579.55 185.6 388.19 4.37 313.98 173.51 215.28 188.08 19.99"/><polygon class="cls-1" points="183.78 21.77 332.18 149.56 521.57 99.75 445.9 280.37 551.78 445.11 356.62 428.95 232.67 580.57 187.73 389.96 5.23 318.93 172.62 217.28 183.78 21.77"/><polygon class="cls-1" points="179.51 23.63 330.12 148.8 518.61 95.7 446.1 277.62 554.85 440.48 359.43 427.73 238.15 581.48 189.88 391.69 6.17 323.85 171.76 219.3 179.51 23.63"/><polygon class="cls-1" points="175.28 25.56 328.04 148.09 515.58 91.7 446.26 274.86 557.83 435.8 362.22 426.46 243.64 582.3 192.07 393.38 7.21 328.76 170.94 221.34 175.28 25.56"/><polygon class="cls-1" points="171.07 27.56 325.95 147.4 512.48 87.76 446.36 272.09 560.73 431.06 364.99 425.14 249.14 583.03 194.28 395.04 8.32 333.65 170.16 223.39 171.07 27.56"/><polygon class="cls-1" points="166.91 29.64 323.86 146.76 509.31 83.87 446.42 269.33 563.54 426.27 367.73 423.77 254.66 583.66 196.53 396.66 9.52 338.53 169.41 225.45 166.91 29.64"/><polygon class="cls-1" points="162.78 31.79 321.75 146.15 506.08 80.03 446.43 266.56 566.28 421.44 370.45 422.36 260.18 584.2 198.8 398.23 10.81 343.38 168.7 227.53 162.78 31.79"/><polygon class="cls-1" points="158.69 34.01 319.63 145.58 502.78 76.26 446.4 263.8 568.93 416.56 373.14 420.89 265.72 584.63 201.1 399.77 12.18 348.2 168.02 229.62 158.69 34.01"/><polygon class="cls-1" points="154.63 36.3 317.5 145.05 499.41 72.54 446.31 261.03 571.49 411.64 375.81 419.38 271.26 584.97 203.42 401.27 13.63 353 167.38 231.72 154.63 36.3"/><polygon class="cls-1" points="150.62 38.66 315.36 144.55 495.98 68.88 446.18 258.27 573.96 406.67 378.45 417.83 276.81 585.22 205.77 402.72 15.17 357.78 166.78 233.83 150.62 38.66"/><polygon class="cls-1" points="146.66 41.1 313.21 144.09 492.48 65.28 446 255.51 576.35 401.65 381.06 416.23 282.36 585.37 208.15 404.14 16.79 362.53 166.21 235.95 146.66 41.1"/><polygon class="cls-1" points="142.73 43.6 311.06 143.67 488.93 61.74 445.77 252.76 578.65 396.6 383.65 414.58 287.91 585.41 210.55 405.51 18.49 367.25 165.69 238.08 142.73 43.6"/><polygon class="cls-1" points="138.85 46.17 308.9 143.29 485.31 58.27 445.49 250.01 580.87 391.51 386.2 412.89 293.46 585.37 212.97 406.84 20.28 371.93 165.19 240.22 138.85 46.17"/><polygon class="cls-1" points="135.01 48.8 306.73 142.94 481.63 54.85 445.16 247.26 582.99 386.38 388.73 411.15 299.01 585.22 215.42 408.13 22.14 376.59 164.74 242.37 135.01 48.8"/><polygon class="cls-1" points="131.22 51.51 304.56 142.64 477.89 51.51 444.79 244.52 585.02 381.21 391.23 409.37 304.56 584.98 217.89 409.37 24.09 381.21 164.32 244.52 131.22 51.51"/><polygon class="cls-1" points="127.48 54.28 302.38 142.37 474.1 48.23 444.37 241.79 586.96 376.01 393.69 407.55 310.1 584.65 220.38 410.58 26.12 385.8 163.94 246.68 127.48 54.28"/><polygon class="cls-1" points="123.78 57.11 300.2 142.13 470.25 45.01 443.9 239.06 588.82 370.78 396.12 405.69 315.63 584.21 222.89 411.74 28.23 390.36 163.6 248.85 123.78 57.11"/><polygon class="cls-1" points="120.14 60.01 298.01 141.94 466.34 41.87 443.38 236.35 590.58 365.51 398.52 403.78 321.16 583.68 225.42 412.85 30.41 394.87 163.3 251.03 120.14 60.01"/><polygon class="cls-1" points="116.55 62.97 295.82 141.78 462.38 38.79 442.82 233.64 592.24 360.22 400.88 401.83 326.68 583.05 227.97 413.92 32.68 399.35 163.04 253.2 116.55 62.97"/><polygon class="cls-1" points="113.01 65.99 293.63 141.67 458.36 35.78 442.21 230.94 593.82 354.89 403.21 399.84 332.18 582.33 230.54 414.94 35.02 403.78 162.81 255.39 113.01 65.99"/><polygon class="cls-1" points="109.52 69.08 291.44 141.59 454.3 32.84 441.55 228.26 595.3 349.54 405.51 397.81 337.67 581.51 233.12 415.93 37.44 408.18 162.62 257.57 109.52 69.08"/><polygon class="cls-1" points="106.09 72.22 289.24 141.55 450.18 29.97 440.84 225.58 596.69 344.17 407.77 395.74 343.15 580.6 235.72 416.86 39.94 412.53 162.47 259.76 106.09 72.22"/><polygon class="cls-1" points="102.71 75.43 287.05 141.55 446.01 27.18 440.09 222.92 597.98 338.77 409.99 393.63 348.61 579.59 238.34 417.75 42.51 416.83 162.36 261.96 102.71 75.43"/><polygon class="cls-1" points="99.39 78.69 284.85 141.58 441.8 24.46 439.3 220.28 599.18 333.35 412.18 391.48 354.05 578.48 240.98 418.59 45.16 421.1 162.28 264.15 99.39 78.69"/><polygon class="cls-1" points="96.13 82.01 282.66 141.66 437.54 21.81 438.45 217.64 600.29 327.91 414.33 389.29 359.47 577.28 243.62 419.39 47.88 425.31 162.25 266.34 96.13 82.01"/><polygon class="cls-1" points="92.92 85.39 280.46 141.77 433.23 19.24 437.56 215.02 601.3 322.45 416.44 387.07 364.87 575.99 246.28 420.14 50.67 429.48 162.25 268.54 92.92 85.39"/><polygon class="cls-1" points="89.78 88.82 278.27 141.92 428.88 16.74 436.63 212.42 602.22 316.97 418.51 384.81 370.24 574.6 248.96 420.85 53.54 433.6 162.29 270.73 89.78 88.82"/><polygon class="cls-1" points="86.69 92.31 276.09 142.11 424.48 14.32 435.65 209.84 603.03 311.48 420.54 382.51 375.6 573.12 251.64 421.51 56.48 437.66 162.37 272.93 86.69 92.31"/><polygon class="cls-1" points="83.67 95.85 273.9 142.34 420.05 11.98 434.62 207.27 603.76 305.98 422.53 380.18 380.92 571.54 254.34 422.12 59.49 441.68 162.49 275.12 83.67 95.85"/><polygon class="cls-1" points="80.71 99.44 271.73 142.6 415.57 9.71 433.55 204.72 604.38 300.46 424.48 377.82 386.21 569.88 257.05 422.68 62.57 445.64 162.64 277.31 80.71 99.44"/><polygon class="cls-1" points="77.81 103.08 269.55 142.9 411.06 7.53 432.44 202.19 604.91 294.93 426.39 375.42 391.48 568.12 259.76 423.2 65.71 449.55 162.84 279.49 77.81 103.08"/><polygon class="cls-1" points="74.98 106.78 267.38 143.24 406.5 5.42 431.28 199.68 605.35 289.4 428.25 372.99 396.71 566.26 262.49 423.67 68.93 453.4 163.07 281.68 74.98 106.78"/><polygon class="cls-1" points="72.21 110.52 265.22 143.62 401.92 3.39 430.07 197.19 605.68 283.86 430.07 370.52 401.92 564.32 265.22 424.09 72.21 457.19 163.34 283.86 72.21 110.52"/></svg>