<svg id="Layer_1" data-name="Layer 1" xmlns="http://www.w3.org/2000/svg" viewBox="0 0 765.51 728.04"><defs><style>.cls-1{fill:none;stroke:aqua;stroke-miterlimit:10;}</style></defs><polygon class="cls-1" points="382.75 1.13 500.7 240.11 764.44 278.44 573.6 464.46 618.65 727.13 382.75 603.11 146.86 727.13 191.91 464.46 1.07 278.44 264.81 240.11 382.75 1.13"/><polygon class="cls-1" points="382.75 19.28 494.8 246.31 745.35 282.72 564.05 459.44 606.85 708.98 382.75 591.16 158.66 708.98 201.46 459.44 20.16 282.72 270.71 246.31 382.75 19.28"/><polygon class="cls-1" points="382.75 36.52 489.2 252.21 727.22 286.79 554.99 454.68 595.65 691.74 382.75 579.81 169.86 691.74 210.52 454.68 38.29 286.79 276.31 252.21 382.75 36.52"/><polygon class="cls-1" points="382.75 52.9 483.88 257.8 710 290.66 546.38 450.15 585 675.36 382.75 569.03 180.51 675.36 219.13 450.15 55.51 290.66 281.63 257.8 382.75 52.9"/><polygon class="cls-1" points="382.75 68.46 478.82 263.12 693.64 294.33 538.2 445.85 574.89 659.8 382.75 558.78 190.62 659.8 227.31 445.85 71.87 294.33 286.69 263.12 382.75 68.46"/><polygon class="cls-1" points="382.75 83.25 474.02 268.17 678.09 297.82 530.42 441.76 565.28 645.01 382.75 549.05 200.23 645.01 235.09 441.76 87.42 297.82 291.49 268.17 382.75 83.25"/><polygon class="cls-1" points="382.75 97.29 469.46 272.97 663.33 301.14 523.04 437.88 556.16 630.97 382.75 539.8 209.35 630.97 242.47 437.88 102.19 301.14 296.05 272.97 382.75 97.29"/><polygon class="cls-1" points="382.75 110.63 465.12 277.52 649.3 304.29 516.03 434.19 547.49 617.63 382.75 531.02 218.02 617.63 249.48 434.19 116.21 304.29 300.39 277.52 382.75 110.63"/><polygon class="cls-1" points="382.75 123.31 461 281.86 635.97 307.28 509.36 430.69 539.25 604.95 382.75 522.68 226.26 604.95 256.15 430.69 129.54 307.28 304.51 281.86 382.75 123.31"/><polygon class="cls-1" points="382.75 135.35 457.09 285.97 623.31 310.12 503.03 427.36 531.43 592.91 382.75 514.75 234.09 592.91 262.48 427.36 142.2 310.12 308.42 285.97 382.75 135.35"/><polygon class="cls-1" points="382.75 146.79 453.37 289.88 611.28 312.82 497.02 424.2 523.99 581.47 382.75 507.22 241.52 581.47 268.49 424.2 154.23 312.82 312.14 289.88 382.75 146.79"/><polygon class="cls-1" points="382.75 157.66 449.84 293.59 599.86 315.39 491.31 421.2 516.93 570.6 382.75 500.06 248.58 570.6 274.2 421.2 165.66 315.39 315.67 293.59 382.75 157.66"/><polygon class="cls-1" points="382.75 167.98 446.49 297.12 589 317.82 485.88 418.34 510.22 560.28 382.75 493.27 255.29 560.28 279.63 418.34 176.51 317.82 319.02 297.12 382.75 167.98"/><polygon class="cls-1" points="382.75 177.79 443.3 300.47 578.69 320.14 480.72 415.63 503.85 550.47 382.75 486.81 261.66 550.47 284.79 415.63 186.82 320.14 322.21 300.47 382.75 177.79"/><polygon class="cls-1" points="382.75 187.1 440.27 303.65 568.89 322.34 475.82 413.06 497.79 541.16 382.75 480.68 267.72 541.16 289.69 413.06 196.62 322.34 325.24 303.65 382.75 187.1"/><polygon class="cls-1" points="382.75 195.96 437.4 306.67 559.59 324.43 471.17 410.61 492.04 532.3 382.75 474.85 273.47 532.3 294.34 410.61 205.93 324.43 328.11 306.67 382.75 195.96"/><polygon class="cls-1" points="382.75 204.36 434.67 309.55 550.74 326.41 466.75 408.29 486.58 523.9 382.75 469.31 278.93 523.9 298.76 408.29 214.77 326.41 330.84 309.55 382.75 204.36"/><polygon class="cls-1" points="382.75 212.35 432.07 312.28 542.34 328.3 462.55 406.08 481.39 515.91 382.75 464.05 284.12 515.91 302.96 406.08 223.17 328.3 333.44 312.28 382.75 212.35"/><polygon class="cls-1" points="382.75 219.94 429.61 314.87 534.36 330.09 458.56 403.98 476.45 508.32 382.75 459.06 289.06 508.32 306.95 403.98 231.15 330.09 335.9 314.87 382.75 219.94"/><polygon class="cls-1" points="382.75 227.15 427.26 317.33 526.78 331.79 454.77 401.99 471.77 501.11 382.75 454.31 293.74 501.11 310.74 401.99 238.73 331.79 338.25 317.33 382.75 227.15"/><polygon class="cls-1" points="382.75 234 425.04 319.67 519.58 333.41 451.17 400.1 467.32 494.26 382.75 449.8 298.19 494.26 314.34 400.1 245.93 333.41 340.47 319.67 382.75 234"/><polygon class="cls-1" points="382.75 240.51 422.92 321.89 512.74 334.95 447.75 398.3 463.09 487.75 382.75 445.52 302.42 487.75 317.76 398.3 252.77 334.95 342.59 321.89 382.75 240.51"/><polygon class="cls-1" points="382.75 246.69 420.92 324.01 506.24 336.4 444.5 396.59 459.07 481.57 382.75 441.45 306.44 481.57 321.01 396.59 259.27 336.4 344.6 324.01 382.75 246.69"/><polygon class="cls-1" points="382.75 252.56 419.01 326.01 500.07 337.79 441.41 394.97 455.26 475.7 382.75 437.58 310.25 475.7 324.1 394.97 265.44 337.79 346.5 326.01 382.75 252.56"/><polygon class="cls-1" points="382.75 258.14 417.19 327.92 494.2 339.11 438.48 393.43 451.63 470.12 382.75 433.91 313.88 470.12 327.03 393.43 271.31 339.11 348.32 327.92 382.75 258.14"/><polygon class="cls-1" points="382.75 263.44 415.47 329.73 488.63 340.36 435.69 391.96 448.19 464.82 382.75 430.42 317.32 464.82 329.82 391.96 276.88 340.36 350.04 329.73 382.75 263.44"/><polygon class="cls-1" points="382.75 268.47 413.84 331.45 483.34 341.55 433.05 390.57 444.92 459.79 382.75 427.11 320.59 459.79 332.46 390.57 282.18 341.55 351.67 331.45 382.75 268.47"/><polygon class="cls-1" points="382.75 273.25 412.28 333.08 478.31 342.68 430.53 389.25 441.81 455 382.75 423.96 323.7 455 334.98 389.25 287.2 342.68 353.23 333.08 382.75 273.25"/><polygon class="cls-1" points="382.75 281.09 409.74 335.76 470.07 344.53 426.41 387.08 436.72 447.17 382.75 418.8 328.79 447.17 339.1 387.08 295.44 344.53 355.77 335.76 382.75 281.09"/><polygon class="cls-1" points="382.75 289.39 407.04 338.6 461.34 346.49 422.05 384.79 431.32 438.87 382.75 413.33 334.19 438.87 343.46 384.79 304.17 346.49 358.47 338.6 382.75 289.39"/><polygon class="cls-1" points="382.75 296.87 404.61 341.15 453.48 348.25 418.12 382.72 426.47 431.39 382.75 408.41 339.04 431.39 347.39 382.72 312.03 348.25 360.9 341.15 382.75 296.87"/><polygon class="cls-1" points="382.75 303.59 402.43 343.45 446.41 349.84 414.58 380.86 422.1 424.67 382.75 403.99 343.42 424.67 350.93 380.86 319.1 349.84 363.08 343.45 382.75 303.59"/><polygon class="cls-1" points="382.75 309.64 400.46 345.52 440.04 351.27 411.4 379.19 418.16 418.61 382.75 400 347.35 418.61 354.11 379.19 325.47 351.27 365.05 345.52 382.75 309.64"/><polygon class="cls-1" points="382.75 315.09 398.69 347.38 434.31 352.55 408.54 377.68 414.62 413.17 382.75 396.41 350.89 413.17 356.98 377.68 331.2 352.55 366.82 347.38 382.75 315.09"/><polygon class="cls-1" points="382.75 320 397.1 349.05 429.16 353.71 405.96 376.33 411.43 408.26 382.75 393.19 354.08 408.26 359.55 376.33 336.35 353.71 368.42 349.05 382.75 320"/><polygon class="cls-1" points="382.75 324.41 395.66 350.56 424.52 354.75 403.64 375.11 408.57 403.85 382.75 390.28 356.94 403.85 361.87 375.11 340.99 354.75 369.85 350.56 382.75 324.41"/><polygon class="cls-1" points="382.75 328.38 394.37 351.92 420.34 355.69 401.55 374.01 405.99 399.88 382.75 387.66 359.52 399.88 363.96 374.01 345.17 355.69 371.14 351.92 382.75 328.38"/><polygon class="cls-1" points="382.75 331.96 393.21 353.14 416.58 356.54 399.67 373.02 403.66 396.3 382.75 385.31 361.85 396.3 365.84 373.02 348.93 356.54 372.3 353.14 382.75 331.96"/><polygon class="cls-1" points="382.75 335.18 392.16 354.24 413.2 357.29 397.98 372.13 401.57 393.08 382.75 383.19 363.94 393.08 367.53 372.13 352.31 357.29 373.35 354.24 382.75 335.18"/><polygon class="cls-1" points="382.75 338.07 391.22 355.23 410.16 357.98 396.46 371.33 399.69 390.19 382.75 381.29 365.82 390.19 369.06 371.33 355.35 357.98 374.29 355.23 382.75 338.07"/><polygon class="cls-1" points="382.75 340.68 390.38 356.12 407.42 358.59 395.09 370.61 398 387.58 382.75 379.57 367.51 387.58 370.43 370.61 358.1 358.59 375.13 356.12 382.75 340.68"/><polygon class="cls-1" points="382.75 343.02 389.61 356.92 404.95 359.15 393.85 369.96 396.47 385.24 382.75 378.03 369.04 385.24 371.66 369.96 360.56 359.15 375.9 356.92 382.75 343.02"/><polygon class="cls-1" points="382.75 345.13 388.93 357.64 402.73 359.64 392.74 369.38 395.1 383.13 382.75 376.64 370.41 383.13 372.77 369.38 362.78 359.64 376.58 357.64 382.75 345.13"/><polygon class="cls-1" points="382.75 347.03 388.31 358.29 400.73 360.09 391.74 368.86 393.87 381.23 382.75 375.39 371.64 381.23 373.77 368.86 364.78 360.09 377.2 358.29 382.75 347.03"/><polygon class="cls-1" points="382.75 348.74 387.75 358.87 398.94 360.5 390.85 368.38 392.75 379.52 382.75 374.26 372.76 379.52 374.67 368.38 366.57 360.5 377.75 358.87 382.75 348.74"/><polygon class="cls-1" points="382.75 350.28 387.25 359.4 397.32 360.86 390.04 367.96 391.75 377.98 382.75 373.25 373.76 377.98 375.47 367.96 368.19 360.86 378.25 359.4 382.75 350.28"/><polygon class="cls-1" points="382.75 351.67 386.81 359.87 395.86 361.19 389.31 367.57 390.86 376.59 382.75 372.34 374.65 376.59 376.2 367.57 369.65 361.19 378.7 359.87 382.75 351.67"/><polygon class="cls-1" points="382.75 352.91 386.4 360.3 394.55 361.48 388.65 367.23 390.05 375.35 382.75 371.51 375.46 375.35 376.86 367.23 370.96 361.48 379.11 360.3 382.75 352.91"/><polygon class="cls-1" points="382.75 354.03 386.04 360.68 393.37 361.75 388.06 366.92 389.32 374.23 382.75 370.78 376.19 374.23 377.45 366.92 372.14 361.75 379.48 360.68 382.75 354.03"/><polygon class="cls-1" points="382.75 355.04 385.71 361.02 392.31 361.99 387.53 366.64 388.66 373.22 382.75 370.11 376.85 373.22 377.98 366.64 373.2 361.99 379.8 361.02 382.75 355.04"/><polygon class="cls-1" points="382.75 355.95 385.41 361.34 391.35 362.2 387.06 366.39 388.07 372.31 382.75 369.51 377.44 372.31 378.46 366.39 374.16 362.2 380.1 361.34 382.75 355.95"/><polygon class="cls-1" points="382.75 356.77 385.15 361.62 390.49 362.39 386.63 366.16 387.54 371.49 382.75 368.98 377.97 371.49 378.89 366.16 375.02 362.39 380.36 361.62 382.75 356.77"/><polygon class="cls-1" points="382.75 357.51 384.91 361.87 389.72 362.57 386.24 365.96 387.06 370.75 382.75 368.49 378.45 370.75 379.27 365.96 375.79 362.57 380.6 361.87 382.75 357.51"/><polygon class="cls-1" points="382.75 358.17 384.69 362.09 389.02 362.72 385.89 365.78 386.63 370.09 382.75 368.06 378.88 370.09 379.62 365.78 376.49 362.72 380.82 362.09 382.75 358.17"/><polygon class="cls-1" points="382.75 358.76 384.5 362.3 388.4 362.86 385.58 365.61 386.24 369.5 382.75 367.66 379.27 369.5 379.93 365.61 377.11 362.86 381.01 362.3 382.75 358.76"/><polygon class="cls-1" points="382.75 359.3 384.32 362.48 387.83 362.99 385.29 365.46 385.89 368.96 382.75 367.31 379.62 368.96 380.22 365.46 377.68 362.99 381.19 362.48 382.75 359.3"/><polygon class="cls-1" points="382.75 359.78 384.17 362.64 387.32 363.1 385.04 365.33 385.58 368.48 382.75 366.99 379.93 368.48 380.47 365.33 378.19 363.1 381.34 362.64 382.75 359.78"/><polygon class="cls-1" points="382.75 360.22 384.03 362.79 386.87 363.21 384.81 365.21 385.3 368.04 382.75 366.7 380.21 368.04 380.7 365.21 378.64 363.21 381.48 362.79 382.75 360.22"/><polygon class="cls-1" points="382.75 360.61 383.9 362.93 386.46 363.3 384.61 365.1 385.04 367.65 382.75 366.45 380.47 367.65 380.9 365.1 379.05 363.3 381.61 362.93 382.75 360.61"/><polygon class="cls-1" points="382.75 360.96 383.79 363.05 386.09 363.38 384.42 365 384.81 367.3 382.75 366.22 380.7 367.3 381.09 365 379.42 363.38 381.73 363.05 382.75 360.96"/><polygon class="cls-1" points="382.75 361.28 383.68 363.16 385.75 363.46 384.25 364.92 384.61 366.98 382.75 366.01 380.9 366.98 381.26 364.92 379.76 363.46 381.83 363.16 382.75 361.28"/><polygon class="cls-1" points="382.75 361.56 383.59 363.25 385.45 363.52 384.1 364.84 384.42 366.7 382.75 365.82 381.09 366.7 381.41 364.84 380.06 363.52 381.92 363.25 382.75 361.56"/><polygon class="cls-1" points="382.75 361.82 383.51 363.34 385.18 363.58 383.97 364.77 384.26 366.44 382.75 365.65 381.25 366.44 381.54 364.77 380.33 363.58 382 363.34 382.75 361.82"/><polygon class="cls-1" points="382.75 362.05 383.43 363.42 384.94 363.64 383.85 364.7 384.11 366.21 382.75 365.5 381.4 366.21 381.66 364.7 380.57 363.64 382.08 363.42 382.75 362.05"/><polygon class="cls-1" points="382.75 362.26 383.36 363.49 384.72 363.69 383.74 364.65 383.97 366 382.75 365.36 381.54 366 381.77 364.65 380.79 363.69 382.15 363.49 382.75 362.26"/></svg>