<svg id="_3hoek" data-name="3hoek" xmlns="http://www.w3.org/2000/svg" viewBox="0 0 1353.04 828.31"><defs><style>.cls-1,.cls-2{fill:none;stroke-miterlimit:10;}.cls-1{stroke:#fff;}.cls-2{stroke:aqua;}</style></defs><polygon class="cls-1" points="493.64 402 883.15 402 688.4 1.14 493.64 402"/><polygon class="cls-1" points="513.12 381.95 863.68 381.95 688.4 21.19 513.12 381.95"/><polygon class="cls-1" points="530.65 363.91 846.15 363.91 688.4 39.23 530.65 363.91"/><polygon class="cls-1" points="546.42 347.68 830.38 347.68 688.4 55.46 546.42 347.68"/><polygon class="cls-1" points="560.62 333.07 816.18 333.07 688.4 70.07 560.62 333.07"/><polygon class="cls-1" points="573.4 319.92 803.4 319.92 688.4 83.22 573.4 319.92"/><polygon class="cls-1" points="584.9 308.08 791.9 308.08 688.4 95.06 584.9 308.08"/><polygon class="cls-1" points="595.25 297.43 781.55 297.43 688.4 105.71 595.25 297.43"/><polygon class="cls-1" points="604.56 287.85 772.24 287.85 688.4 115.29 604.56 287.85"/><polygon class="cls-1" points="612.95 279.22 763.85 279.22 688.4 123.92 612.95 279.22"/><polygon class="cls-1" points="620.49 271.45 756.31 271.45 688.4 131.69 620.49 271.45"/><polygon class="cls-1" points="627.28 264.46 749.52 264.46 688.4 138.67 627.28 264.46"/><polygon class="cls-1" points="633.39 258.18 743.4 258.18 688.4 144.96 633.39 258.18"/><polygon class="cls-1" points="638.9 252.51 737.9 252.51 688.4 150.62 638.9 252.51"/><polygon class="cls-1" points="643.85 247.42 732.95 247.42 688.4 155.72 643.85 247.42"/><polygon class="cls-1" points="648.3 242.84 728.5 242.84 688.4 160.3 648.3 242.84"/><polygon class="cls-1" points="652.31 238.71 724.49 238.71 688.4 164.43 652.31 238.71"/><polygon class="cls-1" points="655.92 235 720.88 235 688.4 168.14 655.92 235"/><polygon class="cls-1" points="659.17 231.65 717.63 231.65 688.4 171.49 659.17 231.65"/><polygon class="cls-1" points="662.09 228.64 714.71 228.64 688.4 174.5 662.09 228.64"/><polygon class="cls-2" points="883.5 21.26 493.99 21.26 688.74 422.11 883.5 21.26"/><polygon class="cls-2" points="864.02 41.3 513.46 41.3 688.74 402.07 864.02 41.3"/><polygon class="cls-2" points="846.5 59.34 530.99 59.34 688.74 384.03 846.5 59.34"/><polygon class="cls-2" points="830.72 75.57 546.77 75.57 688.74 367.79 830.72 75.57"/><polygon class="cls-2" points="816.52 90.18 560.96 90.18 688.74 353.18 816.52 90.18"/><polygon class="cls-2" points="803.74 103.33 573.74 103.33 688.74 340.03 803.74 103.33"/><polygon class="cls-2" points="792.24 115.17 585.24 115.17 688.74 328.2 792.24 115.17"/><polygon class="cls-2" points="781.89 125.82 595.59 125.82 688.74 317.55 781.89 125.82"/><polygon class="cls-2" points="772.58 135.41 604.91 135.41 688.74 307.96 772.58 135.41"/><polygon class="cls-2" points="764.2 144.03 613.29 144.03 688.74 299.33 764.2 144.03"/><polygon class="cls-2" points="756.65 151.8 620.84 151.8 688.74 291.57 756.65 151.8"/><polygon class="cls-2" points="749.86 158.79 627.63 158.79 688.74 284.58 749.86 158.79"/><polygon class="cls-2" points="743.75 165.08 633.74 165.08 688.74 278.29 743.75 165.08"/><polygon class="cls-2" points="738.25 170.74 639.24 170.74 688.74 272.63 738.25 170.74"/><polygon class="cls-2" points="733.3 175.83 644.19 175.83 688.74 267.54 733.3 175.83"/><polygon class="cls-2" points="728.84 180.42 648.64 180.42 688.74 262.95 728.84 180.42"/><polygon class="cls-2" points="724.83 184.54 652.65 184.54 688.74 258.82 724.83 184.54"/><polygon class="cls-2" points="721.22 188.26 656.26 188.26 688.74 255.11 721.22 188.26"/><polygon class="cls-2" points="717.98 191.6 659.51 191.6 688.74 251.77 717.98 191.6"/><polygon class="cls-2" points="715.05 194.61 662.43 194.61 688.74 248.76 715.05 194.61"/><polygon class="cls-1" points="556.92 827.64 908.26 827.64 732.59 466.08 556.92 827.64"/><polygon class="cls-1" points="574.49 809.57 890.69 809.57 732.59 484.16 574.49 809.57"/><polygon class="cls-1" points="590.3 793.3 874.88 793.3 732.59 500.43 590.3 793.3"/><polygon class="cls-1" points="604.53 778.65 860.65 778.65 732.59 515.08 604.53 778.65"/><polygon class="cls-1" points="617.34 765.47 847.85 765.47 732.59 528.25 617.34 765.47"/><polygon class="cls-1" points="628.86 753.61 836.32 753.61 732.59 540.11 628.86 753.61"/><polygon class="cls-1" points="639.23 742.94 825.95 742.94 732.59 550.79 639.23 742.94"/><polygon class="cls-1" points="648.57 733.33 816.61 733.33 732.59 560.4 648.57 733.33"/><polygon class="cls-1" points="656.97 724.68 808.21 724.68 732.59 569.04 656.97 724.68"/><polygon class="cls-1" points="664.53 716.9 800.65 716.9 732.59 576.83 664.53 716.9"/><polygon class="cls-1" points="671.34 709.9 793.84 709.9 732.59 583.83 671.34 709.9"/><polygon class="cls-1" points="677.46 703.59 787.72 703.59 732.59 590.13 677.46 703.59"/><polygon class="cls-1" points="682.98 697.92 782.2 697.92 732.59 595.81 682.98 697.92"/><polygon class="cls-1" points="687.94 692.82 777.24 692.82 732.59 600.91 687.94 692.82"/><polygon class="cls-1" points="692.4 688.22 772.78 688.22 732.59 605.51 692.4 688.22"/><polygon class="cls-1" points="696.42 684.09 768.76 684.09 732.59 609.64 696.42 684.09"/><polygon class="cls-1" points="700.04 680.36 765.14 680.36 732.59 613.37 700.04 680.36"/><polygon class="cls-2" points="732.59 465.61 381.26 465.61 556.92 827.17 732.59 465.61"/><polygon class="cls-2" points="715.02 483.69 398.82 483.69 556.92 809.09 715.02 483.69"/><polygon class="cls-2" points="699.21 499.96 414.63 499.96 556.92 792.82 699.21 499.96"/><polygon class="cls-2" points="684.99 514.6 428.86 514.6 556.92 778.18 684.99 514.6"/><polygon class="cls-2" points="672.18 527.78 441.67 527.78 556.92 765 672.18 527.78"/><polygon class="cls-2" points="660.65 539.64 453.19 539.64 556.92 753.14 660.65 539.64"/><polygon class="cls-2" points="650.28 550.31 463.57 550.31 556.92 742.46 650.28 550.31"/><polygon class="cls-2" points="640.95 559.92 472.9 559.92 556.92 732.86 640.95 559.92"/><polygon class="cls-2" points="632.54 568.57 481.31 568.57 556.92 724.21 632.54 568.57"/><polygon class="cls-2" points="624.98 576.35 488.87 576.35 556.92 716.43 624.98 576.35"/><polygon class="cls-2" points="618.17 583.35 495.67 583.35 556.92 709.42 618.17 583.35"/><polygon class="cls-2" points="612.05 589.66 501.8 589.66 556.92 703.12 612.05 589.66"/><polygon class="cls-2" points="606.54 595.33 507.31 595.33 556.92 697.45 606.54 595.33"/><polygon class="cls-2" points="601.58 600.44 512.27 600.44 556.92 692.34 601.58 600.44"/><polygon class="cls-2" points="597.11 605.03 516.74 605.03 556.92 687.75 597.11 605.03"/><polygon class="cls-2" points="593.09 609.17 520.76 609.17 556.92 683.61 593.09 609.17"/><polygon class="cls-2" points="589.48 612.89 524.37 612.89 556.92 679.89 589.48 612.89"/><polygon class="cls-1" points="908.23 827.35 1259.56 827.35 1083.89 465.79 908.23 827.35"/><polygon class="cls-1" points="925.79 809.27 1241.99 809.27 1083.89 483.86 925.79 809.27"/><polygon class="cls-1" points="941.6 793 1226.18 793 1083.89 500.13 941.6 793"/><polygon class="cls-1" points="955.83 778.36 1211.95 778.36 1083.89 514.78 955.83 778.36"/><polygon class="cls-1" points="968.64 765.18 1199.15 765.18 1083.89 527.96 968.64 765.18"/><polygon class="cls-1" points="980.16 753.32 1187.62 753.32 1083.89 539.82 980.16 753.32"/><polygon class="cls-1" points="990.54 742.64 1177.25 742.64 1083.89 550.49 990.54 742.64"/><polygon class="cls-1" points="999.87 733.03 1167.91 733.03 1083.89 560.1 999.87 733.03"/><polygon class="cls-1" points="1008.27 724.39 1159.51 724.39 1083.89 568.75 1008.27 724.39"/><polygon class="cls-1" points="1015.84 716.6 1151.95 716.6 1083.89 576.53 1015.84 716.6"/><polygon class="cls-1" points="1022.64 709.6 1145.14 709.6 1083.89 583.53 1022.64 709.6"/><polygon class="cls-1" points="1028.77 703.3 1139.02 703.3 1083.89 589.84 1028.77 703.3"/><polygon class="cls-1" points="1034.28 697.62 1133.51 697.62 1083.89 595.51 1034.28 697.62"/><polygon class="cls-1" points="1039.24 692.52 1128.54 692.52 1083.89 600.61 1039.24 692.52"/><polygon class="cls-1" points="1043.7 687.92 1124.08 687.92 1083.89 605.21 1043.7 687.92"/><polygon class="cls-1" points="1047.72 683.79 1120.06 683.79 1083.89 609.35 1047.72 683.79"/><polygon class="cls-1" points="1051.34 680.07 1116.44 680.07 1083.89 613.07 1051.34 680.07"/><polygon class="cls-2" points="1083.89 465.31 732.56 465.31 908.23 826.87 1083.89 465.31"/><polygon class="cls-2" points="1066.33 483.39 750.13 483.39 908.23 808.79 1066.33 483.39"/><polygon class="cls-2" points="1050.52 499.66 765.94 499.66 908.23 792.52 1050.52 499.66"/><polygon class="cls-2" points="1036.29 514.3 780.16 514.3 908.23 777.88 1036.29 514.3"/><polygon class="cls-2" points="1023.48 527.48 792.97 527.48 908.23 764.7 1023.48 527.48"/><polygon class="cls-2" points="1011.96 539.34 804.5 539.34 908.23 752.84 1011.96 539.34"/><polygon class="cls-2" points="1001.58 550.02 814.87 550.02 908.23 742.16 1001.58 550.02"/><polygon class="cls-2" points="992.25 559.62 824.21 559.62 908.23 732.56 992.25 559.62"/><polygon class="cls-2" points="983.84 568.27 832.61 568.27 908.23 723.91 983.84 568.27"/><polygon class="cls-2" points="976.28 576.05 840.17 576.05 908.23 716.13 976.28 576.05"/><polygon class="cls-2" points="969.48 583.06 846.98 583.06 908.23 709.13 969.48 583.06"/><polygon class="cls-2" points="963.35 589.36 853.1 589.36 908.23 702.82 963.35 589.36"/><polygon class="cls-2" points="957.84 595.03 858.61 595.03 908.23 697.15 957.84 595.03"/><polygon class="cls-2" points="952.88 600.14 863.57 600.14 908.23 692.04 952.88 600.14"/><polygon class="cls-2" points="948.41 604.73 868.04 604.73 908.23 687.45 948.41 604.73"/><polygon class="cls-2" points="944.39 608.87 872.06 608.87 908.23 683.31 944.39 608.87"/><polygon class="cls-2" points="940.78 612.59 875.67 612.59 908.23 679.59 940.78 612.59"/><polygon class="cls-1" points="422.14 19.75 70.81 19.75 246.48 381.31 422.14 19.75"/><polygon class="cls-1" points="404.58 37.82 88.38 37.82 246.48 363.23 404.58 37.82"/><polygon class="cls-1" points="388.77 54.09 104.19 54.09 246.48 346.96 388.77 54.09"/><polygon class="cls-1" points="374.54 68.74 118.42 68.74 246.48 332.31 374.54 68.74"/><polygon class="cls-1" points="361.73 81.92 131.22 81.92 246.48 319.14 361.73 81.92"/><polygon class="cls-1" points="350.21 93.78 142.75 93.78 246.48 307.27 350.21 93.78"/><polygon class="cls-1" points="339.83 104.45 153.12 104.45 246.48 296.6 339.83 104.45"/><polygon class="cls-1" points="330.5 114.06 162.46 114.06 246.48 286.99 330.5 114.06"/><polygon class="cls-1" points="322.1 122.71 170.86 122.71 246.48 278.35 322.1 122.71"/><polygon class="cls-1" points="314.54 130.49 178.42 130.49 246.48 270.56 314.54 130.49"/><polygon class="cls-1" points="307.73 137.49 185.23 137.49 246.48 263.56 307.73 137.49"/><polygon class="cls-1" points="301.61 143.79 191.35 143.79 246.48 257.26 301.61 143.79"/><polygon class="cls-1" points="296.09 149.47 196.87 149.47 246.48 251.58 296.09 149.47"/><polygon class="cls-1" points="291.13 154.57 201.83 154.57 246.48 246.48 291.13 154.57"/><polygon class="cls-1" points="286.67 159.17 206.29 159.17 246.48 241.88 286.67 159.17"/><polygon class="cls-1" points="282.65 163.31 210.31 163.31 246.48 237.75 282.65 163.31"/><polygon class="cls-1" points="279.03 167.03 213.93 167.03 246.48 234.03 279.03 167.03"/><polygon class="cls-2" points="352.13 19.75 0.8 19.75 176.47 381.31 352.13 19.75"/><polygon class="cls-2" points="334.56 37.82 18.36 37.82 176.47 363.23 334.56 37.82"/><polygon class="cls-2" points="318.75 54.09 34.17 54.09 176.47 346.96 318.75 54.09"/><polygon class="cls-2" points="304.52 68.74 48.4 68.74 176.47 332.31 304.52 68.74"/><polygon class="cls-2" points="291.72 81.92 61.21 81.92 176.47 319.14 291.72 81.92"/><polygon class="cls-2" points="280.19 93.78 72.74 93.78 176.47 307.27 280.19 93.78"/><polygon class="cls-2" points="269.82 104.45 83.11 104.45 176.47 296.6 269.82 104.45"/><polygon class="cls-2" points="260.49 114.06 92.44 114.06 176.47 286.99 260.49 114.06"/><polygon class="cls-2" points="252.08 122.71 100.85 122.71 176.47 278.35 252.08 122.71"/><polygon class="cls-2" points="244.52 130.49 108.41 130.49 176.47 270.56 244.52 130.49"/><polygon class="cls-2" points="237.72 137.49 115.21 137.49 176.47 263.56 237.72 137.49"/><polygon class="cls-2" points="231.59 143.79 121.34 143.79 176.47 257.26 231.59 143.79"/><polygon class="cls-2" points="226.08 149.47 126.85 149.47 176.47 251.58 226.08 149.47"/><polygon class="cls-2" points="221.12 154.57 131.81 154.57 176.47 246.48 221.12 154.57"/><polygon class="cls-2" points="216.65 159.17 136.28 159.17 176.47 241.88 216.65 159.17"/><polygon class="cls-2" points="212.63 163.31 140.3 163.31 176.47 237.75 212.63 163.31"/><polygon class="cls-2" points="209.02 167.03 143.91 167.03 176.47 234.03 209.02 167.03"/><path class="cls-2" d="M269.05,856.17H511.13c30.45,0,50.4-31.87,37.09-59.26l-121-249.13c-15-30.95-59.14-30.95-74.18,0L232,796.91C218.65,824.3,238.6,856.17,269.05,856.17Z" transform="translate(-110.78 -30.86)"/><path class="cls-2" d="M275.11,847.88h230a39.18,39.18,0,0,0,35.23-56.3l-115-236.67c-14.29-29.4-56.19-29.4-70.48,0l-115,236.67A39.18,39.18,0,0,0,275.11,847.88Z" transform="translate(-110.78 -30.86)"/><path class="cls-2" d="M280.86,840H499.33a37.21,37.21,0,0,0,33.47-53.48L423.57,561.69c-13.58-27.94-53.38-27.94-67,0L247.38,786.52A37.22,37.22,0,0,0,280.86,840Z" transform="translate(-110.78 -30.86)"/><path class="cls-2" d="M286.32,832.52H493.86a35.36,35.36,0,0,0,31.81-50.81L421.89,568.12c-12.89-26.54-50.71-26.54-63.6,0L254.51,781.71A35.37,35.37,0,0,0,286.32,832.52Z" transform="translate(-110.78 -30.86)"/><path class="cls-2" d="M291.51,825.41H488.68a33.59,33.59,0,0,0,30.21-48.27L420.3,574.23c-12.25-25.21-48.17-25.21-60.42,0L261.29,777.14A33.59,33.59,0,0,0,291.51,825.41Z" transform="translate(-110.78 -30.86)"/><path class="cls-2" d="M296.44,818.66H483.75a31.91,31.91,0,0,0,28.7-45.86L418.79,580c-11.64-23.95-45.76-23.95-57.4,0L267.73,772.8A31.92,31.92,0,0,0,296.44,818.66Z" transform="translate(-110.78 -30.86)"/><path class="cls-2" d="M301.12,812.24H479.06a30.31,30.31,0,0,0,27.27-43.56l-89-183.12c-11.06-22.76-43.48-22.76-54.54,0l-89,183.12A30.31,30.31,0,0,0,301.12,812.24Z" transform="translate(-110.78 -30.86)"/><path class="cls-2" d="M305.57,806.15h169a28.8,28.8,0,0,0,25.91-41.38L416,590.8c-10.5-21.62-41.3-21.62-51.8,0l-84.53,174A28.8,28.8,0,0,0,305.57,806.15Z" transform="translate(-110.78 -30.86)"/><path class="cls-2" d="M309.79,800.36h160.6A27.36,27.36,0,0,0,495,761.05L414.7,595.78c-10-20.54-39.24-20.54-49.22,0l-80.3,165.27A27.36,27.36,0,0,0,309.79,800.36Z" transform="translate(-110.78 -30.86)"/><path class="cls-2" d="M313.81,794.86H466.37a26,26,0,0,0,23.38-37.35l-76.28-157C404,581,376.19,581,366.71,600.5l-76.28,157A26,26,0,0,0,313.81,794.86Z" transform="translate(-110.78 -30.86)"/><path class="cls-2" d="M317.62,789.64H462.56a24.69,24.69,0,0,0,22.21-35.48L412.3,605c-9-18.54-35.41-18.54-44.42,0L295.41,754.16A24.7,24.7,0,0,0,317.62,789.64Z" transform="translate(-110.78 -30.86)"/><path class="cls-2" d="M321.25,784.67H458.94A23.45,23.45,0,0,0,480,751l-68.84-141.7c-8.56-17.61-33.64-17.61-42.2,0L300.15,751A23.45,23.45,0,0,0,321.25,784.67Z" transform="translate(-110.78 -30.86)"/><path class="cls-2" d="M324.69,780h130.8a22.28,22.28,0,0,0,20.05-32L410.13,613.32c-8.12-16.73-32-16.73-40.08,0L304.64,747.94A22.28,22.28,0,0,0,324.69,780Z" transform="translate(-110.78 -30.86)"/><path class="cls-2" d="M328,775.48H452.22a21.17,21.17,0,0,0,19-30.42L409.13,617.17a21.17,21.17,0,0,0-38.08,0L308.92,745.06A21.17,21.17,0,0,0,328,775.48Z" transform="translate(-110.78 -30.86)"/><path class="cls-2" d="M331.06,771.22H449.12a20.11,20.11,0,0,0,18.09-28.9l-59-121.49a20.12,20.12,0,0,0-36.18,0L313,742.32A20.11,20.11,0,0,0,331.06,771.22Z" transform="translate(-110.78 -30.86)"/><path class="cls-2" d="M334,767.18H446.17a19.1,19.1,0,0,0,17.18-27.45L407.28,624.31a19.11,19.11,0,0,0-34.37,0L316.83,739.73A19.11,19.11,0,0,0,334,767.18Z" transform="translate(-110.78 -30.86)"/><path class="cls-2" d="M336.82,763.34H443.36a18.16,18.16,0,0,0,16.33-26.08L406.42,627.61a18.15,18.15,0,0,0-32.65,0L320.49,737.26A18.16,18.16,0,0,0,336.82,763.34Z" transform="translate(-110.78 -30.86)"/><path class="cls-2" d="M339.48,759.69H440.7a17.25,17.25,0,0,0,15.51-24.78L405.6,630.75a17.25,17.25,0,0,0-31,0L324,734.91A17.25,17.25,0,0,0,339.48,759.69Z" transform="translate(-110.78 -30.86)"/><path class="cls-2" d="M342,756.22h96.16a16.37,16.37,0,0,0,14.73-23.53l-48.08-99a16.37,16.37,0,0,0-29.46,0l-48.08,99A16.37,16.37,0,0,0,342,756.22Z" transform="translate(-110.78 -30.86)"/><path class="cls-2" d="M344.42,752.93h91.34a15.56,15.56,0,0,0,14-22.36l-45.67-94a15.57,15.57,0,0,0-28,0l-45.67,94A15.56,15.56,0,0,0,344.42,752.93Z" transform="translate(-110.78 -30.86)"/><path class="cls-2" d="M346.7,749.8h86.78a14.78,14.78,0,0,0,13.3-21.24l-43.39-89.31a14.79,14.79,0,0,0-26.6,0L333.4,728.56A14.78,14.78,0,0,0,346.7,749.8Z" transform="translate(-110.78 -30.86)"/><path class="cls-2" d="M348.87,746.83h82.44a14,14,0,0,0,12.63-20.18l-41.22-84.84a14,14,0,0,0-25.26,0l-41.22,84.84A14,14,0,0,0,348.87,746.83Z" transform="translate(-110.78 -30.86)"/><path class="cls-2" d="M350.93,744h78.32a13.34,13.34,0,0,0,12-19.17l-39.16-80.6a13.34,13.34,0,0,0-24,0l-39.16,80.6A13.34,13.34,0,0,0,350.93,744Z" transform="translate(-110.78 -30.86)"/><path class="cls-2" d="M352.89,741.33h74.4a12.68,12.68,0,0,0,11.4-18.22l-37.2-76.57a12.68,12.68,0,0,0-22.8,0l-37.2,76.57A12.68,12.68,0,0,0,352.89,741.33Z" transform="translate(-110.78 -30.86)"/><path class="cls-2" d="M354.75,738.78h70.68a12,12,0,0,0,10.83-17.31l-35.34-72.74a12,12,0,0,0-21.66,0l-35.34,72.74A12,12,0,0,0,354.75,738.78Z" transform="translate(-110.78 -30.86)"/><path class="cls-2" d="M356.52,736.36h67.15A11.44,11.44,0,0,0,434,719.92l-33.57-69.1a11.44,11.44,0,0,0-20.58,0l-33.57,69.1A11.44,11.44,0,0,0,356.52,736.36Z" transform="translate(-110.78 -30.86)"/><path class="cls-2" d="M358.2,734.06H422a10.87,10.87,0,0,0,9.77-15.62l-31.89-65.65a10.87,10.87,0,0,0-19.55,0l-31.9,65.65A10.87,10.87,0,0,0,358.2,734.06Z" transform="translate(-110.78 -30.86)"/><path class="cls-2" d="M359.79,731.87h60.6A10.32,10.32,0,0,0,429.68,717l-30.3-62.37a10.33,10.33,0,0,0-18.58,0L350.5,717A10.32,10.32,0,0,0,359.79,731.87Z" transform="translate(-110.78 -30.86)"/><path class="cls-2" d="M361.31,729.8h57.57a9.81,9.81,0,0,0,8.82-14.1l-28.79-59.24a9.8,9.8,0,0,0-17.64,0L352.48,715.7A9.81,9.81,0,0,0,361.31,729.8Z" transform="translate(-110.78 -30.86)"/><path class="cls-2" d="M362.74,727.83h54.7a9.32,9.32,0,0,0,8.38-13.39l-27.35-56.29a9.32,9.32,0,0,0-16.76,0l-27.35,56.29A9.32,9.32,0,0,0,362.74,727.83Z" transform="translate(-110.78 -30.86)"/><path class="cls-2" d="M364.11,726h52a8.85,8.85,0,0,0,8-12.72l-26-53.47a8.85,8.85,0,0,0-15.92,0l-26,53.47A8.85,8.85,0,0,0,364.11,726Z" transform="translate(-110.78 -30.86)"/><path class="cls-2" d="M365.41,724.17h49.36a8.4,8.4,0,0,0,7.56-12.08l-24.68-50.8a8.4,8.4,0,0,0-15.12,0l-24.68,50.8A8.4,8.4,0,0,0,365.41,724.17Z" transform="translate(-110.78 -30.86)"/><path class="cls-2" d="M366.64,722.48h46.9A8,8,0,0,0,420.72,711l-23.44-48.25a8,8,0,0,0-14.37,0L359.46,711A8,8,0,0,0,366.64,722.48Z" transform="translate(-110.78 -30.86)"/><path class="cls-2" d="M367.82,720.88h44.54A7.59,7.59,0,0,0,419.19,710l-22.27-45.84a7.59,7.59,0,0,0-13.66,0L361,710A7.59,7.59,0,0,0,367.82,720.88Z" transform="translate(-110.78 -30.86)"/><path class="cls-2" d="M368.93,719.35h42.32A7.22,7.22,0,0,0,417.74,709l-21.16-43.55a7.21,7.21,0,0,0-13,0L362.45,709A7.21,7.21,0,0,0,368.93,719.35Z" transform="translate(-110.78 -30.86)"/><path class="cls-2" d="M370,717.9h40.2a6.85,6.85,0,0,0,6.16-9.84l-20.1-41.37a6.84,6.84,0,0,0-12.32,0l-20.1,41.37A6.85,6.85,0,0,0,370,717.9Z" transform="translate(-110.78 -30.86)"/><path class="cls-2" d="M371,716.53h38.2a6.51,6.51,0,0,0,5.85-9.35l-19.1-39.31a6.51,6.51,0,0,0-11.7,0l-19.1,39.31A6.51,6.51,0,0,0,371,716.53Z" transform="translate(-110.78 -30.86)"/><path class="cls-2" d="M372,715.22h36.28a6.18,6.18,0,0,0,5.56-8.88L395.65,669a6.18,6.18,0,0,0-11.12,0l-18.14,37.34A6.18,6.18,0,0,0,372,715.22Z" transform="translate(-110.78 -30.86)"/><path class="cls-2" d="M372.86,714h34.47a5.88,5.88,0,0,0,5.28-8.44l-17.24-35.48a5.87,5.87,0,0,0-10.56,0l-17.24,35.48A5.88,5.88,0,0,0,372.86,714Z" transform="translate(-110.78 -30.86)"/><path class="cls-2" d="M373.72,712.8h32.74a5.58,5.58,0,0,0,5-8l-16.37-33.7a5.58,5.58,0,0,0-10,0l-16.37,33.7A5.58,5.58,0,0,0,373.72,712.8Z" transform="translate(-110.78 -30.86)"/><path class="cls-2" d="M374.54,711.67h31.11a5.29,5.29,0,0,0,4.76-7.61l-15.55-32a5.31,5.31,0,0,0-9.54,0l-15.55,32A5.29,5.29,0,0,0,374.54,711.67Z" transform="translate(-110.78 -30.86)"/><path class="cls-2" d="M375.31,710.61h29.56a5,5,0,0,0,4.53-7.24L394.62,673a5,5,0,0,0-9.06,0l-14.77,30.41A5,5,0,0,0,375.31,710.61Z" transform="translate(-110.78 -30.86)"/><path class="cls-2" d="M376.05,709.6h28.08a4.79,4.79,0,0,0,4.3-6.88l-14-28.89a4.78,4.78,0,0,0-8.6,0l-14,28.89A4.79,4.79,0,0,0,376.05,709.6Z" transform="translate(-110.78 -30.86)"/><path class="cls-2" d="M376.75,708.64h26.68a4.54,4.54,0,0,0,4.08-6.53l-13.33-27.45a4.55,4.55,0,0,0-8.18,0l-13.33,27.45A4.54,4.54,0,0,0,376.75,708.64Z" transform="translate(-110.78 -30.86)"/><path class="cls-2" d="M377.42,707.72h25.34a4.31,4.31,0,0,0,3.88-6.2L394,675.44a4.31,4.31,0,0,0-7.76,0l-12.67,26.08A4.31,4.31,0,0,0,377.42,707.72Z" transform="translate(-110.78 -30.86)"/><path class="cls-2" d="M378.06,706.85h24.07a4.1,4.1,0,0,0,3.69-5.89l-12-24.77a4.1,4.1,0,0,0-7.38,0l-12,24.77A4.1,4.1,0,0,0,378.06,706.85Z" transform="translate(-110.78 -30.86)"/><path class="cls-2" d="M378.66,706h22.87a3.9,3.9,0,0,0,3.5-5.6L393.6,676.9a3.89,3.89,0,0,0-7,0l-11.44,23.53A3.9,3.9,0,0,0,378.66,706Z" transform="translate(-110.78 -30.86)"/><path class="cls-2" d="M379.23,705.25H401a3.7,3.7,0,0,0,3.33-5.32l-10.86-22.36a3.7,3.7,0,0,0-6.66,0L375.9,699.93A3.7,3.7,0,0,0,379.23,705.25Z" transform="translate(-110.78 -30.86)"/><path class="cls-2" d="M379.77,704.5h20.64a3.51,3.51,0,0,0,3.16-5l-10.32-21.24a3.51,3.51,0,0,0-6.32,0l-10.32,21.24A3.51,3.51,0,0,0,379.77,704.5Z" transform="translate(-110.78 -30.86)"/><path class="cls-2" d="M380.29,703.8h19.6a3.34,3.34,0,0,0,3-4.8l-9.8-20.18a3.34,3.34,0,0,0-6,0L377.28,699A3.35,3.35,0,0,0,380.29,703.8Z" transform="translate(-110.78 -30.86)"/><path class="cls-2" d="M380.78,703.12H399.4a3.17,3.17,0,0,0,2.86-4.56L393,679.4a3.17,3.17,0,0,0-5.71,0l-9.32,19.16A3.17,3.17,0,0,0,380.78,703.12Z" transform="translate(-110.78 -30.86)"/><path class="cls-2" d="M381.24,702.49h17.7a3,3,0,0,0,2.71-4.34l-8.85-18.21a3,3,0,0,0-5.42,0l-8.85,18.21A3,3,0,0,0,381.24,702.49Z" transform="translate(-110.78 -30.86)"/><path class="cls-2" d="M381.69,701.88H398.5a2.86,2.86,0,0,0,2.57-4.11l-8.4-17.3a2.86,2.86,0,0,0-5.15,0l-8.41,17.3A2.86,2.86,0,0,0,381.69,701.88Z" transform="translate(-110.78 -30.86)"/><path class="cls-2" d="M382.11,701.3h16a2.71,2.71,0,0,0,2.44-3.9l-8-16.44a2.73,2.73,0,0,0-4.9,0l-8,16.44A2.72,2.72,0,0,0,382.11,701.3Z" transform="translate(-110.78 -30.86)"/><path class="cls-2" d="M382.51,700.76h15.17A2.58,2.58,0,0,0,400,697l-7.58-15.61a2.59,2.59,0,0,0-4.65,0L380.18,697A2.59,2.59,0,0,0,382.51,700.76Z" transform="translate(-110.78 -30.86)"/><path class="cls-2" d="M382.88,700.24H397.3a2.46,2.46,0,0,0,2.21-3.53l-7.21-14.83a2.45,2.45,0,0,0-4.42,0l-7.2,14.83A2.45,2.45,0,0,0,382.88,700.24Z" transform="translate(-110.78 -30.86)"/><path class="cls-2" d="M383.24,699.74h13.7a2.33,2.33,0,0,0,2.09-3.35l-6.84-14.09a2.34,2.34,0,0,0-4.2,0l-6.84,14.09A2.33,2.33,0,0,0,383.24,699.74Z" transform="translate(-110.78 -30.86)"/><path class="cls-2" d="M383.59,699.28h13a2.22,2.22,0,0,0,2-3.19l-6.51-13.38a2.21,2.21,0,0,0-4,0l-6.51,13.38A2.22,2.22,0,0,0,383.59,699.28Z" transform="translate(-110.78 -30.86)"/><path class="cls-2" d="M383.91,698.83h12.36a2.1,2.1,0,0,0,1.89-3L392,683.09a2.1,2.1,0,0,0-3.78,0L382,695.81A2.1,2.1,0,0,0,383.91,698.83Z" transform="translate(-110.78 -30.86)"/><path class="cls-2" d="M384.22,698.41H396a2,2,0,0,0,1.8-2.88l-5.87-12.08a2,2,0,0,0-3.6,0l-5.87,12.08A2,2,0,0,0,384.22,698.41Z" transform="translate(-110.78 -30.86)"/><path class="cls-2" d="M384.51,698h11.16a1.9,1.9,0,0,0,1.71-2.73L391.8,683.8a1.9,1.9,0,0,0-3.42,0l-5.57,11.48A1.89,1.89,0,0,0,384.51,698Z" transform="translate(-110.78 -30.86)"/><path class="cls-2" d="M384.79,697.62h10.6A1.8,1.8,0,0,0,397,695l-5.3-10.9a1.8,1.8,0,0,0-3.24,0l-5.3,10.9A1.8,1.8,0,0,0,384.79,697.62Z" transform="translate(-110.78 -30.86)"/><path class="cls-2" d="M385.06,697.26h10.06a1.71,1.71,0,0,0,1.55-2.46l-5-10.36a1.71,1.71,0,0,0-3.08,0l-5,10.36A1.71,1.71,0,0,0,385.06,697.26Z" transform="translate(-110.78 -30.86)"/><path class="cls-2" d="M385.31,696.92h9.56a1.64,1.64,0,0,0,1.47-2.35l-4.78-9.84a1.63,1.63,0,0,0-2.93,0l-4.79,9.84A1.64,1.64,0,0,0,385.31,696.92Z" transform="translate(-110.78 -30.86)"/><path class="cls-2" d="M385.55,696.59h9.08a1.55,1.55,0,0,0,1.39-2.23L391.48,685a1.54,1.54,0,0,0-2.78,0l-4.54,9.34A1.55,1.55,0,0,0,385.55,696.59Z" transform="translate(-110.78 -30.86)"/><path class="cls-2" d="M385.78,696.28h8.63a1.48,1.48,0,0,0,1.32-2.12l-4.32-8.88a1.47,1.47,0,0,0-2.64,0l-4.32,8.88A1.48,1.48,0,0,0,385.78,696.28Z" transform="translate(-110.78 -30.86)"/><path class="cls-2" d="M386,696h8.2a1.4,1.4,0,0,0,1.26-2l-4.1-8.43a1.4,1.4,0,0,0-2.52,0L384.74,694A1.4,1.4,0,0,0,386,696Z" transform="translate(-110.78 -30.86)"/><path class="cls-2" d="M386.2,695.7H394a1.33,1.33,0,0,0,1.2-1.91l-3.9-8a1.32,1.32,0,0,0-2.38,0l-3.9,8A1.33,1.33,0,0,0,386.2,695.7Z" transform="translate(-110.78 -30.86)"/><path class="cls-2" d="M386.39,695.43h7.4a1.26,1.26,0,0,0,1.13-1.81l-3.7-7.61a1.25,1.25,0,0,0-2.26,0l-3.7,7.61A1.26,1.26,0,0,0,386.39,695.43Z" transform="translate(-110.78 -30.86)"/><path class="cls-2" d="M386.58,695.18h7a1.19,1.19,0,0,0,1.07-1.72l-3.51-7.23a1.2,1.2,0,0,0-2.16,0l-3.51,7.23A1.19,1.19,0,0,0,386.58,695.18Z" transform="translate(-110.78 -30.86)"/><path class="cls-2" d="M386.75,694.94h6.68a1.13,1.13,0,0,0,1-1.63l-3.34-6.88a1.13,1.13,0,0,0-2,0l-3.34,6.88A1.13,1.13,0,0,0,386.75,694.94Z" transform="translate(-110.78 -30.86)"/><path class="cls-2" d="M386.92,694.71h6.34a1.08,1.08,0,0,0,1-1.55l-3.17-6.53a1.08,1.08,0,0,0-1.94,0L386,693.16A1.08,1.08,0,0,0,386.92,694.71Z" transform="translate(-110.78 -30.86)"/><path class="cls-2" d="M387.08,694.49h6A1,1,0,0,0,394,693l-3-6.2a1,1,0,0,0-1.84,0l-3,6.2A1,1,0,0,0,387.08,694.49Z" transform="translate(-110.78 -30.86)"/><path class="cls-2" d="M387.23,694.29H393a1,1,0,0,0,.88-1.4L391,687a1,1,0,0,0-1.76,0l-2.86,5.9A1,1,0,0,0,387.23,694.29Z" transform="translate(-110.78 -30.86)"/><path class="cls-2" d="M387.37,694.09h5.44a.92.92,0,0,0,.83-1.33l-2.72-5.6a.92.92,0,0,0-1.66,0l-2.72,5.6A.92.92,0,0,0,387.37,694.09Z" transform="translate(-110.78 -30.86)"/><path class="cls-2" d="M387.51,693.91h5.16a.89.89,0,0,0,.8-1.27l-2.59-5.32a.88.88,0,0,0-1.58,0l-2.58,5.32A.88.88,0,0,0,387.51,693.91Z" transform="translate(-110.78 -30.86)"/><path class="cls-2" d="M387.64,693.73h4.91a.84.84,0,0,0,.75-1.2l-2.46-5a.83.83,0,0,0-1.5,0l-2.46,5A.84.84,0,0,0,387.64,693.73Z" transform="translate(-110.78 -30.86)"/><path class="cls-2" d="M387.76,693.56h4.66a.8.8,0,0,0,.72-1.14l-2.33-4.8a.79.79,0,0,0-1.43,0l-2.34,4.8A.8.8,0,0,0,387.76,693.56Z" transform="translate(-110.78 -30.86)"/><polygon class="cls-2" points="966.08 412.64 1349.24 412.64 1157.66 18.32 966.08 412.64"/><polygon class="cls-2" points="975.66 402.79 1339.66 402.79 1157.66 28.18 975.66 402.79"/><polygon class="cls-2" points="984.76 393.42 1330.57 393.42 1157.66 37.55 984.76 393.42"/><polygon class="cls-2" points="993.4 384.52 1321.92 384.52 1157.66 46.44 993.4 384.52"/><polygon class="cls-2" points="1001.62 376.07 1313.71 376.07 1157.66 54.9 1001.62 376.07"/><polygon class="cls-2" points="1009.42 368.04 1305.9 368.04 1157.66 62.92 1009.42 368.04"/><polygon class="cls-2" points="1016.83 360.42 1298.49 360.42 1157.66 70.55 1016.83 360.42"/><polygon class="cls-2" points="1023.87 353.17 1291.45 353.17 1157.66 77.8 1023.87 353.17"/><polygon class="cls-2" points="1030.56 346.28 1284.76 346.28 1157.66 84.68 1030.56 346.28"/><polygon class="cls-2" points="1036.92 339.74 1278.41 339.74 1157.66 91.22 1036.92 339.74"/><polygon class="cls-2" points="1042.95 333.53 1272.37 333.53 1157.66 97.44 1042.95 333.53"/><polygon class="cls-2" points="1048.69 327.63 1266.63 327.63 1157.66 103.34 1048.69 327.63"/><polygon class="cls-2" points="1054.14 322.02 1261.18 322.02 1157.66 108.95 1054.14 322.02"/><polygon class="cls-2" points="1059.31 316.69 1256.01 316.69 1157.66 114.27 1059.31 316.69"/><polygon class="cls-2" points="1064.23 311.63 1251.09 311.63 1157.66 119.33 1064.23 311.63"/><polygon class="cls-2" points="1068.9 306.83 1246.42 306.83 1157.66 124.14 1068.9 306.83"/><polygon class="cls-2" points="1073.34 302.26 1241.98 302.26 1157.66 128.71 1073.34 302.26"/><polygon class="cls-2" points="1077.56 297.92 1237.77 297.92 1157.66 133.05 1077.56 297.92"/><polygon class="cls-2" points="1081.56 293.8 1233.76 293.8 1157.66 137.17 1081.56 293.8"/><polygon class="cls-2" points="1085.37 289.88 1229.96 289.88 1157.66 141.09 1085.37 289.88"/><polygon class="cls-2" points="1088.98 286.16 1226.34 286.16 1157.66 144.81 1088.98 286.16"/><polygon class="cls-2" points="1092.42 282.63 1222.91 282.63 1157.66 148.34 1092.42 282.63"/><polygon class="cls-2" points="1095.68 279.27 1219.64 279.27 1157.66 151.7 1095.68 279.27"/><polygon class="cls-2" points="1098.78 276.08 1216.55 276.08 1157.66 154.88 1098.78 276.08"/><polygon class="cls-2" points="1101.72 273.05 1213.6 273.05 1157.66 157.91 1101.72 273.05"/><polygon class="cls-2" points="1104.52 270.17 1210.81 270.17 1157.66 160.79 1104.52 270.17"/><polygon class="cls-2" points="1107.18 267.44 1208.15 267.44 1157.66 163.53 1107.18 267.44"/><polygon class="cls-2" points="1109.7 264.84 1205.62 264.84 1157.66 166.13 1109.7 264.84"/><polygon class="cls-2" points="1112.1 262.37 1203.22 262.37 1157.66 168.59 1112.1 262.37"/><polygon class="cls-2" points="1114.38 260.03 1200.95 260.03 1157.66 170.94 1114.38 260.03"/><polygon class="cls-2" points="1116.54 257.8 1198.78 257.8 1157.66 173.17 1116.54 257.8"/><polygon class="cls-2" points="1118.6 255.69 1196.73 255.69 1157.66 175.28 1118.6 255.69"/><polygon class="cls-2" points="1120.55 253.68 1194.77 253.68 1157.66 177.29 1120.55 253.68"/><polygon class="cls-2" points="1122.41 251.77 1192.92 251.77 1157.66 179.2 1122.41 251.77"/><polygon class="cls-2" points="1124.17 249.95 1191.15 249.95 1157.66 181.01 1124.17 249.95"/><polygon class="cls-2" points="1125.84 248.23 1189.48 248.23 1157.66 182.74 1125.84 248.23"/><polygon class="cls-2" points="1127.43 246.59 1187.89 246.59 1157.66 184.38 1127.43 246.59"/><polygon class="cls-2" points="1128.94 245.04 1186.38 245.04 1157.66 185.93 1128.94 245.04"/><polygon class="cls-2" points="1130.38 243.56 1184.94 243.56 1157.66 187.41 1130.38 243.56"/><polygon class="cls-2" points="1131.74 242.16 1183.58 242.16 1157.66 188.81 1131.74 242.16"/><polygon class="cls-2" points="1133.04 240.82 1182.28 240.82 1157.66 190.15 1133.04 240.82"/><polygon class="cls-2" points="1134.27 239.55 1181.05 239.55 1157.66 191.41 1134.27 239.55"/><polygon class="cls-2" points="1135.44 238.35 1179.88 238.35 1157.66 192.62 1135.44 238.35"/><polygon class="cls-2" points="1136.55 237.21 1178.77 237.21 1157.66 193.76 1136.55 237.21"/><polygon class="cls-2" points="1137.61 236.12 1177.71 236.12 1157.66 194.85 1137.61 236.12"/><polygon class="cls-2" points="1138.61 235.09 1176.71 235.09 1157.66 195.88 1138.61 235.09"/><polygon class="cls-2" points="1139.56 234.11 1175.76 234.11 1157.66 196.86 1139.56 234.11"/><polygon class="cls-2" points="1140.47 233.18 1174.86 233.18 1157.66 197.79 1140.47 233.18"/><polygon class="cls-2" points="1141.33 232.29 1174 232.29 1157.66 198.67 1141.33 232.29"/><polygon class="cls-2" points="1142.14 231.45 1173.18 231.45 1157.66 199.51 1142.14 231.45"/><polygon class="cls-2" points="1142.92 230.65 1172.4 230.65 1157.66 200.31 1142.92 230.65"/><polygon class="cls-2" points="1143.66 229.9 1171.67 229.9 1157.66 201.07 1143.66 229.9"/><polygon class="cls-2" points="1144.36 229.18 1170.97 229.18 1157.66 201.79 1144.36 229.18"/><polygon class="cls-2" points="1145.02 228.49 1170.3 228.49 1157.66 202.48 1145.02 228.49"/><polygon class="cls-2" points="1145.65 227.84 1169.67 227.84 1157.66 203.13 1145.65 227.84"/><polygon class="cls-2" points="1146.26 227.22 1169.07 227.22 1157.66 203.75 1146.26 227.22"/><polygon class="cls-2" points="1146.83 226.64 1168.5 226.64 1157.66 204.33 1146.83 226.64"/><polygon class="cls-2" points="1147.37 226.08 1167.96 226.08 1157.66 204.89 1147.37 226.08"/><polygon class="cls-2" points="1147.88 225.55 1167.44 225.55 1157.66 205.42 1147.88 225.55"/><polygon class="cls-2" points="1148.37 225.04 1166.95 225.04 1157.66 205.92 1148.37 225.04"/><polygon class="cls-2" points="1148.84 224.57 1166.49 224.57 1157.66 206.4 1148.84 224.57"/><polygon class="cls-2" points="1149.28 224.11 1166.05 224.11 1157.66 206.85 1149.28 224.11"/><polygon class="cls-2" points="1149.7 223.68 1165.63 223.68 1157.66 207.29 1149.7 223.68"/><polygon class="cls-2" points="1150.09 223.27 1165.23 223.27 1157.66 207.7 1150.09 223.27"/><polygon class="cls-2" points="1150.47 222.88 1164.85 222.88 1157.66 208.09 1150.47 222.88"/><polygon class="cls-2" points="1150.83 222.51 1164.49 222.51 1157.66 208.46 1150.83 222.51"/><polygon class="cls-2" points="1151.17 222.16 1164.15 222.16 1157.66 208.81 1151.17 222.16"/><polygon class="cls-2" points="1151.5 221.83 1163.83 221.83 1157.66 209.14 1151.5 221.83"/><polygon class="cls-2" points="1151.81 221.51 1163.52 221.51 1157.66 209.46 1151.81 221.51"/><polygon class="cls-2" points="1152.1 221.21 1163.22 221.21 1157.66 209.76 1152.1 221.21"/><polygon class="cls-2" points="1152.38 220.92 1162.95 220.92 1157.66 210.04 1152.38 220.92"/><polygon class="cls-2" points="1152.64 220.65 1162.68 220.65 1157.66 210.32 1152.64 220.65"/><polygon class="cls-2" points="1152.89 220.39 1162.43 220.39 1157.66 210.58 1152.89 220.39"/><polygon class="cls-2" points="1153.13 220.15 1162.19 220.15 1157.66 210.82 1153.13 220.15"/><polygon class="cls-2" points="1153.36 219.91 1161.97 219.91 1157.66 211.05 1153.36 219.91"/><polygon class="cls-2" points="1153.57 219.69 1161.75 219.69 1157.66 211.28 1153.57 219.69"/><polygon class="cls-2" points="1153.78 219.48 1161.55 219.48 1157.66 211.49 1153.78 219.48"/><polygon class="cls-2" points="1153.97 219.28 1161.35 219.28 1157.66 211.69 1153.97 219.28"/><polygon class="cls-2" points="1154.16 219.09 1161.17 219.09 1157.66 211.88 1154.16 219.09"/><polygon class="cls-2" points="1154.33 218.91 1160.99 218.91 1157.66 212.06 1154.33 218.91"/><polygon class="cls-2" points="1154.5 218.74 1160.83 218.74 1157.66 212.23 1154.5 218.74"/><polygon class="cls-2" points="1154.66 218.58 1160.67 218.58 1157.66 212.39 1154.66 218.58"/><polygon class="cls-2" points="1154.81 218.42 1160.52 218.42 1157.66 212.54 1154.81 218.42"/><polygon class="cls-2" points="1154.95 218.28 1160.37 218.28 1157.66 212.69 1154.95 218.28"/><polygon class="cls-2" points="1155.09 218.14 1160.24 218.14 1157.66 212.83 1155.09 218.14"/><polygon class="cls-2" points="1155.21 218 1160.11 218 1157.66 212.96 1155.21 218"/><polygon class="cls-2" points="1155.34 217.88 1159.99 217.88 1157.66 213.09 1155.34 217.88"/><polygon class="cls-2" points="1155.45 217.76 1159.87 217.76 1157.66 213.21 1155.45 217.76"/><polygon class="cls-2" points="1155.56 217.64 1159.76 217.64 1157.66 213.32 1155.56 217.64"/><polygon class="cls-2" points="1155.67 217.54 1159.66 217.54 1157.66 213.43 1155.67 217.54"/><polygon class="cls-2" points="1155.77 217.43 1159.56 217.43 1157.66 213.53 1155.77 217.43"/><polygon class="cls-2" points="1155.86 217.34 1159.46 217.34 1157.66 213.63 1155.86 217.34"/><polygon class="cls-2" points="1155.95 217.24 1159.37 217.24 1157.66 213.72 1155.95 217.24"/><polygon class="cls-2" points="1156.04 217.16 1159.29 217.16 1157.66 213.81 1156.04 217.16"/><polygon class="cls-2" points="1156.12 217.07 1159.2 217.07 1157.66 213.9 1156.12 217.07"/><polygon class="cls-2" points="1156.2 216.99 1159.13 216.99 1157.66 213.97 1156.2 216.99"/><polygon class="cls-2" points="1156.27 216.92 1159.05 216.92 1157.66 214.05 1156.27 216.92"/><polygon class="cls-2" points="1156.34 216.84 1158.98 216.84 1157.66 214.12 1156.34 216.84"/><polygon class="cls-2" points="1156.4 216.78 1158.92 216.78 1157.66 214.19 1156.4 216.78"/><polygon class="cls-2" points="1156.47 216.71 1158.86 216.71 1157.66 214.25 1156.47 216.71"/><polygon class="cls-2" points="1156.53 216.65 1158.8 216.65 1157.66 214.32 1156.53 216.65"/><polygon class="cls-2" points="1156.58 216.59 1158.74 216.59 1157.66 214.38 1156.58 216.59"/><polygon class="cls-2" points="1156.64 216.54 1158.68 216.54 1157.66 214.43 1156.64 216.54"/><polygon class="cls-2" points="1156.69 216.49 1158.63 216.49 1157.66 214.48 1156.69 216.49"/><polygon class="cls-2" points="1156.74 216.44 1158.59 216.44 1157.66 214.53 1156.74 216.44"/><polygon class="cls-2" points="1156.78 216.39 1158.54 216.39 1157.66 214.58 1156.78 216.39"/><polygon class="cls-1" points="1352.24 21.07 969.08 21.07 1160.66 415.39 1352.24 21.07"/><polygon class="cls-1" points="1342.66 30.93 978.66 30.93 1160.66 405.53 1342.66 30.93"/><polygon class="cls-1" points="1333.57 40.29 987.76 40.29 1160.66 396.17 1333.57 40.29"/><polygon class="cls-1" points="1324.92 49.19 996.4 49.19 1160.66 387.27 1324.92 49.19"/><polygon class="cls-1" points="1316.71 57.64 1004.62 57.64 1160.66 378.82 1316.71 57.64"/><polygon class="cls-1" points="1308.9 65.67 1012.42 65.67 1160.66 370.79 1308.9 65.67"/><polygon class="cls-1" points="1301.49 73.3 1019.83 73.3 1160.66 363.16 1301.49 73.3"/><polygon class="cls-1" points="1294.45 80.54 1026.87 80.54 1160.66 355.91 1294.45 80.54"/><polygon class="cls-1" points="1287.76 87.43 1033.56 87.43 1160.66 349.03 1287.76 87.43"/><polygon class="cls-1" points="1281.41 93.97 1039.92 93.97 1160.66 342.49 1281.41 93.97"/><polygon class="cls-1" points="1275.37 100.18 1045.95 100.18 1160.66 336.28 1275.37 100.18"/><polygon class="cls-1" points="1269.63 106.08 1051.69 106.08 1160.66 330.37 1269.63 106.08"/><polygon class="cls-1" points="1264.18 111.69 1057.14 111.69 1160.66 324.77 1264.18 111.69"/><polygon class="cls-1" points="1259.01 117.02 1062.31 117.02 1160.66 319.44 1259.01 117.02"/><polygon class="cls-1" points="1254.09 122.08 1067.23 122.08 1160.66 314.38 1254.09 122.08"/><polygon class="cls-1" points="1249.42 126.89 1071.9 126.89 1160.66 309.57 1249.42 126.89"/><polygon class="cls-1" points="1244.98 131.45 1076.34 131.45 1160.66 305 1244.98 131.45"/><polygon class="cls-1" points="1240.77 135.79 1080.56 135.79 1160.66 300.67 1240.77 135.79"/><polygon class="cls-1" points="1236.76 139.91 1084.56 139.91 1160.66 296.54 1236.76 139.91"/><polygon class="cls-1" points="1232.96 143.83 1088.37 143.83 1160.66 292.63 1232.96 143.83"/><polygon class="cls-1" points="1229.34 147.55 1091.98 147.55 1160.66 288.91 1229.34 147.55"/><polygon class="cls-1" points="1225.91 151.08 1095.42 151.08 1160.66 285.37 1225.91 151.08"/><polygon class="cls-1" points="1222.64 154.44 1098.68 154.44 1160.66 282.02 1222.64 154.44"/><polygon class="cls-1" points="1219.55 157.63 1101.78 157.63 1160.66 278.83 1219.55 157.63"/><polygon class="cls-1" points="1216.6 160.66 1104.72 160.66 1160.66 275.8 1216.6 160.66"/><polygon class="cls-1" points="1213.81 163.54 1107.52 163.54 1160.66 272.92 1213.81 163.54"/><polygon class="cls-1" points="1211.15 166.27 1110.18 166.27 1160.66 270.18 1211.15 166.27"/><polygon class="cls-1" points="1208.62 168.87 1112.7 168.87 1160.66 267.59 1208.62 168.87"/><polygon class="cls-1" points="1206.22 171.34 1115.1 171.34 1160.66 265.12 1206.22 171.34"/><polygon class="cls-1" points="1203.95 173.68 1117.38 173.68 1160.66 262.77 1203.95 173.68"/><polygon class="cls-1" points="1201.78 175.91 1119.54 175.91 1160.66 260.55 1201.78 175.91"/><polygon class="cls-1" points="1199.73 178.03 1121.6 178.03 1160.66 258.43 1199.73 178.03"/><polygon class="cls-1" points="1197.77 180.04 1123.55 180.04 1160.66 256.42 1197.77 180.04"/><polygon class="cls-1" points="1195.92 181.95 1125.41 181.95 1160.66 254.51 1195.92 181.95"/><polygon class="cls-1" points="1194.15 183.76 1127.17 183.76 1160.66 252.7 1194.15 183.76"/><polygon class="cls-1" points="1192.48 185.48 1128.84 185.48 1160.66 250.97 1192.48 185.48"/><polygon class="cls-1" points="1190.89 187.12 1130.43 187.12 1160.66 249.34 1190.89 187.12"/><polygon class="cls-1" points="1189.38 188.68 1131.94 188.68 1160.66 247.78 1189.38 188.68"/><polygon class="cls-1" points="1187.94 190.15 1133.38 190.15 1160.66 246.3 1187.94 190.15"/><polygon class="cls-1" points="1186.58 191.56 1134.74 191.56 1160.66 244.9 1186.58 191.56"/><polygon class="cls-1" points="1185.28 192.89 1136.04 192.89 1160.66 243.57 1185.28 192.89"/><polygon class="cls-1" points="1184.05 194.16 1137.27 194.16 1160.66 242.3 1184.05 194.16"/><polygon class="cls-1" points="1182.88 195.36 1138.44 195.36 1160.66 241.1 1182.88 195.36"/><polygon class="cls-1" points="1181.77 196.5 1139.55 196.5 1160.66 239.95 1181.77 196.5"/><polygon class="cls-1" points="1180.71 197.59 1140.61 197.59 1160.66 238.87 1180.71 197.59"/><polygon class="cls-1" points="1179.71 198.62 1141.61 198.62 1160.66 237.83 1179.71 198.62"/><polygon class="cls-1" points="1178.76 199.6 1142.56 199.6 1160.66 236.85 1178.76 199.6"/><polygon class="cls-1" points="1177.86 200.53 1143.47 200.53 1160.66 235.92 1177.86 200.53"/><polygon class="cls-1" points="1177 201.42 1144.33 201.42 1160.66 235.04 1177 201.42"/><polygon class="cls-1" points="1176.18 202.26 1145.14 202.26 1160.66 234.2 1176.18 202.26"/><polygon class="cls-1" points="1175.4 203.06 1145.92 203.06 1160.66 233.4 1175.4 203.06"/><polygon class="cls-1" points="1174.67 203.82 1146.66 203.82 1160.66 232.64 1174.67 203.82"/><polygon class="cls-1" points="1173.97 204.54 1147.36 204.54 1160.66 231.92 1173.97 204.54"/><polygon class="cls-1" points="1173.3 205.22 1148.02 205.22 1160.66 231.24 1173.3 205.22"/><polygon class="cls-1" points="1172.67 205.87 1148.65 205.87 1160.66 230.59 1172.67 205.87"/><polygon class="cls-1" points="1172.07 206.49 1149.26 206.49 1160.66 229.97 1172.07 206.49"/><polygon class="cls-1" points="1171.5 207.08 1149.83 207.08 1160.66 229.38 1171.5 207.08"/><polygon class="cls-1" points="1170.96 207.63 1150.37 207.63 1160.66 228.82 1170.96 207.63"/><polygon class="cls-1" points="1170.44 208.16 1150.88 208.16 1160.66 228.29 1170.44 208.16"/><polygon class="cls-1" points="1169.95 208.67 1151.37 208.67 1160.66 227.79 1169.95 208.67"/><polygon class="cls-1" points="1169.49 209.15 1151.84 209.15 1160.66 227.31 1169.49 209.15"/><polygon class="cls-1" points="1169.05 209.6 1152.28 209.6 1160.66 226.86 1169.05 209.6"/><polygon class="cls-1" points="1168.63 210.03 1152.7 210.03 1160.66 226.43 1168.63 210.03"/><polygon class="cls-1" points="1168.23 210.44 1153.09 210.44 1160.66 226.02 1168.23 210.44"/><polygon class="cls-1" points="1167.85 210.83 1153.47 210.83 1160.66 225.63 1167.85 210.83"/><polygon class="cls-1" points="1167.49 211.2 1153.83 211.2 1160.66 225.26 1167.49 211.2"/><polygon class="cls-1" points="1167.15 211.55 1154.17 211.55 1160.66 224.91 1167.15 211.55"/><polygon class="cls-1" points="1166.83 211.88 1154.5 211.88 1160.66 224.57 1166.83 211.88"/><polygon class="cls-1" points="1166.52 212.2 1154.81 212.2 1160.66 224.25 1166.52 212.2"/><polygon class="cls-1" points="1166.22 212.5 1155.1 212.5 1160.66 223.95 1166.22 212.5"/><polygon class="cls-1" points="1165.95 212.79 1155.38 212.79 1160.66 223.67 1165.95 212.79"/><polygon class="cls-1" points="1165.68 213.06 1155.64 213.06 1160.66 223.4 1165.68 213.06"/><polygon class="cls-1" points="1165.43 213.32 1155.89 213.32 1160.66 223.14 1165.43 213.32"/><polygon class="cls-1" points="1165.19 213.57 1156.13 213.57 1160.66 222.89 1165.19 213.57"/><polygon class="cls-1" points="1164.97 213.8 1156.36 213.8 1160.66 222.66 1164.97 213.8"/><polygon class="cls-1" points="1164.75 214.02 1156.57 214.02 1160.66 222.44 1164.75 214.02"/><polygon class="cls-1" points="1164.55 214.23 1156.78 214.23 1160.66 222.23 1164.55 214.23"/><polygon class="cls-1" points="1164.35 214.43 1156.97 214.43 1160.66 222.03 1164.35 214.43"/><polygon class="cls-1" points="1164.17 214.62 1157.16 214.62 1160.66 221.84 1164.17 214.62"/><polygon class="cls-1" points="1163.99 214.8 1157.33 214.8 1160.66 221.66 1163.99 214.8"/><polygon class="cls-1" points="1163.83 214.97 1157.5 214.97 1160.66 221.49 1163.83 214.97"/><polygon class="cls-1" points="1163.67 215.13 1157.66 215.13 1160.66 221.32 1163.67 215.13"/><polygon class="cls-1" points="1163.52 215.29 1157.81 215.29 1160.66 221.17 1163.52 215.29"/><polygon class="cls-1" points="1163.37 215.44 1157.95 215.44 1160.66 221.02 1163.37 215.44"/><polygon class="cls-1" points="1163.24 215.58 1158.09 215.58 1160.66 220.88 1163.24 215.58"/><polygon class="cls-1" points="1163.11 215.71 1158.21 215.71 1160.66 220.75 1163.11 215.71"/><polygon class="cls-1" points="1162.99 215.84 1158.34 215.84 1160.66 220.62 1162.99 215.84"/><polygon class="cls-1" points="1162.87 215.96 1158.45 215.96 1160.66 220.5 1162.87 215.96"/><polygon class="cls-1" points="1162.76 216.07 1158.56 216.07 1160.66 220.39 1162.76 216.07"/><polygon class="cls-1" points="1162.66 216.18 1158.67 216.18 1160.66 220.28 1162.66 216.18"/><polygon class="cls-1" points="1162.56 216.28 1158.77 216.28 1160.66 220.18 1162.56 216.28"/><polygon class="cls-1" points="1162.46 216.38 1158.86 216.38 1160.66 220.08 1162.46 216.38"/><polygon class="cls-1" points="1162.37 216.47 1158.95 216.47 1160.66 219.99 1162.37 216.47"/><polygon class="cls-1" points="1162.29 216.56 1159.04 216.56 1160.66 219.9 1162.29 216.56"/><polygon class="cls-1" points="1162.2 216.64 1159.12 216.64 1160.66 219.82 1162.2 216.64"/><polygon class="cls-1" points="1162.13 216.72 1159.2 216.72 1160.66 219.74 1162.13 216.72"/><polygon class="cls-1" points="1162.05 216.79 1159.27 216.79 1160.66 219.66 1162.05 216.79"/><polygon class="cls-1" points="1161.98 216.87 1159.34 216.87 1160.66 219.59 1161.98 216.87"/><polygon class="cls-1" points="1161.92 216.94 1159.4 216.94 1160.66 219.52 1161.92 216.94"/><polygon class="cls-1" points="1161.86 217 1159.47 217 1160.66 219.46 1161.86 217"/><polygon class="cls-1" points="1161.8 217.06 1159.53 217.06 1160.66 219.4 1161.8 217.06"/><polygon class="cls-1" points="1161.74 217.12 1159.58 217.12 1160.66 219.34 1161.74 217.12"/><polygon class="cls-1" points="1161.68 217.18 1159.64 217.18 1160.66 219.28 1161.68 217.18"/><polygon class="cls-1" points="1161.63 217.23 1159.69 217.23 1160.66 219.23 1161.63 217.23"/><polygon class="cls-1" points="1161.59 217.28 1159.74 217.28 1160.66 219.18 1161.59 217.28"/><polygon class="cls-1" points="1161.54 217.32 1159.78 217.32 1160.66 219.13 1161.54 217.32"/></svg>