<svg id="Layer_2" data-name="Layer 2" xmlns="http://www.w3.org/2000/svg" viewBox="0 0 709.75 709.75"><defs><style>.cls-1,.cls-2{fill:none;stroke:aqua;stroke-miterlimit:10;}.cls-1{stroke-width:0.75px;}</style></defs><rect class="cls-1" x="0.38" y="0.38" width="709" height="709"/><rect class="cls-1" x="18.1" y="18.1" width="673.55" height="673.55"/><rect class="cls-1" x="34.94" y="34.94" width="639.87" height="639.87"/><rect class="cls-1" x="50.94" y="50.94" width="607.88" height="607.88"/><rect class="cls-1" x="66.13" y="66.13" width="577.48" height="577.48"/><rect class="cls-1" x="80.57" y="80.57" width="548.61" height="548.61"/><rect class="cls-1" x="94.28" y="94.28" width="521.18" height="521.18"/><rect class="cls-1" x="107.31" y="107.31" width="495.12" height="495.12"/><rect class="cls-1" x="119.69" y="119.69" width="470.37" height="470.37"/><rect class="cls-1" x="131.45" y="131.45" width="446.85" height="446.85"/><rect class="cls-1" x="142.62" y="142.62" width="424.5" height="424.5"/><rect class="cls-1" x="153.24" y="153.24" width="403.28" height="403.28"/><rect class="cls-1" x="163.32" y="163.32" width="383.12" height="383.12"/><rect class="cls-1" x="172.9" y="172.9" width="363.96" height="363.96"/><rect class="cls-1" x="181.99" y="181.99" width="345.76" height="345.76"/><rect class="cls-1" x="190.64" y="190.64" width="328.47" height="328.47"/><rect class="cls-1" x="198.85" y="198.85" width="312.05" height="312.05"/><rect class="cls-1" x="206.65" y="206.65" width="296.45" height="296.45"/><rect class="cls-1" x="214.06" y="214.06" width="281.62" height="281.62"/><rect class="cls-2" x="221.1" y="221.1" width="267.54" height="267.54"/><rect class="cls-2" x="227.79" y="227.79" width="254.17" height="254.17"/><rect class="cls-2" x="229.02" y="229.02" width="251.7" height="251.7"/><rect class="cls-2" x="232.8" y="232.8" width="244.15" height="244.15"/><rect class="cls-2" x="236.46" y="236.46" width="236.83" height="236.83"/><rect class="cls-2" x="240.01" y="240.01" width="229.72" height="229.72"/><rect class="cls-2" x="243.46" y="243.46" width="222.83" height="222.83"/><rect class="cls-2" x="246.8" y="246.8" width="216.14" height="216.14"/><rect class="cls-2" x="250.04" y="250.04" width="209.66" height="209.66"/><rect class="cls-2" x="253.19" y="253.19" width="203.37" height="203.37"/><rect class="cls-2" x="256.24" y="256.24" width="197.27" height="197.27"/><rect class="cls-2" x="259.2" y="259.2" width="191.35" height="191.35"/><rect class="cls-2" x="262.07" y="262.07" width="185.61" height="185.61"/><rect class="cls-2" x="264.85" y="264.85" width="180.04" height="180.04"/><rect class="cls-2" x="267.55" y="267.55" width="174.64" height="174.64"/><rect class="cls-2" x="270.17" y="270.17" width="169.4" height="169.4"/><rect class="cls-2" x="272.72" y="272.72" width="164.32" height="164.32"/><rect class="cls-2" x="275.18" y="275.18" width="159.39" height="159.39"/><rect class="cls-2" x="277.57" y="277.57" width="154.61" height="154.61"/><rect class="cls-2" x="279.89" y="279.89" width="149.97" height="149.97"/><rect class="cls-2" x="282.14" y="282.14" width="145.47" height="145.47"/><rect class="cls-2" x="284.32" y="284.32" width="141.11" height="141.11"/><rect class="cls-2" x="286.44" y="286.44" width="136.87" height="136.87"/><rect class="cls-2" x="288.49" y="288.49" width="132.77" height="132.77"/><rect class="cls-2" x="290.48" y="290.48" width="128.78" height="128.78"/><rect class="cls-2" x="292.41" y="292.41" width="124.92" height="124.92"/><rect class="cls-2" x="294.29" y="294.29" width="121.17" height="121.17"/><rect class="cls-2" x="296.11" y="296.11" width="117.54" height="117.54"/><rect class="cls-2" x="297.87" y="297.87" width="114.01" height="114.01"/><rect class="cls-2" x="299.58" y="299.58" width="110.59" height="110.59"/><rect class="cls-2" x="301.24" y="301.24" width="107.27" height="107.27"/><rect class="cls-2" x="302.85" y="302.85" width="104.06" height="104.06"/><rect class="cls-2" x="304.41" y="304.41" width="100.93" height="100.93"/><rect class="cls-2" x="305.92" y="305.92" width="97.91" height="97.91"/><rect class="cls-2" x="307.39" y="307.39" width="94.97" height="94.97"/><rect class="cls-2" x="308.82" y="308.82" width="92.12" height="92.12"/><rect class="cls-2" x="310.2" y="310.2" width="89.36" height="89.36"/><rect class="cls-2" x="311.54" y="311.54" width="86.68" height="86.68"/><rect class="cls-2" x="312.84" y="312.84" width="84.08" height="84.08"/><rect class="cls-2" x="314.1" y="314.1" width="81.55" height="81.55"/><rect class="cls-2" x="315.32" y="315.32" width="79.11" height="79.11"/><rect class="cls-2" x="316.51" y="316.51" width="76.73" height="76.73"/><rect class="cls-2" x="317.66" y="317.66" width="74.43" height="74.43"/><rect class="cls-2" x="318.78" y="318.78" width="72.2" height="72.2"/><rect class="cls-2" x="319.86" y="319.86" width="70.03" height="70.03"/><rect class="cls-2" x="320.91" y="320.91" width="67.93" height="67.93"/><rect class="cls-2" x="321.93" y="321.93" width="65.89" height="65.89"/><rect class="cls-2" x="322.92" y="322.92" width="63.92" height="63.92"/><rect class="cls-2" x="323.88" y="323.88" width="62" height="62"/><rect class="cls-2" x="324.81" y="324.81" width="60.14" height="60.14"/><rect class="cls-2" x="325.71" y="325.71" width="58.33" height="58.33"/><rect class="cls-2" x="326.58" y="326.58" width="56.58" height="56.58"/><rect class="cls-2" x="327.43" y="327.43" width="54.89" height="54.89"/><rect class="cls-2" x="328.25" y="328.25" width="53.24" height="53.24"/><rect class="cls-2" x="329.05" y="329.05" width="51.64" height="51.64"/><rect class="cls-2" x="329.83" y="329.83" width="50.09" height="50.09"/><rect class="cls-2" x="330.58" y="330.58" width="48.59" height="48.59"/><rect class="cls-2" x="331.31" y="331.31" width="47.13" height="47.13"/><rect class="cls-2" x="332.02" y="332.02" width="45.72" height="45.72"/><rect class="cls-2" x="332.7" y="332.7" width="44.35" height="44.35"/><rect class="cls-2" x="333.37" y="333.37" width="43.02" height="43.02"/><rect class="cls-2" x="334.01" y="334.01" width="41.73" height="41.73"/><rect class="cls-2" x="334.64" y="334.64" width="40.48" height="40.48"/><rect class="cls-2" x="335.24" y="335.24" width="39.26" height="39.26"/><rect class="cls-2" x="335.83" y="335.83" width="38.08" height="38.08"/><rect class="cls-2" x="336.4" y="336.4" width="36.94" height="36.94"/><rect class="cls-2" x="336.96" y="336.96" width="35.83" height="35.83"/><rect class="cls-2" x="337.5" y="337.5" width="34.76" height="34.76"/><rect class="cls-2" x="338.02" y="338.02" width="33.71" height="33.71"/><rect class="cls-2" x="338.52" y="338.52" width="32.7" height="32.7"/><rect class="cls-2" x="339.01" y="339.01" width="31.72" height="31.72"/><rect class="cls-2" x="339.49" y="339.49" width="30.77" height="30.77"/><rect class="cls-2" x="339.95" y="339.95" width="29.85" height="29.85"/><rect class="cls-2" x="340.4" y="340.4" width="28.95" height="28.95"/><rect class="cls-2" x="340.83" y="340.83" width="28.08" height="28.08"/><rect class="cls-2" x="341.25" y="341.25" width="27.24" height="27.24"/><rect class="cls-2" x="341.66" y="341.66" width="26.42" height="26.42"/><rect class="cls-2" x="342.06" y="342.06" width="25.63" height="25.63"/><rect class="cls-2" x="342.44" y="342.44" width="24.86" height="24.86"/><rect class="cls-2" x="342.82" y="342.82" width="24.12" height="24.12"/><rect class="cls-2" x="343.18" y="343.18" width="23.39" height="23.39"/><rect class="cls-2" x="343.53" y="343.53" width="22.69" height="22.69"/><rect class="cls-2" x="343.87" y="343.87" width="22.01" height="22.01"/><rect class="cls-2" x="344.2" y="344.2" width="21.35" height="21.35"/><rect class="cls-2" x="344.52" y="344.52" width="20.71" height="20.71"/><rect class="cls-2" x="344.83" y="344.83" width="20.09" height="20.09"/><rect class="cls-2" x="345.13" y="345.13" width="19.49" height="19.49"/><rect class="cls-2" x="345.42" y="345.42" width="18.9" height="18.9"/><rect class="cls-2" x="345.71" y="345.71" width="18.33" height="18.33"/><rect class="cls-2" x="345.98" y="345.98" width="17.78" height="17.78"/><rect class="cls-2" x="346.25" y="346.25" width="17.25" height="17.25"/><rect class="cls-2" x="346.51" y="346.51" width="16.73" height="16.73"/><rect class="cls-2" x="346.76" y="346.76" width="16.23" height="16.23"/><rect class="cls-2" x="347" y="347" width="15.74" height="15.74"/><rect class="cls-2" x="347.24" y="347.24" width="15.27" height="15.27"/><rect class="cls-2" x="347.47" y="347.47" width="14.81" height="14.81"/><rect class="cls-2" x="347.69" y="347.69" width="14.37" height="14.37"/><rect class="cls-2" x="347.91" y="347.91" width="13.94" height="13.94"/><rect class="cls-2" x="348.12" y="348.12" width="13.52" height="13.52"/><rect class="cls-2" x="348.32" y="348.32" width="13.11" height="13.11"/><rect class="cls-2" x="348.51" y="348.51" width="12.72" height="12.72"/><rect class="cls-2" x="348.71" y="348.71" width="12.34" height="12.34"/><rect class="cls-2" x="348.89" y="348.89" width="11.97" height="11.97"/><rect class="cls-2" x="349.07" y="349.07" width="11.61" height="11.61"/><rect class="cls-2" x="349.24" y="349.24" width="11.26" height="11.26"/><rect class="cls-2" x="349.41" y="349.41" width="10.92" height="10.92"/><rect class="cls-2" x="349.58" y="349.58" width="10.6" height="10.6"/><rect class="cls-2" x="349.74" y="349.74" width="10.28" height="10.28"/><rect class="cls-2" x="349.89" y="349.89" width="9.97" height="9.97"/><rect class="cls-2" x="350.04" y="350.04" width="9.67" height="9.67"/><rect class="cls-2" x="350.18" y="350.18" width="9.38" height="9.38"/><rect class="cls-2" x="350.33" y="350.33" width="9.1" height="9.1"/><rect class="cls-2" x="350.46" y="350.46" width="8.83" height="8.83"/><rect class="cls-2" x="350.59" y="350.59" width="8.56" height="8.56"/><rect class="cls-2" x="350.72" y="350.72" width="8.3" height="8.3"/><rect class="cls-2" x="350.85" y="350.85" width="8.06" height="8.06"/><rect class="cls-2" x="350.97" y="350.97" width="7.81" height="7.81"/><rect class="cls-2" x="351.09" y="351.09" width="7.58" height="7.58"/><rect class="cls-2" x="351.2" y="351.2" width="7.35" height="7.35"/><rect class="cls-2" x="351.31" y="351.31" width="7.13" height="7.13"/><rect class="cls-2" x="351.42" y="351.42" width="6.92" height="6.92"/><rect class="cls-2" x="351.52" y="351.52" width="6.71" height="6.71"/><rect class="cls-2" x="351.62" y="351.62" width="6.51" height="6.51"/><rect class="cls-2" x="351.72" y="351.72" width="6.31" height="6.31"/><rect class="cls-2" x="351.81" y="351.81" width="6.12" height="6.12"/><rect class="cls-2" x="351.9" y="351.9" width="5.94" height="5.94"/><rect class="cls-2" x="351.99" y="351.99" width="5.76" height="5.76"/><rect class="cls-2" x="352.08" y="352.08" width="5.59" height="5.59"/><rect class="cls-2" x="352.16" y="352.16" width="5.42" height="5.42"/><rect class="cls-2" x="352.25" y="352.25" width="5.26" height="5.26"/><rect class="cls-2" x="352.32" y="352.32" width="5.1" height="5.1"/><rect class="cls-2" x="352.4" y="352.4" width="4.95" height="4.95"/><rect class="cls-2" x="352.48" y="352.48" width="4.8" height="4.8"/><rect class="cls-2" x="352.55" y="352.55" width="4.66" height="4.66"/><rect class="cls-2" x="352.62" y="352.62" width="4.52" height="4.52"/><rect class="cls-2" x="352.68" y="352.68" width="4.38" height="4.38"/><rect class="cls-2" x="352.75" y="352.75" width="4.25" height="4.25"/><rect class="cls-2" x="352.81" y="352.81" width="4.12" height="4.12"/><rect class="cls-2" x="352.88" y="352.88" width="4" height="4"/><rect class="cls-2" x="352.94" y="352.94" width="3.88" height="3.88"/><rect class="cls-2" x="352.99" y="352.99" width="3.76" height="3.76"/><rect class="cls-2" x="353.05" y="353.05" width="3.65" height="3.65"/><rect class="cls-2" x="353.11" y="353.11" width="3.54" height="3.54"/><rect class="cls-2" x="353.16" y="353.16" width="3.43" height="3.43"/><rect class="cls-2" x="353.21" y="353.21" width="3.33" height="3.33"/><rect class="cls-2" x="353.26" y="353.26" width="3.23" height="3.23"/><rect class="cls-2" x="353.31" y="353.31" width="3.13" height="3.13"/><rect class="cls-2" x="353.36" y="353.36" width="3.04" height="3.04"/></svg>