<svg id="_8" data-name="8" xmlns="http://www.w3.org/2000/svg" viewBox="0 0 3662.56 1715.27"><defs><style>.cls-1,.cls-2{fill:none;stroke-miterlimit:10;}.cls-1{stroke:aqua;}.cls-2{stroke:#fff;stroke-width:2px;}</style></defs><line class="cls-1" x1="323.03" y1="280.08" x2="1750.78" y2="1639.36"/><line class="cls-1" x1="382.76" y1="271.34" x2="1810.51" y2="1630.62"/><line class="cls-1" x1="442.49" y1="262.6" x2="1870.24" y2="1621.88"/><line class="cls-1" x1="502.22" y1="253.86" x2="1929.98" y2="1613.14"/><line class="cls-1" x1="561.96" y1="245.12" x2="1989.71" y2="1604.4"/><line class="cls-1" x1="621.69" y1="236.38" x2="2049.44" y2="1595.66"/><line class="cls-1" x1="681.42" y1="227.64" x2="2109.17" y2="1586.91"/><line class="cls-1" x1="741.15" y1="218.9" x2="2168.91" y2="1578.17"/><line class="cls-1" x1="800.89" y1="210.15" x2="2228.64" y2="1569.43"/><line class="cls-1" x1="860.62" y1="201.41" x2="2288.37" y2="1560.69"/><line class="cls-1" x1="920.35" y1="192.67" x2="2348.1" y2="1551.95"/><line class="cls-1" x1="980.08" y1="183.93" x2="2407.83" y2="1543.21"/><line class="cls-1" x1="1039.82" y1="175.19" x2="2467.57" y2="1534.47"/><line class="cls-1" x1="1099.55" y1="166.45" x2="2527.3" y2="1525.72"/><line class="cls-1" x1="1159.28" y1="157.71" x2="2587.03" y2="1516.98"/><line class="cls-1" x1="1219.01" y1="148.96" x2="2646.76" y2="1508.24"/><line class="cls-1" x1="1278.75" y1="140.22" x2="2706.5" y2="1499.5"/><line class="cls-1" x1="1338.48" y1="131.48" x2="2766.23" y2="1490.76"/><line class="cls-1" x1="1398.21" y1="122.74" x2="2825.96" y2="1482.02"/><line class="cls-1" x1="1457.94" y1="114" x2="2885.69" y2="1473.28"/><line class="cls-1" x1="1517.68" y1="105.26" x2="2945.43" y2="1464.54"/><line class="cls-1" x1="1577.41" y1="96.52" x2="3005.16" y2="1455.79"/><line class="cls-1" x1="1637.14" y1="87.78" x2="3064.89" y2="1447.05"/><line class="cls-1" x1="1696.87" y1="79.03" x2="3124.62" y2="1438.31"/><line class="cls-1" x1="1756.61" y1="70.29" x2="3184.36" y2="1429.57"/><line class="cls-1" x1="1816.34" y1="61.55" x2="3244.09" y2="1420.83"/><line class="cls-1" x1="1876.07" y1="52.81" x2="3303.82" y2="1412.09"/><line class="cls-1" x1="1935.8" y1="44.07" x2="3363.55" y2="1403.35"/><line class="cls-1" x1="1995.54" y1="35.33" x2="3423.29" y2="1394.6"/><line class="cls-1" x1="2055.27" y1="26.59" x2="3483.02" y2="1385.86"/><line class="cls-1" x1="2115" y1="17.84" x2="3542.75" y2="1377.12"/><line class="cls-1" x1="2174.73" y1="9.1" x2="3602.48" y2="1368.38"/><line class="cls-1" x1="2234.47" y1="0.36" x2="3662.22" y2="1359.64"/><line class="cls-2" x1="2960.73" y1="1292.07" x2="1609.07" y2="265.95"/><line class="cls-2" x1="2910.47" y1="1305.27" x2="1558.81" y2="279.15"/><line class="cls-2" x1="2860.2" y1="1318.47" x2="1508.54" y2="292.35"/><line class="cls-2" x1="2809.94" y1="1331.67" x2="1458.28" y2="305.55"/><line class="cls-2" x1="2759.67" y1="1344.87" x2="1408.01" y2="318.75"/><line class="cls-2" x1="2709.41" y1="1358.07" x2="1357.75" y2="331.95"/><line class="cls-2" x1="2659.15" y1="1371.27" x2="1307.48" y2="345.15"/><line class="cls-2" x1="2608.88" y1="1384.47" x2="1257.22" y2="358.35"/><line class="cls-2" x1="2558.62" y1="1397.67" x2="1206.95" y2="371.55"/><line class="cls-2" x1="2508.35" y1="1410.87" x2="1156.69" y2="384.75"/><line class="cls-2" x1="2458.09" y1="1424.07" x2="1106.42" y2="397.95"/><line class="cls-2" x1="2407.82" y1="1437.27" x2="1056.16" y2="411.15"/><line class="cls-2" x1="2357.56" y1="1450.47" x2="1005.9" y2="424.35"/><line class="cls-2" x1="2307.29" y1="1463.67" x2="955.63" y2="437.55"/><line class="cls-2" x1="2257.03" y1="1476.87" x2="905.37" y2="450.75"/><line class="cls-2" x1="2206.76" y1="1490.07" x2="855.1" y2="463.95"/><line class="cls-2" x1="2156.5" y1="1503.27" x2="804.84" y2="477.15"/><line class="cls-2" x1="2106.24" y1="1516.47" x2="754.57" y2="490.35"/><line class="cls-2" x1="2055.97" y1="1529.67" x2="704.31" y2="503.55"/><line class="cls-2" x1="2005.71" y1="1542.87" x2="654.04" y2="516.75"/><line class="cls-2" x1="1955.44" y1="1556.07" x2="603.78" y2="529.95"/><line class="cls-2" x1="1905.18" y1="1569.27" x2="553.51" y2="543.15"/><line class="cls-2" x1="1854.91" y1="1582.47" x2="503.25" y2="556.35"/><line class="cls-2" x1="1804.65" y1="1595.67" x2="452.99" y2="569.55"/><line class="cls-2" x1="1754.38" y1="1608.87" x2="402.72" y2="582.75"/><line class="cls-2" x1="1704.12" y1="1622.07" x2="352.46" y2="595.95"/><line class="cls-2" x1="1653.85" y1="1635.27" x2="302.19" y2="609.15"/><line class="cls-2" x1="1603.59" y1="1648.47" x2="251.93" y2="622.35"/><line class="cls-2" x1="1553.33" y1="1661.67" x2="201.66" y2="635.55"/><line class="cls-2" x1="1503.06" y1="1674.87" x2="151.4" y2="648.75"/><line class="cls-2" x1="1452.8" y1="1688.07" x2="101.13" y2="661.95"/><line class="cls-2" x1="1402.53" y1="1701.27" x2="50.87" y2="675.15"/><line class="cls-2" x1="1352.27" y1="1714.47" x2="0.6" y2="688.35"/></svg>