<svg id="_6" data-name="6" xmlns="http://www.w3.org/2000/svg" viewBox="0 0 3699.07 3518.03"><defs><style>.cls-1{fill:none;stroke:#fff;stroke-miterlimit:10;stroke-width:0.5px;}</style></defs><polygon class="cls-1" points="1849.54 0.56 2420.91 1158.29 3698.54 1343.94 2774.04 2245.11 2992.28 3517.57 1849.54 2916.8 706.79 3517.57 925.04 2245.11 0.54 1343.94 1278.16 1158.29 1849.54 0.56"/><polygon class="cls-1" points="1849.54 53.32 2403.77 1176.32 3643.07 1356.4 2746.3 2230.53 2958 3464.82 1849.54 2882.06 741.07 3464.82 952.77 2230.53 56.01 1356.39 1295.31 1176.32 1849.54 53.32"/><polygon class="cls-1" points="1849.54 104.49 2387.14 1193.8 3589.26 1368.48 2719.4 2216.38 2924.74 3413.64 1849.54 2848.37 774.33 3413.64 979.67 2216.38 109.81 1368.47 1311.93 1193.8 1849.54 104.49"/><polygon class="cls-1" points="1849.54 154.13 2371.01 1210.76 3537.07 1380.19 2693.3 2202.66 2892.49 3364.01 1849.54 2815.7 806.58 3364.01 1005.77 2202.66 162 1380.19 1328.06 1210.76 1849.54 154.13"/><polygon class="cls-1" points="1849.54 202.28 2355.37 1227.2 3486.44 1391.56 2667.99 2189.36 2861.2 3315.86 1849.54 2784 837.87 3315.86 1031.08 2189.35 212.63 1391.56 1343.7 1227.2 1849.54 202.28"/><polygon class="cls-1" points="1849.54 248.98 2340.19 1243.16 3437.34 1402.59 2643.44 2176.45 2830.85 3269.16 1849.54 2753.25 868.22 3269.16 1055.64 2176.45 261.74 1402.59 1358.88 1243.16 1849.54 248.98"/><polygon class="cls-1" points="1849.54 294.28 2325.47 1258.64 3389.7 1413.28 2619.62 2163.93 2801.41 3223.85 1849.54 2723.42 897.66 3223.85 1079.45 2163.92 309.37 1413.28 1373.6 1258.64 1849.54 294.28"/><polygon class="cls-1" points="1849.54 338.23 2311.2 1273.65 3343.5 1423.65 2596.52 2151.78 2772.86 3179.91 1849.54 2694.49 926.22 3179.91 1102.56 2151.78 355.58 1423.65 1387.88 1273.65 1849.54 338.23"/><polygon class="cls-1" points="1849.54 380.85 2297.35 1288.21 3298.68 1433.72 2574.11 2140 2745.16 3137.28 1849.54 2666.43 953.92 3137.28 1124.97 2140 400.4 1433.71 1401.73 1288.21 1849.54 380.85"/><polygon class="cls-1" points="1849.54 422.2 2283.91 1302.34 3255.2 1443.48 2552.37 2128.57 2718.29 3095.94 1849.54 2639.21 980.79 3095.94 1146.7 2128.57 443.87 1443.48 1415.16 1302.34 1849.54 422.2"/><polygon class="cls-1" points="1849.54 462.31 2270.88 1316.04 3213.03 1452.94 2531.29 2117.49 2692.22 3055.83 1849.54 2612.8 1006.85 3055.83 1167.79 2117.49 486.04 1452.94 1428.19 1316.04 1849.54 462.31"/><polygon class="cls-1" points="1849.54 501.21 2258.24 1329.33 3172.13 1462.13 2510.83 2106.73 2666.94 3016.93 1849.54 2587.19 1032.13 3016.93 1188.24 2106.73 526.95 1462.13 1440.83 1329.33 1849.54 501.21"/><polygon class="cls-1" points="1849.54 538.94 2245.98 1342.22 3132.45 1471.04 2490.99 2096.3 2642.42 2979.19 1849.54 2562.35 1056.65 2979.19 1208.08 2096.3 566.62 1471.04 1453.1 1342.22 1849.54 538.94"/><polygon class="cls-1" points="1849.54 575.55 2234.09 1354.73 3093.96 1479.68 2471.75 2086.19 2618.64 2942.59 1849.54 2538.25 1080.44 2942.59 1227.32 2086.18 605.11 1479.68 1464.99 1354.73 1849.54 575.55"/><polygon class="cls-1" points="1849.54 611.05 2222.55 1366.86 3056.63 1488.06 2453.08 2076.37 2595.56 2907.08 1849.54 2514.88 1103.51 2907.08 1245.99 2076.37 642.44 1488.06 1476.53 1366.86 1849.54 611.05"/><polygon class="cls-1" points="1849.54 645.49 2211.36 1378.63 3020.42 1496.19 2434.98 2066.85 2573.18 2872.64 1849.54 2492.2 1125.89 2872.64 1264.1 2066.85 678.66 1496.19 1487.71 1378.63 1849.54 645.49"/><polygon class="cls-1" points="1849.54 678.9 2200.51 1390.04 2985.29 1504.08 2417.41 2057.62 2551.47 2839.24 1849.54 2470.21 1147.6 2839.24 1281.66 2057.62 713.78 1504.08 1498.57 1390.04 1849.54 678.9"/><polygon class="cls-1" points="1849.54 711.31 2189.98 1401.11 2951.22 1511.73 2400.38 2048.66 2530.41 2806.83 1849.54 2448.87 1168.66 2806.83 1298.7 2048.66 747.86 1511.72 1509.1 1401.11 1849.54 711.31"/><polygon class="cls-1" points="1849.54 742.74 2179.76 1411.85 2918.17 1519.15 2383.85 2039.97 2509.99 2775.4 1849.54 2428.18 1189.09 2775.4 1315.22 2039.97 780.9 1519.14 1519.31 1411.85 1849.54 742.74"/><polygon class="cls-1" points="1849.54 773.23 2169.86 1422.27 2886.11 1526.34 2367.82 2031.55 2490.17 2744.91 1849.54 2408.11 1208.9 2744.91 1331.25 2031.55 812.96 1526.34 1529.22 1422.27 1849.54 773.23"/><polygon class="cls-1" points="1849.54 802.8 2160.25 1432.37 2855.01 1533.33 2352.28 2023.37 2470.95 2715.33 1849.54 2388.63 1228.12 2715.33 1346.8 2023.37 844.06 1533.33 1538.83 1432.37 1849.54 802.8"/><polygon class="cls-1" points="1849.54 831.49 2150.93 1442.17 2824.85 1540.1 2337.19 2015.44 2452.31 2686.64 1849.54 2369.75 1246.76 2686.64 1361.88 2015.44 874.23 1540.1 1548.15 1442.17 1849.54 831.49"/><polygon class="cls-1" points="1849.54 859.32 2141.88 1451.68 2795.59 1546.67 2322.56 2007.75 2434.23 2658.82 1849.54 2351.43 1264.84 2658.82 1376.51 2007.75 903.49 1546.67 1557.19 1451.68 1849.54 859.32"/><polygon class="cls-1" points="1849.54 886.31 2133.11 1460.9 2767.21 1553.04 2308.37 2000.29 2416.69 2631.82 1849.54 2333.66 1282.38 2631.82 1390.7 2000.29 931.87 1553.04 1565.96 1460.9 1849.54 886.31"/><polygon class="cls-1" points="1849.54 912.5 2124.61 1469.84 2739.68 1559.22 2294.61 1993.06 2399.67 2605.64 1849.54 2316.42 1299.4 2605.64 1404.47 1993.06 959.4 1559.22 1574.47 1469.84 1849.54 912.5"/><polygon class="cls-1" points="1849.54 937.89 2116.35 1478.52 2712.97 1565.21 2281.26 1986.04 2383.17 2580.24 1849.54 2299.7 1315.9 2580.24 1417.82 1986.04 986.1 1565.21 1582.72 1478.52 1849.54 937.89"/><polygon class="cls-1" points="1849.54 962.53 2108.35 1486.94 2687.07 1571.03 2268.3 1979.23 2367.16 2555.61 1849.54 2283.48 1331.91 2555.61 1430.77 1979.23 1012 1571.03 1590.72 1486.94 1849.54 962.53"/><polygon class="cls-1" points="1849.54 986.42 2100.59 1495.1 2661.94 1576.67 2255.74 1972.62 2351.63 2531.71 1849.54 2267.75 1347.44 2531.71 1443.33 1972.62 1037.13 1576.67 1598.49 1495.1 1849.54 986.42"/><polygon class="cls-1" points="1849.54 1009.6 2093.05 1503.02 2637.57 1582.14 2243.55 1966.22 2336.57 2508.53 1849.54 2252.49 1362.5 2508.53 1455.52 1966.22 1061.5 1582.14 1606.02 1503.02 1849.54 1009.6"/><polygon class="cls-1" points="1849.54 1032.09 2085.75 1510.7 2613.93 1587.45 2231.73 1960 2321.96 2486.05 1849.54 2237.68 1377.12 2486.05 1467.34 1960 1085.14 1587.45 1613.33 1510.7 1849.54 1032.09"/><polygon class="cls-1" points="1849.54 1053.9 2078.66 1518.15 2591 1592.6 2220.27 1953.97 2307.79 2464.24 1849.54 2223.32 1391.29 2464.24 1478.81 1953.97 1108.08 1592.6 1620.41 1518.15 1849.54 1053.9"/><polygon class="cls-1" points="1849.54 1075.05 2071.79 1525.38 2568.76 1597.59 2209.15 1948.13 2294.04 2443.09 1849.54 2209.4 1405.04 2443.09 1489.93 1948.13 1130.32 1597.59 1627.29 1525.38 1849.54 1075.05"/><polygon class="cls-1" points="1849.54 1095.57 2065.12 1532.39 2547.18 1602.44 2198.36 1942.45 2280.7 2422.57 1849.54 2195.89 1418.37 2422.57 1500.72 1942.45 1151.9 1602.44 1633.95 1532.39 1849.54 1095.57"/><polygon class="cls-1" points="1849.54 1115.48 2058.65 1539.19 2526.25 1607.14 2187.89 1936.95 2267.77 2402.66 1849.54 2182.78 1431.31 2402.66 1511.18 1936.95 1172.83 1607.14 1640.42 1539.19 1849.54 1115.48"/><polygon class="cls-1" points="1849.54 1134.79 2052.38 1545.79 2505.95 1611.69 2177.74 1931.62 2255.22 2383.35 1849.54 2170.07 1443.85 2383.35 1521.33 1931.62 1193.13 1611.69 1646.69 1545.79 1849.54 1134.79"/><polygon class="cls-1" points="1849.54 1153.51 2046.29 1552.19 2486.26 1616.12 2167.9 1926.44 2243.05 2364.62 1849.54 2157.74 1456.02 2364.62 1531.18 1926.44 1212.82 1616.12 1652.78 1552.19 1849.54 1153.51"/><polygon class="cls-1" points="1849.54 1171.68 2040.39 1558.39 2467.15 1620.4 2158.35 1921.42 2231.24 2346.46 1849.54 2145.78 1467.83 2346.46 1540.73 1921.42 1231.92 1620.4 1658.68 1558.39 1849.54 1171.68"/><polygon class="cls-1" points="1849.54 1189.3 2034.67 1564.41 2448.63 1624.57 2149.08 1916.55 2219.79 2328.84 1849.54 2134.18 1479.28 2328.84 1549.99 1916.55 1250.45 1624.57 1664.41 1564.41 1849.54 1189.3"/><polygon class="cls-1" points="1849.54 1206.39 2029.11 1570.25 2430.65 1628.6 2140.09 1911.82 2208.69 2311.74 1849.54 2122.93 1490.39 2311.74 1558.98 1911.82 1268.42 1628.6 1669.96 1570.25 1849.54 1206.39"/><polygon class="cls-1" points="1849.54 1222.97 2023.72 1575.92 2413.22 1632.51 2131.38 1907.24 2197.91 2295.16 1849.54 2112.01 1501.16 2295.16 1567.7 1907.24 1285.86 1632.51 1675.35 1575.92 1849.54 1222.97"/><polygon class="cls-1" points="1849.54 1239.06 2018.5 1581.41 2396.31 1636.31 2122.92 1902.8 2187.46 2279.08 1849.54 2101.42 1511.61 2279.08 1576.15 1902.8 1302.77 1636.31 1680.58 1581.41 1849.54 1239.06"/><polygon class="cls-1" points="1849.54 1254.66 2013.43 1586.74 2379.91 1639.99 2114.72 1898.48 2177.32 2263.48 1849.54 2091.15 1521.75 2263.48 1584.35 1898.48 1319.17 1639.99 1685.64 1586.74 1849.54 1254.66"/><polygon class="cls-1" points="1849.54 1269.79 2008.51 1591.91 2363.99 1643.57 2106.77 1894.3 2167.49 2248.35 1849.54 2081.19 1531.59 2248.35 1592.31 1894.3 1335.08 1643.57 1690.56 1591.91 1849.54 1269.79"/><polygon class="cls-1" points="1849.54 1284.47 2003.74 1596.93 2348.56 1647.03 2099.05 1890.24 2157.95 2233.67 1849.54 2071.53 1541.12 2233.67 1600.03 1890.24 1350.51 1647.03 1695.33 1596.93 1849.54 1284.47"/><polygon class="cls-1" points="1849.54 1298.71 1999.12 1601.79 2333.59 1650.39 2091.56 1886.31 2148.7 2219.43 1849.54 2062.15 1550.38 2219.43 1607.51 1886.31 1365.48 1650.39 1699.96 1601.79 1849.54 1298.71"/><polygon class="cls-1" points="1849.54 1312.52 1994.63 1606.51 2319.07 1653.65 2084.3 1882.49 2139.72 2205.62 1849.54 2053.06 1559.35 2205.62 1614.77 1882.49 1380.01 1653.65 1704.44 1606.51 1849.54 1312.52"/><polygon class="cls-1" points="1849.54 1325.91 1990.28 1611.09 2304.98 1656.82 2077.26 1878.79 2131.02 2192.22 1849.54 2044.24 1568.06 2192.22 1621.81 1878.79 1394.09 1656.81 1708.8 1611.09 1849.54 1325.91"/><polygon class="cls-1" points="1849.54 1338.91 1986.06 1615.53 2291.32 1659.88 2070.43 1875.2 2122.57 2179.23 1849.54 2035.68 1576.5 2179.23 1628.65 1875.2 1407.76 1659.88 1713.02 1615.53 1849.54 1338.91"/><polygon class="cls-1" points="1849.54 1351.51 1981.96 1619.83 2278.07 1662.86 2063.8 1871.71 2114.38 2166.62 1849.54 2027.39 1584.69 2166.62 1635.27 1871.71 1421.01 1662.86 1717.12 1619.83 1849.54 1351.51"/><polygon class="cls-1" points="1849.54 1363.74 1977.99 1624.01 2265.21 1665.74 2057.37 1868.34 2106.44 2154.4 1849.54 2019.34 1592.64 2154.4 1641.7 1868.34 1433.86 1665.74 1721.09 1624.01 1849.54 1363.74"/><polygon class="cls-1" points="1849.54 1375.6 1974.13 1628.06 2252.74 1668.54 2051.14 1865.06 2098.73 2142.54 1849.54 2011.53 1600.34 2142.54 1647.94 1865.06 1446.33 1668.54 1724.94 1628.06 1849.54 1375.6"/><polygon class="cls-1" points="1849.54 1387.1 1970.4 1631.99 2240.64 1671.26 2045.09 1861.88 2091.25 2131.03 1849.54 2003.95 1607.82 2131.03 1653.98 1861.88 1458.43 1671.26 1728.68 1631.99 1849.54 1387.1"/><polygon class="cls-1" points="1849.54 1398.26 1966.77 1635.8 2228.91 1673.89 2039.22 1858.79 2084 2119.87 1849.54 1996.61 1615.07 2119.87 1659.85 1858.79 1470.16 1673.89 1732.3 1635.8 1849.54 1398.26"/><polygon class="cls-1" points="1849.54 1409.09 1963.25 1639.5 2217.53 1676.45 2033.53 1855.8 2076.97 2109.05 1849.54 1989.48 1622.11 2109.05 1665.54 1855.8 1481.55 1676.45 1735.82 1639.5 1849.54 1409.09"/><polygon class="cls-1" points="1849.54 1419.59 1959.84 1643.09 2206.49 1678.93 2028.01 1852.9 2070.15 2098.55 1849.54 1982.57 1628.93 2098.55 1671.06 1852.9 1492.59 1678.93 1739.23 1643.09 1849.54 1419.59"/><polygon class="cls-1" points="1849.54 1429.77 1956.53 1646.57 2195.78 1681.33 2022.66 1850.08 2063.53 2088.37 1849.54 1975.87 1635.55 2088.37 1676.41 1850.08 1503.29 1681.33 1742.54 1646.57 1849.54 1429.77"/><polygon class="cls-1" points="1849.54 1439.65 1953.32 1649.94 2185.39 1683.66 2017.47 1847.35 2057.11 2078.49 1849.54 1969.36 1641.97 2078.49 1681.61 1847.35 1513.68 1683.66 1745.75 1649.94 1849.54 1439.65"/><polygon class="cls-1" points="1849.54 1449.23 1950.21 1653.22 2175.32 1685.93 2012.43 1844.7 2050.88 2068.91 1849.54 1963.05 1648.19 2068.91 1686.65 1844.7 1523.76 1685.93 1748.87 1653.22 1849.54 1449.23"/><polygon class="cls-1" points="1849.54 1458.53 1947.19 1656.39 2165.55 1688.12 2007.54 1842.14 2044.84 2059.61 1849.54 1956.93 1654.23 2059.61 1691.53 1842.14 1533.53 1688.12 1751.89 1656.39 1849.54 1458.53"/><polygon class="cls-1" points="1849.54 1467.54 1944.26 1659.47 2156.07 1690.25 2002.8 1839.64 2038.98 2050.59 1849.54 1951 1660.09 2050.59 1696.27 1839.64 1543.01 1690.25 1754.82 1659.47 1849.54 1467.54"/><polygon class="cls-1" points="1849.54 1476.29 1941.42 1662.46 2146.87 1692.31 1998.2 1837.23 2033.3 2041.85 1849.54 1945.24 1665.78 2041.85 1700.87 1837.23 1552.21 1692.31 1757.66 1662.46 1849.54 1476.29"/><polygon class="cls-1" points="1849.54 1484.77 1938.66 1665.36 2137.95 1694.32 1993.74 1834.88 2027.79 2033.36 1849.54 1939.65 1671.29 2033.36 1705.33 1834.88 1561.13 1694.32 1760.41 1665.36 1849.54 1484.77"/><polygon class="cls-1" points="1849.54 1493 1935.99 1668.17 2129.3 1696.26 1989.42 1832.61 2022.44 2025.14 1849.54 1934.24 1676.64 2025.13 1709.66 1832.61 1569.78 1696.26 1763.09 1668.17 1849.54 1493"/><polygon class="cls-1" points="1849.54 1500.98 1933.39 1670.9 2120.9 1698.14 1985.22 1830.4 2017.25 2017.15 1849.54 1928.98 1681.82 2017.15 1713.85 1830.4 1578.17 1698.14 1765.68 1670.9 1849.54 1500.98"/><polygon class="cls-1" points="1849.54 1508.73 1930.88 1673.54 2112.76 1699.97 1981.15 1828.26 2012.22 2009.41 1849.54 1923.88 1686.86 2009.41 1717.92 1828.26 1586.31 1699.97 1768.2 1673.54 1849.54 1508.73"/><polygon class="cls-1" points="1849.54 1516.24 1928.44 1676.11 2104.87 1701.74 1977.2 1826.19 2007.34 2001.9 1849.54 1918.94 1691.73 2001.9 1721.87 1826.19 1594.21 1701.74 1770.64 1676.11 1849.54 1516.24"/><polygon class="cls-1" points="1849.54 1523.52 1926.07 1678.6 2097.21 1703.46 1973.37 1824.17 2002.61 1994.62 1849.54 1914.14 1696.47 1994.62 1725.7 1824.17 1601.87 1703.46 1773 1678.6 1849.54 1523.52"/><polygon class="cls-1" points="1849.54 1530.59 1923.78 1681.01 2089.78 1705.13 1969.66 1822.22 1998.01 1987.55 1849.54 1909.49 1701.06 1987.55 1729.42 1822.22 1609.3 1705.13 1775.3 1681.01 1849.54 1530.59"/><polygon class="cls-1" points="1849.54 1537.44 1921.55 1683.35 2082.57 1706.75 1966.05 1820.33 1993.56 1980.69 1849.54 1904.98 1705.52 1980.69 1733.02 1820.33 1616.51 1706.75 1777.53 1683.35 1849.54 1537.44"/><polygon class="cls-1" points="1849.54 1544.09 1919.39 1685.62 2075.58 1708.32 1962.56 1818.49 1989.24 1974.05 1849.54 1900.6 1709.84 1974.05 1736.52 1818.49 1623.5 1708.32 1779.69 1685.62 1849.54 1544.09"/><polygon class="cls-1" points="1849.54 1550.54 1917.29 1687.83 2068.8 1709.84 1959.17 1816.7 1985.05 1967.6 1849.54 1896.36 1714.03 1967.6 1739.91 1816.7 1630.28 1709.84 1781.78 1687.83 1849.54 1550.54"/><polygon class="cls-1" points="1849.54 1556.8 1915.26 1689.96 2062.22 1711.32 1955.88 1814.97 1980.98 1961.34 1849.54 1892.24 1718.09 1961.34 1743.2 1814.97 1636.86 1711.32 1783.82 1689.96 1849.54 1556.8"/><polygon class="cls-1" points="1849.54 1562.86 1913.29 1692.04 2055.84 1712.75 1952.69 1813.3 1977.04 1955.27 1849.54 1888.24 1722.04 1955.27 1746.39 1813.3 1643.24 1712.75 1785.79 1692.04 1849.54 1562.86"/><polygon class="cls-1" points="1849.54 1568.75 1911.38 1694.05 2049.65 1714.14 1949.59 1811.67 1973.21 1949.39 1849.54 1884.37 1725.86 1949.39 1749.48 1811.67 1649.42 1714.14 1787.7 1694.05 1849.54 1568.75"/><polygon class="cls-1" points="1849.54 1574.46 1909.52 1696 2043.65 1715.49 1946.59 1810.09 1969.5 1943.68 1849.54 1880.61 1729.57 1943.68 1752.48 1810.09 1655.43 1715.49 1789.55 1696 1849.54 1574.46"/><polygon class="cls-1" points="1849.54 1580 1907.72 1697.89 2037.82 1716.8 1943.68 1808.56 1965.9 1938.14 1849.54 1876.96 1733.17 1938.14 1755.39 1808.56 1661.25 1716.8 1791.35 1697.89 1849.54 1580"/><polygon class="cls-1" points="1849.54 1585.37 1905.97 1699.73 2032.17 1718.06 1940.86 1807.08 1962.41 1932.77 1849.54 1873.42 1736.66 1932.77 1758.22 1807.08 1666.9 1718.06 1793.1 1699.73 1849.54 1585.37"/><polygon class="cls-1" points="1849.54 1590.58 1904.28 1701.51 2026.69 1719.29 1938.12 1805.64 1959.03 1927.56 1849.54 1869.99 1740.05 1927.56 1760.96 1805.64 1672.38 1719.29 1794.79 1701.51 1849.54 1590.58"/><polygon class="cls-1" points="1849.54 1595.64 1902.64 1703.23 2021.38 1720.49 1935.46 1804.24 1955.74 1922.5 1849.54 1866.67 1743.33 1922.5 1763.62 1804.24 1677.69 1720.49 1796.43 1703.23 1849.54 1595.64"/><polygon class="cls-1" points="1849.54 1600.54 1901.05 1704.91 2016.22 1721.64 1932.88 1802.88 1952.56 1917.6 1849.54 1863.44 1746.52 1917.6 1766.19 1802.88 1682.85 1721.64 1798.03 1704.91 1849.54 1600.54"/><polygon class="cls-1" points="1849.54 1605.3 1899.5 1706.53 2011.22 1722.77 1930.38 1801.57 1949.46 1912.84 1849.54 1860.31 1749.61 1912.84 1768.69 1801.57 1687.85 1722.77 1799.57 1706.53 1849.54 1605.3"/><polygon class="cls-1" points="1849.54 1609.91 1898 1708.11 2006.37 1723.86 1927.96 1800.3 1946.47 1908.23 1849.54 1857.27 1752.61 1908.23 1771.12 1800.3 1692.7 1723.86 1801.07 1708.11 1849.54 1609.91"/><polygon class="cls-1" points="1849.54 1614.38 1896.55 1709.64 2001.67 1724.91 1925.6 1799.06 1943.56 1903.75 1849.54 1854.32 1755.52 1903.75 1773.47 1799.06 1697.41 1724.91 1802.53 1709.64 1849.54 1614.38"/><polygon class="cls-1" points="1849.54 1618.72 1895.14 1711.12 1997.11 1725.94 1923.32 1797.86 1940.74 1899.41 1849.54 1851.47 1758.34 1899.41 1775.75 1797.86 1701.97 1725.94 1803.94 1711.12 1849.54 1618.72"/><polygon class="cls-1" points="1849.54 1622.93 1893.77 1712.56 1992.68 1726.93 1921.11 1796.69 1938 1895.2 1849.54 1848.69 1761.07 1895.2 1777.97 1796.69 1706.4 1726.93 1805.3 1712.56 1849.54 1622.93"/><polygon class="cls-1" points="1849.54 1627.02 1892.44 1713.95 1988.38 1727.9 1918.96 1795.57 1935.35 1891.12 1849.54 1846.01 1763.72 1891.12 1780.11 1795.57 1710.69 1727.9 1806.63 1713.95 1849.54 1627.02"/><polygon class="cls-1" points="1849.54 1630.98 1891.16 1715.31 1984.22 1728.83 1916.88 1794.47 1932.78 1887.16 1849.54 1843.4 1766.3 1887.16 1782.2 1794.47 1714.86 1728.83 1807.92 1715.31 1849.54 1630.98"/><polygon class="cls-1" points="1849.54 1634.82 1889.91 1716.62 1980.18 1729.74 1914.86 1793.41 1930.28 1883.32 1849.54 1840.87 1768.8 1883.32 1784.22 1793.41 1718.9 1729.74 1809.17 1716.62 1849.54 1634.82"/><polygon class="cls-1" points="1849.54 1638.55 1888.7 1717.89 1976.26 1730.62 1912.9 1792.38 1927.86 1879.59 1849.54 1838.41 1771.22 1879.59 1786.18 1792.38 1722.82 1730.62 1810.38 1717.89 1849.54 1638.55"/><polygon class="cls-1" points="1849.54 1642.16 1887.52 1719.13 1972.46 1731.47 1911 1791.38 1925.51 1875.97 1849.54 1836.03 1773.57 1875.97 1788.08 1791.38 1726.62 1731.47 1811.55 1719.13 1849.54 1642.16"/><polygon class="cls-1" points="1849.54 1645.67 1886.38 1720.33 1968.77 1732.3 1909.15 1790.41 1923.23 1872.46 1849.54 1833.72 1775.85 1872.46 1789.92 1790.41 1730.31 1732.3 1812.69 1720.33 1849.54 1645.67"/><polygon class="cls-1" points="1849.54 1649.07 1885.28 1721.49 1965.19 1733.1 1907.37 1789.47 1921.02 1869.06 1849.54 1831.48 1778.06 1869.06 1791.71 1789.47 1733.88 1733.1 1813.8 1721.49 1849.54 1649.07"/><polygon class="cls-1" points="1849.54 1652.37 1884.2 1722.62 1961.72 1733.88 1905.63 1788.56 1918.87 1865.76 1849.54 1829.31 1780.2 1865.76 1793.44 1788.56 1737.35 1733.88 1814.87 1722.62 1849.54 1652.37"/><polygon class="cls-1" points="1849.54 1655.58 1883.16 1723.71 1958.36 1734.64 1903.95 1787.67 1916.79 1862.56 1849.54 1827.2 1782.28 1862.56 1795.13 1787.67 1740.72 1734.64 1815.91 1723.71 1849.54 1655.58"/><polygon class="cls-1" points="1849.54 1658.68 1882.16 1724.77 1955.09 1735.37 1902.32 1786.82 1914.77 1859.46 1849.54 1825.16 1784.3 1859.46 1796.76 1786.82 1743.98 1735.37 1816.92 1724.77 1849.54 1658.68"/><polygon class="cls-1" points="1849.54 1661.69 1881.18 1725.8 1951.93 1736.08 1900.73 1785.98 1912.82 1856.45 1849.54 1823.18 1786.26 1856.45 1798.34 1785.98 1747.15 1736.08 1817.9 1725.8 1849.54 1661.69"/><polygon class="cls-1" points="1849.54 1664.61 1880.23 1726.8 1948.85 1736.77 1899.2 1785.18 1910.92 1853.53 1849.54 1821.26 1788.16 1853.53 1799.88 1785.18 1750.22 1736.77 1818.85 1726.8 1849.54 1664.61"/><polygon class="cls-1" points="1849.54 1667.45 1879.31 1727.77 1945.88 1737.44 1897.71 1784.39 1909.08 1850.69 1849.54 1819.39 1790 1850.69 1801.37 1784.39 1753.2 1737.44 1819.77 1727.77 1849.54 1667.45"/><polygon class="cls-1" points="1849.54 1670.19 1878.41 1728.71 1942.98 1738.09 1896.26 1783.63 1907.29 1847.94 1849.54 1817.58 1791.78 1847.94 1802.81 1783.63 1756.09 1738.09 1820.66 1728.71 1849.54 1670.19"/><polygon class="cls-1" points="1849.54 1672.86 1877.55 1729.62 1940.18 1738.72 1894.86 1782.9 1905.56 1845.28 1849.54 1815.82 1793.52 1845.28 1804.21 1782.9 1758.89 1738.72 1821.53 1729.62 1849.54 1672.86"/><polygon class="cls-1" points="1849.54 1675.45 1876.71 1730.5 1937.46 1739.33 1893.5 1782.18 1903.88 1842.69 1849.54 1814.12 1795.2 1842.69 1805.58 1782.18 1761.61 1739.33 1822.37 1730.5 1849.54 1675.45"/><polygon class="cls-1" points="1849.54 1677.96 1875.89 1731.36 1934.82 1739.92 1892.18 1781.49 1902.25 1840.18 1849.54 1812.47 1796.83 1840.18 1806.89 1781.49 1764.25 1739.92 1823.18 1731.36 1849.54 1677.96"/><polygon class="cls-1" points="1849.54 1680.39 1875.1 1732.19 1932.27 1740.49 1890.9 1780.82 1900.67 1837.75 1849.54 1810.87 1798.41 1837.75 1808.17 1780.82 1766.81 1740.49 1823.97 1732.19 1849.54 1680.39"/><polygon class="cls-1" points="1849.54 1682.75 1874.34 1732.99 1929.78 1741.05 1889.66 1780.16 1899.13 1835.39 1849.54 1809.31 1799.94 1835.39 1809.41 1780.16 1769.29 1741.05 1824.74 1732.99 1849.54 1682.75"/><polygon class="cls-1" points="1849.54 1685.04 1873.59 1733.78 1927.38 1741.59 1888.46 1779.53 1897.64 1833.1 1849.54 1807.81 1801.43 1833.1 1810.62 1779.53 1771.7 1741.59 1825.48 1733.78 1849.54 1685.04"/><polygon class="cls-1" points="1849.54 1687.26 1872.87 1734.54 1925.04 1742.12 1887.29 1778.92 1896.2 1830.88 1849.54 1806.34 1802.87 1830.88 1811.79 1778.92 1774.03 1742.12 1826.2 1734.54 1849.54 1687.26"/><polygon class="cls-1" points="1849.54 1689.41 1872.17 1735.27 1922.78 1742.63 1886.16 1778.32 1894.8 1828.72 1849.54 1804.93 1804.27 1828.72 1812.92 1778.32 1776.3 1742.63 1826.9 1735.27 1849.54 1689.41"/><polygon class="cls-1" points="1849.54 1691.5 1871.49 1735.99 1920.58 1743.12 1885.06 1777.74 1893.44 1826.63 1849.54 1803.55 1805.63 1826.63 1814.02 1777.74 1778.5 1743.12 1827.58 1735.99 1849.54 1691.5"/><polygon class="cls-1" points="1849.54 1693.53 1870.83 1736.68 1918.45 1743.6 1883.99 1777.18 1892.13 1824.61 1849.54 1802.22 1806.95 1824.61 1815.08 1777.18 1780.63 1743.6 1828.24 1736.68 1849.54 1693.53"/><polygon class="cls-1" points="1849.54 1695.5 1870.19 1737.35 1916.38 1744.06 1882.96 1776.64 1890.85 1822.64 1849.54 1800.92 1808.23 1822.64 1816.12 1776.64 1782.69 1744.06 1828.88 1737.35 1849.54 1695.5"/><polygon class="cls-1" points="1849.54 1697.4 1869.57 1738 1914.38 1744.51 1881.96 1776.11 1889.61 1820.73 1849.54 1799.67 1809.46 1820.73 1817.12 1776.11 1784.7 1744.51 1829.5 1738 1849.54 1697.4"/><polygon class="cls-1" points="1849.54 1699.25 1868.97 1738.63 1912.43 1744.95 1880.98 1775.6 1888.41 1818.88 1849.54 1798.45 1810.67 1818.88 1818.09 1775.6 1786.64 1744.95 1830.1 1738.63 1849.54 1699.25"/><polygon class="cls-1" points="1849.54 1701.05 1868.39 1739.25 1910.54 1745.37 1880.04 1775.11 1887.24 1817.09 1849.54 1797.27 1811.83 1817.09 1819.03 1775.11 1788.53 1745.37 1830.68 1739.25 1849.54 1701.05"/><polygon class="cls-1" points="1849.54 1702.79 1867.82 1739.84 1908.71 1745.78 1879.13 1774.62 1886.11 1815.35 1849.54 1796.12 1812.96 1815.35 1819.95 1774.62 1790.36 1745.78 1831.25 1739.84 1849.54 1702.79"/><polygon class="cls-1" points="1849.54 1704.48 1867.28 1740.42 1906.94 1746.18 1878.24 1774.16 1885.01 1813.66 1849.54 1795.01 1814.06 1813.66 1820.84 1774.16 1792.14 1746.18 1831.8 1740.42 1849.54 1704.48"/><polygon class="cls-1" points="1849.54 1706.12 1866.74 1740.98 1905.22 1746.57 1877.38 1773.7 1883.95 1812.02 1849.54 1793.93 1815.13 1812.02 1821.7 1773.7 1793.86 1746.57 1832.33 1740.98 1849.54 1706.12"/><polygon class="cls-1" points="1849.54 1707.7 1866.23 1741.52 1903.55 1746.94 1876.54 1773.27 1882.92 1810.43 1849.54 1792.88 1816.16 1810.43 1822.53 1773.27 1795.53 1746.94 1832.85 1741.52 1849.54 1707.7"/><polygon class="cls-1" points="1849.54 1709.24 1865.73 1742.05 1901.92 1747.31 1875.73 1772.84 1881.91 1808.89 1849.54 1791.87 1817.16 1808.89 1823.34 1772.84 1797.15 1747.31 1833.35 1742.05 1849.54 1709.24"/><polygon class="cls-1" points="1849.54 1710.74 1865.24 1742.56 1900.35 1747.66 1874.94 1772.43 1880.94 1807.4 1849.54 1790.89 1818.13 1807.4 1824.13 1772.43 1798.72 1747.66 1833.83 1742.56 1849.54 1710.74"/><polygon class="cls-1" points="1849.54 1712.19 1864.77 1743.05 1898.83 1748 1874.18 1772.03 1880 1805.95 1849.54 1789.93 1819.07 1805.95 1824.89 1772.03 1800.25 1748 1834.31 1743.05 1849.54 1712.19"/><polygon class="cls-1" points="1849.54 1713.6 1864.31 1743.53 1897.35 1748.33 1873.44 1771.64 1879.09 1804.54 1849.54 1789.01 1819.99 1804.54 1825.63 1771.64 1801.72 1748.33 1834.76 1743.53 1849.54 1713.6"/><polygon class="cls-1" points="1849.54 1714.96 1863.87 1744 1895.92 1748.66 1872.73 1771.26 1878.2 1803.18 1849.54 1788.11 1820.87 1803.18 1826.35 1771.26 1803.16 1748.66 1835.2 1744 1849.54 1714.96"/><polygon class="cls-1" points="1849.54 1716.28 1863.44 1744.45 1894.52 1748.97 1872.03 1770.89 1877.34 1801.85 1849.54 1787.24 1821.73 1801.85 1827.04 1770.89 1804.55 1748.97 1835.63 1744.45 1849.54 1716.28"/><polygon class="cls-1" points="1849.54 1717.57 1863.02 1744.89 1893.17 1749.27 1871.36 1770.54 1876.51 1800.57 1849.54 1786.39 1822.57 1800.57 1827.72 1770.54 1805.9 1749.27 1836.05 1744.89 1849.54 1717.57"/><polygon class="cls-1" points="1849.54 1718.81 1862.62 1745.32 1891.87 1749.57 1870.7 1770.19 1875.7 1799.33 1849.54 1785.57 1823.38 1799.33 1828.37 1770.19 1807.21 1749.57 1836.46 1745.32 1849.54 1718.81"/><polygon class="cls-1" points="1849.54 1720.02 1862.22 1745.73 1890.6 1749.85 1870.07 1769.86 1874.91 1798.12 1849.54 1784.78 1824.16 1798.12 1829.01 1769.86 1808.48 1749.85 1836.85 1745.73 1849.54 1720.02"/><polygon class="cls-1" points="1849.54 1721.19 1861.84 1746.13 1889.36 1750.13 1869.45 1769.54 1874.15 1796.95 1849.54 1784.01 1824.92 1796.95 1829.62 1769.54 1809.71 1750.13 1837.23 1746.13 1849.54 1721.19"/><polygon class="cls-1" points="1849.54 1722.33 1861.47 1746.52 1888.17 1750.39 1868.85 1769.22 1873.41 1795.81 1849.54 1783.26 1825.66 1795.81 1830.22 1769.22 1810.9 1750.39 1837.6 1746.52 1849.54 1722.33"/><polygon class="cls-1" points="1849.54 1723.43 1861.12 1746.89 1887.01 1750.65 1868.27 1768.92 1872.7 1794.71 1849.54 1782.53 1826.38 1794.71 1830.8 1768.92 1812.06 1750.65 1837.96 1746.89 1849.54 1723.43"/><polygon class="cls-1" points="1849.54 1724.5 1860.77 1747.26 1885.89 1750.91 1867.71 1768.62 1872 1793.64 1849.54 1781.83 1827.07 1793.64 1831.36 1768.62 1813.19 1750.91 1838.31 1747.26 1849.54 1724.5"/><polygon class="cls-1" points="1849.54 1725.54 1860.43 1747.61 1884.8 1751.15 1867.17 1768.34 1871.33 1792.6 1849.54 1781.14 1827.75 1792.6 1831.91 1768.34 1814.28 1751.15 1838.64 1747.61 1849.54 1725.54"/><polygon class="cls-1" points="1849.54 1726.54 1860.11 1747.96 1883.74 1751.39 1866.64 1768.06 1870.67 1791.6 1849.54 1780.48 1828.4 1791.6 1832.44 1768.06 1815.34 1751.39 1838.97 1747.96 1849.54 1726.54"/><polygon class="cls-1" points="1849.54 1727.52 1859.79 1748.29 1882.71 1751.62 1866.13 1767.79 1870.04 1790.62 1849.54 1779.84 1829.03 1790.62 1832.95 1767.79 1816.36 1751.62 1839.29 1748.29 1849.54 1727.52"/><polygon class="cls-1" points="1849.54 1728.46 1859.48 1748.61 1881.72 1751.84 1865.63 1767.53 1869.42 1789.67 1849.54 1779.22 1829.65 1789.67 1833.45 1767.53 1817.36 1751.84 1839.59 1748.61 1849.54 1728.46"/><polygon class="cls-1" points="1849.54 1729.38 1859.18 1748.93 1880.75 1752.06 1865.14 1767.27 1868.83 1788.76 1849.54 1778.61 1830.25 1788.76 1833.93 1767.27 1818.32 1752.06 1839.89 1748.93 1849.54 1729.38"/><polygon class="cls-1" points="1849.54 1730.27 1858.89 1749.23 1879.82 1752.27 1864.68 1767.03 1868.25 1787.86 1849.54 1778.03 1830.83 1787.86 1834.4 1767.03 1819.26 1752.27 1840.18 1749.23 1849.54 1730.27"/><polygon class="cls-1" points="1849.54 1731.14 1858.61 1749.53 1878.91 1752.47 1864.22 1766.79 1867.69 1787 1849.54 1777.46 1831.39 1787 1834.85 1766.79 1820.17 1752.47 1840.46 1749.53 1849.54 1731.14"/><polygon class="cls-1" points="1849.54 1731.97 1858.34 1749.81 1878.03 1752.67 1863.78 1766.56 1867.14 1786.16 1849.54 1776.91 1831.93 1786.16 1835.29 1766.56 1821.05 1752.67 1840.73 1749.81 1849.54 1731.97"/><polygon class="cls-1" points="1849.54 1732.79 1858.08 1750.09 1877.17 1752.87 1863.35 1766.33 1866.62 1785.35 1849.54 1776.37 1832.46 1785.35 1835.72 1766.33 1821.9 1752.86 1841 1750.09 1849.54 1732.79"/><polygon class="cls-1" points="1849.54 1733.58 1857.82 1750.36 1876.34 1753.05 1862.94 1766.12 1866.1 1784.56 1849.54 1775.85 1832.97 1784.56 1836.13 1766.12 1822.73 1753.05 1841.25 1750.36 1849.54 1733.58"/><polygon class="cls-1" points="1849.54 1734.34 1857.57 1750.62 1875.54 1753.23 1862.54 1765.9 1865.61 1783.8 1849.54 1775.35 1833.47 1783.8 1836.54 1765.9 1823.54 1753.23 1841.5 1750.62 1849.54 1734.34"/><polygon class="cls-1" points="1849.54 1735.08 1857.33 1750.87 1874.76 1753.41 1862.15 1765.7 1865.12 1783.06 1849.54 1774.86 1833.95 1783.06 1836.93 1765.7 1824.32 1753.41 1841.74 1750.87 1849.54 1735.08"/><polygon class="cls-1" points="1849.54 1735.8 1857.1 1751.12 1874 1753.58 1861.77 1765.5 1864.66 1782.34 1849.54 1774.39 1834.42 1782.34 1837.31 1765.5 1825.07 1753.58 1841.98 1751.12 1849.54 1735.8"/><polygon class="cls-1" points="1849.54 1736.5 1856.87 1751.36 1873.27 1753.74 1861.4 1765.31 1864.2 1781.64 1849.54 1773.93 1834.87 1781.64 1837.67 1765.31 1825.81 1753.74 1842.2 1751.36 1849.54 1736.5"/><polygon class="cls-1" points="1849.54 1737.18 1856.65 1751.59 1872.56 1753.9 1861.05 1765.12 1863.76 1780.96 1849.54 1773.48 1835.31 1780.96 1838.03 1765.12 1826.52 1753.9 1842.42 1751.59 1849.54 1737.18"/><polygon class="cls-1" points="1849.54 1737.83 1856.44 1751.81 1871.87 1754.06 1860.7 1764.94 1863.34 1780.3 1849.54 1773.05 1835.74 1780.3 1838.37 1764.94 1827.21 1754.06 1842.64 1751.81 1849.54 1737.83"/><polygon class="cls-1" points="1849.54 1738.47 1856.23 1752.03 1871.19 1754.21 1860.37 1764.76 1862.92 1779.67 1849.54 1772.63 1836.15 1779.67 1838.71 1764.76 1827.88 1754.21 1842.85 1752.03 1849.54 1738.47"/><polygon class="cls-1" points="1849.54 1739.09 1856.03 1752.24 1870.55 1754.35 1860.04 1764.59 1862.52 1779.05 1849.54 1772.22 1836.55 1779.05 1839.03 1764.59 1828.53 1754.35 1843.05 1752.24 1849.54 1739.09"/><polygon class="cls-1" points="1849.54 1739.69 1855.83 1752.45 1869.91 1754.49 1859.73 1764.42 1862.13 1778.45 1849.54 1771.83 1836.94 1778.45 1839.35 1764.42 1829.16 1754.49 1843.24 1752.45 1849.54 1739.69"/><polygon class="cls-1" points="1849.54 1740.27 1855.64 1752.65 1869.3 1754.63 1859.42 1764.27 1861.75 1777.87 1849.54 1771.44 1837.32 1777.87 1839.65 1764.26 1829.77 1754.63 1843.43 1752.65 1849.54 1740.27"/><polygon class="cls-1" points="1849.54 1740.83 1855.46 1752.84 1868.71 1754.76 1859.12 1764.11 1861.39 1777.3 1849.54 1771.07 1837.69 1777.3 1839.95 1764.11 1830.36 1754.76 1843.61 1752.84 1849.54 1740.83"/><polygon class="cls-1" points="1849.54 1741.38 1855.28 1753.03 1868.13 1754.89 1858.84 1763.96 1861.03 1776.76 1849.54 1770.71 1838.04 1776.76 1840.24 1763.96 1830.94 1754.89 1843.79 1753.03 1849.54 1741.38"/><polygon class="cls-1" points="1849.54 1741.91 1855.11 1753.21 1867.58 1755.02 1858.56 1763.81 1860.69 1776.23 1849.54 1770.36 1838.39 1776.23 1840.52 1763.81 1831.5 1755.02 1843.96 1753.21 1849.54 1741.91"/><polygon class="cls-1" points="1849.54 1742.43 1854.94 1753.38 1867.04 1755.14 1858.29 1763.67 1860.35 1775.71 1849.54 1770.03 1838.72 1775.71 1840.79 1763.67 1832.04 1755.14 1844.13 1753.38 1849.54 1742.43"/><polygon class="cls-1" points="1849.54 1742.92 1854.78 1753.55 1866.51 1755.26 1858.02 1763.53 1860.03 1775.21 1849.54 1769.7 1839.05 1775.21 1841.05 1763.53 1832.56 1755.26 1844.29 1753.55 1849.54 1742.92"/><polygon class="cls-1" points="1849.54 1743.41 1854.63 1753.72 1866 1755.37 1857.77 1763.4 1859.71 1774.73 1849.54 1769.38 1839.36 1774.73 1841.31 1763.4 1833.07 1755.37 1844.45 1753.72 1849.54 1743.41"/><polygon class="cls-1" points="1849.54 1743.88 1854.47 1753.88 1865.51 1755.48 1857.52 1763.27 1859.41 1774.26 1849.54 1769.07 1839.67 1774.26 1841.55 1763.27 1833.57 1755.48 1844.6 1753.88 1849.54 1743.88"/><polygon class="cls-1" points="1849.54 1744.34 1854.32 1754.04 1865.03 1755.59 1857.28 1763.14 1859.11 1773.8 1849.54 1768.77 1839.96 1773.8 1841.79 1763.14 1834.05 1755.59 1844.75 1754.04 1849.54 1744.34"/><polygon class="cls-1" points="1849.54 1744.78 1854.18 1754.19 1864.56 1755.69 1857.05 1763.02 1858.82 1773.36 1849.54 1768.48 1840.25 1773.36 1842.02 1763.02 1834.51 1755.69 1844.89 1754.19 1849.54 1744.78"/><polygon class="cls-1" points="1849.54 1745.49 1853.95 1754.43 1863.81 1755.86 1856.67 1762.82 1858.36 1772.65 1849.54 1768.01 1840.71 1772.65 1842.4 1762.82 1835.26 1755.86 1845.13 1754.43 1849.54 1745.49"/><polygon class="cls-1" points="1849.54 1746.17 1853.73 1754.66 1863.1 1756.02 1856.32 1762.63 1857.92 1771.97 1849.54 1767.56 1841.16 1771.97 1842.76 1762.63 1835.97 1756.02 1845.35 1754.66 1849.54 1746.17"/><polygon class="cls-1" points="1849.54 1746.82 1853.52 1754.88 1862.42 1756.18 1855.98 1762.45 1857.5 1771.32 1849.54 1767.14 1841.58 1771.32 1843.1 1762.45 1836.65 1756.18 1845.56 1754.88 1849.54 1746.82"/><polygon class="cls-1" points="1849.54 1747.43 1853.32 1755.09 1861.78 1756.32 1855.66 1762.29 1857.1 1770.71 1849.54 1766.73 1841.97 1770.71 1843.42 1762.29 1837.3 1756.32 1845.76 1755.09 1849.54 1747.43"/><polygon class="cls-1" points="1849.54 1748.01 1853.13 1755.29 1861.16 1756.46 1855.35 1762.13 1856.72 1770.13 1849.54 1766.35 1842.35 1770.13 1843.72 1762.13 1837.91 1756.46 1845.94 1755.29 1849.54 1748.01"/><polygon class="cls-1" points="1849.54 1748.56 1852.95 1755.48 1860.58 1756.59 1855.06 1761.97 1856.36 1769.57 1849.54 1765.98 1842.71 1769.57 1844.01 1761.97 1838.49 1756.59 1846.12 1755.48 1849.54 1748.56"/><polygon class="cls-1" points="1849.54 1749.09 1852.78 1755.66 1860.03 1756.71 1854.78 1761.83 1856.02 1769.05 1849.54 1765.64 1843.05 1769.05 1844.29 1761.83 1839.04 1756.71 1846.29 1755.66 1849.54 1749.09"/><polygon class="cls-1" points="1849.54 1749.59 1852.62 1755.83 1859.51 1756.83 1854.52 1761.69 1855.7 1768.55 1849.54 1765.31 1843.38 1768.55 1844.55 1761.69 1839.57 1756.83 1846.46 1755.83 1849.54 1749.59"/><polygon class="cls-1" points="1849.54 1750.06 1852.46 1755.99 1859.01 1756.94 1854.27 1761.56 1855.39 1768.08 1849.54 1765 1843.68 1768.08 1844.8 1761.56 1840.07 1756.94 1846.61 1755.99 1849.54 1750.06"/><polygon class="cls-1" points="1849.54 1750.51 1852.32 1756.14 1858.53 1757.05 1854.04 1761.43 1855.1 1767.63 1849.54 1764.7 1843.98 1767.63 1845.04 1761.43 1840.54 1757.05 1846.76 1756.14 1849.54 1750.51"/><polygon class="cls-1" points="1849.54 1750.94 1852.18 1756.29 1858.09 1757.15 1853.81 1761.32 1854.82 1767.2 1849.54 1764.42 1844.26 1767.2 1845.26 1761.32 1840.99 1757.15 1846.9 1756.29 1849.54 1750.94"/><polygon class="cls-1" points="1849.54 1751.35 1852.05 1756.43 1857.66 1757.25 1853.6 1761.2 1854.56 1766.79 1849.54 1764.15 1844.52 1766.79 1845.48 1761.2 1841.42 1757.25 1847.03 1756.43 1849.54 1751.35"/><polygon class="cls-1" points="1849.54 1751.73 1851.92 1756.56 1857.25 1757.34 1853.39 1761.1 1854.31 1766.4 1849.54 1763.9 1844.77 1766.4 1845.68 1761.1 1841.82 1757.34 1847.15 1756.56 1849.54 1751.73"/><polygon class="cls-1" points="1849.54 1752.1 1851.8 1756.69 1856.87 1757.42 1853.2 1760.99 1854.07 1766.04 1849.54 1763.66 1845.01 1766.04 1845.87 1760.99 1842.21 1757.42 1847.27 1756.69 1849.54 1752.1"/><polygon class="cls-1" points="1849.54 1752.45 1851.69 1756.81 1856.5 1757.51 1853.02 1760.9 1853.84 1765.69 1849.54 1763.43 1845.23 1765.69 1846.06 1760.9 1842.58 1757.51 1847.39 1756.81 1849.54 1752.45"/><polygon class="cls-1" points="1849.54 1752.78 1851.58 1756.92 1856.15 1757.58 1852.84 1760.81 1853.63 1765.36 1849.54 1763.21 1845.45 1765.36 1846.23 1760.81 1842.92 1757.58 1847.49 1756.92 1849.54 1752.78"/><polygon class="cls-1" points="1849.54 1753.09 1851.48 1757.03 1855.82 1757.66 1852.68 1760.72 1853.42 1765.04 1849.54 1763 1845.65 1765.04 1846.4 1760.72 1843.25 1757.66 1847.6 1757.03 1849.54 1753.09"/><polygon class="cls-1" points="1849.54 1753.39 1851.38 1757.13 1855.51 1757.73 1852.52 1760.64 1853.23 1764.74 1849.54 1762.81 1845.85 1764.74 1846.55 1760.64 1843.57 1757.73 1847.69 1757.13 1849.54 1753.39"/><polygon class="cls-1" points="1849.54 1753.68 1851.29 1757.23 1855.21 1757.8 1852.37 1760.56 1853.04 1764.46 1849.54 1762.62 1846.03 1764.46 1846.7 1760.56 1843.87 1757.8 1847.79 1757.23 1849.54 1753.68"/><polygon class="cls-1" points="1849.54 1753.94 1851.2 1757.32 1854.92 1757.86 1852.23 1760.48 1852.87 1764.19 1849.54 1762.44 1846.21 1764.19 1846.84 1760.48 1844.15 1757.86 1847.87 1757.32 1849.54 1753.94"/><polygon class="cls-1" points="1849.54 1754.2 1851.12 1757.41 1854.65 1757.92 1852.1 1760.41 1852.7 1763.94 1849.54 1762.27 1846.37 1763.94 1846.98 1760.41 1844.42 1757.92 1847.96 1757.41 1849.54 1754.2"/><polygon class="cls-1" points="1849.54 1754.44 1851.04 1757.49 1854.4 1757.98 1851.97 1760.35 1852.54 1763.69 1849.54 1762.11 1846.53 1763.69 1847.11 1760.35 1844.68 1757.98 1848.04 1757.49 1849.54 1754.44"/><polygon class="cls-1" points="1849.54 1754.68 1850.96 1757.57 1854.16 1758.03 1851.85 1760.28 1852.39 1763.46 1849.54 1761.96 1846.68 1763.46 1847.23 1760.28 1844.92 1758.03 1848.11 1757.57 1849.54 1754.68"/><polygon class="cls-1" points="1849.54 1754.9 1850.89 1757.64 1853.92 1758.08 1851.73 1760.22 1852.25 1763.24 1849.54 1761.82 1846.83 1763.24 1847.34 1760.22 1845.15 1758.08 1848.18 1757.64 1849.54 1754.9"/><polygon class="cls-1" points="1849.54 1755.1 1850.83 1757.71 1853.71 1758.13 1851.62 1760.16 1852.11 1763.03 1849.54 1761.68 1846.96 1763.03 1847.45 1760.16 1845.37 1758.13 1848.25 1757.71 1849.54 1755.1"/><polygon class="cls-1" points="1849.54 1755.3 1850.76 1757.78 1853.5 1758.18 1851.52 1760.11 1851.98 1762.84 1849.54 1761.55 1847.09 1762.84 1847.56 1760.11 1845.58 1758.18 1848.31 1757.78 1849.54 1755.3"/><polygon class="cls-1" points="1849.54 1755.49 1850.7 1757.85 1853.3 1758.22 1851.42 1760.06 1851.86 1762.65 1849.54 1761.42 1847.21 1762.65 1847.66 1760.06 1845.78 1758.22 1848.38 1757.85 1849.54 1755.49"/><polygon class="cls-1" points="1849.54 1755.67 1850.64 1757.91 1853.11 1758.27 1851.32 1760.01 1851.75 1762.47 1849.54 1761.31 1847.33 1762.47 1847.75 1760.01 1845.96 1758.27 1848.43 1757.91 1849.54 1755.67"/><polygon class="cls-1" points="1849.54 1755.84 1850.59 1757.96 1852.93 1758.31 1851.23 1759.96 1851.64 1762.3 1849.54 1761.19 1847.44 1762.3 1847.84 1759.96 1846.14 1758.31 1848.49 1757.96 1849.54 1755.84"/><polygon class="cls-1" points="1849.54 1756 1850.53 1758.02 1852.76 1758.34 1851.15 1759.92 1851.53 1762.14 1849.54 1761.09 1847.54 1762.14 1847.92 1759.92 1846.31 1758.34 1848.54 1758.02 1849.54 1756"/><polygon class="cls-1" points="1849.54 1756.15 1850.48 1758.07 1852.6 1758.38 1851.07 1759.87 1851.43 1761.98 1849.54 1760.99 1847.64 1761.98 1848.01 1759.87 1846.47 1758.38 1848.59 1758.07 1849.54 1756.15"/><polygon class="cls-1" points="1849.54 1756.3 1850.44 1758.12 1852.45 1758.41 1850.99 1759.83 1851.34 1761.84 1849.54 1760.89 1847.74 1761.84 1848.08 1759.83 1846.63 1758.41 1848.64 1758.12 1849.54 1756.3"/><polygon class="cls-1" points="1849.54 1756.44 1850.39 1758.17 1852.3 1758.45 1850.92 1759.8 1851.25 1761.7 1849.54 1760.8 1847.83 1761.7 1848.15 1759.8 1846.77 1758.45 1848.68 1758.17 1849.54 1756.44"/><polygon class="cls-1" points="1849.54 1756.57 1850.35 1758.21 1852.16 1758.48 1850.85 1759.76 1851.16 1761.57 1849.54 1760.71 1847.91 1761.57 1848.22 1759.76 1846.91 1758.48 1848.72 1758.21 1849.54 1756.57"/><polygon class="cls-1" points="1849.54 1756.69 1850.31 1758.26 1852.03 1758.51 1850.79 1759.72 1851.08 1761.44 1849.54 1760.63 1847.99 1761.44 1848.29 1759.72 1847.04 1758.51 1848.77 1758.26 1849.54 1756.69"/><polygon class="cls-1" points="1849.54 1756.81 1850.27 1758.3 1851.91 1758.54 1850.72 1759.69 1851 1761.32 1849.54 1760.55 1848.07 1761.32 1848.35 1759.69 1847.17 1758.54 1848.81 1758.3 1849.54 1756.81"/><polygon class="cls-1" points="1849.54 1756.93 1850.23 1758.34 1851.79 1758.56 1850.66 1759.66 1850.93 1761.21 1849.54 1760.48 1848.14 1761.21 1848.41 1759.66 1847.29 1758.56 1848.84 1758.34 1849.54 1756.93"/><polygon class="cls-1" points="1849.54 1757.03 1850.2 1758.37 1851.68 1758.59 1850.61 1759.63 1850.86 1761.1 1849.54 1760.41 1848.21 1761.1 1848.47 1759.63 1847.4 1758.59 1848.88 1758.37 1849.54 1757.03"/><polygon class="cls-1" points="1849.54 1757.13 1850.16 1758.41 1851.57 1758.61 1850.55 1759.6 1850.79 1761 1849.54 1760.34 1848.28 1761 1848.52 1759.6 1847.5 1758.61 1848.91 1758.41 1849.54 1757.13"/><polygon class="cls-1" points="1849.54 1757.23 1850.13 1758.44 1851.47 1758.63 1850.5 1759.58 1850.73 1760.9 1849.54 1760.28 1848.34 1760.9 1848.57 1759.58 1847.61 1758.63 1848.94 1758.44 1849.54 1757.23"/><polygon class="cls-1" points="1849.54 1757.32 1850.1 1758.47 1851.37 1758.66 1850.45 1759.55 1850.67 1760.81 1849.54 1760.22 1848.4 1760.81 1848.62 1759.55 1847.7 1758.66 1848.97 1758.47 1849.54 1757.32"/><polygon class="cls-1" points="1849.54 1757.41 1850.08 1758.5 1851.28 1758.68 1850.41 1759.53 1850.61 1760.73 1849.54 1760.16 1848.46 1760.73 1848.67 1759.53 1847.79 1758.68 1849 1758.5 1849.54 1757.41"/><polygon class="cls-1" points="1849.54 1757.49 1850.05 1758.53 1851.19 1758.7 1850.37 1759.5 1850.56 1760.64 1849.54 1760.11 1848.51 1760.64 1848.71 1759.5 1847.88 1758.7 1849.03 1758.53 1849.54 1757.49"/><polygon class="cls-1" points="1849.54 1757.57 1850.02 1758.56 1851.11 1758.71 1850.32 1759.48 1850.51 1760.57 1849.54 1760.05 1848.57 1760.57 1848.75 1759.48 1847.96 1758.71 1849.05 1758.56 1849.54 1757.57"/><polygon class="cls-1" points="1849.54 1757.65 1850 1758.58 1851.03 1758.73 1850.28 1759.46 1850.46 1760.49 1849.54 1760 1848.61 1760.49 1848.79 1759.46 1848.04 1758.73 1849.08 1758.58 1849.54 1757.65"/><polygon class="cls-1" points="1849.54 1757.72 1849.98 1758.61 1850.96 1758.75 1850.25 1759.44 1850.41 1760.42 1849.54 1759.96 1848.66 1760.42 1848.83 1759.44 1848.12 1758.75 1849.1 1758.61 1849.54 1757.72"/><polygon class="cls-1" points="1849.54 1757.79 1849.95 1758.63 1850.89 1758.77 1850.21 1759.42 1850.37 1760.35 1849.54 1759.91 1848.7 1760.35 1848.86 1759.42 1848.19 1758.77 1849.12 1758.63 1849.54 1757.79"/><polygon class="cls-1" points="1849.54 1757.85 1849.93 1758.65 1850.82 1758.78 1850.18 1759.4 1850.33 1760.29 1849.54 1759.87 1848.74 1760.29 1848.9 1759.4 1848.26 1758.78 1849.14 1758.65 1849.54 1757.85"/><polygon class="cls-1" points="1849.54 1757.91 1849.91 1758.67 1850.75 1758.8 1850.15 1759.39 1850.29 1760.23 1849.54 1759.83 1848.79 1760.23 1848.93 1759.39 1848.32 1758.8 1849.16 1758.67 1849.54 1757.91"/><polygon class="cls-1" points="1849.54 1757.97 1849.89 1758.69 1850.69 1758.81 1850.12 1759.37 1850.25 1760.17 1849.54 1759.79 1848.82 1760.17 1848.96 1759.37 1848.38 1758.81 1849.18 1758.69 1849.54 1757.97"/><polygon class="cls-1" points="1849.54 1758.02 1849.88 1758.71 1850.64 1758.82 1850.09 1759.36 1850.22 1760.11 1849.54 1759.76 1848.86 1760.11 1848.99 1759.36 1848.44 1758.82 1849.2 1758.71 1849.54 1758.02"/><polygon class="cls-1" points="1849.54 1758.08 1849.86 1758.73 1850.58 1758.83 1850.06 1759.34 1850.18 1760.06 1849.54 1759.72 1848.89 1760.06 1849.02 1759.34 1848.49 1758.83 1849.21 1758.73 1849.54 1758.08"/><polygon class="cls-1" points="1849.54 1758.13 1849.84 1758.75 1850.53 1758.85 1850.03 1759.33 1850.15 1760.01 1849.54 1759.69 1848.92 1760.01 1849.04 1759.33 1848.55 1758.85 1849.23 1758.75 1849.54 1758.13"/><polygon class="cls-1" points="1849.54 1758.17 1849.83 1758.76 1850.48 1758.86 1850.01 1759.32 1850.12 1759.96 1849.54 1759.66 1848.95 1759.96 1849.07 1759.32 1848.6 1758.86 1849.25 1758.76 1849.54 1758.17"/><polygon class="cls-1" points="1849.54 1758.22 1849.81 1758.78 1850.43 1758.87 1849.98 1759.3 1850.09 1759.92 1849.54 1759.63 1848.98 1759.92 1849.09 1759.3 1848.64 1758.87 1849.26 1758.78 1849.54 1758.22"/><polygon class="cls-1" points="1849.54 1758.26 1849.8 1758.79 1850.39 1758.88 1849.96 1759.29 1850.06 1759.88 1849.54 1759.6 1849.01 1759.88 1849.11 1759.29 1848.69 1758.88 1849.28 1758.79 1849.54 1758.26"/><polygon class="cls-1" points="1849.54 1758.3 1849.79 1758.81 1850.35 1758.89 1849.94 1759.28 1850.04 1759.84 1849.54 1759.57 1849.04 1759.84 1849.13 1759.28 1848.73 1758.89 1849.29 1758.81 1849.54 1758.3"/><polygon class="cls-1" points="1849.54 1758.34 1849.77 1758.82 1850.3 1758.9 1849.92 1759.27 1850.01 1759.8 1849.54 1759.55 1849.06 1759.8 1849.15 1759.27 1848.77 1758.9 1849.3 1758.82 1849.54 1758.34"/><polygon class="cls-1" points="1849.54 1758.38 1849.76 1758.83 1850.27 1758.9 1849.9 1759.26 1849.99 1759.76 1849.54 1759.53 1849.09 1759.76 1849.17 1759.26 1848.81 1758.9 1849.31 1758.83 1849.54 1758.38"/><polygon class="cls-1" points="1849.54 1758.41 1849.75 1758.84 1850.23 1758.91 1849.88 1759.25 1849.96 1759.73 1849.54 1759.5 1849.11 1759.73 1849.19 1759.25 1848.85 1758.91 1849.32 1758.84 1849.54 1758.41"/><polygon class="cls-1" points="1849.54 1758.44 1849.74 1758.86 1850.19 1758.92 1849.87 1759.24 1849.94 1759.69 1849.54 1759.48 1849.13 1759.69 1849.21 1759.24 1848.88 1758.92 1849.33 1758.86 1849.54 1758.44"/><polygon class="cls-1" points="1849.54 1758.47 1849.73 1758.87 1850.16 1758.93 1849.85 1759.23 1849.92 1759.66 1849.54 1759.46 1849.15 1759.66 1849.22 1759.23 1848.91 1758.93 1849.34 1758.87 1849.54 1758.47"/><polygon class="cls-1" points="1849.54 1758.5 1849.72 1758.88 1850.13 1758.93 1849.83 1759.22 1849.9 1759.63 1849.54 1759.44 1849.17 1759.63 1849.24 1759.22 1848.94 1758.93 1849.35 1758.88 1849.54 1758.5"/><polygon class="cls-1" points="1849.54 1758.53 1849.71 1758.88 1850.1 1758.94 1849.82 1759.22 1849.89 1759.61 1849.54 1759.42 1849.19 1759.61 1849.26 1759.22 1848.97 1758.94 1849.36 1758.88 1849.54 1758.53"/></svg>