<svg id="_7" data-name="7" xmlns="http://www.w3.org/2000/svg" viewBox="0 0 2205.33 2684.61"><defs><style>.cls-1,.cls-2{fill:none;stroke-miterlimit:10;}.cls-1{stroke:aqua;}.cls-2{stroke:#fff;}</style></defs><line class="cls-1" x1="444.96" y1="16.3" x2="444.96" y2="2684.61"/><line class="cls-1" x1="454.52" y1="16.3" x2="454.52" y2="2684.61"/><line class="cls-1" x1="464.09" y1="16.3" x2="464.09" y2="2684.61"/><line class="cls-1" x1="473.65" y1="16.3" x2="473.65" y2="2684.61"/><line class="cls-1" x1="483.21" y1="16.3" x2="483.21" y2="2684.61"/><line class="cls-1" x1="492.78" y1="16.3" x2="492.78" y2="2684.61"/><line class="cls-1" x1="502.34" y1="16.3" x2="502.34" y2="2684.61"/><line class="cls-1" x1="511.9" y1="16.3" x2="511.9" y2="2684.61"/><line class="cls-1" x1="521.47" y1="16.3" x2="521.47" y2="2684.61"/><line class="cls-1" x1="531.03" y1="16.3" x2="531.03" y2="2684.61"/><line class="cls-1" x1="540.6" y1="16.3" x2="540.6" y2="2684.61"/><line class="cls-1" x1="550.16" y1="16.3" x2="550.16" y2="2684.61"/><line class="cls-1" x1="559.72" y1="16.3" x2="559.72" y2="2684.61"/><line class="cls-1" x1="569.29" y1="16.3" x2="569.29" y2="2684.61"/><line class="cls-1" x1="578.85" y1="16.3" x2="578.85" y2="2684.61"/><line class="cls-1" x1="588.42" y1="16.3" x2="588.42" y2="2684.61"/><line class="cls-1" x1="597.98" y1="16.3" x2="597.98" y2="2684.61"/><line class="cls-1" x1="607.54" y1="16.3" x2="607.54" y2="2684.61"/><line class="cls-1" x1="617.11" y1="16.3" x2="617.11" y2="2684.61"/><line class="cls-1" x1="626.67" y1="16.3" x2="626.67" y2="2684.61"/><line class="cls-1" x1="636.23" y1="16.3" x2="636.23" y2="2684.61"/><line class="cls-1" x1="645.8" y1="16.3" x2="645.8" y2="2684.61"/><line class="cls-1" x1="655.36" y1="16.3" x2="655.36" y2="2684.61"/><line class="cls-1" x1="664.93" y1="16.3" x2="664.93" y2="2684.61"/><line class="cls-1" x1="674.49" y1="16.3" x2="674.49" y2="2684.61"/><line class="cls-1" x1="684.05" y1="16.3" x2="684.05" y2="2684.61"/><line class="cls-1" x1="693.62" y1="16.3" x2="693.62" y2="2684.61"/><line class="cls-1" x1="703.18" y1="16.3" x2="703.18" y2="2684.61"/><line class="cls-1" x1="712.75" y1="16.3" x2="712.75" y2="2684.61"/><line class="cls-1" x1="722.31" y1="16.3" x2="722.31" y2="2684.61"/><line class="cls-1" x1="731.87" y1="16.3" x2="731.87" y2="2684.61"/><line class="cls-1" x1="741.44" y1="16.3" x2="741.44" y2="2684.61"/><line class="cls-1" x1="751" y1="16.3" x2="751" y2="2684.61"/><line class="cls-1" x1="760.56" y1="16.3" x2="760.56" y2="2684.61"/><line class="cls-1" x1="770.13" y1="16.3" x2="770.13" y2="2684.61"/><line class="cls-1" x1="779.69" y1="16.3" x2="779.69" y2="2684.61"/><line class="cls-1" x1="789.26" y1="16.3" x2="789.26" y2="2684.61"/><line class="cls-1" x1="798.82" y1="16.3" x2="798.82" y2="2684.61"/><line class="cls-1" x1="808.38" y1="16.3" x2="808.38" y2="2684.61"/><line class="cls-1" x1="817.95" y1="16.3" x2="817.95" y2="2684.61"/><line class="cls-1" x1="827.51" y1="16.3" x2="827.51" y2="2684.61"/><line class="cls-1" x1="837.07" y1="16.3" x2="837.07" y2="2684.61"/><line class="cls-1" x1="846.64" y1="16.3" x2="846.64" y2="2684.61"/><line class="cls-1" x1="856.2" y1="16.3" x2="856.2" y2="2684.61"/><line class="cls-1" x1="865.77" y1="16.3" x2="865.77" y2="2684.61"/><line class="cls-1" x1="875.33" y1="16.3" x2="875.33" y2="2684.61"/><line class="cls-1" x1="884.89" y1="16.3" x2="884.89" y2="2684.61"/><line class="cls-1" x1="894.46" y1="16.3" x2="894.46" y2="2684.61"/><line class="cls-2" x1="1887.13" y1="0.35" x2="0.35" y2="1887.13"/><line class="cls-2" x1="1893.9" y1="7.12" x2="7.12" y2="1893.9"/><line class="cls-2" x1="1900.66" y1="13.88" x2="13.88" y2="1900.66"/><line class="cls-2" x1="1907.42" y1="20.64" x2="20.64" y2="1907.42"/><line class="cls-2" x1="1914.18" y1="27.4" x2="27.4" y2="1914.18"/><line class="cls-2" x1="1920.95" y1="34.17" x2="34.17" y2="1920.95"/><line class="cls-2" x1="1927.71" y1="40.93" x2="40.93" y2="1927.71"/><line class="cls-2" x1="1934.47" y1="47.69" x2="47.69" y2="1934.47"/><line class="cls-2" x1="1941.23" y1="54.45" x2="54.45" y2="1941.23"/><line class="cls-2" x1="1948" y1="61.22" x2="61.22" y2="1948"/><line class="cls-2" x1="1954.76" y1="67.98" x2="67.98" y2="1954.76"/><line class="cls-2" x1="1961.52" y1="74.74" x2="74.74" y2="1961.52"/><line class="cls-2" x1="1968.28" y1="81.51" x2="81.51" y2="1968.28"/><line class="cls-2" x1="1975.05" y1="88.27" x2="88.27" y2="1975.05"/><line class="cls-2" x1="1981.81" y1="95.03" x2="95.03" y2="1981.81"/><line class="cls-2" x1="1988.57" y1="101.79" x2="101.79" y2="1988.57"/><line class="cls-2" x1="1995.33" y1="108.56" x2="108.56" y2="1995.33"/><line class="cls-2" x1="2002.1" y1="115.32" x2="115.32" y2="2002.1"/><line class="cls-2" x1="2008.86" y1="122.08" x2="122.08" y2="2008.86"/><line class="cls-2" x1="2015.62" y1="128.84" x2="128.84" y2="2015.62"/><line class="cls-2" x1="2022.39" y1="135.61" x2="135.61" y2="2022.39"/><line class="cls-2" x1="2029.15" y1="142.37" x2="142.37" y2="2029.15"/><line class="cls-2" x1="2035.91" y1="149.13" x2="149.13" y2="2035.91"/><line class="cls-2" x1="2042.67" y1="155.89" x2="155.89" y2="2042.67"/><line class="cls-2" x1="2049.44" y1="162.66" x2="162.66" y2="2049.44"/><line class="cls-2" x1="2056.2" y1="169.42" x2="169.42" y2="2056.2"/><line class="cls-2" x1="2062.96" y1="176.18" x2="176.18" y2="2062.96"/><line class="cls-2" x1="2069.72" y1="182.95" x2="182.95" y2="2069.72"/><line class="cls-2" x1="2076.49" y1="189.71" x2="189.71" y2="2076.49"/><line class="cls-2" x1="2083.25" y1="196.47" x2="196.47" y2="2083.25"/><line class="cls-2" x1="2090.01" y1="203.23" x2="203.23" y2="2090.01"/><line class="cls-2" x1="2096.77" y1="210" x2="210" y2="2096.77"/><line class="cls-2" x1="2103.54" y1="216.76" x2="216.76" y2="2103.54"/><line class="cls-2" x1="2110.3" y1="223.52" x2="223.52" y2="2110.3"/><line class="cls-2" x1="2117.06" y1="230.28" x2="230.28" y2="2117.06"/><line class="cls-2" x1="2123.83" y1="237.05" x2="237.05" y2="2123.83"/><line class="cls-2" x1="2130.59" y1="243.81" x2="243.81" y2="2130.59"/><line class="cls-2" x1="2137.35" y1="250.57" x2="250.57" y2="2137.35"/><line class="cls-2" x1="2144.11" y1="257.33" x2="257.33" y2="2144.11"/><line class="cls-2" x1="2150.88" y1="264.1" x2="264.1" y2="2150.88"/><line class="cls-2" x1="2157.64" y1="270.86" x2="270.86" y2="2157.64"/><line class="cls-2" x1="2164.4" y1="277.62" x2="277.62" y2="2164.4"/><line class="cls-2" x1="2171.16" y1="284.38" x2="284.38" y2="2171.16"/><line class="cls-2" x1="2177.93" y1="291.15" x2="291.15" y2="2177.93"/><line class="cls-2" x1="2184.69" y1="297.91" x2="297.91" y2="2184.69"/><line class="cls-2" x1="2191.45" y1="304.67" x2="304.67" y2="2191.45"/><line class="cls-2" x1="2198.21" y1="311.44" x2="311.44" y2="2198.21"/><line class="cls-2" x1="2204.98" y1="318.2" x2="318.2" y2="2204.98"/></svg>