<svg id="Layer_3" data-name="Layer 3" xmlns="http://www.w3.org/2000/svg" viewBox="0 0 796.74 690"><defs><style>.cls-1,.cls-2{fill:none;stroke:aqua;stroke-miterlimit:10;}.cls-2{stroke-width:0.75px;}</style></defs><polygon class="cls-1" points="597.27 0.5 199.47 0.5 0.58 345 199.47 689.5 597.27 689.5 796.17 345 597.27 0.5"/><polygon class="cls-1" points="587.32 17.73 209.42 17.73 20.47 345 209.42 672.27 587.32 672.27 776.28 345 587.32 17.73"/><polygon class="cls-1" points="577.88 34.09 218.87 34.09 39.36 345 218.87 655.91 577.88 655.91 757.38 345 577.88 34.09"/><polygon class="cls-1" points="568.9 49.63 227.84 49.63 57.31 345 227.84 640.37 568.9 640.37 739.43 345 568.9 49.63"/><polygon class="cls-1" points="560.38 64.4 236.37 64.4 74.37 345 236.37 625.6 560.38 625.6 722.38 345 560.38 64.4"/><polygon class="cls-1" points="552.27 78.43 244.47 78.43 90.57 345 244.47 611.57 552.27 611.57 706.18 345 552.27 78.43"/><polygon class="cls-1" points="544.58 91.76 252.16 91.76 105.96 345 252.16 598.24 544.58 598.24 690.79 345 544.58 91.76"/><polygon class="cls-1" points="537.27 104.42 259.47 104.42 120.58 345 259.47 585.58 537.27 585.58 676.17 345 537.27 104.42"/><polygon class="cls-1" points="530.32 116.45 266.42 116.45 134.47 345 266.42 573.55 530.32 573.55 662.28 345 530.32 116.45"/><polygon class="cls-1" points="523.73 127.88 273.02 127.88 147.66 345 273.02 562.12 523.73 562.12 649.08 345 523.73 127.88"/><polygon class="cls-1" points="517.46 138.74 279.29 138.74 160.2 345 279.29 551.26 517.46 551.26 636.55 345 517.46 138.74"/><polygon class="cls-1" points="511.5 149.05 285.24 149.05 172.11 345 285.24 540.95 511.5 540.95 624.64 345 511.5 149.05"/><polygon class="cls-1" points="505.85 158.85 290.9 158.85 183.42 345 290.9 531.15 505.85 531.15 613.32 345 505.85 158.85"/><polygon class="cls-1" points="500.47 168.15 296.27 168.15 194.17 345 296.27 521.85 500.47 521.85 602.58 345 500.47 168.15"/><polygon class="cls-1" points="495.37 177 301.38 177 204.38 345 301.38 513 495.37 513 592.37 345 495.37 177"/><polygon class="cls-1" points="490.52 185.4 306.22 185.4 214.08 345 306.22 504.6 490.52 504.6 582.67 345 490.52 185.4"/><polygon class="cls-1" points="485.91 193.38 310.83 193.38 223.29 345 310.83 496.62 485.91 496.62 573.45 345 485.91 193.38"/><polygon class="cls-1" points="481.54 200.96 315.21 200.96 232.05 345 315.21 489.04 481.54 489.04 564.7 345 481.54 200.96"/><polygon class="cls-1" points="477.38 208.16 319.37 208.16 240.36 345 319.37 481.84 477.38 481.84 556.38 345 477.38 208.16"/><polygon class="cls-1" points="473.43 215 323.32 215 248.26 345 323.32 475 473.43 475 548.48 345 473.43 215"/><polygon class="cls-2" points="473.43 215 323.32 215 248.26 345 323.32 475 473.43 475 548.48 345 473.43 215"/><polygon class="cls-2" points="471.93 217.6 324.82 217.6 251.26 345 324.82 472.4 471.93 472.4 545.48 345 471.93 217.6"/><polygon class="cls-2" points="470.45 220.15 326.29 220.15 254.21 345 326.29 469.85 470.45 469.85 542.54 345 470.45 220.15"/><polygon class="cls-2" points="469.01 222.65 327.73 222.65 257.09 345 327.73 467.35 469.01 467.35 539.65 345 469.01 222.65"/><polygon class="cls-2" points="467.6 225.09 329.14 225.09 259.92 345 329.14 464.91 467.6 464.91 536.83 345 467.6 225.09"/><polygon class="cls-2" points="466.21 227.49 330.53 227.49 262.69 345 330.53 462.51 466.21 462.51 534.06 345 466.21 227.49"/><polygon class="cls-2" points="464.86 229.84 331.88 229.84 265.4 345 331.88 460.16 464.86 460.16 531.35 345 464.86 229.84"/><polygon class="cls-2" points="463.53 232.15 333.21 232.15 268.06 345 333.21 457.86 463.53 457.86 528.68 345 463.53 232.15"/><polygon class="cls-2" points="462.23 234.4 334.52 234.4 270.66 345 334.52 455.6 462.23 455.6 526.08 345 462.23 234.4"/><polygon class="cls-2" points="460.95 236.61 335.8 236.61 273.22 345 335.8 453.39 460.95 453.39 523.52 345 460.95 236.61"/><polygon class="cls-2" points="459.7 238.78 337.05 238.78 275.72 345 337.05 451.22 459.7 451.22 521.02 345 459.7 238.78"/><polygon class="cls-2" points="458.47 240.91 338.27 240.91 278.18 345 338.27 449.09 458.47 449.09 518.57 345 458.47 240.91"/><polygon class="cls-2" points="457.27 242.99 339.48 242.99 280.58 345 339.48 447.01 457.27 447.01 516.16 345 457.27 242.99"/><polygon class="cls-2" points="456.09 245.03 340.65 245.03 282.93 345 340.65 444.97 456.09 444.97 513.81 345 456.09 245.03"/><polygon class="cls-2" points="454.94 247.03 341.81 247.03 285.24 345 341.81 442.97 454.94 442.97 511.5 345 454.94 247.03"/><polygon class="cls-2" points="453.81 248.99 342.94 248.99 287.51 345 342.94 441.01 453.81 441.01 509.24 345 453.81 248.99"/><polygon class="cls-2" points="452.7 250.91 344.05 250.91 289.72 345 344.05 439.09 452.7 439.09 507.02 345 452.7 250.91"/><polygon class="cls-2" points="451.61 252.79 345.13 252.79 291.9 345 345.13 437.21 451.61 437.21 504.85 345 451.61 252.79"/><polygon class="cls-2" points="450.55 254.63 346.2 254.63 294.03 345 346.2 435.37 450.55 435.37 502.72 345 450.55 254.63"/><polygon class="cls-2" points="449.5 256.44 347.24 256.44 296.11 345 347.24 433.56 449.5 433.56 500.63 345 449.5 256.44"/><polygon class="cls-2" points="448.48 258.21 348.26 258.21 298.16 345 348.26 431.79 448.48 431.79 498.59 345 448.48 258.21"/><polygon class="cls-2" points="447.48 259.95 349.27 259.95 300.16 345 349.27 430.05 447.48 430.05 496.58 345 447.48 259.95"/><polygon class="cls-2" points="446.49 261.65 350.25 261.65 302.13 345 350.25 428.35 446.49 428.35 494.62 345 446.49 261.65"/><polygon class="cls-2" points="445.53 263.32 351.21 263.32 304.05 345 351.21 426.68 445.53 426.68 492.69 345 445.53 263.32"/><polygon class="cls-2" points="444.59 264.95 352.15 264.95 305.94 345 352.15 425.05 444.59 425.05 490.81 345 444.59 264.95"/><polygon class="cls-2" points="443.66 266.55 353.08 266.55 307.79 345 353.08 423.45 443.66 423.45 488.96 345 443.66 266.55"/><polygon class="cls-2" points="442.76 268.12 353.99 268.12 309.6 345 353.99 421.88 442.76 421.88 487.15 345 442.76 268.12"/><polygon class="cls-2" points="441.87 269.66 354.87 269.66 311.37 345 354.87 420.34 441.87 420.34 485.37 345 441.87 269.66"/><polygon class="cls-2" points="441 271.16 355.74 271.16 313.11 345 355.74 418.84 441 418.84 483.63 345 441 271.16"/><polygon class="cls-2" points="440.15 272.64 356.6 272.64 314.82 345 356.6 417.36 440.15 417.36 481.93 345 440.15 272.64"/><polygon class="cls-2" points="439.31 274.09 357.43 274.09 316.49 345 357.43 415.91 439.31 415.91 480.25 345 439.31 274.09"/><polygon class="cls-2" points="438.49 275.51 358.25 275.51 318.13 345 358.25 414.49 438.49 414.49 478.62 345 438.49 275.51"/><polygon class="cls-2" points="437.69 276.9 359.05 276.9 319.73 345 359.05 413.1 437.69 413.1 477.01 345 437.69 276.9"/><polygon class="cls-2" points="436.9 278.26 359.84 278.26 321.31 345 359.84 411.74 436.9 411.74 475.44 345 436.9 278.26"/><polygon class="cls-2" points="436.13 279.59 360.61 279.59 322.85 345 360.61 410.41 436.13 410.41 473.9 345 436.13 279.59"/><polygon class="cls-2" points="435.38 280.9 361.36 280.9 324.36 345 361.36 409.1 435.38 409.1 472.39 345 435.38 280.9"/><polygon class="cls-2" points="434.64 282.18 362.1 282.18 325.84 345 362.1 407.82 434.64 407.82 470.91 345 434.64 282.18"/><polygon class="cls-2" points="433.91 283.44 362.83 283.44 327.29 345 362.83 406.56 433.91 406.56 469.46 345 433.91 283.44"/><polygon class="cls-2" points="433.2 284.67 363.54 284.67 328.71 345 363.54 405.33 433.2 405.33 468.03 345 433.2 284.67"/><polygon class="cls-2" points="432.51 285.88 364.24 285.88 330.1 345 364.24 404.12 432.51 404.12 466.64 345 432.51 285.88"/><polygon class="cls-2" points="431.82 287.06 364.92 287.06 331.47 345 364.92 402.94 431.82 402.94 465.27 345 431.82 287.06"/><polygon class="cls-2" points="431.15 288.22 365.59 288.22 332.81 345 365.59 401.78 431.15 401.78 463.94 345 431.15 288.22"/><polygon class="cls-2" points="430.5 289.35 366.25 289.35 334.12 345 366.25 400.65 430.5 400.65 462.63 345 430.5 289.35"/><polygon class="cls-2" points="429.86 290.47 366.89 290.47 335.4 345 366.89 399.53 429.86 399.53 461.34 345 429.86 290.47"/><polygon class="cls-2" points="429.23 291.56 367.52 291.56 336.66 345 367.52 398.44 429.23 398.44 460.08 345 429.23 291.56"/><polygon class="cls-2" points="428.61 292.63 368.13 292.63 337.9 345 368.13 397.37 428.61 397.37 458.85 345 428.61 292.63"/><polygon class="cls-2" points="428 293.67 368.74 293.67 339.11 345 368.74 396.33 428 396.33 457.64 345 428 293.67"/><polygon class="cls-2" points="427.41 294.7 369.33 294.7 340.29 345 369.33 395.3 427.41 395.3 456.45 345 427.41 294.7"/><polygon class="cls-2" points="426.83 295.71 369.91 295.71 341.45 345 369.91 394.29 426.83 394.29 455.29 345 426.83 295.71"/><polygon class="cls-2" points="426.26 296.69 370.48 296.69 342.59 345 370.48 393.31 426.26 393.31 454.15 345 426.26 296.69"/><polygon class="cls-2" points="425.7 297.66 371.04 297.66 343.71 345 371.04 392.34 425.7 392.34 453.04 345 425.7 297.66"/><polygon class="cls-2" points="425.16 298.61 371.59 298.61 344.8 345 371.59 391.39 425.16 391.39 451.94 345 425.16 298.61"/><polygon class="cls-2" points="424.62 299.53 372.12 299.53 345.87 345 372.12 390.47 424.62 390.47 450.87 345 424.62 299.53"/><polygon class="cls-2" points="424.1 300.44 372.65 300.44 346.92 345 372.65 389.56 424.1 389.56 449.82 345 424.1 300.44"/><polygon class="cls-2" points="423.58 301.33 373.16 301.33 347.95 345 373.16 388.67 423.58 388.67 448.79 345 423.58 301.33"/><polygon class="cls-2" points="423.08 302.21 373.67 302.21 348.96 345 373.67 387.79 423.08 387.79 447.79 345 423.08 302.21"/><polygon class="cls-2" points="422.58 303.06 374.16 303.06 349.95 345 374.16 386.94 422.58 386.94 446.8 345 422.58 303.06"/><polygon class="cls-2" points="422.1 303.9 374.64 303.9 350.92 345 374.64 386.1 422.1 386.1 445.83 345 422.1 303.9"/><polygon class="cls-2" points="421.63 304.72 375.12 304.72 351.87 345 375.12 385.28 421.63 385.28 444.88 345 421.63 304.72"/><polygon class="cls-2" points="421.16 305.53 375.58 305.53 352.8 345 375.58 384.47 421.16 384.47 443.95 345 421.16 305.53"/><polygon class="cls-2" points="420.7 306.32 376.04 306.32 353.71 345 376.04 383.68 420.7 383.68 443.04 345 420.7 306.32"/><polygon class="cls-2" points="420.26 307.09 376.49 307.09 354.6 345 376.49 382.91 420.26 382.91 442.14 345 420.26 307.09"/><polygon class="cls-2" points="419.82 307.85 376.92 307.85 355.48 345 376.92 382.15 419.82 382.15 441.27 345 419.82 307.85"/><polygon class="cls-2" points="419.39 308.59 377.35 308.59 356.33 345 377.35 381.41 419.39 381.41 440.41 345 419.39 308.59"/><polygon class="cls-2" points="418.97 309.32 377.77 309.32 357.17 345 377.77 380.68 418.97 380.68 439.57 345 418.97 309.32"/><polygon class="cls-2" points="418.56 310.04 378.19 310.04 358 345 378.19 379.96 418.56 379.96 438.75 345 418.56 310.04"/><polygon class="cls-2" points="418.15 310.73 378.59 310.73 358.81 345 378.59 379.27 418.15 379.27 437.94 345 418.15 310.73"/><polygon class="cls-2" points="417.76 311.42 378.98 311.42 359.6 345 378.98 378.58 417.76 378.58 437.15 345 417.76 311.42"/><polygon class="cls-2" points="417.37 312.09 379.37 312.09 360.37 345 379.37 377.91 417.37 377.91 436.37 345 417.37 312.09"/><polygon class="cls-2" points="416.99 312.75 379.75 312.75 361.13 345 379.75 377.25 416.99 377.25 435.61 345 416.99 312.75"/><polygon class="cls-2" points="416.62 313.39 380.12 313.39 361.88 345 380.12 376.61 416.62 376.61 434.87 345 416.62 313.39"/><polygon class="cls-2" points="416.25 314.03 380.49 314.03 362.61 345 380.49 375.97 416.25 375.97 434.14 345 416.25 314.03"/><polygon class="cls-2" points="415.9 314.65 380.85 314.65 363.32 345 380.85 375.35 415.9 375.35 433.42 345 415.9 314.65"/><polygon class="cls-2" points="415.55 315.25 381.2 315.25 364.02 345 381.2 374.75 415.55 374.75 432.72 345 415.55 315.25"/><polygon class="cls-2" points="415.2 315.85 381.54 315.85 364.71 345 381.54 374.15 415.2 374.15 432.03 345 415.2 315.85"/><polygon class="cls-2" points="414.87 316.43 381.88 316.43 365.38 345 381.88 373.57 414.87 373.57 431.36 345 414.87 316.43"/><polygon class="cls-2" points="414.54 317 382.21 317 366.04 345 382.21 373 414.54 373 430.7 345 414.54 317"/><polygon class="cls-2" points="414.21 317.56 382.53 317.56 366.69 345 382.53 372.44 414.21 372.44 430.05 345 414.21 317.56"/><polygon class="cls-2" points="413.9 318.11 382.85 318.11 367.32 345 382.85 371.89 413.9 371.89 429.42 345 413.9 318.11"/><polygon class="cls-2" points="413.58 318.65 383.16 318.65 367.94 345 383.16 371.35 413.58 371.35 428.8 345 413.58 318.65"/><polygon class="cls-2" points="413.28 319.18 383.46 319.18 368.55 345 383.46 370.82 413.28 370.82 428.19 345 413.28 319.18"/><polygon class="cls-2" points="412.98 319.69 383.76 319.69 369.15 345 383.76 370.31 412.98 370.31 427.59 345 412.98 319.69"/><polygon class="cls-2" points="412.69 320.2 384.05 320.2 369.73 345 384.05 369.8 412.69 369.8 427.01 345 412.69 320.2"/><polygon class="cls-2" points="412.4 320.69 384.34 320.69 370.31 345 384.34 369.31 412.4 369.31 426.44 345 412.4 320.69"/><polygon class="cls-2" points="412.12 321.18 384.62 321.18 370.87 345 384.62 368.82 412.12 368.82 425.88 345 412.12 321.18"/><polygon class="cls-2" points="411.85 321.66 384.89 321.66 371.42 345 384.89 368.34 411.85 368.34 425.33 345 411.85 321.66"/><polygon class="cls-2" points="411.58 322.12 385.16 322.12 371.96 345 385.16 367.88 411.58 367.88 424.79 345 411.58 322.12"/><polygon class="cls-2" points="411.31 322.58 385.43 322.58 372.49 345 385.43 367.42 411.31 367.42 424.26 345 411.31 322.58"/><polygon class="cls-2" points="411.06 323.03 385.69 323.03 373 345 385.69 366.97 411.06 366.97 423.74 345 411.06 323.03"/><polygon class="cls-2" points="410.8 323.47 385.94 323.47 373.51 345 385.94 366.53 410.8 366.53 423.23 345 410.8 323.47"/><polygon class="cls-2" points="410.55 323.9 386.19 323.9 374.01 345 386.19 366.1 410.55 366.1 422.74 345 410.55 323.9"/><polygon class="cls-2" points="410.31 324.32 386.43 324.32 374.5 345 386.43 365.68 410.31 365.68 422.25 345 410.31 324.32"/><polygon class="cls-2" points="410.07 324.74 386.67 324.74 374.97 345 386.67 365.26 410.07 365.26 421.77 345 410.07 324.74"/><polygon class="cls-2" points="409.84 325.14 386.91 325.14 375.44 345 386.91 364.86 409.84 364.86 421.3 345 409.84 325.14"/><polygon class="cls-2" points="409.61 325.54 387.13 325.54 375.9 345 387.13 364.46 409.61 364.46 420.85 345 409.61 325.54"/><polygon class="cls-2" points="409.38 325.93 387.36 325.93 376.35 345 387.36 364.07 409.38 364.07 420.39 345 409.38 325.93"/><polygon class="cls-2" points="409.16 326.31 387.58 326.31 376.79 345 387.58 363.69 409.16 363.69 419.95 345 409.16 326.31"/><polygon class="cls-2" points="408.95 326.68 387.8 326.68 377.22 345 387.8 363.32 408.95 363.32 419.52 345 408.95 326.68"/><polygon class="cls-2" points="408.74 327.05 388.01 327.05 377.64 345 388.01 362.95 408.74 362.95 419.1 345 408.74 327.05"/><polygon class="cls-2" points="408.53 327.41 388.21 327.41 378.06 345 388.21 362.59 408.53 362.59 418.69 345 408.53 327.41"/><polygon class="cls-2" points="408.32 327.76 388.42 327.76 378.46 345 388.42 362.24 408.32 362.24 418.28 345 408.32 327.76"/><polygon class="cls-2" points="408.13 328.1 388.62 328.1 378.86 345 388.62 361.9 408.13 361.9 417.88 345 408.13 328.1"/><polygon class="cls-2" points="407.93 328.44 388.81 328.44 379.25 345 388.81 361.56 407.93 361.56 417.49 345 407.93 328.44"/><polygon class="cls-2" points="407.74 328.77 389 328.77 379.63 345 389 361.23 407.74 361.23 417.11 345 407.74 328.77"/><polygon class="cls-2" points="407.55 329.1 389.19 329.1 380.01 345 389.19 360.9 407.55 360.9 416.73 345 407.55 329.1"/><polygon class="cls-2" points="407.37 329.42 389.37 329.42 380.38 345 389.37 360.58 407.37 360.58 416.37 345 407.37 329.42"/><polygon class="cls-2" points="407.19 329.73 389.55 329.73 380.74 345 389.55 360.27 407.19 360.27 416.01 345 407.19 329.73"/><polygon class="cls-2" points="407.01 330.03 389.73 330.03 381.09 345 389.73 359.97 407.01 359.97 415.65 345 407.01 330.03"/><polygon class="cls-2" points="406.84 330.33 389.9 330.33 381.44 345 389.9 359.67 406.84 359.67 415.31 345 406.84 330.33"/><polygon class="cls-2" points="406.67 330.63 390.07 330.63 381.77 345 390.07 359.37 406.67 359.37 414.97 345 406.67 330.63"/><polygon class="cls-2" points="406.5 330.91 390.24 330.91 382.11 345 390.24 359.09 406.5 359.09 414.64 345 406.5 330.91"/><polygon class="cls-2" points="406.34 331.19 390.4 331.19 382.43 345 390.4 358.81 406.34 358.81 414.31 345 406.34 331.19"/><polygon class="cls-2" points="406.18 331.47 390.56 331.47 382.75 345 390.56 358.53 406.18 358.53 413.99 345 406.18 331.47"/><polygon class="cls-2" points="406.03 331.74 390.72 331.74 383.06 345 390.72 358.26 406.03 358.26 413.68 345 406.03 331.74"/><polygon class="cls-2" points="405.87 332.01 390.87 332.01 383.37 345 390.87 357.99 405.87 357.99 413.38 345 405.87 332.01"/><polygon class="cls-2" points="405.72 332.27 391.02 332.27 383.67 345 391.02 357.73 405.72 357.73 413.07 345 405.72 332.27"/><polygon class="cls-2" points="405.58 332.52 391.17 332.52 383.96 345 391.17 357.48 405.58 357.48 412.78 345 405.58 332.52"/><polygon class="cls-2" points="405.43 332.77 391.31 332.77 384.25 345 391.31 357.23 405.43 357.23 412.49 345 405.43 332.77"/><polygon class="cls-2" points="405.29 333.02 391.45 333.02 384.53 345 391.45 356.98 405.29 356.98 412.21 345 405.29 333.02"/><polygon class="cls-2" points="405.15 333.25 391.59 333.25 384.81 345 391.59 356.75 405.15 356.75 411.93 345 405.15 333.25"/><polygon class="cls-2" points="405.02 333.49 391.73 333.49 385.08 345 391.73 356.51 405.02 356.51 411.66 345 405.02 333.49"/><polygon class="cls-2" points="404.88 333.72 391.86 333.72 385.35 345 391.86 356.28 404.88 356.28 411.4 345 404.88 333.72"/><polygon class="cls-2" points="404.75 333.95 391.99 333.95 385.61 345 391.99 356.05 404.75 356.05 411.14 345 404.75 333.95"/><polygon class="cls-2" points="404.63 334.17 392.12 334.17 385.86 345 392.12 355.83 404.63 355.83 410.88 345 404.63 334.17"/><polygon class="cls-2" points="404.5 334.38 392.24 334.38 386.11 345 392.24 355.62 404.5 355.62 410.63 345 404.5 334.38"/><polygon class="cls-2" points="404.38 334.6 392.37 334.6 386.36 345 392.37 355.4 404.38 355.4 410.38 345 404.38 334.6"/><polygon class="cls-2" points="404.26 334.8 392.49 334.8 386.6 345 392.49 355.2 404.26 355.2 410.14 345 404.26 334.8"/><polygon class="cls-2" points="404.14 335.01 392.6 335.01 386.83 345 392.6 354.99 404.14 354.99 409.91 345 404.14 335.01"/><polygon class="cls-2" points="404.02 335.21 392.72 335.21 387.06 345 392.72 354.79 404.02 354.79 409.68 345 404.02 335.21"/><polygon class="cls-2" points="403.91 335.4 392.83 335.4 387.29 345 392.83 354.6 403.91 354.6 409.45 345 403.91 335.4"/><polygon class="cls-2" points="403.8 335.6 392.94 335.6 387.51 345 392.94 354.4 403.8 354.4 409.23 345 403.8 335.6"/><polygon class="cls-2" points="403.69 335.78 393.05 335.78 387.73 345 393.05 354.22 403.69 354.22 409.01 345 403.69 335.78"/><polygon class="cls-2" points="403.59 335.97 393.16 335.97 387.94 345 393.16 354.03 403.59 354.03 408.8 345 403.59 335.97"/><polygon class="cls-2" points="403.48 336.15 393.26 336.15 388.15 345 393.26 353.85 403.48 353.85 408.59 345 403.48 336.15"/><polygon class="cls-2" points="403.38 336.33 393.36 336.33 388.36 345 393.36 353.67 403.38 353.67 408.39 345 403.38 336.33"/><polygon class="cls-2" points="403.28 336.5 393.46 336.5 388.56 345 393.46 353.5 403.28 353.5 408.19 345 403.28 336.5"/><polygon class="cls-2" points="403.18 336.67 393.56 336.67 388.75 345 393.56 353.33 403.18 353.33 407.99 345 403.18 336.67"/><polygon class="cls-2" points="403.08 336.84 393.66 336.84 388.94 345 393.66 353.16 403.08 353.16 407.8 345 403.08 336.84"/><polygon class="cls-2" points="402.99 337 393.75 337 389.13 345 393.75 353 402.99 353 407.61 345 402.99 337"/><polygon class="cls-2" points="402.9 337.16 393.85 337.16 389.32 345 393.85 352.84 402.9 352.84 407.43 345 402.9 337.16"/><polygon class="cls-2" points="402.81 337.32 393.94 337.32 389.5 345 393.94 352.68 402.81 352.68 407.24 345 402.81 337.32"/><polygon class="cls-2" points="402.72 337.47 394.02 337.47 389.68 345 394.02 352.53 402.72 352.53 407.07 345 402.72 337.47"/><polygon class="cls-2" points="402.63 337.62 394.11 337.62 389.85 345 394.11 352.38 402.63 352.38 406.89 345 402.63 337.62"/><polygon class="cls-2" points="402.55 337.77 394.2 337.77 390.02 345 394.2 352.23 402.55 352.23 406.72 345 402.55 337.77"/><polygon class="cls-2" points="402.46 337.91 394.28 337.91 390.19 345 394.28 352.09 402.46 352.09 406.56 345 402.46 337.91"/><polygon class="cls-2" points="402.38 338.05 394.36 338.05 390.35 345 394.36 351.95 402.38 351.95 406.39 345 402.38 338.05"/><polygon class="cls-2" points="402.3 338.19 394.44 338.19 390.51 345 394.44 351.81 402.3 351.81 406.23 345 402.3 338.19"/><polygon class="cls-2" points="402.22 338.33 394.52 338.33 390.67 345 394.52 351.67 402.22 351.67 406.07 345 402.22 338.33"/><polygon class="cls-2" points="402.15 338.46 394.6 338.46 390.82 345 394.6 351.54 402.15 351.54 405.92 345 402.15 338.46"/><polygon class="cls-2" points="402.07 338.59 394.67 338.59 390.97 345 394.67 351.41 402.07 351.41 405.77 345 402.07 338.59"/><polygon class="cls-2" points="402 338.72 394.75 338.72 391.12 345 394.75 351.28 402 351.28 405.62 345 402 338.72"/><polygon class="cls-2" points="401.92 338.85 394.82 338.85 391.27 345 394.82 351.15 401.92 351.15 405.48 345 401.92 338.85"/><polygon class="cls-2" points="401.85 338.97 394.89 338.97 391.41 345 394.89 351.03 401.85 351.03 405.33 345 401.85 338.97"/><polygon class="cls-2" points="401.78 339.09 394.96 339.09 391.55 345 394.96 350.91 401.78 350.91 405.19 345 401.78 339.09"/><polygon class="cls-2" points="401.71 339.21 395.03 339.21 391.69 345 395.03 350.79 401.71 350.79 405.06 345 401.71 339.21"/><polygon class="cls-2" points="401.65 339.32 395.1 339.32 391.82 345 395.1 350.68 401.65 350.68 404.93 345 401.65 339.32"/><polygon class="cls-2" points="401.58 339.44 395.16 339.44 391.95 345 395.16 350.56 401.58 350.56 404.79 345 401.58 339.44"/><polygon class="cls-2" points="401.52 339.55 395.23 339.55 392.08 345 395.23 350.45 401.52 350.45 404.67 345 401.52 339.55"/><polygon class="cls-2" points="401.46 339.66 395.29 339.66 392.2 345 395.29 350.34 401.46 350.34 404.54 345 401.46 339.66"/><polygon class="cls-2" points="401.39 339.76 395.35 339.76 392.33 345 395.35 350.24 401.39 350.24 404.42 345 401.39 339.76"/><polygon class="cls-2" points="401.33 339.87 395.41 339.87 392.45 345 395.41 350.13 401.33 350.13 404.3 345 401.33 339.87"/><polygon class="cls-2" points="401.27 339.97 395.47 339.97 392.57 345 395.47 350.03 401.27 350.03 404.18 345 401.27 339.97"/><polygon class="cls-2" points="401.22 340.07 395.53 340.07 392.68 345 395.53 349.93 401.22 349.93 404.06 345 401.22 340.07"/><polygon class="cls-2" points="401.16 340.17 395.58 340.17 392.8 345 395.58 349.83 401.16 349.83 403.95 345 401.16 340.17"/><polygon class="cls-2" points="401.1 340.27 395.64 340.27 392.91 345 395.64 349.73 401.1 349.73 403.83 345 401.1 340.27"/><polygon class="cls-2" points="401.05 340.36 395.69 340.36 393.02 345 395.69 349.64 401.05 349.64 403.73 345 401.05 340.36"/><polygon class="cls-2" points="401 340.46 395.75 340.46 393.12 345 395.75 349.54 401 349.54 403.62 345 401 340.46"/><polygon class="cls-2" points="400.94 340.55 395.8 340.55 393.23 345 395.8 349.45 400.94 349.45 403.51 345 400.94 340.55"/><polygon class="cls-2" points="400.89 340.64 395.85 340.64 393.33 345 395.85 349.36 400.89 349.36 403.41 345 400.89 340.64"/><polygon class="cls-2" points="400.84 340.72 395.9 340.72 393.43 345 395.9 349.28 400.84 349.28 403.31 345 400.84 340.72"/><polygon class="cls-2" points="400.79 340.81 395.95 340.81 393.53 345 395.95 349.19 400.79 349.19 403.21 345 400.79 340.81"/><polygon class="cls-2" points="400.74 340.89 396 340.89 393.63 345 396 349.11 400.74 349.11 403.12 345 400.74 340.89"/><polygon class="cls-2" points="400.7 340.97 396.05 340.97 393.72 345 396.05 349.03 400.7 349.03 403.02 345 400.7 340.97"/><polygon class="cls-2" points="400.65 341.06 396.09 341.06 393.82 345 396.09 348.94 400.65 348.94 402.93 345 400.65 341.06"/><polygon class="cls-2" points="400.6 341.13 396.14 341.13 393.91 345 396.14 348.87 400.6 348.87 402.84 345 400.6 341.13"/><polygon class="cls-2" points="400.56 341.21 396.18 341.21 394 345 396.18 348.79 400.56 348.79 402.75 345 400.56 341.21"/><polygon class="cls-2" points="400.51 341.29 396.23 341.29 394.08 345 396.23 348.71 400.51 348.71 402.66 345 400.51 341.29"/><polygon class="cls-2" points="400.47 341.36 396.27 341.36 394.17 345 396.27 348.64 400.47 348.64 402.57 345 400.47 341.36"/><polygon class="cls-2" points="400.43 341.43 396.31 341.43 394.25 345 396.31 348.57 400.43 348.57 402.49 345 400.43 341.43"/><polygon class="cls-2" points="400.39 341.5 396.35 341.5 394.34 345 396.35 348.5 400.39 348.5 402.41 345 400.39 341.5"/><polygon class="cls-2" points="400.35 341.57 396.39 341.57 394.42 345 396.39 348.43 400.35 348.43 402.33 345 400.35 341.57"/><polygon class="cls-2" points="400.31 341.64 396.43 341.64 394.5 345 396.43 348.36 400.31 348.36 402.25 345 400.31 341.64"/><polygon class="cls-2" points="400.27 341.71 396.47 341.71 394.57 345 396.47 348.29 400.27 348.29 402.17 345 400.27 341.71"/><polygon class="cls-2" points="400.23 341.78 396.51 341.78 394.65 345 396.51 348.22 400.23 348.22 402.09 345 400.23 341.78"/><polygon class="cls-2" points="400.19 341.84 396.55 341.84 394.72 345 396.55 348.16 400.19 348.16 402.02 345 400.19 341.84"/><polygon class="cls-2" points="400.16 341.9 396.58 341.9 394.8 345 396.58 348.1 400.16 348.1 401.95 345 400.16 341.9"/><polygon class="cls-2" points="400.12 341.97 396.62 341.97 394.87 345 396.62 348.03 400.12 348.03 401.88 345 400.12 341.97"/><polygon class="cls-2" points="400.09 342.03 396.65 342.03 394.94 345 396.65 347.97 400.09 347.97 401.81 345 400.09 342.03"/><polygon class="cls-2" points="400.05 342.09 396.69 342.09 395.01 345 396.69 347.91 400.05 347.91 401.74 345 400.05 342.09"/><polygon class="cls-2" points="400.02 342.14 396.72 342.14 395.07 345 396.72 347.86 400.02 347.86 401.67 345 400.02 342.14"/><polygon class="cls-2" points="399.99 342.2 396.76 342.2 395.14 345 396.76 347.8 399.99 347.8 401.6 345 399.99 342.2"/><polygon class="cls-2" points="399.95 342.26 396.79 342.26 395.2 345 396.79 347.74 399.95 347.74 401.54 345 399.95 342.26"/><polygon class="cls-2" points="399.92 342.31 396.82 342.31 395.27 345 396.82 347.69 399.92 347.69 401.48 345 399.92 342.31"/><polygon class="cls-2" points="399.89 342.37 396.85 342.37 395.33 345 396.85 347.63 399.89 347.63 401.41 345 399.89 342.37"/><polygon class="cls-2" points="399.86 342.42 396.88 342.42 395.39 345 396.88 347.58 399.86 347.58 401.35 345 399.86 342.42"/><polygon class="cls-2" points="399.83 342.47 396.91 342.47 395.45 345 396.91 347.53 399.83 347.53 401.29 345 399.83 342.47"/><polygon class="cls-2" points="399.8 342.52 396.94 342.52 395.51 345 396.94 347.48 399.8 347.48 401.23 345 399.8 342.52"/><polygon class="cls-2" points="399.77 342.57 396.97 342.57 395.57 345 396.97 347.43 399.77 347.43 401.18 345 399.77 342.57"/><polygon class="cls-2" points="399.75 342.62 397 342.62 395.62 345 397 347.38 399.75 347.38 401.12 345 399.75 342.62"/><polygon class="cls-2" points="399.72 342.67 397.02 342.67 395.68 345 397.02 347.33 399.72 347.33 401.07 345 399.72 342.67"/><polygon class="cls-2" points="399.69 342.71 397.05 342.71 395.73 345 397.05 347.29 399.69 347.29 401.01 345 399.69 342.71"/><polygon class="cls-2" points="399.67 342.76 397.08 342.76 395.78 345 397.08 347.24 399.67 347.24 400.96 345 399.67 342.76"/><polygon class="cls-2" points="399.64 342.8 397.1 342.8 395.84 345 397.1 347.2 399.64 347.2 400.91 345 399.64 342.8"/><polygon class="cls-2" points="399.61 342.85 397.13 342.85 395.89 345 397.13 347.15 399.61 347.15 400.86 345 399.61 342.85"/><polygon class="cls-2" points="399.59 342.89 397.15 342.89 395.94 345 397.15 347.11 399.59 347.11 400.81 345 399.59 342.89"/><polygon class="cls-2" points="399.56 342.93 397.18 342.93 395.99 345 397.18 347.07 399.56 347.07 400.76 345 399.56 342.93"/><polygon class="cls-2" points="399.54 342.98 397.2 342.98 396.03 345 397.2 347.02 399.54 347.02 400.71 345 399.54 342.98"/><polygon class="cls-2" points="399.52 343.01 397.23 343.01 396.08 345 397.23 346.99 399.52 346.99 400.66 345 399.52 343.01"/><polygon class="cls-2" points="399.5 343.06 397.25 343.06 396.13 345 397.25 346.94 399.5 346.94 400.62 345 399.5 343.06"/><polygon class="cls-2" points="399.47 343.09 397.27 343.09 396.17 345 397.27 346.91 399.47 346.91 400.57 345 399.47 343.09"/><polygon class="cls-2" points="399.45 343.13 397.29 343.13 396.21 345 397.29 346.87 399.45 346.87 400.53 345 399.45 343.13"/><polygon class="cls-2" points="399.43 343.17 397.31 343.17 396.26 345 397.31 346.83 399.43 346.83 400.49 345 399.43 343.17"/><polygon class="cls-2" points="399.41 343.21 397.34 343.21 396.3 345 397.34 346.79 399.41 346.79 400.44 345 399.41 343.21"/><polygon class="cls-2" points="399.39 343.24 397.36 343.24 396.34 345 397.36 346.76 399.39 346.76 400.4 345 399.39 343.24"/><polygon class="cls-2" points="399.37 343.28 397.38 343.28 396.38 345 397.38 346.72 399.37 346.72 400.36 345 399.37 343.28"/><polygon class="cls-2" points="399.35 343.31 397.4 343.31 396.42 345 397.4 346.69 399.35 346.69 400.32 345 399.35 343.31"/><polygon class="cls-2" points="399.33 343.35 397.42 343.35 396.46 345 397.42 346.65 399.33 346.65 400.28 345 399.33 343.35"/><polygon class="cls-2" points="399.31 343.38 397.44 343.38 396.5 345 397.44 346.62 399.31 346.62 400.24 345 399.31 343.38"/><polygon class="cls-2" points="399.29 343.41 397.45 343.41 396.54 345 397.45 346.59 399.29 346.59 400.21 345 399.29 343.41"/><polygon class="cls-2" points="399.27 343.44 397.47 343.44 396.57 345 397.47 346.56 399.27 346.56 400.17 345 399.27 343.44"/><polygon class="cls-2" points="399.25 343.47 397.49 343.47 396.61 345 397.49 346.53 399.25 346.53 400.13 345 399.25 343.47"/><polygon class="cls-2" points="399.24 343.5 397.51 343.5 396.64 345 397.51 346.5 399.24 346.5 400.1 345 399.24 343.5"/><polygon class="cls-2" points="399.22 343.53 397.52 343.53 396.68 345 397.52 346.47 399.22 346.47 400.06 345 399.22 343.53"/><polygon class="cls-2" points="399.2 343.56 397.54 343.56 396.71 345 397.54 346.44 399.2 346.44 400.03 345 399.2 343.56"/><polygon class="cls-2" points="399.19 343.59 397.56 343.59 396.75 345 397.56 346.41 399.19 346.41 400 345 399.19 343.59"/><polygon class="cls-2" points="399.17 343.62 397.57 343.62 396.78 345 397.57 346.38 399.17 346.38 399.96 345 399.17 343.62"/><polygon class="cls-2" points="399.15 343.65 397.59 343.65 396.81 345 397.59 346.35 399.15 346.35 399.93 345 399.15 343.65"/><polygon class="cls-2" points="399.14 343.68 397.61 343.68 396.84 345 397.61 346.32 399.14 346.32 399.9 345 399.14 343.68"/><polygon class="cls-2" points="399.12 343.7 397.62 343.7 396.87 345 397.62 346.3 399.12 346.3 399.87 345 399.12 343.7"/><polygon class="cls-2" points="399.11 343.73 397.64 343.73 396.9 345 397.64 346.27 399.11 346.27 399.84 345 399.11 343.73"/><polygon class="cls-2" points="399.09 343.75 397.65 343.75 396.93 345 397.65 346.25 399.09 346.25 399.81 345 399.09 343.75"/><polygon class="cls-2" points="399.08 343.78 397.67 343.78 396.96 345 397.67 346.22 399.08 346.22 399.78 345 399.08 343.78"/><polygon class="cls-2" points="399.06 343.8 397.68 343.8 396.99 345 397.68 346.2 399.06 346.2 399.75 345 399.06 343.8"/><polygon class="cls-2" points="399.05 343.83 397.69 343.83 397.02 345 397.69 346.17 399.05 346.17 399.73 345 399.05 343.83"/><polygon class="cls-2" points="399.04 343.85 397.71 343.85 397.04 345 397.71 346.15 399.04 346.15 399.7 345 399.04 343.85"/><polygon class="cls-2" points="399.02 343.87 397.72 343.87 397.07 345 397.72 346.13 399.02 346.13 399.67 345 399.02 343.87"/><polygon class="cls-2" points="399.01 343.89 397.73 343.89 397.1 345 397.73 346.11 399.01 346.11 399.65 345 399.01 343.89"/><polygon class="cls-2" points="399 343.92 397.75 343.92 397.12 345 397.75 346.08 399 346.08 399.62 345 399 343.92"/><polygon class="cls-2" points="398.98 343.94 397.76 343.94 397.15 345 397.76 346.06 398.98 346.06 399.6 345 398.98 343.94"/><polygon class="cls-2" points="398.97 343.96 397.77 343.96 397.17 345 397.77 346.04 398.97 346.04 399.57 345 398.97 343.96"/><polygon class="cls-2" points="398.96 343.98 397.78 343.98 397.19 345 397.78 346.02 398.96 346.02 399.55 345 398.96 343.98"/><polygon class="cls-2" points="398.95 344 397.8 344 397.22 345 397.8 346 398.95 346 399.52 345 398.95 344"/><polygon class="cls-2" points="398.94 344.02 397.81 344.02 397.24 345 397.81 345.98 398.94 345.98 399.5 345 398.94 344.02"/><polygon class="cls-2" points="398.93 344.04 397.82 344.04 397.26 345 397.82 345.96 398.93 345.96 399.48 345 398.93 344.04"/><polygon class="cls-2" points="398.91 344.06 397.83 344.06 397.29 345 397.83 345.94 398.91 345.94 399.46 345 398.91 344.06"/><polygon class="cls-2" points="398.9 344.08 397.84 344.08 397.31 345 397.84 345.92 398.9 345.92 399.44 345 398.9 344.08"/><polygon class="cls-2" points="398.89 344.1 397.85 344.1 397.33 345 397.85 345.9 398.89 345.9 399.41 345 398.89 344.1"/><polygon class="cls-2" points="398.88 344.12 397.86 344.12 397.35 345 397.86 345.88 398.88 345.88 399.39 345 398.88 344.12"/><polygon class="cls-2" points="398.87 344.13 397.87 344.13 397.37 345 397.87 345.87 398.87 345.87 399.37 345 398.87 344.13"/><polygon class="cls-2" points="398.86 344.15 397.88 344.15 397.39 345 397.88 345.85 398.86 345.85 399.35 345 398.86 344.15"/><polygon class="cls-2" points="398.85 344.17 397.89 344.17 397.41 345 397.89 345.83 398.85 345.83 399.33 345 398.85 344.17"/><polygon class="cls-2" points="398.84 344.18 397.9 344.18 397.43 345 397.9 345.82 398.84 345.82 399.31 345 398.84 344.18"/><polygon class="cls-2" points="398.83 344.2 397.91 344.2 397.45 345 397.91 345.8 398.83 345.8 399.3 345 398.83 344.2"/><polygon class="cls-2" points="398.82 344.22 397.92 344.22 397.47 345 397.92 345.78 398.82 345.78 399.28 345 398.82 344.22"/><polygon class="cls-2" points="398.81 344.23 397.93 344.23 397.49 345 397.93 345.77 398.81 345.77 399.26 345 398.81 344.23"/><polygon class="cls-2" points="398.81 344.25 397.94 344.25 397.5 345 397.94 345.75 398.81 345.75 399.24 345 398.81 344.25"/><polygon class="cls-2" points="398.8 344.26 397.95 344.26 397.52 345 397.95 345.74 398.8 345.74 399.22 345 398.8 344.26"/><polygon class="cls-2" points="398.79 344.28 397.95 344.28 397.54 345 397.95 345.72 398.79 345.72 399.21 345 398.79 344.28"/><polygon class="cls-2" points="398.78 344.29 397.96 344.29 397.55 345 397.96 345.71 398.78 345.71 399.19 345 398.78 344.29"/><polygon class="cls-2" points="398.77 344.31 397.97 344.31 397.57 345 397.97 345.69 398.77 345.69 399.17 345 398.77 344.31"/><polygon class="cls-2" points="398.76 344.32 397.98 344.32 397.59 345 397.98 345.68 398.76 345.68 399.16 345 398.76 344.32"/><polygon class="cls-2" points="398.76 344.33 397.99 344.33 397.6 345 397.99 345.67 398.76 345.67 399.14 345 398.76 344.33"/><polygon class="cls-2" points="398.75 344.35 397.99 344.35 397.62 345 397.99 345.65 398.75 345.65 399.13 345 398.75 344.35"/><polygon class="cls-2" points="398.74 344.36 398 344.36 397.63 345 398 345.64 398.74 345.64 399.11 345 398.74 344.36"/><polygon class="cls-2" points="398.73 344.37 398.01 344.37 397.65 345 398.01 345.63 398.73 345.63 399.1 345 398.73 344.37"/><polygon class="cls-2" points="398.73 344.38 398.02 344.38 397.66 345 398.02 345.62 398.73 345.62 399.08 345 398.73 344.38"/><polygon class="cls-2" points="398.72 344.4 398.02 344.4 397.68 345 398.02 345.6 398.72 345.6 399.07 345 398.72 344.4"/><polygon class="cls-2" points="398.71 344.41 398.03 344.41 397.69 345 398.03 345.59 398.71 345.59 399.05 345 398.71 344.41"/><polygon class="cls-2" points="398.71 344.42 398.04 344.42 397.7 345 398.04 345.58 398.71 345.58 399.04 345 398.71 344.42"/><polygon class="cls-2" points="398.7 344.43 398.04 344.43 397.72 345 398.04 345.57 398.7 345.57 399.03 345 398.7 344.43"/><polygon class="cls-2" points="398.69 344.44 398.05 344.44 397.73 345 398.05 345.56 398.69 345.56 399.01 345 398.69 344.44"/><polygon class="cls-2" points="398.69 344.45 398.06 344.45 397.74 345 398.06 345.55 398.69 345.55 399 345 398.69 344.45"/><polygon class="cls-2" points="398.68 344.47 398.06 344.47 397.75 345 398.06 345.53 398.68 345.53 398.99 345 398.68 344.47"/><polygon class="cls-2" points="398.67 344.48 398.07 344.48 397.77 345 398.07 345.52 398.67 345.52 398.98 345 398.67 344.48"/><polygon class="cls-2" points="398.67 344.49 398.08 344.49 397.78 345 398.08 345.51 398.67 345.51 398.96 345 398.67 344.49"/><polygon class="cls-2" points="398.66 344.5 398.08 344.5 397.79 345 398.08 345.5 398.66 345.5 398.95 345 398.66 344.5"/><polygon class="cls-2" points="398.66 344.51 398.09 344.51 397.8 345 398.09 345.49 398.66 345.49 398.94 345 398.66 344.51"/><polygon class="cls-2" points="398.65 344.52 398.09 344.52 397.81 345 398.09 345.48 398.65 345.48 398.93 345 398.65 344.52"/><polygon class="cls-2" points="398.64 344.53 398.1 344.53 397.83 345 398.1 345.47 398.64 345.47 398.92 345 398.64 344.53"/><polygon class="cls-2" points="398.64 344.54 398.1 344.54 397.84 345 398.1 345.46 398.64 345.46 398.91 345 398.64 344.54"/><polygon class="cls-2" points="398.63 344.55 398.11 344.55 397.85 345 398.11 345.45 398.63 345.45 398.9 345 398.63 344.55"/><polygon class="cls-2" points="398.63 344.56 398.12 344.56 397.86 345 398.12 345.44 398.63 345.44 398.89 345 398.63 344.56"/><polygon class="cls-2" points="398.62 344.56 398.12 344.56 397.87 345 398.12 345.44 398.62 345.44 398.88 345 398.62 344.56"/><polygon class="cls-2" points="398.62 344.57 398.13 344.57 397.88 345 398.13 345.43 398.62 345.43 398.87 345 398.62 344.57"/><polygon class="cls-2" points="398.61 344.58 398.13 344.58 397.89 345 398.13 345.42 398.61 345.42 398.86 345 398.61 344.58"/><polygon class="cls-2" points="398.61 344.59 398.13 344.59 397.9 345 398.13 345.41 398.61 345.41 398.85 345 398.61 344.59"/><polygon class="cls-2" points="398.6 344.6 398.14 344.6 397.91 345 398.14 345.4 398.6 345.4 398.84 345 398.6 344.6"/><polygon class="cls-2" points="398.6 344.61 398.14 344.61 397.92 345 398.14 345.39 398.6 345.39 398.83 345 398.6 344.61"/><polygon class="cls-2" points="398.6 344.61 398.15 344.61 397.93 345 398.15 345.39 398.6 345.39 398.82 345 398.6 344.61"/><polygon class="cls-2" points="398.59 344.62 398.15 344.62 397.93 345 398.15 345.38 398.59 345.38 398.81 345 398.59 344.62"/><polygon class="cls-2" points="398.59 344.63 398.16 344.63 397.94 345 398.16 345.37 398.59 345.37 398.8 345 398.59 344.63"/><polygon class="cls-2" points="398.58 344.64 398.16 344.64 397.95 345 398.16 345.36 398.58 345.36 398.79 345 398.58 344.64"/><polygon class="cls-2" points="398.58 344.64 398.17 344.64 397.96 345 398.17 345.36 398.58 345.36 398.78 345 398.58 344.64"/><polygon class="cls-2" points="398.57 344.65 398.17 344.65 397.97 345 398.17 345.35 398.57 345.35 398.77 345 398.57 344.65"/><polygon class="cls-2" points="398.57 344.66 398.17 344.66 397.98 345 398.17 345.34 398.57 345.34 398.77 345 398.57 344.66"/><polygon class="cls-2" points="398.56 344.67 398.18 344.67 397.98 345 398.18 345.33 398.56 345.33 398.76 345 398.56 344.67"/><polygon class="cls-2" points="398.56 344.67 398.18 344.67 397.99 345 398.18 345.33 398.56 345.33 398.75 345 398.56 344.67"/><polygon class="cls-2" points="398.56 344.68 398.19 344.68 398 345 398.19 345.32 398.56 345.32 398.74 345 398.56 344.68"/><polygon class="cls-2" points="398.55 344.68 398.19 344.68 398.01 345 398.19 345.32 398.55 345.32 398.74 345 398.55 344.68"/><polygon class="cls-2" points="398.55 344.69 398.19 344.69 398.01 345 398.19 345.31 398.55 345.31 398.73 345 398.55 344.69"/><polygon class="cls-2" points="398.55 344.7 398.2 344.7 398.02 345 398.2 345.3 398.55 345.3 398.72 345 398.55 344.7"/><polygon class="cls-2" points="398.54 344.7 398.2 344.7 398.03 345 398.2 345.3 398.54 345.3 398.71 345 398.54 344.7"/><polygon class="cls-2" points="398.54 344.71 398.2 344.71 398.04 345 398.2 345.29 398.54 345.29 398.71 345 398.54 344.71"/><polygon class="cls-2" points="398.54 344.71 398.21 344.71 398.04 345 398.21 345.29 398.54 345.29 398.7 345 398.54 344.71"/><polygon class="cls-2" points="398.53 344.72 398.21 344.72 398.05 345 398.21 345.28 398.53 345.28 398.69 345 398.53 344.72"/><polygon class="cls-2" points="398.53 344.73 398.21 344.73 398.06 345 398.21 345.27 398.53 345.27 398.69 345 398.53 344.73"/></svg>