<svg id="_6hoek" data-name="6hoek" xmlns="http://www.w3.org/2000/svg" viewBox="0 0 1509.68 862.03"><defs><style>.cls-1,.cls-2,.cls-3{fill:none;stroke-miterlimit:10;}.cls-1,.cls-2{stroke:aqua;}.cls-2{stroke-width:0.5px;}.cls-3{stroke:#fff;}</style></defs><polygon class="cls-1" points="314.06 484.78 105.07 484.78 0.58 665.77 105.07 846.76 314.06 846.76 418.56 665.77 314.06 484.78"/><polygon class="cls-1" points="308.84 493.83 110.3 493.83 11.03 665.77 110.3 837.71 308.84 837.71 408.11 665.77 308.84 493.83"/><polygon class="cls-1" points="303.87 502.43 115.26 502.43 20.95 665.77 115.26 829.12 303.87 829.12 398.18 665.77 303.87 502.43"/><polygon class="cls-1" points="299.16 510.6 119.98 510.6 30.39 665.77 119.98 820.95 299.16 820.95 388.75 665.77 299.16 510.6"/><polygon class="cls-1" points="294.68 518.35 124.46 518.35 39.34 665.77 124.46 813.19 294.68 813.19 379.79 665.77 294.68 518.35"/><polygon class="cls-1" points="290.42 525.73 128.71 525.73 47.85 665.77 128.71 805.82 290.42 805.82 371.28 665.77 290.42 525.73"/><polygon class="cls-1" points="286.38 532.73 132.75 532.73 55.94 665.77 132.75 798.82 286.38 798.82 363.19 665.77 286.38 532.73"/><polygon class="cls-1" points="282.54 539.38 136.59 539.38 63.62 665.77 136.59 792.16 282.54 792.16 355.51 665.77 282.54 539.38"/><polygon class="cls-1" points="278.89 545.7 140.24 545.7 70.92 665.77 140.24 785.85 278.89 785.85 348.22 665.77 278.89 545.7"/><polygon class="cls-1" points="275.43 551.7 143.71 551.7 77.85 665.77 143.71 779.84 275.43 779.84 341.28 665.77 275.43 551.7"/><polygon class="cls-1" points="272.13 557.41 147 557.41 84.44 665.77 147 774.14 272.13 774.14 334.7 665.77 272.13 557.41"/><polygon class="cls-1" points="269 562.82 150.13 562.82 90.69 665.77 150.13 768.72 269 768.72 328.44 665.77 269 562.82"/><polygon class="cls-1" points="266.03 567.97 153.1 567.97 96.64 665.77 153.1 763.57 266.03 763.57 322.5 665.77 266.03 567.97"/><polygon class="cls-1" points="263.21 572.86 155.93 572.86 102.28 665.77 155.93 758.68 263.21 758.68 316.85 665.77 263.21 572.86"/><polygon class="cls-1" points="260.53 577.51 158.61 577.51 107.65 665.77 158.61 754.04 260.53 754.04 311.49 665.77 260.53 577.51"/><polygon class="cls-1" points="257.98 581.92 161.16 581.92 112.74 665.77 161.16 749.62 257.98 749.62 306.39 665.77 257.98 581.92"/><polygon class="cls-1" points="255.56 586.11 163.58 586.11 117.58 665.77 163.58 745.43 255.56 745.43 301.55 665.77 255.56 586.11"/><polygon class="cls-1" points="253.26 590.1 165.88 590.1 122.18 665.77 165.88 741.45 253.26 741.45 296.95 665.77 253.26 590.1"/><polygon class="cls-1" points="251.07 593.88 168.06 593.88 126.55 665.77 168.06 737.66 251.07 737.66 292.58 665.77 251.07 593.88"/><polygon class="cls-1" points="249 597.48 170.14 597.48 130.7 665.77 170.14 734.07 249 734.07 288.43 665.77 249 597.48"/><polygon class="cls-1" points="247.03 600.89 172.11 600.89 134.65 665.77 172.11 730.65 247.03 730.65 284.49 665.77 247.03 600.89"/><polygon class="cls-1" points="245.15 604.13 173.98 604.13 138.39 665.77 173.98 727.41 245.15 727.41 280.74 665.77 245.15 604.13"/><polygon class="cls-1" points="243.38 607.22 175.76 607.22 141.95 665.77 175.76 724.33 243.38 724.33 277.18 665.77 243.38 607.22"/><polygon class="cls-1" points="241.69 610.14 177.45 610.14 145.33 665.77 177.45 721.4 241.69 721.4 273.8 665.77 241.69 610.14"/><polygon class="cls-1" points="240.08 612.92 179.06 612.92 148.54 665.77 179.06 718.62 240.08 718.62 270.59 665.77 240.08 612.92"/><polygon class="cls-1" points="238.55 615.57 180.58 615.57 151.6 665.77 180.58 715.98 238.55 715.98 267.54 665.77 238.55 615.57"/><polygon class="cls-1" points="237.1 618.08 182.03 618.08 154.49 665.77 182.03 713.47 237.1 713.47 264.64 665.77 237.1 618.08"/><polygon class="cls-1" points="235.73 620.46 183.41 620.46 157.25 665.77 183.41 711.08 235.73 711.08 261.89 665.77 235.73 620.46"/><polygon class="cls-1" points="234.42 622.73 184.72 622.73 159.86 665.77 184.72 708.82 234.42 708.82 259.27 665.77 234.42 622.73"/><polygon class="cls-1" points="233.18 624.88 185.96 624.88 162.35 665.77 185.96 706.66 233.18 706.66 256.79 665.77 233.18 624.88"/><polygon class="cls-1" points="232 626.92 187.14 626.92 164.71 665.77 187.14 704.62 232 704.62 254.43 665.77 232 626.92"/><polygon class="cls-1" points="230.88 628.87 188.26 628.87 166.95 665.77 188.26 702.68 230.88 702.68 252.18 665.77 230.88 628.87"/><polygon class="cls-1" points="229.81 630.71 189.32 630.71 169.08 665.77 189.32 700.83 229.81 700.83 250.05 665.77 229.81 630.71"/><polygon class="cls-1" points="228.8 632.47 190.34 632.47 171.11 665.77 190.34 699.08 228.8 699.08 248.03 665.77 228.8 632.47"/><polygon class="cls-1" points="227.84 634.13 191.3 634.13 173.03 665.77 191.3 697.41 227.84 697.41 246.1 665.77 227.84 634.13"/><polygon class="cls-1" points="226.92 635.71 192.21 635.71 174.86 665.77 192.21 695.83 226.92 695.83 244.28 665.77 226.92 635.71"/><polygon class="cls-1" points="226.06 637.22 193.08 637.22 176.59 665.77 193.08 694.33 226.06 694.33 242.54 665.77 226.06 637.22"/><polygon class="cls-1" points="225.23 638.64 193.91 638.64 178.24 665.77 193.91 692.9 225.23 692.9 240.89 665.77 225.23 638.64"/><polygon class="cls-1" points="224.45 640 194.69 640 179.81 665.77 194.69 691.54 224.45 691.54 239.33 665.77 224.45 640"/><polygon class="cls-1" points="223.7 641.29 195.43 641.29 181.3 665.77 195.43 690.26 223.7 690.26 237.84 665.77 223.7 641.29"/><polygon class="cls-1" points="223 642.51 196.14 642.51 182.71 665.77 196.14 689.03 223 689.03 236.43 665.77 223 642.51"/><polygon class="cls-1" points="222.32 643.67 196.81 643.67 184.05 665.77 196.81 687.87 222.32 687.87 235.08 665.77 222.32 643.67"/><polygon class="cls-1" points="221.69 644.78 197.45 644.78 185.33 665.77 197.45 686.76 221.69 686.76 233.81 665.77 221.69 644.78"/><polygon class="cls-1" points="221.08 645.83 198.05 645.83 186.54 665.77 198.05 685.71 221.08 685.71 232.59 665.77 221.08 645.83"/><polygon class="cls-1" points="220.5 646.83 198.63 646.83 187.69 665.77 198.63 684.72 220.5 684.72 231.44 665.77 220.5 646.83"/><polygon class="cls-1" points="219.96 647.77 199.18 647.77 188.78 665.77 199.18 683.77 219.96 683.77 230.35 665.77 219.96 647.77"/><polygon class="cls-1" points="219.44 648.67 199.7 648.67 189.82 665.77 199.7 682.87 219.44 682.87 229.31 665.77 219.44 648.67"/><polygon class="cls-1" points="218.94 649.53 200.19 649.53 190.81 665.77 200.19 682.01 218.94 682.01 228.32 665.77 218.94 649.53"/><polygon class="cls-1" points="218.48 650.34 200.66 650.34 191.75 665.77 200.66 681.2 218.48 681.2 227.38 665.77 218.48 650.34"/><polygon class="cls-1" points="218.03 651.11 201.1 651.11 192.64 665.77 201.1 680.43 218.03 680.43 226.49 665.77 218.03 651.11"/><polygon class="cls-1" points="217.61 651.85 201.53 651.85 193.49 665.77 201.53 679.7 217.61 679.7 225.65 665.77 217.61 651.85"/><polygon class="cls-1" points="217.21 652.54 201.93 652.54 194.29 665.77 201.93 679 217.21 679 224.84 665.77 217.21 652.54"/><polygon class="cls-1" points="216.82 653.2 202.31 653.2 195.06 665.77 202.31 678.34 216.82 678.34 224.08 665.77 216.82 653.2"/><polygon class="cls-1" points="216.46 653.83 202.67 653.83 195.78 665.77 202.67 677.71 216.46 677.71 223.35 665.77 216.46 653.83"/><polygon class="cls-1" points="216.12 654.43 203.02 654.43 196.47 665.77 203.02 677.12 216.12 677.12 222.66 665.77 216.12 654.43"/><polygon class="cls-1" points="215.79 655 203.35 655 197.12 665.77 203.35 676.55 215.79 676.55 222.01 665.77 215.79 655"/><polygon class="cls-1" points="215.48 655.53 203.66 655.53 197.75 665.77 203.66 676.01 215.48 676.01 221.39 665.77 215.48 655.53"/><polygon class="cls-1" points="215.18 656.05 203.95 656.05 198.34 665.77 203.95 675.5 215.18 675.5 220.8 665.77 215.18 656.05"/><polygon class="cls-1" points="214.9 656.53 204.23 656.53 198.9 665.77 204.23 675.01 214.9 675.01 220.24 665.77 214.9 656.53"/><polygon class="cls-2" points="1453.93 322.85 1453.93 107.81 1267.69 0.29 1081.46 107.81 1081.46 322.85 1267.69 430.37 1453.93 322.85"/><polygon class="cls-2" points="1451.71 322.85 1451.71 107.81 1265.48 0.29 1079.25 107.81 1079.25 322.85 1265.48 430.37 1451.71 322.85"/><polygon class="cls-2" points="1449.49 322.85 1449.49 107.81 1263.26 0.29 1077.03 107.81 1077.03 322.85 1263.26 430.37 1449.49 322.85"/><polygon class="cls-2" points="1447.28 322.85 1447.28 107.81 1261.04 0.29 1074.81 107.81 1074.81 322.85 1261.04 430.37 1447.28 322.85"/><polygon class="cls-2" points="1445.06 322.85 1445.06 107.81 1258.83 0.29 1072.6 107.81 1072.6 322.85 1258.83 430.37 1445.06 322.85"/><polygon class="cls-2" points="1442.84 322.85 1442.84 107.81 1256.61 0.29 1070.38 107.81 1070.38 322.85 1256.61 430.37 1442.84 322.85"/><polygon class="cls-2" points="1440.62 322.85 1440.62 107.81 1254.39 0.29 1068.16 107.81 1068.16 322.85 1254.39 430.37 1440.62 322.85"/><polygon class="cls-2" points="1438.41 322.85 1438.41 107.81 1252.18 0.29 1065.94 107.81 1065.94 322.85 1252.18 430.37 1438.41 322.85"/><polygon class="cls-2" points="1436.19 322.85 1436.19 107.81 1249.96 0.29 1063.73 107.81 1063.73 322.85 1249.96 430.37 1436.19 322.85"/><polygon class="cls-2" points="1433.97 322.85 1433.97 107.81 1247.74 0.29 1061.51 107.81 1061.51 322.85 1247.74 430.37 1433.97 322.85"/><polygon class="cls-2" points="1431.76 322.85 1431.76 107.81 1245.53 0.29 1059.29 107.81 1059.29 322.85 1245.53 430.37 1431.76 322.85"/><polygon class="cls-2" points="1429.54 322.85 1429.54 107.81 1243.31 0.29 1057.08 107.81 1057.08 322.85 1243.31 430.37 1429.54 322.85"/><polygon class="cls-2" points="1427.32 322.85 1427.32 107.81 1241.09 0.29 1054.86 107.81 1054.86 322.85 1241.09 430.37 1427.32 322.85"/><polygon class="cls-2" points="1425.11 322.85 1425.11 107.81 1238.87 0.29 1052.64 107.81 1052.64 322.85 1238.87 430.37 1425.11 322.85"/><polygon class="cls-2" points="1422.89 322.85 1422.89 107.81 1236.66 0.29 1050.43 107.81 1050.43 322.85 1236.66 430.37 1422.89 322.85"/><polygon class="cls-2" points="1420.67 322.85 1420.67 107.81 1234.44 0.29 1048.21 107.81 1048.21 322.85 1234.44 430.37 1420.67 322.85"/><polygon class="cls-2" points="1418.45 322.85 1418.45 107.81 1232.22 0.29 1045.99 107.81 1045.99 322.85 1232.22 430.37 1418.45 322.85"/><polygon class="cls-2" points="1416.24 322.85 1416.24 107.81 1230.01 0.29 1043.78 107.81 1043.78 322.85 1230.01 430.37 1416.24 322.85"/><polygon class="cls-2" points="1414.02 322.85 1414.02 107.81 1227.79 0.29 1041.56 107.81 1041.56 322.85 1227.79 430.37 1414.02 322.85"/><polygon class="cls-2" points="1411.8 322.85 1411.8 107.81 1225.57 0.29 1039.34 107.81 1039.34 322.85 1225.57 430.37 1411.8 322.85"/><polygon class="cls-2" points="1409.59 322.85 1409.59 107.81 1223.36 0.29 1037.12 107.81 1037.12 322.85 1223.36 430.37 1409.59 322.85"/><polygon class="cls-2" points="1407.37 322.85 1407.37 107.81 1221.14 0.29 1034.91 107.81 1034.91 322.85 1221.14 430.37 1407.37 322.85"/><polygon class="cls-2" points="1405.15 322.85 1405.15 107.81 1218.92 0.29 1032.69 107.81 1032.69 322.85 1218.92 430.37 1405.15 322.85"/><polygon class="cls-2" points="1402.93 322.85 1402.93 107.81 1216.7 0.29 1030.47 107.81 1030.47 322.85 1216.7 430.37 1402.93 322.85"/><polygon class="cls-2" points="1400.72 322.85 1400.72 107.81 1214.49 0.29 1028.26 107.81 1028.26 322.85 1214.49 430.37 1400.72 322.85"/><polygon class="cls-2" points="1398.5 322.85 1398.5 107.81 1212.27 0.29 1026.04 107.81 1026.04 322.85 1212.27 430.37 1398.5 322.85"/><polygon class="cls-2" points="1396.28 322.85 1396.28 107.81 1210.05 0.29 1023.82 107.81 1023.82 322.85 1210.05 430.37 1396.28 322.85"/><polygon class="cls-2" points="1394.07 322.85 1394.07 107.81 1207.84 0.29 1021.6 107.81 1021.6 322.85 1207.84 430.37 1394.07 322.85"/><polygon class="cls-2" points="1391.85 322.85 1391.85 107.81 1205.62 0.29 1019.39 107.81 1019.39 322.85 1205.62 430.37 1391.85 322.85"/><polygon class="cls-2" points="1389.63 322.85 1389.63 107.81 1203.4 0.29 1017.17 107.81 1017.17 322.85 1203.4 430.37 1389.63 322.85"/><polygon class="cls-2" points="1387.41 322.85 1387.41 107.81 1201.18 0.29 1014.95 107.81 1014.95 322.85 1201.18 430.37 1387.41 322.85"/><polygon class="cls-2" points="1385.2 322.85 1385.2 107.81 1198.97 0.29 1012.74 107.81 1012.74 322.85 1198.97 430.37 1385.2 322.85"/><polygon class="cls-2" points="1382.98 322.85 1382.98 107.81 1196.75 0.29 1010.52 107.81 1010.52 322.85 1196.75 430.37 1382.98 322.85"/><polygon class="cls-2" points="1380.76 322.85 1380.76 107.81 1194.53 0.29 1008.3 107.81 1008.3 322.85 1194.53 430.37 1380.76 322.85"/><polygon class="cls-2" points="1378.55 322.85 1378.55 107.81 1192.32 0.29 1006.09 107.81 1006.09 322.85 1192.32 430.37 1378.55 322.85"/><polygon class="cls-2" points="1376.33 322.85 1376.33 107.81 1190.1 0.29 1003.87 107.81 1003.87 322.85 1190.1 430.37 1376.33 322.85"/><polygon class="cls-2" points="1374.11 322.85 1374.11 107.81 1187.88 0.29 1001.65 107.81 1001.65 322.85 1187.88 430.37 1374.11 322.85"/><polygon class="cls-2" points="1371.9 322.85 1371.9 107.81 1185.66 0.29 999.43 107.81 999.43 322.85 1185.66 430.37 1371.9 322.85"/><polygon class="cls-2" points="1369.68 322.85 1369.68 107.81 1183.45 0.29 997.22 107.81 997.22 322.85 1183.45 430.37 1369.68 322.85"/><polygon class="cls-2" points="1367.46 322.85 1367.46 107.81 1181.23 0.29 995 107.81 995 322.85 1181.23 430.37 1367.46 322.85"/><polygon class="cls-2" points="1365.24 322.85 1365.24 107.81 1179.01 0.29 992.78 107.81 992.78 322.85 1179.01 430.37 1365.24 322.85"/><polygon class="cls-2" points="1363.03 322.85 1363.03 107.81 1176.8 0.29 990.57 107.81 990.57 322.85 1176.8 430.37 1363.03 322.85"/><polygon class="cls-2" points="1360.81 322.85 1360.81 107.81 1174.58 0.29 988.35 107.81 988.35 322.85 1174.58 430.37 1360.81 322.85"/><polygon class="cls-2" points="1358.59 322.85 1358.59 107.81 1172.36 0.29 986.13 107.81 986.13 322.85 1172.36 430.37 1358.59 322.85"/><polygon class="cls-2" points="1356.38 322.85 1356.38 107.81 1170.15 0.29 983.91 107.81 983.91 322.85 1170.15 430.37 1356.38 322.85"/><polygon class="cls-2" points="1354.16 322.85 1354.16 107.81 1167.93 0.29 981.7 107.81 981.7 322.85 1167.93 430.37 1354.16 322.85"/><polygon class="cls-2" points="1351.94 322.85 1351.94 107.81 1165.71 0.29 979.48 107.81 979.48 322.85 1165.71 430.37 1351.94 322.85"/><polygon class="cls-2" points="1349.73 322.85 1349.73 107.81 1163.49 0.29 977.26 107.81 977.26 322.85 1163.49 430.37 1349.73 322.85"/><polygon class="cls-2" points="1347.51 322.85 1347.51 107.81 1161.28 0.29 975.05 107.81 975.05 322.85 1161.28 430.37 1347.51 322.85"/><polygon class="cls-2" points="1345.29 322.85 1345.29 107.81 1159.06 0.29 972.83 107.81 972.83 322.85 1159.06 430.37 1345.29 322.85"/><polygon class="cls-3" points="362.96 25.03 157.57 25.03 54.87 202.91 157.57 380.78 362.96 380.78 465.65 202.91 362.96 25.03"/><polygon class="cls-3" points="357.82 33.93 162.7 33.93 65.14 202.91 162.7 371.89 357.82 371.89 455.38 202.91 357.82 33.93"/><polygon class="cls-3" points="352.94 42.38 167.58 42.38 74.9 202.91 167.58 363.44 352.94 363.44 445.63 202.91 352.94 42.38"/><polygon class="cls-3" points="348.31 50.4 172.21 50.4 84.16 202.91 172.21 355.41 348.31 355.41 436.36 202.91 348.31 50.4"/><polygon class="cls-3" points="343.91 58.03 176.62 58.03 92.97 202.91 176.62 347.79 343.91 347.79 427.56 202.91 343.91 58.03"/><polygon class="cls-3" points="339.73 65.27 180.8 65.27 101.33 202.91 180.8 340.54 339.73 340.54 419.19 202.91 339.73 65.27"/><polygon class="cls-3" points="335.75 72.15 184.77 72.15 109.28 202.91 184.77 333.66 335.75 333.66 411.24 202.91 335.75 72.15"/><polygon class="cls-3" points="331.98 78.69 188.55 78.69 116.83 202.91 188.55 327.12 331.98 327.12 403.69 202.91 331.98 78.69"/><polygon class="cls-3" points="328.39 84.9 192.13 84.9 124 202.91 192.13 320.91 328.39 320.91 396.52 202.91 328.39 84.9"/><polygon class="cls-1" points="569.09 25.03 363.7 25.03 261 202.91 363.7 380.78 569.09 380.78 671.79 202.91 569.09 25.03"/><polygon class="cls-1" points="563.96 33.93 368.84 33.93 271.27 202.91 368.84 371.89 563.96 371.89 661.52 202.91 563.96 33.93"/><polygon class="cls-1" points="559.08 42.38 373.71 42.38 281.03 202.91 373.71 363.44 559.08 363.44 651.76 202.91 559.08 42.38"/><polygon class="cls-1" points="554.45 50.4 378.35 50.4 290.3 202.91 378.35 355.41 554.45 355.41 642.5 202.91 554.45 50.4"/><polygon class="cls-1" points="550.04 58.03 382.75 58.03 299.1 202.91 382.75 347.79 550.04 347.79 633.69 202.91 550.04 58.03"/><polygon class="cls-1" points="545.86 65.27 386.93 65.27 307.47 202.91 386.93 340.54 545.86 340.54 625.33 202.91 545.86 65.27"/><polygon class="cls-1" points="541.89 72.15 390.91 72.15 315.42 202.91 390.91 333.66 541.89 333.66 617.38 202.91 541.89 72.15"/><polygon class="cls-1" points="538.11 78.69 394.68 78.69 322.96 202.91 394.68 327.12 538.11 327.12 609.83 202.91 538.11 78.69"/><polygon class="cls-1" points="534.53 84.9 398.27 84.9 330.14 202.91 398.27 320.91 534.53 320.91 602.66 202.91 534.53 84.9"/><polygon class="cls-3" points="1215.51 499.3 1021.64 499.3 924.71 667.2 1021.64 835.09 1215.51 835.09 1312.45 667.2 1215.51 499.3"/><polygon class="cls-3" points="1205.82 516.09 1031.34 516.09 944.1 667.2 1031.34 818.3 1205.82 818.3 1293.06 667.2 1205.82 516.09"/><polygon class="cls-3" points="1197.1 531.2 1040.06 531.2 961.55 667.2 1040.06 803.19 1197.1 803.19 1275.61 667.2 1197.1 531.2"/><polygon class="cls-3" points="1189.24 544.8 1047.91 544.8 977.25 667.2 1047.91 789.59 1189.24 789.59 1259.91 667.2 1189.24 544.8"/><polygon class="cls-3" points="1182.18 557.04 1054.98 557.04 991.38 667.2 1054.98 777.35 1182.18 777.35 1245.78 667.2 1182.18 557.04"/><polygon class="cls-3" points="1175.82 568.06 1061.34 568.06 1004.1 667.2 1061.34 766.34 1175.82 766.34 1233.06 667.2 1175.82 568.06"/><polygon class="cls-3" points="1170.09 577.97 1067.06 577.97 1015.55 667.2 1067.06 756.42 1170.09 756.42 1221.61 667.2 1170.09 577.97"/><polygon class="cls-3" points="1164.94 586.89 1072.22 586.89 1025.85 667.2 1072.22 747.5 1164.94 747.5 1211.31 667.2 1164.94 586.89"/><polygon class="cls-3" points="1160.31 594.92 1076.85 594.92 1035.13 667.2 1076.85 739.47 1160.31 739.47 1202.03 667.2 1160.31 594.92"/><polygon class="cls-3" points="1156.13 602.15 1081.03 602.15 1043.47 667.2 1081.03 732.24 1156.13 732.24 1193.69 667.2 1156.13 602.15"/><polygon class="cls-3" points="1152.38 608.65 1084.78 608.65 1050.98 667.2 1084.78 725.74 1152.38 725.74 1186.18 667.2 1152.38 608.65"/><polygon class="cls-3" points="1149 614.51 1088.16 614.51 1057.74 667.2 1088.16 719.88 1149 719.88 1179.42 667.2 1149 614.51"/><polygon class="cls-3" points="1145.96 619.78 1091.2 619.78 1063.83 667.2 1091.2 714.62 1145.96 714.62 1173.33 667.2 1145.96 619.78"/><polygon class="cls-3" points="1143.22 624.52 1093.94 624.52 1069.3 667.2 1093.94 709.87 1143.22 709.87 1167.86 667.2 1143.22 624.52"/><polygon class="cls-3" points="1140.75 628.79 1096.4 628.79 1074.23 667.2 1096.4 705.61 1140.75 705.61 1162.93 667.2 1140.75 628.79"/><polygon class="cls-3" points="1138.54 632.63 1098.62 632.63 1078.66 667.2 1098.62 701.76 1138.54 701.76 1158.49 667.2 1138.54 632.63"/><polygon class="cls-3" points="1136.54 636.09 1100.62 636.09 1082.65 667.2 1100.62 698.31 1136.54 698.31 1154.5 667.2 1136.54 636.09"/><polygon class="cls-3" points="1134.74 639.2 1102.41 639.2 1086.25 667.2 1102.41 695.2 1134.74 695.2 1150.91 667.2 1134.74 639.2"/><polygon class="cls-3" points="1133.13 642 1104.03 642 1089.48 667.2 1104.03 692.4 1133.13 692.4 1147.68 667.2 1133.13 642"/><polygon class="cls-3" points="1131.67 644.52 1105.48 644.52 1092.39 667.2 1105.48 689.88 1131.67 689.88 1144.77 667.2 1131.67 644.52"/><polygon class="cls-3" points="1130.36 646.78 1106.79 646.78 1095.01 667.2 1106.79 687.61 1130.36 687.61 1142.15 667.2 1130.36 646.78"/><polygon class="cls-1" points="1412.16 498.68 1218.3 498.68 1121.36 666.58 1218.3 834.47 1412.16 834.47 1509.1 666.58 1412.16 498.68"/><polygon class="cls-1" points="1402.47 515.47 1227.99 515.47 1140.75 666.58 1227.99 817.68 1402.47 817.68 1489.71 666.58 1402.47 515.47"/><polygon class="cls-1" points="1393.75 530.58 1236.71 530.58 1158.2 666.58 1236.71 802.57 1393.75 802.57 1472.26 666.58 1393.75 530.58"/><polygon class="cls-1" points="1385.9 544.18 1244.57 544.18 1173.9 666.58 1244.57 788.97 1385.9 788.97 1456.56 666.58 1385.9 544.18"/><polygon class="cls-1" points="1378.83 556.42 1251.63 556.42 1188.04 666.58 1251.63 776.73 1378.83 776.73 1442.43 666.58 1378.83 556.42"/><polygon class="cls-1" points="1372.47 567.44 1257.99 567.44 1200.75 666.58 1257.99 765.72 1372.47 765.72 1429.71 666.58 1372.47 567.44"/><polygon class="cls-1" points="1366.75 577.35 1263.72 577.35 1212.2 666.58 1263.72 755.8 1366.75 755.8 1418.26 666.58 1366.75 577.35"/><polygon class="cls-1" points="1361.6 586.27 1268.87 586.27 1222.51 666.58 1268.87 746.88 1361.6 746.88 1407.96 666.58 1361.6 586.27"/><polygon class="cls-1" points="1356.96 594.3 1273.51 594.3 1231.78 666.58 1273.51 738.85 1356.96 738.85 1398.68 666.58 1356.96 594.3"/><polygon class="cls-1" points="1352.79 601.53 1277.68 601.53 1240.12 666.58 1277.68 731.62 1352.79 731.62 1390.34 666.58 1352.79 601.53"/><polygon class="cls-1" points="1349.03 608.04 1281.43 608.04 1247.63 666.58 1281.43 725.12 1349.03 725.12 1382.83 666.58 1349.03 608.04"/><polygon class="cls-1" points="1345.65 613.89 1284.81 613.89 1254.39 666.58 1284.81 719.26 1345.65 719.26 1376.07 666.58 1345.65 613.89"/><polygon class="cls-1" points="1342.61 619.16 1287.85 619.16 1260.48 666.58 1287.85 714 1342.61 714 1369.98 666.58 1342.61 619.16"/><polygon class="cls-1" points="1339.87 623.9 1290.59 623.9 1265.95 666.58 1290.59 709.25 1339.87 709.25 1364.51 666.58 1339.87 623.9"/><polygon class="cls-1" points="1337.41 628.17 1293.06 628.17 1270.88 666.58 1293.06 704.99 1337.41 704.99 1359.58 666.58 1337.41 628.17"/><polygon class="cls-1" points="1335.19 632.01 1295.27 632.01 1275.32 666.58 1295.27 701.15 1335.19 701.15 1355.15 666.58 1335.19 632.01"/><polygon class="cls-1" points="1333.19 635.47 1297.27 635.47 1279.31 666.58 1297.27 697.69 1333.19 697.69 1351.16 666.58 1333.19 635.47"/><polygon class="cls-1" points="1331.4 638.58 1299.07 638.58 1282.9 666.58 1299.07 694.58 1331.4 694.58 1347.56 666.58 1331.4 638.58"/><polygon class="cls-1" points="1329.78 641.38 1300.68 641.38 1286.13 666.58 1300.68 691.78 1329.78 691.78 1344.33 666.58 1329.78 641.38"/><polygon class="cls-1" points="1328.33 643.9 1302.14 643.9 1289.04 666.58 1302.14 689.26 1328.33 689.26 1341.42 666.58 1328.33 643.9"/><polygon class="cls-1" points="1327.02 646.17 1303.45 646.17 1291.66 666.58 1303.45 686.99 1327.02 686.99 1338.8 666.58 1327.02 646.17"/><polygon class="cls-3" points="786.97 499.3 593.1 499.3 496.17 667.19 593.1 835.09 786.97 835.09 883.9 667.19 786.97 499.3"/><polygon class="cls-3" points="777.28 516.09 602.79 516.09 515.55 667.19 602.79 818.3 777.28 818.3 864.52 667.19 777.28 516.09"/><polygon class="cls-3" points="768.55 531.2 611.52 531.2 533 667.19 611.52 803.19 768.55 803.19 847.07 667.19 768.55 531.2"/><polygon class="cls-3" points="760.7 544.8 619.37 544.8 548.71 667.19 619.37 789.59 760.7 789.59 831.37 667.19 760.7 544.8"/><polygon class="cls-3" points="753.63 557.04 626.44 557.04 562.84 667.19 626.44 777.35 753.63 777.35 817.23 667.19 753.63 557.04"/><polygon class="cls-3" points="747.27 568.05 632.8 568.05 575.56 667.19 632.8 766.33 747.27 766.33 804.51 667.19 747.27 568.05"/><polygon class="cls-3" points="741.55 577.97 638.52 577.97 587.01 667.19 638.52 756.42 741.55 756.42 793.07 667.19 741.55 577.97"/><polygon class="cls-3" points="736.4 586.89 643.67 586.89 597.31 667.19 643.67 747.5 736.4 747.5 782.76 667.19 736.4 586.89"/><polygon class="cls-3" points="731.76 594.92 648.31 594.92 606.58 667.19 648.31 739.47 731.76 739.47 773.49 667.19 731.76 594.92"/><polygon class="cls-3" points="727.59 602.15 652.48 602.15 614.93 667.19 652.48 732.24 727.59 732.24 765.14 667.19 727.59 602.15"/><polygon class="cls-3" points="723.84 608.65 656.24 608.65 622.44 667.19 656.24 725.74 723.84 725.74 757.63 667.19 723.84 608.65"/><polygon class="cls-3" points="720.46 614.51 659.62 614.51 629.2 667.19 659.62 719.88 720.46 719.88 750.87 667.19 720.46 614.51"/><polygon class="cls-3" points="717.41 619.77 662.66 619.77 635.28 667.19 662.66 714.61 717.41 714.61 744.79 667.19 717.41 619.77"/><polygon class="cls-3" points="714.67 624.52 665.4 624.52 640.76 667.19 665.4 709.87 714.67 709.87 739.32 667.19 714.67 624.52"/><polygon class="cls-3" points="712.21 628.78 667.86 628.78 645.68 667.19 667.86 705.6 712.21 705.6 734.39 667.19 712.21 628.78"/><polygon class="cls-3" points="709.99 632.63 670.08 632.63 650.12 667.19 670.08 701.76 709.99 701.76 729.95 667.19 709.99 632.63"/><polygon class="cls-3" points="708 636.08 672.07 636.08 654.11 667.19 672.07 698.3 708 698.3 725.96 667.19 708 636.08"/><polygon class="cls-3" points="706.2 639.19 673.87 639.19 657.7 667.19 673.87 695.19 706.2 695.19 722.37 667.19 706.2 639.19"/><polygon class="cls-3" points="704.59 641.99 675.49 641.99 660.94 667.19 675.49 692.39 704.59 692.39 719.13 667.19 704.59 641.99"/><polygon class="cls-3" points="703.13 644.51 676.94 644.51 663.85 667.19 676.94 689.87 703.13 689.87 716.23 667.19 703.13 644.51"/><polygon class="cls-3" points="701.82 646.78 678.25 646.78 666.47 667.19 678.25 687.61 701.82 687.61 713.61 667.19 701.82 646.78"/><polygon class="cls-1" points="858.08 764.52 858.08 570.65 690.18 473.72 522.29 570.65 522.29 764.52 690.18 861.46 858.08 764.52"/><polygon class="cls-1" points="841.29 754.83 841.29 580.35 690.18 493.11 539.08 580.35 539.08 754.83 690.18 842.07 841.29 754.83"/><polygon class="cls-1" points="826.18 746.11 826.18 589.07 690.18 510.56 554.19 589.07 554.19 746.11 690.18 824.62 826.18 746.11"/><polygon class="cls-1" points="812.58 738.25 812.58 596.92 690.18 526.26 567.79 596.92 567.79 738.25 690.18 808.92 812.58 738.25"/><polygon class="cls-1" points="800.34 731.19 800.34 603.99 690.18 540.39 580.03 603.99 580.03 731.19 690.18 794.78 800.34 731.19"/><polygon class="cls-1" points="789.32 724.83 789.32 610.35 690.18 553.11 591.04 610.35 591.04 724.83 690.18 782.07 789.32 724.83"/><polygon class="cls-1" points="779.41 719.1 779.41 616.07 690.18 564.56 600.96 616.07 600.96 719.1 690.18 770.62 779.41 719.1"/><polygon class="cls-1" points="770.49 713.95 770.49 621.23 690.18 574.86 609.88 621.23 609.88 713.95 690.18 760.32 770.49 713.95"/><polygon class="cls-1" points="762.46 709.32 762.46 625.86 690.18 584.13 617.91 625.86 617.91 709.32 690.18 751.04 762.46 709.32"/><polygon class="cls-1" points="755.23 705.14 755.23 630.03 690.18 592.48 625.14 630.03 625.14 705.14 690.18 742.7 755.23 705.14"/><polygon class="cls-1" points="748.72 701.39 748.72 633.79 690.18 599.99 631.64 633.79 631.64 701.39 690.18 735.19 748.72 701.39"/><polygon class="cls-1" points="742.87 698.01 742.87 637.17 690.18 606.75 637.5 637.17 637.5 698.01 690.18 728.43 742.87 698.01"/><polygon class="cls-1" points="737.6 694.97 737.6 640.21 690.18 612.84 642.76 640.21 642.76 694.97 690.18 722.34 737.6 694.97"/><polygon class="cls-1" points="732.86 692.23 732.86 642.95 690.18 618.31 647.51 642.95 647.51 692.23 690.18 716.87 732.86 692.23"/><polygon class="cls-1" points="728.59 689.76 728.59 645.41 690.18 623.24 651.77 645.41 651.77 689.76 690.18 711.94 728.59 689.76"/><polygon class="cls-1" points="724.75 687.55 724.75 647.63 690.18 627.67 655.61 647.63 655.61 687.55 690.18 707.5 724.75 687.55"/><polygon class="cls-1" points="721.29 685.55 721.29 649.63 690.18 631.66 659.07 649.63 659.07 685.55 690.18 703.51 721.29 685.55"/><polygon class="cls-1" points="718.18 683.75 718.18 651.42 690.18 635.26 662.18 651.42 662.18 683.75 690.18 699.92 718.18 683.75"/><polygon class="cls-1" points="715.38 682.14 715.38 653.04 690.18 638.49 664.98 653.04 664.98 682.14 690.18 696.69 715.38 682.14"/><polygon class="cls-1" points="712.86 680.68 712.86 654.49 690.18 641.4 667.5 654.49 667.5 680.68 690.18 693.78 712.86 680.68"/><polygon class="cls-1" points="710.59 679.37 710.59 655.8 690.18 644.02 669.77 655.8 669.77 679.37 690.18 691.16 710.59 679.37"/></svg>